G04 #@! TF.GenerationSoftware,KiCad,Pcbnew,(5.0.0)*
G04 #@! TF.CreationDate,2018-11-17T14:05:54+01:00*
G04 #@! TF.ProjectId,refPhotoDiode_MDversion,72656650686F746F44696F64655F4D44,rev?*
G04 #@! TF.SameCoordinates,Original*
G04 #@! TF.FileFunction,Copper,L2,Bot,Signal*
G04 #@! TF.FilePolarity,Positive*
%FSLAX46Y46*%
G04 Gerber Fmt 4.6, Leading zero omitted, Abs format (unit mm)*
G04 Created by KiCad (PCBNEW (5.0.0)) date 11/17/18 14:05:54*
%MOMM*%
%LPD*%
G01*
G04 APERTURE LIST*
G04 #@! TA.AperFunction,SMDPad,CuDef*
%ADD10R,1.000000X1.250000*%
G04 #@! TD*
G04 #@! TA.AperFunction,Conductor*
%ADD11C,0.100000*%
G04 #@! TD*
G04 #@! TA.AperFunction,SMDPad,CuDef*
%ADD12C,0.975000*%
G04 #@! TD*
G04 #@! TA.AperFunction,SMDPad,CuDef*
%ADD13R,3.300000X0.750000*%
G04 #@! TD*
G04 #@! TA.AperFunction,SMDPad,CuDef*
%ADD14R,0.750000X3.300000*%
G04 #@! TD*
G04 #@! TA.AperFunction,SMDPad,CuDef*
%ADD15C,0.750000*%
G04 #@! TD*
G04 #@! TA.AperFunction,SMDPad,CuDef*
%ADD16R,1.100000X0.600000*%
G04 #@! TD*
G04 #@! TA.AperFunction,SMDPad,CuDef*
%ADD17R,1.250000X1.000000*%
G04 #@! TD*
G04 #@! TA.AperFunction,ComponentPad*
%ADD18O,1.200000X1.600000*%
G04 #@! TD*
G04 #@! TA.AperFunction,ComponentPad*
%ADD19O,1.200000X1.200000*%
G04 #@! TD*
G04 #@! TA.AperFunction,WasherPad*
%ADD20C,2.200000*%
G04 #@! TD*
G04 #@! TA.AperFunction,SMDPad,CuDef*
%ADD21R,0.600000X1.550000*%
G04 #@! TD*
G04 #@! TA.AperFunction,SMDPad,CuDef*
%ADD22R,1.200000X1.800000*%
G04 #@! TD*
G04 #@! TA.AperFunction,ViaPad*
%ADD23C,0.800000*%
G04 #@! TD*
G04 #@! TA.AperFunction,Conductor*
%ADD24C,0.250000*%
G04 #@! TD*
G04 #@! TA.AperFunction,Conductor*
%ADD25C,0.254000*%
G04 #@! TD*
G04 APERTURE END LIST*
D10*
G04 #@! TO.P,C3,1*
G04 #@! TO.N,Net-(C3-Pad1)*
X154170000Y-85815000D03*
G04 #@! TO.P,C3,2*
G04 #@! TO.N,GND*
X152170000Y-85815000D03*
G04 #@! TD*
D11*
G04 #@! TO.N,+5V*
G04 #@! TO.C,L1*
G36*
X152500142Y-83206174D02*
X152523803Y-83209684D01*
X152547007Y-83215496D01*
X152569529Y-83223554D01*
X152591153Y-83233782D01*
X152611670Y-83246079D01*
X152630883Y-83260329D01*
X152648607Y-83276393D01*
X152664671Y-83294117D01*
X152678921Y-83313330D01*
X152691218Y-83333847D01*
X152701446Y-83355471D01*
X152709504Y-83377993D01*
X152715316Y-83401197D01*
X152718826Y-83424858D01*
X152720000Y-83448750D01*
X152720000Y-84361250D01*
X152718826Y-84385142D01*
X152715316Y-84408803D01*
X152709504Y-84432007D01*
X152701446Y-84454529D01*
X152691218Y-84476153D01*
X152678921Y-84496670D01*
X152664671Y-84515883D01*
X152648607Y-84533607D01*
X152630883Y-84549671D01*
X152611670Y-84563921D01*
X152591153Y-84576218D01*
X152569529Y-84586446D01*
X152547007Y-84594504D01*
X152523803Y-84600316D01*
X152500142Y-84603826D01*
X152476250Y-84605000D01*
X151988750Y-84605000D01*
X151964858Y-84603826D01*
X151941197Y-84600316D01*
X151917993Y-84594504D01*
X151895471Y-84586446D01*
X151873847Y-84576218D01*
X151853330Y-84563921D01*
X151834117Y-84549671D01*
X151816393Y-84533607D01*
X151800329Y-84515883D01*
X151786079Y-84496670D01*
X151773782Y-84476153D01*
X151763554Y-84454529D01*
X151755496Y-84432007D01*
X151749684Y-84408803D01*
X151746174Y-84385142D01*
X151745000Y-84361250D01*
X151745000Y-83448750D01*
X151746174Y-83424858D01*
X151749684Y-83401197D01*
X151755496Y-83377993D01*
X151763554Y-83355471D01*
X151773782Y-83333847D01*
X151786079Y-83313330D01*
X151800329Y-83294117D01*
X151816393Y-83276393D01*
X151834117Y-83260329D01*
X151853330Y-83246079D01*
X151873847Y-83233782D01*
X151895471Y-83223554D01*
X151917993Y-83215496D01*
X151941197Y-83209684D01*
X151964858Y-83206174D01*
X151988750Y-83205000D01*
X152476250Y-83205000D01*
X152500142Y-83206174D01*
X152500142Y-83206174D01*
G37*
D12*
G04 #@! TD*
G04 #@! TO.P,L1,1*
G04 #@! TO.N,+5V*
X152232500Y-83905000D03*
D11*
G04 #@! TO.N,Net-(C3-Pad1)*
G04 #@! TO.C,L1*
G36*
X154375142Y-83206174D02*
X154398803Y-83209684D01*
X154422007Y-83215496D01*
X154444529Y-83223554D01*
X154466153Y-83233782D01*
X154486670Y-83246079D01*
X154505883Y-83260329D01*
X154523607Y-83276393D01*
X154539671Y-83294117D01*
X154553921Y-83313330D01*
X154566218Y-83333847D01*
X154576446Y-83355471D01*
X154584504Y-83377993D01*
X154590316Y-83401197D01*
X154593826Y-83424858D01*
X154595000Y-83448750D01*
X154595000Y-84361250D01*
X154593826Y-84385142D01*
X154590316Y-84408803D01*
X154584504Y-84432007D01*
X154576446Y-84454529D01*
X154566218Y-84476153D01*
X154553921Y-84496670D01*
X154539671Y-84515883D01*
X154523607Y-84533607D01*
X154505883Y-84549671D01*
X154486670Y-84563921D01*
X154466153Y-84576218D01*
X154444529Y-84586446D01*
X154422007Y-84594504D01*
X154398803Y-84600316D01*
X154375142Y-84603826D01*
X154351250Y-84605000D01*
X153863750Y-84605000D01*
X153839858Y-84603826D01*
X153816197Y-84600316D01*
X153792993Y-84594504D01*
X153770471Y-84586446D01*
X153748847Y-84576218D01*
X153728330Y-84563921D01*
X153709117Y-84549671D01*
X153691393Y-84533607D01*
X153675329Y-84515883D01*
X153661079Y-84496670D01*
X153648782Y-84476153D01*
X153638554Y-84454529D01*
X153630496Y-84432007D01*
X153624684Y-84408803D01*
X153621174Y-84385142D01*
X153620000Y-84361250D01*
X153620000Y-83448750D01*
X153621174Y-83424858D01*
X153624684Y-83401197D01*
X153630496Y-83377993D01*
X153638554Y-83355471D01*
X153648782Y-83333847D01*
X153661079Y-83313330D01*
X153675329Y-83294117D01*
X153691393Y-83276393D01*
X153709117Y-83260329D01*
X153728330Y-83246079D01*
X153748847Y-83233782D01*
X153770471Y-83223554D01*
X153792993Y-83215496D01*
X153816197Y-83209684D01*
X153839858Y-83206174D01*
X153863750Y-83205000D01*
X154351250Y-83205000D01*
X154375142Y-83206174D01*
X154375142Y-83206174D01*
G37*
D12*
G04 #@! TD*
G04 #@! TO.P,L1,2*
G04 #@! TO.N,Net-(C3-Pad1)*
X154107500Y-83905000D03*
D13*
G04 #@! TO.P,U2,1*
G04 #@! TO.N,GND*
X150000000Y-80350000D03*
X150000000Y-92650000D03*
D14*
X143370000Y-86500000D03*
X156630000Y-86500000D03*
D15*
X155355000Y-80350000D03*
D11*
G04 #@! TD*
G04 #@! TO.N,GND*
G04 #@! TO.C,U2*
G36*
X156255000Y-83275000D02*
X156255000Y-80725000D01*
X153705000Y-80725000D01*
X153705000Y-79975000D01*
X157005000Y-79975000D01*
X157005000Y-83275000D01*
X156255000Y-83275000D01*
X156255000Y-83275000D01*
G37*
D15*
G04 #@! TO.P,U2,1*
G04 #@! TO.N,GND*
X144645000Y-92650000D03*
D11*
G04 #@! TD*
G04 #@! TO.N,GND*
G04 #@! TO.C,U2*
G36*
X143745000Y-89725000D02*
X143745000Y-92275000D01*
X146295000Y-92275000D01*
X146295000Y-93025000D01*
X142995000Y-93025000D01*
X142995000Y-89725000D01*
X143745000Y-89725000D01*
X143745000Y-89725000D01*
G37*
D15*
G04 #@! TO.P,U2,1*
G04 #@! TO.N,GND*
X143370000Y-81625000D03*
D11*
G04 #@! TD*
G04 #@! TO.N,GND*
G04 #@! TO.C,U2*
G36*
X146295000Y-80725000D02*
X143745000Y-80725000D01*
X143745000Y-83275000D01*
X142995000Y-83275000D01*
X142995000Y-79975000D01*
X146295000Y-79975000D01*
X146295000Y-80725000D01*
X146295000Y-80725000D01*
G37*
D15*
G04 #@! TO.P,U2,1*
G04 #@! TO.N,GND*
X156630000Y-91375000D03*
D11*
G04 #@! TD*
G04 #@! TO.N,GND*
G04 #@! TO.C,U2*
G36*
X153705000Y-92275000D02*
X156255000Y-92275000D01*
X156255000Y-89725000D01*
X157005000Y-89725000D01*
X157005000Y-93025000D01*
X153705000Y-93025000D01*
X153705000Y-92275000D01*
X153705000Y-92275000D01*
G37*
D16*
G04 #@! TO.P,U1,1*
G04 #@! TO.N,GND*
X151950000Y-89800000D03*
G04 #@! TO.P,U1,3*
G04 #@! TO.N,/A*
X151950000Y-87900000D03*
G04 #@! TO.P,U1,2*
G04 #@! TO.N,Net-(C1-Pad2)*
X151950000Y-88850000D03*
G04 #@! TO.P,U1,4*
G04 #@! TO.N,Net-(C3-Pad1)*
X154150000Y-87900000D03*
G04 #@! TO.P,U1,5*
G04 #@! TO.N,GND*
X154150000Y-89800000D03*
G04 #@! TD*
D10*
G04 #@! TO.P,C2,2*
G04 #@! TO.N,GND*
X148560000Y-83885000D03*
G04 #@! TO.P,C2,1*
G04 #@! TO.N,+5V*
X150560000Y-83885000D03*
G04 #@! TD*
D17*
G04 #@! TO.P,C1,1*
G04 #@! TO.N,/A*
X146061528Y-87828852D03*
G04 #@! TO.P,C1,2*
G04 #@! TO.N,Net-(C1-Pad2)*
X146061528Y-89828852D03*
G04 #@! TD*
D18*
G04 #@! TO.P,D1,1*
G04 #@! TO.N,Net-(C1-Pad2)*
X150000000Y-91000000D03*
D19*
G04 #@! TO.P,D1,2*
G04 #@! TO.N,GND*
X150000000Y-85920000D03*
G04 #@! TD*
D11*
G04 #@! TO.N,Net-(C1-Pad2)*
G04 #@! TO.C,R1*
G36*
X148441670Y-89280026D02*
X148465331Y-89283536D01*
X148488535Y-89289348D01*
X148511057Y-89297406D01*
X148532681Y-89307634D01*
X148553198Y-89319931D01*
X148572411Y-89334181D01*
X148590135Y-89350245D01*
X148606199Y-89367969D01*
X148620449Y-89387182D01*
X148632746Y-89407699D01*
X148642974Y-89429323D01*
X148651032Y-89451845D01*
X148656844Y-89475049D01*
X148660354Y-89498710D01*
X148661528Y-89522602D01*
X148661528Y-90010102D01*
X148660354Y-90033994D01*
X148656844Y-90057655D01*
X148651032Y-90080859D01*
X148642974Y-90103381D01*
X148632746Y-90125005D01*
X148620449Y-90145522D01*
X148606199Y-90164735D01*
X148590135Y-90182459D01*
X148572411Y-90198523D01*
X148553198Y-90212773D01*
X148532681Y-90225070D01*
X148511057Y-90235298D01*
X148488535Y-90243356D01*
X148465331Y-90249168D01*
X148441670Y-90252678D01*
X148417778Y-90253852D01*
X147505278Y-90253852D01*
X147481386Y-90252678D01*
X147457725Y-90249168D01*
X147434521Y-90243356D01*
X147411999Y-90235298D01*
X147390375Y-90225070D01*
X147369858Y-90212773D01*
X147350645Y-90198523D01*
X147332921Y-90182459D01*
X147316857Y-90164735D01*
X147302607Y-90145522D01*
X147290310Y-90125005D01*
X147280082Y-90103381D01*
X147272024Y-90080859D01*
X147266212Y-90057655D01*
X147262702Y-90033994D01*
X147261528Y-90010102D01*
X147261528Y-89522602D01*
X147262702Y-89498710D01*
X147266212Y-89475049D01*
X147272024Y-89451845D01*
X147280082Y-89429323D01*
X147290310Y-89407699D01*
X147302607Y-89387182D01*
X147316857Y-89367969D01*
X147332921Y-89350245D01*
X147350645Y-89334181D01*
X147369858Y-89319931D01*
X147390375Y-89307634D01*
X147411999Y-89297406D01*
X147434521Y-89289348D01*
X147457725Y-89283536D01*
X147481386Y-89280026D01*
X147505278Y-89278852D01*
X148417778Y-89278852D01*
X148441670Y-89280026D01*
X148441670Y-89280026D01*
G37*
D12*
G04 #@! TD*
G04 #@! TO.P,R1,1*
G04 #@! TO.N,Net-(C1-Pad2)*
X147961528Y-89766352D03*
D11*
G04 #@! TO.N,/A*
G04 #@! TO.C,R1*
G36*
X148441670Y-87405026D02*
X148465331Y-87408536D01*
X148488535Y-87414348D01*
X148511057Y-87422406D01*
X148532681Y-87432634D01*
X148553198Y-87444931D01*
X148572411Y-87459181D01*
X148590135Y-87475245D01*
X148606199Y-87492969D01*
X148620449Y-87512182D01*
X148632746Y-87532699D01*
X148642974Y-87554323D01*
X148651032Y-87576845D01*
X148656844Y-87600049D01*
X148660354Y-87623710D01*
X148661528Y-87647602D01*
X148661528Y-88135102D01*
X148660354Y-88158994D01*
X148656844Y-88182655D01*
X148651032Y-88205859D01*
X148642974Y-88228381D01*
X148632746Y-88250005D01*
X148620449Y-88270522D01*
X148606199Y-88289735D01*
X148590135Y-88307459D01*
X148572411Y-88323523D01*
X148553198Y-88337773D01*
X148532681Y-88350070D01*
X148511057Y-88360298D01*
X148488535Y-88368356D01*
X148465331Y-88374168D01*
X148441670Y-88377678D01*
X148417778Y-88378852D01*
X147505278Y-88378852D01*
X147481386Y-88377678D01*
X147457725Y-88374168D01*
X147434521Y-88368356D01*
X147411999Y-88360298D01*
X147390375Y-88350070D01*
X147369858Y-88337773D01*
X147350645Y-88323523D01*
X147332921Y-88307459D01*
X147316857Y-88289735D01*
X147302607Y-88270522D01*
X147290310Y-88250005D01*
X147280082Y-88228381D01*
X147272024Y-88205859D01*
X147266212Y-88182655D01*
X147262702Y-88158994D01*
X147261528Y-88135102D01*
X147261528Y-87647602D01*
X147262702Y-87623710D01*
X147266212Y-87600049D01*
X147272024Y-87576845D01*
X147280082Y-87554323D01*
X147290310Y-87532699D01*
X147302607Y-87512182D01*
X147316857Y-87492969D01*
X147332921Y-87475245D01*
X147350645Y-87459181D01*
X147369858Y-87444931D01*
X147390375Y-87432634D01*
X147411999Y-87422406D01*
X147434521Y-87414348D01*
X147457725Y-87408536D01*
X147481386Y-87405026D01*
X147505278Y-87403852D01*
X148417778Y-87403852D01*
X148441670Y-87405026D01*
X148441670Y-87405026D01*
G37*
D12*
G04 #@! TD*
G04 #@! TO.P,R1,2*
G04 #@! TO.N,/A*
X147961528Y-87891352D03*
D20*
G04 #@! TO.P,REF\002A\002A,*
G04 #@! TO.N,*
X150000000Y-95000000D03*
G04 #@! TD*
D21*
G04 #@! TO.P,J3,1*
G04 #@! TO.N,+5V*
X152500000Y-106325000D03*
G04 #@! TO.P,J3,2*
G04 #@! TO.N,GND*
X151500000Y-106325000D03*
G04 #@! TO.P,J3,3*
G04 #@! TO.N,/A*
X150500000Y-106325000D03*
G04 #@! TO.P,J3,4*
G04 #@! TO.N,/R*
X149500000Y-106325000D03*
G04 #@! TO.P,J3,5*
G04 #@! TO.N,/G*
X148500000Y-106325000D03*
G04 #@! TO.P,J3,6*
G04 #@! TO.N,/B*
X147500000Y-106325000D03*
D22*
G04 #@! TO.P,J3,MP*
G04 #@! TO.N,N/C*
X153800000Y-103800000D03*
X146200000Y-103800000D03*
G04 #@! TD*
D23*
G04 #@! TO.N,+5V*
X152475000Y-100375000D03*
X153460000Y-82275000D03*
G04 #@! TO.N,GND*
X149500000Y-88875000D03*
X161050000Y-86750000D03*
X140975000Y-86550000D03*
X135400000Y-97725000D03*
X141125000Y-105750000D03*
X159250000Y-105025000D03*
X145050000Y-81650000D03*
X163975000Y-95525000D03*
X136525000Y-89300000D03*
X151375000Y-102300000D03*
X146125000Y-95575000D03*
X152600000Y-97425000D03*
G04 #@! TO.N,/R*
X141275000Y-92400000D03*
G04 #@! TO.N,/B*
X144725000Y-106275000D03*
G04 #@! TO.N,/G*
X145949695Y-98100000D03*
G04 #@! TD*
D24*
G04 #@! TO.N,Net-(C1-Pad2)*
X146125000Y-89762500D02*
X146187500Y-89825000D01*
X151150000Y-88850000D02*
X151950000Y-88850000D01*
X151100000Y-88850000D02*
X151150000Y-88850000D01*
X150000000Y-89950000D02*
X151100000Y-88850000D01*
X150000000Y-91000000D02*
X150000000Y-89950000D01*
X147899028Y-89828852D02*
X147961528Y-89766352D01*
X146061528Y-89828852D02*
X147899028Y-89828852D01*
X150000000Y-90800000D02*
X150000000Y-91000000D01*
X148966352Y-89766352D02*
X150000000Y-90800000D01*
X147961528Y-89766352D02*
X148966352Y-89766352D01*
G04 #@! TO.N,+5V*
X152500000Y-105300000D02*
X152475000Y-105275000D01*
X152500000Y-106325000D02*
X152500000Y-105300000D01*
X152475000Y-105275000D02*
X152475000Y-100375000D01*
X150580000Y-83905000D02*
X150560000Y-83885000D01*
X152232500Y-83905000D02*
X150580000Y-83905000D01*
X152232500Y-83905000D02*
X152232500Y-82772500D01*
X152232500Y-82772500D02*
X152730000Y-82275000D01*
X152730000Y-82275000D02*
X153460000Y-82275000D01*
G04 #@! TO.N,/R*
X149500000Y-106325000D02*
X149500000Y-105300000D01*
X149500000Y-105300000D02*
X149575001Y-105224999D01*
X149500000Y-105224998D02*
X149500000Y-100625000D01*
X149500000Y-100625000D02*
X141275000Y-92400000D01*
G04 #@! TO.N,/B*
X144725000Y-106275000D02*
X147450000Y-106275000D01*
X147450000Y-106275000D02*
X147500000Y-106325000D01*
G04 #@! TO.N,/G*
X148500000Y-101425000D02*
X148500000Y-106325000D01*
X146349694Y-99274694D02*
X148500000Y-101425000D01*
X146349694Y-98499999D02*
X146349694Y-99274694D01*
X145949695Y-98100000D02*
X146349694Y-98499999D01*
G04 #@! TO.N,/A*
X147899028Y-87828852D02*
X147961528Y-87891352D01*
X146061528Y-87828852D02*
X147899028Y-87828852D01*
X151941352Y-87891352D02*
X151950000Y-87900000D01*
X147961528Y-87891352D02*
X151941352Y-87891352D01*
X145186528Y-87828852D02*
X146061528Y-87828852D01*
X144550000Y-88465380D02*
X145186528Y-87828852D01*
X144550000Y-90575000D02*
X144550000Y-88465380D01*
X145425000Y-91450000D02*
X144550000Y-90575000D01*
X146675000Y-91450000D02*
X145425000Y-91450000D01*
X150500000Y-106325000D02*
X150500000Y-105300000D01*
X150475000Y-105275000D02*
X150475000Y-100075000D01*
X150475000Y-100075000D02*
X147400000Y-97000000D01*
X150500000Y-105300000D02*
X150475000Y-105275000D01*
X147400000Y-97000000D02*
X147400000Y-92175000D01*
X147400000Y-92175000D02*
X146675000Y-91450000D01*
G04 #@! TO.N,Net-(C3-Pad1)*
X154107500Y-85752500D02*
X154170000Y-85815000D01*
X154107500Y-83905000D02*
X154107500Y-85752500D01*
X154170000Y-87880000D02*
X154150000Y-87900000D01*
X154170000Y-85815000D02*
X154170000Y-87880000D01*
G04 #@! TD*
D25*
G04 #@! TO.N,GND*
G36*
X165971863Y-88384240D02*
X165971862Y-101615761D01*
X156615763Y-110971862D01*
X143384239Y-110971862D01*
X135312376Y-102900000D01*
X145266594Y-102900000D01*
X145266594Y-104700000D01*
X145291973Y-104827589D01*
X145364246Y-104935754D01*
X145472411Y-105008027D01*
X145600000Y-105033406D01*
X146800000Y-105033406D01*
X146927589Y-105008027D01*
X147035754Y-104935754D01*
X147108027Y-104827589D01*
X147133406Y-104700000D01*
X147133406Y-102900000D01*
X147108027Y-102772411D01*
X147035754Y-102664246D01*
X146927589Y-102591973D01*
X146800000Y-102566594D01*
X145600000Y-102566594D01*
X145472411Y-102591973D01*
X145364246Y-102664246D01*
X145291973Y-102772411D01*
X145266594Y-102900000D01*
X135312376Y-102900000D01*
X134028138Y-101615763D01*
X134028138Y-92255391D01*
X140548000Y-92255391D01*
X140548000Y-92544609D01*
X140658679Y-92811813D01*
X140863187Y-93016321D01*
X141130391Y-93127000D01*
X141362776Y-93127000D01*
X145666274Y-97430498D01*
X145537882Y-97483679D01*
X145333374Y-97688187D01*
X145222695Y-97955391D01*
X145222695Y-98244609D01*
X145333374Y-98511813D01*
X145537882Y-98716321D01*
X145805086Y-98827000D01*
X145897694Y-98827000D01*
X145897695Y-99230172D01*
X145888839Y-99274694D01*
X145923919Y-99451055D01*
X145923920Y-99451056D01*
X146023821Y-99600568D01*
X146061561Y-99625785D01*
X148048000Y-101612225D01*
X148048001Y-105258283D01*
X148000000Y-105290356D01*
X147927589Y-105241973D01*
X147800000Y-105216594D01*
X147200000Y-105216594D01*
X147072411Y-105241973D01*
X146964246Y-105314246D01*
X146891973Y-105422411D01*
X146866594Y-105550000D01*
X146866594Y-105823000D01*
X145301134Y-105823000D01*
X145136813Y-105658679D01*
X144869609Y-105548000D01*
X144580391Y-105548000D01*
X144313187Y-105658679D01*
X144108679Y-105863187D01*
X143998000Y-106130391D01*
X143998000Y-106419609D01*
X144108679Y-106686813D01*
X144313187Y-106891321D01*
X144580391Y-107002000D01*
X144869609Y-107002000D01*
X145136813Y-106891321D01*
X145301134Y-106727000D01*
X146866594Y-106727000D01*
X146866594Y-107100000D01*
X146891973Y-107227589D01*
X146964246Y-107335754D01*
X147072411Y-107408027D01*
X147200000Y-107433406D01*
X147800000Y-107433406D01*
X147927589Y-107408027D01*
X148000000Y-107359644D01*
X148072411Y-107408027D01*
X148200000Y-107433406D01*
X148800000Y-107433406D01*
X148927589Y-107408027D01*
X149000000Y-107359644D01*
X149072411Y-107408027D01*
X149200000Y-107433406D01*
X149800000Y-107433406D01*
X149927589Y-107408027D01*
X150000000Y-107359644D01*
X150072411Y-107408027D01*
X150200000Y-107433406D01*
X150650782Y-107433406D01*
X150661673Y-107459699D01*
X150840302Y-107638327D01*
X151073691Y-107735000D01*
X151214250Y-107735000D01*
X151373000Y-107576250D01*
X151373000Y-106452000D01*
X151353000Y-106452000D01*
X151353000Y-106198000D01*
X151373000Y-106198000D01*
X151373000Y-105073750D01*
X151627000Y-105073750D01*
X151627000Y-106198000D01*
X151647000Y-106198000D01*
X151647000Y-106452000D01*
X151627000Y-106452000D01*
X151627000Y-107576250D01*
X151785750Y-107735000D01*
X151926309Y-107735000D01*
X152159698Y-107638327D01*
X152338327Y-107459699D01*
X152349218Y-107433406D01*
X152800000Y-107433406D01*
X152927589Y-107408027D01*
X153035754Y-107335754D01*
X153108027Y-107227589D01*
X153133406Y-107100000D01*
X153133406Y-105550000D01*
X153108027Y-105422411D01*
X153035754Y-105314246D01*
X152952643Y-105258713D01*
X152949313Y-105241973D01*
X152927000Y-105129797D01*
X152927000Y-104880011D01*
X152964246Y-104935754D01*
X153072411Y-105008027D01*
X153200000Y-105033406D01*
X154400000Y-105033406D01*
X154527589Y-105008027D01*
X154635754Y-104935754D01*
X154708027Y-104827589D01*
X154733406Y-104700000D01*
X154733406Y-102900000D01*
X154708027Y-102772411D01*
X154635754Y-102664246D01*
X154527589Y-102591973D01*
X154400000Y-102566594D01*
X153200000Y-102566594D01*
X153072411Y-102591973D01*
X152964246Y-102664246D01*
X152927000Y-102719989D01*
X152927000Y-100951134D01*
X153091321Y-100786813D01*
X153202000Y-100519609D01*
X153202000Y-100230391D01*
X153091321Y-99963187D01*
X152886813Y-99758679D01*
X152619609Y-99648000D01*
X152330391Y-99648000D01*
X152063187Y-99758679D01*
X151858679Y-99963187D01*
X151748000Y-100230391D01*
X151748000Y-100519609D01*
X151858679Y-100786813D01*
X152023001Y-100951135D01*
X152023000Y-104955051D01*
X151926309Y-104915000D01*
X151785750Y-104915000D01*
X151627000Y-105073750D01*
X151373000Y-105073750D01*
X151214250Y-104915000D01*
X151073691Y-104915000D01*
X150927000Y-104975761D01*
X150927000Y-100119518D01*
X150935855Y-100075000D01*
X150900775Y-99898638D01*
X150826091Y-99786866D01*
X150800874Y-99749126D01*
X150763134Y-99723909D01*
X147852000Y-96812776D01*
X147852000Y-94716152D01*
X148573000Y-94716152D01*
X148573000Y-95283848D01*
X148790247Y-95808331D01*
X149191669Y-96209753D01*
X149716152Y-96427000D01*
X150283848Y-96427000D01*
X150808331Y-96209753D01*
X151209753Y-95808331D01*
X151427000Y-95283848D01*
X151427000Y-94716152D01*
X151209753Y-94191669D01*
X150808331Y-93790247D01*
X150283848Y-93573000D01*
X149716152Y-93573000D01*
X149191669Y-93790247D01*
X148790247Y-94191669D01*
X148573000Y-94716152D01*
X147852000Y-94716152D01*
X147852000Y-92219518D01*
X147860855Y-92175000D01*
X147825775Y-91998638D01*
X147751091Y-91886866D01*
X147725874Y-91849126D01*
X147688133Y-91823908D01*
X147026093Y-91161869D01*
X147000874Y-91124126D01*
X146851362Y-91024225D01*
X146719518Y-90998000D01*
X146675000Y-90989145D01*
X146630482Y-90998000D01*
X145612225Y-90998000D01*
X145002000Y-90387776D01*
X145002000Y-88652604D01*
X145156404Y-88498200D01*
X145200774Y-88564606D01*
X145308939Y-88636879D01*
X145436528Y-88662258D01*
X146686528Y-88662258D01*
X146814117Y-88636879D01*
X146922282Y-88564606D01*
X146994555Y-88456441D01*
X147004794Y-88404967D01*
X147097167Y-88543213D01*
X147284410Y-88668325D01*
X147505278Y-88712258D01*
X148417778Y-88712258D01*
X148638646Y-88668325D01*
X148825889Y-88543213D01*
X148951001Y-88355970D01*
X148953511Y-88343352D01*
X151102505Y-88343352D01*
X151123652Y-88375000D01*
X151112535Y-88391638D01*
X151100000Y-88389145D01*
X151055482Y-88398000D01*
X150923638Y-88424225D01*
X150774126Y-88524126D01*
X150748908Y-88561867D01*
X149711867Y-89598909D01*
X149674127Y-89624126D01*
X149648910Y-89661866D01*
X149648909Y-89661867D01*
X149589701Y-89750477D01*
X149317445Y-89478221D01*
X149292226Y-89440478D01*
X149142714Y-89340577D01*
X149010870Y-89314352D01*
X148966352Y-89305497D01*
X148952305Y-89308291D01*
X148951001Y-89301734D01*
X148825889Y-89114491D01*
X148638646Y-88989379D01*
X148417778Y-88945446D01*
X147505278Y-88945446D01*
X147284410Y-88989379D01*
X147097167Y-89114491D01*
X147004794Y-89252737D01*
X146994555Y-89201263D01*
X146922282Y-89093098D01*
X146814117Y-89020825D01*
X146686528Y-88995446D01*
X145436528Y-88995446D01*
X145308939Y-89020825D01*
X145200774Y-89093098D01*
X145128501Y-89201263D01*
X145103122Y-89328852D01*
X145103122Y-90328852D01*
X145128501Y-90456441D01*
X145200774Y-90564606D01*
X145308939Y-90636879D01*
X145436528Y-90662258D01*
X146686528Y-90662258D01*
X146814117Y-90636879D01*
X146922282Y-90564606D01*
X146994555Y-90456441D01*
X147019934Y-90328852D01*
X147019934Y-90302626D01*
X147097167Y-90418213D01*
X147284410Y-90543325D01*
X147505278Y-90587258D01*
X148417778Y-90587258D01*
X148638646Y-90543325D01*
X148825889Y-90418213D01*
X148887212Y-90326436D01*
X149105597Y-90544822D01*
X149073000Y-90708699D01*
X149073000Y-91291302D01*
X149126785Y-91561697D01*
X149331671Y-91868330D01*
X149638304Y-92073215D01*
X150000000Y-92145161D01*
X150361697Y-92073215D01*
X150668330Y-91868330D01*
X150873215Y-91561697D01*
X150927000Y-91291301D01*
X150927000Y-90708698D01*
X150881394Y-90479419D01*
X151040302Y-90638327D01*
X151273691Y-90735000D01*
X151664250Y-90735000D01*
X151823000Y-90576250D01*
X151823000Y-89927000D01*
X152077000Y-89927000D01*
X152077000Y-90576250D01*
X152235750Y-90735000D01*
X152626309Y-90735000D01*
X152859698Y-90638327D01*
X153038327Y-90459699D01*
X153050000Y-90431518D01*
X153061673Y-90459699D01*
X153240302Y-90638327D01*
X153473691Y-90735000D01*
X153864250Y-90735000D01*
X154023000Y-90576250D01*
X154023000Y-89927000D01*
X154277000Y-89927000D01*
X154277000Y-90576250D01*
X154435750Y-90735000D01*
X154826309Y-90735000D01*
X155059698Y-90638327D01*
X155238327Y-90459699D01*
X155335000Y-90226310D01*
X155335000Y-90085750D01*
X155176250Y-89927000D01*
X154277000Y-89927000D01*
X154023000Y-89927000D01*
X153123750Y-89927000D01*
X153050000Y-90000750D01*
X152976250Y-89927000D01*
X152077000Y-89927000D01*
X151823000Y-89927000D01*
X151803000Y-89927000D01*
X151803000Y-89673000D01*
X151823000Y-89673000D01*
X151823000Y-89653000D01*
X152077000Y-89653000D01*
X152077000Y-89673000D01*
X152976250Y-89673000D01*
X153050000Y-89599250D01*
X153123750Y-89673000D01*
X154023000Y-89673000D01*
X154023000Y-89023750D01*
X154277000Y-89023750D01*
X154277000Y-89673000D01*
X155176250Y-89673000D01*
X155335000Y-89514250D01*
X155335000Y-89373690D01*
X155238327Y-89140301D01*
X155059698Y-88961673D01*
X154826309Y-88865000D01*
X154435750Y-88865000D01*
X154277000Y-89023750D01*
X154023000Y-89023750D01*
X153864250Y-88865000D01*
X153473691Y-88865000D01*
X153240302Y-88961673D01*
X153061673Y-89140301D01*
X153050000Y-89168482D01*
X153038327Y-89140301D01*
X152859698Y-88961673D01*
X152833406Y-88950782D01*
X152833406Y-88550000D01*
X152808027Y-88422411D01*
X152776348Y-88375000D01*
X152808027Y-88327589D01*
X152833406Y-88200000D01*
X152833406Y-87600000D01*
X152808027Y-87472411D01*
X152735754Y-87364246D01*
X152627589Y-87291973D01*
X152500000Y-87266594D01*
X151400000Y-87266594D01*
X151272411Y-87291973D01*
X151164246Y-87364246D01*
X151114062Y-87439352D01*
X148953511Y-87439352D01*
X148951001Y-87426734D01*
X148825889Y-87239491D01*
X148638646Y-87114379D01*
X148417778Y-87070446D01*
X147505278Y-87070446D01*
X147284410Y-87114379D01*
X147097167Y-87239491D01*
X147019934Y-87355078D01*
X147019934Y-87328852D01*
X146994555Y-87201263D01*
X146922282Y-87093098D01*
X146814117Y-87020825D01*
X146686528Y-86995446D01*
X145436528Y-86995446D01*
X145308939Y-87020825D01*
X145200774Y-87093098D01*
X145128501Y-87201263D01*
X145103122Y-87328852D01*
X145103122Y-87384587D01*
X145010166Y-87403077D01*
X144860654Y-87502978D01*
X144835435Y-87540721D01*
X144261867Y-88114289D01*
X144224127Y-88139506D01*
X144198910Y-88177246D01*
X144198909Y-88177247D01*
X144124225Y-88289019D01*
X144089145Y-88465380D01*
X144098001Y-88509902D01*
X144098000Y-90530482D01*
X144089145Y-90575000D01*
X144098000Y-90619517D01*
X144124225Y-90751361D01*
X144224126Y-90900874D01*
X144261869Y-90926093D01*
X145073908Y-91738133D01*
X145099126Y-91775874D01*
X145136866Y-91801091D01*
X145248638Y-91875775D01*
X145425000Y-91910855D01*
X145469518Y-91902000D01*
X146487776Y-91902000D01*
X146948001Y-92362226D01*
X146948000Y-96955482D01*
X146939145Y-97000000D01*
X146948000Y-97044517D01*
X146974225Y-97176361D01*
X147074126Y-97325874D01*
X147111869Y-97351093D01*
X150023001Y-100262226D01*
X150023000Y-105160369D01*
X150000775Y-105048638D01*
X149952000Y-104975641D01*
X149952000Y-100669518D01*
X149960855Y-100625000D01*
X149925775Y-100448638D01*
X149825874Y-100299126D01*
X149788131Y-100273907D01*
X142002000Y-92487776D01*
X142002000Y-92255391D01*
X141891321Y-91988187D01*
X141686813Y-91783679D01*
X141419609Y-91673000D01*
X141130391Y-91673000D01*
X140863187Y-91783679D01*
X140658679Y-91988187D01*
X140548000Y-92255391D01*
X134028138Y-92255391D01*
X134028138Y-88384237D01*
X136174764Y-86237611D01*
X148806528Y-86237611D01*
X149018920Y-86670156D01*
X149380673Y-86988497D01*
X149682391Y-87113462D01*
X149873000Y-86988731D01*
X149873000Y-86047000D01*
X150127000Y-86047000D01*
X150127000Y-86988731D01*
X150317609Y-87113462D01*
X150619327Y-86988497D01*
X150981080Y-86670156D01*
X151035000Y-86560346D01*
X151035000Y-86566310D01*
X151131673Y-86799699D01*
X151310302Y-86978327D01*
X151543691Y-87075000D01*
X151884250Y-87075000D01*
X152043000Y-86916250D01*
X152043000Y-85942000D01*
X152297000Y-85942000D01*
X152297000Y-86916250D01*
X152455750Y-87075000D01*
X152796309Y-87075000D01*
X153029698Y-86978327D01*
X153208327Y-86799699D01*
X153305000Y-86566310D01*
X153305000Y-86100750D01*
X153146250Y-85942000D01*
X152297000Y-85942000D01*
X152043000Y-85942000D01*
X151193750Y-85942000D01*
X151077208Y-86058542D01*
X151069714Y-86047000D01*
X150127000Y-86047000D01*
X149873000Y-86047000D01*
X148930286Y-86047000D01*
X148806528Y-86237611D01*
X136174764Y-86237611D01*
X138241625Y-84170750D01*
X147425000Y-84170750D01*
X147425000Y-84636310D01*
X147521673Y-84869699D01*
X147700302Y-85048327D01*
X147933691Y-85145000D01*
X148274250Y-85145000D01*
X148433000Y-84986250D01*
X148433000Y-84012000D01*
X148687000Y-84012000D01*
X148687000Y-84986250D01*
X148845750Y-85145000D01*
X149047152Y-85145000D01*
X149018920Y-85169844D01*
X148806528Y-85602389D01*
X148930286Y-85793000D01*
X149873000Y-85793000D01*
X149873000Y-85773000D01*
X150127000Y-85773000D01*
X150127000Y-85793000D01*
X151069714Y-85793000D01*
X151159879Y-85654129D01*
X151193750Y-85688000D01*
X152043000Y-85688000D01*
X152043000Y-85668000D01*
X152297000Y-85668000D01*
X152297000Y-85688000D01*
X153146250Y-85688000D01*
X153305000Y-85529250D01*
X153305000Y-85063690D01*
X153208327Y-84830301D01*
X153029698Y-84651673D01*
X152977457Y-84630034D01*
X153009473Y-84582118D01*
X153053406Y-84361250D01*
X153053406Y-83448750D01*
X153009473Y-83227882D01*
X152884361Y-83040639D01*
X152716048Y-82928176D01*
X152900545Y-82743679D01*
X153048187Y-82891321D01*
X153315391Y-83002000D01*
X153513466Y-83002000D01*
X153455639Y-83040639D01*
X153330527Y-83227882D01*
X153286594Y-83448750D01*
X153286594Y-84361250D01*
X153330527Y-84582118D01*
X153455639Y-84769361D01*
X153605418Y-84869440D01*
X153542411Y-84881973D01*
X153434246Y-84954246D01*
X153361973Y-85062411D01*
X153336594Y-85190000D01*
X153336594Y-86440000D01*
X153361973Y-86567589D01*
X153434246Y-86675754D01*
X153542411Y-86748027D01*
X153670000Y-86773406D01*
X153718000Y-86773406D01*
X153718001Y-87266594D01*
X153600000Y-87266594D01*
X153472411Y-87291973D01*
X153364246Y-87364246D01*
X153291973Y-87472411D01*
X153266594Y-87600000D01*
X153266594Y-88200000D01*
X153291973Y-88327589D01*
X153364246Y-88435754D01*
X153472411Y-88508027D01*
X153600000Y-88533406D01*
X154700000Y-88533406D01*
X154827589Y-88508027D01*
X154935754Y-88435754D01*
X155008027Y-88327589D01*
X155033406Y-88200000D01*
X155033406Y-87600000D01*
X155008027Y-87472411D01*
X154935754Y-87364246D01*
X154827589Y-87291973D01*
X154700000Y-87266594D01*
X154622000Y-87266594D01*
X154622000Y-86773406D01*
X154670000Y-86773406D01*
X154797589Y-86748027D01*
X154905754Y-86675754D01*
X154978027Y-86567589D01*
X155003406Y-86440000D01*
X155003406Y-85190000D01*
X154978027Y-85062411D01*
X154905754Y-84954246D01*
X154797589Y-84881973D01*
X154670000Y-84856594D01*
X154628808Y-84856594D01*
X154759361Y-84769361D01*
X154884473Y-84582118D01*
X154928406Y-84361250D01*
X154928406Y-83448750D01*
X154884473Y-83227882D01*
X154759361Y-83040639D01*
X154572118Y-82915527D01*
X154351250Y-82871594D01*
X153891540Y-82871594D01*
X154076321Y-82686813D01*
X154187000Y-82419609D01*
X154187000Y-82130391D01*
X154076321Y-81863187D01*
X153871813Y-81658679D01*
X153604609Y-81548000D01*
X153315391Y-81548000D01*
X153048187Y-81658679D01*
X152883866Y-81823000D01*
X152774516Y-81823000D01*
X152729999Y-81814145D01*
X152685483Y-81823000D01*
X152685482Y-81823000D01*
X152553638Y-81849225D01*
X152404126Y-81949126D01*
X152378908Y-81986867D01*
X151944367Y-82421409D01*
X151906627Y-82446626D01*
X151881410Y-82484366D01*
X151881409Y-82484367D01*
X151806725Y-82596139D01*
X151771645Y-82772500D01*
X151780501Y-82817022D01*
X151780501Y-82913017D01*
X151767882Y-82915527D01*
X151580639Y-83040639D01*
X151455527Y-83227882D01*
X151411594Y-83448750D01*
X151411594Y-83453000D01*
X151393406Y-83453000D01*
X151393406Y-83260000D01*
X151368027Y-83132411D01*
X151295754Y-83024246D01*
X151187589Y-82951973D01*
X151060000Y-82926594D01*
X150060000Y-82926594D01*
X149932411Y-82951973D01*
X149824246Y-83024246D01*
X149751973Y-83132411D01*
X149726594Y-83260000D01*
X149726594Y-84510000D01*
X149751973Y-84637589D01*
X149824246Y-84745754D01*
X149872998Y-84778329D01*
X149872998Y-84851268D01*
X149682391Y-84726538D01*
X149652498Y-84738919D01*
X149695000Y-84636310D01*
X149695000Y-84170750D01*
X149536250Y-84012000D01*
X148687000Y-84012000D01*
X148433000Y-84012000D01*
X147583750Y-84012000D01*
X147425000Y-84170750D01*
X138241625Y-84170750D01*
X139278685Y-83133690D01*
X147425000Y-83133690D01*
X147425000Y-83599250D01*
X147583750Y-83758000D01*
X148433000Y-83758000D01*
X148433000Y-82783750D01*
X148687000Y-82783750D01*
X148687000Y-83758000D01*
X149536250Y-83758000D01*
X149695000Y-83599250D01*
X149695000Y-83133690D01*
X149598327Y-82900301D01*
X149419698Y-82721673D01*
X149186309Y-82625000D01*
X148845750Y-82625000D01*
X148687000Y-82783750D01*
X148433000Y-82783750D01*
X148274250Y-82625000D01*
X147933691Y-82625000D01*
X147700302Y-82721673D01*
X147521673Y-82900301D01*
X147425000Y-83133690D01*
X139278685Y-83133690D01*
X143384239Y-79028138D01*
X156615763Y-79028138D01*
X165971863Y-88384240D01*
X165971863Y-88384240D01*
G37*
X165971863Y-88384240D02*
X165971862Y-101615761D01*
X156615763Y-110971862D01*
X143384239Y-110971862D01*
X135312376Y-102900000D01*
X145266594Y-102900000D01*
X145266594Y-104700000D01*
X145291973Y-104827589D01*
X145364246Y-104935754D01*
X145472411Y-105008027D01*
X145600000Y-105033406D01*
X146800000Y-105033406D01*
X146927589Y-105008027D01*
X147035754Y-104935754D01*
X147108027Y-104827589D01*
X147133406Y-104700000D01*
X147133406Y-102900000D01*
X147108027Y-102772411D01*
X147035754Y-102664246D01*
X146927589Y-102591973D01*
X146800000Y-102566594D01*
X145600000Y-102566594D01*
X145472411Y-102591973D01*
X145364246Y-102664246D01*
X145291973Y-102772411D01*
X145266594Y-102900000D01*
X135312376Y-102900000D01*
X134028138Y-101615763D01*
X134028138Y-92255391D01*
X140548000Y-92255391D01*
X140548000Y-92544609D01*
X140658679Y-92811813D01*
X140863187Y-93016321D01*
X141130391Y-93127000D01*
X141362776Y-93127000D01*
X145666274Y-97430498D01*
X145537882Y-97483679D01*
X145333374Y-97688187D01*
X145222695Y-97955391D01*
X145222695Y-98244609D01*
X145333374Y-98511813D01*
X145537882Y-98716321D01*
X145805086Y-98827000D01*
X145897694Y-98827000D01*
X145897695Y-99230172D01*
X145888839Y-99274694D01*
X145923919Y-99451055D01*
X145923920Y-99451056D01*
X146023821Y-99600568D01*
X146061561Y-99625785D01*
X148048000Y-101612225D01*
X148048001Y-105258283D01*
X148000000Y-105290356D01*
X147927589Y-105241973D01*
X147800000Y-105216594D01*
X147200000Y-105216594D01*
X147072411Y-105241973D01*
X146964246Y-105314246D01*
X146891973Y-105422411D01*
X146866594Y-105550000D01*
X146866594Y-105823000D01*
X145301134Y-105823000D01*
X145136813Y-105658679D01*
X144869609Y-105548000D01*
X144580391Y-105548000D01*
X144313187Y-105658679D01*
X144108679Y-105863187D01*
X143998000Y-106130391D01*
X143998000Y-106419609D01*
X144108679Y-106686813D01*
X144313187Y-106891321D01*
X144580391Y-107002000D01*
X144869609Y-107002000D01*
X145136813Y-106891321D01*
X145301134Y-106727000D01*
X146866594Y-106727000D01*
X146866594Y-107100000D01*
X146891973Y-107227589D01*
X146964246Y-107335754D01*
X147072411Y-107408027D01*
X147200000Y-107433406D01*
X147800000Y-107433406D01*
X147927589Y-107408027D01*
X148000000Y-107359644D01*
X148072411Y-107408027D01*
X148200000Y-107433406D01*
X148800000Y-107433406D01*
X148927589Y-107408027D01*
X149000000Y-107359644D01*
X149072411Y-107408027D01*
X149200000Y-107433406D01*
X149800000Y-107433406D01*
X149927589Y-107408027D01*
X150000000Y-107359644D01*
X150072411Y-107408027D01*
X150200000Y-107433406D01*
X150650782Y-107433406D01*
X150661673Y-107459699D01*
X150840302Y-107638327D01*
X151073691Y-107735000D01*
X151214250Y-107735000D01*
X151373000Y-107576250D01*
X151373000Y-106452000D01*
X151353000Y-106452000D01*
X151353000Y-106198000D01*
X151373000Y-106198000D01*
X151373000Y-105073750D01*
X151627000Y-105073750D01*
X151627000Y-106198000D01*
X151647000Y-106198000D01*
X151647000Y-106452000D01*
X151627000Y-106452000D01*
X151627000Y-107576250D01*
X151785750Y-107735000D01*
X151926309Y-107735000D01*
X152159698Y-107638327D01*
X152338327Y-107459699D01*
X152349218Y-107433406D01*
X152800000Y-107433406D01*
X152927589Y-107408027D01*
X153035754Y-107335754D01*
X153108027Y-107227589D01*
X153133406Y-107100000D01*
X153133406Y-105550000D01*
X153108027Y-105422411D01*
X153035754Y-105314246D01*
X152952643Y-105258713D01*
X152949313Y-105241973D01*
X152927000Y-105129797D01*
X152927000Y-104880011D01*
X152964246Y-104935754D01*
X153072411Y-105008027D01*
X153200000Y-105033406D01*
X154400000Y-105033406D01*
X154527589Y-105008027D01*
X154635754Y-104935754D01*
X154708027Y-104827589D01*
X154733406Y-104700000D01*
X154733406Y-102900000D01*
X154708027Y-102772411D01*
X154635754Y-102664246D01*
X154527589Y-102591973D01*
X154400000Y-102566594D01*
X153200000Y-102566594D01*
X153072411Y-102591973D01*
X152964246Y-102664246D01*
X152927000Y-102719989D01*
X152927000Y-100951134D01*
X153091321Y-100786813D01*
X153202000Y-100519609D01*
X153202000Y-100230391D01*
X153091321Y-99963187D01*
X152886813Y-99758679D01*
X152619609Y-99648000D01*
X152330391Y-99648000D01*
X152063187Y-99758679D01*
X151858679Y-99963187D01*
X151748000Y-100230391D01*
X151748000Y-100519609D01*
X151858679Y-100786813D01*
X152023001Y-100951135D01*
X152023000Y-104955051D01*
X151926309Y-104915000D01*
X151785750Y-104915000D01*
X151627000Y-105073750D01*
X151373000Y-105073750D01*
X151214250Y-104915000D01*
X151073691Y-104915000D01*
X150927000Y-104975761D01*
X150927000Y-100119518D01*
X150935855Y-100075000D01*
X150900775Y-99898638D01*
X150826091Y-99786866D01*
X150800874Y-99749126D01*
X150763134Y-99723909D01*
X147852000Y-96812776D01*
X147852000Y-94716152D01*
X148573000Y-94716152D01*
X148573000Y-95283848D01*
X148790247Y-95808331D01*
X149191669Y-96209753D01*
X149716152Y-96427000D01*
X150283848Y-96427000D01*
X150808331Y-96209753D01*
X151209753Y-95808331D01*
X151427000Y-95283848D01*
X151427000Y-94716152D01*
X151209753Y-94191669D01*
X150808331Y-93790247D01*
X150283848Y-93573000D01*
X149716152Y-93573000D01*
X149191669Y-93790247D01*
X148790247Y-94191669D01*
X148573000Y-94716152D01*
X147852000Y-94716152D01*
X147852000Y-92219518D01*
X147860855Y-92175000D01*
X147825775Y-91998638D01*
X147751091Y-91886866D01*
X147725874Y-91849126D01*
X147688133Y-91823908D01*
X147026093Y-91161869D01*
X147000874Y-91124126D01*
X146851362Y-91024225D01*
X146719518Y-90998000D01*
X146675000Y-90989145D01*
X146630482Y-90998000D01*
X145612225Y-90998000D01*
X145002000Y-90387776D01*
X145002000Y-88652604D01*
X145156404Y-88498200D01*
X145200774Y-88564606D01*
X145308939Y-88636879D01*
X145436528Y-88662258D01*
X146686528Y-88662258D01*
X146814117Y-88636879D01*
X146922282Y-88564606D01*
X146994555Y-88456441D01*
X147004794Y-88404967D01*
X147097167Y-88543213D01*
X147284410Y-88668325D01*
X147505278Y-88712258D01*
X148417778Y-88712258D01*
X148638646Y-88668325D01*
X148825889Y-88543213D01*
X148951001Y-88355970D01*
X148953511Y-88343352D01*
X151102505Y-88343352D01*
X151123652Y-88375000D01*
X151112535Y-88391638D01*
X151100000Y-88389145D01*
X151055482Y-88398000D01*
X150923638Y-88424225D01*
X150774126Y-88524126D01*
X150748908Y-88561867D01*
X149711867Y-89598909D01*
X149674127Y-89624126D01*
X149648910Y-89661866D01*
X149648909Y-89661867D01*
X149589701Y-89750477D01*
X149317445Y-89478221D01*
X149292226Y-89440478D01*
X149142714Y-89340577D01*
X149010870Y-89314352D01*
X148966352Y-89305497D01*
X148952305Y-89308291D01*
X148951001Y-89301734D01*
X148825889Y-89114491D01*
X148638646Y-88989379D01*
X148417778Y-88945446D01*
X147505278Y-88945446D01*
X147284410Y-88989379D01*
X147097167Y-89114491D01*
X147004794Y-89252737D01*
X146994555Y-89201263D01*
X146922282Y-89093098D01*
X146814117Y-89020825D01*
X146686528Y-88995446D01*
X145436528Y-88995446D01*
X145308939Y-89020825D01*
X145200774Y-89093098D01*
X145128501Y-89201263D01*
X145103122Y-89328852D01*
X145103122Y-90328852D01*
X145128501Y-90456441D01*
X145200774Y-90564606D01*
X145308939Y-90636879D01*
X145436528Y-90662258D01*
X146686528Y-90662258D01*
X146814117Y-90636879D01*
X146922282Y-90564606D01*
X146994555Y-90456441D01*
X147019934Y-90328852D01*
X147019934Y-90302626D01*
X147097167Y-90418213D01*
X147284410Y-90543325D01*
X147505278Y-90587258D01*
X148417778Y-90587258D01*
X148638646Y-90543325D01*
X148825889Y-90418213D01*
X148887212Y-90326436D01*
X149105597Y-90544822D01*
X149073000Y-90708699D01*
X149073000Y-91291302D01*
X149126785Y-91561697D01*
X149331671Y-91868330D01*
X149638304Y-92073215D01*
X150000000Y-92145161D01*
X150361697Y-92073215D01*
X150668330Y-91868330D01*
X150873215Y-91561697D01*
X150927000Y-91291301D01*
X150927000Y-90708698D01*
X150881394Y-90479419D01*
X151040302Y-90638327D01*
X151273691Y-90735000D01*
X151664250Y-90735000D01*
X151823000Y-90576250D01*
X151823000Y-89927000D01*
X152077000Y-89927000D01*
X152077000Y-90576250D01*
X152235750Y-90735000D01*
X152626309Y-90735000D01*
X152859698Y-90638327D01*
X153038327Y-90459699D01*
X153050000Y-90431518D01*
X153061673Y-90459699D01*
X153240302Y-90638327D01*
X153473691Y-90735000D01*
X153864250Y-90735000D01*
X154023000Y-90576250D01*
X154023000Y-89927000D01*
X154277000Y-89927000D01*
X154277000Y-90576250D01*
X154435750Y-90735000D01*
X154826309Y-90735000D01*
X155059698Y-90638327D01*
X155238327Y-90459699D01*
X155335000Y-90226310D01*
X155335000Y-90085750D01*
X155176250Y-89927000D01*
X154277000Y-89927000D01*
X154023000Y-89927000D01*
X153123750Y-89927000D01*
X153050000Y-90000750D01*
X152976250Y-89927000D01*
X152077000Y-89927000D01*
X151823000Y-89927000D01*
X151803000Y-89927000D01*
X151803000Y-89673000D01*
X151823000Y-89673000D01*
X151823000Y-89653000D01*
X152077000Y-89653000D01*
X152077000Y-89673000D01*
X152976250Y-89673000D01*
X153050000Y-89599250D01*
X153123750Y-89673000D01*
X154023000Y-89673000D01*
X154023000Y-89023750D01*
X154277000Y-89023750D01*
X154277000Y-89673000D01*
X155176250Y-89673000D01*
X155335000Y-89514250D01*
X155335000Y-89373690D01*
X155238327Y-89140301D01*
X155059698Y-88961673D01*
X154826309Y-88865000D01*
X154435750Y-88865000D01*
X154277000Y-89023750D01*
X154023000Y-89023750D01*
X153864250Y-88865000D01*
X153473691Y-88865000D01*
X153240302Y-88961673D01*
X153061673Y-89140301D01*
X153050000Y-89168482D01*
X153038327Y-89140301D01*
X152859698Y-88961673D01*
X152833406Y-88950782D01*
X152833406Y-88550000D01*
X152808027Y-88422411D01*
X152776348Y-88375000D01*
X152808027Y-88327589D01*
X152833406Y-88200000D01*
X152833406Y-87600000D01*
X152808027Y-87472411D01*
X152735754Y-87364246D01*
X152627589Y-87291973D01*
X152500000Y-87266594D01*
X151400000Y-87266594D01*
X151272411Y-87291973D01*
X151164246Y-87364246D01*
X151114062Y-87439352D01*
X148953511Y-87439352D01*
X148951001Y-87426734D01*
X148825889Y-87239491D01*
X148638646Y-87114379D01*
X148417778Y-87070446D01*
X147505278Y-87070446D01*
X147284410Y-87114379D01*
X147097167Y-87239491D01*
X147019934Y-87355078D01*
X147019934Y-87328852D01*
X146994555Y-87201263D01*
X146922282Y-87093098D01*
X146814117Y-87020825D01*
X146686528Y-86995446D01*
X145436528Y-86995446D01*
X145308939Y-87020825D01*
X145200774Y-87093098D01*
X145128501Y-87201263D01*
X145103122Y-87328852D01*
X145103122Y-87384587D01*
X145010166Y-87403077D01*
X144860654Y-87502978D01*
X144835435Y-87540721D01*
X144261867Y-88114289D01*
X144224127Y-88139506D01*
X144198910Y-88177246D01*
X144198909Y-88177247D01*
X144124225Y-88289019D01*
X144089145Y-88465380D01*
X144098001Y-88509902D01*
X144098000Y-90530482D01*
X144089145Y-90575000D01*
X144098000Y-90619517D01*
X144124225Y-90751361D01*
X144224126Y-90900874D01*
X144261869Y-90926093D01*
X145073908Y-91738133D01*
X145099126Y-91775874D01*
X145136866Y-91801091D01*
X145248638Y-91875775D01*
X145425000Y-91910855D01*
X145469518Y-91902000D01*
X146487776Y-91902000D01*
X146948001Y-92362226D01*
X146948000Y-96955482D01*
X146939145Y-97000000D01*
X146948000Y-97044517D01*
X146974225Y-97176361D01*
X147074126Y-97325874D01*
X147111869Y-97351093D01*
X150023001Y-100262226D01*
X150023000Y-105160369D01*
X150000775Y-105048638D01*
X149952000Y-104975641D01*
X149952000Y-100669518D01*
X149960855Y-100625000D01*
X149925775Y-100448638D01*
X149825874Y-100299126D01*
X149788131Y-100273907D01*
X142002000Y-92487776D01*
X142002000Y-92255391D01*
X141891321Y-91988187D01*
X141686813Y-91783679D01*
X141419609Y-91673000D01*
X141130391Y-91673000D01*
X140863187Y-91783679D01*
X140658679Y-91988187D01*
X140548000Y-92255391D01*
X134028138Y-92255391D01*
X134028138Y-88384237D01*
X136174764Y-86237611D01*
X148806528Y-86237611D01*
X149018920Y-86670156D01*
X149380673Y-86988497D01*
X149682391Y-87113462D01*
X149873000Y-86988731D01*
X149873000Y-86047000D01*
X150127000Y-86047000D01*
X150127000Y-86988731D01*
X150317609Y-87113462D01*
X150619327Y-86988497D01*
X150981080Y-86670156D01*
X151035000Y-86560346D01*
X151035000Y-86566310D01*
X151131673Y-86799699D01*
X151310302Y-86978327D01*
X151543691Y-87075000D01*
X151884250Y-87075000D01*
X152043000Y-86916250D01*
X152043000Y-85942000D01*
X152297000Y-85942000D01*
X152297000Y-86916250D01*
X152455750Y-87075000D01*
X152796309Y-87075000D01*
X153029698Y-86978327D01*
X153208327Y-86799699D01*
X153305000Y-86566310D01*
X153305000Y-86100750D01*
X153146250Y-85942000D01*
X152297000Y-85942000D01*
X152043000Y-85942000D01*
X151193750Y-85942000D01*
X151077208Y-86058542D01*
X151069714Y-86047000D01*
X150127000Y-86047000D01*
X149873000Y-86047000D01*
X148930286Y-86047000D01*
X148806528Y-86237611D01*
X136174764Y-86237611D01*
X138241625Y-84170750D01*
X147425000Y-84170750D01*
X147425000Y-84636310D01*
X147521673Y-84869699D01*
X147700302Y-85048327D01*
X147933691Y-85145000D01*
X148274250Y-85145000D01*
X148433000Y-84986250D01*
X148433000Y-84012000D01*
X148687000Y-84012000D01*
X148687000Y-84986250D01*
X148845750Y-85145000D01*
X149047152Y-85145000D01*
X149018920Y-85169844D01*
X148806528Y-85602389D01*
X148930286Y-85793000D01*
X149873000Y-85793000D01*
X149873000Y-85773000D01*
X150127000Y-85773000D01*
X150127000Y-85793000D01*
X151069714Y-85793000D01*
X151159879Y-85654129D01*
X151193750Y-85688000D01*
X152043000Y-85688000D01*
X152043000Y-85668000D01*
X152297000Y-85668000D01*
X152297000Y-85688000D01*
X153146250Y-85688000D01*
X153305000Y-85529250D01*
X153305000Y-85063690D01*
X153208327Y-84830301D01*
X153029698Y-84651673D01*
X152977457Y-84630034D01*
X153009473Y-84582118D01*
X153053406Y-84361250D01*
X153053406Y-83448750D01*
X153009473Y-83227882D01*
X152884361Y-83040639D01*
X152716048Y-82928176D01*
X152900545Y-82743679D01*
X153048187Y-82891321D01*
X153315391Y-83002000D01*
X153513466Y-83002000D01*
X153455639Y-83040639D01*
X153330527Y-83227882D01*
X153286594Y-83448750D01*
X153286594Y-84361250D01*
X153330527Y-84582118D01*
X153455639Y-84769361D01*
X153605418Y-84869440D01*
X153542411Y-84881973D01*
X153434246Y-84954246D01*
X153361973Y-85062411D01*
X153336594Y-85190000D01*
X153336594Y-86440000D01*
X153361973Y-86567589D01*
X153434246Y-86675754D01*
X153542411Y-86748027D01*
X153670000Y-86773406D01*
X153718000Y-86773406D01*
X153718001Y-87266594D01*
X153600000Y-87266594D01*
X153472411Y-87291973D01*
X153364246Y-87364246D01*
X153291973Y-87472411D01*
X153266594Y-87600000D01*
X153266594Y-88200000D01*
X153291973Y-88327589D01*
X153364246Y-88435754D01*
X153472411Y-88508027D01*
X153600000Y-88533406D01*
X154700000Y-88533406D01*
X154827589Y-88508027D01*
X154935754Y-88435754D01*
X155008027Y-88327589D01*
X155033406Y-88200000D01*
X155033406Y-87600000D01*
X155008027Y-87472411D01*
X154935754Y-87364246D01*
X154827589Y-87291973D01*
X154700000Y-87266594D01*
X154622000Y-87266594D01*
X154622000Y-86773406D01*
X154670000Y-86773406D01*
X154797589Y-86748027D01*
X154905754Y-86675754D01*
X154978027Y-86567589D01*
X155003406Y-86440000D01*
X155003406Y-85190000D01*
X154978027Y-85062411D01*
X154905754Y-84954246D01*
X154797589Y-84881973D01*
X154670000Y-84856594D01*
X154628808Y-84856594D01*
X154759361Y-84769361D01*
X154884473Y-84582118D01*
X154928406Y-84361250D01*
X154928406Y-83448750D01*
X154884473Y-83227882D01*
X154759361Y-83040639D01*
X154572118Y-82915527D01*
X154351250Y-82871594D01*
X153891540Y-82871594D01*
X154076321Y-82686813D01*
X154187000Y-82419609D01*
X154187000Y-82130391D01*
X154076321Y-81863187D01*
X153871813Y-81658679D01*
X153604609Y-81548000D01*
X153315391Y-81548000D01*
X153048187Y-81658679D01*
X152883866Y-81823000D01*
X152774516Y-81823000D01*
X152729999Y-81814145D01*
X152685483Y-81823000D01*
X152685482Y-81823000D01*
X152553638Y-81849225D01*
X152404126Y-81949126D01*
X152378908Y-81986867D01*
X151944367Y-82421409D01*
X151906627Y-82446626D01*
X151881410Y-82484366D01*
X151881409Y-82484367D01*
X151806725Y-82596139D01*
X151771645Y-82772500D01*
X151780501Y-82817022D01*
X151780501Y-82913017D01*
X151767882Y-82915527D01*
X151580639Y-83040639D01*
X151455527Y-83227882D01*
X151411594Y-83448750D01*
X151411594Y-83453000D01*
X151393406Y-83453000D01*
X151393406Y-83260000D01*
X151368027Y-83132411D01*
X151295754Y-83024246D01*
X151187589Y-82951973D01*
X151060000Y-82926594D01*
X150060000Y-82926594D01*
X149932411Y-82951973D01*
X149824246Y-83024246D01*
X149751973Y-83132411D01*
X149726594Y-83260000D01*
X149726594Y-84510000D01*
X149751973Y-84637589D01*
X149824246Y-84745754D01*
X149872998Y-84778329D01*
X149872998Y-84851268D01*
X149682391Y-84726538D01*
X149652498Y-84738919D01*
X149695000Y-84636310D01*
X149695000Y-84170750D01*
X149536250Y-84012000D01*
X148687000Y-84012000D01*
X148433000Y-84012000D01*
X147583750Y-84012000D01*
X147425000Y-84170750D01*
X138241625Y-84170750D01*
X139278685Y-83133690D01*
X147425000Y-83133690D01*
X147425000Y-83599250D01*
X147583750Y-83758000D01*
X148433000Y-83758000D01*
X148433000Y-82783750D01*
X148687000Y-82783750D01*
X148687000Y-83758000D01*
X149536250Y-83758000D01*
X149695000Y-83599250D01*
X149695000Y-83133690D01*
X149598327Y-82900301D01*
X149419698Y-82721673D01*
X149186309Y-82625000D01*
X148845750Y-82625000D01*
X148687000Y-82783750D01*
X148433000Y-82783750D01*
X148274250Y-82625000D01*
X147933691Y-82625000D01*
X147700302Y-82721673D01*
X147521673Y-82900301D01*
X147425000Y-83133690D01*
X139278685Y-83133690D01*
X143384239Y-79028138D01*
X156615763Y-79028138D01*
X165971863Y-88384240D01*
G04 #@! TD*
M02*
