G04 #@! TF.GenerationSoftware,KiCad,Pcbnew,(5.0.0)*
G04 #@! TF.CreationDate,2018-11-17T14:05:54+01:00*
G04 #@! TF.ProjectId,refPhotoDiode_MDversion,72656650686F746F44696F64655F4D44,rev?*
G04 #@! TF.SameCoordinates,Original*
G04 #@! TF.FileFunction,Paste,Bot*
G04 #@! TF.FilePolarity,Positive*
%FSLAX46Y46*%
G04 Gerber Fmt 4.6, Leading zero omitted, Abs format (unit mm)*
G04 Created by KiCad (PCBNEW (5.0.0)) date 11/17/18 14:05:54*
%MOMM*%
%LPD*%
G01*
G04 APERTURE LIST*
%ADD10R,1.000000X1.250000*%
%ADD11C,0.100000*%
%ADD12C,0.975000*%
%ADD13R,3.300000X0.750000*%
%ADD14R,0.750000X3.300000*%
%ADD15C,0.750000*%
%ADD16R,1.100000X0.600000*%
%ADD17R,1.250000X1.000000*%
%ADD18R,0.600000X1.550000*%
%ADD19R,1.200000X1.800000*%
G04 APERTURE END LIST*
D10*
G04 #@! TO.C,C3*
X154170000Y-85815000D03*
X152170000Y-85815000D03*
G04 #@! TD*
D11*
G04 #@! TO.C,L1*
G36*
X152500142Y-83206174D02*
X152523803Y-83209684D01*
X152547007Y-83215496D01*
X152569529Y-83223554D01*
X152591153Y-83233782D01*
X152611670Y-83246079D01*
X152630883Y-83260329D01*
X152648607Y-83276393D01*
X152664671Y-83294117D01*
X152678921Y-83313330D01*
X152691218Y-83333847D01*
X152701446Y-83355471D01*
X152709504Y-83377993D01*
X152715316Y-83401197D01*
X152718826Y-83424858D01*
X152720000Y-83448750D01*
X152720000Y-84361250D01*
X152718826Y-84385142D01*
X152715316Y-84408803D01*
X152709504Y-84432007D01*
X152701446Y-84454529D01*
X152691218Y-84476153D01*
X152678921Y-84496670D01*
X152664671Y-84515883D01*
X152648607Y-84533607D01*
X152630883Y-84549671D01*
X152611670Y-84563921D01*
X152591153Y-84576218D01*
X152569529Y-84586446D01*
X152547007Y-84594504D01*
X152523803Y-84600316D01*
X152500142Y-84603826D01*
X152476250Y-84605000D01*
X151988750Y-84605000D01*
X151964858Y-84603826D01*
X151941197Y-84600316D01*
X151917993Y-84594504D01*
X151895471Y-84586446D01*
X151873847Y-84576218D01*
X151853330Y-84563921D01*
X151834117Y-84549671D01*
X151816393Y-84533607D01*
X151800329Y-84515883D01*
X151786079Y-84496670D01*
X151773782Y-84476153D01*
X151763554Y-84454529D01*
X151755496Y-84432007D01*
X151749684Y-84408803D01*
X151746174Y-84385142D01*
X151745000Y-84361250D01*
X151745000Y-83448750D01*
X151746174Y-83424858D01*
X151749684Y-83401197D01*
X151755496Y-83377993D01*
X151763554Y-83355471D01*
X151773782Y-83333847D01*
X151786079Y-83313330D01*
X151800329Y-83294117D01*
X151816393Y-83276393D01*
X151834117Y-83260329D01*
X151853330Y-83246079D01*
X151873847Y-83233782D01*
X151895471Y-83223554D01*
X151917993Y-83215496D01*
X151941197Y-83209684D01*
X151964858Y-83206174D01*
X151988750Y-83205000D01*
X152476250Y-83205000D01*
X152500142Y-83206174D01*
X152500142Y-83206174D01*
G37*
D12*
X152232500Y-83905000D03*
D11*
G36*
X154375142Y-83206174D02*
X154398803Y-83209684D01*
X154422007Y-83215496D01*
X154444529Y-83223554D01*
X154466153Y-83233782D01*
X154486670Y-83246079D01*
X154505883Y-83260329D01*
X154523607Y-83276393D01*
X154539671Y-83294117D01*
X154553921Y-83313330D01*
X154566218Y-83333847D01*
X154576446Y-83355471D01*
X154584504Y-83377993D01*
X154590316Y-83401197D01*
X154593826Y-83424858D01*
X154595000Y-83448750D01*
X154595000Y-84361250D01*
X154593826Y-84385142D01*
X154590316Y-84408803D01*
X154584504Y-84432007D01*
X154576446Y-84454529D01*
X154566218Y-84476153D01*
X154553921Y-84496670D01*
X154539671Y-84515883D01*
X154523607Y-84533607D01*
X154505883Y-84549671D01*
X154486670Y-84563921D01*
X154466153Y-84576218D01*
X154444529Y-84586446D01*
X154422007Y-84594504D01*
X154398803Y-84600316D01*
X154375142Y-84603826D01*
X154351250Y-84605000D01*
X153863750Y-84605000D01*
X153839858Y-84603826D01*
X153816197Y-84600316D01*
X153792993Y-84594504D01*
X153770471Y-84586446D01*
X153748847Y-84576218D01*
X153728330Y-84563921D01*
X153709117Y-84549671D01*
X153691393Y-84533607D01*
X153675329Y-84515883D01*
X153661079Y-84496670D01*
X153648782Y-84476153D01*
X153638554Y-84454529D01*
X153630496Y-84432007D01*
X153624684Y-84408803D01*
X153621174Y-84385142D01*
X153620000Y-84361250D01*
X153620000Y-83448750D01*
X153621174Y-83424858D01*
X153624684Y-83401197D01*
X153630496Y-83377993D01*
X153638554Y-83355471D01*
X153648782Y-83333847D01*
X153661079Y-83313330D01*
X153675329Y-83294117D01*
X153691393Y-83276393D01*
X153709117Y-83260329D01*
X153728330Y-83246079D01*
X153748847Y-83233782D01*
X153770471Y-83223554D01*
X153792993Y-83215496D01*
X153816197Y-83209684D01*
X153839858Y-83206174D01*
X153863750Y-83205000D01*
X154351250Y-83205000D01*
X154375142Y-83206174D01*
X154375142Y-83206174D01*
G37*
D12*
X154107500Y-83905000D03*
G04 #@! TD*
D13*
G04 #@! TO.C,U2*
X150000000Y-80350000D03*
X150000000Y-92650000D03*
D14*
X143370000Y-86500000D03*
X156630000Y-86500000D03*
D15*
X155355000Y-80350000D03*
D11*
G36*
X156255000Y-83275000D02*
X156255000Y-80725000D01*
X153705000Y-80725000D01*
X153705000Y-79975000D01*
X157005000Y-79975000D01*
X157005000Y-83275000D01*
X156255000Y-83275000D01*
X156255000Y-83275000D01*
G37*
D15*
X144645000Y-92650000D03*
D11*
G36*
X143745000Y-89725000D02*
X143745000Y-92275000D01*
X146295000Y-92275000D01*
X146295000Y-93025000D01*
X142995000Y-93025000D01*
X142995000Y-89725000D01*
X143745000Y-89725000D01*
X143745000Y-89725000D01*
G37*
D15*
X143370000Y-81625000D03*
D11*
G36*
X146295000Y-80725000D02*
X143745000Y-80725000D01*
X143745000Y-83275000D01*
X142995000Y-83275000D01*
X142995000Y-79975000D01*
X146295000Y-79975000D01*
X146295000Y-80725000D01*
X146295000Y-80725000D01*
G37*
D15*
X156630000Y-91375000D03*
D11*
G36*
X153705000Y-92275000D02*
X156255000Y-92275000D01*
X156255000Y-89725000D01*
X157005000Y-89725000D01*
X157005000Y-93025000D01*
X153705000Y-93025000D01*
X153705000Y-92275000D01*
X153705000Y-92275000D01*
G37*
G04 #@! TD*
D16*
G04 #@! TO.C,U1*
X151950000Y-89800000D03*
X151950000Y-87900000D03*
X151950000Y-88850000D03*
X154150000Y-87900000D03*
X154150000Y-89800000D03*
G04 #@! TD*
D10*
G04 #@! TO.C,C2*
X148560000Y-83885000D03*
X150560000Y-83885000D03*
G04 #@! TD*
D17*
G04 #@! TO.C,C1*
X146061528Y-87828852D03*
X146061528Y-89828852D03*
G04 #@! TD*
D11*
G04 #@! TO.C,R1*
G36*
X148441670Y-89280026D02*
X148465331Y-89283536D01*
X148488535Y-89289348D01*
X148511057Y-89297406D01*
X148532681Y-89307634D01*
X148553198Y-89319931D01*
X148572411Y-89334181D01*
X148590135Y-89350245D01*
X148606199Y-89367969D01*
X148620449Y-89387182D01*
X148632746Y-89407699D01*
X148642974Y-89429323D01*
X148651032Y-89451845D01*
X148656844Y-89475049D01*
X148660354Y-89498710D01*
X148661528Y-89522602D01*
X148661528Y-90010102D01*
X148660354Y-90033994D01*
X148656844Y-90057655D01*
X148651032Y-90080859D01*
X148642974Y-90103381D01*
X148632746Y-90125005D01*
X148620449Y-90145522D01*
X148606199Y-90164735D01*
X148590135Y-90182459D01*
X148572411Y-90198523D01*
X148553198Y-90212773D01*
X148532681Y-90225070D01*
X148511057Y-90235298D01*
X148488535Y-90243356D01*
X148465331Y-90249168D01*
X148441670Y-90252678D01*
X148417778Y-90253852D01*
X147505278Y-90253852D01*
X147481386Y-90252678D01*
X147457725Y-90249168D01*
X147434521Y-90243356D01*
X147411999Y-90235298D01*
X147390375Y-90225070D01*
X147369858Y-90212773D01*
X147350645Y-90198523D01*
X147332921Y-90182459D01*
X147316857Y-90164735D01*
X147302607Y-90145522D01*
X147290310Y-90125005D01*
X147280082Y-90103381D01*
X147272024Y-90080859D01*
X147266212Y-90057655D01*
X147262702Y-90033994D01*
X147261528Y-90010102D01*
X147261528Y-89522602D01*
X147262702Y-89498710D01*
X147266212Y-89475049D01*
X147272024Y-89451845D01*
X147280082Y-89429323D01*
X147290310Y-89407699D01*
X147302607Y-89387182D01*
X147316857Y-89367969D01*
X147332921Y-89350245D01*
X147350645Y-89334181D01*
X147369858Y-89319931D01*
X147390375Y-89307634D01*
X147411999Y-89297406D01*
X147434521Y-89289348D01*
X147457725Y-89283536D01*
X147481386Y-89280026D01*
X147505278Y-89278852D01*
X148417778Y-89278852D01*
X148441670Y-89280026D01*
X148441670Y-89280026D01*
G37*
D12*
X147961528Y-89766352D03*
D11*
G36*
X148441670Y-87405026D02*
X148465331Y-87408536D01*
X148488535Y-87414348D01*
X148511057Y-87422406D01*
X148532681Y-87432634D01*
X148553198Y-87444931D01*
X148572411Y-87459181D01*
X148590135Y-87475245D01*
X148606199Y-87492969D01*
X148620449Y-87512182D01*
X148632746Y-87532699D01*
X148642974Y-87554323D01*
X148651032Y-87576845D01*
X148656844Y-87600049D01*
X148660354Y-87623710D01*
X148661528Y-87647602D01*
X148661528Y-88135102D01*
X148660354Y-88158994D01*
X148656844Y-88182655D01*
X148651032Y-88205859D01*
X148642974Y-88228381D01*
X148632746Y-88250005D01*
X148620449Y-88270522D01*
X148606199Y-88289735D01*
X148590135Y-88307459D01*
X148572411Y-88323523D01*
X148553198Y-88337773D01*
X148532681Y-88350070D01*
X148511057Y-88360298D01*
X148488535Y-88368356D01*
X148465331Y-88374168D01*
X148441670Y-88377678D01*
X148417778Y-88378852D01*
X147505278Y-88378852D01*
X147481386Y-88377678D01*
X147457725Y-88374168D01*
X147434521Y-88368356D01*
X147411999Y-88360298D01*
X147390375Y-88350070D01*
X147369858Y-88337773D01*
X147350645Y-88323523D01*
X147332921Y-88307459D01*
X147316857Y-88289735D01*
X147302607Y-88270522D01*
X147290310Y-88250005D01*
X147280082Y-88228381D01*
X147272024Y-88205859D01*
X147266212Y-88182655D01*
X147262702Y-88158994D01*
X147261528Y-88135102D01*
X147261528Y-87647602D01*
X147262702Y-87623710D01*
X147266212Y-87600049D01*
X147272024Y-87576845D01*
X147280082Y-87554323D01*
X147290310Y-87532699D01*
X147302607Y-87512182D01*
X147316857Y-87492969D01*
X147332921Y-87475245D01*
X147350645Y-87459181D01*
X147369858Y-87444931D01*
X147390375Y-87432634D01*
X147411999Y-87422406D01*
X147434521Y-87414348D01*
X147457725Y-87408536D01*
X147481386Y-87405026D01*
X147505278Y-87403852D01*
X148417778Y-87403852D01*
X148441670Y-87405026D01*
X148441670Y-87405026D01*
G37*
D12*
X147961528Y-87891352D03*
G04 #@! TD*
D18*
G04 #@! TO.C,J3*
X152500000Y-106325000D03*
X151500000Y-106325000D03*
X150500000Y-106325000D03*
X149500000Y-106325000D03*
X148500000Y-106325000D03*
X147500000Y-106325000D03*
D19*
X153800000Y-103800000D03*
X146200000Y-103800000D03*
G04 #@! TD*
M02*
