G04 #@! TF.GenerationSoftware,KiCad,Pcbnew,(5.0.0)*
G04 #@! TF.CreationDate,2018-11-17T14:05:54+01:00*
G04 #@! TF.ProjectId,refPhotoDiode_MDversion,72656650686F746F44696F64655F4D44,rev?*
G04 #@! TF.SameCoordinates,Original*
G04 #@! TF.FileFunction,Legend,Bot*
G04 #@! TF.FilePolarity,Positive*
%FSLAX46Y46*%
G04 Gerber Fmt 4.6, Leading zero omitted, Abs format (unit mm)*
G04 Created by KiCad (PCBNEW (5.0.0)) date 11/17/18 14:05:54*
%MOMM*%
%LPD*%
G01*
G04 APERTURE LIST*
%ADD10C,0.300000*%
%ADD11C,0.120000*%
%ADD12C,0.150000*%
%ADD13C,0.350000*%
G04 APERTURE END LIST*
D10*
X157214285Y-110093571D02*
X157214285Y-109093571D01*
X157214285Y-109379285D02*
X157142857Y-109236428D01*
X157071428Y-109165000D01*
X156928571Y-109093571D01*
X156785714Y-109093571D01*
X155714285Y-110022142D02*
X155857142Y-110093571D01*
X156142857Y-110093571D01*
X156285714Y-110022142D01*
X156357142Y-109879285D01*
X156357142Y-109307857D01*
X156285714Y-109165000D01*
X156142857Y-109093571D01*
X155857142Y-109093571D01*
X155714285Y-109165000D01*
X155642857Y-109307857D01*
X155642857Y-109450714D01*
X156357142Y-109593571D01*
X155214285Y-109093571D02*
X154642857Y-109093571D01*
X155000000Y-110093571D02*
X155000000Y-108807857D01*
X154928571Y-108665000D01*
X154785714Y-108593571D01*
X154642857Y-108593571D01*
X154142857Y-110093571D02*
X154142857Y-108593571D01*
X153785714Y-108593571D01*
X153571428Y-108665000D01*
X153428571Y-108807857D01*
X153357142Y-108950714D01*
X153285714Y-109236428D01*
X153285714Y-109450714D01*
X153357142Y-109736428D01*
X153428571Y-109879285D01*
X153571428Y-110022142D01*
X153785714Y-110093571D01*
X154142857Y-110093571D01*
X152642857Y-110093571D02*
X152642857Y-109093571D01*
X152642857Y-108593571D02*
X152714285Y-108665000D01*
X152642857Y-108736428D01*
X152571428Y-108665000D01*
X152642857Y-108593571D01*
X152642857Y-108736428D01*
X151714285Y-110093571D02*
X151857142Y-110022142D01*
X151928571Y-109950714D01*
X152000000Y-109807857D01*
X152000000Y-109379285D01*
X151928571Y-109236428D01*
X151857142Y-109165000D01*
X151714285Y-109093571D01*
X151500000Y-109093571D01*
X151357142Y-109165000D01*
X151285714Y-109236428D01*
X151214285Y-109379285D01*
X151214285Y-109807857D01*
X151285714Y-109950714D01*
X151357142Y-110022142D01*
X151500000Y-110093571D01*
X151714285Y-110093571D01*
X149928571Y-110093571D02*
X149928571Y-108593571D01*
X149928571Y-110022142D02*
X150071428Y-110093571D01*
X150357142Y-110093571D01*
X150500000Y-110022142D01*
X150571428Y-109950714D01*
X150642857Y-109807857D01*
X150642857Y-109379285D01*
X150571428Y-109236428D01*
X150500000Y-109165000D01*
X150357142Y-109093571D01*
X150071428Y-109093571D01*
X149928571Y-109165000D01*
X148642857Y-110022142D02*
X148785714Y-110093571D01*
X149071428Y-110093571D01*
X149214285Y-110022142D01*
X149285714Y-109879285D01*
X149285714Y-109307857D01*
X149214285Y-109165000D01*
X149071428Y-109093571D01*
X148785714Y-109093571D01*
X148642857Y-109165000D01*
X148571428Y-109307857D01*
X148571428Y-109450714D01*
X149285714Y-109593571D01*
X146928571Y-109093571D02*
X146571428Y-110093571D01*
X146214285Y-109093571D01*
X144857142Y-110093571D02*
X145714285Y-110093571D01*
X145285714Y-110093571D02*
X145285714Y-108593571D01*
X145428571Y-108807857D01*
X145571428Y-108950714D01*
X145714285Y-109022142D01*
X144214285Y-109950714D02*
X144142857Y-110022142D01*
X144214285Y-110093571D01*
X144285714Y-110022142D01*
X144214285Y-109950714D01*
X144214285Y-110093571D01*
X142714285Y-110093571D02*
X143571428Y-110093571D01*
X143142857Y-110093571D02*
X143142857Y-108593571D01*
X143285714Y-108807857D01*
X143428571Y-108950714D01*
X143571428Y-109022142D01*
D11*
G04 #@! TO.C,C3*
X152670000Y-84965000D02*
X153670000Y-84965000D01*
X153670000Y-86665000D02*
X152670000Y-86665000D01*
G04 #@! TO.C,L1*
X152911422Y-84615000D02*
X153428578Y-84615000D01*
X152911422Y-83195000D02*
X153428578Y-83195000D01*
D12*
G04 #@! TO.C,U2*
X143370000Y-80350000D02*
X143370000Y-92650000D01*
X156630000Y-80350000D02*
X156630000Y-92650000D01*
X143370000Y-92650000D02*
X156630000Y-92650000D01*
X143370000Y-80350000D02*
X156630000Y-80350000D01*
X145500000Y-81500000D02*
G75*
G03X145500000Y-81500000I-500000J0D01*
G01*
D13*
G04 #@! TO.C,U1*
X152800000Y-90350000D02*
X153300000Y-90350000D01*
X153300000Y-90350000D02*
X153300000Y-87350000D01*
X153300000Y-87350000D02*
X152800000Y-87350000D01*
X152800000Y-87350000D02*
X152800000Y-90350000D01*
D11*
G04 #@! TO.C,C2*
X150060000Y-84735000D02*
X149060000Y-84735000D01*
X149060000Y-83035000D02*
X150060000Y-83035000D01*
G04 #@! TO.C,C1*
X145211528Y-89328852D02*
X145211528Y-88328852D01*
X146911528Y-88328852D02*
X146911528Y-89328852D01*
G04 #@! TO.C,R1*
X148671528Y-89087430D02*
X148671528Y-88570274D01*
X147251528Y-89087430D02*
X147251528Y-88570274D01*
G04 #@! TO.C,J3*
X154110000Y-104960000D02*
X154110000Y-106260000D01*
X154110000Y-106260000D02*
X153060000Y-106260000D01*
X153060000Y-106260000D02*
X153060000Y-107100000D01*
X145890000Y-104960000D02*
X145890000Y-106260000D01*
X145890000Y-106260000D02*
X146940000Y-106260000D01*
X152940000Y-103040000D02*
X152360000Y-103040000D01*
X152360000Y-103040000D02*
X152360000Y-101570000D01*
X152360000Y-101570000D02*
X147640000Y-101570000D01*
X147640000Y-101570000D02*
X147640000Y-103040000D01*
X147640000Y-103040000D02*
X147060000Y-103040000D01*
G04 #@! TO.C,C3*
D12*
X155887142Y-85638333D02*
X155934761Y-85590714D01*
X155982380Y-85447857D01*
X155982380Y-85352619D01*
X155934761Y-85209761D01*
X155839523Y-85114523D01*
X155744285Y-85066904D01*
X155553809Y-85019285D01*
X155410952Y-85019285D01*
X155220476Y-85066904D01*
X155125238Y-85114523D01*
X155030000Y-85209761D01*
X154982380Y-85352619D01*
X154982380Y-85447857D01*
X155030000Y-85590714D01*
X155077619Y-85638333D01*
X154982380Y-85971666D02*
X154982380Y-86590714D01*
X155363333Y-86257380D01*
X155363333Y-86400238D01*
X155410952Y-86495476D01*
X155458571Y-86543095D01*
X155553809Y-86590714D01*
X155791904Y-86590714D01*
X155887142Y-86543095D01*
X155934761Y-86495476D01*
X155982380Y-86400238D01*
X155982380Y-86114523D01*
X155934761Y-86019285D01*
X155887142Y-85971666D01*
G04 #@! TO.C,L1*
X155962380Y-83728333D02*
X155962380Y-83252142D01*
X154962380Y-83252142D01*
X155962380Y-84585476D02*
X155962380Y-84014047D01*
X155962380Y-84299761D02*
X154962380Y-84299761D01*
X155105238Y-84204523D01*
X155200476Y-84109285D01*
X155248095Y-84014047D01*
G04 #@! TO.C,U2*
X147101904Y-81937380D02*
X147101904Y-82746904D01*
X147054285Y-82842142D01*
X147006666Y-82889761D01*
X146911428Y-82937380D01*
X146720952Y-82937380D01*
X146625714Y-82889761D01*
X146578095Y-82842142D01*
X146530476Y-82746904D01*
X146530476Y-81937380D01*
X146101904Y-82032619D02*
X146054285Y-81985000D01*
X145959047Y-81937380D01*
X145720952Y-81937380D01*
X145625714Y-81985000D01*
X145578095Y-82032619D01*
X145530476Y-82127857D01*
X145530476Y-82223095D01*
X145578095Y-82365952D01*
X146149523Y-82937380D01*
X145530476Y-82937380D01*
G04 #@! TO.C,U1*
X153659523Y-91086904D02*
X153659523Y-91734523D01*
X153621428Y-91810714D01*
X153583333Y-91848809D01*
X153507142Y-91886904D01*
X153354761Y-91886904D01*
X153278571Y-91848809D01*
X153240476Y-91810714D01*
X153202380Y-91734523D01*
X153202380Y-91086904D01*
X152402380Y-91886904D02*
X152859523Y-91886904D01*
X152630952Y-91886904D02*
X152630952Y-91086904D01*
X152707142Y-91201190D01*
X152783333Y-91277380D01*
X152859523Y-91315476D01*
G04 #@! TO.C,C2*
X149726666Y-82742142D02*
X149774285Y-82789761D01*
X149917142Y-82837380D01*
X150012380Y-82837380D01*
X150155238Y-82789761D01*
X150250476Y-82694523D01*
X150298095Y-82599285D01*
X150345714Y-82408809D01*
X150345714Y-82265952D01*
X150298095Y-82075476D01*
X150250476Y-81980238D01*
X150155238Y-81885000D01*
X150012380Y-81837380D01*
X149917142Y-81837380D01*
X149774285Y-81885000D01*
X149726666Y-81932619D01*
X149345714Y-81932619D02*
X149298095Y-81885000D01*
X149202857Y-81837380D01*
X148964761Y-81837380D01*
X148869523Y-81885000D01*
X148821904Y-81932619D01*
X148774285Y-82027857D01*
X148774285Y-82123095D01*
X148821904Y-82265952D01*
X149393333Y-82837380D01*
X148774285Y-82837380D01*
G04 #@! TO.C,C1*
X144918670Y-88662185D02*
X144966289Y-88614566D01*
X145013908Y-88471709D01*
X145013908Y-88376471D01*
X144966289Y-88233613D01*
X144871051Y-88138375D01*
X144775813Y-88090756D01*
X144585337Y-88043137D01*
X144442480Y-88043137D01*
X144252004Y-88090756D01*
X144156766Y-88138375D01*
X144061528Y-88233613D01*
X144013908Y-88376471D01*
X144013908Y-88471709D01*
X144061528Y-88614566D01*
X144109147Y-88662185D01*
X145013908Y-89614566D02*
X145013908Y-89043137D01*
X145013908Y-89328852D02*
X144013908Y-89328852D01*
X144156766Y-89233613D01*
X144252004Y-89138375D01*
X144299623Y-89043137D01*
G04 #@! TO.C,R1*
X150063908Y-88662185D02*
X149587718Y-88328852D01*
X150063908Y-88090756D02*
X149063908Y-88090756D01*
X149063908Y-88471709D01*
X149111528Y-88566947D01*
X149159147Y-88614566D01*
X149254385Y-88662185D01*
X149397242Y-88662185D01*
X149492480Y-88614566D01*
X149540099Y-88566947D01*
X149587718Y-88471709D01*
X149587718Y-88090756D01*
X150063908Y-89614566D02*
X150063908Y-89043137D01*
X150063908Y-89328852D02*
X149063908Y-89328852D01*
X149206766Y-89233613D01*
X149302004Y-89138375D01*
X149349623Y-89043137D01*
G04 #@! TO.C,J3*
X150333333Y-99932380D02*
X150333333Y-100646666D01*
X150380952Y-100789523D01*
X150476190Y-100884761D01*
X150619047Y-100932380D01*
X150714285Y-100932380D01*
X149952380Y-99932380D02*
X149333333Y-99932380D01*
X149666666Y-100313333D01*
X149523809Y-100313333D01*
X149428571Y-100360952D01*
X149380952Y-100408571D01*
X149333333Y-100503809D01*
X149333333Y-100741904D01*
X149380952Y-100837142D01*
X149428571Y-100884761D01*
X149523809Y-100932380D01*
X149809523Y-100932380D01*
X149904761Y-100884761D01*
X149952380Y-100837142D01*
G04 #@! TD*
M02*
