G04 #@! TF.GenerationSoftware,KiCad,Pcbnew,(5.0.0)*
G04 #@! TF.CreationDate,2018-11-17T14:21:24+01:00*
G04 #@! TF.ProjectId,photoDiode_MDversion,70686F746F44696F64655F4D44766572,rev?*
G04 #@! TF.SameCoordinates,Original*
G04 #@! TF.FileFunction,Legend,Top*
G04 #@! TF.FilePolarity,Positive*
%FSLAX46Y46*%
G04 Gerber Fmt 4.6, Leading zero omitted, Abs format (unit mm)*
G04 Created by KiCad (PCBNEW (5.0.0)) date 11/17/18 14:21:24*
%MOMM*%
%LPD*%
G01*
G04 APERTURE LIST*
%ADD10C,0.300000*%
%ADD11C,0.120000*%
%ADD12C,0.150000*%
G04 APERTURE END LIST*
D10*
X139678571Y-100678571D02*
X138178571Y-100678571D01*
X138178571Y-100321428D01*
X138250000Y-100107142D01*
X138392857Y-99964285D01*
X138535714Y-99892857D01*
X138821428Y-99821428D01*
X139035714Y-99821428D01*
X139321428Y-99892857D01*
X139464285Y-99964285D01*
X139607142Y-100107142D01*
X139678571Y-100321428D01*
X139678571Y-100678571D01*
X139678571Y-99178571D02*
X138678571Y-99178571D01*
X138178571Y-99178571D02*
X138250000Y-99250000D01*
X138321428Y-99178571D01*
X138250000Y-99107142D01*
X138178571Y-99178571D01*
X138321428Y-99178571D01*
X139678571Y-98250000D02*
X139607142Y-98392857D01*
X139535714Y-98464285D01*
X139392857Y-98535714D01*
X138964285Y-98535714D01*
X138821428Y-98464285D01*
X138750000Y-98392857D01*
X138678571Y-98250000D01*
X138678571Y-98035714D01*
X138750000Y-97892857D01*
X138821428Y-97821428D01*
X138964285Y-97750000D01*
X139392857Y-97750000D01*
X139535714Y-97821428D01*
X139607142Y-97892857D01*
X139678571Y-98035714D01*
X139678571Y-98250000D01*
X139678571Y-96464285D02*
X138178571Y-96464285D01*
X139607142Y-96464285D02*
X139678571Y-96607142D01*
X139678571Y-96892857D01*
X139607142Y-97035714D01*
X139535714Y-97107142D01*
X139392857Y-97178571D01*
X138964285Y-97178571D01*
X138821428Y-97107142D01*
X138750000Y-97035714D01*
X138678571Y-96892857D01*
X138678571Y-96607142D01*
X138750000Y-96464285D01*
X139607142Y-95178571D02*
X139678571Y-95321428D01*
X139678571Y-95607142D01*
X139607142Y-95750000D01*
X139464285Y-95821428D01*
X138892857Y-95821428D01*
X138750000Y-95750000D01*
X138678571Y-95607142D01*
X138678571Y-95321428D01*
X138750000Y-95178571D01*
X138892857Y-95107142D01*
X139035714Y-95107142D01*
X139178571Y-95821428D01*
X138678571Y-93464285D02*
X139678571Y-93107142D01*
X138678571Y-92750000D01*
X139678571Y-91392857D02*
X139678571Y-92250000D01*
X139678571Y-91821428D02*
X138178571Y-91821428D01*
X138392857Y-91964285D01*
X138535714Y-92107142D01*
X138607142Y-92250000D01*
X139535714Y-90750000D02*
X139607142Y-90678571D01*
X139678571Y-90750000D01*
X139607142Y-90821428D01*
X139535714Y-90750000D01*
X139678571Y-90750000D01*
X139678571Y-89250000D02*
X139678571Y-90107142D01*
X139678571Y-89678571D02*
X138178571Y-89678571D01*
X138392857Y-89821428D01*
X138535714Y-89964285D01*
X138607142Y-90107142D01*
D11*
G04 #@! TO.C,D1*
X147002916Y-91225098D02*
X146111961Y-90334144D01*
X146111961Y-90334144D02*
X145334144Y-91111961D01*
X145334144Y-91111961D02*
X146225098Y-92002916D01*
X146225326Y-92002629D02*
G75*
G03X147002916Y-91225098I3774674J-2997371D01*
G01*
D12*
X149261904Y-89632380D02*
X149261904Y-88632380D01*
X149500000Y-88632380D01*
X149642857Y-88680000D01*
X149738095Y-88775238D01*
X149785714Y-88870476D01*
X149833333Y-89060952D01*
X149833333Y-89203809D01*
X149785714Y-89394285D01*
X149738095Y-89489523D01*
X149642857Y-89584761D01*
X149500000Y-89632380D01*
X149261904Y-89632380D01*
X150785714Y-89632380D02*
X150214285Y-89632380D01*
X150500000Y-89632380D02*
X150500000Y-88632380D01*
X150404761Y-88775238D01*
X150309523Y-88870476D01*
X150214285Y-88918095D01*
G04 #@! TD*
M02*
