G04 #@! TF.GenerationSoftware,KiCad,Pcbnew,(5.0.0)*
G04 #@! TF.CreationDate,2019-05-30T12:20:16+02:00*
G04 #@! TF.ProjectId,ODMeter,4F444D657465722E6B696361645F7063,rev?*
G04 #@! TF.SameCoordinates,Original*
G04 #@! TF.FileFunction,Soldermask,Bot*
G04 #@! TF.FilePolarity,Negative*
%FSLAX46Y46*%
G04 Gerber Fmt 4.6, Leading zero omitted, Abs format (unit mm)*
G04 Created by KiCad (PCBNEW (5.0.0)) date 05/30/19 12:20:16*
%MOMM*%
%LPD*%
G01*
G04 APERTURE LIST*
%ADD10O,2.100000X2.100000*%
%ADD11R,2.100000X2.100000*%
%ADD12C,1.350000*%
%ADD13O,1.900000X2.700000*%
%ADD14O,1.900000X3.700000*%
%ADD15C,0.800000*%
%ADD16C,2.400000*%
%ADD17C,1.924000*%
%ADD18C,3.600000*%
%ADD19C,2.050000*%
G04 APERTURE END LIST*
D10*
G04 #@! TO.C,J3*
X101080000Y-62450000D03*
X98540000Y-62450000D03*
X96000000Y-62450000D03*
X93460000Y-62450000D03*
X90920000Y-62450000D03*
X88380000Y-62450000D03*
X85840000Y-62450000D03*
D11*
X83300000Y-62450000D03*
G04 #@! TD*
D12*
G04 #@! TO.C,J24*
X124875000Y-55980000D03*
X118075000Y-55980000D03*
G04 #@! TD*
D13*
G04 #@! TO.C,J11*
X122250000Y-141410000D03*
X107750000Y-141410000D03*
D14*
X122250000Y-135450000D03*
X107750000Y-135450000D03*
G04 #@! TD*
D15*
G04 #@! TO.C,U6*
X93400000Y-91000000D03*
X93400000Y-89700000D03*
X92100000Y-89700000D03*
X92100000Y-91000000D03*
G04 #@! TD*
G04 #@! TO.C,U4*
X75900000Y-89000000D03*
X75900000Y-90300000D03*
X77200000Y-90300000D03*
X77200000Y-89000000D03*
G04 #@! TD*
D16*
G04 #@! TO.C,J20*
X70870000Y-64900000D03*
X74830000Y-64900000D03*
G04 #@! TD*
D17*
G04 #@! TO.C,U3*
X133470000Y-98770000D03*
X133470000Y-96230000D03*
X133470000Y-93690000D03*
X133470000Y-91150000D03*
X133470000Y-88610000D03*
X133470000Y-86070000D03*
X133470000Y-83530000D03*
X133470000Y-80990000D03*
X133470000Y-78450000D03*
X133470000Y-75910000D03*
X133470000Y-73370000D03*
X133470000Y-70830000D03*
X133470000Y-68290000D03*
X133470000Y-65750000D03*
X133470000Y-63210000D03*
X107800000Y-63210000D03*
X107800000Y-65750000D03*
X107800000Y-68290000D03*
X107800000Y-70830000D03*
X107800000Y-73370000D03*
X107800000Y-75910000D03*
X107800000Y-78450000D03*
X107800000Y-80990000D03*
X107800000Y-83530000D03*
X107800000Y-86070000D03*
X107800000Y-88610000D03*
X107800000Y-91150000D03*
X107800000Y-93690000D03*
X107800000Y-96230000D03*
X107800000Y-98770000D03*
G04 #@! TD*
D18*
G04 #@! TO.C,REF\002A\002A*
X141000000Y-56000000D03*
G04 #@! TD*
G04 #@! TO.C,REF\002A\002A*
X141000000Y-141000000D03*
G04 #@! TD*
G04 #@! TO.C,REF\002A\002A*
X72000000Y-141000000D03*
G04 #@! TD*
D16*
G04 #@! TO.C,J9*
X78700000Y-139400000D03*
X94540000Y-139500000D03*
X98500000Y-139500000D03*
X90580000Y-139500000D03*
X86620000Y-139500000D03*
X82660000Y-139400000D03*
G04 #@! TD*
D19*
G04 #@! TO.C,R6*
X78700000Y-132520000D03*
X78700000Y-117280000D03*
G04 #@! TD*
D10*
G04 #@! TO.C,J2*
X83080000Y-54000000D03*
X80540000Y-54000000D03*
D11*
X78000000Y-54000000D03*
G04 #@! TD*
D16*
G04 #@! TO.C,J14*
X74620000Y-107980000D03*
X74620000Y-111940000D03*
X74620000Y-104020000D03*
X74620000Y-100060000D03*
G04 #@! TD*
D19*
G04 #@! TO.C,R16*
X86620000Y-132520000D03*
X86620000Y-117280000D03*
G04 #@! TD*
G04 #@! TO.C,R23*
X94540000Y-132520000D03*
X94540000Y-117280000D03*
G04 #@! TD*
D10*
G04 #@! TO.C,J4*
X92080000Y-54000000D03*
X89540000Y-54000000D03*
D11*
X87000000Y-54000000D03*
G04 #@! TD*
D10*
G04 #@! TO.C,J6*
X101080000Y-54000000D03*
X98540000Y-54000000D03*
D11*
X96000000Y-54000000D03*
G04 #@! TD*
D16*
G04 #@! TO.C,J18*
X86620000Y-107980000D03*
X86620000Y-111940000D03*
X86620000Y-104020000D03*
X86620000Y-100060000D03*
G04 #@! TD*
G04 #@! TO.C,J19*
X98620000Y-107980000D03*
X98620000Y-111940000D03*
X98620000Y-104020000D03*
X98620000Y-100060000D03*
G04 #@! TD*
D18*
G04 #@! TO.C,REF\002A\002A*
X72000000Y-56000000D03*
G04 #@! TD*
M02*
