<?xml version="1.0" encoding="UTF-8" standalone="no"?>
<svg
   xmlns:dc="http://purl.org/dc/elements/1.1/"
   xmlns:cc="http://creativecommons.org/ns#"
   xmlns:rdf="http://www.w3.org/1999/02/22-rdf-syntax-ns#"
   xmlns:svg="http://www.w3.org/2000/svg"
   xmlns="http://www.w3.org/2000/svg"
   xmlns:sodipodi="http://sodipodi.sourceforge.net/DTD/sodipodi-0.dtd"
   xmlns:inkscape="http://www.inkscape.org/namespaces/inkscape"
   width="190mm"
   height="56mm"
   viewBox="0 -56 190 56"
   version="1.1"
   style="stroke-linecap:round;stroke-linejoin:round;fill:none"
   id="svg883"
   sodipodi:docname="long_side1.svg"
   inkscape:version="1.0.1 (c497b03c, 2020-09-10)">
  <metadata
     id="metadata887">
    <rdf:RDF>
      <cc:Work
         rdf:about="">
        <dc:format>image/svg+xml</dc:format>
        <dc:type
           rdf:resource="http://purl.org/dc/dcmitype/StillImage" />
      </cc:Work>
    </rdf:RDF>
  </metadata>
  <defs
     id="defs885" />
  <sodipodi:namedview
     inkscape:document-units="mm"
     unitToSymbol="mm"
     units="mm"
     id="namedview833"
     inkscape:document-rotation="0"
     showgrid="false"
     inkscape:zoom="0.9824827"
     inkscape:cx="384.41519"
     inkscape:cy="71.228287"
     inkscape:window-width="1440"
     inkscape:window-height="900"
     inkscape:window-x="0"
     inkscape:window-y="0"
     inkscape:window-maximized="0"
     inkscape:current-layer="svg883" />
  <path
     d="m 0,0 h 190 v -50 h -20 v -5 a 1,-1 0 0 0 -1,-1 h -8 a 1,-1 0 0 0 -1,1 v 1 a 1,-1 0 0 0 1,1 h 5 v 3 h -41 v -5 a 1,-1 0 0 0 -1,-1 h -8 a 1,-1 0 0 0 -1,1 v 1 a 1,-1 0 0 0 1,1 h 5 v 3 H 80 v -5 a 1,-1 0 0 0 -1,-1 h -8 a 1,-1 0 0 0 -1,1 v 1 a 1,-1 0 0 0 1,1 h 5 v 3 H 35 v -5 a 1,-1 0 0 0 -1,-1 h -8 a 1,-1 0 0 0 -1,1 v 1 a 1,-1 0 0 0 1,1 h 5 v 3 H 0 Z"
     style="stroke:#000000;stroke-width:0.25"
     id="path835" />
  <path
     d="m 3,-40 h 3 v 10 H 3 Z"
     style="stroke:#000000;stroke-width:0.25"
     id="path837" />
  <path
     d="m 3,-20 h 3 v 10 H 3 Z"
     style="stroke:#000000;stroke-width:0.25"
     id="path839" />
  <path
     d="m 184,-40 h 3 v 10 h -3 z"
     style="stroke:#000000;stroke-width:0.25"
     id="path841" />
  <path
     d="m 184,-20 h 3 v 10 h -3 z"
     style="stroke:#000000;stroke-width:0.25"
     id="path843" />
  <path
     d="m 30,-6 h 10 v 3 H 30 Z"
     style="stroke:#000000;stroke-width:0.25"
     id="path845" />
  <path
     d="m 70,-6 h 10 v 3 H 70 Z"
     style="stroke:#000000;stroke-width:0.25"
     id="path847" />
  <path
     d="m 110,-6 h 10 v 3 h -10 z"
     style="stroke:#000000;stroke-width:0.25"
     id="path849" />
  <path
     d="m 150,-6 h 10 v 3 h -10 z"
     style="stroke:#000000;stroke-width:0.25"
     id="path851" />
</svg>
