G04 #@! TF.GenerationSoftware,KiCad,Pcbnew,(5.0.0)*
G04 #@! TF.CreationDate,2018-11-17T14:21:24+01:00*
G04 #@! TF.ProjectId,photoDiode_MDversion,70686F746F44696F64655F4D44766572,rev?*
G04 #@! TF.SameCoordinates,Original*
G04 #@! TF.FileFunction,Paste,Bot*
G04 #@! TF.FilePolarity,Positive*
%FSLAX46Y46*%
G04 Gerber Fmt 4.6, Leading zero omitted, Abs format (unit mm)*
G04 Created by KiCad (PCBNEW (5.0.0)) date 11/17/18 14:21:24*
%MOMM*%
%LPD*%
G01*
G04 APERTURE LIST*
%ADD10C,0.100000*%
%ADD11C,0.975000*%
%ADD12R,1.000000X1.250000*%
%ADD13R,1.250000X1.000000*%
%ADD14R,1.550000X0.600000*%
%ADD15R,1.800000X1.200000*%
%ADD16R,1.000000X3.800000*%
%ADD17R,3.800000X1.000000*%
%ADD18C,1.000000*%
G04 APERTURE END LIST*
D10*
G04 #@! TO.C,R3*
G36*
X148301296Y-98791397D02*
X148324957Y-98794907D01*
X148348161Y-98800719D01*
X148370683Y-98808777D01*
X148392307Y-98819005D01*
X148412824Y-98831302D01*
X148432037Y-98845552D01*
X148449761Y-98861616D01*
X148465825Y-98879340D01*
X148480075Y-98898553D01*
X148492372Y-98919070D01*
X148502600Y-98940694D01*
X148510658Y-98963216D01*
X148516470Y-98986420D01*
X148519980Y-99010081D01*
X148521154Y-99033973D01*
X148521154Y-99946473D01*
X148519980Y-99970365D01*
X148516470Y-99994026D01*
X148510658Y-100017230D01*
X148502600Y-100039752D01*
X148492372Y-100061376D01*
X148480075Y-100081893D01*
X148465825Y-100101106D01*
X148449761Y-100118830D01*
X148432037Y-100134894D01*
X148412824Y-100149144D01*
X148392307Y-100161441D01*
X148370683Y-100171669D01*
X148348161Y-100179727D01*
X148324957Y-100185539D01*
X148301296Y-100189049D01*
X148277404Y-100190223D01*
X147789904Y-100190223D01*
X147766012Y-100189049D01*
X147742351Y-100185539D01*
X147719147Y-100179727D01*
X147696625Y-100171669D01*
X147675001Y-100161441D01*
X147654484Y-100149144D01*
X147635271Y-100134894D01*
X147617547Y-100118830D01*
X147601483Y-100101106D01*
X147587233Y-100081893D01*
X147574936Y-100061376D01*
X147564708Y-100039752D01*
X147556650Y-100017230D01*
X147550838Y-99994026D01*
X147547328Y-99970365D01*
X147546154Y-99946473D01*
X147546154Y-99033973D01*
X147547328Y-99010081D01*
X147550838Y-98986420D01*
X147556650Y-98963216D01*
X147564708Y-98940694D01*
X147574936Y-98919070D01*
X147587233Y-98898553D01*
X147601483Y-98879340D01*
X147617547Y-98861616D01*
X147635271Y-98845552D01*
X147654484Y-98831302D01*
X147675001Y-98819005D01*
X147696625Y-98808777D01*
X147719147Y-98800719D01*
X147742351Y-98794907D01*
X147766012Y-98791397D01*
X147789904Y-98790223D01*
X148277404Y-98790223D01*
X148301296Y-98791397D01*
X148301296Y-98791397D01*
G37*
D11*
X148033654Y-99490223D03*
D10*
G36*
X150176296Y-98791397D02*
X150199957Y-98794907D01*
X150223161Y-98800719D01*
X150245683Y-98808777D01*
X150267307Y-98819005D01*
X150287824Y-98831302D01*
X150307037Y-98845552D01*
X150324761Y-98861616D01*
X150340825Y-98879340D01*
X150355075Y-98898553D01*
X150367372Y-98919070D01*
X150377600Y-98940694D01*
X150385658Y-98963216D01*
X150391470Y-98986420D01*
X150394980Y-99010081D01*
X150396154Y-99033973D01*
X150396154Y-99946473D01*
X150394980Y-99970365D01*
X150391470Y-99994026D01*
X150385658Y-100017230D01*
X150377600Y-100039752D01*
X150367372Y-100061376D01*
X150355075Y-100081893D01*
X150340825Y-100101106D01*
X150324761Y-100118830D01*
X150307037Y-100134894D01*
X150287824Y-100149144D01*
X150267307Y-100161441D01*
X150245683Y-100171669D01*
X150223161Y-100179727D01*
X150199957Y-100185539D01*
X150176296Y-100189049D01*
X150152404Y-100190223D01*
X149664904Y-100190223D01*
X149641012Y-100189049D01*
X149617351Y-100185539D01*
X149594147Y-100179727D01*
X149571625Y-100171669D01*
X149550001Y-100161441D01*
X149529484Y-100149144D01*
X149510271Y-100134894D01*
X149492547Y-100118830D01*
X149476483Y-100101106D01*
X149462233Y-100081893D01*
X149449936Y-100061376D01*
X149439708Y-100039752D01*
X149431650Y-100017230D01*
X149425838Y-99994026D01*
X149422328Y-99970365D01*
X149421154Y-99946473D01*
X149421154Y-99033973D01*
X149422328Y-99010081D01*
X149425838Y-98986420D01*
X149431650Y-98963216D01*
X149439708Y-98940694D01*
X149449936Y-98919070D01*
X149462233Y-98898553D01*
X149476483Y-98879340D01*
X149492547Y-98861616D01*
X149510271Y-98845552D01*
X149529484Y-98831302D01*
X149550001Y-98819005D01*
X149571625Y-98808777D01*
X149594147Y-98800719D01*
X149617351Y-98794907D01*
X149641012Y-98791397D01*
X149664904Y-98790223D01*
X150152404Y-98790223D01*
X150176296Y-98791397D01*
X150176296Y-98791397D01*
G37*
D11*
X149908654Y-99490223D03*
G04 #@! TD*
D10*
G04 #@! TO.C,R4*
G36*
X148326296Y-96816397D02*
X148349957Y-96819907D01*
X148373161Y-96825719D01*
X148395683Y-96833777D01*
X148417307Y-96844005D01*
X148437824Y-96856302D01*
X148457037Y-96870552D01*
X148474761Y-96886616D01*
X148490825Y-96904340D01*
X148505075Y-96923553D01*
X148517372Y-96944070D01*
X148527600Y-96965694D01*
X148535658Y-96988216D01*
X148541470Y-97011420D01*
X148544980Y-97035081D01*
X148546154Y-97058973D01*
X148546154Y-97971473D01*
X148544980Y-97995365D01*
X148541470Y-98019026D01*
X148535658Y-98042230D01*
X148527600Y-98064752D01*
X148517372Y-98086376D01*
X148505075Y-98106893D01*
X148490825Y-98126106D01*
X148474761Y-98143830D01*
X148457037Y-98159894D01*
X148437824Y-98174144D01*
X148417307Y-98186441D01*
X148395683Y-98196669D01*
X148373161Y-98204727D01*
X148349957Y-98210539D01*
X148326296Y-98214049D01*
X148302404Y-98215223D01*
X147814904Y-98215223D01*
X147791012Y-98214049D01*
X147767351Y-98210539D01*
X147744147Y-98204727D01*
X147721625Y-98196669D01*
X147700001Y-98186441D01*
X147679484Y-98174144D01*
X147660271Y-98159894D01*
X147642547Y-98143830D01*
X147626483Y-98126106D01*
X147612233Y-98106893D01*
X147599936Y-98086376D01*
X147589708Y-98064752D01*
X147581650Y-98042230D01*
X147575838Y-98019026D01*
X147572328Y-97995365D01*
X147571154Y-97971473D01*
X147571154Y-97058973D01*
X147572328Y-97035081D01*
X147575838Y-97011420D01*
X147581650Y-96988216D01*
X147589708Y-96965694D01*
X147599936Y-96944070D01*
X147612233Y-96923553D01*
X147626483Y-96904340D01*
X147642547Y-96886616D01*
X147660271Y-96870552D01*
X147679484Y-96856302D01*
X147700001Y-96844005D01*
X147721625Y-96833777D01*
X147744147Y-96825719D01*
X147767351Y-96819907D01*
X147791012Y-96816397D01*
X147814904Y-96815223D01*
X148302404Y-96815223D01*
X148326296Y-96816397D01*
X148326296Y-96816397D01*
G37*
D11*
X148058654Y-97515223D03*
D10*
G36*
X150201296Y-96816397D02*
X150224957Y-96819907D01*
X150248161Y-96825719D01*
X150270683Y-96833777D01*
X150292307Y-96844005D01*
X150312824Y-96856302D01*
X150332037Y-96870552D01*
X150349761Y-96886616D01*
X150365825Y-96904340D01*
X150380075Y-96923553D01*
X150392372Y-96944070D01*
X150402600Y-96965694D01*
X150410658Y-96988216D01*
X150416470Y-97011420D01*
X150419980Y-97035081D01*
X150421154Y-97058973D01*
X150421154Y-97971473D01*
X150419980Y-97995365D01*
X150416470Y-98019026D01*
X150410658Y-98042230D01*
X150402600Y-98064752D01*
X150392372Y-98086376D01*
X150380075Y-98106893D01*
X150365825Y-98126106D01*
X150349761Y-98143830D01*
X150332037Y-98159894D01*
X150312824Y-98174144D01*
X150292307Y-98186441D01*
X150270683Y-98196669D01*
X150248161Y-98204727D01*
X150224957Y-98210539D01*
X150201296Y-98214049D01*
X150177404Y-98215223D01*
X149689904Y-98215223D01*
X149666012Y-98214049D01*
X149642351Y-98210539D01*
X149619147Y-98204727D01*
X149596625Y-98196669D01*
X149575001Y-98186441D01*
X149554484Y-98174144D01*
X149535271Y-98159894D01*
X149517547Y-98143830D01*
X149501483Y-98126106D01*
X149487233Y-98106893D01*
X149474936Y-98086376D01*
X149464708Y-98064752D01*
X149456650Y-98042230D01*
X149450838Y-98019026D01*
X149447328Y-97995365D01*
X149446154Y-97971473D01*
X149446154Y-97058973D01*
X149447328Y-97035081D01*
X149450838Y-97011420D01*
X149456650Y-96988216D01*
X149464708Y-96965694D01*
X149474936Y-96944070D01*
X149487233Y-96923553D01*
X149501483Y-96904340D01*
X149517547Y-96886616D01*
X149535271Y-96870552D01*
X149554484Y-96856302D01*
X149575001Y-96844005D01*
X149596625Y-96833777D01*
X149619147Y-96825719D01*
X149642351Y-96819907D01*
X149666012Y-96816397D01*
X149689904Y-96815223D01*
X150177404Y-96815223D01*
X150201296Y-96816397D01*
X150201296Y-96816397D01*
G37*
D11*
X149933654Y-97515223D03*
G04 #@! TD*
D12*
G04 #@! TO.C,C2*
X143425000Y-94800000D03*
X145425000Y-94800000D03*
G04 #@! TD*
D10*
G04 #@! TO.C,R1*
G36*
X145655142Y-92276174D02*
X145678803Y-92279684D01*
X145702007Y-92285496D01*
X145724529Y-92293554D01*
X145746153Y-92303782D01*
X145766670Y-92316079D01*
X145785883Y-92330329D01*
X145803607Y-92346393D01*
X145819671Y-92364117D01*
X145833921Y-92383330D01*
X145846218Y-92403847D01*
X145856446Y-92425471D01*
X145864504Y-92447993D01*
X145870316Y-92471197D01*
X145873826Y-92494858D01*
X145875000Y-92518750D01*
X145875000Y-93431250D01*
X145873826Y-93455142D01*
X145870316Y-93478803D01*
X145864504Y-93502007D01*
X145856446Y-93524529D01*
X145846218Y-93546153D01*
X145833921Y-93566670D01*
X145819671Y-93585883D01*
X145803607Y-93603607D01*
X145785883Y-93619671D01*
X145766670Y-93633921D01*
X145746153Y-93646218D01*
X145724529Y-93656446D01*
X145702007Y-93664504D01*
X145678803Y-93670316D01*
X145655142Y-93673826D01*
X145631250Y-93675000D01*
X145143750Y-93675000D01*
X145119858Y-93673826D01*
X145096197Y-93670316D01*
X145072993Y-93664504D01*
X145050471Y-93656446D01*
X145028847Y-93646218D01*
X145008330Y-93633921D01*
X144989117Y-93619671D01*
X144971393Y-93603607D01*
X144955329Y-93585883D01*
X144941079Y-93566670D01*
X144928782Y-93546153D01*
X144918554Y-93524529D01*
X144910496Y-93502007D01*
X144904684Y-93478803D01*
X144901174Y-93455142D01*
X144900000Y-93431250D01*
X144900000Y-92518750D01*
X144901174Y-92494858D01*
X144904684Y-92471197D01*
X144910496Y-92447993D01*
X144918554Y-92425471D01*
X144928782Y-92403847D01*
X144941079Y-92383330D01*
X144955329Y-92364117D01*
X144971393Y-92346393D01*
X144989117Y-92330329D01*
X145008330Y-92316079D01*
X145028847Y-92303782D01*
X145050471Y-92293554D01*
X145072993Y-92285496D01*
X145096197Y-92279684D01*
X145119858Y-92276174D01*
X145143750Y-92275000D01*
X145631250Y-92275000D01*
X145655142Y-92276174D01*
X145655142Y-92276174D01*
G37*
D11*
X145387500Y-92975000D03*
D10*
G36*
X143780142Y-92276174D02*
X143803803Y-92279684D01*
X143827007Y-92285496D01*
X143849529Y-92293554D01*
X143871153Y-92303782D01*
X143891670Y-92316079D01*
X143910883Y-92330329D01*
X143928607Y-92346393D01*
X143944671Y-92364117D01*
X143958921Y-92383330D01*
X143971218Y-92403847D01*
X143981446Y-92425471D01*
X143989504Y-92447993D01*
X143995316Y-92471197D01*
X143998826Y-92494858D01*
X144000000Y-92518750D01*
X144000000Y-93431250D01*
X143998826Y-93455142D01*
X143995316Y-93478803D01*
X143989504Y-93502007D01*
X143981446Y-93524529D01*
X143971218Y-93546153D01*
X143958921Y-93566670D01*
X143944671Y-93585883D01*
X143928607Y-93603607D01*
X143910883Y-93619671D01*
X143891670Y-93633921D01*
X143871153Y-93646218D01*
X143849529Y-93656446D01*
X143827007Y-93664504D01*
X143803803Y-93670316D01*
X143780142Y-93673826D01*
X143756250Y-93675000D01*
X143268750Y-93675000D01*
X143244858Y-93673826D01*
X143221197Y-93670316D01*
X143197993Y-93664504D01*
X143175471Y-93656446D01*
X143153847Y-93646218D01*
X143133330Y-93633921D01*
X143114117Y-93619671D01*
X143096393Y-93603607D01*
X143080329Y-93585883D01*
X143066079Y-93566670D01*
X143053782Y-93546153D01*
X143043554Y-93524529D01*
X143035496Y-93502007D01*
X143029684Y-93478803D01*
X143026174Y-93455142D01*
X143025000Y-93431250D01*
X143025000Y-92518750D01*
X143026174Y-92494858D01*
X143029684Y-92471197D01*
X143035496Y-92447993D01*
X143043554Y-92425471D01*
X143053782Y-92403847D01*
X143066079Y-92383330D01*
X143080329Y-92364117D01*
X143096393Y-92346393D01*
X143114117Y-92330329D01*
X143133330Y-92316079D01*
X143153847Y-92303782D01*
X143175471Y-92293554D01*
X143197993Y-92285496D01*
X143221197Y-92279684D01*
X143244858Y-92276174D01*
X143268750Y-92275000D01*
X143756250Y-92275000D01*
X143780142Y-92276174D01*
X143780142Y-92276174D01*
G37*
D11*
X143512500Y-92975000D03*
G04 #@! TD*
D10*
G04 #@! TO.C,R2*
G36*
X145630142Y-89826174D02*
X145653803Y-89829684D01*
X145677007Y-89835496D01*
X145699529Y-89843554D01*
X145721153Y-89853782D01*
X145741670Y-89866079D01*
X145760883Y-89880329D01*
X145778607Y-89896393D01*
X145794671Y-89914117D01*
X145808921Y-89933330D01*
X145821218Y-89953847D01*
X145831446Y-89975471D01*
X145839504Y-89997993D01*
X145845316Y-90021197D01*
X145848826Y-90044858D01*
X145850000Y-90068750D01*
X145850000Y-90981250D01*
X145848826Y-91005142D01*
X145845316Y-91028803D01*
X145839504Y-91052007D01*
X145831446Y-91074529D01*
X145821218Y-91096153D01*
X145808921Y-91116670D01*
X145794671Y-91135883D01*
X145778607Y-91153607D01*
X145760883Y-91169671D01*
X145741670Y-91183921D01*
X145721153Y-91196218D01*
X145699529Y-91206446D01*
X145677007Y-91214504D01*
X145653803Y-91220316D01*
X145630142Y-91223826D01*
X145606250Y-91225000D01*
X145118750Y-91225000D01*
X145094858Y-91223826D01*
X145071197Y-91220316D01*
X145047993Y-91214504D01*
X145025471Y-91206446D01*
X145003847Y-91196218D01*
X144983330Y-91183921D01*
X144964117Y-91169671D01*
X144946393Y-91153607D01*
X144930329Y-91135883D01*
X144916079Y-91116670D01*
X144903782Y-91096153D01*
X144893554Y-91074529D01*
X144885496Y-91052007D01*
X144879684Y-91028803D01*
X144876174Y-91005142D01*
X144875000Y-90981250D01*
X144875000Y-90068750D01*
X144876174Y-90044858D01*
X144879684Y-90021197D01*
X144885496Y-89997993D01*
X144893554Y-89975471D01*
X144903782Y-89953847D01*
X144916079Y-89933330D01*
X144930329Y-89914117D01*
X144946393Y-89896393D01*
X144964117Y-89880329D01*
X144983330Y-89866079D01*
X145003847Y-89853782D01*
X145025471Y-89843554D01*
X145047993Y-89835496D01*
X145071197Y-89829684D01*
X145094858Y-89826174D01*
X145118750Y-89825000D01*
X145606250Y-89825000D01*
X145630142Y-89826174D01*
X145630142Y-89826174D01*
G37*
D11*
X145362500Y-90525000D03*
D10*
G36*
X143755142Y-89826174D02*
X143778803Y-89829684D01*
X143802007Y-89835496D01*
X143824529Y-89843554D01*
X143846153Y-89853782D01*
X143866670Y-89866079D01*
X143885883Y-89880329D01*
X143903607Y-89896393D01*
X143919671Y-89914117D01*
X143933921Y-89933330D01*
X143946218Y-89953847D01*
X143956446Y-89975471D01*
X143964504Y-89997993D01*
X143970316Y-90021197D01*
X143973826Y-90044858D01*
X143975000Y-90068750D01*
X143975000Y-90981250D01*
X143973826Y-91005142D01*
X143970316Y-91028803D01*
X143964504Y-91052007D01*
X143956446Y-91074529D01*
X143946218Y-91096153D01*
X143933921Y-91116670D01*
X143919671Y-91135883D01*
X143903607Y-91153607D01*
X143885883Y-91169671D01*
X143866670Y-91183921D01*
X143846153Y-91196218D01*
X143824529Y-91206446D01*
X143802007Y-91214504D01*
X143778803Y-91220316D01*
X143755142Y-91223826D01*
X143731250Y-91225000D01*
X143243750Y-91225000D01*
X143219858Y-91223826D01*
X143196197Y-91220316D01*
X143172993Y-91214504D01*
X143150471Y-91206446D01*
X143128847Y-91196218D01*
X143108330Y-91183921D01*
X143089117Y-91169671D01*
X143071393Y-91153607D01*
X143055329Y-91135883D01*
X143041079Y-91116670D01*
X143028782Y-91096153D01*
X143018554Y-91074529D01*
X143010496Y-91052007D01*
X143004684Y-91028803D01*
X143001174Y-91005142D01*
X143000000Y-90981250D01*
X143000000Y-90068750D01*
X143001174Y-90044858D01*
X143004684Y-90021197D01*
X143010496Y-89997993D01*
X143018554Y-89975471D01*
X143028782Y-89953847D01*
X143041079Y-89933330D01*
X143055329Y-89914117D01*
X143071393Y-89896393D01*
X143089117Y-89880329D01*
X143108330Y-89866079D01*
X143128847Y-89853782D01*
X143150471Y-89843554D01*
X143172993Y-89835496D01*
X143196197Y-89829684D01*
X143219858Y-89826174D01*
X143243750Y-89825000D01*
X143731250Y-89825000D01*
X143755142Y-89826174D01*
X143755142Y-89826174D01*
G37*
D11*
X143487500Y-90525000D03*
G04 #@! TD*
D13*
G04 #@! TO.C,C1*
X155225000Y-96400000D03*
X155225000Y-94400000D03*
G04 #@! TD*
D14*
G04 #@! TO.C,J1*
X159300000Y-96000000D03*
X159300000Y-95000000D03*
X159300000Y-94000000D03*
D15*
X161825000Y-97300000D03*
X161825000Y-92700000D03*
G04 #@! TD*
D12*
G04 #@! TO.C,C3*
X155300000Y-100150000D03*
X153300000Y-100150000D03*
G04 #@! TD*
G04 #@! TO.C,C4*
X143425000Y-88625000D03*
X145425000Y-88625000D03*
G04 #@! TD*
D10*
G04 #@! TO.C,L1*
G36*
X155605142Y-97526174D02*
X155628803Y-97529684D01*
X155652007Y-97535496D01*
X155674529Y-97543554D01*
X155696153Y-97553782D01*
X155716670Y-97566079D01*
X155735883Y-97580329D01*
X155753607Y-97596393D01*
X155769671Y-97614117D01*
X155783921Y-97633330D01*
X155796218Y-97653847D01*
X155806446Y-97675471D01*
X155814504Y-97697993D01*
X155820316Y-97721197D01*
X155823826Y-97744858D01*
X155825000Y-97768750D01*
X155825000Y-98681250D01*
X155823826Y-98705142D01*
X155820316Y-98728803D01*
X155814504Y-98752007D01*
X155806446Y-98774529D01*
X155796218Y-98796153D01*
X155783921Y-98816670D01*
X155769671Y-98835883D01*
X155753607Y-98853607D01*
X155735883Y-98869671D01*
X155716670Y-98883921D01*
X155696153Y-98896218D01*
X155674529Y-98906446D01*
X155652007Y-98914504D01*
X155628803Y-98920316D01*
X155605142Y-98923826D01*
X155581250Y-98925000D01*
X155093750Y-98925000D01*
X155069858Y-98923826D01*
X155046197Y-98920316D01*
X155022993Y-98914504D01*
X155000471Y-98906446D01*
X154978847Y-98896218D01*
X154958330Y-98883921D01*
X154939117Y-98869671D01*
X154921393Y-98853607D01*
X154905329Y-98835883D01*
X154891079Y-98816670D01*
X154878782Y-98796153D01*
X154868554Y-98774529D01*
X154860496Y-98752007D01*
X154854684Y-98728803D01*
X154851174Y-98705142D01*
X154850000Y-98681250D01*
X154850000Y-97768750D01*
X154851174Y-97744858D01*
X154854684Y-97721197D01*
X154860496Y-97697993D01*
X154868554Y-97675471D01*
X154878782Y-97653847D01*
X154891079Y-97633330D01*
X154905329Y-97614117D01*
X154921393Y-97596393D01*
X154939117Y-97580329D01*
X154958330Y-97566079D01*
X154978847Y-97553782D01*
X155000471Y-97543554D01*
X155022993Y-97535496D01*
X155046197Y-97529684D01*
X155069858Y-97526174D01*
X155093750Y-97525000D01*
X155581250Y-97525000D01*
X155605142Y-97526174D01*
X155605142Y-97526174D01*
G37*
D11*
X155337500Y-98225000D03*
D10*
G36*
X153730142Y-97526174D02*
X153753803Y-97529684D01*
X153777007Y-97535496D01*
X153799529Y-97543554D01*
X153821153Y-97553782D01*
X153841670Y-97566079D01*
X153860883Y-97580329D01*
X153878607Y-97596393D01*
X153894671Y-97614117D01*
X153908921Y-97633330D01*
X153921218Y-97653847D01*
X153931446Y-97675471D01*
X153939504Y-97697993D01*
X153945316Y-97721197D01*
X153948826Y-97744858D01*
X153950000Y-97768750D01*
X153950000Y-98681250D01*
X153948826Y-98705142D01*
X153945316Y-98728803D01*
X153939504Y-98752007D01*
X153931446Y-98774529D01*
X153921218Y-98796153D01*
X153908921Y-98816670D01*
X153894671Y-98835883D01*
X153878607Y-98853607D01*
X153860883Y-98869671D01*
X153841670Y-98883921D01*
X153821153Y-98896218D01*
X153799529Y-98906446D01*
X153777007Y-98914504D01*
X153753803Y-98920316D01*
X153730142Y-98923826D01*
X153706250Y-98925000D01*
X153218750Y-98925000D01*
X153194858Y-98923826D01*
X153171197Y-98920316D01*
X153147993Y-98914504D01*
X153125471Y-98906446D01*
X153103847Y-98896218D01*
X153083330Y-98883921D01*
X153064117Y-98869671D01*
X153046393Y-98853607D01*
X153030329Y-98835883D01*
X153016079Y-98816670D01*
X153003782Y-98796153D01*
X152993554Y-98774529D01*
X152985496Y-98752007D01*
X152979684Y-98728803D01*
X152976174Y-98705142D01*
X152975000Y-98681250D01*
X152975000Y-97768750D01*
X152976174Y-97744858D01*
X152979684Y-97721197D01*
X152985496Y-97697993D01*
X152993554Y-97675471D01*
X153003782Y-97653847D01*
X153016079Y-97633330D01*
X153030329Y-97614117D01*
X153046393Y-97596393D01*
X153064117Y-97580329D01*
X153083330Y-97566079D01*
X153103847Y-97553782D01*
X153125471Y-97543554D01*
X153147993Y-97535496D01*
X153171197Y-97529684D01*
X153194858Y-97526174D01*
X153218750Y-97525000D01*
X153706250Y-97525000D01*
X153730142Y-97526174D01*
X153730142Y-97526174D01*
G37*
D11*
X153462500Y-98225000D03*
G04 #@! TD*
D14*
G04 #@! TO.C,U1*
X149750000Y-92355000D03*
X149750000Y-91085000D03*
X149750000Y-89815000D03*
X149750000Y-88545000D03*
X155150000Y-88545000D03*
X155150000Y-89815000D03*
X155150000Y-91085000D03*
X155150000Y-92355000D03*
G04 #@! TD*
D16*
G04 #@! TO.C,U2*
X157150000Y-95000000D03*
X140850000Y-95000000D03*
D17*
X149000000Y-103150000D03*
X149000000Y-86850000D03*
D18*
X155375000Y-103150000D03*
D10*
G36*
X157650000Y-103650000D02*
X153100000Y-103650000D01*
X153100000Y-102650000D01*
X157650000Y-102650000D01*
X157650000Y-103650000D01*
X157650000Y-103650000D01*
G37*
D18*
X157150000Y-101375000D03*
D10*
G36*
X156650000Y-103650000D02*
X156650000Y-99100000D01*
X157650000Y-99100000D01*
X157650000Y-103650000D01*
X156650000Y-103650000D01*
X156650000Y-103650000D01*
G37*
D18*
X142625000Y-103150000D03*
D10*
G36*
X144900000Y-103650000D02*
X140350000Y-103650000D01*
X140350000Y-102650000D01*
X144900000Y-102650000D01*
X144900000Y-103650000D01*
X144900000Y-103650000D01*
G37*
D18*
X140850000Y-101375000D03*
D10*
G36*
X140350000Y-103650000D02*
X140350000Y-99100000D01*
X141350000Y-99100000D01*
X141350000Y-103650000D01*
X140350000Y-103650000D01*
X140350000Y-103650000D01*
G37*
D18*
X140850000Y-88625000D03*
D10*
G36*
X140350000Y-90900000D02*
X140350000Y-86350000D01*
X141350000Y-86350000D01*
X141350000Y-90900000D01*
X140350000Y-90900000D01*
X140350000Y-90900000D01*
G37*
D18*
X142625000Y-86850000D03*
D10*
G36*
X144900000Y-87350000D02*
X140350000Y-87350000D01*
X140350000Y-86350000D01*
X144900000Y-86350000D01*
X144900000Y-87350000D01*
X144900000Y-87350000D01*
G37*
D18*
X155375000Y-86850000D03*
D10*
G36*
X157650000Y-87350000D02*
X153100000Y-87350000D01*
X153100000Y-86350000D01*
X157650000Y-86350000D01*
X157650000Y-87350000D01*
X157650000Y-87350000D01*
G37*
D18*
X157150000Y-88625000D03*
D10*
G36*
X156650000Y-90900000D02*
X156650000Y-86350000D01*
X157650000Y-86350000D01*
X157650000Y-90900000D01*
X156650000Y-90900000D01*
X156650000Y-90900000D01*
G37*
G04 #@! TD*
M02*
