G04 #@! TF.GenerationSoftware,KiCad,Pcbnew,(5.0.0)*
G04 #@! TF.CreationDate,2018-11-17T14:21:24+01:00*
G04 #@! TF.ProjectId,photoDiode_MDversion,70686F746F44696F64655F4D44766572,rev?*
G04 #@! TF.SameCoordinates,Original*
G04 #@! TF.FileFunction,Copper,L4,Bot,Signal*
G04 #@! TF.FilePolarity,Positive*
%FSLAX46Y46*%
G04 Gerber Fmt 4.6, Leading zero omitted, Abs format (unit mm)*
G04 Created by KiCad (PCBNEW (5.0.0)) date 11/17/18 14:21:24*
%MOMM*%
%LPD*%
G01*
G04 APERTURE LIST*
G04 #@! TA.AperFunction,Conductor*
%ADD10C,0.100000*%
G04 #@! TD*
G04 #@! TA.AperFunction,SMDPad,CuDef*
%ADD11C,0.975000*%
G04 #@! TD*
G04 #@! TA.AperFunction,SMDPad,CuDef*
%ADD12R,1.000000X1.250000*%
G04 #@! TD*
G04 #@! TA.AperFunction,SMDPad,CuDef*
%ADD13R,1.250000X1.000000*%
G04 #@! TD*
G04 #@! TA.AperFunction,ComponentPad*
%ADD14O,1.600000X1.200000*%
G04 #@! TD*
G04 #@! TA.AperFunction,ComponentPad*
%ADD15O,1.200000X1.200000*%
G04 #@! TD*
G04 #@! TA.AperFunction,SMDPad,CuDef*
%ADD16R,1.550000X0.600000*%
G04 #@! TD*
G04 #@! TA.AperFunction,SMDPad,CuDef*
%ADD17R,1.800000X1.200000*%
G04 #@! TD*
G04 #@! TA.AperFunction,SMDPad,CuDef*
%ADD18R,1.000000X3.800000*%
G04 #@! TD*
G04 #@! TA.AperFunction,SMDPad,CuDef*
%ADD19R,3.800000X1.000000*%
G04 #@! TD*
G04 #@! TA.AperFunction,SMDPad,CuDef*
%ADD20C,1.000000*%
G04 #@! TD*
G04 #@! TA.AperFunction,ViaPad*
%ADD21C,0.800000*%
G04 #@! TD*
G04 #@! TA.AperFunction,Conductor*
%ADD22C,0.250000*%
G04 #@! TD*
G04 #@! TA.AperFunction,Conductor*
%ADD23C,0.254000*%
G04 #@! TD*
G04 APERTURE END LIST*
D10*
G04 #@! TO.N,Net-(R3-Pad1)*
G04 #@! TO.C,R3*
G36*
X148301296Y-98791397D02*
X148324957Y-98794907D01*
X148348161Y-98800719D01*
X148370683Y-98808777D01*
X148392307Y-98819005D01*
X148412824Y-98831302D01*
X148432037Y-98845552D01*
X148449761Y-98861616D01*
X148465825Y-98879340D01*
X148480075Y-98898553D01*
X148492372Y-98919070D01*
X148502600Y-98940694D01*
X148510658Y-98963216D01*
X148516470Y-98986420D01*
X148519980Y-99010081D01*
X148521154Y-99033973D01*
X148521154Y-99946473D01*
X148519980Y-99970365D01*
X148516470Y-99994026D01*
X148510658Y-100017230D01*
X148502600Y-100039752D01*
X148492372Y-100061376D01*
X148480075Y-100081893D01*
X148465825Y-100101106D01*
X148449761Y-100118830D01*
X148432037Y-100134894D01*
X148412824Y-100149144D01*
X148392307Y-100161441D01*
X148370683Y-100171669D01*
X148348161Y-100179727D01*
X148324957Y-100185539D01*
X148301296Y-100189049D01*
X148277404Y-100190223D01*
X147789904Y-100190223D01*
X147766012Y-100189049D01*
X147742351Y-100185539D01*
X147719147Y-100179727D01*
X147696625Y-100171669D01*
X147675001Y-100161441D01*
X147654484Y-100149144D01*
X147635271Y-100134894D01*
X147617547Y-100118830D01*
X147601483Y-100101106D01*
X147587233Y-100081893D01*
X147574936Y-100061376D01*
X147564708Y-100039752D01*
X147556650Y-100017230D01*
X147550838Y-99994026D01*
X147547328Y-99970365D01*
X147546154Y-99946473D01*
X147546154Y-99033973D01*
X147547328Y-99010081D01*
X147550838Y-98986420D01*
X147556650Y-98963216D01*
X147564708Y-98940694D01*
X147574936Y-98919070D01*
X147587233Y-98898553D01*
X147601483Y-98879340D01*
X147617547Y-98861616D01*
X147635271Y-98845552D01*
X147654484Y-98831302D01*
X147675001Y-98819005D01*
X147696625Y-98808777D01*
X147719147Y-98800719D01*
X147742351Y-98794907D01*
X147766012Y-98791397D01*
X147789904Y-98790223D01*
X148277404Y-98790223D01*
X148301296Y-98791397D01*
X148301296Y-98791397D01*
G37*
D11*
G04 #@! TD*
G04 #@! TO.P,R3,1*
G04 #@! TO.N,Net-(R3-Pad1)*
X148033654Y-99490223D03*
D10*
G04 #@! TO.N,/A*
G04 #@! TO.C,R3*
G36*
X150176296Y-98791397D02*
X150199957Y-98794907D01*
X150223161Y-98800719D01*
X150245683Y-98808777D01*
X150267307Y-98819005D01*
X150287824Y-98831302D01*
X150307037Y-98845552D01*
X150324761Y-98861616D01*
X150340825Y-98879340D01*
X150355075Y-98898553D01*
X150367372Y-98919070D01*
X150377600Y-98940694D01*
X150385658Y-98963216D01*
X150391470Y-98986420D01*
X150394980Y-99010081D01*
X150396154Y-99033973D01*
X150396154Y-99946473D01*
X150394980Y-99970365D01*
X150391470Y-99994026D01*
X150385658Y-100017230D01*
X150377600Y-100039752D01*
X150367372Y-100061376D01*
X150355075Y-100081893D01*
X150340825Y-100101106D01*
X150324761Y-100118830D01*
X150307037Y-100134894D01*
X150287824Y-100149144D01*
X150267307Y-100161441D01*
X150245683Y-100171669D01*
X150223161Y-100179727D01*
X150199957Y-100185539D01*
X150176296Y-100189049D01*
X150152404Y-100190223D01*
X149664904Y-100190223D01*
X149641012Y-100189049D01*
X149617351Y-100185539D01*
X149594147Y-100179727D01*
X149571625Y-100171669D01*
X149550001Y-100161441D01*
X149529484Y-100149144D01*
X149510271Y-100134894D01*
X149492547Y-100118830D01*
X149476483Y-100101106D01*
X149462233Y-100081893D01*
X149449936Y-100061376D01*
X149439708Y-100039752D01*
X149431650Y-100017230D01*
X149425838Y-99994026D01*
X149422328Y-99970365D01*
X149421154Y-99946473D01*
X149421154Y-99033973D01*
X149422328Y-99010081D01*
X149425838Y-98986420D01*
X149431650Y-98963216D01*
X149439708Y-98940694D01*
X149449936Y-98919070D01*
X149462233Y-98898553D01*
X149476483Y-98879340D01*
X149492547Y-98861616D01*
X149510271Y-98845552D01*
X149529484Y-98831302D01*
X149550001Y-98819005D01*
X149571625Y-98808777D01*
X149594147Y-98800719D01*
X149617351Y-98794907D01*
X149641012Y-98791397D01*
X149664904Y-98790223D01*
X150152404Y-98790223D01*
X150176296Y-98791397D01*
X150176296Y-98791397D01*
G37*
D11*
G04 #@! TD*
G04 #@! TO.P,R3,2*
G04 #@! TO.N,/A*
X149908654Y-99490223D03*
D10*
G04 #@! TO.N,Net-(R3-Pad1)*
G04 #@! TO.C,R4*
G36*
X148326296Y-96816397D02*
X148349957Y-96819907D01*
X148373161Y-96825719D01*
X148395683Y-96833777D01*
X148417307Y-96844005D01*
X148437824Y-96856302D01*
X148457037Y-96870552D01*
X148474761Y-96886616D01*
X148490825Y-96904340D01*
X148505075Y-96923553D01*
X148517372Y-96944070D01*
X148527600Y-96965694D01*
X148535658Y-96988216D01*
X148541470Y-97011420D01*
X148544980Y-97035081D01*
X148546154Y-97058973D01*
X148546154Y-97971473D01*
X148544980Y-97995365D01*
X148541470Y-98019026D01*
X148535658Y-98042230D01*
X148527600Y-98064752D01*
X148517372Y-98086376D01*
X148505075Y-98106893D01*
X148490825Y-98126106D01*
X148474761Y-98143830D01*
X148457037Y-98159894D01*
X148437824Y-98174144D01*
X148417307Y-98186441D01*
X148395683Y-98196669D01*
X148373161Y-98204727D01*
X148349957Y-98210539D01*
X148326296Y-98214049D01*
X148302404Y-98215223D01*
X147814904Y-98215223D01*
X147791012Y-98214049D01*
X147767351Y-98210539D01*
X147744147Y-98204727D01*
X147721625Y-98196669D01*
X147700001Y-98186441D01*
X147679484Y-98174144D01*
X147660271Y-98159894D01*
X147642547Y-98143830D01*
X147626483Y-98126106D01*
X147612233Y-98106893D01*
X147599936Y-98086376D01*
X147589708Y-98064752D01*
X147581650Y-98042230D01*
X147575838Y-98019026D01*
X147572328Y-97995365D01*
X147571154Y-97971473D01*
X147571154Y-97058973D01*
X147572328Y-97035081D01*
X147575838Y-97011420D01*
X147581650Y-96988216D01*
X147589708Y-96965694D01*
X147599936Y-96944070D01*
X147612233Y-96923553D01*
X147626483Y-96904340D01*
X147642547Y-96886616D01*
X147660271Y-96870552D01*
X147679484Y-96856302D01*
X147700001Y-96844005D01*
X147721625Y-96833777D01*
X147744147Y-96825719D01*
X147767351Y-96819907D01*
X147791012Y-96816397D01*
X147814904Y-96815223D01*
X148302404Y-96815223D01*
X148326296Y-96816397D01*
X148326296Y-96816397D01*
G37*
D11*
G04 #@! TD*
G04 #@! TO.P,R4,2*
G04 #@! TO.N,Net-(R3-Pad1)*
X148058654Y-97515223D03*
D10*
G04 #@! TO.N,GND*
G04 #@! TO.C,R4*
G36*
X150201296Y-96816397D02*
X150224957Y-96819907D01*
X150248161Y-96825719D01*
X150270683Y-96833777D01*
X150292307Y-96844005D01*
X150312824Y-96856302D01*
X150332037Y-96870552D01*
X150349761Y-96886616D01*
X150365825Y-96904340D01*
X150380075Y-96923553D01*
X150392372Y-96944070D01*
X150402600Y-96965694D01*
X150410658Y-96988216D01*
X150416470Y-97011420D01*
X150419980Y-97035081D01*
X150421154Y-97058973D01*
X150421154Y-97971473D01*
X150419980Y-97995365D01*
X150416470Y-98019026D01*
X150410658Y-98042230D01*
X150402600Y-98064752D01*
X150392372Y-98086376D01*
X150380075Y-98106893D01*
X150365825Y-98126106D01*
X150349761Y-98143830D01*
X150332037Y-98159894D01*
X150312824Y-98174144D01*
X150292307Y-98186441D01*
X150270683Y-98196669D01*
X150248161Y-98204727D01*
X150224957Y-98210539D01*
X150201296Y-98214049D01*
X150177404Y-98215223D01*
X149689904Y-98215223D01*
X149666012Y-98214049D01*
X149642351Y-98210539D01*
X149619147Y-98204727D01*
X149596625Y-98196669D01*
X149575001Y-98186441D01*
X149554484Y-98174144D01*
X149535271Y-98159894D01*
X149517547Y-98143830D01*
X149501483Y-98126106D01*
X149487233Y-98106893D01*
X149474936Y-98086376D01*
X149464708Y-98064752D01*
X149456650Y-98042230D01*
X149450838Y-98019026D01*
X149447328Y-97995365D01*
X149446154Y-97971473D01*
X149446154Y-97058973D01*
X149447328Y-97035081D01*
X149450838Y-97011420D01*
X149456650Y-96988216D01*
X149464708Y-96965694D01*
X149474936Y-96944070D01*
X149487233Y-96923553D01*
X149501483Y-96904340D01*
X149517547Y-96886616D01*
X149535271Y-96870552D01*
X149554484Y-96856302D01*
X149575001Y-96844005D01*
X149596625Y-96833777D01*
X149619147Y-96825719D01*
X149642351Y-96819907D01*
X149666012Y-96816397D01*
X149689904Y-96815223D01*
X150177404Y-96815223D01*
X150201296Y-96816397D01*
X150201296Y-96816397D01*
G37*
D11*
G04 #@! TD*
G04 #@! TO.P,R4,1*
G04 #@! TO.N,GND*
X149933654Y-97515223D03*
D12*
G04 #@! TO.P,C2,1*
G04 #@! TO.N,Net-(C2-Pad1)*
X143425000Y-94800000D03*
G04 #@! TO.P,C2,2*
G04 #@! TO.N,Net-(C2-Pad2)*
X145425000Y-94800000D03*
G04 #@! TD*
D10*
G04 #@! TO.N,Net-(C2-Pad2)*
G04 #@! TO.C,R1*
G36*
X145655142Y-92276174D02*
X145678803Y-92279684D01*
X145702007Y-92285496D01*
X145724529Y-92293554D01*
X145746153Y-92303782D01*
X145766670Y-92316079D01*
X145785883Y-92330329D01*
X145803607Y-92346393D01*
X145819671Y-92364117D01*
X145833921Y-92383330D01*
X145846218Y-92403847D01*
X145856446Y-92425471D01*
X145864504Y-92447993D01*
X145870316Y-92471197D01*
X145873826Y-92494858D01*
X145875000Y-92518750D01*
X145875000Y-93431250D01*
X145873826Y-93455142D01*
X145870316Y-93478803D01*
X145864504Y-93502007D01*
X145856446Y-93524529D01*
X145846218Y-93546153D01*
X145833921Y-93566670D01*
X145819671Y-93585883D01*
X145803607Y-93603607D01*
X145785883Y-93619671D01*
X145766670Y-93633921D01*
X145746153Y-93646218D01*
X145724529Y-93656446D01*
X145702007Y-93664504D01*
X145678803Y-93670316D01*
X145655142Y-93673826D01*
X145631250Y-93675000D01*
X145143750Y-93675000D01*
X145119858Y-93673826D01*
X145096197Y-93670316D01*
X145072993Y-93664504D01*
X145050471Y-93656446D01*
X145028847Y-93646218D01*
X145008330Y-93633921D01*
X144989117Y-93619671D01*
X144971393Y-93603607D01*
X144955329Y-93585883D01*
X144941079Y-93566670D01*
X144928782Y-93546153D01*
X144918554Y-93524529D01*
X144910496Y-93502007D01*
X144904684Y-93478803D01*
X144901174Y-93455142D01*
X144900000Y-93431250D01*
X144900000Y-92518750D01*
X144901174Y-92494858D01*
X144904684Y-92471197D01*
X144910496Y-92447993D01*
X144918554Y-92425471D01*
X144928782Y-92403847D01*
X144941079Y-92383330D01*
X144955329Y-92364117D01*
X144971393Y-92346393D01*
X144989117Y-92330329D01*
X145008330Y-92316079D01*
X145028847Y-92303782D01*
X145050471Y-92293554D01*
X145072993Y-92285496D01*
X145096197Y-92279684D01*
X145119858Y-92276174D01*
X145143750Y-92275000D01*
X145631250Y-92275000D01*
X145655142Y-92276174D01*
X145655142Y-92276174D01*
G37*
D11*
G04 #@! TD*
G04 #@! TO.P,R1,1*
G04 #@! TO.N,Net-(C2-Pad2)*
X145387500Y-92975000D03*
D10*
G04 #@! TO.N,Net-(C2-Pad1)*
G04 #@! TO.C,R1*
G36*
X143780142Y-92276174D02*
X143803803Y-92279684D01*
X143827007Y-92285496D01*
X143849529Y-92293554D01*
X143871153Y-92303782D01*
X143891670Y-92316079D01*
X143910883Y-92330329D01*
X143928607Y-92346393D01*
X143944671Y-92364117D01*
X143958921Y-92383330D01*
X143971218Y-92403847D01*
X143981446Y-92425471D01*
X143989504Y-92447993D01*
X143995316Y-92471197D01*
X143998826Y-92494858D01*
X144000000Y-92518750D01*
X144000000Y-93431250D01*
X143998826Y-93455142D01*
X143995316Y-93478803D01*
X143989504Y-93502007D01*
X143981446Y-93524529D01*
X143971218Y-93546153D01*
X143958921Y-93566670D01*
X143944671Y-93585883D01*
X143928607Y-93603607D01*
X143910883Y-93619671D01*
X143891670Y-93633921D01*
X143871153Y-93646218D01*
X143849529Y-93656446D01*
X143827007Y-93664504D01*
X143803803Y-93670316D01*
X143780142Y-93673826D01*
X143756250Y-93675000D01*
X143268750Y-93675000D01*
X143244858Y-93673826D01*
X143221197Y-93670316D01*
X143197993Y-93664504D01*
X143175471Y-93656446D01*
X143153847Y-93646218D01*
X143133330Y-93633921D01*
X143114117Y-93619671D01*
X143096393Y-93603607D01*
X143080329Y-93585883D01*
X143066079Y-93566670D01*
X143053782Y-93546153D01*
X143043554Y-93524529D01*
X143035496Y-93502007D01*
X143029684Y-93478803D01*
X143026174Y-93455142D01*
X143025000Y-93431250D01*
X143025000Y-92518750D01*
X143026174Y-92494858D01*
X143029684Y-92471197D01*
X143035496Y-92447993D01*
X143043554Y-92425471D01*
X143053782Y-92403847D01*
X143066079Y-92383330D01*
X143080329Y-92364117D01*
X143096393Y-92346393D01*
X143114117Y-92330329D01*
X143133330Y-92316079D01*
X143153847Y-92303782D01*
X143175471Y-92293554D01*
X143197993Y-92285496D01*
X143221197Y-92279684D01*
X143244858Y-92276174D01*
X143268750Y-92275000D01*
X143756250Y-92275000D01*
X143780142Y-92276174D01*
X143780142Y-92276174D01*
G37*
D11*
G04 #@! TD*
G04 #@! TO.P,R1,2*
G04 #@! TO.N,Net-(C2-Pad1)*
X143512500Y-92975000D03*
D10*
G04 #@! TO.N,Net-(C2-Pad1)*
G04 #@! TO.C,R2*
G36*
X145630142Y-89826174D02*
X145653803Y-89829684D01*
X145677007Y-89835496D01*
X145699529Y-89843554D01*
X145721153Y-89853782D01*
X145741670Y-89866079D01*
X145760883Y-89880329D01*
X145778607Y-89896393D01*
X145794671Y-89914117D01*
X145808921Y-89933330D01*
X145821218Y-89953847D01*
X145831446Y-89975471D01*
X145839504Y-89997993D01*
X145845316Y-90021197D01*
X145848826Y-90044858D01*
X145850000Y-90068750D01*
X145850000Y-90981250D01*
X145848826Y-91005142D01*
X145845316Y-91028803D01*
X145839504Y-91052007D01*
X145831446Y-91074529D01*
X145821218Y-91096153D01*
X145808921Y-91116670D01*
X145794671Y-91135883D01*
X145778607Y-91153607D01*
X145760883Y-91169671D01*
X145741670Y-91183921D01*
X145721153Y-91196218D01*
X145699529Y-91206446D01*
X145677007Y-91214504D01*
X145653803Y-91220316D01*
X145630142Y-91223826D01*
X145606250Y-91225000D01*
X145118750Y-91225000D01*
X145094858Y-91223826D01*
X145071197Y-91220316D01*
X145047993Y-91214504D01*
X145025471Y-91206446D01*
X145003847Y-91196218D01*
X144983330Y-91183921D01*
X144964117Y-91169671D01*
X144946393Y-91153607D01*
X144930329Y-91135883D01*
X144916079Y-91116670D01*
X144903782Y-91096153D01*
X144893554Y-91074529D01*
X144885496Y-91052007D01*
X144879684Y-91028803D01*
X144876174Y-91005142D01*
X144875000Y-90981250D01*
X144875000Y-90068750D01*
X144876174Y-90044858D01*
X144879684Y-90021197D01*
X144885496Y-89997993D01*
X144893554Y-89975471D01*
X144903782Y-89953847D01*
X144916079Y-89933330D01*
X144930329Y-89914117D01*
X144946393Y-89896393D01*
X144964117Y-89880329D01*
X144983330Y-89866079D01*
X145003847Y-89853782D01*
X145025471Y-89843554D01*
X145047993Y-89835496D01*
X145071197Y-89829684D01*
X145094858Y-89826174D01*
X145118750Y-89825000D01*
X145606250Y-89825000D01*
X145630142Y-89826174D01*
X145630142Y-89826174D01*
G37*
D11*
G04 #@! TD*
G04 #@! TO.P,R2,1*
G04 #@! TO.N,Net-(C2-Pad1)*
X145362500Y-90525000D03*
D10*
G04 #@! TO.N,Net-(C4-Pad1)*
G04 #@! TO.C,R2*
G36*
X143755142Y-89826174D02*
X143778803Y-89829684D01*
X143802007Y-89835496D01*
X143824529Y-89843554D01*
X143846153Y-89853782D01*
X143866670Y-89866079D01*
X143885883Y-89880329D01*
X143903607Y-89896393D01*
X143919671Y-89914117D01*
X143933921Y-89933330D01*
X143946218Y-89953847D01*
X143956446Y-89975471D01*
X143964504Y-89997993D01*
X143970316Y-90021197D01*
X143973826Y-90044858D01*
X143975000Y-90068750D01*
X143975000Y-90981250D01*
X143973826Y-91005142D01*
X143970316Y-91028803D01*
X143964504Y-91052007D01*
X143956446Y-91074529D01*
X143946218Y-91096153D01*
X143933921Y-91116670D01*
X143919671Y-91135883D01*
X143903607Y-91153607D01*
X143885883Y-91169671D01*
X143866670Y-91183921D01*
X143846153Y-91196218D01*
X143824529Y-91206446D01*
X143802007Y-91214504D01*
X143778803Y-91220316D01*
X143755142Y-91223826D01*
X143731250Y-91225000D01*
X143243750Y-91225000D01*
X143219858Y-91223826D01*
X143196197Y-91220316D01*
X143172993Y-91214504D01*
X143150471Y-91206446D01*
X143128847Y-91196218D01*
X143108330Y-91183921D01*
X143089117Y-91169671D01*
X143071393Y-91153607D01*
X143055329Y-91135883D01*
X143041079Y-91116670D01*
X143028782Y-91096153D01*
X143018554Y-91074529D01*
X143010496Y-91052007D01*
X143004684Y-91028803D01*
X143001174Y-91005142D01*
X143000000Y-90981250D01*
X143000000Y-90068750D01*
X143001174Y-90044858D01*
X143004684Y-90021197D01*
X143010496Y-89997993D01*
X143018554Y-89975471D01*
X143028782Y-89953847D01*
X143041079Y-89933330D01*
X143055329Y-89914117D01*
X143071393Y-89896393D01*
X143089117Y-89880329D01*
X143108330Y-89866079D01*
X143128847Y-89853782D01*
X143150471Y-89843554D01*
X143172993Y-89835496D01*
X143196197Y-89829684D01*
X143219858Y-89826174D01*
X143243750Y-89825000D01*
X143731250Y-89825000D01*
X143755142Y-89826174D01*
X143755142Y-89826174D01*
G37*
D11*
G04 #@! TD*
G04 #@! TO.P,R2,2*
G04 #@! TO.N,Net-(C4-Pad1)*
X143487500Y-90525000D03*
D13*
G04 #@! TO.P,C1,2*
G04 #@! TO.N,GND*
X155225000Y-96400000D03*
G04 #@! TO.P,C1,1*
G04 #@! TO.N,Net-(C1-Pad1)*
X155225000Y-94400000D03*
G04 #@! TD*
D14*
G04 #@! TO.P,D1,1*
G04 #@! TO.N,Net-(C2-Pad2)*
X147460000Y-95000000D03*
D15*
G04 #@! TO.P,D1,2*
G04 #@! TO.N,GND*
X152540000Y-95000000D03*
G04 #@! TD*
D16*
G04 #@! TO.P,J1,1*
G04 #@! TO.N,GND*
X159300000Y-96000000D03*
G04 #@! TO.P,J1,2*
G04 #@! TO.N,+5V*
X159300000Y-95000000D03*
G04 #@! TO.P,J1,3*
G04 #@! TO.N,/A*
X159300000Y-94000000D03*
D17*
G04 #@! TO.P,J1,MP*
G04 #@! TO.N,N/C*
X161825000Y-97300000D03*
X161825000Y-92700000D03*
G04 #@! TD*
D12*
G04 #@! TO.P,C3,2*
G04 #@! TO.N,+5V*
X155300000Y-100150000D03*
G04 #@! TO.P,C3,1*
G04 #@! TO.N,GND*
X153300000Y-100150000D03*
G04 #@! TD*
G04 #@! TO.P,C4,1*
G04 #@! TO.N,Net-(C4-Pad1)*
X143425000Y-88625000D03*
G04 #@! TO.P,C4,2*
G04 #@! TO.N,GND*
X145425000Y-88625000D03*
G04 #@! TD*
D10*
G04 #@! TO.N,+5V*
G04 #@! TO.C,L1*
G36*
X155605142Y-97526174D02*
X155628803Y-97529684D01*
X155652007Y-97535496D01*
X155674529Y-97543554D01*
X155696153Y-97553782D01*
X155716670Y-97566079D01*
X155735883Y-97580329D01*
X155753607Y-97596393D01*
X155769671Y-97614117D01*
X155783921Y-97633330D01*
X155796218Y-97653847D01*
X155806446Y-97675471D01*
X155814504Y-97697993D01*
X155820316Y-97721197D01*
X155823826Y-97744858D01*
X155825000Y-97768750D01*
X155825000Y-98681250D01*
X155823826Y-98705142D01*
X155820316Y-98728803D01*
X155814504Y-98752007D01*
X155806446Y-98774529D01*
X155796218Y-98796153D01*
X155783921Y-98816670D01*
X155769671Y-98835883D01*
X155753607Y-98853607D01*
X155735883Y-98869671D01*
X155716670Y-98883921D01*
X155696153Y-98896218D01*
X155674529Y-98906446D01*
X155652007Y-98914504D01*
X155628803Y-98920316D01*
X155605142Y-98923826D01*
X155581250Y-98925000D01*
X155093750Y-98925000D01*
X155069858Y-98923826D01*
X155046197Y-98920316D01*
X155022993Y-98914504D01*
X155000471Y-98906446D01*
X154978847Y-98896218D01*
X154958330Y-98883921D01*
X154939117Y-98869671D01*
X154921393Y-98853607D01*
X154905329Y-98835883D01*
X154891079Y-98816670D01*
X154878782Y-98796153D01*
X154868554Y-98774529D01*
X154860496Y-98752007D01*
X154854684Y-98728803D01*
X154851174Y-98705142D01*
X154850000Y-98681250D01*
X154850000Y-97768750D01*
X154851174Y-97744858D01*
X154854684Y-97721197D01*
X154860496Y-97697993D01*
X154868554Y-97675471D01*
X154878782Y-97653847D01*
X154891079Y-97633330D01*
X154905329Y-97614117D01*
X154921393Y-97596393D01*
X154939117Y-97580329D01*
X154958330Y-97566079D01*
X154978847Y-97553782D01*
X155000471Y-97543554D01*
X155022993Y-97535496D01*
X155046197Y-97529684D01*
X155069858Y-97526174D01*
X155093750Y-97525000D01*
X155581250Y-97525000D01*
X155605142Y-97526174D01*
X155605142Y-97526174D01*
G37*
D11*
G04 #@! TD*
G04 #@! TO.P,L1,1*
G04 #@! TO.N,+5V*
X155337500Y-98225000D03*
D10*
G04 #@! TO.N,Net-(C1-Pad1)*
G04 #@! TO.C,L1*
G36*
X153730142Y-97526174D02*
X153753803Y-97529684D01*
X153777007Y-97535496D01*
X153799529Y-97543554D01*
X153821153Y-97553782D01*
X153841670Y-97566079D01*
X153860883Y-97580329D01*
X153878607Y-97596393D01*
X153894671Y-97614117D01*
X153908921Y-97633330D01*
X153921218Y-97653847D01*
X153931446Y-97675471D01*
X153939504Y-97697993D01*
X153945316Y-97721197D01*
X153948826Y-97744858D01*
X153950000Y-97768750D01*
X153950000Y-98681250D01*
X153948826Y-98705142D01*
X153945316Y-98728803D01*
X153939504Y-98752007D01*
X153931446Y-98774529D01*
X153921218Y-98796153D01*
X153908921Y-98816670D01*
X153894671Y-98835883D01*
X153878607Y-98853607D01*
X153860883Y-98869671D01*
X153841670Y-98883921D01*
X153821153Y-98896218D01*
X153799529Y-98906446D01*
X153777007Y-98914504D01*
X153753803Y-98920316D01*
X153730142Y-98923826D01*
X153706250Y-98925000D01*
X153218750Y-98925000D01*
X153194858Y-98923826D01*
X153171197Y-98920316D01*
X153147993Y-98914504D01*
X153125471Y-98906446D01*
X153103847Y-98896218D01*
X153083330Y-98883921D01*
X153064117Y-98869671D01*
X153046393Y-98853607D01*
X153030329Y-98835883D01*
X153016079Y-98816670D01*
X153003782Y-98796153D01*
X152993554Y-98774529D01*
X152985496Y-98752007D01*
X152979684Y-98728803D01*
X152976174Y-98705142D01*
X152975000Y-98681250D01*
X152975000Y-97768750D01*
X152976174Y-97744858D01*
X152979684Y-97721197D01*
X152985496Y-97697993D01*
X152993554Y-97675471D01*
X153003782Y-97653847D01*
X153016079Y-97633330D01*
X153030329Y-97614117D01*
X153046393Y-97596393D01*
X153064117Y-97580329D01*
X153083330Y-97566079D01*
X153103847Y-97553782D01*
X153125471Y-97543554D01*
X153147993Y-97535496D01*
X153171197Y-97529684D01*
X153194858Y-97526174D01*
X153218750Y-97525000D01*
X153706250Y-97525000D01*
X153730142Y-97526174D01*
X153730142Y-97526174D01*
G37*
D11*
G04 #@! TD*
G04 #@! TO.P,L1,2*
G04 #@! TO.N,Net-(C1-Pad1)*
X153462500Y-98225000D03*
D16*
G04 #@! TO.P,U1,1*
G04 #@! TO.N,Net-(C2-Pad1)*
X149750000Y-92355000D03*
G04 #@! TO.P,U1,2*
G04 #@! TO.N,Net-(C2-Pad2)*
X149750000Y-91085000D03*
G04 #@! TO.P,U1,3*
G04 #@! TO.N,GND*
X149750000Y-89815000D03*
G04 #@! TO.P,U1,4*
X149750000Y-88545000D03*
G04 #@! TO.P,U1,5*
G04 #@! TO.N,Net-(C4-Pad1)*
X155150000Y-88545000D03*
G04 #@! TO.P,U1,6*
G04 #@! TO.N,Net-(R3-Pad1)*
X155150000Y-89815000D03*
G04 #@! TO.P,U1,7*
G04 #@! TO.N,/A*
X155150000Y-91085000D03*
G04 #@! TO.P,U1,8*
G04 #@! TO.N,Net-(C1-Pad1)*
X155150000Y-92355000D03*
G04 #@! TD*
D18*
G04 #@! TO.P,U2,1*
G04 #@! TO.N,GND*
X157150000Y-95000000D03*
X140850000Y-95000000D03*
D19*
X149000000Y-103150000D03*
X149000000Y-86850000D03*
D20*
X155375000Y-103150000D03*
D10*
G04 #@! TD*
G04 #@! TO.N,GND*
G04 #@! TO.C,U2*
G36*
X157650000Y-103650000D02*
X153100000Y-103650000D01*
X153100000Y-102650000D01*
X157650000Y-102650000D01*
X157650000Y-103650000D01*
X157650000Y-103650000D01*
G37*
D20*
G04 #@! TO.P,U2,1*
G04 #@! TO.N,GND*
X157150000Y-101375000D03*
D10*
G04 #@! TD*
G04 #@! TO.N,GND*
G04 #@! TO.C,U2*
G36*
X156650000Y-103650000D02*
X156650000Y-99100000D01*
X157650000Y-99100000D01*
X157650000Y-103650000D01*
X156650000Y-103650000D01*
X156650000Y-103650000D01*
G37*
D20*
G04 #@! TO.P,U2,1*
G04 #@! TO.N,GND*
X142625000Y-103150000D03*
D10*
G04 #@! TD*
G04 #@! TO.N,GND*
G04 #@! TO.C,U2*
G36*
X144900000Y-103650000D02*
X140350000Y-103650000D01*
X140350000Y-102650000D01*
X144900000Y-102650000D01*
X144900000Y-103650000D01*
X144900000Y-103650000D01*
G37*
D20*
G04 #@! TO.P,U2,1*
G04 #@! TO.N,GND*
X140850000Y-101375000D03*
D10*
G04 #@! TD*
G04 #@! TO.N,GND*
G04 #@! TO.C,U2*
G36*
X140350000Y-103650000D02*
X140350000Y-99100000D01*
X141350000Y-99100000D01*
X141350000Y-103650000D01*
X140350000Y-103650000D01*
X140350000Y-103650000D01*
G37*
D20*
G04 #@! TO.P,U2,1*
G04 #@! TO.N,GND*
X140850000Y-88625000D03*
D10*
G04 #@! TD*
G04 #@! TO.N,GND*
G04 #@! TO.C,U2*
G36*
X140350000Y-90900000D02*
X140350000Y-86350000D01*
X141350000Y-86350000D01*
X141350000Y-90900000D01*
X140350000Y-90900000D01*
X140350000Y-90900000D01*
G37*
D20*
G04 #@! TO.P,U2,1*
G04 #@! TO.N,GND*
X142625000Y-86850000D03*
D10*
G04 #@! TD*
G04 #@! TO.N,GND*
G04 #@! TO.C,U2*
G36*
X144900000Y-87350000D02*
X140350000Y-87350000D01*
X140350000Y-86350000D01*
X144900000Y-86350000D01*
X144900000Y-87350000D01*
X144900000Y-87350000D01*
G37*
D20*
G04 #@! TO.P,U2,1*
G04 #@! TO.N,GND*
X155375000Y-86850000D03*
D10*
G04 #@! TD*
G04 #@! TO.N,GND*
G04 #@! TO.C,U2*
G36*
X157650000Y-87350000D02*
X153100000Y-87350000D01*
X153100000Y-86350000D01*
X157650000Y-86350000D01*
X157650000Y-87350000D01*
X157650000Y-87350000D01*
G37*
D20*
G04 #@! TO.P,U2,1*
G04 #@! TO.N,GND*
X157150000Y-88625000D03*
D10*
G04 #@! TD*
G04 #@! TO.N,GND*
G04 #@! TO.C,U2*
G36*
X156650000Y-90900000D02*
X156650000Y-86350000D01*
X157650000Y-86350000D01*
X157650000Y-90900000D01*
X156650000Y-90900000D01*
X156650000Y-90900000D01*
G37*
D21*
G04 #@! TO.N,+5V*
X161375000Y-94925000D03*
X156650000Y-98150000D03*
G04 #@! TO.N,GND*
X138600000Y-89525000D03*
X138500000Y-97225000D03*
X145825000Y-105475000D03*
X153100000Y-105425000D03*
X159225000Y-100375000D03*
X160700000Y-89700000D03*
X158800000Y-89225000D03*
X155275000Y-84900000D03*
X145100000Y-84975000D03*
X153425000Y-82750000D03*
X142450000Y-97525000D03*
X143575000Y-99875000D03*
X146175000Y-101200000D03*
X150750000Y-101400000D03*
X161625000Y-100000000D03*
X159150000Y-97500000D03*
X138525000Y-93150000D03*
X138525000Y-100325000D03*
X145525000Y-82700000D03*
X156050000Y-105625000D03*
X159450000Y-102550000D03*
X137725000Y-95150000D03*
X143600000Y-105300000D03*
X150400000Y-95650000D03*
X149075000Y-93775000D03*
X153525000Y-93625000D03*
G04 #@! TO.N,Net-(C2-Pad1)*
X146625000Y-90525000D03*
X147875000Y-92350000D03*
G04 #@! TO.N,Net-(C4-Pad1)*
X142225000Y-88625000D03*
X153025000Y-88625000D03*
G04 #@! TD*
D22*
G04 #@! TO.N,+5V*
X155337500Y-100112500D02*
X155300000Y-100150000D01*
X155337500Y-98225000D02*
X155337500Y-100112500D01*
X161300000Y-95000000D02*
X161375000Y-94925000D01*
X159300000Y-95000000D02*
X161300000Y-95000000D01*
X156575000Y-98225000D02*
X156650000Y-98150000D01*
X155337500Y-98225000D02*
X156575000Y-98225000D01*
G04 #@! TO.N,/A*
X156175000Y-91085000D02*
X155150000Y-91085000D01*
X159090000Y-94000000D02*
X156175000Y-91085000D01*
X159300000Y-94000000D02*
X159090000Y-94000000D01*
X154675000Y-91085000D02*
X155150000Y-91085000D01*
X151400000Y-94360000D02*
X154675000Y-91085000D01*
X151400000Y-98586377D02*
X151400000Y-94360000D01*
X149908654Y-99490223D02*
X150496154Y-99490223D01*
X150496154Y-99490223D02*
X151400000Y-98586377D01*
G04 #@! TO.N,Net-(C2-Pad2)*
X145625000Y-95000000D02*
X145425000Y-94800000D01*
X147460000Y-95000000D02*
X145625000Y-95000000D01*
X145425000Y-93012500D02*
X145387500Y-92975000D01*
X145425000Y-94800000D02*
X145425000Y-93012500D01*
X148725000Y-91085000D02*
X149750000Y-91085000D01*
X147865000Y-91085000D02*
X148725000Y-91085000D01*
X145975000Y-92975000D02*
X147865000Y-91085000D01*
X145387500Y-92975000D02*
X145975000Y-92975000D01*
G04 #@! TO.N,Net-(C1-Pad1)*
X155150000Y-94325000D02*
X155225000Y-94400000D01*
X155150000Y-92355000D02*
X155150000Y-94325000D01*
X153462500Y-97425000D02*
X153462500Y-98225000D01*
X153462500Y-96037500D02*
X153462500Y-97425000D01*
X155100000Y-94400000D02*
X153462500Y-96037500D01*
X155225000Y-94400000D02*
X155100000Y-94400000D01*
G04 #@! TO.N,Net-(C2-Pad1)*
X143512500Y-92375000D02*
X143512500Y-92975000D01*
X145362500Y-90525000D02*
X143512500Y-92375000D01*
X145362500Y-90525000D02*
X146625000Y-90525000D01*
X149745000Y-92350000D02*
X149750000Y-92355000D01*
X147875000Y-92350000D02*
X149745000Y-92350000D01*
X143512500Y-94712500D02*
X143425000Y-94800000D01*
X143512500Y-92975000D02*
X143512500Y-94712500D01*
G04 #@! TO.N,Net-(C4-Pad1)*
X143425000Y-90462500D02*
X143487500Y-90525000D01*
X143425000Y-88625000D02*
X143425000Y-90462500D01*
X143425000Y-88625000D02*
X142675000Y-88625000D01*
X142675000Y-88625000D02*
X142225000Y-88625000D01*
X155070000Y-88625000D02*
X155150000Y-88545000D01*
X153025000Y-88625000D02*
X155070000Y-88625000D01*
G04 #@! TO.N,Net-(R3-Pad1)*
X148033654Y-97540223D02*
X148058654Y-97515223D01*
X148033654Y-99490223D02*
X148033654Y-97540223D01*
X148058654Y-96715223D02*
X148058654Y-97515223D01*
X148058654Y-96431346D02*
X148058654Y-96715223D01*
X154675000Y-89815000D02*
X148058654Y-96431346D01*
X155150000Y-89815000D02*
X154675000Y-89815000D01*
G04 #@! TD*
D23*
G04 #@! TO.N,GND*
G36*
X162969254Y-89627960D02*
X162969254Y-91876967D01*
X162960754Y-91864246D01*
X162852589Y-91791973D01*
X162725000Y-91766594D01*
X160925000Y-91766594D01*
X160797411Y-91791973D01*
X160689246Y-91864246D01*
X160616973Y-91972411D01*
X160591594Y-92100000D01*
X160591594Y-93300000D01*
X160616973Y-93427589D01*
X160689246Y-93535754D01*
X160797411Y-93608027D01*
X160925000Y-93633406D01*
X162725000Y-93633406D01*
X162852589Y-93608027D01*
X162960754Y-93535754D01*
X162969254Y-93523033D01*
X162969253Y-96476966D01*
X162960754Y-96464246D01*
X162852589Y-96391973D01*
X162725000Y-96366594D01*
X160925000Y-96366594D01*
X160797411Y-96391973D01*
X160696215Y-96459590D01*
X160710000Y-96426309D01*
X160710000Y-96285750D01*
X160551250Y-96127000D01*
X159427000Y-96127000D01*
X159427000Y-96776250D01*
X159585750Y-96935000D01*
X160201310Y-96935000D01*
X160434699Y-96838327D01*
X160596205Y-96676820D01*
X160591594Y-96700000D01*
X160591594Y-97900000D01*
X160616973Y-98027589D01*
X160689246Y-98135754D01*
X160797411Y-98208027D01*
X160925000Y-98233406D01*
X162725000Y-98233406D01*
X162852589Y-98208027D01*
X162960754Y-98135754D01*
X162969253Y-98123034D01*
X162969253Y-100372041D01*
X155372042Y-107969253D01*
X144627959Y-107969253D01*
X142374858Y-105716152D01*
X148573000Y-105716152D01*
X148573000Y-106283848D01*
X148790247Y-106808331D01*
X149191669Y-107209753D01*
X149716152Y-107427000D01*
X150283848Y-107427000D01*
X150808331Y-107209753D01*
X151209753Y-106808331D01*
X151427000Y-106283848D01*
X151427000Y-105716152D01*
X151209753Y-105191669D01*
X150808331Y-104790247D01*
X150283848Y-104573000D01*
X149716152Y-104573000D01*
X149191669Y-104790247D01*
X148790247Y-105191669D01*
X148573000Y-105716152D01*
X142374858Y-105716152D01*
X137030747Y-100372042D01*
X137030747Y-89627958D01*
X138178314Y-88480391D01*
X141498000Y-88480391D01*
X141498000Y-88769609D01*
X141608679Y-89036813D01*
X141813187Y-89241321D01*
X142080391Y-89352000D01*
X142369609Y-89352000D01*
X142593441Y-89259286D01*
X142616973Y-89377589D01*
X142689246Y-89485754D01*
X142797411Y-89558027D01*
X142925000Y-89583406D01*
X142951226Y-89583406D01*
X142835639Y-89660639D01*
X142710527Y-89847882D01*
X142666594Y-90068750D01*
X142666594Y-90981250D01*
X142710527Y-91202118D01*
X142835639Y-91389361D01*
X143022882Y-91514473D01*
X143243750Y-91558406D01*
X143689870Y-91558406D01*
X143306682Y-91941594D01*
X143268750Y-91941594D01*
X143047882Y-91985527D01*
X142860639Y-92110639D01*
X142735527Y-92297882D01*
X142691594Y-92518750D01*
X142691594Y-93431250D01*
X142735527Y-93652118D01*
X142860639Y-93839361D01*
X142877979Y-93850947D01*
X142797411Y-93866973D01*
X142689246Y-93939246D01*
X142616973Y-94047411D01*
X142591594Y-94175000D01*
X142591594Y-95425000D01*
X142616973Y-95552589D01*
X142689246Y-95660754D01*
X142797411Y-95733027D01*
X142925000Y-95758406D01*
X143925000Y-95758406D01*
X144052589Y-95733027D01*
X144160754Y-95660754D01*
X144233027Y-95552589D01*
X144258406Y-95425000D01*
X144258406Y-94175000D01*
X144233027Y-94047411D01*
X144160754Y-93939246D01*
X144087813Y-93890509D01*
X144164361Y-93839361D01*
X144289473Y-93652118D01*
X144333406Y-93431250D01*
X144333406Y-92518750D01*
X144566594Y-92518750D01*
X144566594Y-93431250D01*
X144610527Y-93652118D01*
X144735639Y-93839361D01*
X144787187Y-93873804D01*
X144689246Y-93939246D01*
X144616973Y-94047411D01*
X144591594Y-94175000D01*
X144591594Y-95425000D01*
X144616973Y-95552589D01*
X144689246Y-95660754D01*
X144797411Y-95733027D01*
X144925000Y-95758406D01*
X145925000Y-95758406D01*
X146052589Y-95733027D01*
X146160754Y-95660754D01*
X146233027Y-95552589D01*
X146253035Y-95452000D01*
X146447123Y-95452000D01*
X146591670Y-95668330D01*
X146898303Y-95873215D01*
X147168698Y-95927000D01*
X147751302Y-95927000D01*
X147966602Y-95884174D01*
X147770523Y-96080253D01*
X147732780Y-96105472D01*
X147673981Y-96193472D01*
X147632879Y-96254985D01*
X147597799Y-96431346D01*
X147606654Y-96475864D01*
X147606654Y-96523240D01*
X147594036Y-96525750D01*
X147406793Y-96650862D01*
X147281681Y-96838105D01*
X147237748Y-97058973D01*
X147237748Y-97971473D01*
X147281681Y-98192341D01*
X147406793Y-98379584D01*
X147581655Y-98496423D01*
X147581655Y-98498240D01*
X147569036Y-98500750D01*
X147381793Y-98625862D01*
X147256681Y-98813105D01*
X147212748Y-99033973D01*
X147212748Y-99946473D01*
X147256681Y-100167341D01*
X147381793Y-100354584D01*
X147569036Y-100479696D01*
X147789904Y-100523629D01*
X148277404Y-100523629D01*
X148498272Y-100479696D01*
X148685515Y-100354584D01*
X148810627Y-100167341D01*
X148854560Y-99946473D01*
X148854560Y-99033973D01*
X148810627Y-98813105D01*
X148685515Y-98625862D01*
X148508558Y-98507623D01*
X148523272Y-98504696D01*
X148710515Y-98379584D01*
X148811154Y-98228967D01*
X148811154Y-98341533D01*
X148907827Y-98574922D01*
X149086456Y-98753550D01*
X149153045Y-98781132D01*
X149131681Y-98813105D01*
X149087748Y-99033973D01*
X149087748Y-99946473D01*
X149131681Y-100167341D01*
X149256793Y-100354584D01*
X149444036Y-100479696D01*
X149664904Y-100523629D01*
X150152404Y-100523629D01*
X150373272Y-100479696D01*
X150439041Y-100435750D01*
X152165000Y-100435750D01*
X152165000Y-100901310D01*
X152261673Y-101134699D01*
X152440302Y-101313327D01*
X152673691Y-101410000D01*
X153014250Y-101410000D01*
X153173000Y-101251250D01*
X153173000Y-100277000D01*
X153427000Y-100277000D01*
X153427000Y-101251250D01*
X153585750Y-101410000D01*
X153926309Y-101410000D01*
X154159698Y-101313327D01*
X154338327Y-101134699D01*
X154435000Y-100901310D01*
X154435000Y-100435750D01*
X154276250Y-100277000D01*
X153427000Y-100277000D01*
X153173000Y-100277000D01*
X152323750Y-100277000D01*
X152165000Y-100435750D01*
X150439041Y-100435750D01*
X150560515Y-100354584D01*
X150685627Y-100167341D01*
X150729560Y-99946473D01*
X150729560Y-99877882D01*
X150822028Y-99816097D01*
X150847247Y-99778354D01*
X151688134Y-98937468D01*
X151725874Y-98912251D01*
X151825775Y-98762739D01*
X151852000Y-98630895D01*
X151852000Y-98630894D01*
X151860855Y-98586378D01*
X151852000Y-98541861D01*
X151852000Y-96011600D01*
X152222389Y-96193472D01*
X152413000Y-96069714D01*
X152413000Y-95127000D01*
X152393000Y-95127000D01*
X152393000Y-94873000D01*
X152413000Y-94873000D01*
X152413000Y-94853000D01*
X152667000Y-94853000D01*
X152667000Y-94873000D01*
X153608731Y-94873000D01*
X153733462Y-94682391D01*
X153608497Y-94380673D01*
X153290156Y-94018920D01*
X152857611Y-93806528D01*
X152667002Y-93930285D01*
X152667002Y-93765000D01*
X152634224Y-93765000D01*
X154041594Y-92357630D01*
X154041594Y-92655000D01*
X154066973Y-92782589D01*
X154139246Y-92890754D01*
X154247411Y-92963027D01*
X154375000Y-92988406D01*
X154698000Y-92988406D01*
X154698001Y-93566594D01*
X154600000Y-93566594D01*
X154472411Y-93591973D01*
X154364246Y-93664246D01*
X154291973Y-93772411D01*
X154266594Y-93900000D01*
X154266594Y-94594181D01*
X153658192Y-95202584D01*
X153608731Y-95127000D01*
X152667000Y-95127000D01*
X152667000Y-96069714D01*
X152857611Y-96193472D01*
X153010500Y-96118399D01*
X153010501Y-97233017D01*
X152997882Y-97235527D01*
X152810639Y-97360639D01*
X152685527Y-97547882D01*
X152641594Y-97768750D01*
X152641594Y-98681250D01*
X152683117Y-98890000D01*
X152673691Y-98890000D01*
X152440302Y-98986673D01*
X152261673Y-99165301D01*
X152165000Y-99398690D01*
X152165000Y-99864250D01*
X152323750Y-100023000D01*
X153173000Y-100023000D01*
X153173000Y-100003000D01*
X153427000Y-100003000D01*
X153427000Y-100023000D01*
X154276250Y-100023000D01*
X154435000Y-99864250D01*
X154435000Y-99398690D01*
X154338327Y-99165301D01*
X154173652Y-99000627D01*
X154239473Y-98902118D01*
X154283406Y-98681250D01*
X154283406Y-97768750D01*
X154239473Y-97547882D01*
X154114361Y-97360639D01*
X153927118Y-97235527D01*
X153914500Y-97233017D01*
X153914500Y-96685750D01*
X153965000Y-96685750D01*
X153965000Y-97026309D01*
X154061673Y-97259698D01*
X154240301Y-97438327D01*
X154473690Y-97535000D01*
X154569134Y-97535000D01*
X154560527Y-97547882D01*
X154516594Y-97768750D01*
X154516594Y-98681250D01*
X154560527Y-98902118D01*
X154685639Y-99089361D01*
X154838641Y-99191594D01*
X154800000Y-99191594D01*
X154672411Y-99216973D01*
X154564246Y-99289246D01*
X154491973Y-99397411D01*
X154466594Y-99525000D01*
X154466594Y-100775000D01*
X154491973Y-100902589D01*
X154564246Y-101010754D01*
X154672411Y-101083027D01*
X154800000Y-101108406D01*
X155800000Y-101108406D01*
X155927589Y-101083027D01*
X156035754Y-101010754D01*
X156108027Y-100902589D01*
X156133406Y-100775000D01*
X156133406Y-99525000D01*
X156108027Y-99397411D01*
X156035754Y-99289246D01*
X155927589Y-99216973D01*
X155828018Y-99197167D01*
X155989361Y-99089361D01*
X156114473Y-98902118D01*
X156157528Y-98685662D01*
X156238187Y-98766321D01*
X156505391Y-98877000D01*
X156794609Y-98877000D01*
X157061813Y-98766321D01*
X157266321Y-98561813D01*
X157377000Y-98294609D01*
X157377000Y-98005391D01*
X157266321Y-97738187D01*
X157061813Y-97533679D01*
X156794609Y-97423000D01*
X156505391Y-97423000D01*
X156238187Y-97533679D01*
X156132642Y-97639224D01*
X156114473Y-97547882D01*
X156077781Y-97492969D01*
X156209699Y-97438327D01*
X156388327Y-97259698D01*
X156485000Y-97026309D01*
X156485000Y-96685750D01*
X156326250Y-96527000D01*
X155352000Y-96527000D01*
X155352000Y-96547000D01*
X155098000Y-96547000D01*
X155098000Y-96527000D01*
X154123750Y-96527000D01*
X153965000Y-96685750D01*
X153914500Y-96685750D01*
X153914500Y-96285750D01*
X157890000Y-96285750D01*
X157890000Y-96426309D01*
X157986673Y-96659698D01*
X158165301Y-96838327D01*
X158398690Y-96935000D01*
X159014250Y-96935000D01*
X159173000Y-96776250D01*
X159173000Y-96127000D01*
X158048750Y-96127000D01*
X157890000Y-96285750D01*
X153914500Y-96285750D01*
X153914500Y-96224724D01*
X153994987Y-96144237D01*
X154123750Y-96273000D01*
X155098000Y-96273000D01*
X155098000Y-95423750D01*
X155352000Y-95423750D01*
X155352000Y-96273000D01*
X156326250Y-96273000D01*
X156485000Y-96114250D01*
X156485000Y-95773691D01*
X156388327Y-95540302D01*
X156209699Y-95361673D01*
X155976310Y-95265000D01*
X155510750Y-95265000D01*
X155352000Y-95423750D01*
X155098000Y-95423750D01*
X154939250Y-95265000D01*
X154874225Y-95265000D01*
X154905819Y-95233406D01*
X155850000Y-95233406D01*
X155977589Y-95208027D01*
X156085754Y-95135754D01*
X156158027Y-95027589D01*
X156183406Y-94900000D01*
X156183406Y-93900000D01*
X156158027Y-93772411D01*
X156085754Y-93664246D01*
X155977589Y-93591973D01*
X155850000Y-93566594D01*
X155602000Y-93566594D01*
X155602000Y-92988406D01*
X155925000Y-92988406D01*
X156052589Y-92963027D01*
X156160754Y-92890754D01*
X156233027Y-92782589D01*
X156258406Y-92655000D01*
X156258406Y-92055000D01*
X156233027Y-91927411D01*
X156160754Y-91819246D01*
X156052589Y-91746973D01*
X155925000Y-91721594D01*
X154677630Y-91721594D01*
X154680818Y-91718406D01*
X155925000Y-91718406D01*
X156052589Y-91693027D01*
X156107268Y-91656492D01*
X158191594Y-93740818D01*
X158191594Y-94300000D01*
X158216973Y-94427589D01*
X158265356Y-94500000D01*
X158216973Y-94572411D01*
X158191594Y-94700000D01*
X158191594Y-95150782D01*
X158165301Y-95161673D01*
X157986673Y-95340302D01*
X157890000Y-95573691D01*
X157890000Y-95714250D01*
X158048750Y-95873000D01*
X159173000Y-95873000D01*
X159173000Y-95853000D01*
X159427000Y-95853000D01*
X159427000Y-95873000D01*
X160551250Y-95873000D01*
X160710000Y-95714250D01*
X160710000Y-95573691D01*
X160659594Y-95452000D01*
X160873866Y-95452000D01*
X160963187Y-95541321D01*
X161230391Y-95652000D01*
X161519609Y-95652000D01*
X161786813Y-95541321D01*
X161991321Y-95336813D01*
X162102000Y-95069609D01*
X162102000Y-94780391D01*
X161991321Y-94513187D01*
X161786813Y-94308679D01*
X161519609Y-94198000D01*
X161230391Y-94198000D01*
X160963187Y-94308679D01*
X160758679Y-94513187D01*
X160744259Y-94548000D01*
X160366716Y-94548000D01*
X160334644Y-94500000D01*
X160383027Y-94427589D01*
X160408406Y-94300000D01*
X160408406Y-93700000D01*
X160383027Y-93572411D01*
X160310754Y-93464246D01*
X160202589Y-93391973D01*
X160075000Y-93366594D01*
X159095818Y-93366594D01*
X156526093Y-90796869D01*
X156500874Y-90759126D01*
X156351362Y-90659225D01*
X156219518Y-90633000D01*
X156216287Y-90632357D01*
X156160754Y-90549246D01*
X156052589Y-90476973D01*
X155925000Y-90451594D01*
X154677631Y-90451594D01*
X154680819Y-90448406D01*
X155925000Y-90448406D01*
X156052589Y-90423027D01*
X156160754Y-90350754D01*
X156233027Y-90242589D01*
X156258406Y-90115000D01*
X156258406Y-89515000D01*
X156233027Y-89387411D01*
X156160754Y-89279246D01*
X156052589Y-89206973D01*
X155925000Y-89181594D01*
X154375000Y-89181594D01*
X154247411Y-89206973D01*
X154139246Y-89279246D01*
X154066973Y-89387411D01*
X154041594Y-89515000D01*
X154041594Y-89809181D01*
X148544174Y-95306602D01*
X148605161Y-95000000D01*
X148533215Y-94638303D01*
X148328330Y-94331670D01*
X148021697Y-94126785D01*
X147751302Y-94073000D01*
X147168698Y-94073000D01*
X146898303Y-94126785D01*
X146591670Y-94331670D01*
X146447123Y-94548000D01*
X146258406Y-94548000D01*
X146258406Y-94175000D01*
X146233027Y-94047411D01*
X146160754Y-93939246D01*
X146052589Y-93866973D01*
X146010551Y-93858611D01*
X146039361Y-93839361D01*
X146164473Y-93652118D01*
X146208406Y-93431250D01*
X146208406Y-93362659D01*
X146300874Y-93300874D01*
X146326093Y-93263131D01*
X147148000Y-92441224D01*
X147148000Y-92494609D01*
X147258679Y-92761813D01*
X147463187Y-92966321D01*
X147730391Y-93077000D01*
X148019609Y-93077000D01*
X148286813Y-92966321D01*
X148451134Y-92802000D01*
X148679943Y-92802000D01*
X148739246Y-92890754D01*
X148847411Y-92963027D01*
X148975000Y-92988406D01*
X150525000Y-92988406D01*
X150652589Y-92963027D01*
X150760754Y-92890754D01*
X150833027Y-92782589D01*
X150858406Y-92655000D01*
X150858406Y-92055000D01*
X150833027Y-91927411D01*
X150760754Y-91819246D01*
X150652589Y-91746973D01*
X150525000Y-91721594D01*
X148975000Y-91721594D01*
X148847411Y-91746973D01*
X148739246Y-91819246D01*
X148686625Y-91898000D01*
X148451134Y-91898000D01*
X148286813Y-91733679D01*
X148019609Y-91623000D01*
X147966225Y-91623000D01*
X148052225Y-91537000D01*
X148683284Y-91537000D01*
X148739246Y-91620754D01*
X148847411Y-91693027D01*
X148975000Y-91718406D01*
X150525000Y-91718406D01*
X150652589Y-91693027D01*
X150760754Y-91620754D01*
X150833027Y-91512589D01*
X150858406Y-91385000D01*
X150858406Y-90785000D01*
X150836210Y-90673412D01*
X150884698Y-90653327D01*
X151063327Y-90474699D01*
X151160000Y-90241310D01*
X151160000Y-90100750D01*
X151001250Y-89942000D01*
X149877000Y-89942000D01*
X149877000Y-89962000D01*
X149623000Y-89962000D01*
X149623000Y-89942000D01*
X148498750Y-89942000D01*
X148340000Y-90100750D01*
X148340000Y-90241310D01*
X148436673Y-90474699D01*
X148594975Y-90633000D01*
X147909518Y-90633000D01*
X147865000Y-90624145D01*
X147820482Y-90633000D01*
X147688638Y-90659225D01*
X147539126Y-90759126D01*
X147513909Y-90796866D01*
X146103759Y-92207017D01*
X146039361Y-92110639D01*
X145852118Y-91985527D01*
X145631250Y-91941594D01*
X145143750Y-91941594D01*
X144922882Y-91985527D01*
X144735639Y-92110639D01*
X144610527Y-92297882D01*
X144566594Y-92518750D01*
X144333406Y-92518750D01*
X144289473Y-92297882D01*
X144265188Y-92261537D01*
X144993277Y-91533448D01*
X145118750Y-91558406D01*
X145606250Y-91558406D01*
X145827118Y-91514473D01*
X146014361Y-91389361D01*
X146139473Y-91202118D01*
X146161790Y-91089924D01*
X146213187Y-91141321D01*
X146480391Y-91252000D01*
X146769609Y-91252000D01*
X147036813Y-91141321D01*
X147241321Y-90936813D01*
X147352000Y-90669609D01*
X147352000Y-90380391D01*
X147241321Y-90113187D01*
X147036813Y-89908679D01*
X146769609Y-89798000D01*
X146480391Y-89798000D01*
X146213187Y-89908679D01*
X146161790Y-89960076D01*
X146139583Y-89848436D01*
X146284698Y-89788327D01*
X146463327Y-89609699D01*
X146560000Y-89376310D01*
X146560000Y-88910750D01*
X146480000Y-88830750D01*
X148340000Y-88830750D01*
X148340000Y-88971310D01*
X148426442Y-89180000D01*
X148340000Y-89388690D01*
X148340000Y-89529250D01*
X148498750Y-89688000D01*
X149623000Y-89688000D01*
X149623000Y-88672000D01*
X149877000Y-88672000D01*
X149877000Y-89688000D01*
X151001250Y-89688000D01*
X151160000Y-89529250D01*
X151160000Y-89388690D01*
X151073558Y-89180000D01*
X151160000Y-88971310D01*
X151160000Y-88830750D01*
X151001250Y-88672000D01*
X149877000Y-88672000D01*
X149623000Y-88672000D01*
X148498750Y-88672000D01*
X148340000Y-88830750D01*
X146480000Y-88830750D01*
X146401250Y-88752000D01*
X145552000Y-88752000D01*
X145552000Y-88772000D01*
X145298000Y-88772000D01*
X145298000Y-88752000D01*
X144448750Y-88752000D01*
X144290000Y-88910750D01*
X144290000Y-89376310D01*
X144386673Y-89609699D01*
X144565302Y-89788327D01*
X144612310Y-89807798D01*
X144585527Y-89847882D01*
X144541594Y-90068750D01*
X144541594Y-90706681D01*
X144308406Y-90939869D01*
X144308406Y-90068750D01*
X144264473Y-89847882D01*
X144139361Y-89660639D01*
X144001115Y-89568266D01*
X144052589Y-89558027D01*
X144160754Y-89485754D01*
X144233027Y-89377589D01*
X144258406Y-89250000D01*
X144258406Y-88000000D01*
X144233282Y-87873690D01*
X144290000Y-87873690D01*
X144290000Y-88339250D01*
X144448750Y-88498000D01*
X145298000Y-88498000D01*
X145298000Y-87523750D01*
X145552000Y-87523750D01*
X145552000Y-88498000D01*
X146401250Y-88498000D01*
X146418859Y-88480391D01*
X152298000Y-88480391D01*
X152298000Y-88769609D01*
X152408679Y-89036813D01*
X152613187Y-89241321D01*
X152880391Y-89352000D01*
X153169609Y-89352000D01*
X153436813Y-89241321D01*
X153601134Y-89077000D01*
X154136738Y-89077000D01*
X154139246Y-89080754D01*
X154247411Y-89153027D01*
X154375000Y-89178406D01*
X155925000Y-89178406D01*
X156052589Y-89153027D01*
X156160754Y-89080754D01*
X156233027Y-88972589D01*
X156258406Y-88845000D01*
X156258406Y-88245000D01*
X156233027Y-88117411D01*
X156160754Y-88009246D01*
X156052589Y-87936973D01*
X155925000Y-87911594D01*
X154375000Y-87911594D01*
X154247411Y-87936973D01*
X154139246Y-88009246D01*
X154066973Y-88117411D01*
X154055916Y-88173000D01*
X153601134Y-88173000D01*
X153436813Y-88008679D01*
X153169609Y-87898000D01*
X152880391Y-87898000D01*
X152613187Y-88008679D01*
X152408679Y-88213187D01*
X152298000Y-88480391D01*
X146418859Y-88480391D01*
X146560000Y-88339250D01*
X146560000Y-88118690D01*
X148340000Y-88118690D01*
X148340000Y-88259250D01*
X148498750Y-88418000D01*
X149623000Y-88418000D01*
X149623000Y-87768750D01*
X149877000Y-87768750D01*
X149877000Y-88418000D01*
X151001250Y-88418000D01*
X151160000Y-88259250D01*
X151160000Y-88118690D01*
X151063327Y-87885301D01*
X150884698Y-87706673D01*
X150651309Y-87610000D01*
X150035750Y-87610000D01*
X149877000Y-87768750D01*
X149623000Y-87768750D01*
X149464250Y-87610000D01*
X148848691Y-87610000D01*
X148615302Y-87706673D01*
X148436673Y-87885301D01*
X148340000Y-88118690D01*
X146560000Y-88118690D01*
X146560000Y-87873690D01*
X146463327Y-87640301D01*
X146284698Y-87461673D01*
X146051309Y-87365000D01*
X145710750Y-87365000D01*
X145552000Y-87523750D01*
X145298000Y-87523750D01*
X145139250Y-87365000D01*
X144798691Y-87365000D01*
X144565302Y-87461673D01*
X144386673Y-87640301D01*
X144290000Y-87873690D01*
X144233282Y-87873690D01*
X144233027Y-87872411D01*
X144160754Y-87764246D01*
X144052589Y-87691973D01*
X143925000Y-87666594D01*
X142925000Y-87666594D01*
X142797411Y-87691973D01*
X142689246Y-87764246D01*
X142616973Y-87872411D01*
X142593441Y-87990714D01*
X142369609Y-87898000D01*
X142080391Y-87898000D01*
X141813187Y-88008679D01*
X141608679Y-88213187D01*
X141498000Y-88480391D01*
X138178314Y-88480391D01*
X142942553Y-83716152D01*
X148573000Y-83716152D01*
X148573000Y-84283848D01*
X148790247Y-84808331D01*
X149191669Y-85209753D01*
X149716152Y-85427000D01*
X150283848Y-85427000D01*
X150808331Y-85209753D01*
X151209753Y-84808331D01*
X151427000Y-84283848D01*
X151427000Y-83716152D01*
X151209753Y-83191669D01*
X150808331Y-82790247D01*
X150283848Y-82573000D01*
X149716152Y-82573000D01*
X149191669Y-82790247D01*
X148790247Y-83191669D01*
X148573000Y-83716152D01*
X142942553Y-83716152D01*
X144627959Y-82030747D01*
X155372042Y-82030747D01*
X162969254Y-89627960D01*
X162969254Y-89627960D01*
G37*
X162969254Y-89627960D02*
X162969254Y-91876967D01*
X162960754Y-91864246D01*
X162852589Y-91791973D01*
X162725000Y-91766594D01*
X160925000Y-91766594D01*
X160797411Y-91791973D01*
X160689246Y-91864246D01*
X160616973Y-91972411D01*
X160591594Y-92100000D01*
X160591594Y-93300000D01*
X160616973Y-93427589D01*
X160689246Y-93535754D01*
X160797411Y-93608027D01*
X160925000Y-93633406D01*
X162725000Y-93633406D01*
X162852589Y-93608027D01*
X162960754Y-93535754D01*
X162969254Y-93523033D01*
X162969253Y-96476966D01*
X162960754Y-96464246D01*
X162852589Y-96391973D01*
X162725000Y-96366594D01*
X160925000Y-96366594D01*
X160797411Y-96391973D01*
X160696215Y-96459590D01*
X160710000Y-96426309D01*
X160710000Y-96285750D01*
X160551250Y-96127000D01*
X159427000Y-96127000D01*
X159427000Y-96776250D01*
X159585750Y-96935000D01*
X160201310Y-96935000D01*
X160434699Y-96838327D01*
X160596205Y-96676820D01*
X160591594Y-96700000D01*
X160591594Y-97900000D01*
X160616973Y-98027589D01*
X160689246Y-98135754D01*
X160797411Y-98208027D01*
X160925000Y-98233406D01*
X162725000Y-98233406D01*
X162852589Y-98208027D01*
X162960754Y-98135754D01*
X162969253Y-98123034D01*
X162969253Y-100372041D01*
X155372042Y-107969253D01*
X144627959Y-107969253D01*
X142374858Y-105716152D01*
X148573000Y-105716152D01*
X148573000Y-106283848D01*
X148790247Y-106808331D01*
X149191669Y-107209753D01*
X149716152Y-107427000D01*
X150283848Y-107427000D01*
X150808331Y-107209753D01*
X151209753Y-106808331D01*
X151427000Y-106283848D01*
X151427000Y-105716152D01*
X151209753Y-105191669D01*
X150808331Y-104790247D01*
X150283848Y-104573000D01*
X149716152Y-104573000D01*
X149191669Y-104790247D01*
X148790247Y-105191669D01*
X148573000Y-105716152D01*
X142374858Y-105716152D01*
X137030747Y-100372042D01*
X137030747Y-89627958D01*
X138178314Y-88480391D01*
X141498000Y-88480391D01*
X141498000Y-88769609D01*
X141608679Y-89036813D01*
X141813187Y-89241321D01*
X142080391Y-89352000D01*
X142369609Y-89352000D01*
X142593441Y-89259286D01*
X142616973Y-89377589D01*
X142689246Y-89485754D01*
X142797411Y-89558027D01*
X142925000Y-89583406D01*
X142951226Y-89583406D01*
X142835639Y-89660639D01*
X142710527Y-89847882D01*
X142666594Y-90068750D01*
X142666594Y-90981250D01*
X142710527Y-91202118D01*
X142835639Y-91389361D01*
X143022882Y-91514473D01*
X143243750Y-91558406D01*
X143689870Y-91558406D01*
X143306682Y-91941594D01*
X143268750Y-91941594D01*
X143047882Y-91985527D01*
X142860639Y-92110639D01*
X142735527Y-92297882D01*
X142691594Y-92518750D01*
X142691594Y-93431250D01*
X142735527Y-93652118D01*
X142860639Y-93839361D01*
X142877979Y-93850947D01*
X142797411Y-93866973D01*
X142689246Y-93939246D01*
X142616973Y-94047411D01*
X142591594Y-94175000D01*
X142591594Y-95425000D01*
X142616973Y-95552589D01*
X142689246Y-95660754D01*
X142797411Y-95733027D01*
X142925000Y-95758406D01*
X143925000Y-95758406D01*
X144052589Y-95733027D01*
X144160754Y-95660754D01*
X144233027Y-95552589D01*
X144258406Y-95425000D01*
X144258406Y-94175000D01*
X144233027Y-94047411D01*
X144160754Y-93939246D01*
X144087813Y-93890509D01*
X144164361Y-93839361D01*
X144289473Y-93652118D01*
X144333406Y-93431250D01*
X144333406Y-92518750D01*
X144566594Y-92518750D01*
X144566594Y-93431250D01*
X144610527Y-93652118D01*
X144735639Y-93839361D01*
X144787187Y-93873804D01*
X144689246Y-93939246D01*
X144616973Y-94047411D01*
X144591594Y-94175000D01*
X144591594Y-95425000D01*
X144616973Y-95552589D01*
X144689246Y-95660754D01*
X144797411Y-95733027D01*
X144925000Y-95758406D01*
X145925000Y-95758406D01*
X146052589Y-95733027D01*
X146160754Y-95660754D01*
X146233027Y-95552589D01*
X146253035Y-95452000D01*
X146447123Y-95452000D01*
X146591670Y-95668330D01*
X146898303Y-95873215D01*
X147168698Y-95927000D01*
X147751302Y-95927000D01*
X147966602Y-95884174D01*
X147770523Y-96080253D01*
X147732780Y-96105472D01*
X147673981Y-96193472D01*
X147632879Y-96254985D01*
X147597799Y-96431346D01*
X147606654Y-96475864D01*
X147606654Y-96523240D01*
X147594036Y-96525750D01*
X147406793Y-96650862D01*
X147281681Y-96838105D01*
X147237748Y-97058973D01*
X147237748Y-97971473D01*
X147281681Y-98192341D01*
X147406793Y-98379584D01*
X147581655Y-98496423D01*
X147581655Y-98498240D01*
X147569036Y-98500750D01*
X147381793Y-98625862D01*
X147256681Y-98813105D01*
X147212748Y-99033973D01*
X147212748Y-99946473D01*
X147256681Y-100167341D01*
X147381793Y-100354584D01*
X147569036Y-100479696D01*
X147789904Y-100523629D01*
X148277404Y-100523629D01*
X148498272Y-100479696D01*
X148685515Y-100354584D01*
X148810627Y-100167341D01*
X148854560Y-99946473D01*
X148854560Y-99033973D01*
X148810627Y-98813105D01*
X148685515Y-98625862D01*
X148508558Y-98507623D01*
X148523272Y-98504696D01*
X148710515Y-98379584D01*
X148811154Y-98228967D01*
X148811154Y-98341533D01*
X148907827Y-98574922D01*
X149086456Y-98753550D01*
X149153045Y-98781132D01*
X149131681Y-98813105D01*
X149087748Y-99033973D01*
X149087748Y-99946473D01*
X149131681Y-100167341D01*
X149256793Y-100354584D01*
X149444036Y-100479696D01*
X149664904Y-100523629D01*
X150152404Y-100523629D01*
X150373272Y-100479696D01*
X150439041Y-100435750D01*
X152165000Y-100435750D01*
X152165000Y-100901310D01*
X152261673Y-101134699D01*
X152440302Y-101313327D01*
X152673691Y-101410000D01*
X153014250Y-101410000D01*
X153173000Y-101251250D01*
X153173000Y-100277000D01*
X153427000Y-100277000D01*
X153427000Y-101251250D01*
X153585750Y-101410000D01*
X153926309Y-101410000D01*
X154159698Y-101313327D01*
X154338327Y-101134699D01*
X154435000Y-100901310D01*
X154435000Y-100435750D01*
X154276250Y-100277000D01*
X153427000Y-100277000D01*
X153173000Y-100277000D01*
X152323750Y-100277000D01*
X152165000Y-100435750D01*
X150439041Y-100435750D01*
X150560515Y-100354584D01*
X150685627Y-100167341D01*
X150729560Y-99946473D01*
X150729560Y-99877882D01*
X150822028Y-99816097D01*
X150847247Y-99778354D01*
X151688134Y-98937468D01*
X151725874Y-98912251D01*
X151825775Y-98762739D01*
X151852000Y-98630895D01*
X151852000Y-98630894D01*
X151860855Y-98586378D01*
X151852000Y-98541861D01*
X151852000Y-96011600D01*
X152222389Y-96193472D01*
X152413000Y-96069714D01*
X152413000Y-95127000D01*
X152393000Y-95127000D01*
X152393000Y-94873000D01*
X152413000Y-94873000D01*
X152413000Y-94853000D01*
X152667000Y-94853000D01*
X152667000Y-94873000D01*
X153608731Y-94873000D01*
X153733462Y-94682391D01*
X153608497Y-94380673D01*
X153290156Y-94018920D01*
X152857611Y-93806528D01*
X152667002Y-93930285D01*
X152667002Y-93765000D01*
X152634224Y-93765000D01*
X154041594Y-92357630D01*
X154041594Y-92655000D01*
X154066973Y-92782589D01*
X154139246Y-92890754D01*
X154247411Y-92963027D01*
X154375000Y-92988406D01*
X154698000Y-92988406D01*
X154698001Y-93566594D01*
X154600000Y-93566594D01*
X154472411Y-93591973D01*
X154364246Y-93664246D01*
X154291973Y-93772411D01*
X154266594Y-93900000D01*
X154266594Y-94594181D01*
X153658192Y-95202584D01*
X153608731Y-95127000D01*
X152667000Y-95127000D01*
X152667000Y-96069714D01*
X152857611Y-96193472D01*
X153010500Y-96118399D01*
X153010501Y-97233017D01*
X152997882Y-97235527D01*
X152810639Y-97360639D01*
X152685527Y-97547882D01*
X152641594Y-97768750D01*
X152641594Y-98681250D01*
X152683117Y-98890000D01*
X152673691Y-98890000D01*
X152440302Y-98986673D01*
X152261673Y-99165301D01*
X152165000Y-99398690D01*
X152165000Y-99864250D01*
X152323750Y-100023000D01*
X153173000Y-100023000D01*
X153173000Y-100003000D01*
X153427000Y-100003000D01*
X153427000Y-100023000D01*
X154276250Y-100023000D01*
X154435000Y-99864250D01*
X154435000Y-99398690D01*
X154338327Y-99165301D01*
X154173652Y-99000627D01*
X154239473Y-98902118D01*
X154283406Y-98681250D01*
X154283406Y-97768750D01*
X154239473Y-97547882D01*
X154114361Y-97360639D01*
X153927118Y-97235527D01*
X153914500Y-97233017D01*
X153914500Y-96685750D01*
X153965000Y-96685750D01*
X153965000Y-97026309D01*
X154061673Y-97259698D01*
X154240301Y-97438327D01*
X154473690Y-97535000D01*
X154569134Y-97535000D01*
X154560527Y-97547882D01*
X154516594Y-97768750D01*
X154516594Y-98681250D01*
X154560527Y-98902118D01*
X154685639Y-99089361D01*
X154838641Y-99191594D01*
X154800000Y-99191594D01*
X154672411Y-99216973D01*
X154564246Y-99289246D01*
X154491973Y-99397411D01*
X154466594Y-99525000D01*
X154466594Y-100775000D01*
X154491973Y-100902589D01*
X154564246Y-101010754D01*
X154672411Y-101083027D01*
X154800000Y-101108406D01*
X155800000Y-101108406D01*
X155927589Y-101083027D01*
X156035754Y-101010754D01*
X156108027Y-100902589D01*
X156133406Y-100775000D01*
X156133406Y-99525000D01*
X156108027Y-99397411D01*
X156035754Y-99289246D01*
X155927589Y-99216973D01*
X155828018Y-99197167D01*
X155989361Y-99089361D01*
X156114473Y-98902118D01*
X156157528Y-98685662D01*
X156238187Y-98766321D01*
X156505391Y-98877000D01*
X156794609Y-98877000D01*
X157061813Y-98766321D01*
X157266321Y-98561813D01*
X157377000Y-98294609D01*
X157377000Y-98005391D01*
X157266321Y-97738187D01*
X157061813Y-97533679D01*
X156794609Y-97423000D01*
X156505391Y-97423000D01*
X156238187Y-97533679D01*
X156132642Y-97639224D01*
X156114473Y-97547882D01*
X156077781Y-97492969D01*
X156209699Y-97438327D01*
X156388327Y-97259698D01*
X156485000Y-97026309D01*
X156485000Y-96685750D01*
X156326250Y-96527000D01*
X155352000Y-96527000D01*
X155352000Y-96547000D01*
X155098000Y-96547000D01*
X155098000Y-96527000D01*
X154123750Y-96527000D01*
X153965000Y-96685750D01*
X153914500Y-96685750D01*
X153914500Y-96285750D01*
X157890000Y-96285750D01*
X157890000Y-96426309D01*
X157986673Y-96659698D01*
X158165301Y-96838327D01*
X158398690Y-96935000D01*
X159014250Y-96935000D01*
X159173000Y-96776250D01*
X159173000Y-96127000D01*
X158048750Y-96127000D01*
X157890000Y-96285750D01*
X153914500Y-96285750D01*
X153914500Y-96224724D01*
X153994987Y-96144237D01*
X154123750Y-96273000D01*
X155098000Y-96273000D01*
X155098000Y-95423750D01*
X155352000Y-95423750D01*
X155352000Y-96273000D01*
X156326250Y-96273000D01*
X156485000Y-96114250D01*
X156485000Y-95773691D01*
X156388327Y-95540302D01*
X156209699Y-95361673D01*
X155976310Y-95265000D01*
X155510750Y-95265000D01*
X155352000Y-95423750D01*
X155098000Y-95423750D01*
X154939250Y-95265000D01*
X154874225Y-95265000D01*
X154905819Y-95233406D01*
X155850000Y-95233406D01*
X155977589Y-95208027D01*
X156085754Y-95135754D01*
X156158027Y-95027589D01*
X156183406Y-94900000D01*
X156183406Y-93900000D01*
X156158027Y-93772411D01*
X156085754Y-93664246D01*
X155977589Y-93591973D01*
X155850000Y-93566594D01*
X155602000Y-93566594D01*
X155602000Y-92988406D01*
X155925000Y-92988406D01*
X156052589Y-92963027D01*
X156160754Y-92890754D01*
X156233027Y-92782589D01*
X156258406Y-92655000D01*
X156258406Y-92055000D01*
X156233027Y-91927411D01*
X156160754Y-91819246D01*
X156052589Y-91746973D01*
X155925000Y-91721594D01*
X154677630Y-91721594D01*
X154680818Y-91718406D01*
X155925000Y-91718406D01*
X156052589Y-91693027D01*
X156107268Y-91656492D01*
X158191594Y-93740818D01*
X158191594Y-94300000D01*
X158216973Y-94427589D01*
X158265356Y-94500000D01*
X158216973Y-94572411D01*
X158191594Y-94700000D01*
X158191594Y-95150782D01*
X158165301Y-95161673D01*
X157986673Y-95340302D01*
X157890000Y-95573691D01*
X157890000Y-95714250D01*
X158048750Y-95873000D01*
X159173000Y-95873000D01*
X159173000Y-95853000D01*
X159427000Y-95853000D01*
X159427000Y-95873000D01*
X160551250Y-95873000D01*
X160710000Y-95714250D01*
X160710000Y-95573691D01*
X160659594Y-95452000D01*
X160873866Y-95452000D01*
X160963187Y-95541321D01*
X161230391Y-95652000D01*
X161519609Y-95652000D01*
X161786813Y-95541321D01*
X161991321Y-95336813D01*
X162102000Y-95069609D01*
X162102000Y-94780391D01*
X161991321Y-94513187D01*
X161786813Y-94308679D01*
X161519609Y-94198000D01*
X161230391Y-94198000D01*
X160963187Y-94308679D01*
X160758679Y-94513187D01*
X160744259Y-94548000D01*
X160366716Y-94548000D01*
X160334644Y-94500000D01*
X160383027Y-94427589D01*
X160408406Y-94300000D01*
X160408406Y-93700000D01*
X160383027Y-93572411D01*
X160310754Y-93464246D01*
X160202589Y-93391973D01*
X160075000Y-93366594D01*
X159095818Y-93366594D01*
X156526093Y-90796869D01*
X156500874Y-90759126D01*
X156351362Y-90659225D01*
X156219518Y-90633000D01*
X156216287Y-90632357D01*
X156160754Y-90549246D01*
X156052589Y-90476973D01*
X155925000Y-90451594D01*
X154677631Y-90451594D01*
X154680819Y-90448406D01*
X155925000Y-90448406D01*
X156052589Y-90423027D01*
X156160754Y-90350754D01*
X156233027Y-90242589D01*
X156258406Y-90115000D01*
X156258406Y-89515000D01*
X156233027Y-89387411D01*
X156160754Y-89279246D01*
X156052589Y-89206973D01*
X155925000Y-89181594D01*
X154375000Y-89181594D01*
X154247411Y-89206973D01*
X154139246Y-89279246D01*
X154066973Y-89387411D01*
X154041594Y-89515000D01*
X154041594Y-89809181D01*
X148544174Y-95306602D01*
X148605161Y-95000000D01*
X148533215Y-94638303D01*
X148328330Y-94331670D01*
X148021697Y-94126785D01*
X147751302Y-94073000D01*
X147168698Y-94073000D01*
X146898303Y-94126785D01*
X146591670Y-94331670D01*
X146447123Y-94548000D01*
X146258406Y-94548000D01*
X146258406Y-94175000D01*
X146233027Y-94047411D01*
X146160754Y-93939246D01*
X146052589Y-93866973D01*
X146010551Y-93858611D01*
X146039361Y-93839361D01*
X146164473Y-93652118D01*
X146208406Y-93431250D01*
X146208406Y-93362659D01*
X146300874Y-93300874D01*
X146326093Y-93263131D01*
X147148000Y-92441224D01*
X147148000Y-92494609D01*
X147258679Y-92761813D01*
X147463187Y-92966321D01*
X147730391Y-93077000D01*
X148019609Y-93077000D01*
X148286813Y-92966321D01*
X148451134Y-92802000D01*
X148679943Y-92802000D01*
X148739246Y-92890754D01*
X148847411Y-92963027D01*
X148975000Y-92988406D01*
X150525000Y-92988406D01*
X150652589Y-92963027D01*
X150760754Y-92890754D01*
X150833027Y-92782589D01*
X150858406Y-92655000D01*
X150858406Y-92055000D01*
X150833027Y-91927411D01*
X150760754Y-91819246D01*
X150652589Y-91746973D01*
X150525000Y-91721594D01*
X148975000Y-91721594D01*
X148847411Y-91746973D01*
X148739246Y-91819246D01*
X148686625Y-91898000D01*
X148451134Y-91898000D01*
X148286813Y-91733679D01*
X148019609Y-91623000D01*
X147966225Y-91623000D01*
X148052225Y-91537000D01*
X148683284Y-91537000D01*
X148739246Y-91620754D01*
X148847411Y-91693027D01*
X148975000Y-91718406D01*
X150525000Y-91718406D01*
X150652589Y-91693027D01*
X150760754Y-91620754D01*
X150833027Y-91512589D01*
X150858406Y-91385000D01*
X150858406Y-90785000D01*
X150836210Y-90673412D01*
X150884698Y-90653327D01*
X151063327Y-90474699D01*
X151160000Y-90241310D01*
X151160000Y-90100750D01*
X151001250Y-89942000D01*
X149877000Y-89942000D01*
X149877000Y-89962000D01*
X149623000Y-89962000D01*
X149623000Y-89942000D01*
X148498750Y-89942000D01*
X148340000Y-90100750D01*
X148340000Y-90241310D01*
X148436673Y-90474699D01*
X148594975Y-90633000D01*
X147909518Y-90633000D01*
X147865000Y-90624145D01*
X147820482Y-90633000D01*
X147688638Y-90659225D01*
X147539126Y-90759126D01*
X147513909Y-90796866D01*
X146103759Y-92207017D01*
X146039361Y-92110639D01*
X145852118Y-91985527D01*
X145631250Y-91941594D01*
X145143750Y-91941594D01*
X144922882Y-91985527D01*
X144735639Y-92110639D01*
X144610527Y-92297882D01*
X144566594Y-92518750D01*
X144333406Y-92518750D01*
X144289473Y-92297882D01*
X144265188Y-92261537D01*
X144993277Y-91533448D01*
X145118750Y-91558406D01*
X145606250Y-91558406D01*
X145827118Y-91514473D01*
X146014361Y-91389361D01*
X146139473Y-91202118D01*
X146161790Y-91089924D01*
X146213187Y-91141321D01*
X146480391Y-91252000D01*
X146769609Y-91252000D01*
X147036813Y-91141321D01*
X147241321Y-90936813D01*
X147352000Y-90669609D01*
X147352000Y-90380391D01*
X147241321Y-90113187D01*
X147036813Y-89908679D01*
X146769609Y-89798000D01*
X146480391Y-89798000D01*
X146213187Y-89908679D01*
X146161790Y-89960076D01*
X146139583Y-89848436D01*
X146284698Y-89788327D01*
X146463327Y-89609699D01*
X146560000Y-89376310D01*
X146560000Y-88910750D01*
X146480000Y-88830750D01*
X148340000Y-88830750D01*
X148340000Y-88971310D01*
X148426442Y-89180000D01*
X148340000Y-89388690D01*
X148340000Y-89529250D01*
X148498750Y-89688000D01*
X149623000Y-89688000D01*
X149623000Y-88672000D01*
X149877000Y-88672000D01*
X149877000Y-89688000D01*
X151001250Y-89688000D01*
X151160000Y-89529250D01*
X151160000Y-89388690D01*
X151073558Y-89180000D01*
X151160000Y-88971310D01*
X151160000Y-88830750D01*
X151001250Y-88672000D01*
X149877000Y-88672000D01*
X149623000Y-88672000D01*
X148498750Y-88672000D01*
X148340000Y-88830750D01*
X146480000Y-88830750D01*
X146401250Y-88752000D01*
X145552000Y-88752000D01*
X145552000Y-88772000D01*
X145298000Y-88772000D01*
X145298000Y-88752000D01*
X144448750Y-88752000D01*
X144290000Y-88910750D01*
X144290000Y-89376310D01*
X144386673Y-89609699D01*
X144565302Y-89788327D01*
X144612310Y-89807798D01*
X144585527Y-89847882D01*
X144541594Y-90068750D01*
X144541594Y-90706681D01*
X144308406Y-90939869D01*
X144308406Y-90068750D01*
X144264473Y-89847882D01*
X144139361Y-89660639D01*
X144001115Y-89568266D01*
X144052589Y-89558027D01*
X144160754Y-89485754D01*
X144233027Y-89377589D01*
X144258406Y-89250000D01*
X144258406Y-88000000D01*
X144233282Y-87873690D01*
X144290000Y-87873690D01*
X144290000Y-88339250D01*
X144448750Y-88498000D01*
X145298000Y-88498000D01*
X145298000Y-87523750D01*
X145552000Y-87523750D01*
X145552000Y-88498000D01*
X146401250Y-88498000D01*
X146418859Y-88480391D01*
X152298000Y-88480391D01*
X152298000Y-88769609D01*
X152408679Y-89036813D01*
X152613187Y-89241321D01*
X152880391Y-89352000D01*
X153169609Y-89352000D01*
X153436813Y-89241321D01*
X153601134Y-89077000D01*
X154136738Y-89077000D01*
X154139246Y-89080754D01*
X154247411Y-89153027D01*
X154375000Y-89178406D01*
X155925000Y-89178406D01*
X156052589Y-89153027D01*
X156160754Y-89080754D01*
X156233027Y-88972589D01*
X156258406Y-88845000D01*
X156258406Y-88245000D01*
X156233027Y-88117411D01*
X156160754Y-88009246D01*
X156052589Y-87936973D01*
X155925000Y-87911594D01*
X154375000Y-87911594D01*
X154247411Y-87936973D01*
X154139246Y-88009246D01*
X154066973Y-88117411D01*
X154055916Y-88173000D01*
X153601134Y-88173000D01*
X153436813Y-88008679D01*
X153169609Y-87898000D01*
X152880391Y-87898000D01*
X152613187Y-88008679D01*
X152408679Y-88213187D01*
X152298000Y-88480391D01*
X146418859Y-88480391D01*
X146560000Y-88339250D01*
X146560000Y-88118690D01*
X148340000Y-88118690D01*
X148340000Y-88259250D01*
X148498750Y-88418000D01*
X149623000Y-88418000D01*
X149623000Y-87768750D01*
X149877000Y-87768750D01*
X149877000Y-88418000D01*
X151001250Y-88418000D01*
X151160000Y-88259250D01*
X151160000Y-88118690D01*
X151063327Y-87885301D01*
X150884698Y-87706673D01*
X150651309Y-87610000D01*
X150035750Y-87610000D01*
X149877000Y-87768750D01*
X149623000Y-87768750D01*
X149464250Y-87610000D01*
X148848691Y-87610000D01*
X148615302Y-87706673D01*
X148436673Y-87885301D01*
X148340000Y-88118690D01*
X146560000Y-88118690D01*
X146560000Y-87873690D01*
X146463327Y-87640301D01*
X146284698Y-87461673D01*
X146051309Y-87365000D01*
X145710750Y-87365000D01*
X145552000Y-87523750D01*
X145298000Y-87523750D01*
X145139250Y-87365000D01*
X144798691Y-87365000D01*
X144565302Y-87461673D01*
X144386673Y-87640301D01*
X144290000Y-87873690D01*
X144233282Y-87873690D01*
X144233027Y-87872411D01*
X144160754Y-87764246D01*
X144052589Y-87691973D01*
X143925000Y-87666594D01*
X142925000Y-87666594D01*
X142797411Y-87691973D01*
X142689246Y-87764246D01*
X142616973Y-87872411D01*
X142593441Y-87990714D01*
X142369609Y-87898000D01*
X142080391Y-87898000D01*
X141813187Y-88008679D01*
X141608679Y-88213187D01*
X141498000Y-88480391D01*
X138178314Y-88480391D01*
X142942553Y-83716152D01*
X148573000Y-83716152D01*
X148573000Y-84283848D01*
X148790247Y-84808331D01*
X149191669Y-85209753D01*
X149716152Y-85427000D01*
X150283848Y-85427000D01*
X150808331Y-85209753D01*
X151209753Y-84808331D01*
X151427000Y-84283848D01*
X151427000Y-83716152D01*
X151209753Y-83191669D01*
X150808331Y-82790247D01*
X150283848Y-82573000D01*
X149716152Y-82573000D01*
X149191669Y-82790247D01*
X148790247Y-83191669D01*
X148573000Y-83716152D01*
X142942553Y-83716152D01*
X144627959Y-82030747D01*
X155372042Y-82030747D01*
X162969254Y-89627960D01*
G36*
X150974225Y-94183639D02*
X150939145Y-94360000D01*
X150948001Y-94404523D01*
X150948001Y-96444044D01*
X150780852Y-96276896D01*
X150547463Y-96180223D01*
X150219404Y-96180223D01*
X150060654Y-96338973D01*
X150060654Y-97388223D01*
X150080654Y-97388223D01*
X150080654Y-97642223D01*
X150060654Y-97642223D01*
X150060654Y-97662223D01*
X149806654Y-97662223D01*
X149806654Y-97642223D01*
X149786654Y-97642223D01*
X149786654Y-97388223D01*
X149806654Y-97388223D01*
X149806654Y-96338973D01*
X149647904Y-96180223D01*
X149319845Y-96180223D01*
X149086456Y-96276896D01*
X148907827Y-96455524D01*
X148811154Y-96688913D01*
X148811154Y-96801479D01*
X148710515Y-96650862D01*
X148571350Y-96557874D01*
X151031896Y-94097328D01*
X150974225Y-94183639D01*
X150974225Y-94183639D01*
G37*
X150974225Y-94183639D02*
X150939145Y-94360000D01*
X150948001Y-94404523D01*
X150948001Y-96444044D01*
X150780852Y-96276896D01*
X150547463Y-96180223D01*
X150219404Y-96180223D01*
X150060654Y-96338973D01*
X150060654Y-97388223D01*
X150080654Y-97388223D01*
X150080654Y-97642223D01*
X150060654Y-97642223D01*
X150060654Y-97662223D01*
X149806654Y-97662223D01*
X149806654Y-97642223D01*
X149786654Y-97642223D01*
X149786654Y-97388223D01*
X149806654Y-97388223D01*
X149806654Y-96338973D01*
X149647904Y-96180223D01*
X149319845Y-96180223D01*
X149086456Y-96276896D01*
X148907827Y-96455524D01*
X148811154Y-96688913D01*
X148811154Y-96801479D01*
X148710515Y-96650862D01*
X148571350Y-96557874D01*
X151031896Y-94097328D01*
X150974225Y-94183639D01*
G04 #@! TD*
M02*
