G04 #@! TF.GenerationSoftware,KiCad,Pcbnew,(5.0.0)*
G04 #@! TF.CreationDate,2018-11-17T14:21:24+01:00*
G04 #@! TF.ProjectId,photoDiode_MDversion,70686F746F44696F64655F4D44766572,rev?*
G04 #@! TF.SameCoordinates,Original*
G04 #@! TF.FileFunction,Copper,L2,Inr,Signal*
G04 #@! TF.FilePolarity,Positive*
%FSLAX46Y46*%
G04 Gerber Fmt 4.6, Leading zero omitted, Abs format (unit mm)*
G04 Created by KiCad (PCBNEW (5.0.0)) date 11/17/18 14:21:24*
%MOMM*%
%LPD*%
G01*
G04 APERTURE LIST*
G04 #@! TA.AperFunction,ViaPad*
%ADD10O,1.600000X1.200000*%
G04 #@! TD*
G04 #@! TA.AperFunction,ViaPad*
%ADD11O,1.200000X1.200000*%
G04 #@! TD*
G04 #@! TA.AperFunction,ViaPad*
%ADD12C,0.800000*%
G04 #@! TD*
G04 #@! TA.AperFunction,Conductor*
%ADD13C,0.254000*%
G04 #@! TD*
G04 APERTURE END LIST*
D10*
G04 #@! TO.N,Net-(C2-Pad2)*
G04 #@! TO.C,D1*
X147460000Y-95000000D03*
D11*
G04 #@! TO.N,GND*
X152540000Y-95000000D03*
G04 #@! TD*
D12*
G04 #@! TO.N,+5V*
X161375000Y-94925000D03*
X156650000Y-98150000D03*
G04 #@! TO.N,GND*
X138600000Y-89525000D03*
X138500000Y-97225000D03*
X145825000Y-105475000D03*
X153100000Y-105425000D03*
X159225000Y-100375000D03*
X160700000Y-89700000D03*
X158800000Y-89225000D03*
X155275000Y-84900000D03*
X145100000Y-84975000D03*
X153425000Y-82750000D03*
X142450000Y-97525000D03*
X143575000Y-99875000D03*
X146175000Y-101200000D03*
X150750000Y-101400000D03*
X161625000Y-100000000D03*
X159150000Y-97500000D03*
X138525000Y-93150000D03*
X138525000Y-100325000D03*
X145525000Y-82700000D03*
X156050000Y-105625000D03*
X159450000Y-102550000D03*
X137725000Y-95150000D03*
X143600000Y-105300000D03*
X150400000Y-95650000D03*
X149075000Y-93775000D03*
X153525000Y-93625000D03*
G04 #@! TO.N,Net-(C2-Pad1)*
X146625000Y-90525000D03*
X147875000Y-92350000D03*
G04 #@! TO.N,Net-(C4-Pad1)*
X142225000Y-88625000D03*
X153025000Y-88625000D03*
G04 #@! TD*
D13*
G04 #@! TO.N,+5V*
G36*
X149017201Y-82529138D02*
X148529138Y-83017201D01*
X148265000Y-83654887D01*
X148265000Y-84345113D01*
X148529138Y-84982799D01*
X149017201Y-85470862D01*
X149654887Y-85735000D01*
X150345113Y-85735000D01*
X150982799Y-85470862D01*
X151470862Y-84982799D01*
X151590434Y-84694126D01*
X154240000Y-84694126D01*
X154240000Y-85105874D01*
X154397569Y-85486280D01*
X154688720Y-85777431D01*
X155069126Y-85935000D01*
X155480874Y-85935000D01*
X155861280Y-85777431D01*
X156152431Y-85486280D01*
X156310000Y-85105874D01*
X156310000Y-84694126D01*
X156152431Y-84313720D01*
X155861280Y-84022569D01*
X155480874Y-83865000D01*
X155069126Y-83865000D01*
X154688720Y-84022569D01*
X154397569Y-84313720D01*
X154240000Y-84694126D01*
X151590434Y-84694126D01*
X151735000Y-84345113D01*
X151735000Y-83654887D01*
X151470862Y-83017201D01*
X150982799Y-82529138D01*
X150523154Y-82338747D01*
X152475071Y-82338747D01*
X152390000Y-82544126D01*
X152390000Y-82955874D01*
X152547569Y-83336280D01*
X152838720Y-83627431D01*
X153219126Y-83785000D01*
X153630874Y-83785000D01*
X154011280Y-83627431D01*
X154302431Y-83336280D01*
X154460000Y-82955874D01*
X154460000Y-82544126D01*
X154374929Y-82338747D01*
X155244464Y-82338747D01*
X162661254Y-89755538D01*
X162661253Y-100244463D01*
X162631828Y-100273889D01*
X162660000Y-100205874D01*
X162660000Y-99794126D01*
X162502431Y-99413720D01*
X162211280Y-99122569D01*
X161830874Y-98965000D01*
X161419126Y-98965000D01*
X161038720Y-99122569D01*
X160747569Y-99413720D01*
X160590000Y-99794126D01*
X160590000Y-100205874D01*
X160747569Y-100586280D01*
X161038720Y-100877431D01*
X161419126Y-101035000D01*
X161830874Y-101035000D01*
X161898889Y-101006827D01*
X160485000Y-102420716D01*
X160485000Y-102344126D01*
X160327431Y-101963720D01*
X160036280Y-101672569D01*
X159655874Y-101515000D01*
X159244126Y-101515000D01*
X158863720Y-101672569D01*
X158572569Y-101963720D01*
X158415000Y-102344126D01*
X158415000Y-102755874D01*
X158572569Y-103136280D01*
X158863720Y-103427431D01*
X159244126Y-103585000D01*
X159320716Y-103585000D01*
X157085000Y-105820717D01*
X157085000Y-105419126D01*
X156927431Y-105038720D01*
X156636280Y-104747569D01*
X156255874Y-104590000D01*
X155844126Y-104590000D01*
X155463720Y-104747569D01*
X155172569Y-105038720D01*
X155015000Y-105419126D01*
X155015000Y-105830874D01*
X155172569Y-106211280D01*
X155463720Y-106502431D01*
X155844126Y-106660000D01*
X156245717Y-106660000D01*
X155244464Y-107661253D01*
X150523154Y-107661253D01*
X150982799Y-107470862D01*
X151470862Y-106982799D01*
X151735000Y-106345113D01*
X151735000Y-105654887D01*
X151554503Y-105219126D01*
X152065000Y-105219126D01*
X152065000Y-105630874D01*
X152222569Y-106011280D01*
X152513720Y-106302431D01*
X152894126Y-106460000D01*
X153305874Y-106460000D01*
X153686280Y-106302431D01*
X153977431Y-106011280D01*
X154135000Y-105630874D01*
X154135000Y-105219126D01*
X153977431Y-104838720D01*
X153686280Y-104547569D01*
X153305874Y-104390000D01*
X152894126Y-104390000D01*
X152513720Y-104547569D01*
X152222569Y-104838720D01*
X152065000Y-105219126D01*
X151554503Y-105219126D01*
X151470862Y-105017201D01*
X150982799Y-104529138D01*
X150345113Y-104265000D01*
X149654887Y-104265000D01*
X149017201Y-104529138D01*
X148529138Y-105017201D01*
X148265000Y-105654887D01*
X148265000Y-106345113D01*
X148529138Y-106982799D01*
X149017201Y-107470862D01*
X149476846Y-107661253D01*
X144755537Y-107661253D01*
X143429284Y-106335000D01*
X143805874Y-106335000D01*
X144186280Y-106177431D01*
X144477431Y-105886280D01*
X144635000Y-105505874D01*
X144635000Y-105269126D01*
X144790000Y-105269126D01*
X144790000Y-105680874D01*
X144947569Y-106061280D01*
X145238720Y-106352431D01*
X145619126Y-106510000D01*
X146030874Y-106510000D01*
X146411280Y-106352431D01*
X146702431Y-106061280D01*
X146860000Y-105680874D01*
X146860000Y-105269126D01*
X146702431Y-104888720D01*
X146411280Y-104597569D01*
X146030874Y-104440000D01*
X145619126Y-104440000D01*
X145238720Y-104597569D01*
X144947569Y-104888720D01*
X144790000Y-105269126D01*
X144635000Y-105269126D01*
X144635000Y-105094126D01*
X144477431Y-104713720D01*
X144186280Y-104422569D01*
X143805874Y-104265000D01*
X143394126Y-104265000D01*
X143013720Y-104422569D01*
X142722569Y-104713720D01*
X142565000Y-105094126D01*
X142565000Y-105470716D01*
X138454283Y-101360000D01*
X138730874Y-101360000D01*
X139111280Y-101202431D01*
X139319585Y-100994126D01*
X145140000Y-100994126D01*
X145140000Y-101405874D01*
X145297569Y-101786280D01*
X145588720Y-102077431D01*
X145969126Y-102235000D01*
X146380874Y-102235000D01*
X146761280Y-102077431D01*
X147052431Y-101786280D01*
X147210000Y-101405874D01*
X147210000Y-101194126D01*
X149715000Y-101194126D01*
X149715000Y-101605874D01*
X149872569Y-101986280D01*
X150163720Y-102277431D01*
X150544126Y-102435000D01*
X150955874Y-102435000D01*
X151336280Y-102277431D01*
X151627431Y-101986280D01*
X151785000Y-101605874D01*
X151785000Y-101194126D01*
X151627431Y-100813720D01*
X151336280Y-100522569D01*
X150955874Y-100365000D01*
X150544126Y-100365000D01*
X150163720Y-100522569D01*
X149872569Y-100813720D01*
X149715000Y-101194126D01*
X147210000Y-101194126D01*
X147210000Y-100994126D01*
X147052431Y-100613720D01*
X146761280Y-100322569D01*
X146390836Y-100169126D01*
X158190000Y-100169126D01*
X158190000Y-100580874D01*
X158347569Y-100961280D01*
X158638720Y-101252431D01*
X159019126Y-101410000D01*
X159430874Y-101410000D01*
X159811280Y-101252431D01*
X160102431Y-100961280D01*
X160260000Y-100580874D01*
X160260000Y-100169126D01*
X160102431Y-99788720D01*
X159811280Y-99497569D01*
X159430874Y-99340000D01*
X159019126Y-99340000D01*
X158638720Y-99497569D01*
X158347569Y-99788720D01*
X158190000Y-100169126D01*
X146390836Y-100169126D01*
X146380874Y-100165000D01*
X145969126Y-100165000D01*
X145588720Y-100322569D01*
X145297569Y-100613720D01*
X145140000Y-100994126D01*
X139319585Y-100994126D01*
X139402431Y-100911280D01*
X139560000Y-100530874D01*
X139560000Y-100119126D01*
X139402431Y-99738720D01*
X139332837Y-99669126D01*
X142540000Y-99669126D01*
X142540000Y-100080874D01*
X142697569Y-100461280D01*
X142988720Y-100752431D01*
X143369126Y-100910000D01*
X143780874Y-100910000D01*
X144161280Y-100752431D01*
X144452431Y-100461280D01*
X144610000Y-100080874D01*
X144610000Y-99669126D01*
X144452431Y-99288720D01*
X144161280Y-98997569D01*
X143780874Y-98840000D01*
X143369126Y-98840000D01*
X142988720Y-98997569D01*
X142697569Y-99288720D01*
X142540000Y-99669126D01*
X139332837Y-99669126D01*
X139111280Y-99447569D01*
X138730874Y-99290000D01*
X138319126Y-99290000D01*
X137938720Y-99447569D01*
X137647569Y-99738720D01*
X137490000Y-100119126D01*
X137490000Y-100395717D01*
X137338747Y-100244464D01*
X137338747Y-97019126D01*
X137465000Y-97019126D01*
X137465000Y-97430874D01*
X137622569Y-97811280D01*
X137913720Y-98102431D01*
X138294126Y-98260000D01*
X138705874Y-98260000D01*
X139086280Y-98102431D01*
X139377431Y-97811280D01*
X139535000Y-97430874D01*
X139535000Y-97319126D01*
X141415000Y-97319126D01*
X141415000Y-97730874D01*
X141572569Y-98111280D01*
X141863720Y-98402431D01*
X142244126Y-98560000D01*
X142655874Y-98560000D01*
X143036280Y-98402431D01*
X143327431Y-98111280D01*
X143485000Y-97730874D01*
X143485000Y-97319126D01*
X143474645Y-97294126D01*
X158115000Y-97294126D01*
X158115000Y-97705874D01*
X158272569Y-98086280D01*
X158563720Y-98377431D01*
X158944126Y-98535000D01*
X159355874Y-98535000D01*
X159736280Y-98377431D01*
X160027431Y-98086280D01*
X160185000Y-97705874D01*
X160185000Y-97294126D01*
X160027431Y-96913720D01*
X159736280Y-96622569D01*
X159355874Y-96465000D01*
X158944126Y-96465000D01*
X158563720Y-96622569D01*
X158272569Y-96913720D01*
X158115000Y-97294126D01*
X143474645Y-97294126D01*
X143327431Y-96938720D01*
X143036280Y-96647569D01*
X142655874Y-96490000D01*
X142244126Y-96490000D01*
X141863720Y-96647569D01*
X141572569Y-96938720D01*
X141415000Y-97319126D01*
X139535000Y-97319126D01*
X139535000Y-97019126D01*
X139377431Y-96638720D01*
X139086280Y-96347569D01*
X138705874Y-96190000D01*
X138294126Y-96190000D01*
X137913720Y-96347569D01*
X137622569Y-96638720D01*
X137465000Y-97019126D01*
X137338747Y-97019126D01*
X137338747Y-96110285D01*
X137519126Y-96185000D01*
X137930874Y-96185000D01*
X138311280Y-96027431D01*
X138602431Y-95736280D01*
X138760000Y-95355874D01*
X138760000Y-95000000D01*
X146000805Y-95000000D01*
X146096656Y-95481873D01*
X146369615Y-95890385D01*
X146778127Y-96163344D01*
X147138364Y-96235000D01*
X147781636Y-96235000D01*
X148141873Y-96163344D01*
X148550385Y-95890385D01*
X148823344Y-95481873D01*
X148830852Y-95444126D01*
X149365000Y-95444126D01*
X149365000Y-95855874D01*
X149522569Y-96236280D01*
X149813720Y-96527431D01*
X150194126Y-96685000D01*
X150605874Y-96685000D01*
X150986280Y-96527431D01*
X151277431Y-96236280D01*
X151435000Y-95855874D01*
X151435000Y-95569191D01*
X151649615Y-95890385D01*
X152058127Y-96163344D01*
X152418364Y-96235000D01*
X152661636Y-96235000D01*
X153021873Y-96163344D01*
X153430385Y-95890385D01*
X153703344Y-95481873D01*
X153799195Y-95000000D01*
X153731512Y-94659736D01*
X154111280Y-94502431D01*
X154402431Y-94211280D01*
X154560000Y-93830874D01*
X154560000Y-93419126D01*
X154402431Y-93038720D01*
X154111280Y-92747569D01*
X153730874Y-92590000D01*
X153319126Y-92590000D01*
X152938720Y-92747569D01*
X152647569Y-93038720D01*
X152490000Y-93419126D01*
X152490000Y-93765000D01*
X152418364Y-93765000D01*
X152058127Y-93836656D01*
X151649615Y-94109615D01*
X151376656Y-94518127D01*
X151280805Y-95000000D01*
X151308307Y-95138262D01*
X151277431Y-95063720D01*
X150986280Y-94772569D01*
X150605874Y-94615000D01*
X150194126Y-94615000D01*
X149813720Y-94772569D01*
X149522569Y-95063720D01*
X149365000Y-95444126D01*
X148830852Y-95444126D01*
X148919195Y-95000000D01*
X148881401Y-94810000D01*
X149280874Y-94810000D01*
X149661280Y-94652431D01*
X149952431Y-94361280D01*
X150110000Y-93980874D01*
X150110000Y-93569126D01*
X149952431Y-93188720D01*
X149661280Y-92897569D01*
X149280874Y-92740000D01*
X148869126Y-92740000D01*
X148826403Y-92757697D01*
X148910000Y-92555874D01*
X148910000Y-92144126D01*
X148752431Y-91763720D01*
X148461280Y-91472569D01*
X148080874Y-91315000D01*
X147669126Y-91315000D01*
X147288720Y-91472569D01*
X146997569Y-91763720D01*
X146840000Y-92144126D01*
X146840000Y-92555874D01*
X146997569Y-92936280D01*
X147288720Y-93227431D01*
X147669126Y-93385000D01*
X148080874Y-93385000D01*
X148123597Y-93367303D01*
X148040000Y-93569126D01*
X148040000Y-93816392D01*
X147781636Y-93765000D01*
X147138364Y-93765000D01*
X146778127Y-93836656D01*
X146369615Y-94109615D01*
X146096656Y-94518127D01*
X146000805Y-95000000D01*
X138760000Y-95000000D01*
X138760000Y-94944126D01*
X138602431Y-94563720D01*
X138311280Y-94272569D01*
X137930874Y-94115000D01*
X137519126Y-94115000D01*
X137338747Y-94189715D01*
X137338747Y-92944126D01*
X137490000Y-92944126D01*
X137490000Y-93355874D01*
X137647569Y-93736280D01*
X137938720Y-94027431D01*
X138319126Y-94185000D01*
X138730874Y-94185000D01*
X139111280Y-94027431D01*
X139402431Y-93736280D01*
X139560000Y-93355874D01*
X139560000Y-92944126D01*
X139402431Y-92563720D01*
X139111280Y-92272569D01*
X138730874Y-92115000D01*
X138319126Y-92115000D01*
X137938720Y-92272569D01*
X137647569Y-92563720D01*
X137490000Y-92944126D01*
X137338747Y-92944126D01*
X137338747Y-89755536D01*
X137565000Y-89529283D01*
X137565000Y-89730874D01*
X137722569Y-90111280D01*
X138013720Y-90402431D01*
X138394126Y-90560000D01*
X138805874Y-90560000D01*
X139186280Y-90402431D01*
X139269585Y-90319126D01*
X145590000Y-90319126D01*
X145590000Y-90730874D01*
X145747569Y-91111280D01*
X146038720Y-91402431D01*
X146419126Y-91560000D01*
X146830874Y-91560000D01*
X147211280Y-91402431D01*
X147502431Y-91111280D01*
X147660000Y-90730874D01*
X147660000Y-90319126D01*
X147502431Y-89938720D01*
X147211280Y-89647569D01*
X146830874Y-89490000D01*
X146419126Y-89490000D01*
X146038720Y-89647569D01*
X145747569Y-89938720D01*
X145590000Y-90319126D01*
X139269585Y-90319126D01*
X139477431Y-90111280D01*
X139635000Y-89730874D01*
X139635000Y-89319126D01*
X139477431Y-88938720D01*
X139186280Y-88647569D01*
X138805874Y-88490000D01*
X138604283Y-88490000D01*
X138675157Y-88419126D01*
X141190000Y-88419126D01*
X141190000Y-88830874D01*
X141347569Y-89211280D01*
X141638720Y-89502431D01*
X142019126Y-89660000D01*
X142430874Y-89660000D01*
X142811280Y-89502431D01*
X143102431Y-89211280D01*
X143260000Y-88830874D01*
X143260000Y-88419126D01*
X151990000Y-88419126D01*
X151990000Y-88830874D01*
X152147569Y-89211280D01*
X152438720Y-89502431D01*
X152819126Y-89660000D01*
X153230874Y-89660000D01*
X153611280Y-89502431D01*
X153902431Y-89211280D01*
X153982023Y-89019126D01*
X157765000Y-89019126D01*
X157765000Y-89430874D01*
X157922569Y-89811280D01*
X158213720Y-90102431D01*
X158594126Y-90260000D01*
X159005874Y-90260000D01*
X159386280Y-90102431D01*
X159665000Y-89823711D01*
X159665000Y-89905874D01*
X159822569Y-90286280D01*
X160113720Y-90577431D01*
X160494126Y-90735000D01*
X160905874Y-90735000D01*
X161286280Y-90577431D01*
X161577431Y-90286280D01*
X161735000Y-89905874D01*
X161735000Y-89494126D01*
X161577431Y-89113720D01*
X161286280Y-88822569D01*
X160905874Y-88665000D01*
X160494126Y-88665000D01*
X160113720Y-88822569D01*
X159835000Y-89101289D01*
X159835000Y-89019126D01*
X159677431Y-88638720D01*
X159386280Y-88347569D01*
X159005874Y-88190000D01*
X158594126Y-88190000D01*
X158213720Y-88347569D01*
X157922569Y-88638720D01*
X157765000Y-89019126D01*
X153982023Y-89019126D01*
X154060000Y-88830874D01*
X154060000Y-88419126D01*
X153902431Y-88038720D01*
X153611280Y-87747569D01*
X153230874Y-87590000D01*
X152819126Y-87590000D01*
X152438720Y-87747569D01*
X152147569Y-88038720D01*
X151990000Y-88419126D01*
X143260000Y-88419126D01*
X143102431Y-88038720D01*
X142811280Y-87747569D01*
X142430874Y-87590000D01*
X142019126Y-87590000D01*
X141638720Y-87747569D01*
X141347569Y-88038720D01*
X141190000Y-88419126D01*
X138675157Y-88419126D01*
X142325157Y-84769126D01*
X144065000Y-84769126D01*
X144065000Y-85180874D01*
X144222569Y-85561280D01*
X144513720Y-85852431D01*
X144894126Y-86010000D01*
X145305874Y-86010000D01*
X145686280Y-85852431D01*
X145977431Y-85561280D01*
X146135000Y-85180874D01*
X146135000Y-84769126D01*
X145977431Y-84388720D01*
X145686280Y-84097569D01*
X145305874Y-83940000D01*
X144894126Y-83940000D01*
X144513720Y-84097569D01*
X144222569Y-84388720D01*
X144065000Y-84769126D01*
X142325157Y-84769126D01*
X144490000Y-82604284D01*
X144490000Y-82905874D01*
X144647569Y-83286280D01*
X144938720Y-83577431D01*
X145319126Y-83735000D01*
X145730874Y-83735000D01*
X146111280Y-83577431D01*
X146402431Y-83286280D01*
X146560000Y-82905874D01*
X146560000Y-82494126D01*
X146495640Y-82338747D01*
X149476846Y-82338747D01*
X149017201Y-82529138D01*
X149017201Y-82529138D01*
G37*
X149017201Y-82529138D02*
X148529138Y-83017201D01*
X148265000Y-83654887D01*
X148265000Y-84345113D01*
X148529138Y-84982799D01*
X149017201Y-85470862D01*
X149654887Y-85735000D01*
X150345113Y-85735000D01*
X150982799Y-85470862D01*
X151470862Y-84982799D01*
X151590434Y-84694126D01*
X154240000Y-84694126D01*
X154240000Y-85105874D01*
X154397569Y-85486280D01*
X154688720Y-85777431D01*
X155069126Y-85935000D01*
X155480874Y-85935000D01*
X155861280Y-85777431D01*
X156152431Y-85486280D01*
X156310000Y-85105874D01*
X156310000Y-84694126D01*
X156152431Y-84313720D01*
X155861280Y-84022569D01*
X155480874Y-83865000D01*
X155069126Y-83865000D01*
X154688720Y-84022569D01*
X154397569Y-84313720D01*
X154240000Y-84694126D01*
X151590434Y-84694126D01*
X151735000Y-84345113D01*
X151735000Y-83654887D01*
X151470862Y-83017201D01*
X150982799Y-82529138D01*
X150523154Y-82338747D01*
X152475071Y-82338747D01*
X152390000Y-82544126D01*
X152390000Y-82955874D01*
X152547569Y-83336280D01*
X152838720Y-83627431D01*
X153219126Y-83785000D01*
X153630874Y-83785000D01*
X154011280Y-83627431D01*
X154302431Y-83336280D01*
X154460000Y-82955874D01*
X154460000Y-82544126D01*
X154374929Y-82338747D01*
X155244464Y-82338747D01*
X162661254Y-89755538D01*
X162661253Y-100244463D01*
X162631828Y-100273889D01*
X162660000Y-100205874D01*
X162660000Y-99794126D01*
X162502431Y-99413720D01*
X162211280Y-99122569D01*
X161830874Y-98965000D01*
X161419126Y-98965000D01*
X161038720Y-99122569D01*
X160747569Y-99413720D01*
X160590000Y-99794126D01*
X160590000Y-100205874D01*
X160747569Y-100586280D01*
X161038720Y-100877431D01*
X161419126Y-101035000D01*
X161830874Y-101035000D01*
X161898889Y-101006827D01*
X160485000Y-102420716D01*
X160485000Y-102344126D01*
X160327431Y-101963720D01*
X160036280Y-101672569D01*
X159655874Y-101515000D01*
X159244126Y-101515000D01*
X158863720Y-101672569D01*
X158572569Y-101963720D01*
X158415000Y-102344126D01*
X158415000Y-102755874D01*
X158572569Y-103136280D01*
X158863720Y-103427431D01*
X159244126Y-103585000D01*
X159320716Y-103585000D01*
X157085000Y-105820717D01*
X157085000Y-105419126D01*
X156927431Y-105038720D01*
X156636280Y-104747569D01*
X156255874Y-104590000D01*
X155844126Y-104590000D01*
X155463720Y-104747569D01*
X155172569Y-105038720D01*
X155015000Y-105419126D01*
X155015000Y-105830874D01*
X155172569Y-106211280D01*
X155463720Y-106502431D01*
X155844126Y-106660000D01*
X156245717Y-106660000D01*
X155244464Y-107661253D01*
X150523154Y-107661253D01*
X150982799Y-107470862D01*
X151470862Y-106982799D01*
X151735000Y-106345113D01*
X151735000Y-105654887D01*
X151554503Y-105219126D01*
X152065000Y-105219126D01*
X152065000Y-105630874D01*
X152222569Y-106011280D01*
X152513720Y-106302431D01*
X152894126Y-106460000D01*
X153305874Y-106460000D01*
X153686280Y-106302431D01*
X153977431Y-106011280D01*
X154135000Y-105630874D01*
X154135000Y-105219126D01*
X153977431Y-104838720D01*
X153686280Y-104547569D01*
X153305874Y-104390000D01*
X152894126Y-104390000D01*
X152513720Y-104547569D01*
X152222569Y-104838720D01*
X152065000Y-105219126D01*
X151554503Y-105219126D01*
X151470862Y-105017201D01*
X150982799Y-104529138D01*
X150345113Y-104265000D01*
X149654887Y-104265000D01*
X149017201Y-104529138D01*
X148529138Y-105017201D01*
X148265000Y-105654887D01*
X148265000Y-106345113D01*
X148529138Y-106982799D01*
X149017201Y-107470862D01*
X149476846Y-107661253D01*
X144755537Y-107661253D01*
X143429284Y-106335000D01*
X143805874Y-106335000D01*
X144186280Y-106177431D01*
X144477431Y-105886280D01*
X144635000Y-105505874D01*
X144635000Y-105269126D01*
X144790000Y-105269126D01*
X144790000Y-105680874D01*
X144947569Y-106061280D01*
X145238720Y-106352431D01*
X145619126Y-106510000D01*
X146030874Y-106510000D01*
X146411280Y-106352431D01*
X146702431Y-106061280D01*
X146860000Y-105680874D01*
X146860000Y-105269126D01*
X146702431Y-104888720D01*
X146411280Y-104597569D01*
X146030874Y-104440000D01*
X145619126Y-104440000D01*
X145238720Y-104597569D01*
X144947569Y-104888720D01*
X144790000Y-105269126D01*
X144635000Y-105269126D01*
X144635000Y-105094126D01*
X144477431Y-104713720D01*
X144186280Y-104422569D01*
X143805874Y-104265000D01*
X143394126Y-104265000D01*
X143013720Y-104422569D01*
X142722569Y-104713720D01*
X142565000Y-105094126D01*
X142565000Y-105470716D01*
X138454283Y-101360000D01*
X138730874Y-101360000D01*
X139111280Y-101202431D01*
X139319585Y-100994126D01*
X145140000Y-100994126D01*
X145140000Y-101405874D01*
X145297569Y-101786280D01*
X145588720Y-102077431D01*
X145969126Y-102235000D01*
X146380874Y-102235000D01*
X146761280Y-102077431D01*
X147052431Y-101786280D01*
X147210000Y-101405874D01*
X147210000Y-101194126D01*
X149715000Y-101194126D01*
X149715000Y-101605874D01*
X149872569Y-101986280D01*
X150163720Y-102277431D01*
X150544126Y-102435000D01*
X150955874Y-102435000D01*
X151336280Y-102277431D01*
X151627431Y-101986280D01*
X151785000Y-101605874D01*
X151785000Y-101194126D01*
X151627431Y-100813720D01*
X151336280Y-100522569D01*
X150955874Y-100365000D01*
X150544126Y-100365000D01*
X150163720Y-100522569D01*
X149872569Y-100813720D01*
X149715000Y-101194126D01*
X147210000Y-101194126D01*
X147210000Y-100994126D01*
X147052431Y-100613720D01*
X146761280Y-100322569D01*
X146390836Y-100169126D01*
X158190000Y-100169126D01*
X158190000Y-100580874D01*
X158347569Y-100961280D01*
X158638720Y-101252431D01*
X159019126Y-101410000D01*
X159430874Y-101410000D01*
X159811280Y-101252431D01*
X160102431Y-100961280D01*
X160260000Y-100580874D01*
X160260000Y-100169126D01*
X160102431Y-99788720D01*
X159811280Y-99497569D01*
X159430874Y-99340000D01*
X159019126Y-99340000D01*
X158638720Y-99497569D01*
X158347569Y-99788720D01*
X158190000Y-100169126D01*
X146390836Y-100169126D01*
X146380874Y-100165000D01*
X145969126Y-100165000D01*
X145588720Y-100322569D01*
X145297569Y-100613720D01*
X145140000Y-100994126D01*
X139319585Y-100994126D01*
X139402431Y-100911280D01*
X139560000Y-100530874D01*
X139560000Y-100119126D01*
X139402431Y-99738720D01*
X139332837Y-99669126D01*
X142540000Y-99669126D01*
X142540000Y-100080874D01*
X142697569Y-100461280D01*
X142988720Y-100752431D01*
X143369126Y-100910000D01*
X143780874Y-100910000D01*
X144161280Y-100752431D01*
X144452431Y-100461280D01*
X144610000Y-100080874D01*
X144610000Y-99669126D01*
X144452431Y-99288720D01*
X144161280Y-98997569D01*
X143780874Y-98840000D01*
X143369126Y-98840000D01*
X142988720Y-98997569D01*
X142697569Y-99288720D01*
X142540000Y-99669126D01*
X139332837Y-99669126D01*
X139111280Y-99447569D01*
X138730874Y-99290000D01*
X138319126Y-99290000D01*
X137938720Y-99447569D01*
X137647569Y-99738720D01*
X137490000Y-100119126D01*
X137490000Y-100395717D01*
X137338747Y-100244464D01*
X137338747Y-97019126D01*
X137465000Y-97019126D01*
X137465000Y-97430874D01*
X137622569Y-97811280D01*
X137913720Y-98102431D01*
X138294126Y-98260000D01*
X138705874Y-98260000D01*
X139086280Y-98102431D01*
X139377431Y-97811280D01*
X139535000Y-97430874D01*
X139535000Y-97319126D01*
X141415000Y-97319126D01*
X141415000Y-97730874D01*
X141572569Y-98111280D01*
X141863720Y-98402431D01*
X142244126Y-98560000D01*
X142655874Y-98560000D01*
X143036280Y-98402431D01*
X143327431Y-98111280D01*
X143485000Y-97730874D01*
X143485000Y-97319126D01*
X143474645Y-97294126D01*
X158115000Y-97294126D01*
X158115000Y-97705874D01*
X158272569Y-98086280D01*
X158563720Y-98377431D01*
X158944126Y-98535000D01*
X159355874Y-98535000D01*
X159736280Y-98377431D01*
X160027431Y-98086280D01*
X160185000Y-97705874D01*
X160185000Y-97294126D01*
X160027431Y-96913720D01*
X159736280Y-96622569D01*
X159355874Y-96465000D01*
X158944126Y-96465000D01*
X158563720Y-96622569D01*
X158272569Y-96913720D01*
X158115000Y-97294126D01*
X143474645Y-97294126D01*
X143327431Y-96938720D01*
X143036280Y-96647569D01*
X142655874Y-96490000D01*
X142244126Y-96490000D01*
X141863720Y-96647569D01*
X141572569Y-96938720D01*
X141415000Y-97319126D01*
X139535000Y-97319126D01*
X139535000Y-97019126D01*
X139377431Y-96638720D01*
X139086280Y-96347569D01*
X138705874Y-96190000D01*
X138294126Y-96190000D01*
X137913720Y-96347569D01*
X137622569Y-96638720D01*
X137465000Y-97019126D01*
X137338747Y-97019126D01*
X137338747Y-96110285D01*
X137519126Y-96185000D01*
X137930874Y-96185000D01*
X138311280Y-96027431D01*
X138602431Y-95736280D01*
X138760000Y-95355874D01*
X138760000Y-95000000D01*
X146000805Y-95000000D01*
X146096656Y-95481873D01*
X146369615Y-95890385D01*
X146778127Y-96163344D01*
X147138364Y-96235000D01*
X147781636Y-96235000D01*
X148141873Y-96163344D01*
X148550385Y-95890385D01*
X148823344Y-95481873D01*
X148830852Y-95444126D01*
X149365000Y-95444126D01*
X149365000Y-95855874D01*
X149522569Y-96236280D01*
X149813720Y-96527431D01*
X150194126Y-96685000D01*
X150605874Y-96685000D01*
X150986280Y-96527431D01*
X151277431Y-96236280D01*
X151435000Y-95855874D01*
X151435000Y-95569191D01*
X151649615Y-95890385D01*
X152058127Y-96163344D01*
X152418364Y-96235000D01*
X152661636Y-96235000D01*
X153021873Y-96163344D01*
X153430385Y-95890385D01*
X153703344Y-95481873D01*
X153799195Y-95000000D01*
X153731512Y-94659736D01*
X154111280Y-94502431D01*
X154402431Y-94211280D01*
X154560000Y-93830874D01*
X154560000Y-93419126D01*
X154402431Y-93038720D01*
X154111280Y-92747569D01*
X153730874Y-92590000D01*
X153319126Y-92590000D01*
X152938720Y-92747569D01*
X152647569Y-93038720D01*
X152490000Y-93419126D01*
X152490000Y-93765000D01*
X152418364Y-93765000D01*
X152058127Y-93836656D01*
X151649615Y-94109615D01*
X151376656Y-94518127D01*
X151280805Y-95000000D01*
X151308307Y-95138262D01*
X151277431Y-95063720D01*
X150986280Y-94772569D01*
X150605874Y-94615000D01*
X150194126Y-94615000D01*
X149813720Y-94772569D01*
X149522569Y-95063720D01*
X149365000Y-95444126D01*
X148830852Y-95444126D01*
X148919195Y-95000000D01*
X148881401Y-94810000D01*
X149280874Y-94810000D01*
X149661280Y-94652431D01*
X149952431Y-94361280D01*
X150110000Y-93980874D01*
X150110000Y-93569126D01*
X149952431Y-93188720D01*
X149661280Y-92897569D01*
X149280874Y-92740000D01*
X148869126Y-92740000D01*
X148826403Y-92757697D01*
X148910000Y-92555874D01*
X148910000Y-92144126D01*
X148752431Y-91763720D01*
X148461280Y-91472569D01*
X148080874Y-91315000D01*
X147669126Y-91315000D01*
X147288720Y-91472569D01*
X146997569Y-91763720D01*
X146840000Y-92144126D01*
X146840000Y-92555874D01*
X146997569Y-92936280D01*
X147288720Y-93227431D01*
X147669126Y-93385000D01*
X148080874Y-93385000D01*
X148123597Y-93367303D01*
X148040000Y-93569126D01*
X148040000Y-93816392D01*
X147781636Y-93765000D01*
X147138364Y-93765000D01*
X146778127Y-93836656D01*
X146369615Y-94109615D01*
X146096656Y-94518127D01*
X146000805Y-95000000D01*
X138760000Y-95000000D01*
X138760000Y-94944126D01*
X138602431Y-94563720D01*
X138311280Y-94272569D01*
X137930874Y-94115000D01*
X137519126Y-94115000D01*
X137338747Y-94189715D01*
X137338747Y-92944126D01*
X137490000Y-92944126D01*
X137490000Y-93355874D01*
X137647569Y-93736280D01*
X137938720Y-94027431D01*
X138319126Y-94185000D01*
X138730874Y-94185000D01*
X139111280Y-94027431D01*
X139402431Y-93736280D01*
X139560000Y-93355874D01*
X139560000Y-92944126D01*
X139402431Y-92563720D01*
X139111280Y-92272569D01*
X138730874Y-92115000D01*
X138319126Y-92115000D01*
X137938720Y-92272569D01*
X137647569Y-92563720D01*
X137490000Y-92944126D01*
X137338747Y-92944126D01*
X137338747Y-89755536D01*
X137565000Y-89529283D01*
X137565000Y-89730874D01*
X137722569Y-90111280D01*
X138013720Y-90402431D01*
X138394126Y-90560000D01*
X138805874Y-90560000D01*
X139186280Y-90402431D01*
X139269585Y-90319126D01*
X145590000Y-90319126D01*
X145590000Y-90730874D01*
X145747569Y-91111280D01*
X146038720Y-91402431D01*
X146419126Y-91560000D01*
X146830874Y-91560000D01*
X147211280Y-91402431D01*
X147502431Y-91111280D01*
X147660000Y-90730874D01*
X147660000Y-90319126D01*
X147502431Y-89938720D01*
X147211280Y-89647569D01*
X146830874Y-89490000D01*
X146419126Y-89490000D01*
X146038720Y-89647569D01*
X145747569Y-89938720D01*
X145590000Y-90319126D01*
X139269585Y-90319126D01*
X139477431Y-90111280D01*
X139635000Y-89730874D01*
X139635000Y-89319126D01*
X139477431Y-88938720D01*
X139186280Y-88647569D01*
X138805874Y-88490000D01*
X138604283Y-88490000D01*
X138675157Y-88419126D01*
X141190000Y-88419126D01*
X141190000Y-88830874D01*
X141347569Y-89211280D01*
X141638720Y-89502431D01*
X142019126Y-89660000D01*
X142430874Y-89660000D01*
X142811280Y-89502431D01*
X143102431Y-89211280D01*
X143260000Y-88830874D01*
X143260000Y-88419126D01*
X151990000Y-88419126D01*
X151990000Y-88830874D01*
X152147569Y-89211280D01*
X152438720Y-89502431D01*
X152819126Y-89660000D01*
X153230874Y-89660000D01*
X153611280Y-89502431D01*
X153902431Y-89211280D01*
X153982023Y-89019126D01*
X157765000Y-89019126D01*
X157765000Y-89430874D01*
X157922569Y-89811280D01*
X158213720Y-90102431D01*
X158594126Y-90260000D01*
X159005874Y-90260000D01*
X159386280Y-90102431D01*
X159665000Y-89823711D01*
X159665000Y-89905874D01*
X159822569Y-90286280D01*
X160113720Y-90577431D01*
X160494126Y-90735000D01*
X160905874Y-90735000D01*
X161286280Y-90577431D01*
X161577431Y-90286280D01*
X161735000Y-89905874D01*
X161735000Y-89494126D01*
X161577431Y-89113720D01*
X161286280Y-88822569D01*
X160905874Y-88665000D01*
X160494126Y-88665000D01*
X160113720Y-88822569D01*
X159835000Y-89101289D01*
X159835000Y-89019126D01*
X159677431Y-88638720D01*
X159386280Y-88347569D01*
X159005874Y-88190000D01*
X158594126Y-88190000D01*
X158213720Y-88347569D01*
X157922569Y-88638720D01*
X157765000Y-89019126D01*
X153982023Y-89019126D01*
X154060000Y-88830874D01*
X154060000Y-88419126D01*
X153902431Y-88038720D01*
X153611280Y-87747569D01*
X153230874Y-87590000D01*
X152819126Y-87590000D01*
X152438720Y-87747569D01*
X152147569Y-88038720D01*
X151990000Y-88419126D01*
X143260000Y-88419126D01*
X143102431Y-88038720D01*
X142811280Y-87747569D01*
X142430874Y-87590000D01*
X142019126Y-87590000D01*
X141638720Y-87747569D01*
X141347569Y-88038720D01*
X141190000Y-88419126D01*
X138675157Y-88419126D01*
X142325157Y-84769126D01*
X144065000Y-84769126D01*
X144065000Y-85180874D01*
X144222569Y-85561280D01*
X144513720Y-85852431D01*
X144894126Y-86010000D01*
X145305874Y-86010000D01*
X145686280Y-85852431D01*
X145977431Y-85561280D01*
X146135000Y-85180874D01*
X146135000Y-84769126D01*
X145977431Y-84388720D01*
X145686280Y-84097569D01*
X145305874Y-83940000D01*
X144894126Y-83940000D01*
X144513720Y-84097569D01*
X144222569Y-84388720D01*
X144065000Y-84769126D01*
X142325157Y-84769126D01*
X144490000Y-82604284D01*
X144490000Y-82905874D01*
X144647569Y-83286280D01*
X144938720Y-83577431D01*
X145319126Y-83735000D01*
X145730874Y-83735000D01*
X146111280Y-83577431D01*
X146402431Y-83286280D01*
X146560000Y-82905874D01*
X146560000Y-82494126D01*
X146495640Y-82338747D01*
X149476846Y-82338747D01*
X149017201Y-82529138D01*
G04 #@! TD*
M02*
