M48
INCH,TZ
T1C0.0157
T2C0.0276
%
G90
G05
T1
X54222Y-37461
X54528Y-38278
X54537Y-36673
X54537Y-39498
X54567Y-35246
X55994Y-34892
X56083Y-38396
X56526Y-39321
X56535Y-41457
X57126Y-33455
X57293Y-32559
X57411Y-41526
X57549Y-39843
X57726Y-35640
X58219Y-36358
X58691Y-36919
X59213Y-37657
X59350Y-39921
X60246Y-34892
X60276Y-41506
X60404Y-32579
X60443Y-36860
X61132Y-33425
X61437Y-41585
X61673Y-38642
X62520Y-35128
X62657Y-38386
X62687Y-39518
X62776Y-40374
X63268Y-35315
X63533Y-37372
X63632Y-39370
T2
X58055Y-37402
X60055Y-37402
T0
M30
