G04 #@! TF.GenerationSoftware,KiCad,Pcbnew,(5.0.0)*
G04 #@! TF.CreationDate,2019-05-30T11:47:06+02:00*
G04 #@! TF.ProjectId,RGBLed_MDversion,5247424C65645F4D4476657273696F6E,rev?*
G04 #@! TF.SameCoordinates,Original*
G04 #@! TF.FileFunction,Legend,Top*
G04 #@! TF.FilePolarity,Positive*
%FSLAX46Y46*%
G04 Gerber Fmt 4.6, Leading zero omitted, Abs format (unit mm)*
G04 Created by KiCad (PCBNEW (5.0.0)) date 05/30/19 11:47:06*
%MOMM*%
%LPD*%
G01*
G04 APERTURE LIST*
%ADD10C,0.300000*%
%ADD11C,0.120000*%
%ADD12C,0.150000*%
G04 APERTURE END LIST*
D10*
X144107142Y-103608571D02*
X143607142Y-102894285D01*
X143250000Y-103608571D02*
X143250000Y-102108571D01*
X143821428Y-102108571D01*
X143964285Y-102180000D01*
X144035714Y-102251428D01*
X144107142Y-102394285D01*
X144107142Y-102608571D01*
X144035714Y-102751428D01*
X143964285Y-102822857D01*
X143821428Y-102894285D01*
X143250000Y-102894285D01*
X145535714Y-102180000D02*
X145392857Y-102108571D01*
X145178571Y-102108571D01*
X144964285Y-102180000D01*
X144821428Y-102322857D01*
X144750000Y-102465714D01*
X144678571Y-102751428D01*
X144678571Y-102965714D01*
X144750000Y-103251428D01*
X144821428Y-103394285D01*
X144964285Y-103537142D01*
X145178571Y-103608571D01*
X145321428Y-103608571D01*
X145535714Y-103537142D01*
X145607142Y-103465714D01*
X145607142Y-102965714D01*
X145321428Y-102965714D01*
X146750000Y-102822857D02*
X146964285Y-102894285D01*
X147035714Y-102965714D01*
X147107142Y-103108571D01*
X147107142Y-103322857D01*
X147035714Y-103465714D01*
X146964285Y-103537142D01*
X146821428Y-103608571D01*
X146250000Y-103608571D01*
X146250000Y-102108571D01*
X146750000Y-102108571D01*
X146892857Y-102180000D01*
X146964285Y-102251428D01*
X147035714Y-102394285D01*
X147035714Y-102537142D01*
X146964285Y-102680000D01*
X146892857Y-102751428D01*
X146750000Y-102822857D01*
X146250000Y-102822857D01*
X148464285Y-103608571D02*
X147750000Y-103608571D01*
X147750000Y-102108571D01*
X149535714Y-103537142D02*
X149392857Y-103608571D01*
X149107142Y-103608571D01*
X148964285Y-103537142D01*
X148892857Y-103394285D01*
X148892857Y-102822857D01*
X148964285Y-102680000D01*
X149107142Y-102608571D01*
X149392857Y-102608571D01*
X149535714Y-102680000D01*
X149607142Y-102822857D01*
X149607142Y-102965714D01*
X148892857Y-103108571D01*
X150892857Y-103608571D02*
X150892857Y-102108571D01*
X150892857Y-103537142D02*
X150750000Y-103608571D01*
X150464285Y-103608571D01*
X150321428Y-103537142D01*
X150250000Y-103465714D01*
X150178571Y-103322857D01*
X150178571Y-102894285D01*
X150250000Y-102751428D01*
X150321428Y-102680000D01*
X150464285Y-102608571D01*
X150750000Y-102608571D01*
X150892857Y-102680000D01*
X152607142Y-102608571D02*
X152964285Y-103608571D01*
X153321428Y-102608571D01*
X154678571Y-103608571D02*
X153821428Y-103608571D01*
X154250000Y-103608571D02*
X154250000Y-102108571D01*
X154107142Y-102322857D01*
X153964285Y-102465714D01*
X153821428Y-102537142D01*
X155321428Y-103465714D02*
X155392857Y-103537142D01*
X155321428Y-103608571D01*
X155250000Y-103537142D01*
X155321428Y-103465714D01*
X155321428Y-103608571D01*
X155964285Y-102251428D02*
X156035714Y-102180000D01*
X156178571Y-102108571D01*
X156535714Y-102108571D01*
X156678571Y-102180000D01*
X156750000Y-102251428D01*
X156821428Y-102394285D01*
X156821428Y-102537142D01*
X156750000Y-102751428D01*
X155892857Y-103608571D01*
X156821428Y-103608571D01*
D11*
G04 #@! TO.C,R2*
X153800000Y-92850000D02*
X155000000Y-92850000D01*
X155000000Y-94610000D02*
X153800000Y-94610000D01*
D12*
G04 #@! TO.C,D1*
X152500000Y-95000000D02*
G75*
G03X152500000Y-95000000I-2500000J0D01*
G01*
D11*
G04 #@! TO.C,R1*
X155000000Y-92080000D02*
X153800000Y-92080000D01*
X153800000Y-90320000D02*
X155000000Y-90320000D01*
G04 #@! TO.C,R3*
X155000000Y-98180000D02*
X153800000Y-98180000D01*
X153800000Y-96420000D02*
X155000000Y-96420000D01*
G04 #@! TO.C,J1*
X140670000Y-89860000D02*
X142000000Y-89860000D01*
X140670000Y-91190000D02*
X140670000Y-89860000D01*
X143330000Y-92460000D02*
X140670000Y-92460000D01*
X143330000Y-100140000D02*
X143330000Y-92460000D01*
X140670000Y-100140000D02*
X143330000Y-100140000D01*
X140670000Y-92460000D02*
X140670000Y-100140000D01*
G04 #@! TO.C,J2*
X156670000Y-92460000D02*
X156670000Y-100140000D01*
X156670000Y-100140000D02*
X159330000Y-100140000D01*
X159330000Y-100140000D02*
X159330000Y-92460000D01*
X159330000Y-92460000D02*
X156670000Y-92460000D01*
X156670000Y-91190000D02*
X156670000Y-89860000D01*
X156670000Y-89860000D02*
X158000000Y-89860000D01*
G04 #@! TO.C,R2*
D12*
X151653333Y-94162380D02*
X151320000Y-93686190D01*
X151081904Y-94162380D02*
X151081904Y-93162380D01*
X151462857Y-93162380D01*
X151558095Y-93210000D01*
X151605714Y-93257619D01*
X151653333Y-93352857D01*
X151653333Y-93495714D01*
X151605714Y-93590952D01*
X151558095Y-93638571D01*
X151462857Y-93686190D01*
X151081904Y-93686190D01*
X152034285Y-93257619D02*
X152081904Y-93210000D01*
X152177142Y-93162380D01*
X152415238Y-93162380D01*
X152510476Y-93210000D01*
X152558095Y-93257619D01*
X152605714Y-93352857D01*
X152605714Y-93448095D01*
X152558095Y-93590952D01*
X151986666Y-94162380D01*
X152605714Y-94162380D01*
G04 #@! TO.C,D1*
X145561904Y-95462380D02*
X145561904Y-94462380D01*
X145800000Y-94462380D01*
X145942857Y-94510000D01*
X146038095Y-94605238D01*
X146085714Y-94700476D01*
X146133333Y-94890952D01*
X146133333Y-95033809D01*
X146085714Y-95224285D01*
X146038095Y-95319523D01*
X145942857Y-95414761D01*
X145800000Y-95462380D01*
X145561904Y-95462380D01*
X147085714Y-95462380D02*
X146514285Y-95462380D01*
X146800000Y-95462380D02*
X146800000Y-94462380D01*
X146704761Y-94605238D01*
X146609523Y-94700476D01*
X146514285Y-94748095D01*
G04 #@! TO.C,R1*
X151673333Y-91672380D02*
X151340000Y-91196190D01*
X151101904Y-91672380D02*
X151101904Y-90672380D01*
X151482857Y-90672380D01*
X151578095Y-90720000D01*
X151625714Y-90767619D01*
X151673333Y-90862857D01*
X151673333Y-91005714D01*
X151625714Y-91100952D01*
X151578095Y-91148571D01*
X151482857Y-91196190D01*
X151101904Y-91196190D01*
X152625714Y-91672380D02*
X152054285Y-91672380D01*
X152340000Y-91672380D02*
X152340000Y-90672380D01*
X152244761Y-90815238D01*
X152149523Y-90910476D01*
X152054285Y-90958095D01*
G04 #@! TO.C,R3*
X151633333Y-97742380D02*
X151300000Y-97266190D01*
X151061904Y-97742380D02*
X151061904Y-96742380D01*
X151442857Y-96742380D01*
X151538095Y-96790000D01*
X151585714Y-96837619D01*
X151633333Y-96932857D01*
X151633333Y-97075714D01*
X151585714Y-97170952D01*
X151538095Y-97218571D01*
X151442857Y-97266190D01*
X151061904Y-97266190D01*
X151966666Y-96742380D02*
X152585714Y-96742380D01*
X152252380Y-97123333D01*
X152395238Y-97123333D01*
X152490476Y-97170952D01*
X152538095Y-97218571D01*
X152585714Y-97313809D01*
X152585714Y-97551904D01*
X152538095Y-97647142D01*
X152490476Y-97694761D01*
X152395238Y-97742380D01*
X152109523Y-97742380D01*
X152014285Y-97694761D01*
X151966666Y-97647142D01*
G04 #@! TO.C,J1*
X141666666Y-88312380D02*
X141666666Y-89026666D01*
X141619047Y-89169523D01*
X141523809Y-89264761D01*
X141380952Y-89312380D01*
X141285714Y-89312380D01*
X142666666Y-89312380D02*
X142095238Y-89312380D01*
X142380952Y-89312380D02*
X142380952Y-88312380D01*
X142285714Y-88455238D01*
X142190476Y-88550476D01*
X142095238Y-88598095D01*
G04 #@! TO.C,J2*
X157666666Y-88312380D02*
X157666666Y-89026666D01*
X157619047Y-89169523D01*
X157523809Y-89264761D01*
X157380952Y-89312380D01*
X157285714Y-89312380D01*
X158095238Y-88407619D02*
X158142857Y-88360000D01*
X158238095Y-88312380D01*
X158476190Y-88312380D01*
X158571428Y-88360000D01*
X158619047Y-88407619D01*
X158666666Y-88502857D01*
X158666666Y-88598095D01*
X158619047Y-88740952D01*
X158047619Y-89312380D01*
X158666666Y-89312380D01*
G04 #@! TD*
M02*
