solid OpenSCAD_Model
  facet normal 0.382684 -0.92388 0
    outer loop
      vertex 56 -18 -1.5
      vertex 68.7279 -12.7279 1.5
      vertex 56 -18 1.5
    endloop
  endfacet
  facet normal 0.382684 -0.92388 0
    outer loop
      vertex 68.7279 -12.7279 1.5
      vertex 56 -18 -1.5
      vertex 68.7279 -12.7279 -1.5
    endloop
  endfacet
  facet normal 0.923879 0.382684 0
    outer loop
      vertex 74 1.83697e-16 1.5
      vertex 68.7279 12.7279 -1.5
      vertex 68.7279 12.7279 1.5
    endloop
  endfacet
  facet normal 0.923879 0.382684 0
    outer loop
      vertex 68.7279 12.7279 -1.5
      vertex 74 1.83697e-16 1.5
      vertex 74 -1.83697e-16 -1.5
    endloop
  endfacet
  facet normal 0.923879 -0.382684 0
    outer loop
      vertex 68.7279 -12.7279 1.5
      vertex 74 -1.83697e-16 -1.5
      vertex 74 1.83697e-16 1.5
    endloop
  endfacet
  facet normal 0.923879 -0.382684 0
    outer loop
      vertex 74 -1.83697e-16 -1.5
      vertex 68.7279 -12.7279 1.5
      vertex 68.7279 -12.7279 -1.5
    endloop
  endfacet
  facet normal 0 0 1
    outer loop
      vertex 68.7279 12.7279 1.5
      vertex 70.9 1.83697e-16 1.5
      vertex 74 1.83697e-16 1.5
    endloop
  endfacet
  facet normal 0 0 1
    outer loop
      vertex 68.7279 12.7279 1.5
      vertex 66.5359 10.5359 1.5
      vertex 70.9 1.83697e-16 1.5
    endloop
  endfacet
  facet normal 0 0 1
    outer loop
      vertex 56 18 1.5
      vertex 66.5359 10.5359 1.5
      vertex 68.7279 12.7279 1.5
    endloop
  endfacet
  facet normal 0 0 1
    outer loop
      vertex 56 18 1.5
      vertex 56 14.9 1.5
      vertex 66.5359 10.5359 1.5
    endloop
  endfacet
  facet normal 0 0 1
    outer loop
      vertex 56 18 1.5
      vertex 45.4641 10.5359 1.5
      vertex 56 14.9 1.5
    endloop
  endfacet
  facet normal -0 0 1
    outer loop
      vertex 43.2721 12.7279 1.5
      vertex 45.4641 10.5359 1.5
      vertex 56 18 1.5
    endloop
  endfacet
  facet normal 0 0 1
    outer loop
      vertex 43.2721 12.7279 1.5
      vertex 41.1 1.83697e-16 1.5
      vertex 45.4641 10.5359 1.5
    endloop
  endfacet
  facet normal 0 -0 1
    outer loop
      vertex 41.1 1.83697e-16 1.5
      vertex 43.2721 12.7279 1.5
      vertex 38 1.83697e-16 1.5
    endloop
  endfacet
  facet normal -0 0 1
    outer loop
      vertex 70.9 1.83697e-16 1.5
      vertex 68.7279 -12.7279 1.5
      vertex 74 1.83697e-16 1.5
    endloop
  endfacet
  facet normal -0 0 1
    outer loop
      vertex 66.5359 -10.5359 1.5
      vertex 68.7279 -12.7279 1.5
      vertex 70.9 1.83697e-16 1.5
    endloop
  endfacet
  facet normal 0 0 1
    outer loop
      vertex 56 -14.9 1.5
      vertex 68.7279 -12.7279 1.5
      vertex 66.5359 -10.5359 1.5
    endloop
  endfacet
  facet normal -0 0 1
    outer loop
      vertex 56 -14.9 1.5
      vertex 56 -18 1.5
      vertex 68.7279 -12.7279 1.5
    endloop
  endfacet
  facet normal 0 0 1
    outer loop
      vertex 45.4641 -10.5359 1.5
      vertex 56 -18 1.5
      vertex 56 -14.9 1.5
    endloop
  endfacet
  facet normal 0 0 1
    outer loop
      vertex 45.4641 -10.5359 1.5
      vertex 43.2721 -12.7279 1.5
      vertex 56 -18 1.5
    endloop
  endfacet
  facet normal 0 0 1
    outer loop
      vertex 41.1 1.83697e-16 1.5
      vertex 43.2721 -12.7279 1.5
      vertex 45.4641 -10.5359 1.5
    endloop
  endfacet
  facet normal 0 0 1
    outer loop
      vertex 43.2721 -12.7279 1.5
      vertex 41.1 1.83697e-16 1.5
      vertex 38 1.83697e-16 1.5
    endloop
  endfacet
  facet normal 0 0 1
    outer loop
      vertex 64.4146 8.41457 1.5
      vertex 64.4146 -8.41457 1.5
      vertex 67.9 1.83697e-16 1.5
    endloop
  endfacet
  facet normal 0 0 1
    outer loop
      vertex 56 11.9 1.5
      vertex 64.4146 -8.41457 1.5
      vertex 64.4146 8.41457 1.5
    endloop
  endfacet
  facet normal 0 0 1
    outer loop
      vertex 56 11.9 1.5
      vertex 56 -11.9 1.5
      vertex 64.4146 -8.41457 1.5
    endloop
  endfacet
  facet normal -0 0 1
    outer loop
      vertex 47.5854 8.41457 1.5
      vertex 56 -11.9 1.5
      vertex 56 11.9 1.5
    endloop
  endfacet
  facet normal 0 0 1
    outer loop
      vertex 47.5854 8.41457 1.5
      vertex 47.5854 -8.41457 1.5
      vertex 56 -11.9 1.5
    endloop
  endfacet
  facet normal 0 -0 1
    outer loop
      vertex 47.5854 -8.41457 1.5
      vertex 47.5854 8.41457 1.5
      vertex 44.1 1.83697e-16 1.5
    endloop
  endfacet
  facet normal 0 0 -1
    outer loop
      vertex 68.7279 -12.7279 -1.5
      vertex 68.7279 12.7279 -1.5
      vertex 74 -1.83697e-16 -1.5
    endloop
  endfacet
  facet normal 0 0 -1
    outer loop
      vertex 56 -18 -1.5
      vertex 68.7279 12.7279 -1.5
      vertex 68.7279 -12.7279 -1.5
    endloop
  endfacet
  facet normal 0 0 -1
    outer loop
      vertex 56 -18 -1.5
      vertex 56 18 -1.5
      vertex 68.7279 12.7279 -1.5
    endloop
  endfacet
  facet normal 0 0 -1
    outer loop
      vertex 43.2721 -12.7279 -1.5
      vertex 56 18 -1.5
      vertex 56 -18 -1.5
    endloop
  endfacet
  facet normal 0 0 -1
    outer loop
      vertex 43.2721 -12.7279 -1.5
      vertex 43.2721 12.7279 -1.5
      vertex 56 18 -1.5
    endloop
  endfacet
  facet normal 0 -0 -1
    outer loop
      vertex 43.2721 12.7279 -1.5
      vertex 43.2721 -12.7279 -1.5
      vertex 38 -1.83697e-16 -1.5
    endloop
  endfacet
  facet normal -0.923879 -0.382684 0
    outer loop
      vertex 43.2721 -12.7279 -1.5
      vertex 38 1.83697e-16 1.5
      vertex 38 -1.83697e-16 -1.5
    endloop
  endfacet
  facet normal -0.923879 -0.382684 0
    outer loop
      vertex 38 1.83697e-16 1.5
      vertex 43.2721 -12.7279 -1.5
      vertex 43.2721 -12.7279 1.5
    endloop
  endfacet
  facet normal -0.382684 0.92388 0
    outer loop
      vertex 56 18 -1.5
      vertex 43.2721 12.7279 1.5
      vertex 56 18 1.5
    endloop
  endfacet
  facet normal -0.382684 0.92388 0
    outer loop
      vertex 43.2721 12.7279 1.5
      vertex 56 18 -1.5
      vertex 43.2721 12.7279 -1.5
    endloop
  endfacet
  facet normal 0.382684 0.92388 -0
    outer loop
      vertex 68.7279 12.7279 -1.5
      vertex 56 18 1.5
      vertex 68.7279 12.7279 1.5
    endloop
  endfacet
  facet normal 0.382684 0.92388 0
    outer loop
      vertex 56 18 1.5
      vertex 68.7279 12.7279 -1.5
      vertex 56 18 -1.5
    endloop
  endfacet
  facet normal -0.923879 0.382684 0
    outer loop
      vertex 43.2721 12.7279 -1.5
      vertex 38 1.83697e-16 1.5
      vertex 43.2721 12.7279 1.5
    endloop
  endfacet
  facet normal -0.923879 0.382684 -4.68652e-17
    outer loop
      vertex 38 1.83697e-16 1.5
      vertex 43.2721 12.7279 -1.5
      vertex 38 -1.83697e-16 -1.5
    endloop
  endfacet
  facet normal -0.382684 -0.92388 0
    outer loop
      vertex 43.2721 -12.7279 -1.5
      vertex 56 -18 1.5
      vertex 43.2721 -12.7279 1.5
    endloop
  endfacet
  facet normal -0.382684 -0.92388 -0
    outer loop
      vertex 56 -18 1.5
      vertex 43.2721 -12.7279 -1.5
      vertex 56 -18 -1.5
    endloop
  endfacet
  facet normal -0.382684 0.923879 0
    outer loop
      vertex 56 14.9 1.5
      vertex 45.4641 10.5359 15
      vertex 56 14.9 15
    endloop
  endfacet
  facet normal -0.382684 0.923879 0
    outer loop
      vertex 45.4641 10.5359 15
      vertex 56 14.9 1.5
      vertex 45.4641 10.5359 1.5
    endloop
  endfacet
  facet normal 0.923879 -0.382684 4.61531e-17
    outer loop
      vertex 66.5359 -10.5359 15
      vertex 70.9 1.83697e-16 1.5
      vertex 70.9 1.83697e-15 15
    endloop
  endfacet
  facet normal 0.923879 -0.382684 0
    outer loop
      vertex 70.9 1.83697e-16 1.5
      vertex 66.5359 -10.5359 15
      vertex 66.5359 -10.5359 1.5
    endloop
  endfacet
  facet normal 0.382684 0.923879 -0
    outer loop
      vertex 66.5359 10.5359 1.5
      vertex 56 14.9 15
      vertex 66.5359 10.5359 15
    endloop
  endfacet
  facet normal 0.382684 0.923879 0
    outer loop
      vertex 56 14.9 15
      vertex 66.5359 10.5359 1.5
      vertex 56 14.9 1.5
    endloop
  endfacet
  facet normal -0.923879 0.382684 0
    outer loop
      vertex 45.4641 10.5359 1.5
      vertex 41.1 1.83697e-15 15
      vertex 45.4641 10.5359 15
    endloop
  endfacet
  facet normal -0.923879 0.382684 -4.68652e-17
    outer loop
      vertex 41.1 1.83697e-15 15
      vertex 45.4641 10.5359 1.5
      vertex 41.1 1.83697e-16 1.5
    endloop
  endfacet
  facet normal 0.923879 0.382684 0
    outer loop
      vertex 70.9 1.83697e-15 15
      vertex 66.5359 10.5359 1.5
      vertex 66.5359 10.5359 15
    endloop
  endfacet
  facet normal 0.923879 0.382684 -4.61531e-17
    outer loop
      vertex 66.5359 10.5359 1.5
      vertex 70.9 1.83697e-15 15
      vertex 70.9 1.83697e-16 1.5
    endloop
  endfacet
  facet normal -0.923879 -0.382684 4.61531e-17
    outer loop
      vertex 45.4641 -10.5359 1.5
      vertex 41.1 1.83697e-15 15
      vertex 41.1 1.83697e-16 1.5
    endloop
  endfacet
  facet normal -0.923879 -0.382684 0
    outer loop
      vertex 41.1 1.83697e-15 15
      vertex 45.4641 -10.5359 1.5
      vertex 45.4641 -10.5359 15
    endloop
  endfacet
  facet normal 0.382684 -0.923879 0
    outer loop
      vertex 56 -14.9 1.5
      vertex 66.5359 -10.5359 15
      vertex 56 -14.9 15
    endloop
  endfacet
  facet normal 0.382684 -0.923879 0
    outer loop
      vertex 66.5359 -10.5359 15
      vertex 56 -14.9 1.5
      vertex 66.5359 -10.5359 1.5
    endloop
  endfacet
  facet normal -0.382684 -0.923879 0
    outer loop
      vertex 45.4641 -10.5359 1.5
      vertex 56 -14.9 15
      vertex 45.4641 -10.5359 15
    endloop
  endfacet
  facet normal -0.382684 -0.923879 -0
    outer loop
      vertex 56 -14.9 15
      vertex 45.4641 -10.5359 1.5
      vertex 56 -14.9 1.5
    endloop
  endfacet
  facet normal 0 0 1
    outer loop
      vertex 66.5359 10.5359 15
      vertex 67.9 1.83697e-15 15
      vertex 70.9 1.83697e-15 15
    endloop
  endfacet
  facet normal 0 0 1
    outer loop
      vertex 66.5359 10.5359 15
      vertex 64.4146 8.41457 15
      vertex 67.9 1.83697e-15 15
    endloop
  endfacet
  facet normal 0 0 1
    outer loop
      vertex 56 14.9 15
      vertex 64.4146 8.41457 15
      vertex 66.5359 10.5359 15
    endloop
  endfacet
  facet normal 0 0 1
    outer loop
      vertex 56 14.9 15
      vertex 56 11.9 15
      vertex 64.4146 8.41457 15
    endloop
  endfacet
  facet normal 0 0 1
    outer loop
      vertex 56 14.9 15
      vertex 47.5854 8.41457 15
      vertex 56 11.9 15
    endloop
  endfacet
  facet normal -0 0 1
    outer loop
      vertex 45.4641 10.5359 15
      vertex 47.5854 8.41457 15
      vertex 56 14.9 15
    endloop
  endfacet
  facet normal 0 0 1
    outer loop
      vertex 45.4641 10.5359 15
      vertex 44.1 1.83697e-15 15
      vertex 47.5854 8.41457 15
    endloop
  endfacet
  facet normal 0 -0 1
    outer loop
      vertex 44.1 1.83697e-15 15
      vertex 45.4641 10.5359 15
      vertex 41.1 1.83697e-15 15
    endloop
  endfacet
  facet normal -0 0 1
    outer loop
      vertex 67.9 1.83697e-15 15
      vertex 66.5359 -10.5359 15
      vertex 70.9 1.83697e-15 15
    endloop
  endfacet
  facet normal -0 0 1
    outer loop
      vertex 64.4146 -8.41457 15
      vertex 66.5359 -10.5359 15
      vertex 67.9 1.83697e-15 15
    endloop
  endfacet
  facet normal 0 0 1
    outer loop
      vertex 56 -11.9 15
      vertex 66.5359 -10.5359 15
      vertex 64.4146 -8.41457 15
    endloop
  endfacet
  facet normal -0 0 1
    outer loop
      vertex 56 -11.9 15
      vertex 56 -14.9 15
      vertex 66.5359 -10.5359 15
    endloop
  endfacet
  facet normal 0 0 1
    outer loop
      vertex 47.5854 -8.41457 15
      vertex 56 -14.9 15
      vertex 56 -11.9 15
    endloop
  endfacet
  facet normal 0 0 1
    outer loop
      vertex 47.5854 -8.41457 15
      vertex 45.4641 -10.5359 15
      vertex 56 -14.9 15
    endloop
  endfacet
  facet normal 0 0 1
    outer loop
      vertex 44.1 1.83697e-15 15
      vertex 45.4641 -10.5359 15
      vertex 47.5854 -8.41457 15
    endloop
  endfacet
  facet normal 0 0 1
    outer loop
      vertex 45.4641 -10.5359 15
      vertex 44.1 1.83697e-15 15
      vertex 41.1 1.83697e-15 15
    endloop
  endfacet
  facet normal -0.923879 -0.382684 0
    outer loop
      vertex 64.4146 8.41457 1.5
      vertex 67.9 1.83697e-15 15
      vertex 64.4146 8.41457 15
    endloop
  endfacet
  facet normal -0.923879 -0.382684 4.68653e-17
    outer loop
      vertex 67.9 1.83697e-15 15
      vertex 64.4146 8.41457 1.5
      vertex 67.9 1.83697e-16 1.5
    endloop
  endfacet
  facet normal -0.382684 0.923879 0
    outer loop
      vertex 64.4146 -8.41457 1.5
      vertex 56 -11.9 15
      vertex 64.4146 -8.41457 15
    endloop
  endfacet
  facet normal -0.382684 0.923879 0
    outer loop
      vertex 56 -11.9 15
      vertex 64.4146 -8.41457 1.5
      vertex 56 -11.9 1.5
    endloop
  endfacet
  facet normal -0.923879 0.382684 -5.77883e-17
    outer loop
      vertex 64.4146 -8.41457 1.5
      vertex 67.9 1.83697e-15 15
      vertex 67.9 1.83697e-16 1.5
    endloop
  endfacet
  facet normal -0.923879 0.382684 0
    outer loop
      vertex 67.9 1.83697e-15 15
      vertex 64.4146 -8.41457 1.5
      vertex 64.4146 -8.41457 15
    endloop
  endfacet
  facet normal 0.382684 -0.92388 0
    outer loop
      vertex 47.5854 8.41457 1.5
      vertex 56 11.9 15
      vertex 47.5854 8.41457 15
    endloop
  endfacet
  facet normal 0.382684 -0.92388 0
    outer loop
      vertex 56 11.9 15
      vertex 47.5854 8.41457 1.5
      vertex 56 11.9 1.5
    endloop
  endfacet
  facet normal 0.923879 0.382684 -5.77883e-17
    outer loop
      vertex 47.5854 -8.41457 15
      vertex 44.1 1.83697e-16 1.5
      vertex 44.1 1.83697e-15 15
    endloop
  endfacet
  facet normal 0.923879 0.382684 0
    outer loop
      vertex 44.1 1.83697e-16 1.5
      vertex 47.5854 -8.41457 15
      vertex 47.5854 -8.41457 1.5
    endloop
  endfacet
  facet normal -0.382684 -0.923879 0
    outer loop
      vertex 56 11.9 1.5
      vertex 64.4146 8.41457 15
      vertex 56 11.9 15
    endloop
  endfacet
  facet normal -0.382684 -0.923879 -0
    outer loop
      vertex 64.4146 8.41457 15
      vertex 56 11.9 1.5
      vertex 64.4146 8.41457 1.5
    endloop
  endfacet
  facet normal 0.923879 -0.382684 0
    outer loop
      vertex 44.1 1.83697e-15 15
      vertex 47.5854 8.41457 1.5
      vertex 47.5854 8.41457 15
    endloop
  endfacet
  facet normal 0.923879 -0.382684 5.77883e-17
    outer loop
      vertex 47.5854 8.41457 1.5
      vertex 44.1 1.83697e-15 15
      vertex 44.1 1.83697e-16 1.5
    endloop
  endfacet
  facet normal 0.382684 0.92388 -0
    outer loop
      vertex 56 -11.9 1.5
      vertex 47.5854 -8.41457 15
      vertex 56 -11.9 15
    endloop
  endfacet
  facet normal 0.382684 0.92388 0
    outer loop
      vertex 47.5854 -8.41457 15
      vertex 56 -11.9 1.5
      vertex 47.5854 -8.41457 1.5
    endloop
  endfacet
endsolid OpenSCAD_Model
