G04 #@! TF.GenerationSoftware,KiCad,Pcbnew,(5.0.0)*
G04 #@! TF.CreationDate,2018-11-17T14:21:24+01:00*
G04 #@! TF.ProjectId,photoDiode_MDversion,70686F746F44696F64655F4D44766572,rev?*
G04 #@! TF.SameCoordinates,Original*
G04 #@! TF.FileFunction,Legend,Bot*
G04 #@! TF.FilePolarity,Positive*
%FSLAX46Y46*%
G04 Gerber Fmt 4.6, Leading zero omitted, Abs format (unit mm)*
G04 Created by KiCad (PCBNEW (5.0.0)) date 11/17/18 14:21:24*
%MOMM*%
%LPD*%
G01*
G04 APERTURE LIST*
%ADD10C,0.120000*%
%ADD11C,0.150000*%
%ADD12C,0.100000*%
G04 APERTURE END LIST*
D10*
G04 #@! TO.C,R3*
X148712576Y-100200223D02*
X149229732Y-100200223D01*
X148712576Y-98780223D02*
X149229732Y-98780223D01*
G04 #@! TO.C,R4*
X149254732Y-98225223D02*
X148737576Y-98225223D01*
X149254732Y-96805223D02*
X148737576Y-96805223D01*
G04 #@! TO.C,C2*
X144925000Y-95650000D02*
X143925000Y-95650000D01*
X143925000Y-93950000D02*
X144925000Y-93950000D01*
G04 #@! TO.C,R1*
X144708578Y-92265000D02*
X144191422Y-92265000D01*
X144708578Y-93685000D02*
X144191422Y-93685000D01*
G04 #@! TO.C,R2*
X144683578Y-89815000D02*
X144166422Y-89815000D01*
X144683578Y-91235000D02*
X144166422Y-91235000D01*
G04 #@! TO.C,C1*
X156075000Y-94900000D02*
X156075000Y-95900000D01*
X154375000Y-95900000D02*
X154375000Y-94900000D01*
G04 #@! TO.C,J1*
X160665000Y-97610000D02*
X159365000Y-97610000D01*
X159365000Y-97610000D02*
X159365000Y-96560000D01*
X159365000Y-96560000D02*
X158525000Y-96560000D01*
X160665000Y-92390000D02*
X159365000Y-92390000D01*
X159365000Y-92390000D02*
X159365000Y-93440000D01*
X162585000Y-96440000D02*
X162585000Y-93560000D01*
G04 #@! TO.C,C3*
X153800000Y-99300000D02*
X154800000Y-99300000D01*
X154800000Y-101000000D02*
X153800000Y-101000000D01*
G04 #@! TO.C,C4*
X144925000Y-89475000D02*
X143925000Y-89475000D01*
X143925000Y-87775000D02*
X144925000Y-87775000D01*
G04 #@! TO.C,L1*
X154658578Y-97515000D02*
X154141422Y-97515000D01*
X154658578Y-98935000D02*
X154141422Y-98935000D01*
D11*
G04 #@! TO.C,U1*
X150375000Y-93025000D02*
X150375000Y-92975000D01*
X154525000Y-93025000D02*
X154525000Y-92880000D01*
X154525000Y-87875000D02*
X154525000Y-88020000D01*
X150375000Y-87875000D02*
X150375000Y-88020000D01*
X150375000Y-93025000D02*
X154525000Y-93025000D01*
X150375000Y-87875000D02*
X154525000Y-87875000D01*
X150375000Y-92975000D02*
X148975000Y-92975000D01*
D12*
G04 #@! TO.C,U2*
X157150000Y-103150000D02*
X157150000Y-86850000D01*
X140850000Y-103150000D02*
X140850000Y-86850000D01*
X157150000Y-86850000D02*
X140850000Y-86850000D01*
X157150000Y-103150000D02*
X140850000Y-103150000D01*
G04 #@! TO.C,R3*
D11*
X146466666Y-99952380D02*
X146800000Y-99476190D01*
X147038095Y-99952380D02*
X147038095Y-98952380D01*
X146657142Y-98952380D01*
X146561904Y-99000000D01*
X146514285Y-99047619D01*
X146466666Y-99142857D01*
X146466666Y-99285714D01*
X146514285Y-99380952D01*
X146561904Y-99428571D01*
X146657142Y-99476190D01*
X147038095Y-99476190D01*
X146133333Y-98952380D02*
X145514285Y-98952380D01*
X145847619Y-99333333D01*
X145704761Y-99333333D01*
X145609523Y-99380952D01*
X145561904Y-99428571D01*
X145514285Y-99523809D01*
X145514285Y-99761904D01*
X145561904Y-99857142D01*
X145609523Y-99904761D01*
X145704761Y-99952380D01*
X145990476Y-99952380D01*
X146085714Y-99904761D01*
X146133333Y-99857142D01*
G04 #@! TO.C,R4*
X146470666Y-98002380D02*
X146804000Y-97526190D01*
X147042095Y-98002380D02*
X147042095Y-97002380D01*
X146661142Y-97002380D01*
X146565904Y-97050000D01*
X146518285Y-97097619D01*
X146470666Y-97192857D01*
X146470666Y-97335714D01*
X146518285Y-97430952D01*
X146565904Y-97478571D01*
X146661142Y-97526190D01*
X147042095Y-97526190D01*
X145613523Y-97335714D02*
X145613523Y-98002380D01*
X145851619Y-96954761D02*
X146089714Y-97669047D01*
X145470666Y-97669047D01*
G04 #@! TO.C,C2*
X144591666Y-96657142D02*
X144639285Y-96704761D01*
X144782142Y-96752380D01*
X144877380Y-96752380D01*
X145020238Y-96704761D01*
X145115476Y-96609523D01*
X145163095Y-96514285D01*
X145210714Y-96323809D01*
X145210714Y-96180952D01*
X145163095Y-95990476D01*
X145115476Y-95895238D01*
X145020238Y-95800000D01*
X144877380Y-95752380D01*
X144782142Y-95752380D01*
X144639285Y-95800000D01*
X144591666Y-95847619D01*
X144210714Y-95847619D02*
X144163095Y-95800000D01*
X144067857Y-95752380D01*
X143829761Y-95752380D01*
X143734523Y-95800000D01*
X143686904Y-95847619D01*
X143639285Y-95942857D01*
X143639285Y-96038095D01*
X143686904Y-96180952D01*
X144258333Y-96752380D01*
X143639285Y-96752380D01*
G04 #@! TO.C,R1*
X147276666Y-93392380D02*
X147610000Y-92916190D01*
X147848095Y-93392380D02*
X147848095Y-92392380D01*
X147467142Y-92392380D01*
X147371904Y-92440000D01*
X147324285Y-92487619D01*
X147276666Y-92582857D01*
X147276666Y-92725714D01*
X147324285Y-92820952D01*
X147371904Y-92868571D01*
X147467142Y-92916190D01*
X147848095Y-92916190D01*
X146324285Y-93392380D02*
X146895714Y-93392380D01*
X146610000Y-93392380D02*
X146610000Y-92392380D01*
X146705238Y-92535238D01*
X146800476Y-92630476D01*
X146895714Y-92678095D01*
G04 #@! TO.C,R2*
X147406666Y-90962380D02*
X147740000Y-90486190D01*
X147978095Y-90962380D02*
X147978095Y-89962380D01*
X147597142Y-89962380D01*
X147501904Y-90010000D01*
X147454285Y-90057619D01*
X147406666Y-90152857D01*
X147406666Y-90295714D01*
X147454285Y-90390952D01*
X147501904Y-90438571D01*
X147597142Y-90486190D01*
X147978095Y-90486190D01*
X147025714Y-90057619D02*
X146978095Y-90010000D01*
X146882857Y-89962380D01*
X146644761Y-89962380D01*
X146549523Y-90010000D01*
X146501904Y-90057619D01*
X146454285Y-90152857D01*
X146454285Y-90248095D01*
X146501904Y-90390952D01*
X147073333Y-90962380D01*
X146454285Y-90962380D01*
G04 #@! TO.C,C1*
X154082142Y-95233333D02*
X154129761Y-95185714D01*
X154177380Y-95042857D01*
X154177380Y-94947619D01*
X154129761Y-94804761D01*
X154034523Y-94709523D01*
X153939285Y-94661904D01*
X153748809Y-94614285D01*
X153605952Y-94614285D01*
X153415476Y-94661904D01*
X153320238Y-94709523D01*
X153225000Y-94804761D01*
X153177380Y-94947619D01*
X153177380Y-95042857D01*
X153225000Y-95185714D01*
X153272619Y-95233333D01*
X154177380Y-96185714D02*
X154177380Y-95614285D01*
X154177380Y-95900000D02*
X153177380Y-95900000D01*
X153320238Y-95804761D01*
X153415476Y-95709523D01*
X153463095Y-95614285D01*
G04 #@! TO.C,J1*
X160052380Y-90716666D02*
X160766666Y-90716666D01*
X160909523Y-90669047D01*
X161004761Y-90573809D01*
X161052380Y-90430952D01*
X161052380Y-90335714D01*
X161052380Y-91716666D02*
X161052380Y-91145238D01*
X161052380Y-91430952D02*
X160052380Y-91430952D01*
X160195238Y-91335714D01*
X160290476Y-91240476D01*
X160338095Y-91145238D01*
G04 #@! TO.C,C3*
X154466666Y-102007142D02*
X154514285Y-102054761D01*
X154657142Y-102102380D01*
X154752380Y-102102380D01*
X154895238Y-102054761D01*
X154990476Y-101959523D01*
X155038095Y-101864285D01*
X155085714Y-101673809D01*
X155085714Y-101530952D01*
X155038095Y-101340476D01*
X154990476Y-101245238D01*
X154895238Y-101150000D01*
X154752380Y-101102380D01*
X154657142Y-101102380D01*
X154514285Y-101150000D01*
X154466666Y-101197619D01*
X154133333Y-101102380D02*
X153514285Y-101102380D01*
X153847619Y-101483333D01*
X153704761Y-101483333D01*
X153609523Y-101530952D01*
X153561904Y-101578571D01*
X153514285Y-101673809D01*
X153514285Y-101911904D01*
X153561904Y-102007142D01*
X153609523Y-102054761D01*
X153704761Y-102102380D01*
X153990476Y-102102380D01*
X154085714Y-102054761D01*
X154133333Y-102007142D01*
G04 #@! TO.C,C4*
X147456666Y-88987142D02*
X147504285Y-89034761D01*
X147647142Y-89082380D01*
X147742380Y-89082380D01*
X147885238Y-89034761D01*
X147980476Y-88939523D01*
X148028095Y-88844285D01*
X148075714Y-88653809D01*
X148075714Y-88510952D01*
X148028095Y-88320476D01*
X147980476Y-88225238D01*
X147885238Y-88130000D01*
X147742380Y-88082380D01*
X147647142Y-88082380D01*
X147504285Y-88130000D01*
X147456666Y-88177619D01*
X146599523Y-88415714D02*
X146599523Y-89082380D01*
X146837619Y-88034761D02*
X147075714Y-88749047D01*
X146456666Y-88749047D01*
G04 #@! TO.C,L1*
X151966666Y-98682380D02*
X152442857Y-98682380D01*
X152442857Y-97682380D01*
X151109523Y-98682380D02*
X151680952Y-98682380D01*
X151395238Y-98682380D02*
X151395238Y-97682380D01*
X151490476Y-97825238D01*
X151585714Y-97920476D01*
X151680952Y-97968095D01*
G04 #@! TO.C,U1*
X153211904Y-91652380D02*
X153211904Y-92461904D01*
X153164285Y-92557142D01*
X153116666Y-92604761D01*
X153021428Y-92652380D01*
X152830952Y-92652380D01*
X152735714Y-92604761D01*
X152688095Y-92557142D01*
X152640476Y-92461904D01*
X152640476Y-91652380D01*
X151640476Y-92652380D02*
X152211904Y-92652380D01*
X151926190Y-92652380D02*
X151926190Y-91652380D01*
X152021428Y-91795238D01*
X152116666Y-91890476D01*
X152211904Y-91938095D01*
G04 #@! TO.C,U2*
X143361904Y-101202380D02*
X143361904Y-102011904D01*
X143314285Y-102107142D01*
X143266666Y-102154761D01*
X143171428Y-102202380D01*
X142980952Y-102202380D01*
X142885714Y-102154761D01*
X142838095Y-102107142D01*
X142790476Y-102011904D01*
X142790476Y-101202380D01*
X142361904Y-101297619D02*
X142314285Y-101250000D01*
X142219047Y-101202380D01*
X141980952Y-101202380D01*
X141885714Y-101250000D01*
X141838095Y-101297619D01*
X141790476Y-101392857D01*
X141790476Y-101488095D01*
X141838095Y-101630952D01*
X142409523Y-102202380D01*
X141790476Y-102202380D01*
G04 #@! TD*
M02*
