G04 #@! TF.GenerationSoftware,KiCad,Pcbnew,(5.0.0)*
G04 #@! TF.CreationDate,2019-03-24T09:47:22+01:00*
G04 #@! TF.ProjectId,photoDiode_MDversion1.2,70686F746F44696F64655F4D44766572,rev?*
G04 #@! TF.SameCoordinates,Original*
G04 #@! TF.FileFunction,Soldermask,Bot*
G04 #@! TF.FilePolarity,Negative*
%FSLAX46Y46*%
G04 Gerber Fmt 4.6, Leading zero omitted, Abs format (unit mm)*
G04 Created by KiCad (PCBNEW (5.0.0)) date 03/24/19 09:47:22*
%MOMM*%
%LPD*%
G01*
G04 APERTURE LIST*
%ADD10R,1.400000X1.100000*%
%ADD11R,1.200000X1.450000*%
%ADD12C,0.100000*%
%ADD13C,1.175000*%
%ADD14R,1.450000X1.200000*%
%ADD15O,1.800000X1.400000*%
%ADD16O,1.400000X1.400000*%
%ADD17R,1.750000X0.800000*%
%ADD18R,2.000000X1.400000*%
%ADD19R,1.200000X4.000000*%
%ADD20R,4.000000X1.200000*%
%ADD21C,1.000000*%
%ADD22C,2.400000*%
G04 APERTURE END LIST*
D10*
G04 #@! TO.C,D2*
X149500000Y-98660000D03*
X149500000Y-95360000D03*
G04 #@! TD*
D11*
G04 #@! TO.C,C5*
X149270000Y-93770000D03*
X151270000Y-93770000D03*
G04 #@! TD*
D12*
G04 #@! TO.C,R6*
G36*
X156515043Y-91206414D02*
X156543558Y-91210644D01*
X156571521Y-91217649D01*
X156598663Y-91227360D01*
X156624723Y-91239686D01*
X156649449Y-91254506D01*
X156672603Y-91271678D01*
X156693963Y-91291037D01*
X156713322Y-91312397D01*
X156730494Y-91335551D01*
X156745314Y-91360277D01*
X156757640Y-91386337D01*
X156767351Y-91413479D01*
X156774356Y-91441442D01*
X156778586Y-91469957D01*
X156780000Y-91498750D01*
X156780000Y-92086250D01*
X156778586Y-92115043D01*
X156774356Y-92143558D01*
X156767351Y-92171521D01*
X156757640Y-92198663D01*
X156745314Y-92224723D01*
X156730494Y-92249449D01*
X156713322Y-92272603D01*
X156693963Y-92293963D01*
X156672603Y-92313322D01*
X156649449Y-92330494D01*
X156624723Y-92345314D01*
X156598663Y-92357640D01*
X156571521Y-92367351D01*
X156543558Y-92374356D01*
X156515043Y-92378586D01*
X156486250Y-92380000D01*
X155473750Y-92380000D01*
X155444957Y-92378586D01*
X155416442Y-92374356D01*
X155388479Y-92367351D01*
X155361337Y-92357640D01*
X155335277Y-92345314D01*
X155310551Y-92330494D01*
X155287397Y-92313322D01*
X155266037Y-92293963D01*
X155246678Y-92272603D01*
X155229506Y-92249449D01*
X155214686Y-92224723D01*
X155202360Y-92198663D01*
X155192649Y-92171521D01*
X155185644Y-92143558D01*
X155181414Y-92115043D01*
X155180000Y-92086250D01*
X155180000Y-91498750D01*
X155181414Y-91469957D01*
X155185644Y-91441442D01*
X155192649Y-91413479D01*
X155202360Y-91386337D01*
X155214686Y-91360277D01*
X155229506Y-91335551D01*
X155246678Y-91312397D01*
X155266037Y-91291037D01*
X155287397Y-91271678D01*
X155310551Y-91254506D01*
X155335277Y-91239686D01*
X155361337Y-91227360D01*
X155388479Y-91217649D01*
X155416442Y-91210644D01*
X155444957Y-91206414D01*
X155473750Y-91205000D01*
X156486250Y-91205000D01*
X156515043Y-91206414D01*
X156515043Y-91206414D01*
G37*
D13*
X155980000Y-91792500D03*
D12*
G36*
X156515043Y-93081414D02*
X156543558Y-93085644D01*
X156571521Y-93092649D01*
X156598663Y-93102360D01*
X156624723Y-93114686D01*
X156649449Y-93129506D01*
X156672603Y-93146678D01*
X156693963Y-93166037D01*
X156713322Y-93187397D01*
X156730494Y-93210551D01*
X156745314Y-93235277D01*
X156757640Y-93261337D01*
X156767351Y-93288479D01*
X156774356Y-93316442D01*
X156778586Y-93344957D01*
X156780000Y-93373750D01*
X156780000Y-93961250D01*
X156778586Y-93990043D01*
X156774356Y-94018558D01*
X156767351Y-94046521D01*
X156757640Y-94073663D01*
X156745314Y-94099723D01*
X156730494Y-94124449D01*
X156713322Y-94147603D01*
X156693963Y-94168963D01*
X156672603Y-94188322D01*
X156649449Y-94205494D01*
X156624723Y-94220314D01*
X156598663Y-94232640D01*
X156571521Y-94242351D01*
X156543558Y-94249356D01*
X156515043Y-94253586D01*
X156486250Y-94255000D01*
X155473750Y-94255000D01*
X155444957Y-94253586D01*
X155416442Y-94249356D01*
X155388479Y-94242351D01*
X155361337Y-94232640D01*
X155335277Y-94220314D01*
X155310551Y-94205494D01*
X155287397Y-94188322D01*
X155266037Y-94168963D01*
X155246678Y-94147603D01*
X155229506Y-94124449D01*
X155214686Y-94099723D01*
X155202360Y-94073663D01*
X155192649Y-94046521D01*
X155185644Y-94018558D01*
X155181414Y-93990043D01*
X155180000Y-93961250D01*
X155180000Y-93373750D01*
X155181414Y-93344957D01*
X155185644Y-93316442D01*
X155192649Y-93288479D01*
X155202360Y-93261337D01*
X155214686Y-93235277D01*
X155229506Y-93210551D01*
X155246678Y-93187397D01*
X155266037Y-93166037D01*
X155287397Y-93146678D01*
X155310551Y-93129506D01*
X155335277Y-93114686D01*
X155361337Y-93102360D01*
X155388479Y-93092649D01*
X155416442Y-93085644D01*
X155444957Y-93081414D01*
X155473750Y-93080000D01*
X156486250Y-93080000D01*
X156515043Y-93081414D01*
X156515043Y-93081414D01*
G37*
D13*
X155980000Y-93667500D03*
G04 #@! TD*
D12*
G04 #@! TO.C,R3*
G36*
X145975043Y-96361414D02*
X146003558Y-96365644D01*
X146031521Y-96372649D01*
X146058663Y-96382360D01*
X146084723Y-96394686D01*
X146109449Y-96409506D01*
X146132603Y-96426678D01*
X146153963Y-96446037D01*
X146173322Y-96467397D01*
X146190494Y-96490551D01*
X146205314Y-96515277D01*
X146217640Y-96541337D01*
X146227351Y-96568479D01*
X146234356Y-96596442D01*
X146238586Y-96624957D01*
X146240000Y-96653750D01*
X146240000Y-97666250D01*
X146238586Y-97695043D01*
X146234356Y-97723558D01*
X146227351Y-97751521D01*
X146217640Y-97778663D01*
X146205314Y-97804723D01*
X146190494Y-97829449D01*
X146173322Y-97852603D01*
X146153963Y-97873963D01*
X146132603Y-97893322D01*
X146109449Y-97910494D01*
X146084723Y-97925314D01*
X146058663Y-97937640D01*
X146031521Y-97947351D01*
X146003558Y-97954356D01*
X145975043Y-97958586D01*
X145946250Y-97960000D01*
X145358750Y-97960000D01*
X145329957Y-97958586D01*
X145301442Y-97954356D01*
X145273479Y-97947351D01*
X145246337Y-97937640D01*
X145220277Y-97925314D01*
X145195551Y-97910494D01*
X145172397Y-97893322D01*
X145151037Y-97873963D01*
X145131678Y-97852603D01*
X145114506Y-97829449D01*
X145099686Y-97804723D01*
X145087360Y-97778663D01*
X145077649Y-97751521D01*
X145070644Y-97723558D01*
X145066414Y-97695043D01*
X145065000Y-97666250D01*
X145065000Y-96653750D01*
X145066414Y-96624957D01*
X145070644Y-96596442D01*
X145077649Y-96568479D01*
X145087360Y-96541337D01*
X145099686Y-96515277D01*
X145114506Y-96490551D01*
X145131678Y-96467397D01*
X145151037Y-96446037D01*
X145172397Y-96426678D01*
X145195551Y-96409506D01*
X145220277Y-96394686D01*
X145246337Y-96382360D01*
X145273479Y-96372649D01*
X145301442Y-96365644D01*
X145329957Y-96361414D01*
X145358750Y-96360000D01*
X145946250Y-96360000D01*
X145975043Y-96361414D01*
X145975043Y-96361414D01*
G37*
D13*
X145652500Y-97160000D03*
D12*
G36*
X147850043Y-96361414D02*
X147878558Y-96365644D01*
X147906521Y-96372649D01*
X147933663Y-96382360D01*
X147959723Y-96394686D01*
X147984449Y-96409506D01*
X148007603Y-96426678D01*
X148028963Y-96446037D01*
X148048322Y-96467397D01*
X148065494Y-96490551D01*
X148080314Y-96515277D01*
X148092640Y-96541337D01*
X148102351Y-96568479D01*
X148109356Y-96596442D01*
X148113586Y-96624957D01*
X148115000Y-96653750D01*
X148115000Y-97666250D01*
X148113586Y-97695043D01*
X148109356Y-97723558D01*
X148102351Y-97751521D01*
X148092640Y-97778663D01*
X148080314Y-97804723D01*
X148065494Y-97829449D01*
X148048322Y-97852603D01*
X148028963Y-97873963D01*
X148007603Y-97893322D01*
X147984449Y-97910494D01*
X147959723Y-97925314D01*
X147933663Y-97937640D01*
X147906521Y-97947351D01*
X147878558Y-97954356D01*
X147850043Y-97958586D01*
X147821250Y-97960000D01*
X147233750Y-97960000D01*
X147204957Y-97958586D01*
X147176442Y-97954356D01*
X147148479Y-97947351D01*
X147121337Y-97937640D01*
X147095277Y-97925314D01*
X147070551Y-97910494D01*
X147047397Y-97893322D01*
X147026037Y-97873963D01*
X147006678Y-97852603D01*
X146989506Y-97829449D01*
X146974686Y-97804723D01*
X146962360Y-97778663D01*
X146952649Y-97751521D01*
X146945644Y-97723558D01*
X146941414Y-97695043D01*
X146940000Y-97666250D01*
X146940000Y-96653750D01*
X146941414Y-96624957D01*
X146945644Y-96596442D01*
X146952649Y-96568479D01*
X146962360Y-96541337D01*
X146974686Y-96515277D01*
X146989506Y-96490551D01*
X147006678Y-96467397D01*
X147026037Y-96446037D01*
X147047397Y-96426678D01*
X147070551Y-96409506D01*
X147095277Y-96394686D01*
X147121337Y-96382360D01*
X147148479Y-96372649D01*
X147176442Y-96365644D01*
X147204957Y-96361414D01*
X147233750Y-96360000D01*
X147821250Y-96360000D01*
X147850043Y-96361414D01*
X147850043Y-96361414D01*
G37*
D13*
X147527500Y-97160000D03*
G04 #@! TD*
D12*
G04 #@! TO.C,R4*
G36*
X156505043Y-89711414D02*
X156533558Y-89715644D01*
X156561521Y-89722649D01*
X156588663Y-89732360D01*
X156614723Y-89744686D01*
X156639449Y-89759506D01*
X156662603Y-89776678D01*
X156683963Y-89796037D01*
X156703322Y-89817397D01*
X156720494Y-89840551D01*
X156735314Y-89865277D01*
X156747640Y-89891337D01*
X156757351Y-89918479D01*
X156764356Y-89946442D01*
X156768586Y-89974957D01*
X156770000Y-90003750D01*
X156770000Y-90591250D01*
X156768586Y-90620043D01*
X156764356Y-90648558D01*
X156757351Y-90676521D01*
X156747640Y-90703663D01*
X156735314Y-90729723D01*
X156720494Y-90754449D01*
X156703322Y-90777603D01*
X156683963Y-90798963D01*
X156662603Y-90818322D01*
X156639449Y-90835494D01*
X156614723Y-90850314D01*
X156588663Y-90862640D01*
X156561521Y-90872351D01*
X156533558Y-90879356D01*
X156505043Y-90883586D01*
X156476250Y-90885000D01*
X155463750Y-90885000D01*
X155434957Y-90883586D01*
X155406442Y-90879356D01*
X155378479Y-90872351D01*
X155351337Y-90862640D01*
X155325277Y-90850314D01*
X155300551Y-90835494D01*
X155277397Y-90818322D01*
X155256037Y-90798963D01*
X155236678Y-90777603D01*
X155219506Y-90754449D01*
X155204686Y-90729723D01*
X155192360Y-90703663D01*
X155182649Y-90676521D01*
X155175644Y-90648558D01*
X155171414Y-90620043D01*
X155170000Y-90591250D01*
X155170000Y-90003750D01*
X155171414Y-89974957D01*
X155175644Y-89946442D01*
X155182649Y-89918479D01*
X155192360Y-89891337D01*
X155204686Y-89865277D01*
X155219506Y-89840551D01*
X155236678Y-89817397D01*
X155256037Y-89796037D01*
X155277397Y-89776678D01*
X155300551Y-89759506D01*
X155325277Y-89744686D01*
X155351337Y-89732360D01*
X155378479Y-89722649D01*
X155406442Y-89715644D01*
X155434957Y-89711414D01*
X155463750Y-89710000D01*
X156476250Y-89710000D01*
X156505043Y-89711414D01*
X156505043Y-89711414D01*
G37*
D13*
X155970000Y-90297500D03*
D12*
G36*
X156505043Y-87836414D02*
X156533558Y-87840644D01*
X156561521Y-87847649D01*
X156588663Y-87857360D01*
X156614723Y-87869686D01*
X156639449Y-87884506D01*
X156662603Y-87901678D01*
X156683963Y-87921037D01*
X156703322Y-87942397D01*
X156720494Y-87965551D01*
X156735314Y-87990277D01*
X156747640Y-88016337D01*
X156757351Y-88043479D01*
X156764356Y-88071442D01*
X156768586Y-88099957D01*
X156770000Y-88128750D01*
X156770000Y-88716250D01*
X156768586Y-88745043D01*
X156764356Y-88773558D01*
X156757351Y-88801521D01*
X156747640Y-88828663D01*
X156735314Y-88854723D01*
X156720494Y-88879449D01*
X156703322Y-88902603D01*
X156683963Y-88923963D01*
X156662603Y-88943322D01*
X156639449Y-88960494D01*
X156614723Y-88975314D01*
X156588663Y-88987640D01*
X156561521Y-88997351D01*
X156533558Y-89004356D01*
X156505043Y-89008586D01*
X156476250Y-89010000D01*
X155463750Y-89010000D01*
X155434957Y-89008586D01*
X155406442Y-89004356D01*
X155378479Y-88997351D01*
X155351337Y-88987640D01*
X155325277Y-88975314D01*
X155300551Y-88960494D01*
X155277397Y-88943322D01*
X155256037Y-88923963D01*
X155236678Y-88902603D01*
X155219506Y-88879449D01*
X155204686Y-88854723D01*
X155192360Y-88828663D01*
X155182649Y-88801521D01*
X155175644Y-88773558D01*
X155171414Y-88745043D01*
X155170000Y-88716250D01*
X155170000Y-88128750D01*
X155171414Y-88099957D01*
X155175644Y-88071442D01*
X155182649Y-88043479D01*
X155192360Y-88016337D01*
X155204686Y-87990277D01*
X155219506Y-87965551D01*
X155236678Y-87942397D01*
X155256037Y-87921037D01*
X155277397Y-87901678D01*
X155300551Y-87884506D01*
X155325277Y-87869686D01*
X155351337Y-87857360D01*
X155378479Y-87847649D01*
X155406442Y-87840644D01*
X155434957Y-87836414D01*
X155463750Y-87835000D01*
X156476250Y-87835000D01*
X156505043Y-87836414D01*
X156505043Y-87836414D01*
G37*
D13*
X155970000Y-88422500D03*
G04 #@! TD*
D11*
G04 #@! TO.C,C2*
X143630000Y-95000000D03*
X145630000Y-95000000D03*
G04 #@! TD*
D12*
G04 #@! TO.C,R1*
G36*
X146045043Y-89666414D02*
X146073558Y-89670644D01*
X146101521Y-89677649D01*
X146128663Y-89687360D01*
X146154723Y-89699686D01*
X146179449Y-89714506D01*
X146202603Y-89731678D01*
X146223963Y-89751037D01*
X146243322Y-89772397D01*
X146260494Y-89795551D01*
X146275314Y-89820277D01*
X146287640Y-89846337D01*
X146297351Y-89873479D01*
X146304356Y-89901442D01*
X146308586Y-89929957D01*
X146310000Y-89958750D01*
X146310000Y-90546250D01*
X146308586Y-90575043D01*
X146304356Y-90603558D01*
X146297351Y-90631521D01*
X146287640Y-90658663D01*
X146275314Y-90684723D01*
X146260494Y-90709449D01*
X146243322Y-90732603D01*
X146223963Y-90753963D01*
X146202603Y-90773322D01*
X146179449Y-90790494D01*
X146154723Y-90805314D01*
X146128663Y-90817640D01*
X146101521Y-90827351D01*
X146073558Y-90834356D01*
X146045043Y-90838586D01*
X146016250Y-90840000D01*
X145003750Y-90840000D01*
X144974957Y-90838586D01*
X144946442Y-90834356D01*
X144918479Y-90827351D01*
X144891337Y-90817640D01*
X144865277Y-90805314D01*
X144840551Y-90790494D01*
X144817397Y-90773322D01*
X144796037Y-90753963D01*
X144776678Y-90732603D01*
X144759506Y-90709449D01*
X144744686Y-90684723D01*
X144732360Y-90658663D01*
X144722649Y-90631521D01*
X144715644Y-90603558D01*
X144711414Y-90575043D01*
X144710000Y-90546250D01*
X144710000Y-89958750D01*
X144711414Y-89929957D01*
X144715644Y-89901442D01*
X144722649Y-89873479D01*
X144732360Y-89846337D01*
X144744686Y-89820277D01*
X144759506Y-89795551D01*
X144776678Y-89772397D01*
X144796037Y-89751037D01*
X144817397Y-89731678D01*
X144840551Y-89714506D01*
X144865277Y-89699686D01*
X144891337Y-89687360D01*
X144918479Y-89677649D01*
X144946442Y-89670644D01*
X144974957Y-89666414D01*
X145003750Y-89665000D01*
X146016250Y-89665000D01*
X146045043Y-89666414D01*
X146045043Y-89666414D01*
G37*
D13*
X145510000Y-90252500D03*
D12*
G36*
X146045043Y-91541414D02*
X146073558Y-91545644D01*
X146101521Y-91552649D01*
X146128663Y-91562360D01*
X146154723Y-91574686D01*
X146179449Y-91589506D01*
X146202603Y-91606678D01*
X146223963Y-91626037D01*
X146243322Y-91647397D01*
X146260494Y-91670551D01*
X146275314Y-91695277D01*
X146287640Y-91721337D01*
X146297351Y-91748479D01*
X146304356Y-91776442D01*
X146308586Y-91804957D01*
X146310000Y-91833750D01*
X146310000Y-92421250D01*
X146308586Y-92450043D01*
X146304356Y-92478558D01*
X146297351Y-92506521D01*
X146287640Y-92533663D01*
X146275314Y-92559723D01*
X146260494Y-92584449D01*
X146243322Y-92607603D01*
X146223963Y-92628963D01*
X146202603Y-92648322D01*
X146179449Y-92665494D01*
X146154723Y-92680314D01*
X146128663Y-92692640D01*
X146101521Y-92702351D01*
X146073558Y-92709356D01*
X146045043Y-92713586D01*
X146016250Y-92715000D01*
X145003750Y-92715000D01*
X144974957Y-92713586D01*
X144946442Y-92709356D01*
X144918479Y-92702351D01*
X144891337Y-92692640D01*
X144865277Y-92680314D01*
X144840551Y-92665494D01*
X144817397Y-92648322D01*
X144796037Y-92628963D01*
X144776678Y-92607603D01*
X144759506Y-92584449D01*
X144744686Y-92559723D01*
X144732360Y-92533663D01*
X144722649Y-92506521D01*
X144715644Y-92478558D01*
X144711414Y-92450043D01*
X144710000Y-92421250D01*
X144710000Y-91833750D01*
X144711414Y-91804957D01*
X144715644Y-91776442D01*
X144722649Y-91748479D01*
X144732360Y-91721337D01*
X144744686Y-91695277D01*
X144759506Y-91670551D01*
X144776678Y-91647397D01*
X144796037Y-91626037D01*
X144817397Y-91606678D01*
X144840551Y-91589506D01*
X144865277Y-91574686D01*
X144891337Y-91562360D01*
X144918479Y-91552649D01*
X144946442Y-91545644D01*
X144974957Y-91541414D01*
X145003750Y-91540000D01*
X146016250Y-91540000D01*
X146045043Y-91541414D01*
X146045043Y-91541414D01*
G37*
D13*
X145510000Y-92127500D03*
G04 #@! TD*
D12*
G04 #@! TO.C,R2*
G36*
X144155043Y-89666414D02*
X144183558Y-89670644D01*
X144211521Y-89677649D01*
X144238663Y-89687360D01*
X144264723Y-89699686D01*
X144289449Y-89714506D01*
X144312603Y-89731678D01*
X144333963Y-89751037D01*
X144353322Y-89772397D01*
X144370494Y-89795551D01*
X144385314Y-89820277D01*
X144397640Y-89846337D01*
X144407351Y-89873479D01*
X144414356Y-89901442D01*
X144418586Y-89929957D01*
X144420000Y-89958750D01*
X144420000Y-90546250D01*
X144418586Y-90575043D01*
X144414356Y-90603558D01*
X144407351Y-90631521D01*
X144397640Y-90658663D01*
X144385314Y-90684723D01*
X144370494Y-90709449D01*
X144353322Y-90732603D01*
X144333963Y-90753963D01*
X144312603Y-90773322D01*
X144289449Y-90790494D01*
X144264723Y-90805314D01*
X144238663Y-90817640D01*
X144211521Y-90827351D01*
X144183558Y-90834356D01*
X144155043Y-90838586D01*
X144126250Y-90840000D01*
X143113750Y-90840000D01*
X143084957Y-90838586D01*
X143056442Y-90834356D01*
X143028479Y-90827351D01*
X143001337Y-90817640D01*
X142975277Y-90805314D01*
X142950551Y-90790494D01*
X142927397Y-90773322D01*
X142906037Y-90753963D01*
X142886678Y-90732603D01*
X142869506Y-90709449D01*
X142854686Y-90684723D01*
X142842360Y-90658663D01*
X142832649Y-90631521D01*
X142825644Y-90603558D01*
X142821414Y-90575043D01*
X142820000Y-90546250D01*
X142820000Y-89958750D01*
X142821414Y-89929957D01*
X142825644Y-89901442D01*
X142832649Y-89873479D01*
X142842360Y-89846337D01*
X142854686Y-89820277D01*
X142869506Y-89795551D01*
X142886678Y-89772397D01*
X142906037Y-89751037D01*
X142927397Y-89731678D01*
X142950551Y-89714506D01*
X142975277Y-89699686D01*
X143001337Y-89687360D01*
X143028479Y-89677649D01*
X143056442Y-89670644D01*
X143084957Y-89666414D01*
X143113750Y-89665000D01*
X144126250Y-89665000D01*
X144155043Y-89666414D01*
X144155043Y-89666414D01*
G37*
D13*
X143620000Y-90252500D03*
D12*
G36*
X144155043Y-91541414D02*
X144183558Y-91545644D01*
X144211521Y-91552649D01*
X144238663Y-91562360D01*
X144264723Y-91574686D01*
X144289449Y-91589506D01*
X144312603Y-91606678D01*
X144333963Y-91626037D01*
X144353322Y-91647397D01*
X144370494Y-91670551D01*
X144385314Y-91695277D01*
X144397640Y-91721337D01*
X144407351Y-91748479D01*
X144414356Y-91776442D01*
X144418586Y-91804957D01*
X144420000Y-91833750D01*
X144420000Y-92421250D01*
X144418586Y-92450043D01*
X144414356Y-92478558D01*
X144407351Y-92506521D01*
X144397640Y-92533663D01*
X144385314Y-92559723D01*
X144370494Y-92584449D01*
X144353322Y-92607603D01*
X144333963Y-92628963D01*
X144312603Y-92648322D01*
X144289449Y-92665494D01*
X144264723Y-92680314D01*
X144238663Y-92692640D01*
X144211521Y-92702351D01*
X144183558Y-92709356D01*
X144155043Y-92713586D01*
X144126250Y-92715000D01*
X143113750Y-92715000D01*
X143084957Y-92713586D01*
X143056442Y-92709356D01*
X143028479Y-92702351D01*
X143001337Y-92692640D01*
X142975277Y-92680314D01*
X142950551Y-92665494D01*
X142927397Y-92648322D01*
X142906037Y-92628963D01*
X142886678Y-92607603D01*
X142869506Y-92584449D01*
X142854686Y-92559723D01*
X142842360Y-92533663D01*
X142832649Y-92506521D01*
X142825644Y-92478558D01*
X142821414Y-92450043D01*
X142820000Y-92421250D01*
X142820000Y-91833750D01*
X142821414Y-91804957D01*
X142825644Y-91776442D01*
X142832649Y-91748479D01*
X142842360Y-91721337D01*
X142854686Y-91695277D01*
X142869506Y-91670551D01*
X142886678Y-91647397D01*
X142906037Y-91626037D01*
X142927397Y-91606678D01*
X142950551Y-91589506D01*
X142975277Y-91574686D01*
X143001337Y-91562360D01*
X143028479Y-91552649D01*
X143056442Y-91545644D01*
X143084957Y-91541414D01*
X143113750Y-91540000D01*
X144126250Y-91540000D01*
X144155043Y-91541414D01*
X144155043Y-91541414D01*
G37*
D13*
X143620000Y-92127500D03*
G04 #@! TD*
D14*
G04 #@! TO.C,C1*
X154160000Y-95900000D03*
X154160000Y-93900000D03*
G04 #@! TD*
D15*
G04 #@! TO.C,D1*
X147460000Y-95000000D03*
D16*
X152540000Y-95000000D03*
G04 #@! TD*
D17*
G04 #@! TO.C,J1*
X159800000Y-96000000D03*
X159800000Y-95000000D03*
X159800000Y-94000000D03*
D18*
X162325000Y-97300000D03*
X162325000Y-92700000D03*
G04 #@! TD*
D14*
G04 #@! TO.C,C3*
X155980000Y-98530000D03*
X155980000Y-100530000D03*
G04 #@! TD*
D11*
G04 #@! TO.C,C4*
X143425000Y-88625000D03*
X145425000Y-88625000D03*
G04 #@! TD*
D12*
G04 #@! TO.C,L1*
G36*
X156515043Y-96441414D02*
X156543558Y-96445644D01*
X156571521Y-96452649D01*
X156598663Y-96462360D01*
X156624723Y-96474686D01*
X156649449Y-96489506D01*
X156672603Y-96506678D01*
X156693963Y-96526037D01*
X156713322Y-96547397D01*
X156730494Y-96570551D01*
X156745314Y-96595277D01*
X156757640Y-96621337D01*
X156767351Y-96648479D01*
X156774356Y-96676442D01*
X156778586Y-96704957D01*
X156780000Y-96733750D01*
X156780000Y-97321250D01*
X156778586Y-97350043D01*
X156774356Y-97378558D01*
X156767351Y-97406521D01*
X156757640Y-97433663D01*
X156745314Y-97459723D01*
X156730494Y-97484449D01*
X156713322Y-97507603D01*
X156693963Y-97528963D01*
X156672603Y-97548322D01*
X156649449Y-97565494D01*
X156624723Y-97580314D01*
X156598663Y-97592640D01*
X156571521Y-97602351D01*
X156543558Y-97609356D01*
X156515043Y-97613586D01*
X156486250Y-97615000D01*
X155473750Y-97615000D01*
X155444957Y-97613586D01*
X155416442Y-97609356D01*
X155388479Y-97602351D01*
X155361337Y-97592640D01*
X155335277Y-97580314D01*
X155310551Y-97565494D01*
X155287397Y-97548322D01*
X155266037Y-97528963D01*
X155246678Y-97507603D01*
X155229506Y-97484449D01*
X155214686Y-97459723D01*
X155202360Y-97433663D01*
X155192649Y-97406521D01*
X155185644Y-97378558D01*
X155181414Y-97350043D01*
X155180000Y-97321250D01*
X155180000Y-96733750D01*
X155181414Y-96704957D01*
X155185644Y-96676442D01*
X155192649Y-96648479D01*
X155202360Y-96621337D01*
X155214686Y-96595277D01*
X155229506Y-96570551D01*
X155246678Y-96547397D01*
X155266037Y-96526037D01*
X155287397Y-96506678D01*
X155310551Y-96489506D01*
X155335277Y-96474686D01*
X155361337Y-96462360D01*
X155388479Y-96452649D01*
X155416442Y-96445644D01*
X155444957Y-96441414D01*
X155473750Y-96440000D01*
X156486250Y-96440000D01*
X156515043Y-96441414D01*
X156515043Y-96441414D01*
G37*
D13*
X155980000Y-97027500D03*
D12*
G36*
X156515043Y-94566414D02*
X156543558Y-94570644D01*
X156571521Y-94577649D01*
X156598663Y-94587360D01*
X156624723Y-94599686D01*
X156649449Y-94614506D01*
X156672603Y-94631678D01*
X156693963Y-94651037D01*
X156713322Y-94672397D01*
X156730494Y-94695551D01*
X156745314Y-94720277D01*
X156757640Y-94746337D01*
X156767351Y-94773479D01*
X156774356Y-94801442D01*
X156778586Y-94829957D01*
X156780000Y-94858750D01*
X156780000Y-95446250D01*
X156778586Y-95475043D01*
X156774356Y-95503558D01*
X156767351Y-95531521D01*
X156757640Y-95558663D01*
X156745314Y-95584723D01*
X156730494Y-95609449D01*
X156713322Y-95632603D01*
X156693963Y-95653963D01*
X156672603Y-95673322D01*
X156649449Y-95690494D01*
X156624723Y-95705314D01*
X156598663Y-95717640D01*
X156571521Y-95727351D01*
X156543558Y-95734356D01*
X156515043Y-95738586D01*
X156486250Y-95740000D01*
X155473750Y-95740000D01*
X155444957Y-95738586D01*
X155416442Y-95734356D01*
X155388479Y-95727351D01*
X155361337Y-95717640D01*
X155335277Y-95705314D01*
X155310551Y-95690494D01*
X155287397Y-95673322D01*
X155266037Y-95653963D01*
X155246678Y-95632603D01*
X155229506Y-95609449D01*
X155214686Y-95584723D01*
X155202360Y-95558663D01*
X155192649Y-95531521D01*
X155185644Y-95503558D01*
X155181414Y-95475043D01*
X155180000Y-95446250D01*
X155180000Y-94858750D01*
X155181414Y-94829957D01*
X155185644Y-94801442D01*
X155192649Y-94773479D01*
X155202360Y-94746337D01*
X155214686Y-94720277D01*
X155229506Y-94695551D01*
X155246678Y-94672397D01*
X155266037Y-94651037D01*
X155287397Y-94631678D01*
X155310551Y-94614506D01*
X155335277Y-94599686D01*
X155361337Y-94587360D01*
X155388479Y-94577649D01*
X155416442Y-94570644D01*
X155444957Y-94566414D01*
X155473750Y-94565000D01*
X156486250Y-94565000D01*
X156515043Y-94566414D01*
X156515043Y-94566414D01*
G37*
D13*
X155980000Y-95152500D03*
G04 #@! TD*
D17*
G04 #@! TO.C,U1*
X147750000Y-92105000D03*
X147750000Y-90835000D03*
X147750000Y-89565000D03*
X147750000Y-88295000D03*
X153150000Y-88295000D03*
X153150000Y-89565000D03*
X153150000Y-90835000D03*
X153150000Y-92105000D03*
G04 #@! TD*
D19*
G04 #@! TO.C,U2*
X157650000Y-95000000D03*
X141350000Y-95000000D03*
D20*
X149500000Y-103150000D03*
X149500000Y-86850000D03*
D21*
X155875000Y-103150000D03*
D12*
G36*
X158169509Y-102551921D02*
X158188268Y-102557612D01*
X158205557Y-102566853D01*
X158220711Y-102579289D01*
X158233147Y-102594443D01*
X158242388Y-102611732D01*
X158248079Y-102630491D01*
X158250000Y-102650000D01*
X158250000Y-103650000D01*
X158248079Y-103669509D01*
X158242388Y-103688268D01*
X158233147Y-103705557D01*
X158220711Y-103720711D01*
X158205557Y-103733147D01*
X158188268Y-103742388D01*
X158169509Y-103748079D01*
X158150000Y-103750000D01*
X153600000Y-103750000D01*
X153580491Y-103748079D01*
X153561732Y-103742388D01*
X153544443Y-103733147D01*
X153529289Y-103720711D01*
X153516853Y-103705557D01*
X153507612Y-103688268D01*
X153501921Y-103669509D01*
X153500000Y-103650000D01*
X153500000Y-102650000D01*
X153501921Y-102630491D01*
X153507612Y-102611732D01*
X153516853Y-102594443D01*
X153529289Y-102579289D01*
X153544443Y-102566853D01*
X153561732Y-102557612D01*
X153580491Y-102551921D01*
X153600000Y-102550000D01*
X158150000Y-102550000D01*
X158169509Y-102551921D01*
X158169509Y-102551921D01*
G37*
D21*
X157650000Y-101375000D03*
D12*
G36*
X158248079Y-103669509D02*
X158242388Y-103688268D01*
X158233147Y-103705557D01*
X158220711Y-103720711D01*
X158205557Y-103733147D01*
X158188268Y-103742388D01*
X158169509Y-103748079D01*
X158150000Y-103750000D01*
X157150000Y-103750000D01*
X157130491Y-103748079D01*
X157111732Y-103742388D01*
X157094443Y-103733147D01*
X157079289Y-103720711D01*
X157066853Y-103705557D01*
X157057612Y-103688268D01*
X157051921Y-103669509D01*
X157050000Y-103650000D01*
X157050000Y-99100000D01*
X157051921Y-99080491D01*
X157057612Y-99061732D01*
X157066853Y-99044443D01*
X157079289Y-99029289D01*
X157094443Y-99016853D01*
X157111732Y-99007612D01*
X157130491Y-99001921D01*
X157150000Y-99000000D01*
X158150000Y-99000000D01*
X158169509Y-99001921D01*
X158188268Y-99007612D01*
X158205557Y-99016853D01*
X158220711Y-99029289D01*
X158233147Y-99044443D01*
X158242388Y-99061732D01*
X158248079Y-99080491D01*
X158250000Y-99100000D01*
X158250000Y-103650000D01*
X158248079Y-103669509D01*
X158248079Y-103669509D01*
G37*
D21*
X143125000Y-103150000D03*
D12*
G36*
X145419509Y-102551921D02*
X145438268Y-102557612D01*
X145455557Y-102566853D01*
X145470711Y-102579289D01*
X145483147Y-102594443D01*
X145492388Y-102611732D01*
X145498079Y-102630491D01*
X145500000Y-102650000D01*
X145500000Y-103650000D01*
X145498079Y-103669509D01*
X145492388Y-103688268D01*
X145483147Y-103705557D01*
X145470711Y-103720711D01*
X145455557Y-103733147D01*
X145438268Y-103742388D01*
X145419509Y-103748079D01*
X145400000Y-103750000D01*
X140850000Y-103750000D01*
X140830491Y-103748079D01*
X140811732Y-103742388D01*
X140794443Y-103733147D01*
X140779289Y-103720711D01*
X140766853Y-103705557D01*
X140757612Y-103688268D01*
X140751921Y-103669509D01*
X140750000Y-103650000D01*
X140750000Y-102650000D01*
X140751921Y-102630491D01*
X140757612Y-102611732D01*
X140766853Y-102594443D01*
X140779289Y-102579289D01*
X140794443Y-102566853D01*
X140811732Y-102557612D01*
X140830491Y-102551921D01*
X140850000Y-102550000D01*
X145400000Y-102550000D01*
X145419509Y-102551921D01*
X145419509Y-102551921D01*
G37*
D21*
X141350000Y-101375000D03*
D12*
G36*
X141948079Y-103669509D02*
X141942388Y-103688268D01*
X141933147Y-103705557D01*
X141920711Y-103720711D01*
X141905557Y-103733147D01*
X141888268Y-103742388D01*
X141869509Y-103748079D01*
X141850000Y-103750000D01*
X140850000Y-103750000D01*
X140830491Y-103748079D01*
X140811732Y-103742388D01*
X140794443Y-103733147D01*
X140779289Y-103720711D01*
X140766853Y-103705557D01*
X140757612Y-103688268D01*
X140751921Y-103669509D01*
X140750000Y-103650000D01*
X140750000Y-99100000D01*
X140751921Y-99080491D01*
X140757612Y-99061732D01*
X140766853Y-99044443D01*
X140779289Y-99029289D01*
X140794443Y-99016853D01*
X140811732Y-99007612D01*
X140830491Y-99001921D01*
X140850000Y-99000000D01*
X141850000Y-99000000D01*
X141869509Y-99001921D01*
X141888268Y-99007612D01*
X141905557Y-99016853D01*
X141920711Y-99029289D01*
X141933147Y-99044443D01*
X141942388Y-99061732D01*
X141948079Y-99080491D01*
X141950000Y-99100000D01*
X141950000Y-103650000D01*
X141948079Y-103669509D01*
X141948079Y-103669509D01*
G37*
D21*
X141350000Y-88625000D03*
D12*
G36*
X141948079Y-90919509D02*
X141942388Y-90938268D01*
X141933147Y-90955557D01*
X141920711Y-90970711D01*
X141905557Y-90983147D01*
X141888268Y-90992388D01*
X141869509Y-90998079D01*
X141850000Y-91000000D01*
X140850000Y-91000000D01*
X140830491Y-90998079D01*
X140811732Y-90992388D01*
X140794443Y-90983147D01*
X140779289Y-90970711D01*
X140766853Y-90955557D01*
X140757612Y-90938268D01*
X140751921Y-90919509D01*
X140750000Y-90900000D01*
X140750000Y-86350000D01*
X140751921Y-86330491D01*
X140757612Y-86311732D01*
X140766853Y-86294443D01*
X140779289Y-86279289D01*
X140794443Y-86266853D01*
X140811732Y-86257612D01*
X140830491Y-86251921D01*
X140850000Y-86250000D01*
X141850000Y-86250000D01*
X141869509Y-86251921D01*
X141888268Y-86257612D01*
X141905557Y-86266853D01*
X141920711Y-86279289D01*
X141933147Y-86294443D01*
X141942388Y-86311732D01*
X141948079Y-86330491D01*
X141950000Y-86350000D01*
X141950000Y-90900000D01*
X141948079Y-90919509D01*
X141948079Y-90919509D01*
G37*
D21*
X143125000Y-86850000D03*
D12*
G36*
X145419509Y-86251921D02*
X145438268Y-86257612D01*
X145455557Y-86266853D01*
X145470711Y-86279289D01*
X145483147Y-86294443D01*
X145492388Y-86311732D01*
X145498079Y-86330491D01*
X145500000Y-86350000D01*
X145500000Y-87350000D01*
X145498079Y-87369509D01*
X145492388Y-87388268D01*
X145483147Y-87405557D01*
X145470711Y-87420711D01*
X145455557Y-87433147D01*
X145438268Y-87442388D01*
X145419509Y-87448079D01*
X145400000Y-87450000D01*
X140850000Y-87450000D01*
X140830491Y-87448079D01*
X140811732Y-87442388D01*
X140794443Y-87433147D01*
X140779289Y-87420711D01*
X140766853Y-87405557D01*
X140757612Y-87388268D01*
X140751921Y-87369509D01*
X140750000Y-87350000D01*
X140750000Y-86350000D01*
X140751921Y-86330491D01*
X140757612Y-86311732D01*
X140766853Y-86294443D01*
X140779289Y-86279289D01*
X140794443Y-86266853D01*
X140811732Y-86257612D01*
X140830491Y-86251921D01*
X140850000Y-86250000D01*
X145400000Y-86250000D01*
X145419509Y-86251921D01*
X145419509Y-86251921D01*
G37*
D21*
X155875000Y-86850000D03*
D12*
G36*
X158169509Y-86251921D02*
X158188268Y-86257612D01*
X158205557Y-86266853D01*
X158220711Y-86279289D01*
X158233147Y-86294443D01*
X158242388Y-86311732D01*
X158248079Y-86330491D01*
X158250000Y-86350000D01*
X158250000Y-87350000D01*
X158248079Y-87369509D01*
X158242388Y-87388268D01*
X158233147Y-87405557D01*
X158220711Y-87420711D01*
X158205557Y-87433147D01*
X158188268Y-87442388D01*
X158169509Y-87448079D01*
X158150000Y-87450000D01*
X153600000Y-87450000D01*
X153580491Y-87448079D01*
X153561732Y-87442388D01*
X153544443Y-87433147D01*
X153529289Y-87420711D01*
X153516853Y-87405557D01*
X153507612Y-87388268D01*
X153501921Y-87369509D01*
X153500000Y-87350000D01*
X153500000Y-86350000D01*
X153501921Y-86330491D01*
X153507612Y-86311732D01*
X153516853Y-86294443D01*
X153529289Y-86279289D01*
X153544443Y-86266853D01*
X153561732Y-86257612D01*
X153580491Y-86251921D01*
X153600000Y-86250000D01*
X158150000Y-86250000D01*
X158169509Y-86251921D01*
X158169509Y-86251921D01*
G37*
D21*
X157650000Y-88625000D03*
D12*
G36*
X158248079Y-90919509D02*
X158242388Y-90938268D01*
X158233147Y-90955557D01*
X158220711Y-90970711D01*
X158205557Y-90983147D01*
X158188268Y-90992388D01*
X158169509Y-90998079D01*
X158150000Y-91000000D01*
X157150000Y-91000000D01*
X157130491Y-90998079D01*
X157111732Y-90992388D01*
X157094443Y-90983147D01*
X157079289Y-90970711D01*
X157066853Y-90955557D01*
X157057612Y-90938268D01*
X157051921Y-90919509D01*
X157050000Y-90900000D01*
X157050000Y-86350000D01*
X157051921Y-86330491D01*
X157057612Y-86311732D01*
X157066853Y-86294443D01*
X157079289Y-86279289D01*
X157094443Y-86266853D01*
X157111732Y-86257612D01*
X157130491Y-86251921D01*
X157150000Y-86250000D01*
X158150000Y-86250000D01*
X158169509Y-86251921D01*
X158188268Y-86257612D01*
X158205557Y-86266853D01*
X158220711Y-86279289D01*
X158233147Y-86294443D01*
X158242388Y-86311732D01*
X158248079Y-86330491D01*
X158250000Y-86350000D01*
X158250000Y-90900000D01*
X158248079Y-90919509D01*
X158248079Y-90919509D01*
G37*
G04 #@! TD*
D22*
G04 #@! TO.C,MH1*
X150000000Y-84000000D03*
G04 #@! TD*
G04 #@! TO.C,MH2*
X150000000Y-106000000D03*
G04 #@! TD*
M02*
