G04 #@! TF.GenerationSoftware,KiCad,Pcbnew,(5.0.0)*
G04 #@! TF.CreationDate,2019-03-24T09:47:22+01:00*
G04 #@! TF.ProjectId,photoDiode_MDversion1.2,70686F746F44696F64655F4D44766572,rev?*
G04 #@! TF.SameCoordinates,Original*
G04 #@! TF.FileFunction,Legend,Bot*
G04 #@! TF.FilePolarity,Positive*
%FSLAX46Y46*%
G04 Gerber Fmt 4.6, Leading zero omitted, Abs format (unit mm)*
G04 Created by KiCad (PCBNEW (5.0.0)) date 03/24/19 09:47:22*
%MOMM*%
%LPD*%
G01*
G04 APERTURE LIST*
%ADD10C,0.120000*%
%ADD11C,0.150000*%
%ADD12C,0.100000*%
G04 APERTURE END LIST*
D10*
G04 #@! TO.C,D2*
X150500000Y-99260000D02*
X148500000Y-99260000D01*
X148500000Y-99260000D02*
X148500000Y-95360000D01*
X150500000Y-99260000D02*
X150500000Y-95360000D01*
G04 #@! TO.C,C5*
X150770000Y-94620000D02*
X149770000Y-94620000D01*
X149770000Y-92920000D02*
X150770000Y-92920000D01*
G04 #@! TO.C,R6*
X155270000Y-92471422D02*
X155270000Y-92988578D01*
X156690000Y-92471422D02*
X156690000Y-92988578D01*
G04 #@! TO.C,R3*
X146331422Y-97870000D02*
X146848578Y-97870000D01*
X146331422Y-96450000D02*
X146848578Y-96450000D01*
G04 #@! TO.C,R4*
X156680000Y-89101422D02*
X156680000Y-89618578D01*
X155260000Y-89101422D02*
X155260000Y-89618578D01*
G04 #@! TO.C,C2*
X145130000Y-95850000D02*
X144130000Y-95850000D01*
X144130000Y-94150000D02*
X145130000Y-94150000D01*
G04 #@! TO.C,R1*
X144800000Y-90931422D02*
X144800000Y-91448578D01*
X146220000Y-90931422D02*
X146220000Y-91448578D01*
G04 #@! TO.C,R2*
X142910000Y-90931422D02*
X142910000Y-91448578D01*
X144330000Y-90931422D02*
X144330000Y-91448578D01*
G04 #@! TO.C,C1*
X155010000Y-94400000D02*
X155010000Y-95400000D01*
X153310000Y-95400000D02*
X153310000Y-94400000D01*
G04 #@! TO.C,J1*
X161165000Y-97610000D02*
X159865000Y-97610000D01*
X159865000Y-97610000D02*
X159865000Y-96560000D01*
X159865000Y-96560000D02*
X159025000Y-96560000D01*
X161165000Y-92390000D02*
X159865000Y-92390000D01*
X159865000Y-92390000D02*
X159865000Y-93440000D01*
X163085000Y-96440000D02*
X163085000Y-93560000D01*
G04 #@! TO.C,C3*
X155130000Y-100030000D02*
X155130000Y-99030000D01*
X156830000Y-99030000D02*
X156830000Y-100030000D01*
G04 #@! TO.C,C4*
X144925000Y-89475000D02*
X143925000Y-89475000D01*
X143925000Y-87775000D02*
X144925000Y-87775000D01*
G04 #@! TO.C,L1*
X156690000Y-96348578D02*
X156690000Y-95831422D01*
X155270000Y-96348578D02*
X155270000Y-95831422D01*
D11*
G04 #@! TO.C,U1*
X148375000Y-92775000D02*
X148375000Y-92725000D01*
X152525000Y-92775000D02*
X152525000Y-92630000D01*
X152525000Y-87625000D02*
X152525000Y-87770000D01*
X148375000Y-87625000D02*
X148375000Y-87770000D01*
X148375000Y-92775000D02*
X152525000Y-92775000D01*
X148375000Y-87625000D02*
X152525000Y-87625000D01*
X148375000Y-92725000D02*
X146975000Y-92725000D01*
D12*
G04 #@! TO.C,U2*
X157650000Y-103150000D02*
X157650000Y-86850000D01*
X141350000Y-103150000D02*
X141350000Y-86850000D01*
X157650000Y-86850000D02*
X141350000Y-86850000D01*
X157650000Y-103150000D02*
X141350000Y-103150000D01*
G04 #@! TO.C,D2*
D11*
X149957379Y-99566905D02*
X148957379Y-99566905D01*
X148957379Y-99805001D01*
X149004999Y-99947858D01*
X149100237Y-100043096D01*
X149195475Y-100090715D01*
X149385951Y-100138334D01*
X149528808Y-100138334D01*
X149719284Y-100090715D01*
X149814522Y-100043096D01*
X149909760Y-99947858D01*
X149957379Y-99805001D01*
X149957379Y-99566905D01*
X149052618Y-100519286D02*
X149004999Y-100566905D01*
X148957379Y-100662143D01*
X148957379Y-100900239D01*
X149004999Y-100995477D01*
X149052618Y-101043096D01*
X149147856Y-101090715D01*
X149243094Y-101090715D01*
X149385951Y-101043096D01*
X149957379Y-100471667D01*
X149957379Y-101090715D01*
G04 #@! TO.C,C5*
X151637142Y-95413333D02*
X151684761Y-95365714D01*
X151732380Y-95222857D01*
X151732380Y-95127619D01*
X151684761Y-94984761D01*
X151589523Y-94889523D01*
X151494285Y-94841904D01*
X151303809Y-94794285D01*
X151160952Y-94794285D01*
X150970476Y-94841904D01*
X150875238Y-94889523D01*
X150780000Y-94984761D01*
X150732380Y-95127619D01*
X150732380Y-95222857D01*
X150780000Y-95365714D01*
X150827619Y-95413333D01*
X150732380Y-96318095D02*
X150732380Y-95841904D01*
X151208571Y-95794285D01*
X151160952Y-95841904D01*
X151113333Y-95937142D01*
X151113333Y-96175238D01*
X151160952Y-96270476D01*
X151208571Y-96318095D01*
X151303809Y-96365714D01*
X151541904Y-96365714D01*
X151637142Y-96318095D01*
X151684761Y-96270476D01*
X151732380Y-96175238D01*
X151732380Y-95937142D01*
X151684761Y-95841904D01*
X151637142Y-95794285D01*
G04 #@! TO.C,R6*
X155112380Y-92033333D02*
X154636190Y-91700000D01*
X155112380Y-91461904D02*
X154112380Y-91461904D01*
X154112380Y-91842857D01*
X154160000Y-91938095D01*
X154207619Y-91985714D01*
X154302857Y-92033333D01*
X154445714Y-92033333D01*
X154540952Y-91985714D01*
X154588571Y-91938095D01*
X154636190Y-91842857D01*
X154636190Y-91461904D01*
X154112380Y-92890476D02*
X154112380Y-92700000D01*
X154160000Y-92604761D01*
X154207619Y-92557142D01*
X154350476Y-92461904D01*
X154540952Y-92414285D01*
X154921904Y-92414285D01*
X155017142Y-92461904D01*
X155064761Y-92509523D01*
X155112380Y-92604761D01*
X155112380Y-92795238D01*
X155064761Y-92890476D01*
X155017142Y-92938095D01*
X154921904Y-92985714D01*
X154683809Y-92985714D01*
X154588571Y-92938095D01*
X154540952Y-92890476D01*
X154493333Y-92795238D01*
X154493333Y-92604761D01*
X154540952Y-92509523D01*
X154588571Y-92461904D01*
X154683809Y-92414285D01*
G04 #@! TO.C,R3*
X146756666Y-99132380D02*
X147090000Y-98656190D01*
X147328095Y-99132380D02*
X147328095Y-98132380D01*
X146947142Y-98132380D01*
X146851904Y-98180000D01*
X146804285Y-98227619D01*
X146756666Y-98322857D01*
X146756666Y-98465714D01*
X146804285Y-98560952D01*
X146851904Y-98608571D01*
X146947142Y-98656190D01*
X147328095Y-98656190D01*
X146423333Y-98132380D02*
X145804285Y-98132380D01*
X146137619Y-98513333D01*
X145994761Y-98513333D01*
X145899523Y-98560952D01*
X145851904Y-98608571D01*
X145804285Y-98703809D01*
X145804285Y-98941904D01*
X145851904Y-99037142D01*
X145899523Y-99084761D01*
X145994761Y-99132380D01*
X146280476Y-99132380D01*
X146375714Y-99084761D01*
X146423333Y-99037142D01*
G04 #@! TO.C,R4*
X155142380Y-89183333D02*
X154666190Y-88850000D01*
X155142380Y-88611904D02*
X154142380Y-88611904D01*
X154142380Y-88992857D01*
X154190000Y-89088095D01*
X154237619Y-89135714D01*
X154332857Y-89183333D01*
X154475714Y-89183333D01*
X154570952Y-89135714D01*
X154618571Y-89088095D01*
X154666190Y-88992857D01*
X154666190Y-88611904D01*
X154475714Y-90040476D02*
X155142380Y-90040476D01*
X154094761Y-89802380D02*
X154809047Y-89564285D01*
X154809047Y-90183333D01*
G04 #@! TO.C,C2*
X143646666Y-96977142D02*
X143694285Y-97024761D01*
X143837142Y-97072380D01*
X143932380Y-97072380D01*
X144075238Y-97024761D01*
X144170476Y-96929523D01*
X144218095Y-96834285D01*
X144265714Y-96643809D01*
X144265714Y-96500952D01*
X144218095Y-96310476D01*
X144170476Y-96215238D01*
X144075238Y-96120000D01*
X143932380Y-96072380D01*
X143837142Y-96072380D01*
X143694285Y-96120000D01*
X143646666Y-96167619D01*
X143265714Y-96167619D02*
X143218095Y-96120000D01*
X143122857Y-96072380D01*
X142884761Y-96072380D01*
X142789523Y-96120000D01*
X142741904Y-96167619D01*
X142694285Y-96262857D01*
X142694285Y-96358095D01*
X142741904Y-96500952D01*
X143313333Y-97072380D01*
X142694285Y-97072380D01*
G04 #@! TO.C,R1*
X145676666Y-93882380D02*
X146010000Y-93406190D01*
X146248095Y-93882380D02*
X146248095Y-92882380D01*
X145867142Y-92882380D01*
X145771904Y-92930000D01*
X145724285Y-92977619D01*
X145676666Y-93072857D01*
X145676666Y-93215714D01*
X145724285Y-93310952D01*
X145771904Y-93358571D01*
X145867142Y-93406190D01*
X146248095Y-93406190D01*
X144724285Y-93882380D02*
X145295714Y-93882380D01*
X145010000Y-93882380D02*
X145010000Y-92882380D01*
X145105238Y-93025238D01*
X145200476Y-93120476D01*
X145295714Y-93168095D01*
G04 #@! TO.C,R2*
X143786666Y-93882380D02*
X144120000Y-93406190D01*
X144358095Y-93882380D02*
X144358095Y-92882380D01*
X143977142Y-92882380D01*
X143881904Y-92930000D01*
X143834285Y-92977619D01*
X143786666Y-93072857D01*
X143786666Y-93215714D01*
X143834285Y-93310952D01*
X143881904Y-93358571D01*
X143977142Y-93406190D01*
X144358095Y-93406190D01*
X143405714Y-92977619D02*
X143358095Y-92930000D01*
X143262857Y-92882380D01*
X143024761Y-92882380D01*
X142929523Y-92930000D01*
X142881904Y-92977619D01*
X142834285Y-93072857D01*
X142834285Y-93168095D01*
X142881904Y-93310952D01*
X143453333Y-93882380D01*
X142834285Y-93882380D01*
G04 #@! TO.C,C1*
X154326666Y-97567142D02*
X154374285Y-97614761D01*
X154517142Y-97662380D01*
X154612380Y-97662380D01*
X154755238Y-97614761D01*
X154850476Y-97519523D01*
X154898095Y-97424285D01*
X154945714Y-97233809D01*
X154945714Y-97090952D01*
X154898095Y-96900476D01*
X154850476Y-96805238D01*
X154755238Y-96710000D01*
X154612380Y-96662380D01*
X154517142Y-96662380D01*
X154374285Y-96710000D01*
X154326666Y-96757619D01*
X153374285Y-97662380D02*
X153945714Y-97662380D01*
X153660000Y-97662380D02*
X153660000Y-96662380D01*
X153755238Y-96805238D01*
X153850476Y-96900476D01*
X153945714Y-96948095D01*
G04 #@! TO.C,J1*
X160552380Y-90716666D02*
X161266666Y-90716666D01*
X161409523Y-90669047D01*
X161504761Y-90573809D01*
X161552380Y-90430952D01*
X161552380Y-90335714D01*
X161552380Y-91716666D02*
X161552380Y-91145238D01*
X161552380Y-91430952D02*
X160552380Y-91430952D01*
X160695238Y-91335714D01*
X160790476Y-91240476D01*
X160838095Y-91145238D01*
G04 #@! TO.C,C3*
X154837142Y-99363333D02*
X154884761Y-99315714D01*
X154932380Y-99172857D01*
X154932380Y-99077619D01*
X154884761Y-98934761D01*
X154789523Y-98839523D01*
X154694285Y-98791904D01*
X154503809Y-98744285D01*
X154360952Y-98744285D01*
X154170476Y-98791904D01*
X154075238Y-98839523D01*
X153980000Y-98934761D01*
X153932380Y-99077619D01*
X153932380Y-99172857D01*
X153980000Y-99315714D01*
X154027619Y-99363333D01*
X153932380Y-99696666D02*
X153932380Y-100315714D01*
X154313333Y-99982380D01*
X154313333Y-100125238D01*
X154360952Y-100220476D01*
X154408571Y-100268095D01*
X154503809Y-100315714D01*
X154741904Y-100315714D01*
X154837142Y-100268095D01*
X154884761Y-100220476D01*
X154932380Y-100125238D01*
X154932380Y-99839523D01*
X154884761Y-99744285D01*
X154837142Y-99696666D01*
G04 #@! TO.C,C4*
X146576666Y-87737142D02*
X146624285Y-87784761D01*
X146767142Y-87832380D01*
X146862380Y-87832380D01*
X147005238Y-87784761D01*
X147100476Y-87689523D01*
X147148095Y-87594285D01*
X147195714Y-87403809D01*
X147195714Y-87260952D01*
X147148095Y-87070476D01*
X147100476Y-86975238D01*
X147005238Y-86880000D01*
X146862380Y-86832380D01*
X146767142Y-86832380D01*
X146624285Y-86880000D01*
X146576666Y-86927619D01*
X145719523Y-87165714D02*
X145719523Y-87832380D01*
X145957619Y-86784761D02*
X146195714Y-87499047D01*
X145576666Y-87499047D01*
G04 #@! TO.C,L1*
X157952380Y-97613333D02*
X157952380Y-97137142D01*
X156952380Y-97137142D01*
X157952380Y-98470476D02*
X157952380Y-97899047D01*
X157952380Y-98184761D02*
X156952380Y-98184761D01*
X157095238Y-98089523D01*
X157190476Y-97994285D01*
X157238095Y-97899047D01*
G04 #@! TO.C,U1*
X151211904Y-91402380D02*
X151211904Y-92211904D01*
X151164285Y-92307142D01*
X151116666Y-92354761D01*
X151021428Y-92402380D01*
X150830952Y-92402380D01*
X150735714Y-92354761D01*
X150688095Y-92307142D01*
X150640476Y-92211904D01*
X150640476Y-91402380D01*
X149640476Y-92402380D02*
X150211904Y-92402380D01*
X149926190Y-92402380D02*
X149926190Y-91402380D01*
X150021428Y-91545238D01*
X150116666Y-91640476D01*
X150211904Y-91688095D01*
G04 #@! TO.C,U2*
X140421904Y-100372380D02*
X140421904Y-101181904D01*
X140374285Y-101277142D01*
X140326666Y-101324761D01*
X140231428Y-101372380D01*
X140040952Y-101372380D01*
X139945714Y-101324761D01*
X139898095Y-101277142D01*
X139850476Y-101181904D01*
X139850476Y-100372380D01*
X139421904Y-100467619D02*
X139374285Y-100420000D01*
X139279047Y-100372380D01*
X139040952Y-100372380D01*
X138945714Y-100420000D01*
X138898095Y-100467619D01*
X138850476Y-100562857D01*
X138850476Y-100658095D01*
X138898095Y-100800952D01*
X139469523Y-101372380D01*
X138850476Y-101372380D01*
G04 #@! TD*
M02*
