<?xml version="1.0" encoding="UTF-8" standalone="no"?>
<svg
   xmlns:dc="http://purl.org/dc/elements/1.1/"
   xmlns:cc="http://creativecommons.org/ns#"
   xmlns:rdf="http://www.w3.org/1999/02/22-rdf-syntax-ns#"
   xmlns:svg="http://www.w3.org/2000/svg"
   xmlns="http://www.w3.org/2000/svg"
   xmlns:sodipodi="http://sodipodi.sourceforge.net/DTD/sodipodi-0.dtd"
   xmlns:inkscape="http://www.inkscape.org/namespaces/inkscape"
   width="140mm"
   height="50mm"
   viewBox="-6 -50 140 50"
   version="1.1"
   style="stroke-linecap:round;stroke-linejoin:round;fill:none"
   id="svg988"
   sodipodi:docname="short_side (2x).svg"
   inkscape:version="1.0.1 (c497b03c, 2020-09-10)">
  <metadata
     id="metadata992">
    <rdf:RDF>
      <cc:Work
         rdf:about="">
        <dc:format>image/svg+xml</dc:format>
        <dc:type
           rdf:resource="http://purl.org/dc/dcmitype/StillImage" />
      </cc:Work>
    </rdf:RDF>
  </metadata>
  <defs
     id="defs990" />
  <sodipodi:namedview
     inkscape:document-units="mm"
     unitToSymbol="mm"
     units="mm"
     id="namedview954"
     inkscape:document-rotation="0"
     showgrid="false"
     inkscape:zoom="1.3437054"
     inkscape:cx="264.56693"
     inkscape:cy="94.488189"
     inkscape:window-width="1251"
     inkscape:window-height="847"
     inkscape:window-x="0"
     inkscape:window-y="25"
     inkscape:window-maximized="0"
     inkscape:current-layer="svg988" />
  <path
     d="m 0,0 h 64 64 v -10 h 3 v 5 a 1,-1 0 0 0 1,1 h 1 a 1,-1 0 0 0 1,-1 v -8 a 1,-1 0 0 0 -1,-1 h -5 v -16 h 3 v 5 a 1,-1 0 0 0 1,1 h 1 a 1,-1 0 0 0 1,-1 v -8 a 1,-1 0 0 0 -1,-1 h -5 V -50 H 64 0 v 16 h -5 a 1,-1 0 0 0 -1,1 v 8 a 1,-1 0 0 0 1,1 h 1 a 1,-1 0 0 0 1,-1 v -5 h 3 v 16 h -5 a 1,-1 0 0 0 -1,1 v 8 a 1,-1 0 0 0 1,1 h 1 a 1,-1 0 0 0 1,-1 v -5 h 3 z"
     style="stroke:#000000;stroke-width:0.25"
     id="path956" />
</svg>
