<?xml version="1.0" encoding="UTF-8" standalone="no"?>
<svg
   xmlns:dc="http://purl.org/dc/elements/1.1/"
   xmlns:cc="http://creativecommons.org/ns#"
   xmlns:rdf="http://www.w3.org/1999/02/22-rdf-syntax-ns#"
   xmlns:svg="http://www.w3.org/2000/svg"
   xmlns="http://www.w3.org/2000/svg"
   xmlns:sodipodi="http://sodipodi.sourceforge.net/DTD/sodipodi-0.dtd"
   xmlns:inkscape="http://www.inkscape.org/namespaces/inkscape"
   width="190mm"
   height="140mm"
   viewBox="0 -140 190 140"
   version="1.1"
   style="stroke-linecap:round;stroke-linejoin:round;fill:none"
   id="svg917"
   sodipodi:docname="top2.svg"
   inkscape:version="1.0.1 (c497b03c, 2020-09-10)">
  <metadata
     id="metadata921">
    <rdf:RDF>
      <cc:Work
         rdf:about="">
        <dc:format>image/svg+xml</dc:format>
        <dc:type
           rdf:resource="http://purl.org/dc/dcmitype/StillImage" />
      </cc:Work>
    </rdf:RDF>
  </metadata>
  <defs
     id="defs919" />
  <sodipodi:namedview
     inkscape:document-units="mm"
     unitToSymbol="mm"
     units="mm"
     id="namedview833"
     inkscape:document-rotation="0"
     showgrid="false"
     inkscape:zoom="0.86059211"
     inkscape:cx="359.05512"
     inkscape:cy="264.56693"
     inkscape:window-width="1252"
     inkscape:window-height="847"
     inkscape:window-x="0"
     inkscape:window-y="25"
     inkscape:window-maximized="0"
     inkscape:current-layer="svg917" />
  <path
     d="m 99,-38.5 v -5 h 8 v 5 z"
     style="stroke:#000000;stroke-width:0.25"
     id="path835" />
  <path
     d="m 107,-101.5 v 5 h -8 v -5 z"
     style="stroke:#000000;stroke-width:0.25"
     id="path837" />
  <path
     d="m 71.5,-66 v -8 h 5 v 8 z"
     style="stroke:#000000;stroke-width:0.25"
     id="path839" />
  <path
     d="m 129.5,-66 v -8 h 5 v 8 z"
     style="stroke:#000000;stroke-width:0.25"
     id="path841" />
  <path
     d="m 176,-6 v 3 h -10 v -3 z"
     style="stroke:#000000;stroke-width:0.25"
     id="path843" />
  <path
     d="m 131,-6 v 3 h -10 v -3 z"
     style="stroke:#000000;stroke-width:0.25"
     id="path845" />
  <path
     d="m 86,-6 v 3 H 76 v -3 z"
     style="stroke:#000000;stroke-width:0.25"
     id="path847" />
  <path
     d="m 41,-6 v 3 H 31 v -3 z"
     style="stroke:#000000;stroke-width:0.25"
     id="path849" />
  <path
     d="m 176,-137 v 3 h -10 v -3 z"
     style="stroke:#000000;stroke-width:0.25"
     id="path851" />
  <path
     d="m 131,-137 v 3 h -10 v -3 z"
     style="stroke:#000000;stroke-width:0.25"
     id="path853" />
  <path
     d="m 86,-137 v 3 H 76 v -3 z"
     style="stroke:#000000;stroke-width:0.25"
     id="path855" />
  <path
     d="m 41,-137 v 3 H 31 v -3 z"
     style="stroke:#000000;stroke-width:0.25"
     id="path857" />
  <path
     d="M 0,0 H 190 V -140 H 0 Z"
     style="stroke:#000000;stroke-width:0.25"
     id="path859" />
  <circle
     cx="51"
     cy="32.142136"
     r="4"
     style="stroke:#000000;stroke-width:0.25"
     id="circle861"
     transform="scale(1,-1)" />
  <circle
     cx="51"
     cy="107.85786"
     r="4"
     style="stroke:#000000;stroke-width:0.25"
     id="circle863"
     transform="scale(1,-1)" />
  <circle
     cx="65.142136"
     cy="18"
     r="4"
     style="stroke:#000000;stroke-width:0.25"
     id="circle865"
     transform="scale(1,-1)" />
  <circle
     cx="65.142136"
     cy="122"
     r="4"
     style="stroke:#000000;stroke-width:0.25"
     id="circle867"
     transform="scale(1,-1)" />
  <circle
     cx="24"
     cy="59.987804"
     r="4"
     style="stroke:#000000;stroke-width:0.25"
     id="circle869"
     transform="scale(1,-1)" />
  <circle
     cx="24"
     cy="79.987801"
     r="4"
     style="stroke:#000000;stroke-width:0.25"
     id="circle871"
     transform="scale(1,-1)" />
  <circle
     cx="93"
     cy="13"
     r="4"
     style="stroke:#000000;stroke-width:0.25"
     id="circle873"
     transform="scale(1,-1)" />
  <circle
     cx="113"
     cy="13"
     r="4"
     style="stroke:#000000;stroke-width:0.25"
     id="circle875"
     transform="scale(1,-1)" />
  <circle
     cx="160"
     cy="59.987804"
     r="4"
     style="stroke:#000000;stroke-width:0.25"
     id="circle877"
     transform="scale(1,-1)" />
  <circle
     cx="160"
     cy="79.987801"
     r="4"
     style="stroke:#000000;stroke-width:0.25"
     id="circle879"
     transform="scale(1,-1)" />
  <ellipse
     cx="103.375"
     cy="69.625"
     style="stroke:#000000;stroke-width:0.285714"
     id="circle881"
     transform="scale(1,-1)"
     rx="2.8571429"
     ry="2.8571432" />
  <circle
     cx="113"
     cy="127"
     r="4"
     style="stroke:#000000;stroke-width:0.25"
     id="circle883"
     transform="scale(1,-1)" />
  <circle
     cx="93"
     cy="127"
     r="4"
     style="stroke:#000000;stroke-width:0.25"
     id="circle885"
     transform="scale(1,-1)" />
</svg>
