G04 #@! TF.GenerationSoftware,KiCad,Pcbnew,(5.0.0)*
G04 #@! TF.CreationDate,2018-11-17T14:05:54+01:00*
G04 #@! TF.ProjectId,refPhotoDiode_MDversion,72656650686F746F44696F64655F4D44,rev?*
G04 #@! TF.SameCoordinates,Original*
G04 #@! TF.FileFunction,Soldermask,Bot*
G04 #@! TF.FilePolarity,Negative*
%FSLAX46Y46*%
G04 Gerber Fmt 4.6, Leading zero omitted, Abs format (unit mm)*
G04 Created by KiCad (PCBNEW (5.0.0)) date 11/17/18 14:05:54*
%MOMM*%
%LPD*%
G01*
G04 APERTURE LIST*
%ADD10R,1.400000X1.650000*%
%ADD11C,0.100000*%
%ADD12C,1.375000*%
%ADD13R,3.700000X1.150000*%
%ADD14R,1.150000X3.700000*%
%ADD15C,0.750000*%
%ADD16R,1.500000X1.000000*%
%ADD17R,1.650000X1.400000*%
%ADD18O,1.600000X2.000000*%
%ADD19O,1.600000X1.600000*%
%ADD20C,2.600000*%
%ADD21R,1.000000X1.950000*%
%ADD22R,1.600000X2.200000*%
G04 APERTURE END LIST*
D10*
G04 #@! TO.C,C3*
X154170000Y-85815000D03*
X152170000Y-85815000D03*
G04 #@! TD*
D11*
G04 #@! TO.C,L1*
G36*
X152609943Y-83006655D02*
X152643312Y-83011605D01*
X152676035Y-83019802D01*
X152707797Y-83031166D01*
X152738293Y-83045590D01*
X152767227Y-83062932D01*
X152794323Y-83083028D01*
X152819318Y-83105682D01*
X152841972Y-83130677D01*
X152862068Y-83157773D01*
X152879410Y-83186707D01*
X152893834Y-83217203D01*
X152905198Y-83248965D01*
X152913395Y-83281688D01*
X152918345Y-83315057D01*
X152920000Y-83348750D01*
X152920000Y-84461250D01*
X152918345Y-84494943D01*
X152913395Y-84528312D01*
X152905198Y-84561035D01*
X152893834Y-84592797D01*
X152879410Y-84623293D01*
X152862068Y-84652227D01*
X152841972Y-84679323D01*
X152819318Y-84704318D01*
X152794323Y-84726972D01*
X152767227Y-84747068D01*
X152738293Y-84764410D01*
X152707797Y-84778834D01*
X152676035Y-84790198D01*
X152643312Y-84798395D01*
X152609943Y-84803345D01*
X152576250Y-84805000D01*
X151888750Y-84805000D01*
X151855057Y-84803345D01*
X151821688Y-84798395D01*
X151788965Y-84790198D01*
X151757203Y-84778834D01*
X151726707Y-84764410D01*
X151697773Y-84747068D01*
X151670677Y-84726972D01*
X151645682Y-84704318D01*
X151623028Y-84679323D01*
X151602932Y-84652227D01*
X151585590Y-84623293D01*
X151571166Y-84592797D01*
X151559802Y-84561035D01*
X151551605Y-84528312D01*
X151546655Y-84494943D01*
X151545000Y-84461250D01*
X151545000Y-83348750D01*
X151546655Y-83315057D01*
X151551605Y-83281688D01*
X151559802Y-83248965D01*
X151571166Y-83217203D01*
X151585590Y-83186707D01*
X151602932Y-83157773D01*
X151623028Y-83130677D01*
X151645682Y-83105682D01*
X151670677Y-83083028D01*
X151697773Y-83062932D01*
X151726707Y-83045590D01*
X151757203Y-83031166D01*
X151788965Y-83019802D01*
X151821688Y-83011605D01*
X151855057Y-83006655D01*
X151888750Y-83005000D01*
X152576250Y-83005000D01*
X152609943Y-83006655D01*
X152609943Y-83006655D01*
G37*
D12*
X152232500Y-83905000D03*
D11*
G36*
X154484943Y-83006655D02*
X154518312Y-83011605D01*
X154551035Y-83019802D01*
X154582797Y-83031166D01*
X154613293Y-83045590D01*
X154642227Y-83062932D01*
X154669323Y-83083028D01*
X154694318Y-83105682D01*
X154716972Y-83130677D01*
X154737068Y-83157773D01*
X154754410Y-83186707D01*
X154768834Y-83217203D01*
X154780198Y-83248965D01*
X154788395Y-83281688D01*
X154793345Y-83315057D01*
X154795000Y-83348750D01*
X154795000Y-84461250D01*
X154793345Y-84494943D01*
X154788395Y-84528312D01*
X154780198Y-84561035D01*
X154768834Y-84592797D01*
X154754410Y-84623293D01*
X154737068Y-84652227D01*
X154716972Y-84679323D01*
X154694318Y-84704318D01*
X154669323Y-84726972D01*
X154642227Y-84747068D01*
X154613293Y-84764410D01*
X154582797Y-84778834D01*
X154551035Y-84790198D01*
X154518312Y-84798395D01*
X154484943Y-84803345D01*
X154451250Y-84805000D01*
X153763750Y-84805000D01*
X153730057Y-84803345D01*
X153696688Y-84798395D01*
X153663965Y-84790198D01*
X153632203Y-84778834D01*
X153601707Y-84764410D01*
X153572773Y-84747068D01*
X153545677Y-84726972D01*
X153520682Y-84704318D01*
X153498028Y-84679323D01*
X153477932Y-84652227D01*
X153460590Y-84623293D01*
X153446166Y-84592797D01*
X153434802Y-84561035D01*
X153426605Y-84528312D01*
X153421655Y-84494943D01*
X153420000Y-84461250D01*
X153420000Y-83348750D01*
X153421655Y-83315057D01*
X153426605Y-83281688D01*
X153434802Y-83248965D01*
X153446166Y-83217203D01*
X153460590Y-83186707D01*
X153477932Y-83157773D01*
X153498028Y-83130677D01*
X153520682Y-83105682D01*
X153545677Y-83083028D01*
X153572773Y-83062932D01*
X153601707Y-83045590D01*
X153632203Y-83031166D01*
X153663965Y-83019802D01*
X153696688Y-83011605D01*
X153730057Y-83006655D01*
X153763750Y-83005000D01*
X154451250Y-83005000D01*
X154484943Y-83006655D01*
X154484943Y-83006655D01*
G37*
D12*
X154107500Y-83905000D03*
G04 #@! TD*
D13*
G04 #@! TO.C,U2*
X150000000Y-80350000D03*
X150000000Y-92650000D03*
D14*
X143370000Y-86500000D03*
X156630000Y-86500000D03*
D15*
X155355000Y-80350000D03*
D11*
G36*
X157201157Y-83314018D02*
X157189776Y-83351537D01*
X157171294Y-83386114D01*
X157146421Y-83416421D01*
X157116114Y-83441294D01*
X157081537Y-83459776D01*
X157044018Y-83471157D01*
X157005000Y-83475000D01*
X156255000Y-83475000D01*
X156215982Y-83471157D01*
X156178463Y-83459776D01*
X156143886Y-83441294D01*
X156113579Y-83416421D01*
X156088706Y-83386114D01*
X156070224Y-83351537D01*
X156058843Y-83314018D01*
X156055000Y-83275000D01*
X156055000Y-80925000D01*
X153705000Y-80925000D01*
X153665982Y-80921157D01*
X153628463Y-80909776D01*
X153593886Y-80891294D01*
X153563579Y-80866421D01*
X153538706Y-80836114D01*
X153520224Y-80801537D01*
X153508843Y-80764018D01*
X153505000Y-80725000D01*
X153505000Y-79975000D01*
X153508843Y-79935982D01*
X153520224Y-79898463D01*
X153538706Y-79863886D01*
X153563579Y-79833579D01*
X153593886Y-79808706D01*
X153628463Y-79790224D01*
X153665982Y-79778843D01*
X153705000Y-79775000D01*
X157005000Y-79775000D01*
X157044018Y-79778843D01*
X157081537Y-79790224D01*
X157116114Y-79808706D01*
X157146421Y-79833579D01*
X157171294Y-79863886D01*
X157189776Y-79898463D01*
X157201157Y-79935982D01*
X157205000Y-79975000D01*
X157205000Y-83275000D01*
X157201157Y-83314018D01*
X157201157Y-83314018D01*
G37*
D15*
X144645000Y-92650000D03*
D11*
G36*
X142798843Y-89685982D02*
X142810224Y-89648463D01*
X142828706Y-89613886D01*
X142853579Y-89583579D01*
X142883886Y-89558706D01*
X142918463Y-89540224D01*
X142955982Y-89528843D01*
X142995000Y-89525000D01*
X143745000Y-89525000D01*
X143784018Y-89528843D01*
X143821537Y-89540224D01*
X143856114Y-89558706D01*
X143886421Y-89583579D01*
X143911294Y-89613886D01*
X143929776Y-89648463D01*
X143941157Y-89685982D01*
X143945000Y-89725000D01*
X143945000Y-92075000D01*
X146295000Y-92075000D01*
X146334018Y-92078843D01*
X146371537Y-92090224D01*
X146406114Y-92108706D01*
X146436421Y-92133579D01*
X146461294Y-92163886D01*
X146479776Y-92198463D01*
X146491157Y-92235982D01*
X146495000Y-92275000D01*
X146495000Y-93025000D01*
X146491157Y-93064018D01*
X146479776Y-93101537D01*
X146461294Y-93136114D01*
X146436421Y-93166421D01*
X146406114Y-93191294D01*
X146371537Y-93209776D01*
X146334018Y-93221157D01*
X146295000Y-93225000D01*
X142995000Y-93225000D01*
X142955982Y-93221157D01*
X142918463Y-93209776D01*
X142883886Y-93191294D01*
X142853579Y-93166421D01*
X142828706Y-93136114D01*
X142810224Y-93101537D01*
X142798843Y-93064018D01*
X142795000Y-93025000D01*
X142795000Y-89725000D01*
X142798843Y-89685982D01*
X142798843Y-89685982D01*
G37*
D15*
X143370000Y-81625000D03*
D11*
G36*
X146334018Y-79778843D02*
X146371537Y-79790224D01*
X146406114Y-79808706D01*
X146436421Y-79833579D01*
X146461294Y-79863886D01*
X146479776Y-79898463D01*
X146491157Y-79935982D01*
X146495000Y-79975000D01*
X146495000Y-80725000D01*
X146491157Y-80764018D01*
X146479776Y-80801537D01*
X146461294Y-80836114D01*
X146436421Y-80866421D01*
X146406114Y-80891294D01*
X146371537Y-80909776D01*
X146334018Y-80921157D01*
X146295000Y-80925000D01*
X143945000Y-80925000D01*
X143945000Y-83275000D01*
X143941157Y-83314018D01*
X143929776Y-83351537D01*
X143911294Y-83386114D01*
X143886421Y-83416421D01*
X143856114Y-83441294D01*
X143821537Y-83459776D01*
X143784018Y-83471157D01*
X143745000Y-83475000D01*
X142995000Y-83475000D01*
X142955982Y-83471157D01*
X142918463Y-83459776D01*
X142883886Y-83441294D01*
X142853579Y-83416421D01*
X142828706Y-83386114D01*
X142810224Y-83351537D01*
X142798843Y-83314018D01*
X142795000Y-83275000D01*
X142795000Y-79975000D01*
X142798843Y-79935982D01*
X142810224Y-79898463D01*
X142828706Y-79863886D01*
X142853579Y-79833579D01*
X142883886Y-79808706D01*
X142918463Y-79790224D01*
X142955982Y-79778843D01*
X142995000Y-79775000D01*
X146295000Y-79775000D01*
X146334018Y-79778843D01*
X146334018Y-79778843D01*
G37*
D15*
X156630000Y-91375000D03*
D11*
G36*
X153665982Y-93221157D02*
X153628463Y-93209776D01*
X153593886Y-93191294D01*
X153563579Y-93166421D01*
X153538706Y-93136114D01*
X153520224Y-93101537D01*
X153508843Y-93064018D01*
X153505000Y-93025000D01*
X153505000Y-92275000D01*
X153508843Y-92235982D01*
X153520224Y-92198463D01*
X153538706Y-92163886D01*
X153563579Y-92133579D01*
X153593886Y-92108706D01*
X153628463Y-92090224D01*
X153665982Y-92078843D01*
X153705000Y-92075000D01*
X156055000Y-92075000D01*
X156055000Y-89725000D01*
X156058843Y-89685982D01*
X156070224Y-89648463D01*
X156088706Y-89613886D01*
X156113579Y-89583579D01*
X156143886Y-89558706D01*
X156178463Y-89540224D01*
X156215982Y-89528843D01*
X156255000Y-89525000D01*
X157005000Y-89525000D01*
X157044018Y-89528843D01*
X157081537Y-89540224D01*
X157116114Y-89558706D01*
X157146421Y-89583579D01*
X157171294Y-89613886D01*
X157189776Y-89648463D01*
X157201157Y-89685982D01*
X157205000Y-89725000D01*
X157205000Y-93025000D01*
X157201157Y-93064018D01*
X157189776Y-93101537D01*
X157171294Y-93136114D01*
X157146421Y-93166421D01*
X157116114Y-93191294D01*
X157081537Y-93209776D01*
X157044018Y-93221157D01*
X157005000Y-93225000D01*
X153705000Y-93225000D01*
X153665982Y-93221157D01*
X153665982Y-93221157D01*
G37*
G04 #@! TD*
D16*
G04 #@! TO.C,U1*
X151950000Y-89800000D03*
X151950000Y-87900000D03*
X151950000Y-88850000D03*
X154150000Y-87900000D03*
X154150000Y-89800000D03*
G04 #@! TD*
D10*
G04 #@! TO.C,C2*
X148560000Y-83885000D03*
X150560000Y-83885000D03*
G04 #@! TD*
D17*
G04 #@! TO.C,C1*
X146061528Y-87828852D03*
X146061528Y-89828852D03*
G04 #@! TD*
D18*
G04 #@! TO.C,D1*
X150000000Y-91000000D03*
D19*
X150000000Y-85920000D03*
G04 #@! TD*
D11*
G04 #@! TO.C,R1*
G36*
X148551471Y-89080507D02*
X148584840Y-89085457D01*
X148617563Y-89093654D01*
X148649325Y-89105018D01*
X148679821Y-89119442D01*
X148708755Y-89136784D01*
X148735851Y-89156880D01*
X148760846Y-89179534D01*
X148783500Y-89204529D01*
X148803596Y-89231625D01*
X148820938Y-89260559D01*
X148835362Y-89291055D01*
X148846726Y-89322817D01*
X148854923Y-89355540D01*
X148859873Y-89388909D01*
X148861528Y-89422602D01*
X148861528Y-90110102D01*
X148859873Y-90143795D01*
X148854923Y-90177164D01*
X148846726Y-90209887D01*
X148835362Y-90241649D01*
X148820938Y-90272145D01*
X148803596Y-90301079D01*
X148783500Y-90328175D01*
X148760846Y-90353170D01*
X148735851Y-90375824D01*
X148708755Y-90395920D01*
X148679821Y-90413262D01*
X148649325Y-90427686D01*
X148617563Y-90439050D01*
X148584840Y-90447247D01*
X148551471Y-90452197D01*
X148517778Y-90453852D01*
X147405278Y-90453852D01*
X147371585Y-90452197D01*
X147338216Y-90447247D01*
X147305493Y-90439050D01*
X147273731Y-90427686D01*
X147243235Y-90413262D01*
X147214301Y-90395920D01*
X147187205Y-90375824D01*
X147162210Y-90353170D01*
X147139556Y-90328175D01*
X147119460Y-90301079D01*
X147102118Y-90272145D01*
X147087694Y-90241649D01*
X147076330Y-90209887D01*
X147068133Y-90177164D01*
X147063183Y-90143795D01*
X147061528Y-90110102D01*
X147061528Y-89422602D01*
X147063183Y-89388909D01*
X147068133Y-89355540D01*
X147076330Y-89322817D01*
X147087694Y-89291055D01*
X147102118Y-89260559D01*
X147119460Y-89231625D01*
X147139556Y-89204529D01*
X147162210Y-89179534D01*
X147187205Y-89156880D01*
X147214301Y-89136784D01*
X147243235Y-89119442D01*
X147273731Y-89105018D01*
X147305493Y-89093654D01*
X147338216Y-89085457D01*
X147371585Y-89080507D01*
X147405278Y-89078852D01*
X148517778Y-89078852D01*
X148551471Y-89080507D01*
X148551471Y-89080507D01*
G37*
D12*
X147961528Y-89766352D03*
D11*
G36*
X148551471Y-87205507D02*
X148584840Y-87210457D01*
X148617563Y-87218654D01*
X148649325Y-87230018D01*
X148679821Y-87244442D01*
X148708755Y-87261784D01*
X148735851Y-87281880D01*
X148760846Y-87304534D01*
X148783500Y-87329529D01*
X148803596Y-87356625D01*
X148820938Y-87385559D01*
X148835362Y-87416055D01*
X148846726Y-87447817D01*
X148854923Y-87480540D01*
X148859873Y-87513909D01*
X148861528Y-87547602D01*
X148861528Y-88235102D01*
X148859873Y-88268795D01*
X148854923Y-88302164D01*
X148846726Y-88334887D01*
X148835362Y-88366649D01*
X148820938Y-88397145D01*
X148803596Y-88426079D01*
X148783500Y-88453175D01*
X148760846Y-88478170D01*
X148735851Y-88500824D01*
X148708755Y-88520920D01*
X148679821Y-88538262D01*
X148649325Y-88552686D01*
X148617563Y-88564050D01*
X148584840Y-88572247D01*
X148551471Y-88577197D01*
X148517778Y-88578852D01*
X147405278Y-88578852D01*
X147371585Y-88577197D01*
X147338216Y-88572247D01*
X147305493Y-88564050D01*
X147273731Y-88552686D01*
X147243235Y-88538262D01*
X147214301Y-88520920D01*
X147187205Y-88500824D01*
X147162210Y-88478170D01*
X147139556Y-88453175D01*
X147119460Y-88426079D01*
X147102118Y-88397145D01*
X147087694Y-88366649D01*
X147076330Y-88334887D01*
X147068133Y-88302164D01*
X147063183Y-88268795D01*
X147061528Y-88235102D01*
X147061528Y-87547602D01*
X147063183Y-87513909D01*
X147068133Y-87480540D01*
X147076330Y-87447817D01*
X147087694Y-87416055D01*
X147102118Y-87385559D01*
X147119460Y-87356625D01*
X147139556Y-87329529D01*
X147162210Y-87304534D01*
X147187205Y-87281880D01*
X147214301Y-87261784D01*
X147243235Y-87244442D01*
X147273731Y-87230018D01*
X147305493Y-87218654D01*
X147338216Y-87210457D01*
X147371585Y-87205507D01*
X147405278Y-87203852D01*
X148517778Y-87203852D01*
X148551471Y-87205507D01*
X148551471Y-87205507D01*
G37*
D12*
X147961528Y-87891352D03*
G04 #@! TD*
D20*
G04 #@! TO.C,REF\002A\002A*
X150000000Y-95000000D03*
G04 #@! TD*
D21*
G04 #@! TO.C,J3*
X152500000Y-106325000D03*
X151500000Y-106325000D03*
X150500000Y-106325000D03*
X149500000Y-106325000D03*
X148500000Y-106325000D03*
X147500000Y-106325000D03*
D22*
X153800000Y-103800000D03*
X146200000Y-103800000D03*
G04 #@! TD*
M02*
