G04 #@! TF.GenerationSoftware,KiCad,Pcbnew,(5.0.0)*
G04 #@! TF.CreationDate,2018-11-17T14:05:54+01:00*
G04 #@! TF.ProjectId,refPhotoDiode_MDversion,72656650686F746F44696F64655F4D44,rev?*
G04 #@! TF.SameCoordinates,Original*
G04 #@! TF.FileFunction,Legend,Top*
G04 #@! TF.FilePolarity,Positive*
%FSLAX46Y46*%
G04 Gerber Fmt 4.6, Leading zero omitted, Abs format (unit mm)*
G04 Created by KiCad (PCBNEW (5.0.0)) date 11/17/18 14:05:54*
%MOMM*%
%LPD*%
G01*
G04 APERTURE LIST*
%ADD10C,0.120000*%
%ADD11C,0.150000*%
G04 APERTURE END LIST*
D10*
G04 #@! TO.C,J1*
X140670000Y-89860000D02*
X143330000Y-89860000D01*
X140670000Y-100140000D02*
X143330000Y-100140000D01*
X143330000Y-89860000D02*
X143330000Y-92970000D01*
X140670000Y-90430000D02*
X139150000Y-90430000D01*
X140670000Y-89860000D02*
X140670000Y-90430000D01*
X143330000Y-99570000D02*
X143330000Y-100140000D01*
X143330000Y-94490000D02*
X143330000Y-98050000D01*
X140670000Y-91950000D02*
X140670000Y-95510000D01*
X140670000Y-97030000D02*
X140670000Y-100140000D01*
G04 #@! TO.C,D1*
X146225098Y-91457084D02*
X145334144Y-92348039D01*
X145334144Y-92348039D02*
X146111961Y-93125856D01*
X146111961Y-93125856D02*
X147002916Y-92234902D01*
X147002629Y-92234674D02*
G75*
G03X146225098Y-91457084I2997371J3774674D01*
G01*
G04 #@! TO.C,J2*
X156670000Y-97030000D02*
X156670000Y-100140000D01*
X156670000Y-91950000D02*
X156670000Y-95510000D01*
X159330000Y-94490000D02*
X159330000Y-98050000D01*
X159330000Y-99570000D02*
X159330000Y-100140000D01*
X156670000Y-89860000D02*
X156670000Y-90430000D01*
X156670000Y-90430000D02*
X155150000Y-90430000D01*
X159330000Y-89860000D02*
X159330000Y-92970000D01*
X156670000Y-100140000D02*
X159330000Y-100140000D01*
X156670000Y-89860000D02*
X159330000Y-89860000D01*
G04 #@! TO.C,J1*
D11*
X141666666Y-88312380D02*
X141666666Y-89026666D01*
X141619047Y-89169523D01*
X141523809Y-89264761D01*
X141380952Y-89312380D01*
X141285714Y-89312380D01*
X142666666Y-89312380D02*
X142095238Y-89312380D01*
X142380952Y-89312380D02*
X142380952Y-88312380D01*
X142285714Y-88455238D01*
X142190476Y-88550476D01*
X142095238Y-88598095D01*
G04 #@! TO.C,D1*
X144632380Y-89198095D02*
X143632380Y-89198095D01*
X143632380Y-88960000D01*
X143680000Y-88817142D01*
X143775238Y-88721904D01*
X143870476Y-88674285D01*
X144060952Y-88626666D01*
X144203809Y-88626666D01*
X144394285Y-88674285D01*
X144489523Y-88721904D01*
X144584761Y-88817142D01*
X144632380Y-88960000D01*
X144632380Y-89198095D01*
X144632380Y-87674285D02*
X144632380Y-88245714D01*
X144632380Y-87960000D02*
X143632380Y-87960000D01*
X143775238Y-88055238D01*
X143870476Y-88150476D01*
X143918095Y-88245714D01*
G04 #@! TO.C,J2*
X157666666Y-88312380D02*
X157666666Y-89026666D01*
X157619047Y-89169523D01*
X157523809Y-89264761D01*
X157380952Y-89312380D01*
X157285714Y-89312380D01*
X158095238Y-88407619D02*
X158142857Y-88360000D01*
X158238095Y-88312380D01*
X158476190Y-88312380D01*
X158571428Y-88360000D01*
X158619047Y-88407619D01*
X158666666Y-88502857D01*
X158666666Y-88598095D01*
X158619047Y-88740952D01*
X158047619Y-89312380D01*
X158666666Y-89312380D01*
G04 #@! TO.C,REF\002A\002A*
X148666666Y-92252380D02*
X148333333Y-91776190D01*
X148095238Y-92252380D02*
X148095238Y-91252380D01*
X148476190Y-91252380D01*
X148571428Y-91300000D01*
X148619047Y-91347619D01*
X148666666Y-91442857D01*
X148666666Y-91585714D01*
X148619047Y-91680952D01*
X148571428Y-91728571D01*
X148476190Y-91776190D01*
X148095238Y-91776190D01*
X149095238Y-91728571D02*
X149428571Y-91728571D01*
X149571428Y-92252380D02*
X149095238Y-92252380D01*
X149095238Y-91252380D01*
X149571428Y-91252380D01*
X150333333Y-91728571D02*
X150000000Y-91728571D01*
X150000000Y-92252380D02*
X150000000Y-91252380D01*
X150476190Y-91252380D01*
X151000000Y-91252380D02*
X151000000Y-91490476D01*
X150761904Y-91395238D02*
X151000000Y-91490476D01*
X151238095Y-91395238D01*
X150857142Y-91680952D02*
X151000000Y-91490476D01*
X151142857Y-91680952D01*
X151761904Y-91252380D02*
X151761904Y-91490476D01*
X151523809Y-91395238D02*
X151761904Y-91490476D01*
X152000000Y-91395238D01*
X151619047Y-91680952D02*
X151761904Y-91490476D01*
X151904761Y-91680952D01*
G04 #@! TD*
M02*
