G04 #@! TF.GenerationSoftware,KiCad,Pcbnew,(5.0.0)*
G04 #@! TF.CreationDate,2018-12-16T10:52:04+01:00*
G04 #@! TF.ProjectId,ODMeter,4F444D657465722E6B696361645F7063,rev?*
G04 #@! TF.SameCoordinates,Original*
G04 #@! TF.FileFunction,Legend,Bot*
G04 #@! TF.FilePolarity,Positive*
%FSLAX46Y46*%
G04 Gerber Fmt 4.6, Leading zero omitted, Abs format (unit mm)*
G04 Created by KiCad (PCBNEW (5.0.0)) date 12/16/18 10:52:04*
%MOMM*%
%LPD*%
G01*
G04 APERTURE LIST*
%ADD10C,0.300000*%
G04 APERTURE END LIST*
D10*
X143178571Y-71892857D02*
X141678571Y-71892857D01*
X142750000Y-72392857D01*
X141678571Y-72892857D01*
X143178571Y-72892857D01*
X143178571Y-74250000D02*
X142392857Y-74250000D01*
X142250000Y-74178571D01*
X142178571Y-74035714D01*
X142178571Y-73750000D01*
X142250000Y-73607142D01*
X143107142Y-74250000D02*
X143178571Y-74107142D01*
X143178571Y-73750000D01*
X143107142Y-73607142D01*
X142964285Y-73535714D01*
X142821428Y-73535714D01*
X142678571Y-73607142D01*
X142607142Y-73750000D01*
X142607142Y-74107142D01*
X142535714Y-74250000D01*
X142178571Y-75607142D02*
X143392857Y-75607142D01*
X143535714Y-75535714D01*
X143607142Y-75464285D01*
X143678571Y-75321428D01*
X143678571Y-75107142D01*
X143607142Y-74964285D01*
X143107142Y-75607142D02*
X143178571Y-75464285D01*
X143178571Y-75178571D01*
X143107142Y-75035714D01*
X143035714Y-74964285D01*
X142892857Y-74892857D01*
X142464285Y-74892857D01*
X142321428Y-74964285D01*
X142250000Y-75035714D01*
X142178571Y-75178571D01*
X142178571Y-75464285D01*
X142250000Y-75607142D01*
X141678571Y-76607142D02*
X141678571Y-76892857D01*
X141750000Y-77035714D01*
X141892857Y-77178571D01*
X142178571Y-77250000D01*
X142678571Y-77250000D01*
X142964285Y-77178571D01*
X143107142Y-77035714D01*
X143178571Y-76892857D01*
X143178571Y-76607142D01*
X143107142Y-76464285D01*
X142964285Y-76321428D01*
X142678571Y-76250000D01*
X142178571Y-76250000D01*
X141892857Y-76321428D01*
X141750000Y-76464285D01*
X141678571Y-76607142D01*
X143178571Y-77892857D02*
X141678571Y-77892857D01*
X141678571Y-78250000D01*
X141750000Y-78464285D01*
X141892857Y-78607142D01*
X142035714Y-78678571D01*
X142321428Y-78750000D01*
X142535714Y-78750000D01*
X142821428Y-78678571D01*
X142964285Y-78607142D01*
X143107142Y-78464285D01*
X143178571Y-78250000D01*
X143178571Y-77892857D01*
X142178571Y-80392857D02*
X143178571Y-80750000D01*
X142178571Y-81107142D01*
X143178571Y-82464285D02*
X143178571Y-81607142D01*
X143178571Y-82035714D02*
X141678571Y-82035714D01*
X141892857Y-81892857D01*
X142035714Y-81750000D01*
X142107142Y-81607142D01*
X143035714Y-83107142D02*
X143107142Y-83178571D01*
X143178571Y-83107142D01*
X143107142Y-83035714D01*
X143035714Y-83107142D01*
X143178571Y-83107142D01*
X143178571Y-84607142D02*
X143178571Y-83750000D01*
X143178571Y-84178571D02*
X141678571Y-84178571D01*
X141892857Y-84035714D01*
X142035714Y-83892857D01*
X142107142Y-83750000D01*
X143178571Y-86392857D02*
X141678571Y-86392857D01*
X142250000Y-86392857D02*
X142178571Y-86535714D01*
X142178571Y-86821428D01*
X142250000Y-86964285D01*
X142321428Y-87035714D01*
X142464285Y-87107142D01*
X142892857Y-87107142D01*
X143035714Y-87035714D01*
X143107142Y-86964285D01*
X143178571Y-86821428D01*
X143178571Y-86535714D01*
X143107142Y-86392857D01*
X142178571Y-87607142D02*
X143178571Y-87964285D01*
X142178571Y-88321428D02*
X143178571Y-87964285D01*
X143535714Y-87821428D01*
X143607142Y-87750000D01*
X143678571Y-87607142D01*
X143178571Y-90035714D02*
X141678571Y-90035714D01*
X142750000Y-90535714D01*
X141678571Y-91035714D01*
X143178571Y-91035714D01*
X143035714Y-91750000D02*
X143107142Y-91821428D01*
X143178571Y-91750000D01*
X143107142Y-91678571D01*
X143035714Y-91750000D01*
X143178571Y-91750000D01*
X143178571Y-92464285D02*
X141678571Y-92464285D01*
X143178571Y-93321428D02*
X142321428Y-92678571D01*
X141678571Y-93321428D02*
X142535714Y-92464285D01*
X143035714Y-93964285D02*
X143107142Y-94035714D01*
X143178571Y-93964285D01*
X143107142Y-93892857D01*
X143035714Y-93964285D01*
X143178571Y-93964285D01*
X141678571Y-94535714D02*
X143178571Y-94892857D01*
X142107142Y-95178571D01*
X143178571Y-95464285D01*
X141678571Y-95821428D01*
X143107142Y-96964285D02*
X143178571Y-96821428D01*
X143178571Y-96535714D01*
X143107142Y-96392857D01*
X142964285Y-96321428D01*
X142392857Y-96321428D01*
X142250000Y-96392857D01*
X142178571Y-96535714D01*
X142178571Y-96821428D01*
X142250000Y-96964285D01*
X142392857Y-97035714D01*
X142535714Y-97035714D01*
X142678571Y-96321428D01*
X143178571Y-97892857D02*
X143107142Y-97750000D01*
X142964285Y-97678571D01*
X141678571Y-97678571D01*
X143178571Y-98678571D02*
X143107142Y-98535714D01*
X142964285Y-98464285D01*
X141678571Y-98464285D01*
X143107142Y-99821428D02*
X143178571Y-99678571D01*
X143178571Y-99392857D01*
X143107142Y-99250000D01*
X142964285Y-99178571D01*
X142392857Y-99178571D01*
X142250000Y-99250000D01*
X142178571Y-99392857D01*
X142178571Y-99678571D01*
X142250000Y-99821428D01*
X142392857Y-99892857D01*
X142535714Y-99892857D01*
X142678571Y-99178571D01*
X142178571Y-100392857D02*
X143178571Y-100678571D01*
X142464285Y-100964285D01*
X143178571Y-101250000D01*
X142178571Y-101535714D01*
X143107142Y-102678571D02*
X143178571Y-102535714D01*
X143178571Y-102250000D01*
X143107142Y-102107142D01*
X142964285Y-102035714D01*
X142392857Y-102035714D01*
X142250000Y-102107142D01*
X142178571Y-102250000D01*
X142178571Y-102535714D01*
X142250000Y-102678571D01*
X142392857Y-102750000D01*
X142535714Y-102750000D01*
X142678571Y-102035714D01*
X143107142Y-103964285D02*
X143178571Y-103821428D01*
X143178571Y-103535714D01*
X143107142Y-103392857D01*
X142964285Y-103321428D01*
X142392857Y-103321428D01*
X142250000Y-103392857D01*
X142178571Y-103535714D01*
X142178571Y-103821428D01*
X142250000Y-103964285D01*
X142392857Y-104035714D01*
X142535714Y-104035714D01*
X142678571Y-103321428D01*
X143178571Y-104678571D02*
X142178571Y-104678571D01*
X142464285Y-104678571D02*
X142321428Y-104750000D01*
X142250000Y-104821428D01*
X142178571Y-104964285D01*
X142178571Y-105107142D01*
X143178571Y-106250000D02*
X141678571Y-106250000D01*
X143107142Y-106250000D02*
X143178571Y-106107142D01*
X143178571Y-105821428D01*
X143107142Y-105678571D01*
X143035714Y-105607142D01*
X142892857Y-105535714D01*
X142464285Y-105535714D01*
X142321428Y-105607142D01*
X142250000Y-105678571D01*
X142178571Y-105821428D01*
X142178571Y-106107142D01*
X142250000Y-106250000D01*
X143178571Y-109321428D02*
X143178571Y-109250000D01*
X143107142Y-109107142D01*
X142892857Y-108892857D01*
X142464285Y-108535714D01*
X142250000Y-108392857D01*
X142035714Y-108321428D01*
X141892857Y-108321428D01*
X141750000Y-108392857D01*
X141678571Y-108535714D01*
X141678571Y-108607142D01*
X141750000Y-108750000D01*
X141892857Y-108821428D01*
X141964285Y-108821428D01*
X142107142Y-108750000D01*
X142178571Y-108678571D01*
X142464285Y-108250000D01*
X142535714Y-108178571D01*
X142678571Y-108107142D01*
X142892857Y-108107142D01*
X143035714Y-108178571D01*
X143107142Y-108250000D01*
X143178571Y-108392857D01*
X143178571Y-108607142D01*
X143107142Y-108750000D01*
X143035714Y-108821428D01*
X142750000Y-109035714D01*
X142535714Y-109107142D01*
X142392857Y-109107142D01*
X143178571Y-111107142D02*
X141678571Y-111107142D01*
X141678571Y-111464285D01*
X141750000Y-111678571D01*
X141892857Y-111821428D01*
X142035714Y-111892857D01*
X142321428Y-111964285D01*
X142535714Y-111964285D01*
X142821428Y-111892857D01*
X142964285Y-111821428D01*
X143107142Y-111678571D01*
X143178571Y-111464285D01*
X143178571Y-111107142D01*
X143035714Y-112607142D02*
X143107142Y-112678571D01*
X143178571Y-112607142D01*
X143107142Y-112535714D01*
X143035714Y-112607142D01*
X143178571Y-112607142D01*
X143178571Y-113321428D02*
X141678571Y-113321428D01*
X142750000Y-113821428D01*
X141678571Y-114321428D01*
X143178571Y-114321428D01*
X143035714Y-115035714D02*
X143107142Y-115107142D01*
X143178571Y-115035714D01*
X143107142Y-114964285D01*
X143035714Y-115035714D01*
X143178571Y-115035714D01*
X143178571Y-115750000D02*
X141678571Y-115750000D01*
X142750000Y-116250000D01*
X141678571Y-116750000D01*
X143178571Y-116750000D01*
X143035714Y-117464285D02*
X143107142Y-117535714D01*
X143178571Y-117464285D01*
X143107142Y-117392857D01*
X143035714Y-117464285D01*
X143178571Y-117464285D01*
X141678571Y-117964285D02*
X143178571Y-118464285D01*
X141678571Y-118964285D01*
X143178571Y-120107142D02*
X142392857Y-120107142D01*
X142250000Y-120035714D01*
X142178571Y-119892857D01*
X142178571Y-119607142D01*
X142250000Y-119464285D01*
X143107142Y-120107142D02*
X143178571Y-119964285D01*
X143178571Y-119607142D01*
X143107142Y-119464285D01*
X142964285Y-119392857D01*
X142821428Y-119392857D01*
X142678571Y-119464285D01*
X142607142Y-119607142D01*
X142607142Y-119964285D01*
X142535714Y-120107142D01*
X142178571Y-120821428D02*
X143178571Y-120821428D01*
X142321428Y-120821428D02*
X142250000Y-120892857D01*
X142178571Y-121035714D01*
X142178571Y-121250000D01*
X142250000Y-121392857D01*
X142392857Y-121464285D01*
X143178571Y-121464285D01*
X142750000Y-123250000D02*
X142750000Y-123964285D01*
X143178571Y-123107142D02*
X141678571Y-123607142D01*
X143178571Y-124107142D01*
X143107142Y-124535714D02*
X143178571Y-124678571D01*
X143178571Y-124964285D01*
X143107142Y-125107142D01*
X142964285Y-125178571D01*
X142892857Y-125178571D01*
X142750000Y-125107142D01*
X142678571Y-124964285D01*
X142678571Y-124750000D01*
X142607142Y-124607142D01*
X142464285Y-124535714D01*
X142392857Y-124535714D01*
X142250000Y-124607142D01*
X142178571Y-124750000D01*
X142178571Y-124964285D01*
X142250000Y-125107142D01*
M02*
