M48
;DRILL file {KiCad (5.0.0)} date 12/16/18 10:52:09
;FORMAT={3:3/ absolute / metric / suppress leading zeros}
FMAT,2
METRIC,TZ
T1C0.300
T2C0.400
T3C0.762
T4C0.900
T5C1.000
T6C1.100
T7C1.700
T8C1.730
T9C3.200
%
G90
G05
M71
T1
X92100Y-89700
X92100Y-91000
X93400Y-89700
X93400Y-91000
X75900Y-89000
X75900Y-90300
X77200Y-89000
X77200Y-90300
T2
X69000Y-75000
X69000Y-79000
X69600Y-121075
X69675Y-60225
X69875Y-72225
X69950Y-130775
X69975Y-77250
X70000Y-89000
X70200Y-137400
X70650Y-98875
X71000Y-111775
X71900Y-116425
X72150Y-126400
X72500Y-78625
X72600Y-74850
X73300Y-71750
X74375Y-133275
X74450Y-60225
X74550Y-139850
X76900Y-115025
X76900Y-118000
X77700Y-105250
X78250Y-100275
X78525Y-63725
X78525Y-71400
X78850Y-67725
X79175Y-57875
X80600Y-137600
X80650Y-133575
X80775Y-103500
X81000Y-108200
X81200Y-142225
X81275Y-112550
X81775Y-117125
X82825Y-99975
X83700Y-66750
X83850Y-59150
X84725Y-137650
X84850Y-118000
X85550Y-69600
X86000Y-126300
X86525Y-65550
X86750Y-91000
X88600Y-124400
X88650Y-137750
X89250Y-142325
X89550Y-103775
X89825Y-107525
X90025Y-66525
X90050Y-58850
X90775Y-99875
X90775Y-111325
X92100Y-114350
X92500Y-137750
X92750Y-118000
X92850Y-102500
X93775Y-98700
X94750Y-108925
X95050Y-67350
X95075Y-105225
X95450Y-101175
X96250Y-76550
X96650Y-114025
X96975Y-137925
X96975Y-142050
X97400Y-70525
X98200Y-116125
X98400Y-58750
X98625Y-125300
X98925Y-80075
X100750Y-91250
X101950Y-74350
X102175Y-130150
X102400Y-80700
X102900Y-58750
X103750Y-138700
X104500Y-124400
X104500Y-126300
X104600Y-144100
X104675Y-114225
X106625Y-116250
X107625Y-59175
X108150Y-128800
X108800Y-119700
X109500Y-113200
X109525Y-126475
X109850Y-132225
X110500Y-137500
X111175Y-122800
X112000Y-81850
X112000Y-137500
X112325Y-98400
X112325Y-104425
X112450Y-119925
X112675Y-125500
X112750Y-58825
X112825Y-53350
X113000Y-119150
X113100Y-73025
X113125Y-66050
X113425Y-142800
X113500Y-137500
X113950Y-117650
X114100Y-123475
X115050Y-137475
X115100Y-87400
X115400Y-94675
X115775Y-123550
X116500Y-137500
X117150Y-128600
X117200Y-123600
X117275Y-102550
X117425Y-75225
X117825Y-140725
X117950Y-112150
X118425Y-82225
X119275Y-121975
X119825Y-90450
X120275Y-119925
X120750Y-66975
X120900Y-64625
X121025Y-98900
X121150Y-72500
X121175Y-125950
X121225Y-54050
X121750Y-117600
X122050Y-63600
X122200Y-71025
X122600Y-123700
X123100Y-106325
X123137Y-125987
X123750Y-113275
X124300Y-122000
X124950Y-73850
X125075Y-88375
X125100Y-138500
X125350Y-63800
X126025Y-69925
X126100Y-57800
X126250Y-72350
X126475Y-81150
X126625Y-104225
X126850Y-125275
X126950Y-53875
X127025Y-119325
X127250Y-94500
X127600Y-63550
X128075Y-136175
X128125Y-69325
X128479Y-118754
X129375Y-67850
X129650Y-141725
X129925Y-113300
X130425Y-56900
X131150Y-101600
X132475Y-120175
X133225Y-137850
X133550Y-58000
X133675Y-108925
X134425Y-131850
X135150Y-141600
X135625Y-135000
X137650Y-69675
X137950Y-79175
X138050Y-60100
X138450Y-126675
X139175Y-134500
X140300Y-73450
X140575Y-84775
X141100Y-65400
X142225Y-113525
X142375Y-130725
X142475Y-122275
X142625Y-98650
X142950Y-105675
X143150Y-69575
X143150Y-78050
X143225Y-136100
X143250Y-89150
T3
X107800Y-63210
X107800Y-65750
X107800Y-68290
X107800Y-70830
X107800Y-73370
X107800Y-75910
X107800Y-78450
X107800Y-80990
X107800Y-83530
X107800Y-86070
X107800Y-88610
X107800Y-91150
X107800Y-93690
X107800Y-96230
X107800Y-98770
X133470Y-63210
X133470Y-65750
X133470Y-68290
X133470Y-70830
X133470Y-73370
X133470Y-75910
X133470Y-78450
X133470Y-80990
X133470Y-83530
X133470Y-86070
X133470Y-88610
X133470Y-91150
X133470Y-93690
X133470Y-96230
X133470Y-98770
T5
X78000Y-54000
X80540Y-54000
X83080Y-54000
X83300Y-62450
X85840Y-62450
X88380Y-62450
X90920Y-62450
X93460Y-62450
X96000Y-62450
X98540Y-62450
X101080Y-62450
X96000Y-54000
X98540Y-54000
X101080Y-54000
X87000Y-54000
X89540Y-54000
X92080Y-54000
T6
X78700Y-117280
X78700Y-132520
X86620Y-117280
X86620Y-132520
X94540Y-117280
X94540Y-132520
T7
X74620Y-104020
X74620Y-107980
X74620Y-111940
X86620Y-104020
X86620Y-107980
X86620Y-111940
X90580Y-139500
X94540Y-139500
X98500Y-139500
X98620Y-104020
X98620Y-107980
X98620Y-111940
T8
X70870Y-64900
X74830Y-64900
X86620Y-100060
X78700Y-139400
X82660Y-139400
X86620Y-139500
X98620Y-100060
X74620Y-100060
T9
X72000Y-141000
X141000Y-141000
X72000Y-56000
X141000Y-56000
T4
X107750Y-134550G85X107750Y-136350
G05
X107750Y-141010G85X107750Y-141810
G05
X122250Y-134550G85X122250Y-136350
G05
X122250Y-141010G85X122250Y-141810
G05
T0
M30
