G04 #@! TF.GenerationSoftware,KiCad,Pcbnew,(5.0.0)*
G04 #@! TF.CreationDate,2018-12-16T10:52:04+01:00*
G04 #@! TF.ProjectId,ODMeter,4F444D657465722E6B696361645F7063,rev?*
G04 #@! TF.SameCoordinates,Original*
G04 #@! TF.FileFunction,Soldermask,Top*
G04 #@! TF.FilePolarity,Negative*
%FSLAX46Y46*%
G04 Gerber Fmt 4.6, Leading zero omitted, Abs format (unit mm)*
G04 Created by KiCad (PCBNEW (5.0.0)) date 12/16/18 10:52:04*
%MOMM*%
%LPD*%
G01*
G04 APERTURE LIST*
%ADD10C,0.800000*%
%ADD11R,1.950000X1.000000*%
%ADD12R,3.000000X3.500000*%
%ADD13R,1.400000X1.650000*%
%ADD14R,1.200000X1.900000*%
%ADD15R,1.850000X2.400000*%
%ADD16R,3.300000X5.800000*%
%ADD17C,2.400000*%
%ADD18C,1.924000*%
%ADD19R,0.700000X3.000000*%
%ADD20O,1.900000X2.700000*%
%ADD21O,1.900000X3.700000*%
%ADD22C,3.600000*%
%ADD23R,1.650000X1.400000*%
%ADD24O,2.100000X2.100000*%
%ADD25R,2.100000X2.100000*%
%ADD26R,1.700000X1.100000*%
%ADD27C,2.050000*%
%ADD28R,1.100000X1.700000*%
%ADD29R,1.850000X0.700000*%
%ADD30R,2.200000X1.400000*%
%ADD31R,1.900000X1.000000*%
%ADD32R,3.100000X4.150000*%
%ADD33R,2.900000X1.400000*%
%ADD34R,4.150000X3.100000*%
%ADD35R,1.200000X1.150000*%
%ADD36R,1.150000X1.200000*%
%ADD37R,1.200000X1.300000*%
%ADD38R,1.400000X2.200000*%
%ADD39R,1.400000X2.900000*%
G04 APERTURE END LIST*
D10*
G04 #@! TO.C,U6*
X93400000Y-91000000D03*
X93400000Y-89700000D03*
X92100000Y-89700000D03*
D11*
X90050000Y-88445000D03*
X90050000Y-89715000D03*
X90050000Y-90985000D03*
X90050000Y-92255000D03*
X95450000Y-88445000D03*
X95450000Y-89715000D03*
X95450000Y-90985000D03*
X95450000Y-92255000D03*
D12*
X92750000Y-90350000D03*
D10*
X92100000Y-91000000D03*
G04 #@! TD*
G04 #@! TO.C,U4*
X75900000Y-89000000D03*
X75900000Y-90300000D03*
X77200000Y-90300000D03*
D11*
X79250000Y-91555000D03*
X79250000Y-90285000D03*
X79250000Y-89015000D03*
X79250000Y-87745000D03*
X73850000Y-91555000D03*
X73850000Y-90285000D03*
X73850000Y-89015000D03*
X73850000Y-87745000D03*
D12*
X76550000Y-89650000D03*
D10*
X77200000Y-89000000D03*
G04 #@! TD*
D13*
G04 #@! TO.C,C16*
X121200000Y-68825000D03*
X123200000Y-68825000D03*
G04 #@! TD*
D14*
G04 #@! TO.C,J24*
X126450000Y-61750000D03*
X125350000Y-61750000D03*
X124250000Y-61750000D03*
X123150000Y-61750000D03*
X122050000Y-61750000D03*
X120950000Y-61750000D03*
X119850000Y-61750000D03*
X118750000Y-61750000D03*
D15*
X130050000Y-56050000D03*
X130050000Y-64350000D03*
X116300000Y-56050000D03*
X116300000Y-64350000D03*
G04 #@! TD*
D16*
G04 #@! TO.C,L1*
X76300000Y-79200000D03*
X86000000Y-79200000D03*
G04 #@! TD*
D17*
G04 #@! TO.C,J20*
X70870000Y-64900000D03*
X74830000Y-64900000D03*
G04 #@! TD*
D18*
G04 #@! TO.C,U3*
X133470000Y-98770000D03*
X133470000Y-96230000D03*
X133470000Y-93690000D03*
X133470000Y-91150000D03*
X133470000Y-88610000D03*
X133470000Y-86070000D03*
X133470000Y-83530000D03*
X133470000Y-80990000D03*
X133470000Y-78450000D03*
X133470000Y-75910000D03*
X133470000Y-73370000D03*
X133470000Y-70830000D03*
X133470000Y-68290000D03*
X133470000Y-65750000D03*
X133470000Y-63210000D03*
X107800000Y-63210000D03*
X107800000Y-65750000D03*
X107800000Y-68290000D03*
X107800000Y-70830000D03*
X107800000Y-73370000D03*
X107800000Y-75910000D03*
X107800000Y-78450000D03*
X107800000Y-80990000D03*
X107800000Y-83530000D03*
X107800000Y-86070000D03*
X107800000Y-88610000D03*
X107800000Y-91150000D03*
X107800000Y-93690000D03*
X107800000Y-96230000D03*
X107800000Y-98770000D03*
G04 #@! TD*
D19*
G04 #@! TO.C,J11*
X119500000Y-134690000D03*
X119000000Y-134690000D03*
X118500000Y-134690000D03*
X118000000Y-134690000D03*
X117500000Y-134690000D03*
X117000000Y-134690000D03*
X116500000Y-134690000D03*
X116000000Y-134690000D03*
X115500000Y-134690000D03*
X110500000Y-134690000D03*
X111000000Y-134690000D03*
X111500000Y-134690000D03*
X112000000Y-134690000D03*
X112500000Y-134690000D03*
X113000000Y-134690000D03*
X113500000Y-134690000D03*
X114000000Y-134690000D03*
X114500000Y-134690000D03*
X115000000Y-134690000D03*
D20*
X122250000Y-141410000D03*
X107750000Y-141410000D03*
D21*
X122250000Y-135450000D03*
X107750000Y-135450000D03*
G04 #@! TD*
D22*
G04 #@! TO.C,REF\002A\002A*
X141000000Y-56000000D03*
G04 #@! TD*
G04 #@! TO.C,REF\002A\002A*
X141000000Y-141000000D03*
G04 #@! TD*
G04 #@! TO.C,REF\002A\002A*
X72000000Y-141000000D03*
G04 #@! TD*
D23*
G04 #@! TO.C,C2*
X108950000Y-125000000D03*
X108950000Y-123000000D03*
G04 #@! TD*
D17*
G04 #@! TO.C,J9*
X78700000Y-139400000D03*
X94540000Y-139500000D03*
X98500000Y-139500000D03*
X90580000Y-139500000D03*
X86620000Y-139500000D03*
X82660000Y-139400000D03*
G04 #@! TD*
D24*
G04 #@! TO.C,J3*
X101080000Y-62450000D03*
X98540000Y-62450000D03*
X96000000Y-62450000D03*
X93460000Y-62450000D03*
X90920000Y-62450000D03*
X88380000Y-62450000D03*
X85840000Y-62450000D03*
D25*
X83300000Y-62450000D03*
G04 #@! TD*
D26*
G04 #@! TO.C,R13*
X84850000Y-122500000D03*
X84850000Y-124400000D03*
G04 #@! TD*
G04 #@! TO.C,R12*
X83050000Y-119400000D03*
X83050000Y-121300000D03*
G04 #@! TD*
D27*
G04 #@! TO.C,R6*
X78700000Y-132520000D03*
X78700000Y-117280000D03*
G04 #@! TD*
D13*
G04 #@! TO.C,C1*
X132500000Y-118725000D03*
X134500000Y-118725000D03*
G04 #@! TD*
D23*
G04 #@! TO.C,C7*
X71850000Y-87000000D03*
X71850000Y-89000000D03*
G04 #@! TD*
D26*
G04 #@! TO.C,R22*
X94540000Y-122500000D03*
X94540000Y-124400000D03*
G04 #@! TD*
G04 #@! TO.C,R24*
X94540000Y-130600000D03*
X94540000Y-128700000D03*
G04 #@! TD*
G04 #@! TO.C,R25*
X92750000Y-128700000D03*
X92750000Y-130600000D03*
G04 #@! TD*
D24*
G04 #@! TO.C,J2*
X83080000Y-54000000D03*
X80540000Y-54000000D03*
D25*
X78000000Y-54000000D03*
G04 #@! TD*
D28*
G04 #@! TO.C,R29*
X75750000Y-93350000D03*
X73850000Y-93350000D03*
G04 #@! TD*
D29*
G04 #@! TO.C,U2*
X129950000Y-117750000D03*
X129950000Y-118250000D03*
X129950000Y-118750000D03*
X129950000Y-119250000D03*
X129950000Y-119750000D03*
X125550000Y-119750000D03*
X125550000Y-119250000D03*
X125550000Y-118750000D03*
X125550000Y-118250000D03*
X125550000Y-117750000D03*
G04 #@! TD*
D30*
G04 #@! TO.C,J13*
X113500000Y-130000000D03*
G04 #@! TD*
D31*
G04 #@! TO.C,U1*
X100800000Y-128810000D03*
X100800000Y-127540000D03*
X100800000Y-126270000D03*
X100800000Y-125000000D03*
X100800000Y-123730000D03*
X100800000Y-122460000D03*
X100800000Y-121190000D03*
X106200000Y-121190000D03*
X106200000Y-122460000D03*
X106200000Y-123730000D03*
X106200000Y-125000000D03*
X106200000Y-126270000D03*
X106200000Y-127540000D03*
X106200000Y-128810000D03*
G04 #@! TD*
D26*
G04 #@! TO.C,R1*
X76900000Y-121300000D03*
X76900000Y-119400000D03*
G04 #@! TD*
G04 #@! TO.C,R2*
X75100000Y-119400000D03*
X75100000Y-121300000D03*
G04 #@! TD*
G04 #@! TO.C,R3*
X76900000Y-122500000D03*
X76900000Y-124400000D03*
G04 #@! TD*
G04 #@! TO.C,R4*
X78700000Y-122500000D03*
X78700000Y-124400000D03*
G04 #@! TD*
G04 #@! TO.C,R8*
X78700000Y-130600000D03*
X78700000Y-128700000D03*
G04 #@! TD*
G04 #@! TO.C,R9*
X76900000Y-128700000D03*
X76900000Y-130600000D03*
G04 #@! TD*
G04 #@! TO.C,R10*
X129950000Y-114425000D03*
X129950000Y-116325000D03*
G04 #@! TD*
G04 #@! TO.C,R11*
X84850000Y-121300000D03*
X84850000Y-119400000D03*
G04 #@! TD*
G04 #@! TO.C,R14*
X123750000Y-114450000D03*
X123750000Y-116350000D03*
G04 #@! TD*
G04 #@! TO.C,R15*
X86650000Y-122500000D03*
X86650000Y-124400000D03*
G04 #@! TD*
G04 #@! TO.C,R17*
X86620000Y-130600000D03*
X86620000Y-128700000D03*
G04 #@! TD*
G04 #@! TO.C,R18*
X84800000Y-128700000D03*
X84800000Y-130600000D03*
G04 #@! TD*
G04 #@! TO.C,R20*
X90950000Y-119400000D03*
X90950000Y-121300000D03*
G04 #@! TD*
G04 #@! TO.C,R21*
X92750000Y-122500000D03*
X92750000Y-124400000D03*
G04 #@! TD*
D23*
G04 #@! TO.C,C3*
X81400000Y-88900000D03*
X81400000Y-86900000D03*
G04 #@! TD*
D32*
G04 #@! TO.C,C4*
X90450000Y-71575000D03*
X90450000Y-79125000D03*
G04 #@! TD*
D23*
G04 #@! TO.C,C5*
X93850000Y-74550000D03*
X93850000Y-76550000D03*
G04 #@! TD*
D33*
G04 #@! TO.C,C6*
X71200000Y-93500000D03*
X71200000Y-90500000D03*
G04 #@! TD*
G04 #@! TO.C,C10*
X87350000Y-92250000D03*
X87350000Y-95250000D03*
G04 #@! TD*
G04 #@! TO.C,C12*
X98250000Y-91250000D03*
X98250000Y-94250000D03*
G04 #@! TD*
D34*
G04 #@! TO.C,C13*
X90825000Y-85100000D03*
X98375000Y-85100000D03*
G04 #@! TD*
D35*
G04 #@! TO.C,C14*
X97400000Y-89700000D03*
X98900000Y-89700000D03*
G04 #@! TD*
D36*
G04 #@! TO.C,C15*
X87850000Y-89500000D03*
X87850000Y-88000000D03*
G04 #@! TD*
D37*
G04 #@! TO.C,Q1*
X123350000Y-130350000D03*
X122400000Y-128350000D03*
X124300000Y-128350000D03*
G04 #@! TD*
G04 #@! TO.C,Q2*
X127350000Y-130350000D03*
X126400000Y-128350000D03*
X128300000Y-128350000D03*
G04 #@! TD*
G04 #@! TO.C,Q3*
X131350000Y-130350000D03*
X130400000Y-128350000D03*
X132300000Y-128350000D03*
G04 #@! TD*
D26*
G04 #@! TO.C,R26*
X119700000Y-130500000D03*
X119700000Y-128600000D03*
G04 #@! TD*
D28*
G04 #@! TO.C,R27*
X79250000Y-93350000D03*
X77350000Y-93350000D03*
G04 #@! TD*
D26*
G04 #@! TO.C,R28*
X115400000Y-120550000D03*
X115400000Y-122450000D03*
G04 #@! TD*
D28*
G04 #@! TO.C,R30*
X82350000Y-93650000D03*
X80450000Y-93650000D03*
G04 #@! TD*
D26*
G04 #@! TO.C,R31*
X117200000Y-122450000D03*
X117200000Y-120550000D03*
G04 #@! TD*
D36*
G04 #@! TO.C,C8*
X81150000Y-90300000D03*
X81150000Y-91800000D03*
G04 #@! TD*
D38*
G04 #@! TO.C,J1*
X106100000Y-131650000D03*
G04 #@! TD*
D30*
G04 #@! TO.C,J10*
X116500000Y-130000000D03*
G04 #@! TD*
G04 #@! TO.C,J12*
X115000000Y-127000000D03*
G04 #@! TD*
D17*
G04 #@! TO.C,J14*
X74620000Y-107980000D03*
X74620000Y-111940000D03*
X74620000Y-104020000D03*
X74620000Y-100060000D03*
G04 #@! TD*
D30*
G04 #@! TO.C,J15*
X112000000Y-127000000D03*
G04 #@! TD*
D26*
G04 #@! TO.C,R5*
X125550000Y-116350000D03*
X125550000Y-114450000D03*
G04 #@! TD*
D27*
G04 #@! TO.C,R16*
X86620000Y-132520000D03*
X86620000Y-117280000D03*
G04 #@! TD*
D26*
G04 #@! TO.C,R19*
X92750000Y-121300000D03*
X92750000Y-119400000D03*
G04 #@! TD*
D27*
G04 #@! TO.C,R23*
X94540000Y-132520000D03*
X94540000Y-117280000D03*
G04 #@! TD*
D29*
G04 #@! TO.C,U5*
X111000000Y-119150000D03*
X111000000Y-118650000D03*
X111000000Y-118150000D03*
X111000000Y-117650000D03*
X111000000Y-117150000D03*
X115400000Y-117150000D03*
X115400000Y-117650000D03*
X115400000Y-118150000D03*
X115400000Y-118650000D03*
X115400000Y-119150000D03*
G04 #@! TD*
D38*
G04 #@! TO.C,J8*
X100800000Y-131650000D03*
G04 #@! TD*
D30*
G04 #@! TO.C,J16*
X110500000Y-130000000D03*
G04 #@! TD*
D38*
G04 #@! TO.C,J17*
X102200000Y-91300000D03*
G04 #@! TD*
D39*
G04 #@! TO.C,C9*
X95450000Y-94550000D03*
X92450000Y-94550000D03*
G04 #@! TD*
D23*
G04 #@! TO.C,C11*
X108800000Y-118200000D03*
X108800000Y-116200000D03*
G04 #@! TD*
D24*
G04 #@! TO.C,J4*
X92080000Y-54000000D03*
X89540000Y-54000000D03*
D25*
X87000000Y-54000000D03*
G04 #@! TD*
D38*
G04 #@! TO.C,J5*
X106200000Y-118550000D03*
G04 #@! TD*
D24*
G04 #@! TO.C,J6*
X101080000Y-54000000D03*
X98540000Y-54000000D03*
D25*
X96000000Y-54000000D03*
G04 #@! TD*
D17*
G04 #@! TO.C,J18*
X86620000Y-107980000D03*
X86620000Y-111940000D03*
X86620000Y-104020000D03*
X86620000Y-100060000D03*
G04 #@! TD*
G04 #@! TO.C,J19*
X98620000Y-107980000D03*
X98620000Y-111940000D03*
X98620000Y-104020000D03*
X98620000Y-100060000D03*
G04 #@! TD*
D26*
G04 #@! TO.C,R7*
X131750000Y-116325000D03*
X131750000Y-114425000D03*
G04 #@! TD*
D38*
G04 #@! TO.C,J7*
X71000000Y-83000000D03*
G04 #@! TD*
D30*
G04 #@! TO.C,J21*
X98750000Y-76500000D03*
G04 #@! TD*
D22*
G04 #@! TO.C,REF\002A\002A*
X72000000Y-56000000D03*
G04 #@! TD*
D38*
G04 #@! TO.C,J22*
X71000000Y-79000000D03*
G04 #@! TD*
G04 #@! TO.C,J23*
X71000000Y-75000000D03*
G04 #@! TD*
M02*
