G04 #@! TF.GenerationSoftware,KiCad,Pcbnew,(5.0.0)*
G04 #@! TF.CreationDate,2018-12-16T10:52:04+01:00*
G04 #@! TF.ProjectId,ODMeter,4F444D657465722E6B696361645F7063,rev?*
G04 #@! TF.SameCoordinates,Original*
G04 #@! TF.FileFunction,Copper,L4,Bot,Signal*
G04 #@! TF.FilePolarity,Positive*
%FSLAX46Y46*%
G04 Gerber Fmt 4.6, Leading zero omitted, Abs format (unit mm)*
G04 Created by KiCad (PCBNEW (5.0.0)) date 12/16/18 10:52:04*
%MOMM*%
%LPD*%
G01*
G04 APERTURE LIST*
G04 #@! TA.AperFunction,ComponentPad*
%ADD10C,0.400000*%
G04 #@! TD*
G04 #@! TA.AperFunction,ComponentPad*
%ADD11C,2.000000*%
G04 #@! TD*
G04 #@! TA.AperFunction,ComponentPad*
%ADD12C,1.524000*%
G04 #@! TD*
G04 #@! TA.AperFunction,ComponentPad*
%ADD13O,1.500000X2.300000*%
G04 #@! TD*
G04 #@! TA.AperFunction,ComponentPad*
%ADD14O,1.500000X3.300000*%
G04 #@! TD*
G04 #@! TA.AperFunction,ComponentPad*
%ADD15O,1.700000X1.700000*%
G04 #@! TD*
G04 #@! TA.AperFunction,ComponentPad*
%ADD16R,1.700000X1.700000*%
G04 #@! TD*
G04 #@! TA.AperFunction,ComponentPad*
%ADD17C,1.650000*%
G04 #@! TD*
G04 #@! TA.AperFunction,ViaPad*
%ADD18C,0.600000*%
G04 #@! TD*
G04 #@! TA.AperFunction,Conductor*
%ADD19C,0.250000*%
G04 #@! TD*
G04 #@! TA.AperFunction,Conductor*
%ADD20C,0.200000*%
G04 #@! TD*
G04 APERTURE END LIST*
D10*
G04 #@! TO.P,U6,9*
G04 #@! TO.N,GND*
X93400000Y-91000000D03*
X93400000Y-89700000D03*
X92100000Y-89700000D03*
X92100000Y-91000000D03*
G04 #@! TD*
G04 #@! TO.P,U4,9*
G04 #@! TO.N,GND*
X75900000Y-89000000D03*
X75900000Y-90300000D03*
X77200000Y-90300000D03*
X77200000Y-89000000D03*
G04 #@! TD*
D11*
G04 #@! TO.P,J20,1*
G04 #@! TO.N,/12V*
X70870000Y-64900000D03*
G04 #@! TO.P,J20,2*
G04 #@! TO.N,GND*
X74830000Y-64900000D03*
G04 #@! TD*
D12*
G04 #@! TO.P,U3,1*
G04 #@! TO.N,N/C*
X133470000Y-98770000D03*
G04 #@! TO.P,U3,2*
X133470000Y-96230000D03*
G04 #@! TO.P,U3,3*
X133470000Y-93690000D03*
G04 #@! TO.P,U3,4*
G04 #@! TO.N,/LED_R*
X133470000Y-91150000D03*
G04 #@! TO.P,U3,5*
G04 #@! TO.N,/LED_G*
X133470000Y-88610000D03*
G04 #@! TO.P,U3,6*
G04 #@! TO.N,/LED_B*
X133470000Y-86070000D03*
G04 #@! TO.P,U3,7*
G04 #@! TO.N,/PWM_X*
X133470000Y-83530000D03*
G04 #@! TO.P,U3,8*
G04 #@! TO.N,/DIR_X*
X133470000Y-80990000D03*
G04 #@! TO.P,U3,9*
G04 #@! TO.N,/PWM_Y*
X133470000Y-78450000D03*
G04 #@! TO.P,U3,10*
G04 #@! TO.N,/DIR_Y*
X133470000Y-75910000D03*
G04 #@! TO.P,U3,11*
G04 #@! TO.N,/PWM_Z*
X133470000Y-73370000D03*
G04 #@! TO.P,U3,12*
G04 #@! TO.N,/DIR_Z*
X133470000Y-70830000D03*
G04 #@! TO.P,U3,13*
G04 #@! TO.N,/Alert*
X133470000Y-68290000D03*
G04 #@! TO.P,U3,14*
G04 #@! TO.N,GND*
X133470000Y-65750000D03*
G04 #@! TO.P,U3,15*
G04 #@! TO.N,/5V_b*
X133470000Y-63210000D03*
G04 #@! TO.P,U3,16*
G04 #@! TO.N,/3V3*
X107800000Y-63210000D03*
G04 #@! TO.P,U3,17*
G04 #@! TO.N,GND*
X107800000Y-65750000D03*
G04 #@! TO.P,U3,18*
G04 #@! TO.N,/CS2*
X107800000Y-68290000D03*
G04 #@! TO.P,U3,19*
G04 #@! TO.N,/INT*
X107800000Y-70830000D03*
G04 #@! TO.P,U3,20*
G04 #@! TO.N,/RST*
X107800000Y-73370000D03*
G04 #@! TO.P,U3,21*
G04 #@! TO.N,N/C*
X107800000Y-75910000D03*
G04 #@! TO.P,U3,22*
X107800000Y-78450000D03*
G04 #@! TO.P,U3,23*
G04 #@! TO.N,/CS*
X107800000Y-80990000D03*
G04 #@! TO.P,U3,24*
G04 #@! TO.N,/SCK*
X107800000Y-83530000D03*
G04 #@! TO.P,U3,25*
G04 #@! TO.N,/MISO*
X107800000Y-86070000D03*
G04 #@! TO.P,U3,26*
G04 #@! TO.N,/SDA*
X107800000Y-88610000D03*
G04 #@! TO.P,U3,27*
G04 #@! TO.N,N/C*
X107800000Y-91150000D03*
G04 #@! TO.P,U3,28*
X107800000Y-93690000D03*
G04 #@! TO.P,U3,29*
G04 #@! TO.N,/SCL*
X107800000Y-96230000D03*
G04 #@! TO.P,U3,30*
G04 #@! TO.N,/MOSI*
X107800000Y-98770000D03*
G04 #@! TD*
D13*
G04 #@! TO.P,J11,e*
G04 #@! TO.N,N/C*
X122250000Y-141410000D03*
X107750000Y-141410000D03*
D14*
X122250000Y-135450000D03*
X107750000Y-135450000D03*
G04 #@! TD*
D11*
G04 #@! TO.P,J9,6*
G04 #@! TO.N,/I_sense1*
X78700000Y-139400000D03*
G04 #@! TO.P,J9,2*
G04 #@! TO.N,/I_sense3*
X94540000Y-139500000D03*
G04 #@! TO.P,J9,1*
G04 #@! TO.N,/I3_B*
X98500000Y-139500000D03*
G04 #@! TO.P,J9,3*
G04 #@! TO.N,/I2_B*
X90580000Y-139500000D03*
G04 #@! TO.P,J9,4*
G04 #@! TO.N,/I_sense2*
X86620000Y-139500000D03*
G04 #@! TO.P,J9,5*
G04 #@! TO.N,/I1_B*
X82660000Y-139400000D03*
G04 #@! TD*
D15*
G04 #@! TO.P,J3,8*
G04 #@! TO.N,/INT*
X101080000Y-62450000D03*
G04 #@! TO.P,J3,7*
G04 #@! TO.N,/RST*
X98540000Y-62450000D03*
G04 #@! TO.P,J3,6*
G04 #@! TO.N,/CS*
X96000000Y-62450000D03*
G04 #@! TO.P,J3,5*
G04 #@! TO.N,/SCK*
X93460000Y-62450000D03*
G04 #@! TO.P,J3,4*
G04 #@! TO.N,/MISO*
X90920000Y-62450000D03*
G04 #@! TO.P,J3,3*
G04 #@! TO.N,/MOSI*
X88380000Y-62450000D03*
G04 #@! TO.P,J3,2*
G04 #@! TO.N,GND*
X85840000Y-62450000D03*
D16*
G04 #@! TO.P,J3,1*
G04 #@! TO.N,/5V_b*
X83300000Y-62450000D03*
G04 #@! TD*
D17*
G04 #@! TO.P,R6,1*
G04 #@! TO.N,/I_sense1*
X78700000Y-132520000D03*
G04 #@! TO.P,R6,2*
G04 #@! TO.N,/I1_A*
X78700000Y-117280000D03*
G04 #@! TD*
D15*
G04 #@! TO.P,J2,3*
G04 #@! TO.N,/DIR_X*
X83080000Y-54000000D03*
G04 #@! TO.P,J2,2*
G04 #@! TO.N,/PWM_X*
X80540000Y-54000000D03*
D16*
G04 #@! TO.P,J2,1*
G04 #@! TO.N,GND*
X78000000Y-54000000D03*
G04 #@! TD*
D11*
G04 #@! TO.P,J14,2*
G04 #@! TO.N,/I1_A*
X74620000Y-107980000D03*
G04 #@! TO.P,J14,1*
G04 #@! TO.N,/I1_B*
X74620000Y-111940000D03*
G04 #@! TO.P,J14,3*
G04 #@! TO.N,GND*
X74620000Y-104020000D03*
G04 #@! TO.P,J14,4*
G04 #@! TO.N,/12V*
X74620000Y-100060000D03*
G04 #@! TD*
D17*
G04 #@! TO.P,R16,1*
G04 #@! TO.N,/I_sense2*
X86620000Y-132520000D03*
G04 #@! TO.P,R16,2*
G04 #@! TO.N,/I2_A*
X86620000Y-117280000D03*
G04 #@! TD*
G04 #@! TO.P,R23,1*
G04 #@! TO.N,/I_sense3*
X94540000Y-132520000D03*
G04 #@! TO.P,R23,2*
G04 #@! TO.N,/I3_A*
X94540000Y-117280000D03*
G04 #@! TD*
D15*
G04 #@! TO.P,J4,3*
G04 #@! TO.N,/DIR_Y*
X92080000Y-54000000D03*
G04 #@! TO.P,J4,2*
G04 #@! TO.N,/PWM_Y*
X89540000Y-54000000D03*
D16*
G04 #@! TO.P,J4,1*
G04 #@! TO.N,GND*
X87000000Y-54000000D03*
G04 #@! TD*
D15*
G04 #@! TO.P,J6,3*
G04 #@! TO.N,/DIR_Z*
X101080000Y-54000000D03*
G04 #@! TO.P,J6,2*
G04 #@! TO.N,/PWM_Z*
X98540000Y-54000000D03*
D16*
G04 #@! TO.P,J6,1*
G04 #@! TO.N,GND*
X96000000Y-54000000D03*
G04 #@! TD*
D11*
G04 #@! TO.P,J18,2*
G04 #@! TO.N,/I2_A*
X86620000Y-107980000D03*
G04 #@! TO.P,J18,1*
G04 #@! TO.N,/I2_B*
X86620000Y-111940000D03*
G04 #@! TO.P,J18,3*
G04 #@! TO.N,GND*
X86620000Y-104020000D03*
G04 #@! TO.P,J18,4*
G04 #@! TO.N,/12V*
X86620000Y-100060000D03*
G04 #@! TD*
G04 #@! TO.P,J19,2*
G04 #@! TO.N,/I3_A*
X98620000Y-107980000D03*
G04 #@! TO.P,J19,1*
G04 #@! TO.N,/I3_B*
X98620000Y-111940000D03*
G04 #@! TO.P,J19,3*
G04 #@! TO.N,GND*
X98620000Y-104020000D03*
G04 #@! TO.P,J19,4*
G04 #@! TO.N,/12V*
X98620000Y-100060000D03*
G04 #@! TD*
D18*
G04 #@! TO.N,GND*
X98625000Y-125300000D03*
X111175000Y-122800000D03*
X106625000Y-116250000D03*
X109500000Y-113200000D03*
X112675000Y-125500000D03*
X119275000Y-121975000D03*
X121750000Y-117600000D03*
X117950000Y-112150000D03*
X115050000Y-137475000D03*
X109850000Y-132225000D03*
X126850000Y-125275000D03*
X104675000Y-114225000D03*
X98200000Y-116125000D03*
X96650000Y-114025000D03*
X92100000Y-114350000D03*
X90775000Y-111325000D03*
X94750000Y-108925000D03*
X89825000Y-107525000D03*
X95075000Y-105225000D03*
X89550000Y-103775000D03*
X92850000Y-102500000D03*
X95450000Y-101175000D03*
X90775000Y-99875000D03*
X93775000Y-98700000D03*
X82825000Y-99975000D03*
X78250000Y-100275000D03*
X80775000Y-103500000D03*
X77700000Y-105250000D03*
X81000000Y-108200000D03*
X81275000Y-112550000D03*
X81775000Y-117125000D03*
X71900000Y-116425000D03*
X76900000Y-115025000D03*
X71000000Y-111775000D03*
X72150000Y-126400000D03*
X74375000Y-133275000D03*
X70200000Y-137400000D03*
X74550000Y-139850000D03*
X81200000Y-142225000D03*
X89250000Y-142325000D03*
X96975000Y-142050000D03*
X96975000Y-137925000D03*
X92500000Y-137750000D03*
X88650000Y-137750000D03*
X84725000Y-137650000D03*
X80600000Y-137600000D03*
X80650000Y-133575000D03*
X103750000Y-138700000D03*
X104600000Y-144100000D03*
X113425000Y-142800000D03*
X117825000Y-140725000D03*
X125100000Y-138500000D03*
X128075000Y-136175000D03*
X112325000Y-104425000D03*
X123100000Y-106325000D03*
X126625000Y-104225000D03*
X131150000Y-101600000D03*
X121025000Y-98900000D03*
X115400000Y-94675000D03*
X112325000Y-98400000D03*
X102400000Y-80700000D03*
X98925000Y-80075000D03*
X101950000Y-74350000D03*
X97400000Y-70525000D03*
X95050000Y-67350000D03*
X90025000Y-66525000D03*
X85550000Y-69600000D03*
X83700000Y-66750000D03*
X86525000Y-65550000D03*
X78525000Y-63725000D03*
X78850000Y-67725000D03*
X78525000Y-71400000D03*
X73300000Y-71750000D03*
X69875000Y-72225000D03*
X72600000Y-74850000D03*
X69975000Y-77250000D03*
X72500000Y-78625000D03*
X79175000Y-57875000D03*
X83850000Y-59150000D03*
X90050000Y-58850000D03*
X98400000Y-58750000D03*
X102900000Y-58750000D03*
X107625000Y-59175000D03*
X121225000Y-54050000D03*
X126950000Y-53875000D03*
X130425000Y-56900000D03*
X133550000Y-58000000D03*
X113125000Y-66050000D03*
X134425000Y-131850000D03*
X133225000Y-137850000D03*
X140575000Y-84775000D03*
X140300000Y-73450000D03*
X141100000Y-65400000D03*
X138050000Y-60100000D03*
X137650000Y-69675000D03*
X143150000Y-69575000D03*
X137950000Y-79175000D03*
X143150000Y-78050000D03*
X143250000Y-89150000D03*
X142625000Y-98650000D03*
X142950000Y-105675000D03*
X142225000Y-113525000D03*
X133675000Y-108925000D03*
X142475000Y-122275000D03*
X138450000Y-126675000D03*
X142375000Y-130725000D03*
X139175000Y-134500000D03*
X143225000Y-136100000D03*
X129650000Y-141725000D03*
X135150000Y-141600000D03*
X135625000Y-135000000D03*
X127250000Y-94500000D03*
X74450000Y-60225000D03*
X69675000Y-60225000D03*
X70650000Y-98875000D03*
X69600000Y-121075000D03*
X69950000Y-130775000D03*
X122600000Y-123700000D03*
X124300000Y-122000000D03*
X102175000Y-130150000D03*
X115775000Y-123550000D03*
X112825000Y-53349990D03*
X119825000Y-90450000D03*
X125075000Y-88375000D03*
X118425000Y-82225000D03*
X126475000Y-81150000D03*
X113100000Y-73025000D03*
X117425000Y-75225000D03*
X121150000Y-72500000D03*
X126250000Y-72350000D03*
X124950000Y-73850000D03*
X120750000Y-66975000D03*
X120900000Y-64625000D03*
X129375000Y-67850000D03*
X128125000Y-69325000D03*
X126025000Y-69925000D03*
X127600000Y-63550000D03*
X126100000Y-57800000D03*
X112750000Y-58825000D03*
X115100000Y-87400000D03*
X117275000Y-102550000D03*
G04 #@! TO.N,Net-(R3-Pad1)*
X86000000Y-126300000D03*
X104500002Y-126300000D03*
G04 #@! TO.N,Net-(R13-Pad1)*
X88600000Y-124400000D03*
X104500000Y-124400000D03*
G04 #@! TO.N,/SCL*
X127025000Y-119324998D03*
X112450000Y-119924998D03*
X120275000Y-119924998D03*
G04 #@! TO.N,/SDA*
X128479441Y-118754441D03*
X113000000Y-119150000D03*
G04 #@! TO.N,/Ain2*
X121175000Y-125950000D03*
X123136941Y-125986941D03*
G04 #@! TO.N,/3V3*
X108800000Y-119700000D03*
X84850000Y-118000000D03*
X76900000Y-118000000D03*
X92750000Y-118000000D03*
X117200000Y-123600000D03*
X123750000Y-113275000D03*
X129925000Y-113300000D03*
X132475000Y-120175000D03*
X109525000Y-126475000D03*
X69000000Y-79000000D03*
X122200000Y-71025000D03*
G04 #@! TO.N,/A4*
X113950000Y-117650000D03*
X108150000Y-128800000D03*
G04 #@! TO.N,/Ain7*
X117150000Y-128600000D03*
X114100000Y-123475000D03*
G04 #@! TO.N,/5V_b*
X96250000Y-76550000D03*
G04 #@! TO.N,/12V*
X69000000Y-75000000D03*
X70000000Y-89000000D03*
X86750000Y-91000000D03*
G04 #@! TO.N,/5V_a*
X100750000Y-91250000D03*
X110500000Y-137500000D03*
X112000000Y-137500000D03*
X113500000Y-137500000D03*
X116500000Y-137500000D03*
G04 #@! TO.N,/SCK*
X122050000Y-63600002D03*
G04 #@! TO.N,/MISO*
X112000000Y-81850000D03*
G04 #@! TO.N,/CS2*
X125350000Y-63800000D03*
G04 #@! TD*
D19*
G04 #@! TO.N,Net-(R3-Pad1)*
X86000000Y-126300000D02*
X104500002Y-126300000D01*
G04 #@! TO.N,Net-(R13-Pad1)*
X88600000Y-124400000D02*
X89024264Y-124400000D01*
X89024264Y-124400000D02*
X104500000Y-124400000D01*
G04 #@! TO.N,/SCL*
X127025000Y-119324998D02*
X126425000Y-119924998D01*
X112874264Y-119924998D02*
X112450000Y-119924998D01*
X126425000Y-119924998D02*
X120275000Y-119924998D01*
X120275000Y-119924998D02*
X112874264Y-119924998D01*
G04 #@! TO.N,/SDA*
X113299999Y-118850001D02*
X113000000Y-119150000D01*
X128375000Y-118650000D02*
X128479441Y-118754441D01*
X126650000Y-118650000D02*
X128375000Y-118650000D01*
X126150000Y-119150000D02*
X126650000Y-118650000D01*
X113000000Y-119150000D02*
X120550000Y-119150000D01*
X120550000Y-119150000D02*
X126150000Y-119150000D01*
X120550000Y-101360000D02*
X107800000Y-88610000D01*
X120550000Y-119150000D02*
X120550000Y-101360000D01*
G04 #@! TO.N,/Ain2*
X123100000Y-125950000D02*
X123136941Y-125986941D01*
X121175000Y-125950000D02*
X123136941Y-125986941D01*
G04 #@! TO.N,/A4*
X108150000Y-122775000D02*
X108150000Y-128375736D01*
X113950000Y-117650000D02*
X113074998Y-117650000D01*
X112349999Y-118374999D02*
X112349999Y-118575001D01*
X112349999Y-118575001D02*
X108150000Y-122775000D01*
X108150000Y-128375736D02*
X108150000Y-128800000D01*
X113074998Y-117650000D02*
X112349999Y-118374999D01*
G04 #@! TO.N,/Ain7*
X114399999Y-123774999D02*
X114100000Y-123475000D01*
X117150000Y-126525000D02*
X114399999Y-123774999D01*
X117150000Y-128600000D02*
X117150000Y-126525000D01*
G04 #@! TO.N,/SCK*
X107800000Y-83530000D02*
X122050000Y-69280000D01*
X122050000Y-69280000D02*
X122050000Y-64024266D01*
X122050000Y-64024266D02*
X122050000Y-63600002D01*
G04 #@! TO.N,/MISO*
X107800000Y-86050000D02*
X107800000Y-86070000D01*
X112000000Y-81850000D02*
X107800000Y-86050000D01*
G04 #@! TD*
D20*
G04 #@! TO.N,GND*
G36*
X144625001Y-144625000D02*
X68375000Y-144625000D01*
X68375000Y-140622067D01*
X70100000Y-140622067D01*
X70100000Y-141377933D01*
X70389258Y-142076263D01*
X70923737Y-142610742D01*
X71622067Y-142900000D01*
X72377933Y-142900000D01*
X73076263Y-142610742D01*
X73610742Y-142076263D01*
X73900000Y-141377933D01*
X73900000Y-140906588D01*
X106700000Y-140906588D01*
X106700000Y-141913413D01*
X106760923Y-142219689D01*
X106992994Y-142567007D01*
X107340312Y-142799078D01*
X107750000Y-142880570D01*
X108159689Y-142799078D01*
X108507007Y-142567007D01*
X108739078Y-142219689D01*
X108800000Y-141913412D01*
X108800000Y-140906588D01*
X121200000Y-140906588D01*
X121200000Y-141913413D01*
X121260923Y-142219689D01*
X121492994Y-142567007D01*
X121840312Y-142799078D01*
X122250000Y-142880570D01*
X122659689Y-142799078D01*
X123007007Y-142567007D01*
X123239078Y-142219689D01*
X123300000Y-141913412D01*
X123300000Y-140906587D01*
X123243406Y-140622067D01*
X139100000Y-140622067D01*
X139100000Y-141377933D01*
X139389258Y-142076263D01*
X139923737Y-142610742D01*
X140622067Y-142900000D01*
X141377933Y-142900000D01*
X142076263Y-142610742D01*
X142610742Y-142076263D01*
X142900000Y-141377933D01*
X142900000Y-140622067D01*
X142610742Y-139923737D01*
X142076263Y-139389258D01*
X141377933Y-139100000D01*
X140622067Y-139100000D01*
X139923737Y-139389258D01*
X139389258Y-139923737D01*
X139100000Y-140622067D01*
X123243406Y-140622067D01*
X123239078Y-140600311D01*
X123007007Y-140252993D01*
X122659688Y-140020922D01*
X122250000Y-139939430D01*
X121840311Y-140020922D01*
X121492993Y-140252993D01*
X121260922Y-140600312D01*
X121200000Y-140906588D01*
X108800000Y-140906588D01*
X108800000Y-140906587D01*
X108739078Y-140600311D01*
X108507007Y-140252993D01*
X108159688Y-140020922D01*
X107750000Y-139939430D01*
X107340311Y-140020922D01*
X106992993Y-140252993D01*
X106760922Y-140600312D01*
X106700000Y-140906588D01*
X73900000Y-140906588D01*
X73900000Y-140622067D01*
X73610742Y-139923737D01*
X73076263Y-139389258D01*
X72477916Y-139141414D01*
X77400000Y-139141414D01*
X77400000Y-139658586D01*
X77597913Y-140136391D01*
X77963609Y-140502087D01*
X78441414Y-140700000D01*
X78958586Y-140700000D01*
X79436391Y-140502087D01*
X79802087Y-140136391D01*
X80000000Y-139658586D01*
X80000000Y-139141414D01*
X81360000Y-139141414D01*
X81360000Y-139658586D01*
X81557913Y-140136391D01*
X81923609Y-140502087D01*
X82401414Y-140700000D01*
X82918586Y-140700000D01*
X83396391Y-140502087D01*
X83762087Y-140136391D01*
X83960000Y-139658586D01*
X83960000Y-139241414D01*
X85320000Y-139241414D01*
X85320000Y-139758586D01*
X85517913Y-140236391D01*
X85883609Y-140602087D01*
X86361414Y-140800000D01*
X86878586Y-140800000D01*
X87356391Y-140602087D01*
X87722087Y-140236391D01*
X87920000Y-139758586D01*
X87920000Y-139241414D01*
X89280000Y-139241414D01*
X89280000Y-139758586D01*
X89477913Y-140236391D01*
X89843609Y-140602087D01*
X90321414Y-140800000D01*
X90838586Y-140800000D01*
X91316391Y-140602087D01*
X91682087Y-140236391D01*
X91880000Y-139758586D01*
X91880000Y-139241414D01*
X93240000Y-139241414D01*
X93240000Y-139758586D01*
X93437913Y-140236391D01*
X93803609Y-140602087D01*
X94281414Y-140800000D01*
X94798586Y-140800000D01*
X95276391Y-140602087D01*
X95642087Y-140236391D01*
X95840000Y-139758586D01*
X95840000Y-139241414D01*
X97200000Y-139241414D01*
X97200000Y-139758586D01*
X97397913Y-140236391D01*
X97763609Y-140602087D01*
X98241414Y-140800000D01*
X98758586Y-140800000D01*
X99236391Y-140602087D01*
X99602087Y-140236391D01*
X99800000Y-139758586D01*
X99800000Y-139241414D01*
X99602087Y-138763609D01*
X99236391Y-138397913D01*
X98758586Y-138200000D01*
X98241414Y-138200000D01*
X97763609Y-138397913D01*
X97397913Y-138763609D01*
X97200000Y-139241414D01*
X95840000Y-139241414D01*
X95642087Y-138763609D01*
X95276391Y-138397913D01*
X94798586Y-138200000D01*
X94281414Y-138200000D01*
X93803609Y-138397913D01*
X93437913Y-138763609D01*
X93240000Y-139241414D01*
X91880000Y-139241414D01*
X91682087Y-138763609D01*
X91316391Y-138397913D01*
X90838586Y-138200000D01*
X90321414Y-138200000D01*
X89843609Y-138397913D01*
X89477913Y-138763609D01*
X89280000Y-139241414D01*
X87920000Y-139241414D01*
X87722087Y-138763609D01*
X87356391Y-138397913D01*
X86878586Y-138200000D01*
X86361414Y-138200000D01*
X85883609Y-138397913D01*
X85517913Y-138763609D01*
X85320000Y-139241414D01*
X83960000Y-139241414D01*
X83960000Y-139141414D01*
X83762087Y-138663609D01*
X83396391Y-138297913D01*
X82918586Y-138100000D01*
X82401414Y-138100000D01*
X81923609Y-138297913D01*
X81557913Y-138663609D01*
X81360000Y-139141414D01*
X80000000Y-139141414D01*
X79802087Y-138663609D01*
X79436391Y-138297913D01*
X78958586Y-138100000D01*
X78441414Y-138100000D01*
X77963609Y-138297913D01*
X77597913Y-138663609D01*
X77400000Y-139141414D01*
X72477916Y-139141414D01*
X72377933Y-139100000D01*
X71622067Y-139100000D01*
X70923737Y-139389258D01*
X70389258Y-139923737D01*
X70100000Y-140622067D01*
X68375000Y-140622067D01*
X68375000Y-134446588D01*
X106700000Y-134446588D01*
X106700001Y-136453413D01*
X106760923Y-136759689D01*
X106992994Y-137107007D01*
X107340312Y-137339078D01*
X107750000Y-137420570D01*
X107950676Y-137380653D01*
X109900000Y-137380653D01*
X109900000Y-137619347D01*
X109991344Y-137839873D01*
X110160127Y-138008656D01*
X110380653Y-138100000D01*
X110619347Y-138100000D01*
X110839873Y-138008656D01*
X111008656Y-137839873D01*
X111100000Y-137619347D01*
X111100000Y-137380653D01*
X111400000Y-137380653D01*
X111400000Y-137619347D01*
X111491344Y-137839873D01*
X111660127Y-138008656D01*
X111880653Y-138100000D01*
X112119347Y-138100000D01*
X112339873Y-138008656D01*
X112508656Y-137839873D01*
X112600000Y-137619347D01*
X112600000Y-137380653D01*
X112900000Y-137380653D01*
X112900000Y-137619347D01*
X112991344Y-137839873D01*
X113160127Y-138008656D01*
X113380653Y-138100000D01*
X113619347Y-138100000D01*
X113839873Y-138008656D01*
X114008656Y-137839873D01*
X114100000Y-137619347D01*
X114100000Y-137380653D01*
X115900000Y-137380653D01*
X115900000Y-137619347D01*
X115991344Y-137839873D01*
X116160127Y-138008656D01*
X116380653Y-138100000D01*
X116619347Y-138100000D01*
X116839873Y-138008656D01*
X117008656Y-137839873D01*
X117100000Y-137619347D01*
X117100000Y-137380653D01*
X117008656Y-137160127D01*
X116839873Y-136991344D01*
X116619347Y-136900000D01*
X116380653Y-136900000D01*
X116160127Y-136991344D01*
X115991344Y-137160127D01*
X115900000Y-137380653D01*
X114100000Y-137380653D01*
X114008656Y-137160127D01*
X113839873Y-136991344D01*
X113619347Y-136900000D01*
X113380653Y-136900000D01*
X113160127Y-136991344D01*
X112991344Y-137160127D01*
X112900000Y-137380653D01*
X112600000Y-137380653D01*
X112508656Y-137160127D01*
X112339873Y-136991344D01*
X112119347Y-136900000D01*
X111880653Y-136900000D01*
X111660127Y-136991344D01*
X111491344Y-137160127D01*
X111400000Y-137380653D01*
X111100000Y-137380653D01*
X111008656Y-137160127D01*
X110839873Y-136991344D01*
X110619347Y-136900000D01*
X110380653Y-136900000D01*
X110160127Y-136991344D01*
X109991344Y-137160127D01*
X109900000Y-137380653D01*
X107950676Y-137380653D01*
X108159689Y-137339078D01*
X108507007Y-137107007D01*
X108739078Y-136759689D01*
X108800000Y-136453413D01*
X108800000Y-134446588D01*
X121200000Y-134446588D01*
X121200001Y-136453413D01*
X121260923Y-136759689D01*
X121492994Y-137107007D01*
X121840312Y-137339078D01*
X122250000Y-137420570D01*
X122659689Y-137339078D01*
X123007007Y-137107007D01*
X123239078Y-136759689D01*
X123300000Y-136453413D01*
X123300000Y-134446587D01*
X123239078Y-134140311D01*
X123007007Y-133792993D01*
X122659688Y-133560922D01*
X122250000Y-133479430D01*
X121840311Y-133560922D01*
X121492993Y-133792993D01*
X121260922Y-134140312D01*
X121200000Y-134446588D01*
X108800000Y-134446588D01*
X108800000Y-134446587D01*
X108739078Y-134140311D01*
X108507007Y-133792993D01*
X108159688Y-133560922D01*
X107750000Y-133479430D01*
X107340311Y-133560922D01*
X106992993Y-133792993D01*
X106760922Y-134140312D01*
X106700000Y-134446588D01*
X68375000Y-134446588D01*
X68375000Y-132296224D01*
X77575000Y-132296224D01*
X77575000Y-132743776D01*
X77746271Y-133157261D01*
X78062739Y-133473729D01*
X78476224Y-133645000D01*
X78923776Y-133645000D01*
X79337261Y-133473729D01*
X79653729Y-133157261D01*
X79825000Y-132743776D01*
X79825000Y-132296224D01*
X85495000Y-132296224D01*
X85495000Y-132743776D01*
X85666271Y-133157261D01*
X85982739Y-133473729D01*
X86396224Y-133645000D01*
X86843776Y-133645000D01*
X87257261Y-133473729D01*
X87573729Y-133157261D01*
X87745000Y-132743776D01*
X87745000Y-132296224D01*
X93415000Y-132296224D01*
X93415000Y-132743776D01*
X93586271Y-133157261D01*
X93902739Y-133473729D01*
X94316224Y-133645000D01*
X94763776Y-133645000D01*
X95177261Y-133473729D01*
X95493729Y-133157261D01*
X95665000Y-132743776D01*
X95665000Y-132296224D01*
X95493729Y-131882739D01*
X95177261Y-131566271D01*
X94763776Y-131395000D01*
X94316224Y-131395000D01*
X93902739Y-131566271D01*
X93586271Y-131882739D01*
X93415000Y-132296224D01*
X87745000Y-132296224D01*
X87573729Y-131882739D01*
X87257261Y-131566271D01*
X86843776Y-131395000D01*
X86396224Y-131395000D01*
X85982739Y-131566271D01*
X85666271Y-131882739D01*
X85495000Y-132296224D01*
X79825000Y-132296224D01*
X79653729Y-131882739D01*
X79337261Y-131566271D01*
X78923776Y-131395000D01*
X78476224Y-131395000D01*
X78062739Y-131566271D01*
X77746271Y-131882739D01*
X77575000Y-132296224D01*
X68375000Y-132296224D01*
X68375000Y-126180653D01*
X85400000Y-126180653D01*
X85400000Y-126419347D01*
X85491344Y-126639873D01*
X85660127Y-126808656D01*
X85880653Y-126900000D01*
X86119347Y-126900000D01*
X86339873Y-126808656D01*
X86423529Y-126725000D01*
X104076473Y-126725000D01*
X104160129Y-126808656D01*
X104380655Y-126900000D01*
X104619349Y-126900000D01*
X104839875Y-126808656D01*
X105008658Y-126639873D01*
X105100002Y-126419347D01*
X105100002Y-126180653D01*
X105008658Y-125960127D01*
X104839875Y-125791344D01*
X104619349Y-125700000D01*
X104380655Y-125700000D01*
X104160129Y-125791344D01*
X104076473Y-125875000D01*
X86423529Y-125875000D01*
X86339873Y-125791344D01*
X86119347Y-125700000D01*
X85880653Y-125700000D01*
X85660127Y-125791344D01*
X85491344Y-125960127D01*
X85400000Y-126180653D01*
X68375000Y-126180653D01*
X68375000Y-124280653D01*
X88000000Y-124280653D01*
X88000000Y-124519347D01*
X88091344Y-124739873D01*
X88260127Y-124908656D01*
X88480653Y-125000000D01*
X88719347Y-125000000D01*
X88939873Y-124908656D01*
X89023529Y-124825000D01*
X104076471Y-124825000D01*
X104160127Y-124908656D01*
X104380653Y-125000000D01*
X104619347Y-125000000D01*
X104839873Y-124908656D01*
X105008656Y-124739873D01*
X105100000Y-124519347D01*
X105100000Y-124280653D01*
X105008656Y-124060127D01*
X104839873Y-123891344D01*
X104619347Y-123800000D01*
X104380653Y-123800000D01*
X104160127Y-123891344D01*
X104076471Y-123975000D01*
X89023529Y-123975000D01*
X88939873Y-123891344D01*
X88719347Y-123800000D01*
X88480653Y-123800000D01*
X88260127Y-123891344D01*
X88091344Y-124060127D01*
X88000000Y-124280653D01*
X68375000Y-124280653D01*
X68375000Y-119580653D01*
X108200000Y-119580653D01*
X108200000Y-119819347D01*
X108291344Y-120039873D01*
X108460127Y-120208656D01*
X108680653Y-120300000D01*
X108919347Y-120300000D01*
X109139873Y-120208656D01*
X109308656Y-120039873D01*
X109400000Y-119819347D01*
X109400000Y-119580653D01*
X109308656Y-119360127D01*
X109139873Y-119191344D01*
X108919347Y-119100000D01*
X108680653Y-119100000D01*
X108460127Y-119191344D01*
X108291344Y-119360127D01*
X108200000Y-119580653D01*
X68375000Y-119580653D01*
X68375000Y-117880653D01*
X76300000Y-117880653D01*
X76300000Y-118119347D01*
X76391344Y-118339873D01*
X76560127Y-118508656D01*
X76780653Y-118600000D01*
X77019347Y-118600000D01*
X77239873Y-118508656D01*
X77408656Y-118339873D01*
X77500000Y-118119347D01*
X77500000Y-117880653D01*
X77408656Y-117660127D01*
X77239873Y-117491344D01*
X77019347Y-117400000D01*
X76780653Y-117400000D01*
X76560127Y-117491344D01*
X76391344Y-117660127D01*
X76300000Y-117880653D01*
X68375000Y-117880653D01*
X68375000Y-117056224D01*
X77575000Y-117056224D01*
X77575000Y-117503776D01*
X77746271Y-117917261D01*
X78062739Y-118233729D01*
X78476224Y-118405000D01*
X78923776Y-118405000D01*
X79337261Y-118233729D01*
X79653729Y-117917261D01*
X79668892Y-117880653D01*
X84250000Y-117880653D01*
X84250000Y-118119347D01*
X84341344Y-118339873D01*
X84510127Y-118508656D01*
X84730653Y-118600000D01*
X84969347Y-118600000D01*
X85189873Y-118508656D01*
X85358656Y-118339873D01*
X85450000Y-118119347D01*
X85450000Y-117880653D01*
X85358656Y-117660127D01*
X85189873Y-117491344D01*
X84969347Y-117400000D01*
X84730653Y-117400000D01*
X84510127Y-117491344D01*
X84341344Y-117660127D01*
X84250000Y-117880653D01*
X79668892Y-117880653D01*
X79825000Y-117503776D01*
X79825000Y-117056224D01*
X85495000Y-117056224D01*
X85495000Y-117503776D01*
X85666271Y-117917261D01*
X85982739Y-118233729D01*
X86396224Y-118405000D01*
X86843776Y-118405000D01*
X87257261Y-118233729D01*
X87573729Y-117917261D01*
X87588892Y-117880653D01*
X92150000Y-117880653D01*
X92150000Y-118119347D01*
X92241344Y-118339873D01*
X92410127Y-118508656D01*
X92630653Y-118600000D01*
X92869347Y-118600000D01*
X93089873Y-118508656D01*
X93258656Y-118339873D01*
X93350000Y-118119347D01*
X93350000Y-117880653D01*
X93258656Y-117660127D01*
X93089873Y-117491344D01*
X92869347Y-117400000D01*
X92630653Y-117400000D01*
X92410127Y-117491344D01*
X92241344Y-117660127D01*
X92150000Y-117880653D01*
X87588892Y-117880653D01*
X87745000Y-117503776D01*
X87745000Y-117056224D01*
X93415000Y-117056224D01*
X93415000Y-117503776D01*
X93586271Y-117917261D01*
X93902739Y-118233729D01*
X94316224Y-118405000D01*
X94763776Y-118405000D01*
X95177261Y-118233729D01*
X95493729Y-117917261D01*
X95665000Y-117503776D01*
X95665000Y-117056224D01*
X95493729Y-116642739D01*
X95177261Y-116326271D01*
X94763776Y-116155000D01*
X94316224Y-116155000D01*
X93902739Y-116326271D01*
X93586271Y-116642739D01*
X93415000Y-117056224D01*
X87745000Y-117056224D01*
X87573729Y-116642739D01*
X87257261Y-116326271D01*
X86843776Y-116155000D01*
X86396224Y-116155000D01*
X85982739Y-116326271D01*
X85666271Y-116642739D01*
X85495000Y-117056224D01*
X79825000Y-117056224D01*
X79653729Y-116642739D01*
X79337261Y-116326271D01*
X78923776Y-116155000D01*
X78476224Y-116155000D01*
X78062739Y-116326271D01*
X77746271Y-116642739D01*
X77575000Y-117056224D01*
X68375000Y-117056224D01*
X68375000Y-111681414D01*
X73320000Y-111681414D01*
X73320000Y-112198586D01*
X73517913Y-112676391D01*
X73883609Y-113042087D01*
X74361414Y-113240000D01*
X74878586Y-113240000D01*
X75356391Y-113042087D01*
X75722087Y-112676391D01*
X75920000Y-112198586D01*
X75920000Y-111681414D01*
X85320000Y-111681414D01*
X85320000Y-112198586D01*
X85517913Y-112676391D01*
X85883609Y-113042087D01*
X86361414Y-113240000D01*
X86878586Y-113240000D01*
X87356391Y-113042087D01*
X87722087Y-112676391D01*
X87920000Y-112198586D01*
X87920000Y-111681414D01*
X97320000Y-111681414D01*
X97320000Y-112198586D01*
X97517913Y-112676391D01*
X97883609Y-113042087D01*
X98361414Y-113240000D01*
X98878586Y-113240000D01*
X99356391Y-113042087D01*
X99722087Y-112676391D01*
X99920000Y-112198586D01*
X99920000Y-111681414D01*
X99722087Y-111203609D01*
X99356391Y-110837913D01*
X98878586Y-110640000D01*
X98361414Y-110640000D01*
X97883609Y-110837913D01*
X97517913Y-111203609D01*
X97320000Y-111681414D01*
X87920000Y-111681414D01*
X87722087Y-111203609D01*
X87356391Y-110837913D01*
X86878586Y-110640000D01*
X86361414Y-110640000D01*
X85883609Y-110837913D01*
X85517913Y-111203609D01*
X85320000Y-111681414D01*
X75920000Y-111681414D01*
X75722087Y-111203609D01*
X75356391Y-110837913D01*
X74878586Y-110640000D01*
X74361414Y-110640000D01*
X73883609Y-110837913D01*
X73517913Y-111203609D01*
X73320000Y-111681414D01*
X68375000Y-111681414D01*
X68375000Y-107721414D01*
X73320000Y-107721414D01*
X73320000Y-108238586D01*
X73517913Y-108716391D01*
X73883609Y-109082087D01*
X74361414Y-109280000D01*
X74878586Y-109280000D01*
X75356391Y-109082087D01*
X75722087Y-108716391D01*
X75920000Y-108238586D01*
X75920000Y-107721414D01*
X85320000Y-107721414D01*
X85320000Y-108238586D01*
X85517913Y-108716391D01*
X85883609Y-109082087D01*
X86361414Y-109280000D01*
X86878586Y-109280000D01*
X87356391Y-109082087D01*
X87722087Y-108716391D01*
X87920000Y-108238586D01*
X87920000Y-107721414D01*
X97320000Y-107721414D01*
X97320000Y-108238586D01*
X97517913Y-108716391D01*
X97883609Y-109082087D01*
X98361414Y-109280000D01*
X98878586Y-109280000D01*
X99356391Y-109082087D01*
X99722087Y-108716391D01*
X99920000Y-108238586D01*
X99920000Y-107721414D01*
X99722087Y-107243609D01*
X99356391Y-106877913D01*
X98878586Y-106680000D01*
X98361414Y-106680000D01*
X97883609Y-106877913D01*
X97517913Y-107243609D01*
X97320000Y-107721414D01*
X87920000Y-107721414D01*
X87722087Y-107243609D01*
X87356391Y-106877913D01*
X86878586Y-106680000D01*
X86361414Y-106680000D01*
X85883609Y-106877913D01*
X85517913Y-107243609D01*
X85320000Y-107721414D01*
X75920000Y-107721414D01*
X75722087Y-107243609D01*
X75356391Y-106877913D01*
X74878586Y-106680000D01*
X74361414Y-106680000D01*
X73883609Y-106877913D01*
X73517913Y-107243609D01*
X73320000Y-107721414D01*
X68375000Y-107721414D01*
X68375000Y-105175066D01*
X73682723Y-105175066D01*
X73785174Y-105431040D01*
X74388703Y-105643105D01*
X75027445Y-105608067D01*
X75454826Y-105431040D01*
X75557277Y-105175066D01*
X85682723Y-105175066D01*
X85785174Y-105431040D01*
X86388703Y-105643105D01*
X87027445Y-105608067D01*
X87454826Y-105431040D01*
X87557277Y-105175066D01*
X97682723Y-105175066D01*
X97785174Y-105431040D01*
X98388703Y-105643105D01*
X99027445Y-105608067D01*
X99454826Y-105431040D01*
X99557277Y-105175066D01*
X98620000Y-104237789D01*
X97682723Y-105175066D01*
X87557277Y-105175066D01*
X86620000Y-104237789D01*
X85682723Y-105175066D01*
X75557277Y-105175066D01*
X74620000Y-104237789D01*
X73682723Y-105175066D01*
X68375000Y-105175066D01*
X68375000Y-103788703D01*
X72996895Y-103788703D01*
X73031933Y-104427445D01*
X73208960Y-104854826D01*
X73464934Y-104957277D01*
X74402211Y-104020000D01*
X74837789Y-104020000D01*
X75775066Y-104957277D01*
X76031040Y-104854826D01*
X76243105Y-104251297D01*
X76217730Y-103788703D01*
X84996895Y-103788703D01*
X85031933Y-104427445D01*
X85208960Y-104854826D01*
X85464934Y-104957277D01*
X86402211Y-104020000D01*
X86837789Y-104020000D01*
X87775066Y-104957277D01*
X88031040Y-104854826D01*
X88243105Y-104251297D01*
X88217730Y-103788703D01*
X96996895Y-103788703D01*
X97031933Y-104427445D01*
X97208960Y-104854826D01*
X97464934Y-104957277D01*
X98402211Y-104020000D01*
X98837789Y-104020000D01*
X99775066Y-104957277D01*
X100031040Y-104854826D01*
X100243105Y-104251297D01*
X100208067Y-103612555D01*
X100031040Y-103185174D01*
X99775066Y-103082723D01*
X98837789Y-104020000D01*
X98402211Y-104020000D01*
X97464934Y-103082723D01*
X97208960Y-103185174D01*
X96996895Y-103788703D01*
X88217730Y-103788703D01*
X88208067Y-103612555D01*
X88031040Y-103185174D01*
X87775066Y-103082723D01*
X86837789Y-104020000D01*
X86402211Y-104020000D01*
X85464934Y-103082723D01*
X85208960Y-103185174D01*
X84996895Y-103788703D01*
X76217730Y-103788703D01*
X76208067Y-103612555D01*
X76031040Y-103185174D01*
X75775066Y-103082723D01*
X74837789Y-104020000D01*
X74402211Y-104020000D01*
X73464934Y-103082723D01*
X73208960Y-103185174D01*
X72996895Y-103788703D01*
X68375000Y-103788703D01*
X68375000Y-102864934D01*
X73682723Y-102864934D01*
X74620000Y-103802211D01*
X75557277Y-102864934D01*
X85682723Y-102864934D01*
X86620000Y-103802211D01*
X87557277Y-102864934D01*
X97682723Y-102864934D01*
X98620000Y-103802211D01*
X99557277Y-102864934D01*
X99454826Y-102608960D01*
X98851297Y-102396895D01*
X98212555Y-102431933D01*
X97785174Y-102608960D01*
X97682723Y-102864934D01*
X87557277Y-102864934D01*
X87454826Y-102608960D01*
X86851297Y-102396895D01*
X86212555Y-102431933D01*
X85785174Y-102608960D01*
X85682723Y-102864934D01*
X75557277Y-102864934D01*
X75454826Y-102608960D01*
X74851297Y-102396895D01*
X74212555Y-102431933D01*
X73785174Y-102608960D01*
X73682723Y-102864934D01*
X68375000Y-102864934D01*
X68375000Y-99801414D01*
X73320000Y-99801414D01*
X73320000Y-100318586D01*
X73517913Y-100796391D01*
X73883609Y-101162087D01*
X74361414Y-101360000D01*
X74878586Y-101360000D01*
X75356391Y-101162087D01*
X75722087Y-100796391D01*
X75920000Y-100318586D01*
X75920000Y-99801414D01*
X85320000Y-99801414D01*
X85320000Y-100318586D01*
X85517913Y-100796391D01*
X85883609Y-101162087D01*
X86361414Y-101360000D01*
X86878586Y-101360000D01*
X87356391Y-101162087D01*
X87722087Y-100796391D01*
X87920000Y-100318586D01*
X87920000Y-99801414D01*
X97320000Y-99801414D01*
X97320000Y-100318586D01*
X97517913Y-100796391D01*
X97883609Y-101162087D01*
X98361414Y-101360000D01*
X98878586Y-101360000D01*
X99356391Y-101162087D01*
X99722087Y-100796391D01*
X99920000Y-100318586D01*
X99920000Y-99801414D01*
X99722087Y-99323609D01*
X99356391Y-98957913D01*
X98878586Y-98760000D01*
X98361414Y-98760000D01*
X97883609Y-98957913D01*
X97517913Y-99323609D01*
X97320000Y-99801414D01*
X87920000Y-99801414D01*
X87722087Y-99323609D01*
X87356391Y-98957913D01*
X86878586Y-98760000D01*
X86361414Y-98760000D01*
X85883609Y-98957913D01*
X85517913Y-99323609D01*
X85320000Y-99801414D01*
X75920000Y-99801414D01*
X75722087Y-99323609D01*
X75356391Y-98957913D01*
X74878586Y-98760000D01*
X74361414Y-98760000D01*
X73883609Y-98957913D01*
X73517913Y-99323609D01*
X73320000Y-99801414D01*
X68375000Y-99801414D01*
X68375000Y-98558755D01*
X106738000Y-98558755D01*
X106738000Y-98981245D01*
X106899680Y-99371575D01*
X107198425Y-99670320D01*
X107588755Y-99832000D01*
X108011245Y-99832000D01*
X108401575Y-99670320D01*
X108700320Y-99371575D01*
X108862000Y-98981245D01*
X108862000Y-98558755D01*
X108700320Y-98168425D01*
X108401575Y-97869680D01*
X108011245Y-97708000D01*
X107588755Y-97708000D01*
X107198425Y-97869680D01*
X106899680Y-98168425D01*
X106738000Y-98558755D01*
X68375000Y-98558755D01*
X68375000Y-96018755D01*
X106738000Y-96018755D01*
X106738000Y-96441245D01*
X106899680Y-96831575D01*
X107198425Y-97130320D01*
X107588755Y-97292000D01*
X108011245Y-97292000D01*
X108401575Y-97130320D01*
X108700320Y-96831575D01*
X108862000Y-96441245D01*
X108862000Y-96018755D01*
X108700320Y-95628425D01*
X108401575Y-95329680D01*
X108011245Y-95168000D01*
X107588755Y-95168000D01*
X107198425Y-95329680D01*
X106899680Y-95628425D01*
X106738000Y-96018755D01*
X68375000Y-96018755D01*
X68375000Y-93478755D01*
X106738000Y-93478755D01*
X106738000Y-93901245D01*
X106899680Y-94291575D01*
X107198425Y-94590320D01*
X107588755Y-94752000D01*
X108011245Y-94752000D01*
X108401575Y-94590320D01*
X108700320Y-94291575D01*
X108862000Y-93901245D01*
X108862000Y-93478755D01*
X108700320Y-93088425D01*
X108401575Y-92789680D01*
X108011245Y-92628000D01*
X107588755Y-92628000D01*
X107198425Y-92789680D01*
X106899680Y-93088425D01*
X106738000Y-93478755D01*
X68375000Y-93478755D01*
X68375000Y-90880653D01*
X86150000Y-90880653D01*
X86150000Y-91119347D01*
X86241344Y-91339873D01*
X86410127Y-91508656D01*
X86630653Y-91600000D01*
X86869347Y-91600000D01*
X87089873Y-91508656D01*
X87258656Y-91339873D01*
X87345316Y-91130653D01*
X100150000Y-91130653D01*
X100150000Y-91369347D01*
X100241344Y-91589873D01*
X100410127Y-91758656D01*
X100630653Y-91850000D01*
X100869347Y-91850000D01*
X101089873Y-91758656D01*
X101258656Y-91589873D01*
X101350000Y-91369347D01*
X101350000Y-91130653D01*
X101270514Y-90938755D01*
X106738000Y-90938755D01*
X106738000Y-91361245D01*
X106899680Y-91751575D01*
X107198425Y-92050320D01*
X107588755Y-92212000D01*
X108011245Y-92212000D01*
X108401575Y-92050320D01*
X108700320Y-91751575D01*
X108862000Y-91361245D01*
X108862000Y-90938755D01*
X108700320Y-90548425D01*
X108401575Y-90249680D01*
X108011245Y-90088000D01*
X107588755Y-90088000D01*
X107198425Y-90249680D01*
X106899680Y-90548425D01*
X106738000Y-90938755D01*
X101270514Y-90938755D01*
X101258656Y-90910127D01*
X101089873Y-90741344D01*
X100869347Y-90650000D01*
X100630653Y-90650000D01*
X100410127Y-90741344D01*
X100241344Y-90910127D01*
X100150000Y-91130653D01*
X87345316Y-91130653D01*
X87350000Y-91119347D01*
X87350000Y-90880653D01*
X87258656Y-90660127D01*
X87089873Y-90491344D01*
X86869347Y-90400000D01*
X86630653Y-90400000D01*
X86410127Y-90491344D01*
X86241344Y-90660127D01*
X86150000Y-90880653D01*
X68375000Y-90880653D01*
X68375000Y-88880653D01*
X69400000Y-88880653D01*
X69400000Y-89119347D01*
X69491344Y-89339873D01*
X69660127Y-89508656D01*
X69880653Y-89600000D01*
X70119347Y-89600000D01*
X70339873Y-89508656D01*
X70508656Y-89339873D01*
X70600000Y-89119347D01*
X70600000Y-88880653D01*
X70508656Y-88660127D01*
X70339873Y-88491344D01*
X70119347Y-88400000D01*
X69880653Y-88400000D01*
X69660127Y-88491344D01*
X69491344Y-88660127D01*
X69400000Y-88880653D01*
X68375000Y-88880653D01*
X68375000Y-88398755D01*
X106738000Y-88398755D01*
X106738000Y-88821245D01*
X106899680Y-89211575D01*
X107198425Y-89510320D01*
X107588755Y-89672000D01*
X108011245Y-89672000D01*
X108187820Y-89598860D01*
X120125001Y-101536042D01*
X120125000Y-118725000D01*
X113708461Y-118725000D01*
X113700340Y-118684175D01*
X113606406Y-118543594D01*
X113465825Y-118449660D01*
X113299999Y-118416675D01*
X113134172Y-118449660D01*
X113029076Y-118519883D01*
X112998959Y-118550000D01*
X112880653Y-118550000D01*
X112780006Y-118591689D01*
X112783325Y-118575001D01*
X112777968Y-118548070D01*
X113251039Y-118075000D01*
X113526471Y-118075000D01*
X113610127Y-118158656D01*
X113830653Y-118250000D01*
X114069347Y-118250000D01*
X114289873Y-118158656D01*
X114458656Y-117989873D01*
X114550000Y-117769347D01*
X114550000Y-117530653D01*
X114458656Y-117310127D01*
X114289873Y-117141344D01*
X114069347Y-117050000D01*
X113830653Y-117050000D01*
X113610127Y-117141344D01*
X113526471Y-117225000D01*
X113116853Y-117225000D01*
X113074997Y-117216674D01*
X113033141Y-117225000D01*
X113033140Y-117225000D01*
X112909171Y-117249659D01*
X112768590Y-117343592D01*
X112744879Y-117379078D01*
X112079080Y-118044878D01*
X112043591Y-118068591D01*
X111983412Y-118158656D01*
X111949658Y-118209173D01*
X111916673Y-118374999D01*
X111922030Y-118401930D01*
X107879081Y-122444879D01*
X107843592Y-122468592D01*
X107749660Y-122609173D01*
X107749659Y-122609174D01*
X107716674Y-122775000D01*
X107725000Y-122816858D01*
X107725001Y-128333874D01*
X107725000Y-128333879D01*
X107725000Y-128376471D01*
X107641344Y-128460127D01*
X107550000Y-128680653D01*
X107550000Y-128919347D01*
X107641344Y-129139873D01*
X107810127Y-129308656D01*
X108030653Y-129400000D01*
X108269347Y-129400000D01*
X108489873Y-129308656D01*
X108658656Y-129139873D01*
X108750000Y-128919347D01*
X108750000Y-128680653D01*
X108658656Y-128460127D01*
X108575000Y-128376471D01*
X108575000Y-126355653D01*
X108925000Y-126355653D01*
X108925000Y-126594347D01*
X109016344Y-126814873D01*
X109185127Y-126983656D01*
X109405653Y-127075000D01*
X109644347Y-127075000D01*
X109864873Y-126983656D01*
X110033656Y-126814873D01*
X110125000Y-126594347D01*
X110125000Y-126355653D01*
X110033656Y-126135127D01*
X109864873Y-125966344D01*
X109644347Y-125875000D01*
X109405653Y-125875000D01*
X109185127Y-125966344D01*
X109016344Y-126135127D01*
X108925000Y-126355653D01*
X108575000Y-126355653D01*
X108575000Y-123355653D01*
X113500000Y-123355653D01*
X113500000Y-123594347D01*
X113591344Y-123814873D01*
X113760127Y-123983656D01*
X113980653Y-124075000D01*
X114098959Y-124075000D01*
X114129076Y-124105117D01*
X114129079Y-124105119D01*
X116725001Y-126701042D01*
X116725000Y-128176471D01*
X116641344Y-128260127D01*
X116550000Y-128480653D01*
X116550000Y-128719347D01*
X116641344Y-128939873D01*
X116810127Y-129108656D01*
X117030653Y-129200000D01*
X117269347Y-129200000D01*
X117489873Y-129108656D01*
X117658656Y-128939873D01*
X117750000Y-128719347D01*
X117750000Y-128480653D01*
X117658656Y-128260127D01*
X117575000Y-128176471D01*
X117575000Y-126566857D01*
X117583326Y-126525000D01*
X117550341Y-126359173D01*
X117480118Y-126254077D01*
X117456408Y-126218592D01*
X117420922Y-126194881D01*
X117056694Y-125830653D01*
X120575000Y-125830653D01*
X120575000Y-126069347D01*
X120666344Y-126289873D01*
X120835127Y-126458656D01*
X121055653Y-126550000D01*
X121294347Y-126550000D01*
X121514873Y-126458656D01*
X121590629Y-126382900D01*
X122705360Y-126403889D01*
X122797068Y-126495597D01*
X123017594Y-126586941D01*
X123256288Y-126586941D01*
X123476814Y-126495597D01*
X123645597Y-126326814D01*
X123736941Y-126106288D01*
X123736941Y-125867594D01*
X123645597Y-125647068D01*
X123476814Y-125478285D01*
X123256288Y-125386941D01*
X123017594Y-125386941D01*
X122797068Y-125478285D01*
X122721312Y-125554041D01*
X121606580Y-125533051D01*
X121514873Y-125441344D01*
X121294347Y-125350000D01*
X121055653Y-125350000D01*
X120835127Y-125441344D01*
X120666344Y-125610127D01*
X120575000Y-125830653D01*
X117056694Y-125830653D01*
X114730119Y-123504079D01*
X114730117Y-123504076D01*
X114706694Y-123480653D01*
X116600000Y-123480653D01*
X116600000Y-123719347D01*
X116691344Y-123939873D01*
X116860127Y-124108656D01*
X117080653Y-124200000D01*
X117319347Y-124200000D01*
X117539873Y-124108656D01*
X117708656Y-123939873D01*
X117800000Y-123719347D01*
X117800000Y-123480653D01*
X117708656Y-123260127D01*
X117539873Y-123091344D01*
X117319347Y-123000000D01*
X117080653Y-123000000D01*
X116860127Y-123091344D01*
X116691344Y-123260127D01*
X116600000Y-123480653D01*
X114706694Y-123480653D01*
X114700000Y-123473959D01*
X114700000Y-123355653D01*
X114608656Y-123135127D01*
X114439873Y-122966344D01*
X114219347Y-122875000D01*
X113980653Y-122875000D01*
X113760127Y-122966344D01*
X113591344Y-123135127D01*
X113500000Y-123355653D01*
X108575000Y-123355653D01*
X108575000Y-122951040D01*
X112400000Y-119126040D01*
X112400000Y-119269347D01*
X112423051Y-119324998D01*
X112330653Y-119324998D01*
X112110127Y-119416342D01*
X111941344Y-119585125D01*
X111850000Y-119805651D01*
X111850000Y-120044345D01*
X111941344Y-120264871D01*
X112110127Y-120433654D01*
X112330653Y-120524998D01*
X112569347Y-120524998D01*
X112789873Y-120433654D01*
X112873529Y-120349998D01*
X119851471Y-120349998D01*
X119935127Y-120433654D01*
X120155653Y-120524998D01*
X120394347Y-120524998D01*
X120614873Y-120433654D01*
X120698529Y-120349998D01*
X126383143Y-120349998D01*
X126425000Y-120358324D01*
X126466857Y-120349998D01*
X126466858Y-120349998D01*
X126590827Y-120325339D01*
X126731408Y-120231406D01*
X126755121Y-120195917D01*
X126895385Y-120055653D01*
X131875000Y-120055653D01*
X131875000Y-120294347D01*
X131966344Y-120514873D01*
X132135127Y-120683656D01*
X132355653Y-120775000D01*
X132594347Y-120775000D01*
X132814873Y-120683656D01*
X132983656Y-120514873D01*
X133075000Y-120294347D01*
X133075000Y-120055653D01*
X132983656Y-119835127D01*
X132814873Y-119666344D01*
X132594347Y-119575000D01*
X132355653Y-119575000D01*
X132135127Y-119666344D01*
X131966344Y-119835127D01*
X131875000Y-120055653D01*
X126895385Y-120055653D01*
X127026041Y-119924998D01*
X127144347Y-119924998D01*
X127364873Y-119833654D01*
X127533656Y-119664871D01*
X127625000Y-119444345D01*
X127625000Y-119205651D01*
X127570883Y-119075000D01*
X127962785Y-119075000D01*
X127970785Y-119094314D01*
X128139568Y-119263097D01*
X128360094Y-119354441D01*
X128598788Y-119354441D01*
X128819314Y-119263097D01*
X128988097Y-119094314D01*
X129079441Y-118873788D01*
X129079441Y-118635094D01*
X128988097Y-118414568D01*
X128819314Y-118245785D01*
X128598788Y-118154441D01*
X128360094Y-118154441D01*
X128189748Y-118225000D01*
X126691857Y-118225000D01*
X126650000Y-118216674D01*
X126608142Y-118225000D01*
X126484173Y-118249659D01*
X126343592Y-118343592D01*
X126319881Y-118379078D01*
X125973960Y-118725000D01*
X120975000Y-118725000D01*
X120975000Y-113155653D01*
X123150000Y-113155653D01*
X123150000Y-113394347D01*
X123241344Y-113614873D01*
X123410127Y-113783656D01*
X123630653Y-113875000D01*
X123869347Y-113875000D01*
X124089873Y-113783656D01*
X124258656Y-113614873D01*
X124350000Y-113394347D01*
X124350000Y-113180653D01*
X129325000Y-113180653D01*
X129325000Y-113419347D01*
X129416344Y-113639873D01*
X129585127Y-113808656D01*
X129805653Y-113900000D01*
X130044347Y-113900000D01*
X130264873Y-113808656D01*
X130433656Y-113639873D01*
X130525000Y-113419347D01*
X130525000Y-113180653D01*
X130433656Y-112960127D01*
X130264873Y-112791344D01*
X130044347Y-112700000D01*
X129805653Y-112700000D01*
X129585127Y-112791344D01*
X129416344Y-112960127D01*
X129325000Y-113180653D01*
X124350000Y-113180653D01*
X124350000Y-113155653D01*
X124258656Y-112935127D01*
X124089873Y-112766344D01*
X123869347Y-112675000D01*
X123630653Y-112675000D01*
X123410127Y-112766344D01*
X123241344Y-112935127D01*
X123150000Y-113155653D01*
X120975000Y-113155653D01*
X120975000Y-101401857D01*
X120983326Y-101360000D01*
X120950341Y-101194173D01*
X120880118Y-101089077D01*
X120856408Y-101053592D01*
X120820922Y-101029881D01*
X118349796Y-98558755D01*
X132408000Y-98558755D01*
X132408000Y-98981245D01*
X132569680Y-99371575D01*
X132868425Y-99670320D01*
X133258755Y-99832000D01*
X133681245Y-99832000D01*
X134071575Y-99670320D01*
X134370320Y-99371575D01*
X134532000Y-98981245D01*
X134532000Y-98558755D01*
X134370320Y-98168425D01*
X134071575Y-97869680D01*
X133681245Y-97708000D01*
X133258755Y-97708000D01*
X132868425Y-97869680D01*
X132569680Y-98168425D01*
X132408000Y-98558755D01*
X118349796Y-98558755D01*
X115809796Y-96018755D01*
X132408000Y-96018755D01*
X132408000Y-96441245D01*
X132569680Y-96831575D01*
X132868425Y-97130320D01*
X133258755Y-97292000D01*
X133681245Y-97292000D01*
X134071575Y-97130320D01*
X134370320Y-96831575D01*
X134532000Y-96441245D01*
X134532000Y-96018755D01*
X134370320Y-95628425D01*
X134071575Y-95329680D01*
X133681245Y-95168000D01*
X133258755Y-95168000D01*
X132868425Y-95329680D01*
X132569680Y-95628425D01*
X132408000Y-96018755D01*
X115809796Y-96018755D01*
X113269796Y-93478755D01*
X132408000Y-93478755D01*
X132408000Y-93901245D01*
X132569680Y-94291575D01*
X132868425Y-94590320D01*
X133258755Y-94752000D01*
X133681245Y-94752000D01*
X134071575Y-94590320D01*
X134370320Y-94291575D01*
X134532000Y-93901245D01*
X134532000Y-93478755D01*
X134370320Y-93088425D01*
X134071575Y-92789680D01*
X133681245Y-92628000D01*
X133258755Y-92628000D01*
X132868425Y-92789680D01*
X132569680Y-93088425D01*
X132408000Y-93478755D01*
X113269796Y-93478755D01*
X110729796Y-90938755D01*
X132408000Y-90938755D01*
X132408000Y-91361245D01*
X132569680Y-91751575D01*
X132868425Y-92050320D01*
X133258755Y-92212000D01*
X133681245Y-92212000D01*
X134071575Y-92050320D01*
X134370320Y-91751575D01*
X134532000Y-91361245D01*
X134532000Y-90938755D01*
X134370320Y-90548425D01*
X134071575Y-90249680D01*
X133681245Y-90088000D01*
X133258755Y-90088000D01*
X132868425Y-90249680D01*
X132569680Y-90548425D01*
X132408000Y-90938755D01*
X110729796Y-90938755D01*
X108788860Y-88997820D01*
X108862000Y-88821245D01*
X108862000Y-88398755D01*
X132408000Y-88398755D01*
X132408000Y-88821245D01*
X132569680Y-89211575D01*
X132868425Y-89510320D01*
X133258755Y-89672000D01*
X133681245Y-89672000D01*
X134071575Y-89510320D01*
X134370320Y-89211575D01*
X134532000Y-88821245D01*
X134532000Y-88398755D01*
X134370320Y-88008425D01*
X134071575Y-87709680D01*
X133681245Y-87548000D01*
X133258755Y-87548000D01*
X132868425Y-87709680D01*
X132569680Y-88008425D01*
X132408000Y-88398755D01*
X108862000Y-88398755D01*
X108700320Y-88008425D01*
X108401575Y-87709680D01*
X108011245Y-87548000D01*
X107588755Y-87548000D01*
X107198425Y-87709680D01*
X106899680Y-88008425D01*
X106738000Y-88398755D01*
X68375000Y-88398755D01*
X68375000Y-85858755D01*
X106738000Y-85858755D01*
X106738000Y-86281245D01*
X106899680Y-86671575D01*
X107198425Y-86970320D01*
X107588755Y-87132000D01*
X108011245Y-87132000D01*
X108401575Y-86970320D01*
X108700320Y-86671575D01*
X108862000Y-86281245D01*
X108862000Y-85858755D01*
X132408000Y-85858755D01*
X132408000Y-86281245D01*
X132569680Y-86671575D01*
X132868425Y-86970320D01*
X133258755Y-87132000D01*
X133681245Y-87132000D01*
X134071575Y-86970320D01*
X134370320Y-86671575D01*
X134532000Y-86281245D01*
X134532000Y-85858755D01*
X134370320Y-85468425D01*
X134071575Y-85169680D01*
X133681245Y-85008000D01*
X133258755Y-85008000D01*
X132868425Y-85169680D01*
X132569680Y-85468425D01*
X132408000Y-85858755D01*
X108862000Y-85858755D01*
X108783002Y-85668038D01*
X111132285Y-83318755D01*
X132408000Y-83318755D01*
X132408000Y-83741245D01*
X132569680Y-84131575D01*
X132868425Y-84430320D01*
X133258755Y-84592000D01*
X133681245Y-84592000D01*
X134071575Y-84430320D01*
X134370320Y-84131575D01*
X134532000Y-83741245D01*
X134532000Y-83318755D01*
X134370320Y-82928425D01*
X134071575Y-82629680D01*
X133681245Y-82468000D01*
X133258755Y-82468000D01*
X132868425Y-82629680D01*
X132569680Y-82928425D01*
X132408000Y-83318755D01*
X111132285Y-83318755D01*
X112001041Y-82450000D01*
X112119347Y-82450000D01*
X112339873Y-82358656D01*
X112508656Y-82189873D01*
X112600000Y-81969347D01*
X112600000Y-81730653D01*
X112508656Y-81510127D01*
X112339873Y-81341344D01*
X112119347Y-81250000D01*
X111880653Y-81250000D01*
X111660127Y-81341344D01*
X111491344Y-81510127D01*
X111400000Y-81730653D01*
X111400000Y-81848959D01*
X108173678Y-85075282D01*
X108011245Y-85008000D01*
X107588755Y-85008000D01*
X107198425Y-85169680D01*
X106899680Y-85468425D01*
X106738000Y-85858755D01*
X68375000Y-85858755D01*
X68375000Y-78880653D01*
X68400000Y-78880653D01*
X68400000Y-79119347D01*
X68491344Y-79339873D01*
X68660127Y-79508656D01*
X68880653Y-79600000D01*
X69119347Y-79600000D01*
X69339873Y-79508656D01*
X69508656Y-79339873D01*
X69600000Y-79119347D01*
X69600000Y-78880653D01*
X69508656Y-78660127D01*
X69339873Y-78491344D01*
X69119347Y-78400000D01*
X68880653Y-78400000D01*
X68660127Y-78491344D01*
X68491344Y-78660127D01*
X68400000Y-78880653D01*
X68375000Y-78880653D01*
X68375000Y-74880653D01*
X68400000Y-74880653D01*
X68400000Y-75119347D01*
X68491344Y-75339873D01*
X68660127Y-75508656D01*
X68880653Y-75600000D01*
X69119347Y-75600000D01*
X69339873Y-75508656D01*
X69508656Y-75339873D01*
X69600000Y-75119347D01*
X69600000Y-74880653D01*
X69508656Y-74660127D01*
X69339873Y-74491344D01*
X69119347Y-74400000D01*
X68880653Y-74400000D01*
X68660127Y-74491344D01*
X68491344Y-74660127D01*
X68400000Y-74880653D01*
X68375000Y-74880653D01*
X68375000Y-74250000D01*
X77900000Y-74250000D01*
X77900000Y-84250000D01*
X77907612Y-84288268D01*
X77929289Y-84320711D01*
X77961732Y-84342388D01*
X78000000Y-84350000D01*
X84500000Y-84350000D01*
X84538268Y-84342388D01*
X84570711Y-84320711D01*
X84592388Y-84288268D01*
X84600000Y-84250000D01*
X84600000Y-83318755D01*
X106738000Y-83318755D01*
X106738000Y-83741245D01*
X106899680Y-84131575D01*
X107198425Y-84430320D01*
X107588755Y-84592000D01*
X108011245Y-84592000D01*
X108401575Y-84430320D01*
X108700320Y-84131575D01*
X108862000Y-83741245D01*
X108862000Y-83318755D01*
X108788860Y-83142180D01*
X111152285Y-80778755D01*
X132408000Y-80778755D01*
X132408000Y-81201245D01*
X132569680Y-81591575D01*
X132868425Y-81890320D01*
X133258755Y-82052000D01*
X133681245Y-82052000D01*
X134071575Y-81890320D01*
X134370320Y-81591575D01*
X134532000Y-81201245D01*
X134532000Y-80778755D01*
X134370320Y-80388425D01*
X134071575Y-80089680D01*
X133681245Y-79928000D01*
X133258755Y-79928000D01*
X132868425Y-80089680D01*
X132569680Y-80388425D01*
X132408000Y-80778755D01*
X111152285Y-80778755D01*
X113692285Y-78238755D01*
X132408000Y-78238755D01*
X132408000Y-78661245D01*
X132569680Y-79051575D01*
X132868425Y-79350320D01*
X133258755Y-79512000D01*
X133681245Y-79512000D01*
X134071575Y-79350320D01*
X134370320Y-79051575D01*
X134532000Y-78661245D01*
X134532000Y-78238755D01*
X134370320Y-77848425D01*
X134071575Y-77549680D01*
X133681245Y-77388000D01*
X133258755Y-77388000D01*
X132868425Y-77549680D01*
X132569680Y-77848425D01*
X132408000Y-78238755D01*
X113692285Y-78238755D01*
X116232285Y-75698755D01*
X132408000Y-75698755D01*
X132408000Y-76121245D01*
X132569680Y-76511575D01*
X132868425Y-76810320D01*
X133258755Y-76972000D01*
X133681245Y-76972000D01*
X134071575Y-76810320D01*
X134370320Y-76511575D01*
X134532000Y-76121245D01*
X134532000Y-75698755D01*
X134370320Y-75308425D01*
X134071575Y-75009680D01*
X133681245Y-74848000D01*
X133258755Y-74848000D01*
X132868425Y-75009680D01*
X132569680Y-75308425D01*
X132408000Y-75698755D01*
X116232285Y-75698755D01*
X118772285Y-73158755D01*
X132408000Y-73158755D01*
X132408000Y-73581245D01*
X132569680Y-73971575D01*
X132868425Y-74270320D01*
X133258755Y-74432000D01*
X133681245Y-74432000D01*
X134071575Y-74270320D01*
X134370320Y-73971575D01*
X134532000Y-73581245D01*
X134532000Y-73158755D01*
X134370320Y-72768425D01*
X134071575Y-72469680D01*
X133681245Y-72308000D01*
X133258755Y-72308000D01*
X132868425Y-72469680D01*
X132569680Y-72768425D01*
X132408000Y-73158755D01*
X118772285Y-73158755D01*
X121025387Y-70905653D01*
X121600000Y-70905653D01*
X121600000Y-71144347D01*
X121691344Y-71364873D01*
X121860127Y-71533656D01*
X122080653Y-71625000D01*
X122319347Y-71625000D01*
X122539873Y-71533656D01*
X122708656Y-71364873D01*
X122800000Y-71144347D01*
X122800000Y-70905653D01*
X122708656Y-70685127D01*
X122642284Y-70618755D01*
X132408000Y-70618755D01*
X132408000Y-71041245D01*
X132569680Y-71431575D01*
X132868425Y-71730320D01*
X133258755Y-71892000D01*
X133681245Y-71892000D01*
X134071575Y-71730320D01*
X134370320Y-71431575D01*
X134532000Y-71041245D01*
X134532000Y-70618755D01*
X134370320Y-70228425D01*
X134071575Y-69929680D01*
X133681245Y-69768000D01*
X133258755Y-69768000D01*
X132868425Y-69929680D01*
X132569680Y-70228425D01*
X132408000Y-70618755D01*
X122642284Y-70618755D01*
X122539873Y-70516344D01*
X122319347Y-70425000D01*
X122080653Y-70425000D01*
X121860127Y-70516344D01*
X121691344Y-70685127D01*
X121600000Y-70905653D01*
X121025387Y-70905653D01*
X122320923Y-69610118D01*
X122356408Y-69586408D01*
X122450341Y-69445827D01*
X122475000Y-69321858D01*
X122475000Y-69321857D01*
X122483326Y-69280001D01*
X122475000Y-69238143D01*
X122475000Y-68078755D01*
X132408000Y-68078755D01*
X132408000Y-68501245D01*
X132569680Y-68891575D01*
X132868425Y-69190320D01*
X133258755Y-69352000D01*
X133681245Y-69352000D01*
X134071575Y-69190320D01*
X134370320Y-68891575D01*
X134532000Y-68501245D01*
X134532000Y-68078755D01*
X134370320Y-67688425D01*
X134071575Y-67389680D01*
X133681245Y-67228000D01*
X133258755Y-67228000D01*
X132868425Y-67389680D01*
X132569680Y-67688425D01*
X132408000Y-68078755D01*
X122475000Y-68078755D01*
X122475000Y-66732368D01*
X132705421Y-66732368D01*
X132778551Y-66963698D01*
X133295647Y-67135917D01*
X133839287Y-67097142D01*
X134161449Y-66963698D01*
X134234579Y-66732368D01*
X133470000Y-65967789D01*
X132705421Y-66732368D01*
X122475000Y-66732368D01*
X122475000Y-65575647D01*
X132084083Y-65575647D01*
X132122858Y-66119287D01*
X132256302Y-66441449D01*
X132487632Y-66514579D01*
X133252211Y-65750000D01*
X133687789Y-65750000D01*
X134452368Y-66514579D01*
X134683698Y-66441449D01*
X134855917Y-65924353D01*
X134817142Y-65380713D01*
X134683698Y-65058551D01*
X134452368Y-64985421D01*
X133687789Y-65750000D01*
X133252211Y-65750000D01*
X132487632Y-64985421D01*
X132256302Y-65058551D01*
X132084083Y-65575647D01*
X122475000Y-65575647D01*
X122475000Y-64767632D01*
X132705421Y-64767632D01*
X133470000Y-65532211D01*
X134234579Y-64767632D01*
X134161449Y-64536302D01*
X133644353Y-64364083D01*
X133100713Y-64402858D01*
X132778551Y-64536302D01*
X132705421Y-64767632D01*
X122475000Y-64767632D01*
X122475000Y-64023531D01*
X122558656Y-63939875D01*
X122650000Y-63719349D01*
X122650000Y-63680653D01*
X124750000Y-63680653D01*
X124750000Y-63919347D01*
X124841344Y-64139873D01*
X125010127Y-64308656D01*
X125230653Y-64400000D01*
X125469347Y-64400000D01*
X125689873Y-64308656D01*
X125858656Y-64139873D01*
X125950000Y-63919347D01*
X125950000Y-63680653D01*
X125858656Y-63460127D01*
X125689873Y-63291344D01*
X125469347Y-63200000D01*
X125230653Y-63200000D01*
X125010127Y-63291344D01*
X124841344Y-63460127D01*
X124750000Y-63680653D01*
X122650000Y-63680653D01*
X122650000Y-63480655D01*
X122558656Y-63260129D01*
X122389873Y-63091346D01*
X122169347Y-63000002D01*
X121930653Y-63000002D01*
X121710127Y-63091346D01*
X121541344Y-63260129D01*
X121450000Y-63480655D01*
X121450000Y-63719349D01*
X121541344Y-63939875D01*
X121625000Y-64023531D01*
X121625000Y-64066123D01*
X121625001Y-64066128D01*
X121625000Y-69103959D01*
X108187820Y-82541140D01*
X108011245Y-82468000D01*
X107588755Y-82468000D01*
X107198425Y-82629680D01*
X106899680Y-82928425D01*
X106738000Y-83318755D01*
X84600000Y-83318755D01*
X84600000Y-80778755D01*
X106738000Y-80778755D01*
X106738000Y-81201245D01*
X106899680Y-81591575D01*
X107198425Y-81890320D01*
X107588755Y-82052000D01*
X108011245Y-82052000D01*
X108401575Y-81890320D01*
X108700320Y-81591575D01*
X108862000Y-81201245D01*
X108862000Y-80778755D01*
X108700320Y-80388425D01*
X108401575Y-80089680D01*
X108011245Y-79928000D01*
X107588755Y-79928000D01*
X107198425Y-80089680D01*
X106899680Y-80388425D01*
X106738000Y-80778755D01*
X84600000Y-80778755D01*
X84600000Y-78238755D01*
X106738000Y-78238755D01*
X106738000Y-78661245D01*
X106899680Y-79051575D01*
X107198425Y-79350320D01*
X107588755Y-79512000D01*
X108011245Y-79512000D01*
X108401575Y-79350320D01*
X108700320Y-79051575D01*
X108862000Y-78661245D01*
X108862000Y-78238755D01*
X108700320Y-77848425D01*
X108401575Y-77549680D01*
X108011245Y-77388000D01*
X107588755Y-77388000D01*
X107198425Y-77549680D01*
X106899680Y-77848425D01*
X106738000Y-78238755D01*
X84600000Y-78238755D01*
X84600000Y-76430653D01*
X95650000Y-76430653D01*
X95650000Y-76669347D01*
X95741344Y-76889873D01*
X95910127Y-77058656D01*
X96130653Y-77150000D01*
X96369347Y-77150000D01*
X96589873Y-77058656D01*
X96758656Y-76889873D01*
X96850000Y-76669347D01*
X96850000Y-76430653D01*
X96758656Y-76210127D01*
X96589873Y-76041344D01*
X96369347Y-75950000D01*
X96130653Y-75950000D01*
X95910127Y-76041344D01*
X95741344Y-76210127D01*
X95650000Y-76430653D01*
X84600000Y-76430653D01*
X84600000Y-75698755D01*
X106738000Y-75698755D01*
X106738000Y-76121245D01*
X106899680Y-76511575D01*
X107198425Y-76810320D01*
X107588755Y-76972000D01*
X108011245Y-76972000D01*
X108401575Y-76810320D01*
X108700320Y-76511575D01*
X108862000Y-76121245D01*
X108862000Y-75698755D01*
X108700320Y-75308425D01*
X108401575Y-75009680D01*
X108011245Y-74848000D01*
X107588755Y-74848000D01*
X107198425Y-75009680D01*
X106899680Y-75308425D01*
X106738000Y-75698755D01*
X84600000Y-75698755D01*
X84600000Y-74250000D01*
X84592388Y-74211732D01*
X84570711Y-74179289D01*
X84538268Y-74157612D01*
X84500000Y-74150000D01*
X78000000Y-74150000D01*
X77961732Y-74157612D01*
X77929289Y-74179289D01*
X77907612Y-74211732D01*
X77900000Y-74250000D01*
X68375000Y-74250000D01*
X68375000Y-73158755D01*
X106738000Y-73158755D01*
X106738000Y-73581245D01*
X106899680Y-73971575D01*
X107198425Y-74270320D01*
X107588755Y-74432000D01*
X108011245Y-74432000D01*
X108401575Y-74270320D01*
X108700320Y-73971575D01*
X108862000Y-73581245D01*
X108862000Y-73158755D01*
X108700320Y-72768425D01*
X108401575Y-72469680D01*
X108011245Y-72308000D01*
X107588755Y-72308000D01*
X107198425Y-72469680D01*
X106899680Y-72768425D01*
X106738000Y-73158755D01*
X68375000Y-73158755D01*
X68375000Y-70618755D01*
X106738000Y-70618755D01*
X106738000Y-71041245D01*
X106899680Y-71431575D01*
X107198425Y-71730320D01*
X107588755Y-71892000D01*
X108011245Y-71892000D01*
X108401575Y-71730320D01*
X108700320Y-71431575D01*
X108862000Y-71041245D01*
X108862000Y-70618755D01*
X108700320Y-70228425D01*
X108401575Y-69929680D01*
X108011245Y-69768000D01*
X107588755Y-69768000D01*
X107198425Y-69929680D01*
X106899680Y-70228425D01*
X106738000Y-70618755D01*
X68375000Y-70618755D01*
X68375000Y-68078755D01*
X106738000Y-68078755D01*
X106738000Y-68501245D01*
X106899680Y-68891575D01*
X107198425Y-69190320D01*
X107588755Y-69352000D01*
X108011245Y-69352000D01*
X108401575Y-69190320D01*
X108700320Y-68891575D01*
X108862000Y-68501245D01*
X108862000Y-68078755D01*
X108700320Y-67688425D01*
X108401575Y-67389680D01*
X108011245Y-67228000D01*
X107588755Y-67228000D01*
X107198425Y-67389680D01*
X106899680Y-67688425D01*
X106738000Y-68078755D01*
X68375000Y-68078755D01*
X68375000Y-66732368D01*
X107035421Y-66732368D01*
X107108551Y-66963698D01*
X107625647Y-67135917D01*
X108169287Y-67097142D01*
X108491449Y-66963698D01*
X108564579Y-66732368D01*
X107800000Y-65967789D01*
X107035421Y-66732368D01*
X68375000Y-66732368D01*
X68375000Y-64641414D01*
X69570000Y-64641414D01*
X69570000Y-65158586D01*
X69767913Y-65636391D01*
X70133609Y-66002087D01*
X70611414Y-66200000D01*
X71128586Y-66200000D01*
X71606391Y-66002087D01*
X71972087Y-65636391D01*
X71997247Y-65575647D01*
X106414083Y-65575647D01*
X106452858Y-66119287D01*
X106586302Y-66441449D01*
X106817632Y-66514579D01*
X107582211Y-65750000D01*
X108017789Y-65750000D01*
X108782368Y-66514579D01*
X109013698Y-66441449D01*
X109185917Y-65924353D01*
X109147142Y-65380713D01*
X109013698Y-65058551D01*
X108782368Y-64985421D01*
X108017789Y-65750000D01*
X107582211Y-65750000D01*
X106817632Y-64985421D01*
X106586302Y-65058551D01*
X106414083Y-65575647D01*
X71997247Y-65575647D01*
X72170000Y-65158586D01*
X72170000Y-64767632D01*
X107035421Y-64767632D01*
X107800000Y-65532211D01*
X108564579Y-64767632D01*
X108491449Y-64536302D01*
X107974353Y-64364083D01*
X107430713Y-64402858D01*
X107108551Y-64536302D01*
X107035421Y-64767632D01*
X72170000Y-64767632D01*
X72170000Y-64641414D01*
X71972087Y-64163609D01*
X71606391Y-63797913D01*
X71128586Y-63600000D01*
X70611414Y-63600000D01*
X70133609Y-63797913D01*
X69767913Y-64163609D01*
X69570000Y-64641414D01*
X68375000Y-64641414D01*
X68375000Y-61600000D01*
X82144123Y-61600000D01*
X82144123Y-63300000D01*
X82167407Y-63417054D01*
X82233712Y-63516288D01*
X82332946Y-63582593D01*
X82450000Y-63605877D01*
X84150000Y-63605877D01*
X84267054Y-63582593D01*
X84366288Y-63516288D01*
X84432593Y-63417054D01*
X84455877Y-63300000D01*
X84455877Y-62877023D01*
X84684259Y-63338854D01*
X85112384Y-63713477D01*
X85461090Y-63857903D01*
X85686000Y-63746889D01*
X85686000Y-62604000D01*
X85666000Y-62604000D01*
X85666000Y-62296000D01*
X85686000Y-62296000D01*
X85686000Y-61153111D01*
X85994000Y-61153111D01*
X85994000Y-62296000D01*
X86014000Y-62296000D01*
X86014000Y-62604000D01*
X85994000Y-62604000D01*
X85994000Y-63746889D01*
X86218910Y-63857903D01*
X86567616Y-63713477D01*
X86995741Y-63338854D01*
X87247915Y-62828911D01*
X87137857Y-62604002D01*
X87238104Y-62604002D01*
X87296724Y-62898707D01*
X87550897Y-63279103D01*
X87931293Y-63533276D01*
X88266739Y-63600000D01*
X88493261Y-63600000D01*
X88828707Y-63533276D01*
X89209103Y-63279103D01*
X89463276Y-62898707D01*
X89552529Y-62450000D01*
X89747471Y-62450000D01*
X89836724Y-62898707D01*
X90090897Y-63279103D01*
X90471293Y-63533276D01*
X90806739Y-63600000D01*
X91033261Y-63600000D01*
X91368707Y-63533276D01*
X91749103Y-63279103D01*
X92003276Y-62898707D01*
X92092529Y-62450000D01*
X92287471Y-62450000D01*
X92376724Y-62898707D01*
X92630897Y-63279103D01*
X93011293Y-63533276D01*
X93346739Y-63600000D01*
X93573261Y-63600000D01*
X93908707Y-63533276D01*
X94289103Y-63279103D01*
X94543276Y-62898707D01*
X94632529Y-62450000D01*
X94827471Y-62450000D01*
X94916724Y-62898707D01*
X95170897Y-63279103D01*
X95551293Y-63533276D01*
X95886739Y-63600000D01*
X96113261Y-63600000D01*
X96448707Y-63533276D01*
X96829103Y-63279103D01*
X97083276Y-62898707D01*
X97172529Y-62450000D01*
X97367471Y-62450000D01*
X97456724Y-62898707D01*
X97710897Y-63279103D01*
X98091293Y-63533276D01*
X98426739Y-63600000D01*
X98653261Y-63600000D01*
X98988707Y-63533276D01*
X99369103Y-63279103D01*
X99623276Y-62898707D01*
X99712529Y-62450000D01*
X99907471Y-62450000D01*
X99996724Y-62898707D01*
X100250897Y-63279103D01*
X100631293Y-63533276D01*
X100966739Y-63600000D01*
X101193261Y-63600000D01*
X101528707Y-63533276D01*
X101909103Y-63279103D01*
X102096425Y-62998755D01*
X106738000Y-62998755D01*
X106738000Y-63421245D01*
X106899680Y-63811575D01*
X107198425Y-64110320D01*
X107588755Y-64272000D01*
X108011245Y-64272000D01*
X108401575Y-64110320D01*
X108700320Y-63811575D01*
X108862000Y-63421245D01*
X108862000Y-62998755D01*
X132408000Y-62998755D01*
X132408000Y-63421245D01*
X132569680Y-63811575D01*
X132868425Y-64110320D01*
X133258755Y-64272000D01*
X133681245Y-64272000D01*
X134071575Y-64110320D01*
X134370320Y-63811575D01*
X134532000Y-63421245D01*
X134532000Y-62998755D01*
X134370320Y-62608425D01*
X134071575Y-62309680D01*
X133681245Y-62148000D01*
X133258755Y-62148000D01*
X132868425Y-62309680D01*
X132569680Y-62608425D01*
X132408000Y-62998755D01*
X108862000Y-62998755D01*
X108700320Y-62608425D01*
X108401575Y-62309680D01*
X108011245Y-62148000D01*
X107588755Y-62148000D01*
X107198425Y-62309680D01*
X106899680Y-62608425D01*
X106738000Y-62998755D01*
X102096425Y-62998755D01*
X102163276Y-62898707D01*
X102252529Y-62450000D01*
X102163276Y-62001293D01*
X101909103Y-61620897D01*
X101528707Y-61366724D01*
X101193261Y-61300000D01*
X100966739Y-61300000D01*
X100631293Y-61366724D01*
X100250897Y-61620897D01*
X99996724Y-62001293D01*
X99907471Y-62450000D01*
X99712529Y-62450000D01*
X99623276Y-62001293D01*
X99369103Y-61620897D01*
X98988707Y-61366724D01*
X98653261Y-61300000D01*
X98426739Y-61300000D01*
X98091293Y-61366724D01*
X97710897Y-61620897D01*
X97456724Y-62001293D01*
X97367471Y-62450000D01*
X97172529Y-62450000D01*
X97083276Y-62001293D01*
X96829103Y-61620897D01*
X96448707Y-61366724D01*
X96113261Y-61300000D01*
X95886739Y-61300000D01*
X95551293Y-61366724D01*
X95170897Y-61620897D01*
X94916724Y-62001293D01*
X94827471Y-62450000D01*
X94632529Y-62450000D01*
X94543276Y-62001293D01*
X94289103Y-61620897D01*
X93908707Y-61366724D01*
X93573261Y-61300000D01*
X93346739Y-61300000D01*
X93011293Y-61366724D01*
X92630897Y-61620897D01*
X92376724Y-62001293D01*
X92287471Y-62450000D01*
X92092529Y-62450000D01*
X92003276Y-62001293D01*
X91749103Y-61620897D01*
X91368707Y-61366724D01*
X91033261Y-61300000D01*
X90806739Y-61300000D01*
X90471293Y-61366724D01*
X90090897Y-61620897D01*
X89836724Y-62001293D01*
X89747471Y-62450000D01*
X89552529Y-62450000D01*
X89463276Y-62001293D01*
X89209103Y-61620897D01*
X88828707Y-61366724D01*
X88493261Y-61300000D01*
X88266739Y-61300000D01*
X87931293Y-61366724D01*
X87550897Y-61620897D01*
X87296724Y-62001293D01*
X87238104Y-62295998D01*
X87137857Y-62295998D01*
X87247915Y-62071089D01*
X86995741Y-61561146D01*
X86567616Y-61186523D01*
X86218910Y-61042097D01*
X85994000Y-61153111D01*
X85686000Y-61153111D01*
X85461090Y-61042097D01*
X85112384Y-61186523D01*
X84684259Y-61561146D01*
X84455877Y-62022977D01*
X84455877Y-61600000D01*
X84432593Y-61482946D01*
X84366288Y-61383712D01*
X84267054Y-61317407D01*
X84150000Y-61294123D01*
X82450000Y-61294123D01*
X82332946Y-61317407D01*
X82233712Y-61383712D01*
X82167407Y-61482946D01*
X82144123Y-61600000D01*
X68375000Y-61600000D01*
X68375000Y-55622067D01*
X70100000Y-55622067D01*
X70100000Y-56377933D01*
X70389258Y-57076263D01*
X70923737Y-57610742D01*
X71622067Y-57900000D01*
X72377933Y-57900000D01*
X73076263Y-57610742D01*
X73610742Y-57076263D01*
X73900000Y-56377933D01*
X73900000Y-55622067D01*
X139100000Y-55622067D01*
X139100000Y-56377933D01*
X139389258Y-57076263D01*
X139923737Y-57610742D01*
X140622067Y-57900000D01*
X141377933Y-57900000D01*
X142076263Y-57610742D01*
X142610742Y-57076263D01*
X142900000Y-56377933D01*
X142900000Y-55622067D01*
X142610742Y-54923737D01*
X142076263Y-54389258D01*
X141377933Y-54100000D01*
X140622067Y-54100000D01*
X139923737Y-54389258D01*
X139389258Y-54923737D01*
X139100000Y-55622067D01*
X73900000Y-55622067D01*
X73610742Y-54923737D01*
X73076263Y-54389258D01*
X72875261Y-54306000D01*
X76542000Y-54306000D01*
X76542000Y-54970939D01*
X76634563Y-55194405D01*
X76805596Y-55365438D01*
X77029062Y-55458000D01*
X77694000Y-55458000D01*
X77846000Y-55306000D01*
X77846000Y-54154000D01*
X76694000Y-54154000D01*
X76542000Y-54306000D01*
X72875261Y-54306000D01*
X72377933Y-54100000D01*
X71622067Y-54100000D01*
X70923737Y-54389258D01*
X70389258Y-54923737D01*
X70100000Y-55622067D01*
X68375000Y-55622067D01*
X68375000Y-53029061D01*
X76542000Y-53029061D01*
X76542000Y-53694000D01*
X76694000Y-53846000D01*
X77846000Y-53846000D01*
X77846000Y-52694000D01*
X78154000Y-52694000D01*
X78154000Y-53846000D01*
X78174000Y-53846000D01*
X78174000Y-54154000D01*
X78154000Y-54154000D01*
X78154000Y-55306000D01*
X78306000Y-55458000D01*
X78970938Y-55458000D01*
X79194404Y-55365438D01*
X79365437Y-55194405D01*
X79458000Y-54970939D01*
X79458000Y-54450617D01*
X79710897Y-54829103D01*
X80091293Y-55083276D01*
X80426739Y-55150000D01*
X80653261Y-55150000D01*
X80988707Y-55083276D01*
X81369103Y-54829103D01*
X81623276Y-54448707D01*
X81712529Y-54000000D01*
X81907471Y-54000000D01*
X81996724Y-54448707D01*
X82250897Y-54829103D01*
X82631293Y-55083276D01*
X82966739Y-55150000D01*
X83193261Y-55150000D01*
X83528707Y-55083276D01*
X83909103Y-54829103D01*
X84163276Y-54448707D01*
X84191662Y-54306000D01*
X85542000Y-54306000D01*
X85542000Y-54970939D01*
X85634563Y-55194405D01*
X85805596Y-55365438D01*
X86029062Y-55458000D01*
X86694000Y-55458000D01*
X86846000Y-55306000D01*
X86846000Y-54154000D01*
X85694000Y-54154000D01*
X85542000Y-54306000D01*
X84191662Y-54306000D01*
X84252529Y-54000000D01*
X84163276Y-53551293D01*
X83909103Y-53170897D01*
X83696831Y-53029061D01*
X85542000Y-53029061D01*
X85542000Y-53694000D01*
X85694000Y-53846000D01*
X86846000Y-53846000D01*
X86846000Y-52694000D01*
X87154000Y-52694000D01*
X87154000Y-53846000D01*
X87174000Y-53846000D01*
X87174000Y-54154000D01*
X87154000Y-54154000D01*
X87154000Y-55306000D01*
X87306000Y-55458000D01*
X87970938Y-55458000D01*
X88194404Y-55365438D01*
X88365437Y-55194405D01*
X88458000Y-54970939D01*
X88458000Y-54450617D01*
X88710897Y-54829103D01*
X89091293Y-55083276D01*
X89426739Y-55150000D01*
X89653261Y-55150000D01*
X89988707Y-55083276D01*
X90369103Y-54829103D01*
X90623276Y-54448707D01*
X90712529Y-54000000D01*
X90907471Y-54000000D01*
X90996724Y-54448707D01*
X91250897Y-54829103D01*
X91631293Y-55083276D01*
X91966739Y-55150000D01*
X92193261Y-55150000D01*
X92528707Y-55083276D01*
X92909103Y-54829103D01*
X93163276Y-54448707D01*
X93191662Y-54306000D01*
X94542000Y-54306000D01*
X94542000Y-54970939D01*
X94634563Y-55194405D01*
X94805596Y-55365438D01*
X95029062Y-55458000D01*
X95694000Y-55458000D01*
X95846000Y-55306000D01*
X95846000Y-54154000D01*
X94694000Y-54154000D01*
X94542000Y-54306000D01*
X93191662Y-54306000D01*
X93252529Y-54000000D01*
X93163276Y-53551293D01*
X92909103Y-53170897D01*
X92696831Y-53029061D01*
X94542000Y-53029061D01*
X94542000Y-53694000D01*
X94694000Y-53846000D01*
X95846000Y-53846000D01*
X95846000Y-52694000D01*
X96154000Y-52694000D01*
X96154000Y-53846000D01*
X96174000Y-53846000D01*
X96174000Y-54154000D01*
X96154000Y-54154000D01*
X96154000Y-55306000D01*
X96306000Y-55458000D01*
X96970938Y-55458000D01*
X97194404Y-55365438D01*
X97365437Y-55194405D01*
X97458000Y-54970939D01*
X97458000Y-54450617D01*
X97710897Y-54829103D01*
X98091293Y-55083276D01*
X98426739Y-55150000D01*
X98653261Y-55150000D01*
X98988707Y-55083276D01*
X99369103Y-54829103D01*
X99623276Y-54448707D01*
X99712529Y-54000000D01*
X99907471Y-54000000D01*
X99996724Y-54448707D01*
X100250897Y-54829103D01*
X100631293Y-55083276D01*
X100966739Y-55150000D01*
X101193261Y-55150000D01*
X101528707Y-55083276D01*
X101909103Y-54829103D01*
X102163276Y-54448707D01*
X102252529Y-54000000D01*
X102163276Y-53551293D01*
X101909103Y-53170897D01*
X101528707Y-52916724D01*
X101193261Y-52850000D01*
X100966739Y-52850000D01*
X100631293Y-52916724D01*
X100250897Y-53170897D01*
X99996724Y-53551293D01*
X99907471Y-54000000D01*
X99712529Y-54000000D01*
X99623276Y-53551293D01*
X99369103Y-53170897D01*
X98988707Y-52916724D01*
X98653261Y-52850000D01*
X98426739Y-52850000D01*
X98091293Y-52916724D01*
X97710897Y-53170897D01*
X97458000Y-53549383D01*
X97458000Y-53029061D01*
X97365437Y-52805595D01*
X97194404Y-52634562D01*
X96970938Y-52542000D01*
X96306000Y-52542000D01*
X96154000Y-52694000D01*
X95846000Y-52694000D01*
X95694000Y-52542000D01*
X95029062Y-52542000D01*
X94805596Y-52634562D01*
X94634563Y-52805595D01*
X94542000Y-53029061D01*
X92696831Y-53029061D01*
X92528707Y-52916724D01*
X92193261Y-52850000D01*
X91966739Y-52850000D01*
X91631293Y-52916724D01*
X91250897Y-53170897D01*
X90996724Y-53551293D01*
X90907471Y-54000000D01*
X90712529Y-54000000D01*
X90623276Y-53551293D01*
X90369103Y-53170897D01*
X89988707Y-52916724D01*
X89653261Y-52850000D01*
X89426739Y-52850000D01*
X89091293Y-52916724D01*
X88710897Y-53170897D01*
X88458000Y-53549383D01*
X88458000Y-53029061D01*
X88365437Y-52805595D01*
X88194404Y-52634562D01*
X87970938Y-52542000D01*
X87306000Y-52542000D01*
X87154000Y-52694000D01*
X86846000Y-52694000D01*
X86694000Y-52542000D01*
X86029062Y-52542000D01*
X85805596Y-52634562D01*
X85634563Y-52805595D01*
X85542000Y-53029061D01*
X83696831Y-53029061D01*
X83528707Y-52916724D01*
X83193261Y-52850000D01*
X82966739Y-52850000D01*
X82631293Y-52916724D01*
X82250897Y-53170897D01*
X81996724Y-53551293D01*
X81907471Y-54000000D01*
X81712529Y-54000000D01*
X81623276Y-53551293D01*
X81369103Y-53170897D01*
X80988707Y-52916724D01*
X80653261Y-52850000D01*
X80426739Y-52850000D01*
X80091293Y-52916724D01*
X79710897Y-53170897D01*
X79458000Y-53549383D01*
X79458000Y-53029061D01*
X79365437Y-52805595D01*
X79194404Y-52634562D01*
X78970938Y-52542000D01*
X78306000Y-52542000D01*
X78154000Y-52694000D01*
X77846000Y-52694000D01*
X77694000Y-52542000D01*
X77029062Y-52542000D01*
X76805596Y-52634562D01*
X76634563Y-52805595D01*
X76542000Y-53029061D01*
X68375000Y-53029061D01*
X68375000Y-52375000D01*
X144625000Y-52375000D01*
X144625001Y-144625000D01*
X144625001Y-144625000D01*
G37*
X144625001Y-144625000D02*
X68375000Y-144625000D01*
X68375000Y-140622067D01*
X70100000Y-140622067D01*
X70100000Y-141377933D01*
X70389258Y-142076263D01*
X70923737Y-142610742D01*
X71622067Y-142900000D01*
X72377933Y-142900000D01*
X73076263Y-142610742D01*
X73610742Y-142076263D01*
X73900000Y-141377933D01*
X73900000Y-140906588D01*
X106700000Y-140906588D01*
X106700000Y-141913413D01*
X106760923Y-142219689D01*
X106992994Y-142567007D01*
X107340312Y-142799078D01*
X107750000Y-142880570D01*
X108159689Y-142799078D01*
X108507007Y-142567007D01*
X108739078Y-142219689D01*
X108800000Y-141913412D01*
X108800000Y-140906588D01*
X121200000Y-140906588D01*
X121200000Y-141913413D01*
X121260923Y-142219689D01*
X121492994Y-142567007D01*
X121840312Y-142799078D01*
X122250000Y-142880570D01*
X122659689Y-142799078D01*
X123007007Y-142567007D01*
X123239078Y-142219689D01*
X123300000Y-141913412D01*
X123300000Y-140906587D01*
X123243406Y-140622067D01*
X139100000Y-140622067D01*
X139100000Y-141377933D01*
X139389258Y-142076263D01*
X139923737Y-142610742D01*
X140622067Y-142900000D01*
X141377933Y-142900000D01*
X142076263Y-142610742D01*
X142610742Y-142076263D01*
X142900000Y-141377933D01*
X142900000Y-140622067D01*
X142610742Y-139923737D01*
X142076263Y-139389258D01*
X141377933Y-139100000D01*
X140622067Y-139100000D01*
X139923737Y-139389258D01*
X139389258Y-139923737D01*
X139100000Y-140622067D01*
X123243406Y-140622067D01*
X123239078Y-140600311D01*
X123007007Y-140252993D01*
X122659688Y-140020922D01*
X122250000Y-139939430D01*
X121840311Y-140020922D01*
X121492993Y-140252993D01*
X121260922Y-140600312D01*
X121200000Y-140906588D01*
X108800000Y-140906588D01*
X108800000Y-140906587D01*
X108739078Y-140600311D01*
X108507007Y-140252993D01*
X108159688Y-140020922D01*
X107750000Y-139939430D01*
X107340311Y-140020922D01*
X106992993Y-140252993D01*
X106760922Y-140600312D01*
X106700000Y-140906588D01*
X73900000Y-140906588D01*
X73900000Y-140622067D01*
X73610742Y-139923737D01*
X73076263Y-139389258D01*
X72477916Y-139141414D01*
X77400000Y-139141414D01*
X77400000Y-139658586D01*
X77597913Y-140136391D01*
X77963609Y-140502087D01*
X78441414Y-140700000D01*
X78958586Y-140700000D01*
X79436391Y-140502087D01*
X79802087Y-140136391D01*
X80000000Y-139658586D01*
X80000000Y-139141414D01*
X81360000Y-139141414D01*
X81360000Y-139658586D01*
X81557913Y-140136391D01*
X81923609Y-140502087D01*
X82401414Y-140700000D01*
X82918586Y-140700000D01*
X83396391Y-140502087D01*
X83762087Y-140136391D01*
X83960000Y-139658586D01*
X83960000Y-139241414D01*
X85320000Y-139241414D01*
X85320000Y-139758586D01*
X85517913Y-140236391D01*
X85883609Y-140602087D01*
X86361414Y-140800000D01*
X86878586Y-140800000D01*
X87356391Y-140602087D01*
X87722087Y-140236391D01*
X87920000Y-139758586D01*
X87920000Y-139241414D01*
X89280000Y-139241414D01*
X89280000Y-139758586D01*
X89477913Y-140236391D01*
X89843609Y-140602087D01*
X90321414Y-140800000D01*
X90838586Y-140800000D01*
X91316391Y-140602087D01*
X91682087Y-140236391D01*
X91880000Y-139758586D01*
X91880000Y-139241414D01*
X93240000Y-139241414D01*
X93240000Y-139758586D01*
X93437913Y-140236391D01*
X93803609Y-140602087D01*
X94281414Y-140800000D01*
X94798586Y-140800000D01*
X95276391Y-140602087D01*
X95642087Y-140236391D01*
X95840000Y-139758586D01*
X95840000Y-139241414D01*
X97200000Y-139241414D01*
X97200000Y-139758586D01*
X97397913Y-140236391D01*
X97763609Y-140602087D01*
X98241414Y-140800000D01*
X98758586Y-140800000D01*
X99236391Y-140602087D01*
X99602087Y-140236391D01*
X99800000Y-139758586D01*
X99800000Y-139241414D01*
X99602087Y-138763609D01*
X99236391Y-138397913D01*
X98758586Y-138200000D01*
X98241414Y-138200000D01*
X97763609Y-138397913D01*
X97397913Y-138763609D01*
X97200000Y-139241414D01*
X95840000Y-139241414D01*
X95642087Y-138763609D01*
X95276391Y-138397913D01*
X94798586Y-138200000D01*
X94281414Y-138200000D01*
X93803609Y-138397913D01*
X93437913Y-138763609D01*
X93240000Y-139241414D01*
X91880000Y-139241414D01*
X91682087Y-138763609D01*
X91316391Y-138397913D01*
X90838586Y-138200000D01*
X90321414Y-138200000D01*
X89843609Y-138397913D01*
X89477913Y-138763609D01*
X89280000Y-139241414D01*
X87920000Y-139241414D01*
X87722087Y-138763609D01*
X87356391Y-138397913D01*
X86878586Y-138200000D01*
X86361414Y-138200000D01*
X85883609Y-138397913D01*
X85517913Y-138763609D01*
X85320000Y-139241414D01*
X83960000Y-139241414D01*
X83960000Y-139141414D01*
X83762087Y-138663609D01*
X83396391Y-138297913D01*
X82918586Y-138100000D01*
X82401414Y-138100000D01*
X81923609Y-138297913D01*
X81557913Y-138663609D01*
X81360000Y-139141414D01*
X80000000Y-139141414D01*
X79802087Y-138663609D01*
X79436391Y-138297913D01*
X78958586Y-138100000D01*
X78441414Y-138100000D01*
X77963609Y-138297913D01*
X77597913Y-138663609D01*
X77400000Y-139141414D01*
X72477916Y-139141414D01*
X72377933Y-139100000D01*
X71622067Y-139100000D01*
X70923737Y-139389258D01*
X70389258Y-139923737D01*
X70100000Y-140622067D01*
X68375000Y-140622067D01*
X68375000Y-134446588D01*
X106700000Y-134446588D01*
X106700001Y-136453413D01*
X106760923Y-136759689D01*
X106992994Y-137107007D01*
X107340312Y-137339078D01*
X107750000Y-137420570D01*
X107950676Y-137380653D01*
X109900000Y-137380653D01*
X109900000Y-137619347D01*
X109991344Y-137839873D01*
X110160127Y-138008656D01*
X110380653Y-138100000D01*
X110619347Y-138100000D01*
X110839873Y-138008656D01*
X111008656Y-137839873D01*
X111100000Y-137619347D01*
X111100000Y-137380653D01*
X111400000Y-137380653D01*
X111400000Y-137619347D01*
X111491344Y-137839873D01*
X111660127Y-138008656D01*
X111880653Y-138100000D01*
X112119347Y-138100000D01*
X112339873Y-138008656D01*
X112508656Y-137839873D01*
X112600000Y-137619347D01*
X112600000Y-137380653D01*
X112900000Y-137380653D01*
X112900000Y-137619347D01*
X112991344Y-137839873D01*
X113160127Y-138008656D01*
X113380653Y-138100000D01*
X113619347Y-138100000D01*
X113839873Y-138008656D01*
X114008656Y-137839873D01*
X114100000Y-137619347D01*
X114100000Y-137380653D01*
X115900000Y-137380653D01*
X115900000Y-137619347D01*
X115991344Y-137839873D01*
X116160127Y-138008656D01*
X116380653Y-138100000D01*
X116619347Y-138100000D01*
X116839873Y-138008656D01*
X117008656Y-137839873D01*
X117100000Y-137619347D01*
X117100000Y-137380653D01*
X117008656Y-137160127D01*
X116839873Y-136991344D01*
X116619347Y-136900000D01*
X116380653Y-136900000D01*
X116160127Y-136991344D01*
X115991344Y-137160127D01*
X115900000Y-137380653D01*
X114100000Y-137380653D01*
X114008656Y-137160127D01*
X113839873Y-136991344D01*
X113619347Y-136900000D01*
X113380653Y-136900000D01*
X113160127Y-136991344D01*
X112991344Y-137160127D01*
X112900000Y-137380653D01*
X112600000Y-137380653D01*
X112508656Y-137160127D01*
X112339873Y-136991344D01*
X112119347Y-136900000D01*
X111880653Y-136900000D01*
X111660127Y-136991344D01*
X111491344Y-137160127D01*
X111400000Y-137380653D01*
X111100000Y-137380653D01*
X111008656Y-137160127D01*
X110839873Y-136991344D01*
X110619347Y-136900000D01*
X110380653Y-136900000D01*
X110160127Y-136991344D01*
X109991344Y-137160127D01*
X109900000Y-137380653D01*
X107950676Y-137380653D01*
X108159689Y-137339078D01*
X108507007Y-137107007D01*
X108739078Y-136759689D01*
X108800000Y-136453413D01*
X108800000Y-134446588D01*
X121200000Y-134446588D01*
X121200001Y-136453413D01*
X121260923Y-136759689D01*
X121492994Y-137107007D01*
X121840312Y-137339078D01*
X122250000Y-137420570D01*
X122659689Y-137339078D01*
X123007007Y-137107007D01*
X123239078Y-136759689D01*
X123300000Y-136453413D01*
X123300000Y-134446587D01*
X123239078Y-134140311D01*
X123007007Y-133792993D01*
X122659688Y-133560922D01*
X122250000Y-133479430D01*
X121840311Y-133560922D01*
X121492993Y-133792993D01*
X121260922Y-134140312D01*
X121200000Y-134446588D01*
X108800000Y-134446588D01*
X108800000Y-134446587D01*
X108739078Y-134140311D01*
X108507007Y-133792993D01*
X108159688Y-133560922D01*
X107750000Y-133479430D01*
X107340311Y-133560922D01*
X106992993Y-133792993D01*
X106760922Y-134140312D01*
X106700000Y-134446588D01*
X68375000Y-134446588D01*
X68375000Y-132296224D01*
X77575000Y-132296224D01*
X77575000Y-132743776D01*
X77746271Y-133157261D01*
X78062739Y-133473729D01*
X78476224Y-133645000D01*
X78923776Y-133645000D01*
X79337261Y-133473729D01*
X79653729Y-133157261D01*
X79825000Y-132743776D01*
X79825000Y-132296224D01*
X85495000Y-132296224D01*
X85495000Y-132743776D01*
X85666271Y-133157261D01*
X85982739Y-133473729D01*
X86396224Y-133645000D01*
X86843776Y-133645000D01*
X87257261Y-133473729D01*
X87573729Y-133157261D01*
X87745000Y-132743776D01*
X87745000Y-132296224D01*
X93415000Y-132296224D01*
X93415000Y-132743776D01*
X93586271Y-133157261D01*
X93902739Y-133473729D01*
X94316224Y-133645000D01*
X94763776Y-133645000D01*
X95177261Y-133473729D01*
X95493729Y-133157261D01*
X95665000Y-132743776D01*
X95665000Y-132296224D01*
X95493729Y-131882739D01*
X95177261Y-131566271D01*
X94763776Y-131395000D01*
X94316224Y-131395000D01*
X93902739Y-131566271D01*
X93586271Y-131882739D01*
X93415000Y-132296224D01*
X87745000Y-132296224D01*
X87573729Y-131882739D01*
X87257261Y-131566271D01*
X86843776Y-131395000D01*
X86396224Y-131395000D01*
X85982739Y-131566271D01*
X85666271Y-131882739D01*
X85495000Y-132296224D01*
X79825000Y-132296224D01*
X79653729Y-131882739D01*
X79337261Y-131566271D01*
X78923776Y-131395000D01*
X78476224Y-131395000D01*
X78062739Y-131566271D01*
X77746271Y-131882739D01*
X77575000Y-132296224D01*
X68375000Y-132296224D01*
X68375000Y-126180653D01*
X85400000Y-126180653D01*
X85400000Y-126419347D01*
X85491344Y-126639873D01*
X85660127Y-126808656D01*
X85880653Y-126900000D01*
X86119347Y-126900000D01*
X86339873Y-126808656D01*
X86423529Y-126725000D01*
X104076473Y-126725000D01*
X104160129Y-126808656D01*
X104380655Y-126900000D01*
X104619349Y-126900000D01*
X104839875Y-126808656D01*
X105008658Y-126639873D01*
X105100002Y-126419347D01*
X105100002Y-126180653D01*
X105008658Y-125960127D01*
X104839875Y-125791344D01*
X104619349Y-125700000D01*
X104380655Y-125700000D01*
X104160129Y-125791344D01*
X104076473Y-125875000D01*
X86423529Y-125875000D01*
X86339873Y-125791344D01*
X86119347Y-125700000D01*
X85880653Y-125700000D01*
X85660127Y-125791344D01*
X85491344Y-125960127D01*
X85400000Y-126180653D01*
X68375000Y-126180653D01*
X68375000Y-124280653D01*
X88000000Y-124280653D01*
X88000000Y-124519347D01*
X88091344Y-124739873D01*
X88260127Y-124908656D01*
X88480653Y-125000000D01*
X88719347Y-125000000D01*
X88939873Y-124908656D01*
X89023529Y-124825000D01*
X104076471Y-124825000D01*
X104160127Y-124908656D01*
X104380653Y-125000000D01*
X104619347Y-125000000D01*
X104839873Y-124908656D01*
X105008656Y-124739873D01*
X105100000Y-124519347D01*
X105100000Y-124280653D01*
X105008656Y-124060127D01*
X104839873Y-123891344D01*
X104619347Y-123800000D01*
X104380653Y-123800000D01*
X104160127Y-123891344D01*
X104076471Y-123975000D01*
X89023529Y-123975000D01*
X88939873Y-123891344D01*
X88719347Y-123800000D01*
X88480653Y-123800000D01*
X88260127Y-123891344D01*
X88091344Y-124060127D01*
X88000000Y-124280653D01*
X68375000Y-124280653D01*
X68375000Y-119580653D01*
X108200000Y-119580653D01*
X108200000Y-119819347D01*
X108291344Y-120039873D01*
X108460127Y-120208656D01*
X108680653Y-120300000D01*
X108919347Y-120300000D01*
X109139873Y-120208656D01*
X109308656Y-120039873D01*
X109400000Y-119819347D01*
X109400000Y-119580653D01*
X109308656Y-119360127D01*
X109139873Y-119191344D01*
X108919347Y-119100000D01*
X108680653Y-119100000D01*
X108460127Y-119191344D01*
X108291344Y-119360127D01*
X108200000Y-119580653D01*
X68375000Y-119580653D01*
X68375000Y-117880653D01*
X76300000Y-117880653D01*
X76300000Y-118119347D01*
X76391344Y-118339873D01*
X76560127Y-118508656D01*
X76780653Y-118600000D01*
X77019347Y-118600000D01*
X77239873Y-118508656D01*
X77408656Y-118339873D01*
X77500000Y-118119347D01*
X77500000Y-117880653D01*
X77408656Y-117660127D01*
X77239873Y-117491344D01*
X77019347Y-117400000D01*
X76780653Y-117400000D01*
X76560127Y-117491344D01*
X76391344Y-117660127D01*
X76300000Y-117880653D01*
X68375000Y-117880653D01*
X68375000Y-117056224D01*
X77575000Y-117056224D01*
X77575000Y-117503776D01*
X77746271Y-117917261D01*
X78062739Y-118233729D01*
X78476224Y-118405000D01*
X78923776Y-118405000D01*
X79337261Y-118233729D01*
X79653729Y-117917261D01*
X79668892Y-117880653D01*
X84250000Y-117880653D01*
X84250000Y-118119347D01*
X84341344Y-118339873D01*
X84510127Y-118508656D01*
X84730653Y-118600000D01*
X84969347Y-118600000D01*
X85189873Y-118508656D01*
X85358656Y-118339873D01*
X85450000Y-118119347D01*
X85450000Y-117880653D01*
X85358656Y-117660127D01*
X85189873Y-117491344D01*
X84969347Y-117400000D01*
X84730653Y-117400000D01*
X84510127Y-117491344D01*
X84341344Y-117660127D01*
X84250000Y-117880653D01*
X79668892Y-117880653D01*
X79825000Y-117503776D01*
X79825000Y-117056224D01*
X85495000Y-117056224D01*
X85495000Y-117503776D01*
X85666271Y-117917261D01*
X85982739Y-118233729D01*
X86396224Y-118405000D01*
X86843776Y-118405000D01*
X87257261Y-118233729D01*
X87573729Y-117917261D01*
X87588892Y-117880653D01*
X92150000Y-117880653D01*
X92150000Y-118119347D01*
X92241344Y-118339873D01*
X92410127Y-118508656D01*
X92630653Y-118600000D01*
X92869347Y-118600000D01*
X93089873Y-118508656D01*
X93258656Y-118339873D01*
X93350000Y-118119347D01*
X93350000Y-117880653D01*
X93258656Y-117660127D01*
X93089873Y-117491344D01*
X92869347Y-117400000D01*
X92630653Y-117400000D01*
X92410127Y-117491344D01*
X92241344Y-117660127D01*
X92150000Y-117880653D01*
X87588892Y-117880653D01*
X87745000Y-117503776D01*
X87745000Y-117056224D01*
X93415000Y-117056224D01*
X93415000Y-117503776D01*
X93586271Y-117917261D01*
X93902739Y-118233729D01*
X94316224Y-118405000D01*
X94763776Y-118405000D01*
X95177261Y-118233729D01*
X95493729Y-117917261D01*
X95665000Y-117503776D01*
X95665000Y-117056224D01*
X95493729Y-116642739D01*
X95177261Y-116326271D01*
X94763776Y-116155000D01*
X94316224Y-116155000D01*
X93902739Y-116326271D01*
X93586271Y-116642739D01*
X93415000Y-117056224D01*
X87745000Y-117056224D01*
X87573729Y-116642739D01*
X87257261Y-116326271D01*
X86843776Y-116155000D01*
X86396224Y-116155000D01*
X85982739Y-116326271D01*
X85666271Y-116642739D01*
X85495000Y-117056224D01*
X79825000Y-117056224D01*
X79653729Y-116642739D01*
X79337261Y-116326271D01*
X78923776Y-116155000D01*
X78476224Y-116155000D01*
X78062739Y-116326271D01*
X77746271Y-116642739D01*
X77575000Y-117056224D01*
X68375000Y-117056224D01*
X68375000Y-111681414D01*
X73320000Y-111681414D01*
X73320000Y-112198586D01*
X73517913Y-112676391D01*
X73883609Y-113042087D01*
X74361414Y-113240000D01*
X74878586Y-113240000D01*
X75356391Y-113042087D01*
X75722087Y-112676391D01*
X75920000Y-112198586D01*
X75920000Y-111681414D01*
X85320000Y-111681414D01*
X85320000Y-112198586D01*
X85517913Y-112676391D01*
X85883609Y-113042087D01*
X86361414Y-113240000D01*
X86878586Y-113240000D01*
X87356391Y-113042087D01*
X87722087Y-112676391D01*
X87920000Y-112198586D01*
X87920000Y-111681414D01*
X97320000Y-111681414D01*
X97320000Y-112198586D01*
X97517913Y-112676391D01*
X97883609Y-113042087D01*
X98361414Y-113240000D01*
X98878586Y-113240000D01*
X99356391Y-113042087D01*
X99722087Y-112676391D01*
X99920000Y-112198586D01*
X99920000Y-111681414D01*
X99722087Y-111203609D01*
X99356391Y-110837913D01*
X98878586Y-110640000D01*
X98361414Y-110640000D01*
X97883609Y-110837913D01*
X97517913Y-111203609D01*
X97320000Y-111681414D01*
X87920000Y-111681414D01*
X87722087Y-111203609D01*
X87356391Y-110837913D01*
X86878586Y-110640000D01*
X86361414Y-110640000D01*
X85883609Y-110837913D01*
X85517913Y-111203609D01*
X85320000Y-111681414D01*
X75920000Y-111681414D01*
X75722087Y-111203609D01*
X75356391Y-110837913D01*
X74878586Y-110640000D01*
X74361414Y-110640000D01*
X73883609Y-110837913D01*
X73517913Y-111203609D01*
X73320000Y-111681414D01*
X68375000Y-111681414D01*
X68375000Y-107721414D01*
X73320000Y-107721414D01*
X73320000Y-108238586D01*
X73517913Y-108716391D01*
X73883609Y-109082087D01*
X74361414Y-109280000D01*
X74878586Y-109280000D01*
X75356391Y-109082087D01*
X75722087Y-108716391D01*
X75920000Y-108238586D01*
X75920000Y-107721414D01*
X85320000Y-107721414D01*
X85320000Y-108238586D01*
X85517913Y-108716391D01*
X85883609Y-109082087D01*
X86361414Y-109280000D01*
X86878586Y-109280000D01*
X87356391Y-109082087D01*
X87722087Y-108716391D01*
X87920000Y-108238586D01*
X87920000Y-107721414D01*
X97320000Y-107721414D01*
X97320000Y-108238586D01*
X97517913Y-108716391D01*
X97883609Y-109082087D01*
X98361414Y-109280000D01*
X98878586Y-109280000D01*
X99356391Y-109082087D01*
X99722087Y-108716391D01*
X99920000Y-108238586D01*
X99920000Y-107721414D01*
X99722087Y-107243609D01*
X99356391Y-106877913D01*
X98878586Y-106680000D01*
X98361414Y-106680000D01*
X97883609Y-106877913D01*
X97517913Y-107243609D01*
X97320000Y-107721414D01*
X87920000Y-107721414D01*
X87722087Y-107243609D01*
X87356391Y-106877913D01*
X86878586Y-106680000D01*
X86361414Y-106680000D01*
X85883609Y-106877913D01*
X85517913Y-107243609D01*
X85320000Y-107721414D01*
X75920000Y-107721414D01*
X75722087Y-107243609D01*
X75356391Y-106877913D01*
X74878586Y-106680000D01*
X74361414Y-106680000D01*
X73883609Y-106877913D01*
X73517913Y-107243609D01*
X73320000Y-107721414D01*
X68375000Y-107721414D01*
X68375000Y-105175066D01*
X73682723Y-105175066D01*
X73785174Y-105431040D01*
X74388703Y-105643105D01*
X75027445Y-105608067D01*
X75454826Y-105431040D01*
X75557277Y-105175066D01*
X85682723Y-105175066D01*
X85785174Y-105431040D01*
X86388703Y-105643105D01*
X87027445Y-105608067D01*
X87454826Y-105431040D01*
X87557277Y-105175066D01*
X97682723Y-105175066D01*
X97785174Y-105431040D01*
X98388703Y-105643105D01*
X99027445Y-105608067D01*
X99454826Y-105431040D01*
X99557277Y-105175066D01*
X98620000Y-104237789D01*
X97682723Y-105175066D01*
X87557277Y-105175066D01*
X86620000Y-104237789D01*
X85682723Y-105175066D01*
X75557277Y-105175066D01*
X74620000Y-104237789D01*
X73682723Y-105175066D01*
X68375000Y-105175066D01*
X68375000Y-103788703D01*
X72996895Y-103788703D01*
X73031933Y-104427445D01*
X73208960Y-104854826D01*
X73464934Y-104957277D01*
X74402211Y-104020000D01*
X74837789Y-104020000D01*
X75775066Y-104957277D01*
X76031040Y-104854826D01*
X76243105Y-104251297D01*
X76217730Y-103788703D01*
X84996895Y-103788703D01*
X85031933Y-104427445D01*
X85208960Y-104854826D01*
X85464934Y-104957277D01*
X86402211Y-104020000D01*
X86837789Y-104020000D01*
X87775066Y-104957277D01*
X88031040Y-104854826D01*
X88243105Y-104251297D01*
X88217730Y-103788703D01*
X96996895Y-103788703D01*
X97031933Y-104427445D01*
X97208960Y-104854826D01*
X97464934Y-104957277D01*
X98402211Y-104020000D01*
X98837789Y-104020000D01*
X99775066Y-104957277D01*
X100031040Y-104854826D01*
X100243105Y-104251297D01*
X100208067Y-103612555D01*
X100031040Y-103185174D01*
X99775066Y-103082723D01*
X98837789Y-104020000D01*
X98402211Y-104020000D01*
X97464934Y-103082723D01*
X97208960Y-103185174D01*
X96996895Y-103788703D01*
X88217730Y-103788703D01*
X88208067Y-103612555D01*
X88031040Y-103185174D01*
X87775066Y-103082723D01*
X86837789Y-104020000D01*
X86402211Y-104020000D01*
X85464934Y-103082723D01*
X85208960Y-103185174D01*
X84996895Y-103788703D01*
X76217730Y-103788703D01*
X76208067Y-103612555D01*
X76031040Y-103185174D01*
X75775066Y-103082723D01*
X74837789Y-104020000D01*
X74402211Y-104020000D01*
X73464934Y-103082723D01*
X73208960Y-103185174D01*
X72996895Y-103788703D01*
X68375000Y-103788703D01*
X68375000Y-102864934D01*
X73682723Y-102864934D01*
X74620000Y-103802211D01*
X75557277Y-102864934D01*
X85682723Y-102864934D01*
X86620000Y-103802211D01*
X87557277Y-102864934D01*
X97682723Y-102864934D01*
X98620000Y-103802211D01*
X99557277Y-102864934D01*
X99454826Y-102608960D01*
X98851297Y-102396895D01*
X98212555Y-102431933D01*
X97785174Y-102608960D01*
X97682723Y-102864934D01*
X87557277Y-102864934D01*
X87454826Y-102608960D01*
X86851297Y-102396895D01*
X86212555Y-102431933D01*
X85785174Y-102608960D01*
X85682723Y-102864934D01*
X75557277Y-102864934D01*
X75454826Y-102608960D01*
X74851297Y-102396895D01*
X74212555Y-102431933D01*
X73785174Y-102608960D01*
X73682723Y-102864934D01*
X68375000Y-102864934D01*
X68375000Y-99801414D01*
X73320000Y-99801414D01*
X73320000Y-100318586D01*
X73517913Y-100796391D01*
X73883609Y-101162087D01*
X74361414Y-101360000D01*
X74878586Y-101360000D01*
X75356391Y-101162087D01*
X75722087Y-100796391D01*
X75920000Y-100318586D01*
X75920000Y-99801414D01*
X85320000Y-99801414D01*
X85320000Y-100318586D01*
X85517913Y-100796391D01*
X85883609Y-101162087D01*
X86361414Y-101360000D01*
X86878586Y-101360000D01*
X87356391Y-101162087D01*
X87722087Y-100796391D01*
X87920000Y-100318586D01*
X87920000Y-99801414D01*
X97320000Y-99801414D01*
X97320000Y-100318586D01*
X97517913Y-100796391D01*
X97883609Y-101162087D01*
X98361414Y-101360000D01*
X98878586Y-101360000D01*
X99356391Y-101162087D01*
X99722087Y-100796391D01*
X99920000Y-100318586D01*
X99920000Y-99801414D01*
X99722087Y-99323609D01*
X99356391Y-98957913D01*
X98878586Y-98760000D01*
X98361414Y-98760000D01*
X97883609Y-98957913D01*
X97517913Y-99323609D01*
X97320000Y-99801414D01*
X87920000Y-99801414D01*
X87722087Y-99323609D01*
X87356391Y-98957913D01*
X86878586Y-98760000D01*
X86361414Y-98760000D01*
X85883609Y-98957913D01*
X85517913Y-99323609D01*
X85320000Y-99801414D01*
X75920000Y-99801414D01*
X75722087Y-99323609D01*
X75356391Y-98957913D01*
X74878586Y-98760000D01*
X74361414Y-98760000D01*
X73883609Y-98957913D01*
X73517913Y-99323609D01*
X73320000Y-99801414D01*
X68375000Y-99801414D01*
X68375000Y-98558755D01*
X106738000Y-98558755D01*
X106738000Y-98981245D01*
X106899680Y-99371575D01*
X107198425Y-99670320D01*
X107588755Y-99832000D01*
X108011245Y-99832000D01*
X108401575Y-99670320D01*
X108700320Y-99371575D01*
X108862000Y-98981245D01*
X108862000Y-98558755D01*
X108700320Y-98168425D01*
X108401575Y-97869680D01*
X108011245Y-97708000D01*
X107588755Y-97708000D01*
X107198425Y-97869680D01*
X106899680Y-98168425D01*
X106738000Y-98558755D01*
X68375000Y-98558755D01*
X68375000Y-96018755D01*
X106738000Y-96018755D01*
X106738000Y-96441245D01*
X106899680Y-96831575D01*
X107198425Y-97130320D01*
X107588755Y-97292000D01*
X108011245Y-97292000D01*
X108401575Y-97130320D01*
X108700320Y-96831575D01*
X108862000Y-96441245D01*
X108862000Y-96018755D01*
X108700320Y-95628425D01*
X108401575Y-95329680D01*
X108011245Y-95168000D01*
X107588755Y-95168000D01*
X107198425Y-95329680D01*
X106899680Y-95628425D01*
X106738000Y-96018755D01*
X68375000Y-96018755D01*
X68375000Y-93478755D01*
X106738000Y-93478755D01*
X106738000Y-93901245D01*
X106899680Y-94291575D01*
X107198425Y-94590320D01*
X107588755Y-94752000D01*
X108011245Y-94752000D01*
X108401575Y-94590320D01*
X108700320Y-94291575D01*
X108862000Y-93901245D01*
X108862000Y-93478755D01*
X108700320Y-93088425D01*
X108401575Y-92789680D01*
X108011245Y-92628000D01*
X107588755Y-92628000D01*
X107198425Y-92789680D01*
X106899680Y-93088425D01*
X106738000Y-93478755D01*
X68375000Y-93478755D01*
X68375000Y-90880653D01*
X86150000Y-90880653D01*
X86150000Y-91119347D01*
X86241344Y-91339873D01*
X86410127Y-91508656D01*
X86630653Y-91600000D01*
X86869347Y-91600000D01*
X87089873Y-91508656D01*
X87258656Y-91339873D01*
X87345316Y-91130653D01*
X100150000Y-91130653D01*
X100150000Y-91369347D01*
X100241344Y-91589873D01*
X100410127Y-91758656D01*
X100630653Y-91850000D01*
X100869347Y-91850000D01*
X101089873Y-91758656D01*
X101258656Y-91589873D01*
X101350000Y-91369347D01*
X101350000Y-91130653D01*
X101270514Y-90938755D01*
X106738000Y-90938755D01*
X106738000Y-91361245D01*
X106899680Y-91751575D01*
X107198425Y-92050320D01*
X107588755Y-92212000D01*
X108011245Y-92212000D01*
X108401575Y-92050320D01*
X108700320Y-91751575D01*
X108862000Y-91361245D01*
X108862000Y-90938755D01*
X108700320Y-90548425D01*
X108401575Y-90249680D01*
X108011245Y-90088000D01*
X107588755Y-90088000D01*
X107198425Y-90249680D01*
X106899680Y-90548425D01*
X106738000Y-90938755D01*
X101270514Y-90938755D01*
X101258656Y-90910127D01*
X101089873Y-90741344D01*
X100869347Y-90650000D01*
X100630653Y-90650000D01*
X100410127Y-90741344D01*
X100241344Y-90910127D01*
X100150000Y-91130653D01*
X87345316Y-91130653D01*
X87350000Y-91119347D01*
X87350000Y-90880653D01*
X87258656Y-90660127D01*
X87089873Y-90491344D01*
X86869347Y-90400000D01*
X86630653Y-90400000D01*
X86410127Y-90491344D01*
X86241344Y-90660127D01*
X86150000Y-90880653D01*
X68375000Y-90880653D01*
X68375000Y-88880653D01*
X69400000Y-88880653D01*
X69400000Y-89119347D01*
X69491344Y-89339873D01*
X69660127Y-89508656D01*
X69880653Y-89600000D01*
X70119347Y-89600000D01*
X70339873Y-89508656D01*
X70508656Y-89339873D01*
X70600000Y-89119347D01*
X70600000Y-88880653D01*
X70508656Y-88660127D01*
X70339873Y-88491344D01*
X70119347Y-88400000D01*
X69880653Y-88400000D01*
X69660127Y-88491344D01*
X69491344Y-88660127D01*
X69400000Y-88880653D01*
X68375000Y-88880653D01*
X68375000Y-88398755D01*
X106738000Y-88398755D01*
X106738000Y-88821245D01*
X106899680Y-89211575D01*
X107198425Y-89510320D01*
X107588755Y-89672000D01*
X108011245Y-89672000D01*
X108187820Y-89598860D01*
X120125001Y-101536042D01*
X120125000Y-118725000D01*
X113708461Y-118725000D01*
X113700340Y-118684175D01*
X113606406Y-118543594D01*
X113465825Y-118449660D01*
X113299999Y-118416675D01*
X113134172Y-118449660D01*
X113029076Y-118519883D01*
X112998959Y-118550000D01*
X112880653Y-118550000D01*
X112780006Y-118591689D01*
X112783325Y-118575001D01*
X112777968Y-118548070D01*
X113251039Y-118075000D01*
X113526471Y-118075000D01*
X113610127Y-118158656D01*
X113830653Y-118250000D01*
X114069347Y-118250000D01*
X114289873Y-118158656D01*
X114458656Y-117989873D01*
X114550000Y-117769347D01*
X114550000Y-117530653D01*
X114458656Y-117310127D01*
X114289873Y-117141344D01*
X114069347Y-117050000D01*
X113830653Y-117050000D01*
X113610127Y-117141344D01*
X113526471Y-117225000D01*
X113116853Y-117225000D01*
X113074997Y-117216674D01*
X113033141Y-117225000D01*
X113033140Y-117225000D01*
X112909171Y-117249659D01*
X112768590Y-117343592D01*
X112744879Y-117379078D01*
X112079080Y-118044878D01*
X112043591Y-118068591D01*
X111983412Y-118158656D01*
X111949658Y-118209173D01*
X111916673Y-118374999D01*
X111922030Y-118401930D01*
X107879081Y-122444879D01*
X107843592Y-122468592D01*
X107749660Y-122609173D01*
X107749659Y-122609174D01*
X107716674Y-122775000D01*
X107725000Y-122816858D01*
X107725001Y-128333874D01*
X107725000Y-128333879D01*
X107725000Y-128376471D01*
X107641344Y-128460127D01*
X107550000Y-128680653D01*
X107550000Y-128919347D01*
X107641344Y-129139873D01*
X107810127Y-129308656D01*
X108030653Y-129400000D01*
X108269347Y-129400000D01*
X108489873Y-129308656D01*
X108658656Y-129139873D01*
X108750000Y-128919347D01*
X108750000Y-128680653D01*
X108658656Y-128460127D01*
X108575000Y-128376471D01*
X108575000Y-126355653D01*
X108925000Y-126355653D01*
X108925000Y-126594347D01*
X109016344Y-126814873D01*
X109185127Y-126983656D01*
X109405653Y-127075000D01*
X109644347Y-127075000D01*
X109864873Y-126983656D01*
X110033656Y-126814873D01*
X110125000Y-126594347D01*
X110125000Y-126355653D01*
X110033656Y-126135127D01*
X109864873Y-125966344D01*
X109644347Y-125875000D01*
X109405653Y-125875000D01*
X109185127Y-125966344D01*
X109016344Y-126135127D01*
X108925000Y-126355653D01*
X108575000Y-126355653D01*
X108575000Y-123355653D01*
X113500000Y-123355653D01*
X113500000Y-123594347D01*
X113591344Y-123814873D01*
X113760127Y-123983656D01*
X113980653Y-124075000D01*
X114098959Y-124075000D01*
X114129076Y-124105117D01*
X114129079Y-124105119D01*
X116725001Y-126701042D01*
X116725000Y-128176471D01*
X116641344Y-128260127D01*
X116550000Y-128480653D01*
X116550000Y-128719347D01*
X116641344Y-128939873D01*
X116810127Y-129108656D01*
X117030653Y-129200000D01*
X117269347Y-129200000D01*
X117489873Y-129108656D01*
X117658656Y-128939873D01*
X117750000Y-128719347D01*
X117750000Y-128480653D01*
X117658656Y-128260127D01*
X117575000Y-128176471D01*
X117575000Y-126566857D01*
X117583326Y-126525000D01*
X117550341Y-126359173D01*
X117480118Y-126254077D01*
X117456408Y-126218592D01*
X117420922Y-126194881D01*
X117056694Y-125830653D01*
X120575000Y-125830653D01*
X120575000Y-126069347D01*
X120666344Y-126289873D01*
X120835127Y-126458656D01*
X121055653Y-126550000D01*
X121294347Y-126550000D01*
X121514873Y-126458656D01*
X121590629Y-126382900D01*
X122705360Y-126403889D01*
X122797068Y-126495597D01*
X123017594Y-126586941D01*
X123256288Y-126586941D01*
X123476814Y-126495597D01*
X123645597Y-126326814D01*
X123736941Y-126106288D01*
X123736941Y-125867594D01*
X123645597Y-125647068D01*
X123476814Y-125478285D01*
X123256288Y-125386941D01*
X123017594Y-125386941D01*
X122797068Y-125478285D01*
X122721312Y-125554041D01*
X121606580Y-125533051D01*
X121514873Y-125441344D01*
X121294347Y-125350000D01*
X121055653Y-125350000D01*
X120835127Y-125441344D01*
X120666344Y-125610127D01*
X120575000Y-125830653D01*
X117056694Y-125830653D01*
X114730119Y-123504079D01*
X114730117Y-123504076D01*
X114706694Y-123480653D01*
X116600000Y-123480653D01*
X116600000Y-123719347D01*
X116691344Y-123939873D01*
X116860127Y-124108656D01*
X117080653Y-124200000D01*
X117319347Y-124200000D01*
X117539873Y-124108656D01*
X117708656Y-123939873D01*
X117800000Y-123719347D01*
X117800000Y-123480653D01*
X117708656Y-123260127D01*
X117539873Y-123091344D01*
X117319347Y-123000000D01*
X117080653Y-123000000D01*
X116860127Y-123091344D01*
X116691344Y-123260127D01*
X116600000Y-123480653D01*
X114706694Y-123480653D01*
X114700000Y-123473959D01*
X114700000Y-123355653D01*
X114608656Y-123135127D01*
X114439873Y-122966344D01*
X114219347Y-122875000D01*
X113980653Y-122875000D01*
X113760127Y-122966344D01*
X113591344Y-123135127D01*
X113500000Y-123355653D01*
X108575000Y-123355653D01*
X108575000Y-122951040D01*
X112400000Y-119126040D01*
X112400000Y-119269347D01*
X112423051Y-119324998D01*
X112330653Y-119324998D01*
X112110127Y-119416342D01*
X111941344Y-119585125D01*
X111850000Y-119805651D01*
X111850000Y-120044345D01*
X111941344Y-120264871D01*
X112110127Y-120433654D01*
X112330653Y-120524998D01*
X112569347Y-120524998D01*
X112789873Y-120433654D01*
X112873529Y-120349998D01*
X119851471Y-120349998D01*
X119935127Y-120433654D01*
X120155653Y-120524998D01*
X120394347Y-120524998D01*
X120614873Y-120433654D01*
X120698529Y-120349998D01*
X126383143Y-120349998D01*
X126425000Y-120358324D01*
X126466857Y-120349998D01*
X126466858Y-120349998D01*
X126590827Y-120325339D01*
X126731408Y-120231406D01*
X126755121Y-120195917D01*
X126895385Y-120055653D01*
X131875000Y-120055653D01*
X131875000Y-120294347D01*
X131966344Y-120514873D01*
X132135127Y-120683656D01*
X132355653Y-120775000D01*
X132594347Y-120775000D01*
X132814873Y-120683656D01*
X132983656Y-120514873D01*
X133075000Y-120294347D01*
X133075000Y-120055653D01*
X132983656Y-119835127D01*
X132814873Y-119666344D01*
X132594347Y-119575000D01*
X132355653Y-119575000D01*
X132135127Y-119666344D01*
X131966344Y-119835127D01*
X131875000Y-120055653D01*
X126895385Y-120055653D01*
X127026041Y-119924998D01*
X127144347Y-119924998D01*
X127364873Y-119833654D01*
X127533656Y-119664871D01*
X127625000Y-119444345D01*
X127625000Y-119205651D01*
X127570883Y-119075000D01*
X127962785Y-119075000D01*
X127970785Y-119094314D01*
X128139568Y-119263097D01*
X128360094Y-119354441D01*
X128598788Y-119354441D01*
X128819314Y-119263097D01*
X128988097Y-119094314D01*
X129079441Y-118873788D01*
X129079441Y-118635094D01*
X128988097Y-118414568D01*
X128819314Y-118245785D01*
X128598788Y-118154441D01*
X128360094Y-118154441D01*
X128189748Y-118225000D01*
X126691857Y-118225000D01*
X126650000Y-118216674D01*
X126608142Y-118225000D01*
X126484173Y-118249659D01*
X126343592Y-118343592D01*
X126319881Y-118379078D01*
X125973960Y-118725000D01*
X120975000Y-118725000D01*
X120975000Y-113155653D01*
X123150000Y-113155653D01*
X123150000Y-113394347D01*
X123241344Y-113614873D01*
X123410127Y-113783656D01*
X123630653Y-113875000D01*
X123869347Y-113875000D01*
X124089873Y-113783656D01*
X124258656Y-113614873D01*
X124350000Y-113394347D01*
X124350000Y-113180653D01*
X129325000Y-113180653D01*
X129325000Y-113419347D01*
X129416344Y-113639873D01*
X129585127Y-113808656D01*
X129805653Y-113900000D01*
X130044347Y-113900000D01*
X130264873Y-113808656D01*
X130433656Y-113639873D01*
X130525000Y-113419347D01*
X130525000Y-113180653D01*
X130433656Y-112960127D01*
X130264873Y-112791344D01*
X130044347Y-112700000D01*
X129805653Y-112700000D01*
X129585127Y-112791344D01*
X129416344Y-112960127D01*
X129325000Y-113180653D01*
X124350000Y-113180653D01*
X124350000Y-113155653D01*
X124258656Y-112935127D01*
X124089873Y-112766344D01*
X123869347Y-112675000D01*
X123630653Y-112675000D01*
X123410127Y-112766344D01*
X123241344Y-112935127D01*
X123150000Y-113155653D01*
X120975000Y-113155653D01*
X120975000Y-101401857D01*
X120983326Y-101360000D01*
X120950341Y-101194173D01*
X120880118Y-101089077D01*
X120856408Y-101053592D01*
X120820922Y-101029881D01*
X118349796Y-98558755D01*
X132408000Y-98558755D01*
X132408000Y-98981245D01*
X132569680Y-99371575D01*
X132868425Y-99670320D01*
X133258755Y-99832000D01*
X133681245Y-99832000D01*
X134071575Y-99670320D01*
X134370320Y-99371575D01*
X134532000Y-98981245D01*
X134532000Y-98558755D01*
X134370320Y-98168425D01*
X134071575Y-97869680D01*
X133681245Y-97708000D01*
X133258755Y-97708000D01*
X132868425Y-97869680D01*
X132569680Y-98168425D01*
X132408000Y-98558755D01*
X118349796Y-98558755D01*
X115809796Y-96018755D01*
X132408000Y-96018755D01*
X132408000Y-96441245D01*
X132569680Y-96831575D01*
X132868425Y-97130320D01*
X133258755Y-97292000D01*
X133681245Y-97292000D01*
X134071575Y-97130320D01*
X134370320Y-96831575D01*
X134532000Y-96441245D01*
X134532000Y-96018755D01*
X134370320Y-95628425D01*
X134071575Y-95329680D01*
X133681245Y-95168000D01*
X133258755Y-95168000D01*
X132868425Y-95329680D01*
X132569680Y-95628425D01*
X132408000Y-96018755D01*
X115809796Y-96018755D01*
X113269796Y-93478755D01*
X132408000Y-93478755D01*
X132408000Y-93901245D01*
X132569680Y-94291575D01*
X132868425Y-94590320D01*
X133258755Y-94752000D01*
X133681245Y-94752000D01*
X134071575Y-94590320D01*
X134370320Y-94291575D01*
X134532000Y-93901245D01*
X134532000Y-93478755D01*
X134370320Y-93088425D01*
X134071575Y-92789680D01*
X133681245Y-92628000D01*
X133258755Y-92628000D01*
X132868425Y-92789680D01*
X132569680Y-93088425D01*
X132408000Y-93478755D01*
X113269796Y-93478755D01*
X110729796Y-90938755D01*
X132408000Y-90938755D01*
X132408000Y-91361245D01*
X132569680Y-91751575D01*
X132868425Y-92050320D01*
X133258755Y-92212000D01*
X133681245Y-92212000D01*
X134071575Y-92050320D01*
X134370320Y-91751575D01*
X134532000Y-91361245D01*
X134532000Y-90938755D01*
X134370320Y-90548425D01*
X134071575Y-90249680D01*
X133681245Y-90088000D01*
X133258755Y-90088000D01*
X132868425Y-90249680D01*
X132569680Y-90548425D01*
X132408000Y-90938755D01*
X110729796Y-90938755D01*
X108788860Y-88997820D01*
X108862000Y-88821245D01*
X108862000Y-88398755D01*
X132408000Y-88398755D01*
X132408000Y-88821245D01*
X132569680Y-89211575D01*
X132868425Y-89510320D01*
X133258755Y-89672000D01*
X133681245Y-89672000D01*
X134071575Y-89510320D01*
X134370320Y-89211575D01*
X134532000Y-88821245D01*
X134532000Y-88398755D01*
X134370320Y-88008425D01*
X134071575Y-87709680D01*
X133681245Y-87548000D01*
X133258755Y-87548000D01*
X132868425Y-87709680D01*
X132569680Y-88008425D01*
X132408000Y-88398755D01*
X108862000Y-88398755D01*
X108700320Y-88008425D01*
X108401575Y-87709680D01*
X108011245Y-87548000D01*
X107588755Y-87548000D01*
X107198425Y-87709680D01*
X106899680Y-88008425D01*
X106738000Y-88398755D01*
X68375000Y-88398755D01*
X68375000Y-85858755D01*
X106738000Y-85858755D01*
X106738000Y-86281245D01*
X106899680Y-86671575D01*
X107198425Y-86970320D01*
X107588755Y-87132000D01*
X108011245Y-87132000D01*
X108401575Y-86970320D01*
X108700320Y-86671575D01*
X108862000Y-86281245D01*
X108862000Y-85858755D01*
X132408000Y-85858755D01*
X132408000Y-86281245D01*
X132569680Y-86671575D01*
X132868425Y-86970320D01*
X133258755Y-87132000D01*
X133681245Y-87132000D01*
X134071575Y-86970320D01*
X134370320Y-86671575D01*
X134532000Y-86281245D01*
X134532000Y-85858755D01*
X134370320Y-85468425D01*
X134071575Y-85169680D01*
X133681245Y-85008000D01*
X133258755Y-85008000D01*
X132868425Y-85169680D01*
X132569680Y-85468425D01*
X132408000Y-85858755D01*
X108862000Y-85858755D01*
X108783002Y-85668038D01*
X111132285Y-83318755D01*
X132408000Y-83318755D01*
X132408000Y-83741245D01*
X132569680Y-84131575D01*
X132868425Y-84430320D01*
X133258755Y-84592000D01*
X133681245Y-84592000D01*
X134071575Y-84430320D01*
X134370320Y-84131575D01*
X134532000Y-83741245D01*
X134532000Y-83318755D01*
X134370320Y-82928425D01*
X134071575Y-82629680D01*
X133681245Y-82468000D01*
X133258755Y-82468000D01*
X132868425Y-82629680D01*
X132569680Y-82928425D01*
X132408000Y-83318755D01*
X111132285Y-83318755D01*
X112001041Y-82450000D01*
X112119347Y-82450000D01*
X112339873Y-82358656D01*
X112508656Y-82189873D01*
X112600000Y-81969347D01*
X112600000Y-81730653D01*
X112508656Y-81510127D01*
X112339873Y-81341344D01*
X112119347Y-81250000D01*
X111880653Y-81250000D01*
X111660127Y-81341344D01*
X111491344Y-81510127D01*
X111400000Y-81730653D01*
X111400000Y-81848959D01*
X108173678Y-85075282D01*
X108011245Y-85008000D01*
X107588755Y-85008000D01*
X107198425Y-85169680D01*
X106899680Y-85468425D01*
X106738000Y-85858755D01*
X68375000Y-85858755D01*
X68375000Y-78880653D01*
X68400000Y-78880653D01*
X68400000Y-79119347D01*
X68491344Y-79339873D01*
X68660127Y-79508656D01*
X68880653Y-79600000D01*
X69119347Y-79600000D01*
X69339873Y-79508656D01*
X69508656Y-79339873D01*
X69600000Y-79119347D01*
X69600000Y-78880653D01*
X69508656Y-78660127D01*
X69339873Y-78491344D01*
X69119347Y-78400000D01*
X68880653Y-78400000D01*
X68660127Y-78491344D01*
X68491344Y-78660127D01*
X68400000Y-78880653D01*
X68375000Y-78880653D01*
X68375000Y-74880653D01*
X68400000Y-74880653D01*
X68400000Y-75119347D01*
X68491344Y-75339873D01*
X68660127Y-75508656D01*
X68880653Y-75600000D01*
X69119347Y-75600000D01*
X69339873Y-75508656D01*
X69508656Y-75339873D01*
X69600000Y-75119347D01*
X69600000Y-74880653D01*
X69508656Y-74660127D01*
X69339873Y-74491344D01*
X69119347Y-74400000D01*
X68880653Y-74400000D01*
X68660127Y-74491344D01*
X68491344Y-74660127D01*
X68400000Y-74880653D01*
X68375000Y-74880653D01*
X68375000Y-74250000D01*
X77900000Y-74250000D01*
X77900000Y-84250000D01*
X77907612Y-84288268D01*
X77929289Y-84320711D01*
X77961732Y-84342388D01*
X78000000Y-84350000D01*
X84500000Y-84350000D01*
X84538268Y-84342388D01*
X84570711Y-84320711D01*
X84592388Y-84288268D01*
X84600000Y-84250000D01*
X84600000Y-83318755D01*
X106738000Y-83318755D01*
X106738000Y-83741245D01*
X106899680Y-84131575D01*
X107198425Y-84430320D01*
X107588755Y-84592000D01*
X108011245Y-84592000D01*
X108401575Y-84430320D01*
X108700320Y-84131575D01*
X108862000Y-83741245D01*
X108862000Y-83318755D01*
X108788860Y-83142180D01*
X111152285Y-80778755D01*
X132408000Y-80778755D01*
X132408000Y-81201245D01*
X132569680Y-81591575D01*
X132868425Y-81890320D01*
X133258755Y-82052000D01*
X133681245Y-82052000D01*
X134071575Y-81890320D01*
X134370320Y-81591575D01*
X134532000Y-81201245D01*
X134532000Y-80778755D01*
X134370320Y-80388425D01*
X134071575Y-80089680D01*
X133681245Y-79928000D01*
X133258755Y-79928000D01*
X132868425Y-80089680D01*
X132569680Y-80388425D01*
X132408000Y-80778755D01*
X111152285Y-80778755D01*
X113692285Y-78238755D01*
X132408000Y-78238755D01*
X132408000Y-78661245D01*
X132569680Y-79051575D01*
X132868425Y-79350320D01*
X133258755Y-79512000D01*
X133681245Y-79512000D01*
X134071575Y-79350320D01*
X134370320Y-79051575D01*
X134532000Y-78661245D01*
X134532000Y-78238755D01*
X134370320Y-77848425D01*
X134071575Y-77549680D01*
X133681245Y-77388000D01*
X133258755Y-77388000D01*
X132868425Y-77549680D01*
X132569680Y-77848425D01*
X132408000Y-78238755D01*
X113692285Y-78238755D01*
X116232285Y-75698755D01*
X132408000Y-75698755D01*
X132408000Y-76121245D01*
X132569680Y-76511575D01*
X132868425Y-76810320D01*
X133258755Y-76972000D01*
X133681245Y-76972000D01*
X134071575Y-76810320D01*
X134370320Y-76511575D01*
X134532000Y-76121245D01*
X134532000Y-75698755D01*
X134370320Y-75308425D01*
X134071575Y-75009680D01*
X133681245Y-74848000D01*
X133258755Y-74848000D01*
X132868425Y-75009680D01*
X132569680Y-75308425D01*
X132408000Y-75698755D01*
X116232285Y-75698755D01*
X118772285Y-73158755D01*
X132408000Y-73158755D01*
X132408000Y-73581245D01*
X132569680Y-73971575D01*
X132868425Y-74270320D01*
X133258755Y-74432000D01*
X133681245Y-74432000D01*
X134071575Y-74270320D01*
X134370320Y-73971575D01*
X134532000Y-73581245D01*
X134532000Y-73158755D01*
X134370320Y-72768425D01*
X134071575Y-72469680D01*
X133681245Y-72308000D01*
X133258755Y-72308000D01*
X132868425Y-72469680D01*
X132569680Y-72768425D01*
X132408000Y-73158755D01*
X118772285Y-73158755D01*
X121025387Y-70905653D01*
X121600000Y-70905653D01*
X121600000Y-71144347D01*
X121691344Y-71364873D01*
X121860127Y-71533656D01*
X122080653Y-71625000D01*
X122319347Y-71625000D01*
X122539873Y-71533656D01*
X122708656Y-71364873D01*
X122800000Y-71144347D01*
X122800000Y-70905653D01*
X122708656Y-70685127D01*
X122642284Y-70618755D01*
X132408000Y-70618755D01*
X132408000Y-71041245D01*
X132569680Y-71431575D01*
X132868425Y-71730320D01*
X133258755Y-71892000D01*
X133681245Y-71892000D01*
X134071575Y-71730320D01*
X134370320Y-71431575D01*
X134532000Y-71041245D01*
X134532000Y-70618755D01*
X134370320Y-70228425D01*
X134071575Y-69929680D01*
X133681245Y-69768000D01*
X133258755Y-69768000D01*
X132868425Y-69929680D01*
X132569680Y-70228425D01*
X132408000Y-70618755D01*
X122642284Y-70618755D01*
X122539873Y-70516344D01*
X122319347Y-70425000D01*
X122080653Y-70425000D01*
X121860127Y-70516344D01*
X121691344Y-70685127D01*
X121600000Y-70905653D01*
X121025387Y-70905653D01*
X122320923Y-69610118D01*
X122356408Y-69586408D01*
X122450341Y-69445827D01*
X122475000Y-69321858D01*
X122475000Y-69321857D01*
X122483326Y-69280001D01*
X122475000Y-69238143D01*
X122475000Y-68078755D01*
X132408000Y-68078755D01*
X132408000Y-68501245D01*
X132569680Y-68891575D01*
X132868425Y-69190320D01*
X133258755Y-69352000D01*
X133681245Y-69352000D01*
X134071575Y-69190320D01*
X134370320Y-68891575D01*
X134532000Y-68501245D01*
X134532000Y-68078755D01*
X134370320Y-67688425D01*
X134071575Y-67389680D01*
X133681245Y-67228000D01*
X133258755Y-67228000D01*
X132868425Y-67389680D01*
X132569680Y-67688425D01*
X132408000Y-68078755D01*
X122475000Y-68078755D01*
X122475000Y-66732368D01*
X132705421Y-66732368D01*
X132778551Y-66963698D01*
X133295647Y-67135917D01*
X133839287Y-67097142D01*
X134161449Y-66963698D01*
X134234579Y-66732368D01*
X133470000Y-65967789D01*
X132705421Y-66732368D01*
X122475000Y-66732368D01*
X122475000Y-65575647D01*
X132084083Y-65575647D01*
X132122858Y-66119287D01*
X132256302Y-66441449D01*
X132487632Y-66514579D01*
X133252211Y-65750000D01*
X133687789Y-65750000D01*
X134452368Y-66514579D01*
X134683698Y-66441449D01*
X134855917Y-65924353D01*
X134817142Y-65380713D01*
X134683698Y-65058551D01*
X134452368Y-64985421D01*
X133687789Y-65750000D01*
X133252211Y-65750000D01*
X132487632Y-64985421D01*
X132256302Y-65058551D01*
X132084083Y-65575647D01*
X122475000Y-65575647D01*
X122475000Y-64767632D01*
X132705421Y-64767632D01*
X133470000Y-65532211D01*
X134234579Y-64767632D01*
X134161449Y-64536302D01*
X133644353Y-64364083D01*
X133100713Y-64402858D01*
X132778551Y-64536302D01*
X132705421Y-64767632D01*
X122475000Y-64767632D01*
X122475000Y-64023531D01*
X122558656Y-63939875D01*
X122650000Y-63719349D01*
X122650000Y-63680653D01*
X124750000Y-63680653D01*
X124750000Y-63919347D01*
X124841344Y-64139873D01*
X125010127Y-64308656D01*
X125230653Y-64400000D01*
X125469347Y-64400000D01*
X125689873Y-64308656D01*
X125858656Y-64139873D01*
X125950000Y-63919347D01*
X125950000Y-63680653D01*
X125858656Y-63460127D01*
X125689873Y-63291344D01*
X125469347Y-63200000D01*
X125230653Y-63200000D01*
X125010127Y-63291344D01*
X124841344Y-63460127D01*
X124750000Y-63680653D01*
X122650000Y-63680653D01*
X122650000Y-63480655D01*
X122558656Y-63260129D01*
X122389873Y-63091346D01*
X122169347Y-63000002D01*
X121930653Y-63000002D01*
X121710127Y-63091346D01*
X121541344Y-63260129D01*
X121450000Y-63480655D01*
X121450000Y-63719349D01*
X121541344Y-63939875D01*
X121625000Y-64023531D01*
X121625000Y-64066123D01*
X121625001Y-64066128D01*
X121625000Y-69103959D01*
X108187820Y-82541140D01*
X108011245Y-82468000D01*
X107588755Y-82468000D01*
X107198425Y-82629680D01*
X106899680Y-82928425D01*
X106738000Y-83318755D01*
X84600000Y-83318755D01*
X84600000Y-80778755D01*
X106738000Y-80778755D01*
X106738000Y-81201245D01*
X106899680Y-81591575D01*
X107198425Y-81890320D01*
X107588755Y-82052000D01*
X108011245Y-82052000D01*
X108401575Y-81890320D01*
X108700320Y-81591575D01*
X108862000Y-81201245D01*
X108862000Y-80778755D01*
X108700320Y-80388425D01*
X108401575Y-80089680D01*
X108011245Y-79928000D01*
X107588755Y-79928000D01*
X107198425Y-80089680D01*
X106899680Y-80388425D01*
X106738000Y-80778755D01*
X84600000Y-80778755D01*
X84600000Y-78238755D01*
X106738000Y-78238755D01*
X106738000Y-78661245D01*
X106899680Y-79051575D01*
X107198425Y-79350320D01*
X107588755Y-79512000D01*
X108011245Y-79512000D01*
X108401575Y-79350320D01*
X108700320Y-79051575D01*
X108862000Y-78661245D01*
X108862000Y-78238755D01*
X108700320Y-77848425D01*
X108401575Y-77549680D01*
X108011245Y-77388000D01*
X107588755Y-77388000D01*
X107198425Y-77549680D01*
X106899680Y-77848425D01*
X106738000Y-78238755D01*
X84600000Y-78238755D01*
X84600000Y-76430653D01*
X95650000Y-76430653D01*
X95650000Y-76669347D01*
X95741344Y-76889873D01*
X95910127Y-77058656D01*
X96130653Y-77150000D01*
X96369347Y-77150000D01*
X96589873Y-77058656D01*
X96758656Y-76889873D01*
X96850000Y-76669347D01*
X96850000Y-76430653D01*
X96758656Y-76210127D01*
X96589873Y-76041344D01*
X96369347Y-75950000D01*
X96130653Y-75950000D01*
X95910127Y-76041344D01*
X95741344Y-76210127D01*
X95650000Y-76430653D01*
X84600000Y-76430653D01*
X84600000Y-75698755D01*
X106738000Y-75698755D01*
X106738000Y-76121245D01*
X106899680Y-76511575D01*
X107198425Y-76810320D01*
X107588755Y-76972000D01*
X108011245Y-76972000D01*
X108401575Y-76810320D01*
X108700320Y-76511575D01*
X108862000Y-76121245D01*
X108862000Y-75698755D01*
X108700320Y-75308425D01*
X108401575Y-75009680D01*
X108011245Y-74848000D01*
X107588755Y-74848000D01*
X107198425Y-75009680D01*
X106899680Y-75308425D01*
X106738000Y-75698755D01*
X84600000Y-75698755D01*
X84600000Y-74250000D01*
X84592388Y-74211732D01*
X84570711Y-74179289D01*
X84538268Y-74157612D01*
X84500000Y-74150000D01*
X78000000Y-74150000D01*
X77961732Y-74157612D01*
X77929289Y-74179289D01*
X77907612Y-74211732D01*
X77900000Y-74250000D01*
X68375000Y-74250000D01*
X68375000Y-73158755D01*
X106738000Y-73158755D01*
X106738000Y-73581245D01*
X106899680Y-73971575D01*
X107198425Y-74270320D01*
X107588755Y-74432000D01*
X108011245Y-74432000D01*
X108401575Y-74270320D01*
X108700320Y-73971575D01*
X108862000Y-73581245D01*
X108862000Y-73158755D01*
X108700320Y-72768425D01*
X108401575Y-72469680D01*
X108011245Y-72308000D01*
X107588755Y-72308000D01*
X107198425Y-72469680D01*
X106899680Y-72768425D01*
X106738000Y-73158755D01*
X68375000Y-73158755D01*
X68375000Y-70618755D01*
X106738000Y-70618755D01*
X106738000Y-71041245D01*
X106899680Y-71431575D01*
X107198425Y-71730320D01*
X107588755Y-71892000D01*
X108011245Y-71892000D01*
X108401575Y-71730320D01*
X108700320Y-71431575D01*
X108862000Y-71041245D01*
X108862000Y-70618755D01*
X108700320Y-70228425D01*
X108401575Y-69929680D01*
X108011245Y-69768000D01*
X107588755Y-69768000D01*
X107198425Y-69929680D01*
X106899680Y-70228425D01*
X106738000Y-70618755D01*
X68375000Y-70618755D01*
X68375000Y-68078755D01*
X106738000Y-68078755D01*
X106738000Y-68501245D01*
X106899680Y-68891575D01*
X107198425Y-69190320D01*
X107588755Y-69352000D01*
X108011245Y-69352000D01*
X108401575Y-69190320D01*
X108700320Y-68891575D01*
X108862000Y-68501245D01*
X108862000Y-68078755D01*
X108700320Y-67688425D01*
X108401575Y-67389680D01*
X108011245Y-67228000D01*
X107588755Y-67228000D01*
X107198425Y-67389680D01*
X106899680Y-67688425D01*
X106738000Y-68078755D01*
X68375000Y-68078755D01*
X68375000Y-66732368D01*
X107035421Y-66732368D01*
X107108551Y-66963698D01*
X107625647Y-67135917D01*
X108169287Y-67097142D01*
X108491449Y-66963698D01*
X108564579Y-66732368D01*
X107800000Y-65967789D01*
X107035421Y-66732368D01*
X68375000Y-66732368D01*
X68375000Y-64641414D01*
X69570000Y-64641414D01*
X69570000Y-65158586D01*
X69767913Y-65636391D01*
X70133609Y-66002087D01*
X70611414Y-66200000D01*
X71128586Y-66200000D01*
X71606391Y-66002087D01*
X71972087Y-65636391D01*
X71997247Y-65575647D01*
X106414083Y-65575647D01*
X106452858Y-66119287D01*
X106586302Y-66441449D01*
X106817632Y-66514579D01*
X107582211Y-65750000D01*
X108017789Y-65750000D01*
X108782368Y-66514579D01*
X109013698Y-66441449D01*
X109185917Y-65924353D01*
X109147142Y-65380713D01*
X109013698Y-65058551D01*
X108782368Y-64985421D01*
X108017789Y-65750000D01*
X107582211Y-65750000D01*
X106817632Y-64985421D01*
X106586302Y-65058551D01*
X106414083Y-65575647D01*
X71997247Y-65575647D01*
X72170000Y-65158586D01*
X72170000Y-64767632D01*
X107035421Y-64767632D01*
X107800000Y-65532211D01*
X108564579Y-64767632D01*
X108491449Y-64536302D01*
X107974353Y-64364083D01*
X107430713Y-64402858D01*
X107108551Y-64536302D01*
X107035421Y-64767632D01*
X72170000Y-64767632D01*
X72170000Y-64641414D01*
X71972087Y-64163609D01*
X71606391Y-63797913D01*
X71128586Y-63600000D01*
X70611414Y-63600000D01*
X70133609Y-63797913D01*
X69767913Y-64163609D01*
X69570000Y-64641414D01*
X68375000Y-64641414D01*
X68375000Y-61600000D01*
X82144123Y-61600000D01*
X82144123Y-63300000D01*
X82167407Y-63417054D01*
X82233712Y-63516288D01*
X82332946Y-63582593D01*
X82450000Y-63605877D01*
X84150000Y-63605877D01*
X84267054Y-63582593D01*
X84366288Y-63516288D01*
X84432593Y-63417054D01*
X84455877Y-63300000D01*
X84455877Y-62877023D01*
X84684259Y-63338854D01*
X85112384Y-63713477D01*
X85461090Y-63857903D01*
X85686000Y-63746889D01*
X85686000Y-62604000D01*
X85666000Y-62604000D01*
X85666000Y-62296000D01*
X85686000Y-62296000D01*
X85686000Y-61153111D01*
X85994000Y-61153111D01*
X85994000Y-62296000D01*
X86014000Y-62296000D01*
X86014000Y-62604000D01*
X85994000Y-62604000D01*
X85994000Y-63746889D01*
X86218910Y-63857903D01*
X86567616Y-63713477D01*
X86995741Y-63338854D01*
X87247915Y-62828911D01*
X87137857Y-62604002D01*
X87238104Y-62604002D01*
X87296724Y-62898707D01*
X87550897Y-63279103D01*
X87931293Y-63533276D01*
X88266739Y-63600000D01*
X88493261Y-63600000D01*
X88828707Y-63533276D01*
X89209103Y-63279103D01*
X89463276Y-62898707D01*
X89552529Y-62450000D01*
X89747471Y-62450000D01*
X89836724Y-62898707D01*
X90090897Y-63279103D01*
X90471293Y-63533276D01*
X90806739Y-63600000D01*
X91033261Y-63600000D01*
X91368707Y-63533276D01*
X91749103Y-63279103D01*
X92003276Y-62898707D01*
X92092529Y-62450000D01*
X92287471Y-62450000D01*
X92376724Y-62898707D01*
X92630897Y-63279103D01*
X93011293Y-63533276D01*
X93346739Y-63600000D01*
X93573261Y-63600000D01*
X93908707Y-63533276D01*
X94289103Y-63279103D01*
X94543276Y-62898707D01*
X94632529Y-62450000D01*
X94827471Y-62450000D01*
X94916724Y-62898707D01*
X95170897Y-63279103D01*
X95551293Y-63533276D01*
X95886739Y-63600000D01*
X96113261Y-63600000D01*
X96448707Y-63533276D01*
X96829103Y-63279103D01*
X97083276Y-62898707D01*
X97172529Y-62450000D01*
X97367471Y-62450000D01*
X97456724Y-62898707D01*
X97710897Y-63279103D01*
X98091293Y-63533276D01*
X98426739Y-63600000D01*
X98653261Y-63600000D01*
X98988707Y-63533276D01*
X99369103Y-63279103D01*
X99623276Y-62898707D01*
X99712529Y-62450000D01*
X99907471Y-62450000D01*
X99996724Y-62898707D01*
X100250897Y-63279103D01*
X100631293Y-63533276D01*
X100966739Y-63600000D01*
X101193261Y-63600000D01*
X101528707Y-63533276D01*
X101909103Y-63279103D01*
X102096425Y-62998755D01*
X106738000Y-62998755D01*
X106738000Y-63421245D01*
X106899680Y-63811575D01*
X107198425Y-64110320D01*
X107588755Y-64272000D01*
X108011245Y-64272000D01*
X108401575Y-64110320D01*
X108700320Y-63811575D01*
X108862000Y-63421245D01*
X108862000Y-62998755D01*
X132408000Y-62998755D01*
X132408000Y-63421245D01*
X132569680Y-63811575D01*
X132868425Y-64110320D01*
X133258755Y-64272000D01*
X133681245Y-64272000D01*
X134071575Y-64110320D01*
X134370320Y-63811575D01*
X134532000Y-63421245D01*
X134532000Y-62998755D01*
X134370320Y-62608425D01*
X134071575Y-62309680D01*
X133681245Y-62148000D01*
X133258755Y-62148000D01*
X132868425Y-62309680D01*
X132569680Y-62608425D01*
X132408000Y-62998755D01*
X108862000Y-62998755D01*
X108700320Y-62608425D01*
X108401575Y-62309680D01*
X108011245Y-62148000D01*
X107588755Y-62148000D01*
X107198425Y-62309680D01*
X106899680Y-62608425D01*
X106738000Y-62998755D01*
X102096425Y-62998755D01*
X102163276Y-62898707D01*
X102252529Y-62450000D01*
X102163276Y-62001293D01*
X101909103Y-61620897D01*
X101528707Y-61366724D01*
X101193261Y-61300000D01*
X100966739Y-61300000D01*
X100631293Y-61366724D01*
X100250897Y-61620897D01*
X99996724Y-62001293D01*
X99907471Y-62450000D01*
X99712529Y-62450000D01*
X99623276Y-62001293D01*
X99369103Y-61620897D01*
X98988707Y-61366724D01*
X98653261Y-61300000D01*
X98426739Y-61300000D01*
X98091293Y-61366724D01*
X97710897Y-61620897D01*
X97456724Y-62001293D01*
X97367471Y-62450000D01*
X97172529Y-62450000D01*
X97083276Y-62001293D01*
X96829103Y-61620897D01*
X96448707Y-61366724D01*
X96113261Y-61300000D01*
X95886739Y-61300000D01*
X95551293Y-61366724D01*
X95170897Y-61620897D01*
X94916724Y-62001293D01*
X94827471Y-62450000D01*
X94632529Y-62450000D01*
X94543276Y-62001293D01*
X94289103Y-61620897D01*
X93908707Y-61366724D01*
X93573261Y-61300000D01*
X93346739Y-61300000D01*
X93011293Y-61366724D01*
X92630897Y-61620897D01*
X92376724Y-62001293D01*
X92287471Y-62450000D01*
X92092529Y-62450000D01*
X92003276Y-62001293D01*
X91749103Y-61620897D01*
X91368707Y-61366724D01*
X91033261Y-61300000D01*
X90806739Y-61300000D01*
X90471293Y-61366724D01*
X90090897Y-61620897D01*
X89836724Y-62001293D01*
X89747471Y-62450000D01*
X89552529Y-62450000D01*
X89463276Y-62001293D01*
X89209103Y-61620897D01*
X88828707Y-61366724D01*
X88493261Y-61300000D01*
X88266739Y-61300000D01*
X87931293Y-61366724D01*
X87550897Y-61620897D01*
X87296724Y-62001293D01*
X87238104Y-62295998D01*
X87137857Y-62295998D01*
X87247915Y-62071089D01*
X86995741Y-61561146D01*
X86567616Y-61186523D01*
X86218910Y-61042097D01*
X85994000Y-61153111D01*
X85686000Y-61153111D01*
X85461090Y-61042097D01*
X85112384Y-61186523D01*
X84684259Y-61561146D01*
X84455877Y-62022977D01*
X84455877Y-61600000D01*
X84432593Y-61482946D01*
X84366288Y-61383712D01*
X84267054Y-61317407D01*
X84150000Y-61294123D01*
X82450000Y-61294123D01*
X82332946Y-61317407D01*
X82233712Y-61383712D01*
X82167407Y-61482946D01*
X82144123Y-61600000D01*
X68375000Y-61600000D01*
X68375000Y-55622067D01*
X70100000Y-55622067D01*
X70100000Y-56377933D01*
X70389258Y-57076263D01*
X70923737Y-57610742D01*
X71622067Y-57900000D01*
X72377933Y-57900000D01*
X73076263Y-57610742D01*
X73610742Y-57076263D01*
X73900000Y-56377933D01*
X73900000Y-55622067D01*
X139100000Y-55622067D01*
X139100000Y-56377933D01*
X139389258Y-57076263D01*
X139923737Y-57610742D01*
X140622067Y-57900000D01*
X141377933Y-57900000D01*
X142076263Y-57610742D01*
X142610742Y-57076263D01*
X142900000Y-56377933D01*
X142900000Y-55622067D01*
X142610742Y-54923737D01*
X142076263Y-54389258D01*
X141377933Y-54100000D01*
X140622067Y-54100000D01*
X139923737Y-54389258D01*
X139389258Y-54923737D01*
X139100000Y-55622067D01*
X73900000Y-55622067D01*
X73610742Y-54923737D01*
X73076263Y-54389258D01*
X72875261Y-54306000D01*
X76542000Y-54306000D01*
X76542000Y-54970939D01*
X76634563Y-55194405D01*
X76805596Y-55365438D01*
X77029062Y-55458000D01*
X77694000Y-55458000D01*
X77846000Y-55306000D01*
X77846000Y-54154000D01*
X76694000Y-54154000D01*
X76542000Y-54306000D01*
X72875261Y-54306000D01*
X72377933Y-54100000D01*
X71622067Y-54100000D01*
X70923737Y-54389258D01*
X70389258Y-54923737D01*
X70100000Y-55622067D01*
X68375000Y-55622067D01*
X68375000Y-53029061D01*
X76542000Y-53029061D01*
X76542000Y-53694000D01*
X76694000Y-53846000D01*
X77846000Y-53846000D01*
X77846000Y-52694000D01*
X78154000Y-52694000D01*
X78154000Y-53846000D01*
X78174000Y-53846000D01*
X78174000Y-54154000D01*
X78154000Y-54154000D01*
X78154000Y-55306000D01*
X78306000Y-55458000D01*
X78970938Y-55458000D01*
X79194404Y-55365438D01*
X79365437Y-55194405D01*
X79458000Y-54970939D01*
X79458000Y-54450617D01*
X79710897Y-54829103D01*
X80091293Y-55083276D01*
X80426739Y-55150000D01*
X80653261Y-55150000D01*
X80988707Y-55083276D01*
X81369103Y-54829103D01*
X81623276Y-54448707D01*
X81712529Y-54000000D01*
X81907471Y-54000000D01*
X81996724Y-54448707D01*
X82250897Y-54829103D01*
X82631293Y-55083276D01*
X82966739Y-55150000D01*
X83193261Y-55150000D01*
X83528707Y-55083276D01*
X83909103Y-54829103D01*
X84163276Y-54448707D01*
X84191662Y-54306000D01*
X85542000Y-54306000D01*
X85542000Y-54970939D01*
X85634563Y-55194405D01*
X85805596Y-55365438D01*
X86029062Y-55458000D01*
X86694000Y-55458000D01*
X86846000Y-55306000D01*
X86846000Y-54154000D01*
X85694000Y-54154000D01*
X85542000Y-54306000D01*
X84191662Y-54306000D01*
X84252529Y-54000000D01*
X84163276Y-53551293D01*
X83909103Y-53170897D01*
X83696831Y-53029061D01*
X85542000Y-53029061D01*
X85542000Y-53694000D01*
X85694000Y-53846000D01*
X86846000Y-53846000D01*
X86846000Y-52694000D01*
X87154000Y-52694000D01*
X87154000Y-53846000D01*
X87174000Y-53846000D01*
X87174000Y-54154000D01*
X87154000Y-54154000D01*
X87154000Y-55306000D01*
X87306000Y-55458000D01*
X87970938Y-55458000D01*
X88194404Y-55365438D01*
X88365437Y-55194405D01*
X88458000Y-54970939D01*
X88458000Y-54450617D01*
X88710897Y-54829103D01*
X89091293Y-55083276D01*
X89426739Y-55150000D01*
X89653261Y-55150000D01*
X89988707Y-55083276D01*
X90369103Y-54829103D01*
X90623276Y-54448707D01*
X90712529Y-54000000D01*
X90907471Y-54000000D01*
X90996724Y-54448707D01*
X91250897Y-54829103D01*
X91631293Y-55083276D01*
X91966739Y-55150000D01*
X92193261Y-55150000D01*
X92528707Y-55083276D01*
X92909103Y-54829103D01*
X93163276Y-54448707D01*
X93191662Y-54306000D01*
X94542000Y-54306000D01*
X94542000Y-54970939D01*
X94634563Y-55194405D01*
X94805596Y-55365438D01*
X95029062Y-55458000D01*
X95694000Y-55458000D01*
X95846000Y-55306000D01*
X95846000Y-54154000D01*
X94694000Y-54154000D01*
X94542000Y-54306000D01*
X93191662Y-54306000D01*
X93252529Y-54000000D01*
X93163276Y-53551293D01*
X92909103Y-53170897D01*
X92696831Y-53029061D01*
X94542000Y-53029061D01*
X94542000Y-53694000D01*
X94694000Y-53846000D01*
X95846000Y-53846000D01*
X95846000Y-52694000D01*
X96154000Y-52694000D01*
X96154000Y-53846000D01*
X96174000Y-53846000D01*
X96174000Y-54154000D01*
X96154000Y-54154000D01*
X96154000Y-55306000D01*
X96306000Y-55458000D01*
X96970938Y-55458000D01*
X97194404Y-55365438D01*
X97365437Y-55194405D01*
X97458000Y-54970939D01*
X97458000Y-54450617D01*
X97710897Y-54829103D01*
X98091293Y-55083276D01*
X98426739Y-55150000D01*
X98653261Y-55150000D01*
X98988707Y-55083276D01*
X99369103Y-54829103D01*
X99623276Y-54448707D01*
X99712529Y-54000000D01*
X99907471Y-54000000D01*
X99996724Y-54448707D01*
X100250897Y-54829103D01*
X100631293Y-55083276D01*
X100966739Y-55150000D01*
X101193261Y-55150000D01*
X101528707Y-55083276D01*
X101909103Y-54829103D01*
X102163276Y-54448707D01*
X102252529Y-54000000D01*
X102163276Y-53551293D01*
X101909103Y-53170897D01*
X101528707Y-52916724D01*
X101193261Y-52850000D01*
X100966739Y-52850000D01*
X100631293Y-52916724D01*
X100250897Y-53170897D01*
X99996724Y-53551293D01*
X99907471Y-54000000D01*
X99712529Y-54000000D01*
X99623276Y-53551293D01*
X99369103Y-53170897D01*
X98988707Y-52916724D01*
X98653261Y-52850000D01*
X98426739Y-52850000D01*
X98091293Y-52916724D01*
X97710897Y-53170897D01*
X97458000Y-53549383D01*
X97458000Y-53029061D01*
X97365437Y-52805595D01*
X97194404Y-52634562D01*
X96970938Y-52542000D01*
X96306000Y-52542000D01*
X96154000Y-52694000D01*
X95846000Y-52694000D01*
X95694000Y-52542000D01*
X95029062Y-52542000D01*
X94805596Y-52634562D01*
X94634563Y-52805595D01*
X94542000Y-53029061D01*
X92696831Y-53029061D01*
X92528707Y-52916724D01*
X92193261Y-52850000D01*
X91966739Y-52850000D01*
X91631293Y-52916724D01*
X91250897Y-53170897D01*
X90996724Y-53551293D01*
X90907471Y-54000000D01*
X90712529Y-54000000D01*
X90623276Y-53551293D01*
X90369103Y-53170897D01*
X89988707Y-52916724D01*
X89653261Y-52850000D01*
X89426739Y-52850000D01*
X89091293Y-52916724D01*
X88710897Y-53170897D01*
X88458000Y-53549383D01*
X88458000Y-53029061D01*
X88365437Y-52805595D01*
X88194404Y-52634562D01*
X87970938Y-52542000D01*
X87306000Y-52542000D01*
X87154000Y-52694000D01*
X86846000Y-52694000D01*
X86694000Y-52542000D01*
X86029062Y-52542000D01*
X85805596Y-52634562D01*
X85634563Y-52805595D01*
X85542000Y-53029061D01*
X83696831Y-53029061D01*
X83528707Y-52916724D01*
X83193261Y-52850000D01*
X82966739Y-52850000D01*
X82631293Y-52916724D01*
X82250897Y-53170897D01*
X81996724Y-53551293D01*
X81907471Y-54000000D01*
X81712529Y-54000000D01*
X81623276Y-53551293D01*
X81369103Y-53170897D01*
X80988707Y-52916724D01*
X80653261Y-52850000D01*
X80426739Y-52850000D01*
X80091293Y-52916724D01*
X79710897Y-53170897D01*
X79458000Y-53549383D01*
X79458000Y-53029061D01*
X79365437Y-52805595D01*
X79194404Y-52634562D01*
X78970938Y-52542000D01*
X78306000Y-52542000D01*
X78154000Y-52694000D01*
X77846000Y-52694000D01*
X77694000Y-52542000D01*
X77029062Y-52542000D01*
X76805596Y-52634562D01*
X76634563Y-52805595D01*
X76542000Y-53029061D01*
X68375000Y-53029061D01*
X68375000Y-52375000D01*
X144625000Y-52375000D01*
X144625001Y-144625000D01*
G04 #@! TD*
M02*
