G04 #@! TF.GenerationSoftware,KiCad,Pcbnew,(5.0.0)*
G04 #@! TF.CreationDate,2018-12-16T10:52:04+01:00*
G04 #@! TF.ProjectId,ODMeter,4F444D657465722E6B696361645F7063,rev?*
G04 #@! TF.SameCoordinates,Original*
G04 #@! TF.FileFunction,Legend,Top*
G04 #@! TF.FilePolarity,Positive*
%FSLAX46Y46*%
G04 Gerber Fmt 4.6, Leading zero omitted, Abs format (unit mm)*
G04 Created by KiCad (PCBNEW (5.0.0)) date 12/16/18 10:52:04*
%MOMM*%
%LPD*%
G01*
G04 APERTURE LIST*
%ADD10C,0.150000*%
%ADD11C,0.120000*%
%ADD12C,0.200000*%
G04 APERTURE END LIST*
D10*
G04 #@! TO.C,U6*
X94179330Y-92255000D02*
G75*
G03X94179330Y-92255000I-279330J0D01*
G01*
G04 #@! TO.C,U4*
X75679330Y-87745000D02*
G75*
G03X75679330Y-87745000I-279330J0D01*
G01*
D11*
G04 #@! TO.C,C16*
X122700000Y-67975000D02*
X121700000Y-67975000D01*
X121700000Y-69675000D02*
X122700000Y-69675000D01*
D10*
G04 #@! TO.C,J24*
X115275000Y-52000000D02*
X115275000Y-65950000D01*
X131075000Y-52000000D02*
X115275000Y-52000000D01*
X131075000Y-65950000D02*
X131075000Y-52000000D01*
D11*
G04 #@! TO.C,L1*
X87400000Y-72950000D02*
X87400000Y-75900000D01*
X74900000Y-72950000D02*
X87400000Y-72950000D01*
X74900000Y-75900000D02*
X74900000Y-72950000D01*
X74900000Y-85450000D02*
X74900000Y-82500000D01*
X87400000Y-85450000D02*
X74900000Y-85450000D01*
X87400000Y-82500000D02*
X87400000Y-85450000D01*
D10*
G04 #@! TO.C,J20*
X68965000Y-61400000D02*
X76735000Y-61400000D01*
X68965000Y-70010000D02*
X76735000Y-70010000D01*
X76735000Y-70010000D02*
X76735000Y-60000000D01*
X76735000Y-60000000D02*
X68965000Y-60000000D01*
X68965000Y-60000000D02*
X68965000Y-70010000D01*
D12*
G04 #@! TO.C,U3*
X106250000Y-54710000D02*
X106250000Y-103210000D01*
X107250000Y-53710000D02*
X106250000Y-54710000D01*
X133750000Y-104210000D02*
X134750000Y-103210000D01*
X115618475Y-53710000D02*
X107250000Y-53710000D01*
X134750000Y-103210000D02*
X134750000Y-54710000D01*
X134750000Y-54710000D02*
X133750000Y-53710000D01*
X133750000Y-53710000D02*
X123201525Y-53710000D01*
X106250000Y-103210000D02*
X107250000Y-104210000D01*
X107250000Y-104210000D02*
X111500000Y-104210000D01*
X122410000Y-53514489D02*
X122410000Y-53280000D01*
X116410000Y-53280000D02*
X122410000Y-53280000D01*
X122410000Y-53514489D02*
X116410000Y-53514489D01*
X122772132Y-53710000D02*
X116047868Y-53710000D01*
X116410000Y-53280000D02*
X116410000Y-53514489D01*
X115765476Y-53407702D02*
X115887702Y-53509107D01*
X115660000Y-53710000D02*
X115573923Y-53638586D01*
X122932298Y-53509107D02*
X123054524Y-53407702D01*
X115765476Y-53407702D02*
X115573923Y-53638586D01*
X123208447Y-53280000D02*
X123400000Y-53510884D01*
X115960000Y-53663030D02*
X115960000Y-53710000D01*
X115420000Y-53510884D02*
X115611553Y-53280000D01*
X122860000Y-53710000D02*
X122860000Y-53663030D01*
X123246077Y-53638586D02*
X123160000Y-53710000D01*
X123246077Y-53638586D02*
X123054524Y-53407702D01*
X111535000Y-104210000D02*
X133750000Y-104210000D01*
D11*
G04 #@! TO.C,C2*
X108100000Y-123500000D02*
X108100000Y-124500000D01*
X109800000Y-124500000D02*
X109800000Y-123500000D01*
D10*
G04 #@! TO.C,J9*
X100410000Y-143000000D02*
X76790000Y-143000000D01*
X100410000Y-134390000D02*
X76790000Y-134390000D01*
X76790000Y-134390000D02*
X76790000Y-144600000D01*
X76790000Y-144600000D02*
X100410000Y-144600000D01*
X100410000Y-144600000D02*
X100410000Y-134390000D01*
D11*
G04 #@! TO.C,J3*
X81970000Y-63780000D02*
X81970000Y-62450000D01*
X83300000Y-63780000D02*
X81970000Y-63780000D01*
X84570000Y-63780000D02*
X84570000Y-61120000D01*
X84570000Y-61120000D02*
X102410000Y-61120000D01*
X84570000Y-63780000D02*
X102410000Y-63780000D01*
X102410000Y-63780000D02*
X102410000Y-61120000D01*
G04 #@! TO.C,R13*
X83970000Y-124050000D02*
X83970000Y-122850000D01*
X85730000Y-122850000D02*
X85730000Y-124050000D01*
G04 #@! TO.C,R12*
X82170000Y-120950000D02*
X82170000Y-119750000D01*
X83930000Y-119750000D02*
X83930000Y-120950000D01*
G04 #@! TO.C,C1*
X134000000Y-117875000D02*
X133000000Y-117875000D01*
X133000000Y-119575000D02*
X134000000Y-119575000D01*
G04 #@! TO.C,C7*
X72700000Y-88500000D02*
X72700000Y-87500000D01*
X71000000Y-87500000D02*
X71000000Y-88500000D01*
G04 #@! TO.C,R22*
X93660000Y-124050000D02*
X93660000Y-122850000D01*
X95420000Y-122850000D02*
X95420000Y-124050000D01*
G04 #@! TO.C,R24*
X95420000Y-129050000D02*
X95420000Y-130250000D01*
X93660000Y-130250000D02*
X93660000Y-129050000D01*
G04 #@! TO.C,R25*
X91870000Y-130250000D02*
X91870000Y-129050000D01*
X93630000Y-129050000D02*
X93630000Y-130250000D01*
G04 #@! TO.C,J2*
X76670000Y-55330000D02*
X76670000Y-54000000D01*
X78000000Y-55330000D02*
X76670000Y-55330000D01*
X79270000Y-55330000D02*
X79270000Y-52670000D01*
X79270000Y-52670000D02*
X84410000Y-52670000D01*
X79270000Y-55330000D02*
X84410000Y-55330000D01*
X84410000Y-55330000D02*
X84410000Y-52670000D01*
G04 #@! TO.C,R29*
X74200000Y-92470000D02*
X75400000Y-92470000D01*
X75400000Y-94230000D02*
X74200000Y-94230000D01*
D10*
G04 #@! TO.C,U2*
X126125000Y-117300000D02*
X125050000Y-117300000D01*
X126125000Y-120375000D02*
X129375000Y-120375000D01*
X126125000Y-117125000D02*
X129375000Y-117125000D01*
X126125000Y-120375000D02*
X126125000Y-120100000D01*
X129375000Y-120375000D02*
X129375000Y-120100000D01*
X129375000Y-117125000D02*
X129375000Y-117400000D01*
X126125000Y-117125000D02*
X126125000Y-117300000D01*
G04 #@! TO.C,U1*
X105575000Y-129425000D02*
X106950000Y-129425000D01*
X105575000Y-120550000D02*
X101425000Y-120550000D01*
X105575000Y-129450000D02*
X101425000Y-129450000D01*
X105575000Y-120550000D02*
X105575000Y-120665000D01*
X101425000Y-120550000D02*
X101425000Y-120665000D01*
X101425000Y-129450000D02*
X101425000Y-129335000D01*
X105575000Y-129450000D02*
X105575000Y-129425000D01*
D11*
G04 #@! TO.C,R1*
X77780000Y-119750000D02*
X77780000Y-120950000D01*
X76020000Y-120950000D02*
X76020000Y-119750000D01*
G04 #@! TO.C,R2*
X74220000Y-120950000D02*
X74220000Y-119750000D01*
X75980000Y-119750000D02*
X75980000Y-120950000D01*
G04 #@! TO.C,R3*
X76020000Y-124050000D02*
X76020000Y-122850000D01*
X77780000Y-122850000D02*
X77780000Y-124050000D01*
G04 #@! TO.C,R4*
X77820000Y-124050000D02*
X77820000Y-122850000D01*
X79580000Y-122850000D02*
X79580000Y-124050000D01*
G04 #@! TO.C,R8*
X79580000Y-129050000D02*
X79580000Y-130250000D01*
X77820000Y-130250000D02*
X77820000Y-129050000D01*
G04 #@! TO.C,R9*
X76020000Y-130250000D02*
X76020000Y-129050000D01*
X77780000Y-129050000D02*
X77780000Y-130250000D01*
G04 #@! TO.C,R10*
X129070000Y-115975000D02*
X129070000Y-114775000D01*
X130830000Y-114775000D02*
X130830000Y-115975000D01*
G04 #@! TO.C,R11*
X85730000Y-119750000D02*
X85730000Y-120950000D01*
X83970000Y-120950000D02*
X83970000Y-119750000D01*
G04 #@! TO.C,R14*
X122870000Y-116000000D02*
X122870000Y-114800000D01*
X124630000Y-114800000D02*
X124630000Y-116000000D01*
G04 #@! TO.C,R15*
X85770000Y-124050000D02*
X85770000Y-122850000D01*
X87530000Y-122850000D02*
X87530000Y-124050000D01*
G04 #@! TO.C,R17*
X87500000Y-129050000D02*
X87500000Y-130250000D01*
X85740000Y-130250000D02*
X85740000Y-129050000D01*
G04 #@! TO.C,R18*
X83920000Y-130250000D02*
X83920000Y-129050000D01*
X85680000Y-129050000D02*
X85680000Y-130250000D01*
G04 #@! TO.C,R20*
X90070000Y-120950000D02*
X90070000Y-119750000D01*
X91830000Y-119750000D02*
X91830000Y-120950000D01*
G04 #@! TO.C,R21*
X91870000Y-124050000D02*
X91870000Y-122850000D01*
X93630000Y-122850000D02*
X93630000Y-124050000D01*
G04 #@! TO.C,C3*
X80550000Y-87400000D02*
X80550000Y-88400000D01*
X82250000Y-88400000D02*
X82250000Y-87400000D01*
G04 #@! TO.C,C4*
X88050000Y-81300000D02*
X92850000Y-81300000D01*
X92850000Y-81300000D02*
X92850000Y-71700000D01*
X88050000Y-81300000D02*
X88050000Y-71700000D01*
G04 #@! TO.C,C5*
X94700000Y-76050000D02*
X94700000Y-75050000D01*
X93000000Y-75050000D02*
X93000000Y-76050000D01*
G04 #@! TO.C,C6*
X69720000Y-91000000D02*
X69720000Y-93000000D01*
X72680000Y-93000000D02*
X72680000Y-91000000D01*
G04 #@! TO.C,C10*
X88830000Y-94750000D02*
X88830000Y-92750000D01*
X85870000Y-92750000D02*
X85870000Y-94750000D01*
G04 #@! TO.C,C12*
X99730000Y-93750000D02*
X99730000Y-91750000D01*
X96770000Y-91750000D02*
X96770000Y-93750000D01*
G04 #@! TO.C,C13*
X100550000Y-87500000D02*
X100550000Y-82700000D01*
X100550000Y-82700000D02*
X90950000Y-82700000D01*
X100550000Y-87500000D02*
X90950000Y-87500000D01*
G04 #@! TO.C,C14*
X97800000Y-89100000D02*
X98500000Y-89100000D01*
X98500000Y-90300000D02*
X97800000Y-90300000D01*
G04 #@! TO.C,C15*
X87250000Y-89100000D02*
X87250000Y-88400000D01*
X88450000Y-88400000D02*
X88450000Y-89100000D01*
G04 #@! TO.C,Q1*
X121770000Y-130110000D02*
X121770000Y-128650000D01*
X124930000Y-130110000D02*
X124930000Y-127950000D01*
X124930000Y-130110000D02*
X124000000Y-130110000D01*
X121770000Y-130110000D02*
X122700000Y-130110000D01*
G04 #@! TO.C,Q2*
X125770000Y-130110000D02*
X125770000Y-128650000D01*
X128930000Y-130110000D02*
X128930000Y-127950000D01*
X128930000Y-130110000D02*
X128000000Y-130110000D01*
X125770000Y-130110000D02*
X126700000Y-130110000D01*
G04 #@! TO.C,Q3*
X129770000Y-130110000D02*
X129770000Y-128650000D01*
X132930000Y-130110000D02*
X132930000Y-127950000D01*
X132930000Y-130110000D02*
X132000000Y-130110000D01*
X129770000Y-130110000D02*
X130700000Y-130110000D01*
G04 #@! TO.C,R26*
X120580000Y-128950000D02*
X120580000Y-130150000D01*
X118820000Y-130150000D02*
X118820000Y-128950000D01*
G04 #@! TO.C,R27*
X77700000Y-92470000D02*
X78900000Y-92470000D01*
X78900000Y-94230000D02*
X77700000Y-94230000D01*
G04 #@! TO.C,R28*
X114520000Y-122100000D02*
X114520000Y-120900000D01*
X116280000Y-120900000D02*
X116280000Y-122100000D01*
G04 #@! TO.C,R30*
X80800000Y-92770000D02*
X82000000Y-92770000D01*
X82000000Y-94530000D02*
X80800000Y-94530000D01*
G04 #@! TO.C,R31*
X118080000Y-120900000D02*
X118080000Y-122100000D01*
X116320000Y-122100000D02*
X116320000Y-120900000D01*
G04 #@! TO.C,C8*
X81750000Y-90700000D02*
X81750000Y-91400000D01*
X80550000Y-91400000D02*
X80550000Y-90700000D01*
D10*
G04 #@! TO.C,J14*
X71120000Y-113850000D02*
X71120000Y-98150000D01*
X79730000Y-113850000D02*
X79730000Y-98150000D01*
X79730000Y-98150000D02*
X69520000Y-98150000D01*
X69520000Y-98150000D02*
X69520000Y-113850000D01*
X69520000Y-113850000D02*
X79730000Y-113850000D01*
D11*
G04 #@! TO.C,R5*
X126430000Y-114800000D02*
X126430000Y-116000000D01*
X124670000Y-116000000D02*
X124670000Y-114800000D01*
G04 #@! TO.C,R19*
X93630000Y-119750000D02*
X93630000Y-120950000D01*
X91870000Y-120950000D02*
X91870000Y-119750000D01*
D10*
G04 #@! TO.C,U5*
X114825000Y-119600000D02*
X115900000Y-119600000D01*
X114825000Y-116525000D02*
X111575000Y-116525000D01*
X114825000Y-119775000D02*
X111575000Y-119775000D01*
X114825000Y-116525000D02*
X114825000Y-116800000D01*
X111575000Y-116525000D02*
X111575000Y-116800000D01*
X111575000Y-119775000D02*
X111575000Y-119500000D01*
X114825000Y-119775000D02*
X114825000Y-119600000D01*
D11*
G04 #@! TO.C,C9*
X92950000Y-96030000D02*
X94950000Y-96030000D01*
X94950000Y-93070000D02*
X92950000Y-93070000D01*
G04 #@! TO.C,C11*
X107950000Y-116700000D02*
X107950000Y-117700000D01*
X109650000Y-117700000D02*
X109650000Y-116700000D01*
G04 #@! TO.C,J4*
X85670000Y-55330000D02*
X85670000Y-54000000D01*
X87000000Y-55330000D02*
X85670000Y-55330000D01*
X88270000Y-55330000D02*
X88270000Y-52670000D01*
X88270000Y-52670000D02*
X93410000Y-52670000D01*
X88270000Y-55330000D02*
X93410000Y-55330000D01*
X93410000Y-55330000D02*
X93410000Y-52670000D01*
G04 #@! TO.C,J6*
X94670000Y-55330000D02*
X94670000Y-54000000D01*
X96000000Y-55330000D02*
X94670000Y-55330000D01*
X97270000Y-55330000D02*
X97270000Y-52670000D01*
X97270000Y-52670000D02*
X102410000Y-52670000D01*
X97270000Y-55330000D02*
X102410000Y-55330000D01*
X102410000Y-55330000D02*
X102410000Y-52670000D01*
D10*
G04 #@! TO.C,J18*
X83120000Y-113850000D02*
X83120000Y-98150000D01*
X91730000Y-113850000D02*
X91730000Y-98150000D01*
X91730000Y-98150000D02*
X81520000Y-98150000D01*
X81520000Y-98150000D02*
X81520000Y-113850000D01*
X81520000Y-113850000D02*
X91730000Y-113850000D01*
G04 #@! TO.C,J19*
X95120000Y-113850000D02*
X95120000Y-98150000D01*
X103730000Y-113850000D02*
X103730000Y-98150000D01*
X103730000Y-98150000D02*
X93520000Y-98150000D01*
X93520000Y-98150000D02*
X93520000Y-113850000D01*
X93520000Y-113850000D02*
X103730000Y-113850000D01*
D11*
G04 #@! TO.C,R7*
X132630000Y-114775000D02*
X132630000Y-115975000D01*
X130870000Y-115975000D02*
X130870000Y-114775000D01*
G04 #@! TO.C,U6*
D10*
X91988095Y-87452380D02*
X91988095Y-88261904D01*
X92035714Y-88357142D01*
X92083333Y-88404761D01*
X92178571Y-88452380D01*
X92369047Y-88452380D01*
X92464285Y-88404761D01*
X92511904Y-88357142D01*
X92559523Y-88261904D01*
X92559523Y-87452380D01*
X93464285Y-87452380D02*
X93273809Y-87452380D01*
X93178571Y-87500000D01*
X93130952Y-87547619D01*
X93035714Y-87690476D01*
X92988095Y-87880952D01*
X92988095Y-88261904D01*
X93035714Y-88357142D01*
X93083333Y-88404761D01*
X93178571Y-88452380D01*
X93369047Y-88452380D01*
X93464285Y-88404761D01*
X93511904Y-88357142D01*
X93559523Y-88261904D01*
X93559523Y-88023809D01*
X93511904Y-87928571D01*
X93464285Y-87880952D01*
X93369047Y-87833333D01*
X93178571Y-87833333D01*
X93083333Y-87880952D01*
X93035714Y-87928571D01*
X92988095Y-88023809D01*
G04 #@! TO.C,U4*
X75838095Y-86452380D02*
X75838095Y-87261904D01*
X75885714Y-87357142D01*
X75933333Y-87404761D01*
X76028571Y-87452380D01*
X76219047Y-87452380D01*
X76314285Y-87404761D01*
X76361904Y-87357142D01*
X76409523Y-87261904D01*
X76409523Y-86452380D01*
X77314285Y-86785714D02*
X77314285Y-87452380D01*
X77076190Y-86404761D02*
X76838095Y-87119047D01*
X77457142Y-87119047D01*
G04 #@! TO.C,C16*
X121557142Y-67682142D02*
X121509523Y-67729761D01*
X121366666Y-67777380D01*
X121271428Y-67777380D01*
X121128571Y-67729761D01*
X121033333Y-67634523D01*
X120985714Y-67539285D01*
X120938095Y-67348809D01*
X120938095Y-67205952D01*
X120985714Y-67015476D01*
X121033333Y-66920238D01*
X121128571Y-66825000D01*
X121271428Y-66777380D01*
X121366666Y-66777380D01*
X121509523Y-66825000D01*
X121557142Y-66872619D01*
X122509523Y-67777380D02*
X121938095Y-67777380D01*
X122223809Y-67777380D02*
X122223809Y-66777380D01*
X122128571Y-66920238D01*
X122033333Y-67015476D01*
X121938095Y-67063095D01*
X123366666Y-66777380D02*
X123176190Y-66777380D01*
X123080952Y-66825000D01*
X123033333Y-66872619D01*
X122938095Y-67015476D01*
X122890476Y-67205952D01*
X122890476Y-67586904D01*
X122938095Y-67682142D01*
X122985714Y-67729761D01*
X123080952Y-67777380D01*
X123271428Y-67777380D01*
X123366666Y-67729761D01*
X123414285Y-67682142D01*
X123461904Y-67586904D01*
X123461904Y-67348809D01*
X123414285Y-67253571D01*
X123366666Y-67205952D01*
X123271428Y-67158333D01*
X123080952Y-67158333D01*
X122985714Y-67205952D01*
X122938095Y-67253571D01*
X122890476Y-67348809D01*
G04 #@! TO.C,J24*
X122365476Y-50652380D02*
X122365476Y-51366666D01*
X122317857Y-51509523D01*
X122222619Y-51604761D01*
X122079761Y-51652380D01*
X121984523Y-51652380D01*
X122794047Y-50747619D02*
X122841666Y-50700000D01*
X122936904Y-50652380D01*
X123175000Y-50652380D01*
X123270238Y-50700000D01*
X123317857Y-50747619D01*
X123365476Y-50842857D01*
X123365476Y-50938095D01*
X123317857Y-51080952D01*
X122746428Y-51652380D01*
X123365476Y-51652380D01*
X124222619Y-50985714D02*
X124222619Y-51652380D01*
X123984523Y-50604761D02*
X123746428Y-51319047D01*
X124365476Y-51319047D01*
G04 #@! TO.C,L1*
X80983333Y-85152380D02*
X80507142Y-85152380D01*
X80507142Y-84152380D01*
X81840476Y-85152380D02*
X81269047Y-85152380D01*
X81554761Y-85152380D02*
X81554761Y-84152380D01*
X81459523Y-84295238D01*
X81364285Y-84390476D01*
X81269047Y-84438095D01*
G04 #@! TO.C,J20*
X72040476Y-68152380D02*
X72040476Y-68866666D01*
X71992857Y-69009523D01*
X71897619Y-69104761D01*
X71754761Y-69152380D01*
X71659523Y-69152380D01*
X72469047Y-68247619D02*
X72516666Y-68200000D01*
X72611904Y-68152380D01*
X72850000Y-68152380D01*
X72945238Y-68200000D01*
X72992857Y-68247619D01*
X73040476Y-68342857D01*
X73040476Y-68438095D01*
X72992857Y-68580952D01*
X72421428Y-69152380D01*
X73040476Y-69152380D01*
X73659523Y-68152380D02*
X73754761Y-68152380D01*
X73850000Y-68200000D01*
X73897619Y-68247619D01*
X73945238Y-68342857D01*
X73992857Y-68533333D01*
X73992857Y-68771428D01*
X73945238Y-68961904D01*
X73897619Y-69057142D01*
X73850000Y-69104761D01*
X73754761Y-69152380D01*
X73659523Y-69152380D01*
X73564285Y-69104761D01*
X73516666Y-69057142D01*
X73469047Y-68961904D01*
X73421428Y-68771428D01*
X73421428Y-68533333D01*
X73469047Y-68342857D01*
X73516666Y-68247619D01*
X73564285Y-68200000D01*
X73659523Y-68152380D01*
G04 #@! TO.C,U3*
X119738095Y-80442380D02*
X119738095Y-81251904D01*
X119785714Y-81347142D01*
X119833333Y-81394761D01*
X119928571Y-81442380D01*
X120119047Y-81442380D01*
X120214285Y-81394761D01*
X120261904Y-81347142D01*
X120309523Y-81251904D01*
X120309523Y-80442380D01*
X120690476Y-80442380D02*
X121309523Y-80442380D01*
X120976190Y-80823333D01*
X121119047Y-80823333D01*
X121214285Y-80870952D01*
X121261904Y-80918571D01*
X121309523Y-81013809D01*
X121309523Y-81251904D01*
X121261904Y-81347142D01*
X121214285Y-81394761D01*
X121119047Y-81442380D01*
X120833333Y-81442380D01*
X120738095Y-81394761D01*
X120690476Y-81347142D01*
X129834761Y-62662380D02*
X130168095Y-63662380D01*
X130501428Y-62662380D01*
X130834761Y-63662380D02*
X130834761Y-62662380D01*
X131310952Y-63662380D02*
X131310952Y-62662380D01*
X131882380Y-63662380D01*
X131882380Y-62662380D01*
X130168095Y-65250000D02*
X130072857Y-65202380D01*
X129930000Y-65202380D01*
X129787142Y-65250000D01*
X129691904Y-65345238D01*
X129644285Y-65440476D01*
X129596666Y-65630952D01*
X129596666Y-65773809D01*
X129644285Y-65964285D01*
X129691904Y-66059523D01*
X129787142Y-66154761D01*
X129930000Y-66202380D01*
X130025238Y-66202380D01*
X130168095Y-66154761D01*
X130215714Y-66107142D01*
X130215714Y-65773809D01*
X130025238Y-65773809D01*
X130644285Y-66202380D02*
X130644285Y-65202380D01*
X131215714Y-66202380D01*
X131215714Y-65202380D01*
X131691904Y-66202380D02*
X131691904Y-65202380D01*
X131930000Y-65202380D01*
X132072857Y-65250000D01*
X132168095Y-65345238D01*
X132215714Y-65440476D01*
X132263333Y-65630952D01*
X132263333Y-65773809D01*
X132215714Y-65964285D01*
X132168095Y-66059523D01*
X132072857Y-66154761D01*
X131930000Y-66202380D01*
X131691904Y-66202380D01*
X129715714Y-68742380D02*
X129715714Y-67742380D01*
X129953809Y-67742380D01*
X130096666Y-67790000D01*
X130191904Y-67885238D01*
X130239523Y-67980476D01*
X130287142Y-68170952D01*
X130287142Y-68313809D01*
X130239523Y-68504285D01*
X130191904Y-68599523D01*
X130096666Y-68694761D01*
X129953809Y-68742380D01*
X129715714Y-68742380D01*
X131239523Y-68742380D02*
X130668095Y-68742380D01*
X130953809Y-68742380D02*
X130953809Y-67742380D01*
X130858571Y-67885238D01*
X130763333Y-67980476D01*
X130668095Y-68028095D01*
X131572857Y-67742380D02*
X132191904Y-67742380D01*
X131858571Y-68123333D01*
X132001428Y-68123333D01*
X132096666Y-68170952D01*
X132144285Y-68218571D01*
X132191904Y-68313809D01*
X132191904Y-68551904D01*
X132144285Y-68647142D01*
X132096666Y-68694761D01*
X132001428Y-68742380D01*
X131715714Y-68742380D01*
X131620476Y-68694761D01*
X131572857Y-68647142D01*
X129715714Y-71282380D02*
X129715714Y-70282380D01*
X129953809Y-70282380D01*
X130096666Y-70330000D01*
X130191904Y-70425238D01*
X130239523Y-70520476D01*
X130287142Y-70710952D01*
X130287142Y-70853809D01*
X130239523Y-71044285D01*
X130191904Y-71139523D01*
X130096666Y-71234761D01*
X129953809Y-71282380D01*
X129715714Y-71282380D01*
X131239523Y-71282380D02*
X130668095Y-71282380D01*
X130953809Y-71282380D02*
X130953809Y-70282380D01*
X130858571Y-70425238D01*
X130763333Y-70520476D01*
X130668095Y-70568095D01*
X131620476Y-70377619D02*
X131668095Y-70330000D01*
X131763333Y-70282380D01*
X132001428Y-70282380D01*
X132096666Y-70330000D01*
X132144285Y-70377619D01*
X132191904Y-70472857D01*
X132191904Y-70568095D01*
X132144285Y-70710952D01*
X131572857Y-71282380D01*
X132191904Y-71282380D01*
X129715714Y-73822380D02*
X129715714Y-72822380D01*
X129953809Y-72822380D01*
X130096666Y-72870000D01*
X130191904Y-72965238D01*
X130239523Y-73060476D01*
X130287142Y-73250952D01*
X130287142Y-73393809D01*
X130239523Y-73584285D01*
X130191904Y-73679523D01*
X130096666Y-73774761D01*
X129953809Y-73822380D01*
X129715714Y-73822380D01*
X131239523Y-73822380D02*
X130668095Y-73822380D01*
X130953809Y-73822380D02*
X130953809Y-72822380D01*
X130858571Y-72965238D01*
X130763333Y-73060476D01*
X130668095Y-73108095D01*
X132096666Y-73155714D02*
X132096666Y-73822380D01*
X131858571Y-72774761D02*
X131620476Y-73489047D01*
X132239523Y-73489047D01*
X129715714Y-76362380D02*
X129715714Y-75362380D01*
X129953809Y-75362380D01*
X130096666Y-75410000D01*
X130191904Y-75505238D01*
X130239523Y-75600476D01*
X130287142Y-75790952D01*
X130287142Y-75933809D01*
X130239523Y-76124285D01*
X130191904Y-76219523D01*
X130096666Y-76314761D01*
X129953809Y-76362380D01*
X129715714Y-76362380D01*
X130668095Y-75457619D02*
X130715714Y-75410000D01*
X130810952Y-75362380D01*
X131049047Y-75362380D01*
X131144285Y-75410000D01*
X131191904Y-75457619D01*
X131239523Y-75552857D01*
X131239523Y-75648095D01*
X131191904Y-75790952D01*
X130620476Y-76362380D01*
X131239523Y-76362380D01*
X131572857Y-75362380D02*
X132239523Y-75362380D01*
X131810952Y-76362380D01*
X129715714Y-78902380D02*
X129715714Y-77902380D01*
X129953809Y-77902380D01*
X130096666Y-77950000D01*
X130191904Y-78045238D01*
X130239523Y-78140476D01*
X130287142Y-78330952D01*
X130287142Y-78473809D01*
X130239523Y-78664285D01*
X130191904Y-78759523D01*
X130096666Y-78854761D01*
X129953809Y-78902380D01*
X129715714Y-78902380D01*
X130668095Y-77997619D02*
X130715714Y-77950000D01*
X130810952Y-77902380D01*
X131049047Y-77902380D01*
X131144285Y-77950000D01*
X131191904Y-77997619D01*
X131239523Y-78092857D01*
X131239523Y-78188095D01*
X131191904Y-78330952D01*
X130620476Y-78902380D01*
X131239523Y-78902380D01*
X132096666Y-77902380D02*
X131906190Y-77902380D01*
X131810952Y-77950000D01*
X131763333Y-77997619D01*
X131668095Y-78140476D01*
X131620476Y-78330952D01*
X131620476Y-78711904D01*
X131668095Y-78807142D01*
X131715714Y-78854761D01*
X131810952Y-78902380D01*
X132001428Y-78902380D01*
X132096666Y-78854761D01*
X132144285Y-78807142D01*
X132191904Y-78711904D01*
X132191904Y-78473809D01*
X132144285Y-78378571D01*
X132096666Y-78330952D01*
X132001428Y-78283333D01*
X131810952Y-78283333D01*
X131715714Y-78330952D01*
X131668095Y-78378571D01*
X131620476Y-78473809D01*
X129715714Y-81442380D02*
X129715714Y-80442380D01*
X129953809Y-80442380D01*
X130096666Y-80490000D01*
X130191904Y-80585238D01*
X130239523Y-80680476D01*
X130287142Y-80870952D01*
X130287142Y-81013809D01*
X130239523Y-81204285D01*
X130191904Y-81299523D01*
X130096666Y-81394761D01*
X129953809Y-81442380D01*
X129715714Y-81442380D01*
X130668095Y-80537619D02*
X130715714Y-80490000D01*
X130810952Y-80442380D01*
X131049047Y-80442380D01*
X131144285Y-80490000D01*
X131191904Y-80537619D01*
X131239523Y-80632857D01*
X131239523Y-80728095D01*
X131191904Y-80870952D01*
X130620476Y-81442380D01*
X131239523Y-81442380D01*
X132144285Y-80442380D02*
X131668095Y-80442380D01*
X131620476Y-80918571D01*
X131668095Y-80870952D01*
X131763333Y-80823333D01*
X132001428Y-80823333D01*
X132096666Y-80870952D01*
X132144285Y-80918571D01*
X132191904Y-81013809D01*
X132191904Y-81251904D01*
X132144285Y-81347142D01*
X132096666Y-81394761D01*
X132001428Y-81442380D01*
X131763333Y-81442380D01*
X131668095Y-81394761D01*
X131620476Y-81347142D01*
X129715714Y-83982380D02*
X129715714Y-82982380D01*
X129953809Y-82982380D01*
X130096666Y-83030000D01*
X130191904Y-83125238D01*
X130239523Y-83220476D01*
X130287142Y-83410952D01*
X130287142Y-83553809D01*
X130239523Y-83744285D01*
X130191904Y-83839523D01*
X130096666Y-83934761D01*
X129953809Y-83982380D01*
X129715714Y-83982380D01*
X130620476Y-82982380D02*
X131239523Y-82982380D01*
X130906190Y-83363333D01*
X131049047Y-83363333D01*
X131144285Y-83410952D01*
X131191904Y-83458571D01*
X131239523Y-83553809D01*
X131239523Y-83791904D01*
X131191904Y-83887142D01*
X131144285Y-83934761D01*
X131049047Y-83982380D01*
X130763333Y-83982380D01*
X130668095Y-83934761D01*
X130620476Y-83887142D01*
X131572857Y-82982380D02*
X132191904Y-82982380D01*
X131858571Y-83363333D01*
X132001428Y-83363333D01*
X132096666Y-83410952D01*
X132144285Y-83458571D01*
X132191904Y-83553809D01*
X132191904Y-83791904D01*
X132144285Y-83887142D01*
X132096666Y-83934761D01*
X132001428Y-83982380D01*
X131715714Y-83982380D01*
X131620476Y-83934761D01*
X131572857Y-83887142D01*
X129715714Y-86522380D02*
X129715714Y-85522380D01*
X129953809Y-85522380D01*
X130096666Y-85570000D01*
X130191904Y-85665238D01*
X130239523Y-85760476D01*
X130287142Y-85950952D01*
X130287142Y-86093809D01*
X130239523Y-86284285D01*
X130191904Y-86379523D01*
X130096666Y-86474761D01*
X129953809Y-86522380D01*
X129715714Y-86522380D01*
X130620476Y-85522380D02*
X131239523Y-85522380D01*
X130906190Y-85903333D01*
X131049047Y-85903333D01*
X131144285Y-85950952D01*
X131191904Y-85998571D01*
X131239523Y-86093809D01*
X131239523Y-86331904D01*
X131191904Y-86427142D01*
X131144285Y-86474761D01*
X131049047Y-86522380D01*
X130763333Y-86522380D01*
X130668095Y-86474761D01*
X130620476Y-86427142D01*
X131620476Y-85617619D02*
X131668095Y-85570000D01*
X131763333Y-85522380D01*
X132001428Y-85522380D01*
X132096666Y-85570000D01*
X132144285Y-85617619D01*
X132191904Y-85712857D01*
X132191904Y-85808095D01*
X132144285Y-85950952D01*
X131572857Y-86522380D01*
X132191904Y-86522380D01*
X129715714Y-89062380D02*
X129715714Y-88062380D01*
X129953809Y-88062380D01*
X130096666Y-88110000D01*
X130191904Y-88205238D01*
X130239523Y-88300476D01*
X130287142Y-88490952D01*
X130287142Y-88633809D01*
X130239523Y-88824285D01*
X130191904Y-88919523D01*
X130096666Y-89014761D01*
X129953809Y-89062380D01*
X129715714Y-89062380D01*
X130620476Y-88062380D02*
X131239523Y-88062380D01*
X130906190Y-88443333D01*
X131049047Y-88443333D01*
X131144285Y-88490952D01*
X131191904Y-88538571D01*
X131239523Y-88633809D01*
X131239523Y-88871904D01*
X131191904Y-88967142D01*
X131144285Y-89014761D01*
X131049047Y-89062380D01*
X130763333Y-89062380D01*
X130668095Y-89014761D01*
X130620476Y-88967142D01*
X132144285Y-88062380D02*
X131668095Y-88062380D01*
X131620476Y-88538571D01*
X131668095Y-88490952D01*
X131763333Y-88443333D01*
X132001428Y-88443333D01*
X132096666Y-88490952D01*
X132144285Y-88538571D01*
X132191904Y-88633809D01*
X132191904Y-88871904D01*
X132144285Y-88967142D01*
X132096666Y-89014761D01*
X132001428Y-89062380D01*
X131763333Y-89062380D01*
X131668095Y-89014761D01*
X131620476Y-88967142D01*
X129715714Y-91602380D02*
X129715714Y-90602380D01*
X129953809Y-90602380D01*
X130096666Y-90650000D01*
X130191904Y-90745238D01*
X130239523Y-90840476D01*
X130287142Y-91030952D01*
X130287142Y-91173809D01*
X130239523Y-91364285D01*
X130191904Y-91459523D01*
X130096666Y-91554761D01*
X129953809Y-91602380D01*
X129715714Y-91602380D01*
X130620476Y-90602380D02*
X131239523Y-90602380D01*
X130906190Y-90983333D01*
X131049047Y-90983333D01*
X131144285Y-91030952D01*
X131191904Y-91078571D01*
X131239523Y-91173809D01*
X131239523Y-91411904D01*
X131191904Y-91507142D01*
X131144285Y-91554761D01*
X131049047Y-91602380D01*
X130763333Y-91602380D01*
X130668095Y-91554761D01*
X130620476Y-91507142D01*
X132096666Y-90935714D02*
X132096666Y-91602380D01*
X131858571Y-90554761D02*
X131620476Y-91269047D01*
X132239523Y-91269047D01*
X130072857Y-93142380D02*
X130406190Y-94142380D01*
X130739523Y-93142380D01*
X131072857Y-94142380D02*
X131072857Y-93142380D01*
X131644285Y-94142380D01*
X131644285Y-93142380D01*
X130096666Y-95682380D02*
X130430000Y-96682380D01*
X130763333Y-95682380D01*
X131096666Y-96682380D02*
X131096666Y-95682380D01*
X131477619Y-95682380D01*
X131572857Y-95730000D01*
X131620476Y-95777619D01*
X131668095Y-95872857D01*
X131668095Y-96015714D01*
X131620476Y-96110952D01*
X131572857Y-96158571D01*
X131477619Y-96206190D01*
X131096666Y-96206190D01*
X130191904Y-98698571D02*
X130525238Y-98698571D01*
X130668095Y-99222380D02*
X130191904Y-99222380D01*
X130191904Y-98222380D01*
X130668095Y-98222380D01*
X131096666Y-99222380D02*
X131096666Y-98222380D01*
X131668095Y-99222380D01*
X131668095Y-98222380D01*
X109101904Y-62662380D02*
X109720952Y-62662380D01*
X109387619Y-63043333D01*
X109530476Y-63043333D01*
X109625714Y-63090952D01*
X109673333Y-63138571D01*
X109720952Y-63233809D01*
X109720952Y-63471904D01*
X109673333Y-63567142D01*
X109625714Y-63614761D01*
X109530476Y-63662380D01*
X109244761Y-63662380D01*
X109149523Y-63614761D01*
X109101904Y-63567142D01*
X110006666Y-62662380D02*
X110340000Y-63662380D01*
X110673333Y-62662380D01*
X110911428Y-62662380D02*
X111530476Y-62662380D01*
X111197142Y-63043333D01*
X111340000Y-63043333D01*
X111435238Y-63090952D01*
X111482857Y-63138571D01*
X111530476Y-63233809D01*
X111530476Y-63471904D01*
X111482857Y-63567142D01*
X111435238Y-63614761D01*
X111340000Y-63662380D01*
X111054285Y-63662380D01*
X110959047Y-63614761D01*
X110911428Y-63567142D01*
X109578095Y-65250000D02*
X109482857Y-65202380D01*
X109340000Y-65202380D01*
X109197142Y-65250000D01*
X109101904Y-65345238D01*
X109054285Y-65440476D01*
X109006666Y-65630952D01*
X109006666Y-65773809D01*
X109054285Y-65964285D01*
X109101904Y-66059523D01*
X109197142Y-66154761D01*
X109340000Y-66202380D01*
X109435238Y-66202380D01*
X109578095Y-66154761D01*
X109625714Y-66107142D01*
X109625714Y-65773809D01*
X109435238Y-65773809D01*
X110054285Y-66202380D02*
X110054285Y-65202380D01*
X110625714Y-66202380D01*
X110625714Y-65202380D01*
X111101904Y-66202380D02*
X111101904Y-65202380D01*
X111340000Y-65202380D01*
X111482857Y-65250000D01*
X111578095Y-65345238D01*
X111625714Y-65440476D01*
X111673333Y-65630952D01*
X111673333Y-65773809D01*
X111625714Y-65964285D01*
X111578095Y-66059523D01*
X111482857Y-66154761D01*
X111340000Y-66202380D01*
X111101904Y-66202380D01*
X109125714Y-68742380D02*
X109125714Y-67742380D01*
X109363809Y-67742380D01*
X109506666Y-67790000D01*
X109601904Y-67885238D01*
X109649523Y-67980476D01*
X109697142Y-68170952D01*
X109697142Y-68313809D01*
X109649523Y-68504285D01*
X109601904Y-68599523D01*
X109506666Y-68694761D01*
X109363809Y-68742380D01*
X109125714Y-68742380D01*
X110649523Y-68742380D02*
X110078095Y-68742380D01*
X110363809Y-68742380D02*
X110363809Y-67742380D01*
X110268571Y-67885238D01*
X110173333Y-67980476D01*
X110078095Y-68028095D01*
X111554285Y-67742380D02*
X111078095Y-67742380D01*
X111030476Y-68218571D01*
X111078095Y-68170952D01*
X111173333Y-68123333D01*
X111411428Y-68123333D01*
X111506666Y-68170952D01*
X111554285Y-68218571D01*
X111601904Y-68313809D01*
X111601904Y-68551904D01*
X111554285Y-68647142D01*
X111506666Y-68694761D01*
X111411428Y-68742380D01*
X111173333Y-68742380D01*
X111078095Y-68694761D01*
X111030476Y-68647142D01*
X109601904Y-71282380D02*
X109601904Y-70282380D01*
X109840000Y-70282380D01*
X109982857Y-70330000D01*
X110078095Y-70425238D01*
X110125714Y-70520476D01*
X110173333Y-70710952D01*
X110173333Y-70853809D01*
X110125714Y-71044285D01*
X110078095Y-71139523D01*
X109982857Y-71234761D01*
X109840000Y-71282380D01*
X109601904Y-71282380D01*
X110554285Y-70377619D02*
X110601904Y-70330000D01*
X110697142Y-70282380D01*
X110935238Y-70282380D01*
X111030476Y-70330000D01*
X111078095Y-70377619D01*
X111125714Y-70472857D01*
X111125714Y-70568095D01*
X111078095Y-70710952D01*
X110506666Y-71282380D01*
X111125714Y-71282380D01*
X109601904Y-73822380D02*
X109601904Y-72822380D01*
X109840000Y-72822380D01*
X109982857Y-72870000D01*
X110078095Y-72965238D01*
X110125714Y-73060476D01*
X110173333Y-73250952D01*
X110173333Y-73393809D01*
X110125714Y-73584285D01*
X110078095Y-73679523D01*
X109982857Y-73774761D01*
X109840000Y-73822380D01*
X109601904Y-73822380D01*
X111030476Y-73155714D02*
X111030476Y-73822380D01*
X110792380Y-72774761D02*
X110554285Y-73489047D01*
X111173333Y-73489047D01*
X109697142Y-76362380D02*
X109363809Y-75886190D01*
X109125714Y-76362380D02*
X109125714Y-75362380D01*
X109506666Y-75362380D01*
X109601904Y-75410000D01*
X109649523Y-75457619D01*
X109697142Y-75552857D01*
X109697142Y-75695714D01*
X109649523Y-75790952D01*
X109601904Y-75838571D01*
X109506666Y-75886190D01*
X109125714Y-75886190D01*
X110030476Y-75362380D02*
X110697142Y-76362380D01*
X110697142Y-75362380D02*
X110030476Y-76362380D01*
X111030476Y-75457619D02*
X111078095Y-75410000D01*
X111173333Y-75362380D01*
X111411428Y-75362380D01*
X111506666Y-75410000D01*
X111554285Y-75457619D01*
X111601904Y-75552857D01*
X111601904Y-75648095D01*
X111554285Y-75790952D01*
X110982857Y-76362380D01*
X111601904Y-76362380D01*
X109101904Y-77902380D02*
X109673333Y-77902380D01*
X109387619Y-78902380D02*
X109387619Y-77902380D01*
X109911428Y-77902380D02*
X110578095Y-78902380D01*
X110578095Y-77902380D02*
X109911428Y-78902380D01*
X110911428Y-77997619D02*
X110959047Y-77950000D01*
X111054285Y-77902380D01*
X111292380Y-77902380D01*
X111387619Y-77950000D01*
X111435238Y-77997619D01*
X111482857Y-78092857D01*
X111482857Y-78188095D01*
X111435238Y-78330952D01*
X110863809Y-78902380D01*
X111482857Y-78902380D01*
X109601904Y-81442380D02*
X109601904Y-80442380D01*
X109840000Y-80442380D01*
X109982857Y-80490000D01*
X110078095Y-80585238D01*
X110125714Y-80680476D01*
X110173333Y-80870952D01*
X110173333Y-81013809D01*
X110125714Y-81204285D01*
X110078095Y-81299523D01*
X109982857Y-81394761D01*
X109840000Y-81442380D01*
X109601904Y-81442380D01*
X111078095Y-80442380D02*
X110601904Y-80442380D01*
X110554285Y-80918571D01*
X110601904Y-80870952D01*
X110697142Y-80823333D01*
X110935238Y-80823333D01*
X111030476Y-80870952D01*
X111078095Y-80918571D01*
X111125714Y-81013809D01*
X111125714Y-81251904D01*
X111078095Y-81347142D01*
X111030476Y-81394761D01*
X110935238Y-81442380D01*
X110697142Y-81442380D01*
X110601904Y-81394761D01*
X110554285Y-81347142D01*
X109125714Y-83982380D02*
X109125714Y-82982380D01*
X109363809Y-82982380D01*
X109506666Y-83030000D01*
X109601904Y-83125238D01*
X109649523Y-83220476D01*
X109697142Y-83410952D01*
X109697142Y-83553809D01*
X109649523Y-83744285D01*
X109601904Y-83839523D01*
X109506666Y-83934761D01*
X109363809Y-83982380D01*
X109125714Y-83982380D01*
X110649523Y-83982380D02*
X110078095Y-83982380D01*
X110363809Y-83982380D02*
X110363809Y-82982380D01*
X110268571Y-83125238D01*
X110173333Y-83220476D01*
X110078095Y-83268095D01*
X111220952Y-83410952D02*
X111125714Y-83363333D01*
X111078095Y-83315714D01*
X111030476Y-83220476D01*
X111030476Y-83172857D01*
X111078095Y-83077619D01*
X111125714Y-83030000D01*
X111220952Y-82982380D01*
X111411428Y-82982380D01*
X111506666Y-83030000D01*
X111554285Y-83077619D01*
X111601904Y-83172857D01*
X111601904Y-83220476D01*
X111554285Y-83315714D01*
X111506666Y-83363333D01*
X111411428Y-83410952D01*
X111220952Y-83410952D01*
X111125714Y-83458571D01*
X111078095Y-83506190D01*
X111030476Y-83601428D01*
X111030476Y-83791904D01*
X111078095Y-83887142D01*
X111125714Y-83934761D01*
X111220952Y-83982380D01*
X111411428Y-83982380D01*
X111506666Y-83934761D01*
X111554285Y-83887142D01*
X111601904Y-83791904D01*
X111601904Y-83601428D01*
X111554285Y-83506190D01*
X111506666Y-83458571D01*
X111411428Y-83410952D01*
X109125714Y-86522380D02*
X109125714Y-85522380D01*
X109363809Y-85522380D01*
X109506666Y-85570000D01*
X109601904Y-85665238D01*
X109649523Y-85760476D01*
X109697142Y-85950952D01*
X109697142Y-86093809D01*
X109649523Y-86284285D01*
X109601904Y-86379523D01*
X109506666Y-86474761D01*
X109363809Y-86522380D01*
X109125714Y-86522380D01*
X110649523Y-86522380D02*
X110078095Y-86522380D01*
X110363809Y-86522380D02*
X110363809Y-85522380D01*
X110268571Y-85665238D01*
X110173333Y-85760476D01*
X110078095Y-85808095D01*
X111125714Y-86522380D02*
X111316190Y-86522380D01*
X111411428Y-86474761D01*
X111459047Y-86427142D01*
X111554285Y-86284285D01*
X111601904Y-86093809D01*
X111601904Y-85712857D01*
X111554285Y-85617619D01*
X111506666Y-85570000D01*
X111411428Y-85522380D01*
X111220952Y-85522380D01*
X111125714Y-85570000D01*
X111078095Y-85617619D01*
X111030476Y-85712857D01*
X111030476Y-85950952D01*
X111078095Y-86046190D01*
X111125714Y-86093809D01*
X111220952Y-86141428D01*
X111411428Y-86141428D01*
X111506666Y-86093809D01*
X111554285Y-86046190D01*
X111601904Y-85950952D01*
X109125714Y-89062380D02*
X109125714Y-88062380D01*
X109363809Y-88062380D01*
X109506666Y-88110000D01*
X109601904Y-88205238D01*
X109649523Y-88300476D01*
X109697142Y-88490952D01*
X109697142Y-88633809D01*
X109649523Y-88824285D01*
X109601904Y-88919523D01*
X109506666Y-89014761D01*
X109363809Y-89062380D01*
X109125714Y-89062380D01*
X110078095Y-88157619D02*
X110125714Y-88110000D01*
X110220952Y-88062380D01*
X110459047Y-88062380D01*
X110554285Y-88110000D01*
X110601904Y-88157619D01*
X110649523Y-88252857D01*
X110649523Y-88348095D01*
X110601904Y-88490952D01*
X110030476Y-89062380D01*
X110649523Y-89062380D01*
X111601904Y-89062380D02*
X111030476Y-89062380D01*
X111316190Y-89062380D02*
X111316190Y-88062380D01*
X111220952Y-88205238D01*
X111125714Y-88300476D01*
X111030476Y-88348095D01*
X109697142Y-91602380D02*
X109363809Y-91126190D01*
X109125714Y-91602380D02*
X109125714Y-90602380D01*
X109506666Y-90602380D01*
X109601904Y-90650000D01*
X109649523Y-90697619D01*
X109697142Y-90792857D01*
X109697142Y-90935714D01*
X109649523Y-91030952D01*
X109601904Y-91078571D01*
X109506666Y-91126190D01*
X109125714Y-91126190D01*
X110030476Y-90602380D02*
X110697142Y-91602380D01*
X110697142Y-90602380D02*
X110030476Y-91602380D01*
X111268571Y-90602380D02*
X111363809Y-90602380D01*
X111459047Y-90650000D01*
X111506666Y-90697619D01*
X111554285Y-90792857D01*
X111601904Y-90983333D01*
X111601904Y-91221428D01*
X111554285Y-91411904D01*
X111506666Y-91507142D01*
X111459047Y-91554761D01*
X111363809Y-91602380D01*
X111268571Y-91602380D01*
X111173333Y-91554761D01*
X111125714Y-91507142D01*
X111078095Y-91411904D01*
X111030476Y-91221428D01*
X111030476Y-90983333D01*
X111078095Y-90792857D01*
X111125714Y-90697619D01*
X111173333Y-90650000D01*
X111268571Y-90602380D01*
X109101904Y-93142380D02*
X109673333Y-93142380D01*
X109387619Y-94142380D02*
X109387619Y-93142380D01*
X109911428Y-93142380D02*
X110578095Y-94142380D01*
X110578095Y-93142380D02*
X109911428Y-94142380D01*
X111149523Y-93142380D02*
X111244761Y-93142380D01*
X111340000Y-93190000D01*
X111387619Y-93237619D01*
X111435238Y-93332857D01*
X111482857Y-93523333D01*
X111482857Y-93761428D01*
X111435238Y-93951904D01*
X111387619Y-94047142D01*
X111340000Y-94094761D01*
X111244761Y-94142380D01*
X111149523Y-94142380D01*
X111054285Y-94094761D01*
X111006666Y-94047142D01*
X110959047Y-93951904D01*
X110911428Y-93761428D01*
X110911428Y-93523333D01*
X110959047Y-93332857D01*
X111006666Y-93237619D01*
X111054285Y-93190000D01*
X111149523Y-93142380D01*
X109125714Y-96682380D02*
X109125714Y-95682380D01*
X109363809Y-95682380D01*
X109506666Y-95730000D01*
X109601904Y-95825238D01*
X109649523Y-95920476D01*
X109697142Y-96110952D01*
X109697142Y-96253809D01*
X109649523Y-96444285D01*
X109601904Y-96539523D01*
X109506666Y-96634761D01*
X109363809Y-96682380D01*
X109125714Y-96682380D01*
X110078095Y-95777619D02*
X110125714Y-95730000D01*
X110220952Y-95682380D01*
X110459047Y-95682380D01*
X110554285Y-95730000D01*
X110601904Y-95777619D01*
X110649523Y-95872857D01*
X110649523Y-95968095D01*
X110601904Y-96110952D01*
X110030476Y-96682380D01*
X110649523Y-96682380D01*
X111030476Y-95777619D02*
X111078095Y-95730000D01*
X111173333Y-95682380D01*
X111411428Y-95682380D01*
X111506666Y-95730000D01*
X111554285Y-95777619D01*
X111601904Y-95872857D01*
X111601904Y-95968095D01*
X111554285Y-96110952D01*
X110982857Y-96682380D01*
X111601904Y-96682380D01*
X109125714Y-99222380D02*
X109125714Y-98222380D01*
X109363809Y-98222380D01*
X109506666Y-98270000D01*
X109601904Y-98365238D01*
X109649523Y-98460476D01*
X109697142Y-98650952D01*
X109697142Y-98793809D01*
X109649523Y-98984285D01*
X109601904Y-99079523D01*
X109506666Y-99174761D01*
X109363809Y-99222380D01*
X109125714Y-99222380D01*
X110078095Y-98317619D02*
X110125714Y-98270000D01*
X110220952Y-98222380D01*
X110459047Y-98222380D01*
X110554285Y-98270000D01*
X110601904Y-98317619D01*
X110649523Y-98412857D01*
X110649523Y-98508095D01*
X110601904Y-98650952D01*
X110030476Y-99222380D01*
X110649523Y-99222380D01*
X110982857Y-98222380D02*
X111601904Y-98222380D01*
X111268571Y-98603333D01*
X111411428Y-98603333D01*
X111506666Y-98650952D01*
X111554285Y-98698571D01*
X111601904Y-98793809D01*
X111601904Y-99031904D01*
X111554285Y-99127142D01*
X111506666Y-99174761D01*
X111411428Y-99222380D01*
X111125714Y-99222380D01*
X111030476Y-99174761D01*
X110982857Y-99127142D01*
G04 #@! TO.C,J11*
X114190476Y-143252380D02*
X114190476Y-143966666D01*
X114142857Y-144109523D01*
X114047619Y-144204761D01*
X113904761Y-144252380D01*
X113809523Y-144252380D01*
X115190476Y-144252380D02*
X114619047Y-144252380D01*
X114904761Y-144252380D02*
X114904761Y-143252380D01*
X114809523Y-143395238D01*
X114714285Y-143490476D01*
X114619047Y-143538095D01*
X116142857Y-144252380D02*
X115571428Y-144252380D01*
X115857142Y-144252380D02*
X115857142Y-143252380D01*
X115761904Y-143395238D01*
X115666666Y-143490476D01*
X115571428Y-143538095D01*
G04 #@! TO.C,REF\002A\002A*
X139666666Y-52252380D02*
X139333333Y-51776190D01*
X139095238Y-52252380D02*
X139095238Y-51252380D01*
X139476190Y-51252380D01*
X139571428Y-51300000D01*
X139619047Y-51347619D01*
X139666666Y-51442857D01*
X139666666Y-51585714D01*
X139619047Y-51680952D01*
X139571428Y-51728571D01*
X139476190Y-51776190D01*
X139095238Y-51776190D01*
X140095238Y-51728571D02*
X140428571Y-51728571D01*
X140571428Y-52252380D02*
X140095238Y-52252380D01*
X140095238Y-51252380D01*
X140571428Y-51252380D01*
X141333333Y-51728571D02*
X141000000Y-51728571D01*
X141000000Y-52252380D02*
X141000000Y-51252380D01*
X141476190Y-51252380D01*
X142000000Y-51252380D02*
X142000000Y-51490476D01*
X141761904Y-51395238D02*
X142000000Y-51490476D01*
X142238095Y-51395238D01*
X141857142Y-51680952D02*
X142000000Y-51490476D01*
X142142857Y-51680952D01*
X142761904Y-51252380D02*
X142761904Y-51490476D01*
X142523809Y-51395238D02*
X142761904Y-51490476D01*
X143000000Y-51395238D01*
X142619047Y-51680952D02*
X142761904Y-51490476D01*
X142904761Y-51680952D01*
X139666666Y-137252380D02*
X139333333Y-136776190D01*
X139095238Y-137252380D02*
X139095238Y-136252380D01*
X139476190Y-136252380D01*
X139571428Y-136300000D01*
X139619047Y-136347619D01*
X139666666Y-136442857D01*
X139666666Y-136585714D01*
X139619047Y-136680952D01*
X139571428Y-136728571D01*
X139476190Y-136776190D01*
X139095238Y-136776190D01*
X140095238Y-136728571D02*
X140428571Y-136728571D01*
X140571428Y-137252380D02*
X140095238Y-137252380D01*
X140095238Y-136252380D01*
X140571428Y-136252380D01*
X141333333Y-136728571D02*
X141000000Y-136728571D01*
X141000000Y-137252380D02*
X141000000Y-136252380D01*
X141476190Y-136252380D01*
X142000000Y-136252380D02*
X142000000Y-136490476D01*
X141761904Y-136395238D02*
X142000000Y-136490476D01*
X142238095Y-136395238D01*
X141857142Y-136680952D02*
X142000000Y-136490476D01*
X142142857Y-136680952D01*
X142761904Y-136252380D02*
X142761904Y-136490476D01*
X142523809Y-136395238D02*
X142761904Y-136490476D01*
X143000000Y-136395238D01*
X142619047Y-136680952D02*
X142761904Y-136490476D01*
X142904761Y-136680952D01*
X70666666Y-137252380D02*
X70333333Y-136776190D01*
X70095238Y-137252380D02*
X70095238Y-136252380D01*
X70476190Y-136252380D01*
X70571428Y-136300000D01*
X70619047Y-136347619D01*
X70666666Y-136442857D01*
X70666666Y-136585714D01*
X70619047Y-136680952D01*
X70571428Y-136728571D01*
X70476190Y-136776190D01*
X70095238Y-136776190D01*
X71095238Y-136728571D02*
X71428571Y-136728571D01*
X71571428Y-137252380D02*
X71095238Y-137252380D01*
X71095238Y-136252380D01*
X71571428Y-136252380D01*
X72333333Y-136728571D02*
X72000000Y-136728571D01*
X72000000Y-137252380D02*
X72000000Y-136252380D01*
X72476190Y-136252380D01*
X73000000Y-136252380D02*
X73000000Y-136490476D01*
X72761904Y-136395238D02*
X73000000Y-136490476D01*
X73238095Y-136395238D01*
X72857142Y-136680952D02*
X73000000Y-136490476D01*
X73142857Y-136680952D01*
X73761904Y-136252380D02*
X73761904Y-136490476D01*
X73523809Y-136395238D02*
X73761904Y-136490476D01*
X74000000Y-136395238D01*
X73619047Y-136680952D02*
X73761904Y-136490476D01*
X73904761Y-136680952D01*
G04 #@! TO.C,C2*
X111107142Y-124166666D02*
X111154761Y-124214285D01*
X111202380Y-124357142D01*
X111202380Y-124452380D01*
X111154761Y-124595238D01*
X111059523Y-124690476D01*
X110964285Y-124738095D01*
X110773809Y-124785714D01*
X110630952Y-124785714D01*
X110440476Y-124738095D01*
X110345238Y-124690476D01*
X110250000Y-124595238D01*
X110202380Y-124452380D01*
X110202380Y-124357142D01*
X110250000Y-124214285D01*
X110297619Y-124166666D01*
X110297619Y-123785714D02*
X110250000Y-123738095D01*
X110202380Y-123642857D01*
X110202380Y-123404761D01*
X110250000Y-123309523D01*
X110297619Y-123261904D01*
X110392857Y-123214285D01*
X110488095Y-123214285D01*
X110630952Y-123261904D01*
X111202380Y-123833333D01*
X111202380Y-123214285D01*
G04 #@! TO.C,J9*
X88266666Y-135152380D02*
X88266666Y-135866666D01*
X88219047Y-136009523D01*
X88123809Y-136104761D01*
X87980952Y-136152380D01*
X87885714Y-136152380D01*
X88790476Y-136152380D02*
X88980952Y-136152380D01*
X89076190Y-136104761D01*
X89123809Y-136057142D01*
X89219047Y-135914285D01*
X89266666Y-135723809D01*
X89266666Y-135342857D01*
X89219047Y-135247619D01*
X89171428Y-135200000D01*
X89076190Y-135152380D01*
X88885714Y-135152380D01*
X88790476Y-135200000D01*
X88742857Y-135247619D01*
X88695238Y-135342857D01*
X88695238Y-135580952D01*
X88742857Y-135676190D01*
X88790476Y-135723809D01*
X88885714Y-135771428D01*
X89076190Y-135771428D01*
X89171428Y-135723809D01*
X89219047Y-135676190D01*
X89266666Y-135580952D01*
G04 #@! TO.C,J3*
X80422380Y-62783333D02*
X81136666Y-62783333D01*
X81279523Y-62830952D01*
X81374761Y-62926190D01*
X81422380Y-63069047D01*
X81422380Y-63164285D01*
X80422380Y-62402380D02*
X80422380Y-61783333D01*
X80803333Y-62116666D01*
X80803333Y-61973809D01*
X80850952Y-61878571D01*
X80898571Y-61830952D01*
X80993809Y-61783333D01*
X81231904Y-61783333D01*
X81327142Y-61830952D01*
X81374761Y-61878571D01*
X81422380Y-61973809D01*
X81422380Y-62259523D01*
X81374761Y-62354761D01*
X81327142Y-62402380D01*
G04 #@! TO.C,R13*
X83652380Y-124092857D02*
X83176190Y-124426190D01*
X83652380Y-124664285D02*
X82652380Y-124664285D01*
X82652380Y-124283333D01*
X82700000Y-124188095D01*
X82747619Y-124140476D01*
X82842857Y-124092857D01*
X82985714Y-124092857D01*
X83080952Y-124140476D01*
X83128571Y-124188095D01*
X83176190Y-124283333D01*
X83176190Y-124664285D01*
X83652380Y-123140476D02*
X83652380Y-123711904D01*
X83652380Y-123426190D02*
X82652380Y-123426190D01*
X82795238Y-123521428D01*
X82890476Y-123616666D01*
X82938095Y-123711904D01*
X82652380Y-122807142D02*
X82652380Y-122188095D01*
X83033333Y-122521428D01*
X83033333Y-122378571D01*
X83080952Y-122283333D01*
X83128571Y-122235714D01*
X83223809Y-122188095D01*
X83461904Y-122188095D01*
X83557142Y-122235714D01*
X83604761Y-122283333D01*
X83652380Y-122378571D01*
X83652380Y-122664285D01*
X83604761Y-122759523D01*
X83557142Y-122807142D01*
G04 #@! TO.C,R12*
X81852380Y-120992857D02*
X81376190Y-121326190D01*
X81852380Y-121564285D02*
X80852380Y-121564285D01*
X80852380Y-121183333D01*
X80900000Y-121088095D01*
X80947619Y-121040476D01*
X81042857Y-120992857D01*
X81185714Y-120992857D01*
X81280952Y-121040476D01*
X81328571Y-121088095D01*
X81376190Y-121183333D01*
X81376190Y-121564285D01*
X81852380Y-120040476D02*
X81852380Y-120611904D01*
X81852380Y-120326190D02*
X80852380Y-120326190D01*
X80995238Y-120421428D01*
X81090476Y-120516666D01*
X81138095Y-120611904D01*
X80947619Y-119659523D02*
X80900000Y-119611904D01*
X80852380Y-119516666D01*
X80852380Y-119278571D01*
X80900000Y-119183333D01*
X80947619Y-119135714D01*
X81042857Y-119088095D01*
X81138095Y-119088095D01*
X81280952Y-119135714D01*
X81852380Y-119707142D01*
X81852380Y-119088095D01*
G04 #@! TO.C,R6*
X78583333Y-115952380D02*
X78250000Y-115476190D01*
X78011904Y-115952380D02*
X78011904Y-114952380D01*
X78392857Y-114952380D01*
X78488095Y-115000000D01*
X78535714Y-115047619D01*
X78583333Y-115142857D01*
X78583333Y-115285714D01*
X78535714Y-115380952D01*
X78488095Y-115428571D01*
X78392857Y-115476190D01*
X78011904Y-115476190D01*
X79440476Y-114952380D02*
X79250000Y-114952380D01*
X79154761Y-115000000D01*
X79107142Y-115047619D01*
X79011904Y-115190476D01*
X78964285Y-115380952D01*
X78964285Y-115761904D01*
X79011904Y-115857142D01*
X79059523Y-115904761D01*
X79154761Y-115952380D01*
X79345238Y-115952380D01*
X79440476Y-115904761D01*
X79488095Y-115857142D01*
X79535714Y-115761904D01*
X79535714Y-115523809D01*
X79488095Y-115428571D01*
X79440476Y-115380952D01*
X79345238Y-115333333D01*
X79154761Y-115333333D01*
X79059523Y-115380952D01*
X79011904Y-115428571D01*
X78964285Y-115523809D01*
G04 #@! TO.C,C1*
X133333333Y-120582142D02*
X133285714Y-120629761D01*
X133142857Y-120677380D01*
X133047619Y-120677380D01*
X132904761Y-120629761D01*
X132809523Y-120534523D01*
X132761904Y-120439285D01*
X132714285Y-120248809D01*
X132714285Y-120105952D01*
X132761904Y-119915476D01*
X132809523Y-119820238D01*
X132904761Y-119725000D01*
X133047619Y-119677380D01*
X133142857Y-119677380D01*
X133285714Y-119725000D01*
X133333333Y-119772619D01*
X134285714Y-120677380D02*
X133714285Y-120677380D01*
X134000000Y-120677380D02*
X134000000Y-119677380D01*
X133904761Y-119820238D01*
X133809523Y-119915476D01*
X133714285Y-119963095D01*
G04 #@! TO.C,C7*
X70707142Y-88166666D02*
X70754761Y-88214285D01*
X70802380Y-88357142D01*
X70802380Y-88452380D01*
X70754761Y-88595238D01*
X70659523Y-88690476D01*
X70564285Y-88738095D01*
X70373809Y-88785714D01*
X70230952Y-88785714D01*
X70040476Y-88738095D01*
X69945238Y-88690476D01*
X69850000Y-88595238D01*
X69802380Y-88452380D01*
X69802380Y-88357142D01*
X69850000Y-88214285D01*
X69897619Y-88166666D01*
X69802380Y-87833333D02*
X69802380Y-87166666D01*
X70802380Y-87595238D01*
G04 #@! TO.C,R22*
X96702380Y-124092857D02*
X96226190Y-124426190D01*
X96702380Y-124664285D02*
X95702380Y-124664285D01*
X95702380Y-124283333D01*
X95750000Y-124188095D01*
X95797619Y-124140476D01*
X95892857Y-124092857D01*
X96035714Y-124092857D01*
X96130952Y-124140476D01*
X96178571Y-124188095D01*
X96226190Y-124283333D01*
X96226190Y-124664285D01*
X95797619Y-123711904D02*
X95750000Y-123664285D01*
X95702380Y-123569047D01*
X95702380Y-123330952D01*
X95750000Y-123235714D01*
X95797619Y-123188095D01*
X95892857Y-123140476D01*
X95988095Y-123140476D01*
X96130952Y-123188095D01*
X96702380Y-123759523D01*
X96702380Y-123140476D01*
X95797619Y-122759523D02*
X95750000Y-122711904D01*
X95702380Y-122616666D01*
X95702380Y-122378571D01*
X95750000Y-122283333D01*
X95797619Y-122235714D01*
X95892857Y-122188095D01*
X95988095Y-122188095D01*
X96130952Y-122235714D01*
X96702380Y-122807142D01*
X96702380Y-122188095D01*
G04 #@! TO.C,R24*
X96642380Y-130292857D02*
X96166190Y-130626190D01*
X96642380Y-130864285D02*
X95642380Y-130864285D01*
X95642380Y-130483333D01*
X95690000Y-130388095D01*
X95737619Y-130340476D01*
X95832857Y-130292857D01*
X95975714Y-130292857D01*
X96070952Y-130340476D01*
X96118571Y-130388095D01*
X96166190Y-130483333D01*
X96166190Y-130864285D01*
X95737619Y-129911904D02*
X95690000Y-129864285D01*
X95642380Y-129769047D01*
X95642380Y-129530952D01*
X95690000Y-129435714D01*
X95737619Y-129388095D01*
X95832857Y-129340476D01*
X95928095Y-129340476D01*
X96070952Y-129388095D01*
X96642380Y-129959523D01*
X96642380Y-129340476D01*
X95975714Y-128483333D02*
X96642380Y-128483333D01*
X95594761Y-128721428D02*
X96309047Y-128959523D01*
X96309047Y-128340476D01*
G04 #@! TO.C,R25*
X91552380Y-130292857D02*
X91076190Y-130626190D01*
X91552380Y-130864285D02*
X90552380Y-130864285D01*
X90552380Y-130483333D01*
X90600000Y-130388095D01*
X90647619Y-130340476D01*
X90742857Y-130292857D01*
X90885714Y-130292857D01*
X90980952Y-130340476D01*
X91028571Y-130388095D01*
X91076190Y-130483333D01*
X91076190Y-130864285D01*
X90647619Y-129911904D02*
X90600000Y-129864285D01*
X90552380Y-129769047D01*
X90552380Y-129530952D01*
X90600000Y-129435714D01*
X90647619Y-129388095D01*
X90742857Y-129340476D01*
X90838095Y-129340476D01*
X90980952Y-129388095D01*
X91552380Y-129959523D01*
X91552380Y-129340476D01*
X90552380Y-128435714D02*
X90552380Y-128911904D01*
X91028571Y-128959523D01*
X90980952Y-128911904D01*
X90933333Y-128816666D01*
X90933333Y-128578571D01*
X90980952Y-128483333D01*
X91028571Y-128435714D01*
X91123809Y-128388095D01*
X91361904Y-128388095D01*
X91457142Y-128435714D01*
X91504761Y-128483333D01*
X91552380Y-128578571D01*
X91552380Y-128816666D01*
X91504761Y-128911904D01*
X91457142Y-128959523D01*
G04 #@! TO.C,J2*
X77666666Y-56052380D02*
X77666666Y-56766666D01*
X77619047Y-56909523D01*
X77523809Y-57004761D01*
X77380952Y-57052380D01*
X77285714Y-57052380D01*
X78095238Y-56147619D02*
X78142857Y-56100000D01*
X78238095Y-56052380D01*
X78476190Y-56052380D01*
X78571428Y-56100000D01*
X78619047Y-56147619D01*
X78666666Y-56242857D01*
X78666666Y-56338095D01*
X78619047Y-56480952D01*
X78047619Y-57052380D01*
X78666666Y-57052380D01*
G04 #@! TO.C,R29*
X74157142Y-95652380D02*
X73823809Y-95176190D01*
X73585714Y-95652380D02*
X73585714Y-94652380D01*
X73966666Y-94652380D01*
X74061904Y-94700000D01*
X74109523Y-94747619D01*
X74157142Y-94842857D01*
X74157142Y-94985714D01*
X74109523Y-95080952D01*
X74061904Y-95128571D01*
X73966666Y-95176190D01*
X73585714Y-95176190D01*
X74538095Y-94747619D02*
X74585714Y-94700000D01*
X74680952Y-94652380D01*
X74919047Y-94652380D01*
X75014285Y-94700000D01*
X75061904Y-94747619D01*
X75109523Y-94842857D01*
X75109523Y-94938095D01*
X75061904Y-95080952D01*
X74490476Y-95652380D01*
X75109523Y-95652380D01*
X75585714Y-95652380D02*
X75776190Y-95652380D01*
X75871428Y-95604761D01*
X75919047Y-95557142D01*
X76014285Y-95414285D01*
X76061904Y-95223809D01*
X76061904Y-94842857D01*
X76014285Y-94747619D01*
X75966666Y-94700000D01*
X75871428Y-94652380D01*
X75680952Y-94652380D01*
X75585714Y-94700000D01*
X75538095Y-94747619D01*
X75490476Y-94842857D01*
X75490476Y-95080952D01*
X75538095Y-95176190D01*
X75585714Y-95223809D01*
X75680952Y-95271428D01*
X75871428Y-95271428D01*
X75966666Y-95223809D01*
X76014285Y-95176190D01*
X76061904Y-95080952D01*
G04 #@! TO.C,U2*
X126988095Y-115652380D02*
X126988095Y-116461904D01*
X127035714Y-116557142D01*
X127083333Y-116604761D01*
X127178571Y-116652380D01*
X127369047Y-116652380D01*
X127464285Y-116604761D01*
X127511904Y-116557142D01*
X127559523Y-116461904D01*
X127559523Y-115652380D01*
X127988095Y-115747619D02*
X128035714Y-115700000D01*
X128130952Y-115652380D01*
X128369047Y-115652380D01*
X128464285Y-115700000D01*
X128511904Y-115747619D01*
X128559523Y-115842857D01*
X128559523Y-115938095D01*
X128511904Y-116080952D01*
X127940476Y-116652380D01*
X128559523Y-116652380D01*
G04 #@! TO.C,J13*
X112690476Y-127952380D02*
X112690476Y-128666666D01*
X112642857Y-128809523D01*
X112547619Y-128904761D01*
X112404761Y-128952380D01*
X112309523Y-128952380D01*
X113690476Y-128952380D02*
X113119047Y-128952380D01*
X113404761Y-128952380D02*
X113404761Y-127952380D01*
X113309523Y-128095238D01*
X113214285Y-128190476D01*
X113119047Y-128238095D01*
X114023809Y-127952380D02*
X114642857Y-127952380D01*
X114309523Y-128333333D01*
X114452380Y-128333333D01*
X114547619Y-128380952D01*
X114595238Y-128428571D01*
X114642857Y-128523809D01*
X114642857Y-128761904D01*
X114595238Y-128857142D01*
X114547619Y-128904761D01*
X114452380Y-128952380D01*
X114166666Y-128952380D01*
X114071428Y-128904761D01*
X114023809Y-128857142D01*
X112785714Y-131666666D02*
X113261904Y-131666666D01*
X112690476Y-131952380D02*
X113023809Y-130952380D01*
X113357142Y-131952380D01*
X113642857Y-131047619D02*
X113690476Y-131000000D01*
X113785714Y-130952380D01*
X114023809Y-130952380D01*
X114119047Y-131000000D01*
X114166666Y-131047619D01*
X114214285Y-131142857D01*
X114214285Y-131238095D01*
X114166666Y-131380952D01*
X113595238Y-131952380D01*
X114214285Y-131952380D01*
G04 #@! TO.C,U1*
X102738095Y-129827380D02*
X102738095Y-130636904D01*
X102785714Y-130732142D01*
X102833333Y-130779761D01*
X102928571Y-130827380D01*
X103119047Y-130827380D01*
X103214285Y-130779761D01*
X103261904Y-130732142D01*
X103309523Y-130636904D01*
X103309523Y-129827380D01*
X104309523Y-130827380D02*
X103738095Y-130827380D01*
X104023809Y-130827380D02*
X104023809Y-129827380D01*
X103928571Y-129970238D01*
X103833333Y-130065476D01*
X103738095Y-130113095D01*
G04 #@! TO.C,R1*
X79002380Y-120516666D02*
X78526190Y-120850000D01*
X79002380Y-121088095D02*
X78002380Y-121088095D01*
X78002380Y-120707142D01*
X78050000Y-120611904D01*
X78097619Y-120564285D01*
X78192857Y-120516666D01*
X78335714Y-120516666D01*
X78430952Y-120564285D01*
X78478571Y-120611904D01*
X78526190Y-120707142D01*
X78526190Y-121088095D01*
X79002380Y-119564285D02*
X79002380Y-120135714D01*
X79002380Y-119850000D02*
X78002380Y-119850000D01*
X78145238Y-119945238D01*
X78240476Y-120040476D01*
X78288095Y-120135714D01*
G04 #@! TO.C,R2*
X73902380Y-120516666D02*
X73426190Y-120850000D01*
X73902380Y-121088095D02*
X72902380Y-121088095D01*
X72902380Y-120707142D01*
X72950000Y-120611904D01*
X72997619Y-120564285D01*
X73092857Y-120516666D01*
X73235714Y-120516666D01*
X73330952Y-120564285D01*
X73378571Y-120611904D01*
X73426190Y-120707142D01*
X73426190Y-121088095D01*
X72997619Y-120135714D02*
X72950000Y-120088095D01*
X72902380Y-119992857D01*
X72902380Y-119754761D01*
X72950000Y-119659523D01*
X72997619Y-119611904D01*
X73092857Y-119564285D01*
X73188095Y-119564285D01*
X73330952Y-119611904D01*
X73902380Y-120183333D01*
X73902380Y-119564285D01*
G04 #@! TO.C,R3*
X75702380Y-123616666D02*
X75226190Y-123950000D01*
X75702380Y-124188095D02*
X74702380Y-124188095D01*
X74702380Y-123807142D01*
X74750000Y-123711904D01*
X74797619Y-123664285D01*
X74892857Y-123616666D01*
X75035714Y-123616666D01*
X75130952Y-123664285D01*
X75178571Y-123711904D01*
X75226190Y-123807142D01*
X75226190Y-124188095D01*
X74702380Y-123283333D02*
X74702380Y-122664285D01*
X75083333Y-122997619D01*
X75083333Y-122854761D01*
X75130952Y-122759523D01*
X75178571Y-122711904D01*
X75273809Y-122664285D01*
X75511904Y-122664285D01*
X75607142Y-122711904D01*
X75654761Y-122759523D01*
X75702380Y-122854761D01*
X75702380Y-123140476D01*
X75654761Y-123235714D01*
X75607142Y-123283333D01*
G04 #@! TO.C,R4*
X80952380Y-123616666D02*
X80476190Y-123950000D01*
X80952380Y-124188095D02*
X79952380Y-124188095D01*
X79952380Y-123807142D01*
X80000000Y-123711904D01*
X80047619Y-123664285D01*
X80142857Y-123616666D01*
X80285714Y-123616666D01*
X80380952Y-123664285D01*
X80428571Y-123711904D01*
X80476190Y-123807142D01*
X80476190Y-124188095D01*
X80285714Y-122759523D02*
X80952380Y-122759523D01*
X79904761Y-122997619D02*
X80619047Y-123235714D01*
X80619047Y-122616666D01*
G04 #@! TO.C,R8*
X80802380Y-129816666D02*
X80326190Y-130150000D01*
X80802380Y-130388095D02*
X79802380Y-130388095D01*
X79802380Y-130007142D01*
X79850000Y-129911904D01*
X79897619Y-129864285D01*
X79992857Y-129816666D01*
X80135714Y-129816666D01*
X80230952Y-129864285D01*
X80278571Y-129911904D01*
X80326190Y-130007142D01*
X80326190Y-130388095D01*
X80230952Y-129245238D02*
X80183333Y-129340476D01*
X80135714Y-129388095D01*
X80040476Y-129435714D01*
X79992857Y-129435714D01*
X79897619Y-129388095D01*
X79850000Y-129340476D01*
X79802380Y-129245238D01*
X79802380Y-129054761D01*
X79850000Y-128959523D01*
X79897619Y-128911904D01*
X79992857Y-128864285D01*
X80040476Y-128864285D01*
X80135714Y-128911904D01*
X80183333Y-128959523D01*
X80230952Y-129054761D01*
X80230952Y-129245238D01*
X80278571Y-129340476D01*
X80326190Y-129388095D01*
X80421428Y-129435714D01*
X80611904Y-129435714D01*
X80707142Y-129388095D01*
X80754761Y-129340476D01*
X80802380Y-129245238D01*
X80802380Y-129054761D01*
X80754761Y-128959523D01*
X80707142Y-128911904D01*
X80611904Y-128864285D01*
X80421428Y-128864285D01*
X80326190Y-128911904D01*
X80278571Y-128959523D01*
X80230952Y-129054761D01*
G04 #@! TO.C,R9*
X75702380Y-129816666D02*
X75226190Y-130150000D01*
X75702380Y-130388095D02*
X74702380Y-130388095D01*
X74702380Y-130007142D01*
X74750000Y-129911904D01*
X74797619Y-129864285D01*
X74892857Y-129816666D01*
X75035714Y-129816666D01*
X75130952Y-129864285D01*
X75178571Y-129911904D01*
X75226190Y-130007142D01*
X75226190Y-130388095D01*
X75702380Y-129340476D02*
X75702380Y-129150000D01*
X75654761Y-129054761D01*
X75607142Y-129007142D01*
X75464285Y-128911904D01*
X75273809Y-128864285D01*
X74892857Y-128864285D01*
X74797619Y-128911904D01*
X74750000Y-128959523D01*
X74702380Y-129054761D01*
X74702380Y-129245238D01*
X74750000Y-129340476D01*
X74797619Y-129388095D01*
X74892857Y-129435714D01*
X75130952Y-129435714D01*
X75226190Y-129388095D01*
X75273809Y-129340476D01*
X75321428Y-129245238D01*
X75321428Y-129054761D01*
X75273809Y-128959523D01*
X75226190Y-128911904D01*
X75130952Y-128864285D01*
G04 #@! TO.C,R10*
X129357142Y-113452380D02*
X129023809Y-112976190D01*
X128785714Y-113452380D02*
X128785714Y-112452380D01*
X129166666Y-112452380D01*
X129261904Y-112500000D01*
X129309523Y-112547619D01*
X129357142Y-112642857D01*
X129357142Y-112785714D01*
X129309523Y-112880952D01*
X129261904Y-112928571D01*
X129166666Y-112976190D01*
X128785714Y-112976190D01*
X130309523Y-113452380D02*
X129738095Y-113452380D01*
X130023809Y-113452380D02*
X130023809Y-112452380D01*
X129928571Y-112595238D01*
X129833333Y-112690476D01*
X129738095Y-112738095D01*
X130928571Y-112452380D02*
X131023809Y-112452380D01*
X131119047Y-112500000D01*
X131166666Y-112547619D01*
X131214285Y-112642857D01*
X131261904Y-112833333D01*
X131261904Y-113071428D01*
X131214285Y-113261904D01*
X131166666Y-113357142D01*
X131119047Y-113404761D01*
X131023809Y-113452380D01*
X130928571Y-113452380D01*
X130833333Y-113404761D01*
X130785714Y-113357142D01*
X130738095Y-113261904D01*
X130690476Y-113071428D01*
X130690476Y-112833333D01*
X130738095Y-112642857D01*
X130785714Y-112547619D01*
X130833333Y-112500000D01*
X130928571Y-112452380D01*
G04 #@! TO.C,R11*
X86952380Y-120992857D02*
X86476190Y-121326190D01*
X86952380Y-121564285D02*
X85952380Y-121564285D01*
X85952380Y-121183333D01*
X86000000Y-121088095D01*
X86047619Y-121040476D01*
X86142857Y-120992857D01*
X86285714Y-120992857D01*
X86380952Y-121040476D01*
X86428571Y-121088095D01*
X86476190Y-121183333D01*
X86476190Y-121564285D01*
X86952380Y-120040476D02*
X86952380Y-120611904D01*
X86952380Y-120326190D02*
X85952380Y-120326190D01*
X86095238Y-120421428D01*
X86190476Y-120516666D01*
X86238095Y-120611904D01*
X86952380Y-119088095D02*
X86952380Y-119659523D01*
X86952380Y-119373809D02*
X85952380Y-119373809D01*
X86095238Y-119469047D01*
X86190476Y-119564285D01*
X86238095Y-119659523D01*
G04 #@! TO.C,R14*
X122552380Y-116042857D02*
X122076190Y-116376190D01*
X122552380Y-116614285D02*
X121552380Y-116614285D01*
X121552380Y-116233333D01*
X121600000Y-116138095D01*
X121647619Y-116090476D01*
X121742857Y-116042857D01*
X121885714Y-116042857D01*
X121980952Y-116090476D01*
X122028571Y-116138095D01*
X122076190Y-116233333D01*
X122076190Y-116614285D01*
X122552380Y-115090476D02*
X122552380Y-115661904D01*
X122552380Y-115376190D02*
X121552380Y-115376190D01*
X121695238Y-115471428D01*
X121790476Y-115566666D01*
X121838095Y-115661904D01*
X121885714Y-114233333D02*
X122552380Y-114233333D01*
X121504761Y-114471428D02*
X122219047Y-114709523D01*
X122219047Y-114090476D01*
G04 #@! TO.C,R15*
X88952380Y-124142857D02*
X88476190Y-124476190D01*
X88952380Y-124714285D02*
X87952380Y-124714285D01*
X87952380Y-124333333D01*
X88000000Y-124238095D01*
X88047619Y-124190476D01*
X88142857Y-124142857D01*
X88285714Y-124142857D01*
X88380952Y-124190476D01*
X88428571Y-124238095D01*
X88476190Y-124333333D01*
X88476190Y-124714285D01*
X88952380Y-123190476D02*
X88952380Y-123761904D01*
X88952380Y-123476190D02*
X87952380Y-123476190D01*
X88095238Y-123571428D01*
X88190476Y-123666666D01*
X88238095Y-123761904D01*
X87952380Y-122285714D02*
X87952380Y-122761904D01*
X88428571Y-122809523D01*
X88380952Y-122761904D01*
X88333333Y-122666666D01*
X88333333Y-122428571D01*
X88380952Y-122333333D01*
X88428571Y-122285714D01*
X88523809Y-122238095D01*
X88761904Y-122238095D01*
X88857142Y-122285714D01*
X88904761Y-122333333D01*
X88952380Y-122428571D01*
X88952380Y-122666666D01*
X88904761Y-122761904D01*
X88857142Y-122809523D01*
G04 #@! TO.C,R17*
X88722380Y-130292857D02*
X88246190Y-130626190D01*
X88722380Y-130864285D02*
X87722380Y-130864285D01*
X87722380Y-130483333D01*
X87770000Y-130388095D01*
X87817619Y-130340476D01*
X87912857Y-130292857D01*
X88055714Y-130292857D01*
X88150952Y-130340476D01*
X88198571Y-130388095D01*
X88246190Y-130483333D01*
X88246190Y-130864285D01*
X88722380Y-129340476D02*
X88722380Y-129911904D01*
X88722380Y-129626190D02*
X87722380Y-129626190D01*
X87865238Y-129721428D01*
X87960476Y-129816666D01*
X88008095Y-129911904D01*
X87722380Y-129007142D02*
X87722380Y-128340476D01*
X88722380Y-128769047D01*
G04 #@! TO.C,R18*
X83602380Y-130292857D02*
X83126190Y-130626190D01*
X83602380Y-130864285D02*
X82602380Y-130864285D01*
X82602380Y-130483333D01*
X82650000Y-130388095D01*
X82697619Y-130340476D01*
X82792857Y-130292857D01*
X82935714Y-130292857D01*
X83030952Y-130340476D01*
X83078571Y-130388095D01*
X83126190Y-130483333D01*
X83126190Y-130864285D01*
X83602380Y-129340476D02*
X83602380Y-129911904D01*
X83602380Y-129626190D02*
X82602380Y-129626190D01*
X82745238Y-129721428D01*
X82840476Y-129816666D01*
X82888095Y-129911904D01*
X83030952Y-128769047D02*
X82983333Y-128864285D01*
X82935714Y-128911904D01*
X82840476Y-128959523D01*
X82792857Y-128959523D01*
X82697619Y-128911904D01*
X82650000Y-128864285D01*
X82602380Y-128769047D01*
X82602380Y-128578571D01*
X82650000Y-128483333D01*
X82697619Y-128435714D01*
X82792857Y-128388095D01*
X82840476Y-128388095D01*
X82935714Y-128435714D01*
X82983333Y-128483333D01*
X83030952Y-128578571D01*
X83030952Y-128769047D01*
X83078571Y-128864285D01*
X83126190Y-128911904D01*
X83221428Y-128959523D01*
X83411904Y-128959523D01*
X83507142Y-128911904D01*
X83554761Y-128864285D01*
X83602380Y-128769047D01*
X83602380Y-128578571D01*
X83554761Y-128483333D01*
X83507142Y-128435714D01*
X83411904Y-128388095D01*
X83221428Y-128388095D01*
X83126190Y-128435714D01*
X83078571Y-128483333D01*
X83030952Y-128578571D01*
G04 #@! TO.C,R20*
X89752380Y-120992857D02*
X89276190Y-121326190D01*
X89752380Y-121564285D02*
X88752380Y-121564285D01*
X88752380Y-121183333D01*
X88800000Y-121088095D01*
X88847619Y-121040476D01*
X88942857Y-120992857D01*
X89085714Y-120992857D01*
X89180952Y-121040476D01*
X89228571Y-121088095D01*
X89276190Y-121183333D01*
X89276190Y-121564285D01*
X88847619Y-120611904D02*
X88800000Y-120564285D01*
X88752380Y-120469047D01*
X88752380Y-120230952D01*
X88800000Y-120135714D01*
X88847619Y-120088095D01*
X88942857Y-120040476D01*
X89038095Y-120040476D01*
X89180952Y-120088095D01*
X89752380Y-120659523D01*
X89752380Y-120040476D01*
X88752380Y-119421428D02*
X88752380Y-119326190D01*
X88800000Y-119230952D01*
X88847619Y-119183333D01*
X88942857Y-119135714D01*
X89133333Y-119088095D01*
X89371428Y-119088095D01*
X89561904Y-119135714D01*
X89657142Y-119183333D01*
X89704761Y-119230952D01*
X89752380Y-119326190D01*
X89752380Y-119421428D01*
X89704761Y-119516666D01*
X89657142Y-119564285D01*
X89561904Y-119611904D01*
X89371428Y-119659523D01*
X89133333Y-119659523D01*
X88942857Y-119611904D01*
X88847619Y-119564285D01*
X88800000Y-119516666D01*
X88752380Y-119421428D01*
G04 #@! TO.C,R21*
X91552380Y-124092857D02*
X91076190Y-124426190D01*
X91552380Y-124664285D02*
X90552380Y-124664285D01*
X90552380Y-124283333D01*
X90600000Y-124188095D01*
X90647619Y-124140476D01*
X90742857Y-124092857D01*
X90885714Y-124092857D01*
X90980952Y-124140476D01*
X91028571Y-124188095D01*
X91076190Y-124283333D01*
X91076190Y-124664285D01*
X90647619Y-123711904D02*
X90600000Y-123664285D01*
X90552380Y-123569047D01*
X90552380Y-123330952D01*
X90600000Y-123235714D01*
X90647619Y-123188095D01*
X90742857Y-123140476D01*
X90838095Y-123140476D01*
X90980952Y-123188095D01*
X91552380Y-123759523D01*
X91552380Y-123140476D01*
X91552380Y-122188095D02*
X91552380Y-122759523D01*
X91552380Y-122473809D02*
X90552380Y-122473809D01*
X90695238Y-122569047D01*
X90790476Y-122664285D01*
X90838095Y-122759523D01*
G04 #@! TO.C,C3*
X83257142Y-88066666D02*
X83304761Y-88114285D01*
X83352380Y-88257142D01*
X83352380Y-88352380D01*
X83304761Y-88495238D01*
X83209523Y-88590476D01*
X83114285Y-88638095D01*
X82923809Y-88685714D01*
X82780952Y-88685714D01*
X82590476Y-88638095D01*
X82495238Y-88590476D01*
X82400000Y-88495238D01*
X82352380Y-88352380D01*
X82352380Y-88257142D01*
X82400000Y-88114285D01*
X82447619Y-88066666D01*
X82352380Y-87733333D02*
X82352380Y-87114285D01*
X82733333Y-87447619D01*
X82733333Y-87304761D01*
X82780952Y-87209523D01*
X82828571Y-87161904D01*
X82923809Y-87114285D01*
X83161904Y-87114285D01*
X83257142Y-87161904D01*
X83304761Y-87209523D01*
X83352380Y-87304761D01*
X83352380Y-87590476D01*
X83304761Y-87685714D01*
X83257142Y-87733333D01*
G04 #@! TO.C,C4*
X93433333Y-70957142D02*
X93385714Y-71004761D01*
X93242857Y-71052380D01*
X93147619Y-71052380D01*
X93004761Y-71004761D01*
X92909523Y-70909523D01*
X92861904Y-70814285D01*
X92814285Y-70623809D01*
X92814285Y-70480952D01*
X92861904Y-70290476D01*
X92909523Y-70195238D01*
X93004761Y-70100000D01*
X93147619Y-70052380D01*
X93242857Y-70052380D01*
X93385714Y-70100000D01*
X93433333Y-70147619D01*
X94290476Y-70385714D02*
X94290476Y-71052380D01*
X94052380Y-70004761D02*
X93814285Y-70719047D01*
X94433333Y-70719047D01*
G04 #@! TO.C,C5*
X95857142Y-75716666D02*
X95904761Y-75764285D01*
X95952380Y-75907142D01*
X95952380Y-76002380D01*
X95904761Y-76145238D01*
X95809523Y-76240476D01*
X95714285Y-76288095D01*
X95523809Y-76335714D01*
X95380952Y-76335714D01*
X95190476Y-76288095D01*
X95095238Y-76240476D01*
X95000000Y-76145238D01*
X94952380Y-76002380D01*
X94952380Y-75907142D01*
X95000000Y-75764285D01*
X95047619Y-75716666D01*
X94952380Y-74811904D02*
X94952380Y-75288095D01*
X95428571Y-75335714D01*
X95380952Y-75288095D01*
X95333333Y-75192857D01*
X95333333Y-74954761D01*
X95380952Y-74859523D01*
X95428571Y-74811904D01*
X95523809Y-74764285D01*
X95761904Y-74764285D01*
X95857142Y-74811904D01*
X95904761Y-74859523D01*
X95952380Y-74954761D01*
X95952380Y-75192857D01*
X95904761Y-75288095D01*
X95857142Y-75335714D01*
G04 #@! TO.C,C6*
X69357142Y-92166666D02*
X69404761Y-92214285D01*
X69452380Y-92357142D01*
X69452380Y-92452380D01*
X69404761Y-92595238D01*
X69309523Y-92690476D01*
X69214285Y-92738095D01*
X69023809Y-92785714D01*
X68880952Y-92785714D01*
X68690476Y-92738095D01*
X68595238Y-92690476D01*
X68500000Y-92595238D01*
X68452380Y-92452380D01*
X68452380Y-92357142D01*
X68500000Y-92214285D01*
X68547619Y-92166666D01*
X68452380Y-91309523D02*
X68452380Y-91500000D01*
X68500000Y-91595238D01*
X68547619Y-91642857D01*
X68690476Y-91738095D01*
X68880952Y-91785714D01*
X69261904Y-91785714D01*
X69357142Y-91738095D01*
X69404761Y-91690476D01*
X69452380Y-91595238D01*
X69452380Y-91404761D01*
X69404761Y-91309523D01*
X69357142Y-91261904D01*
X69261904Y-91214285D01*
X69023809Y-91214285D01*
X68928571Y-91261904D01*
X68880952Y-91309523D01*
X68833333Y-91404761D01*
X68833333Y-91595238D01*
X68880952Y-91690476D01*
X68928571Y-91738095D01*
X69023809Y-91785714D01*
G04 #@! TO.C,C10*
X85457142Y-94392857D02*
X85504761Y-94440476D01*
X85552380Y-94583333D01*
X85552380Y-94678571D01*
X85504761Y-94821428D01*
X85409523Y-94916666D01*
X85314285Y-94964285D01*
X85123809Y-95011904D01*
X84980952Y-95011904D01*
X84790476Y-94964285D01*
X84695238Y-94916666D01*
X84600000Y-94821428D01*
X84552380Y-94678571D01*
X84552380Y-94583333D01*
X84600000Y-94440476D01*
X84647619Y-94392857D01*
X85552380Y-93440476D02*
X85552380Y-94011904D01*
X85552380Y-93726190D02*
X84552380Y-93726190D01*
X84695238Y-93821428D01*
X84790476Y-93916666D01*
X84838095Y-94011904D01*
X84552380Y-92821428D02*
X84552380Y-92726190D01*
X84600000Y-92630952D01*
X84647619Y-92583333D01*
X84742857Y-92535714D01*
X84933333Y-92488095D01*
X85171428Y-92488095D01*
X85361904Y-92535714D01*
X85457142Y-92583333D01*
X85504761Y-92630952D01*
X85552380Y-92726190D01*
X85552380Y-92821428D01*
X85504761Y-92916666D01*
X85457142Y-92964285D01*
X85361904Y-93011904D01*
X85171428Y-93059523D01*
X84933333Y-93059523D01*
X84742857Y-93011904D01*
X84647619Y-92964285D01*
X84600000Y-92916666D01*
X84552380Y-92821428D01*
G04 #@! TO.C,C12*
X97757142Y-96157142D02*
X97709523Y-96204761D01*
X97566666Y-96252380D01*
X97471428Y-96252380D01*
X97328571Y-96204761D01*
X97233333Y-96109523D01*
X97185714Y-96014285D01*
X97138095Y-95823809D01*
X97138095Y-95680952D01*
X97185714Y-95490476D01*
X97233333Y-95395238D01*
X97328571Y-95300000D01*
X97471428Y-95252380D01*
X97566666Y-95252380D01*
X97709523Y-95300000D01*
X97757142Y-95347619D01*
X98709523Y-96252380D02*
X98138095Y-96252380D01*
X98423809Y-96252380D02*
X98423809Y-95252380D01*
X98328571Y-95395238D01*
X98233333Y-95490476D01*
X98138095Y-95538095D01*
X99090476Y-95347619D02*
X99138095Y-95300000D01*
X99233333Y-95252380D01*
X99471428Y-95252380D01*
X99566666Y-95300000D01*
X99614285Y-95347619D01*
X99661904Y-95442857D01*
X99661904Y-95538095D01*
X99614285Y-95680952D01*
X99042857Y-96252380D01*
X99661904Y-96252380D01*
G04 #@! TO.C,C13*
X93957142Y-82357142D02*
X93909523Y-82404761D01*
X93766666Y-82452380D01*
X93671428Y-82452380D01*
X93528571Y-82404761D01*
X93433333Y-82309523D01*
X93385714Y-82214285D01*
X93338095Y-82023809D01*
X93338095Y-81880952D01*
X93385714Y-81690476D01*
X93433333Y-81595238D01*
X93528571Y-81500000D01*
X93671428Y-81452380D01*
X93766666Y-81452380D01*
X93909523Y-81500000D01*
X93957142Y-81547619D01*
X94909523Y-82452380D02*
X94338095Y-82452380D01*
X94623809Y-82452380D02*
X94623809Y-81452380D01*
X94528571Y-81595238D01*
X94433333Y-81690476D01*
X94338095Y-81738095D01*
X95242857Y-81452380D02*
X95861904Y-81452380D01*
X95528571Y-81833333D01*
X95671428Y-81833333D01*
X95766666Y-81880952D01*
X95814285Y-81928571D01*
X95861904Y-82023809D01*
X95861904Y-82261904D01*
X95814285Y-82357142D01*
X95766666Y-82404761D01*
X95671428Y-82452380D01*
X95385714Y-82452380D01*
X95290476Y-82404761D01*
X95242857Y-82357142D01*
G04 #@! TO.C,C14*
X97507142Y-88557142D02*
X97459523Y-88604761D01*
X97316666Y-88652380D01*
X97221428Y-88652380D01*
X97078571Y-88604761D01*
X96983333Y-88509523D01*
X96935714Y-88414285D01*
X96888095Y-88223809D01*
X96888095Y-88080952D01*
X96935714Y-87890476D01*
X96983333Y-87795238D01*
X97078571Y-87700000D01*
X97221428Y-87652380D01*
X97316666Y-87652380D01*
X97459523Y-87700000D01*
X97507142Y-87747619D01*
X98459523Y-88652380D02*
X97888095Y-88652380D01*
X98173809Y-88652380D02*
X98173809Y-87652380D01*
X98078571Y-87795238D01*
X97983333Y-87890476D01*
X97888095Y-87938095D01*
X99316666Y-87985714D02*
X99316666Y-88652380D01*
X99078571Y-87604761D02*
X98840476Y-88319047D01*
X99459523Y-88319047D01*
G04 #@! TO.C,C15*
X86707142Y-89392857D02*
X86754761Y-89440476D01*
X86802380Y-89583333D01*
X86802380Y-89678571D01*
X86754761Y-89821428D01*
X86659523Y-89916666D01*
X86564285Y-89964285D01*
X86373809Y-90011904D01*
X86230952Y-90011904D01*
X86040476Y-89964285D01*
X85945238Y-89916666D01*
X85850000Y-89821428D01*
X85802380Y-89678571D01*
X85802380Y-89583333D01*
X85850000Y-89440476D01*
X85897619Y-89392857D01*
X86802380Y-88440476D02*
X86802380Y-89011904D01*
X86802380Y-88726190D02*
X85802380Y-88726190D01*
X85945238Y-88821428D01*
X86040476Y-88916666D01*
X86088095Y-89011904D01*
X85802380Y-87535714D02*
X85802380Y-88011904D01*
X86278571Y-88059523D01*
X86230952Y-88011904D01*
X86183333Y-87916666D01*
X86183333Y-87678571D01*
X86230952Y-87583333D01*
X86278571Y-87535714D01*
X86373809Y-87488095D01*
X86611904Y-87488095D01*
X86707142Y-87535714D01*
X86754761Y-87583333D01*
X86802380Y-87678571D01*
X86802380Y-87916666D01*
X86754761Y-88011904D01*
X86707142Y-88059523D01*
G04 #@! TO.C,Q1*
X123104761Y-132347619D02*
X123009523Y-132300000D01*
X122914285Y-132204761D01*
X122771428Y-132061904D01*
X122676190Y-132014285D01*
X122580952Y-132014285D01*
X122628571Y-132252380D02*
X122533333Y-132204761D01*
X122438095Y-132109523D01*
X122390476Y-131919047D01*
X122390476Y-131585714D01*
X122438095Y-131395238D01*
X122533333Y-131300000D01*
X122628571Y-131252380D01*
X122819047Y-131252380D01*
X122914285Y-131300000D01*
X123009523Y-131395238D01*
X123057142Y-131585714D01*
X123057142Y-131919047D01*
X123009523Y-132109523D01*
X122914285Y-132204761D01*
X122819047Y-132252380D01*
X122628571Y-132252380D01*
X124009523Y-132252380D02*
X123438095Y-132252380D01*
X123723809Y-132252380D02*
X123723809Y-131252380D01*
X123628571Y-131395238D01*
X123533333Y-131490476D01*
X123438095Y-131538095D01*
G04 #@! TO.C,Q2*
X127154761Y-132297619D02*
X127059523Y-132250000D01*
X126964285Y-132154761D01*
X126821428Y-132011904D01*
X126726190Y-131964285D01*
X126630952Y-131964285D01*
X126678571Y-132202380D02*
X126583333Y-132154761D01*
X126488095Y-132059523D01*
X126440476Y-131869047D01*
X126440476Y-131535714D01*
X126488095Y-131345238D01*
X126583333Y-131250000D01*
X126678571Y-131202380D01*
X126869047Y-131202380D01*
X126964285Y-131250000D01*
X127059523Y-131345238D01*
X127107142Y-131535714D01*
X127107142Y-131869047D01*
X127059523Y-132059523D01*
X126964285Y-132154761D01*
X126869047Y-132202380D01*
X126678571Y-132202380D01*
X127488095Y-131297619D02*
X127535714Y-131250000D01*
X127630952Y-131202380D01*
X127869047Y-131202380D01*
X127964285Y-131250000D01*
X128011904Y-131297619D01*
X128059523Y-131392857D01*
X128059523Y-131488095D01*
X128011904Y-131630952D01*
X127440476Y-132202380D01*
X128059523Y-132202380D01*
G04 #@! TO.C,Q3*
X134397619Y-129445238D02*
X134350000Y-129540476D01*
X134254761Y-129635714D01*
X134111904Y-129778571D01*
X134064285Y-129873809D01*
X134064285Y-129969047D01*
X134302380Y-129921428D02*
X134254761Y-130016666D01*
X134159523Y-130111904D01*
X133969047Y-130159523D01*
X133635714Y-130159523D01*
X133445238Y-130111904D01*
X133350000Y-130016666D01*
X133302380Y-129921428D01*
X133302380Y-129730952D01*
X133350000Y-129635714D01*
X133445238Y-129540476D01*
X133635714Y-129492857D01*
X133969047Y-129492857D01*
X134159523Y-129540476D01*
X134254761Y-129635714D01*
X134302380Y-129730952D01*
X134302380Y-129921428D01*
X133302380Y-129159523D02*
X133302380Y-128540476D01*
X133683333Y-128873809D01*
X133683333Y-128730952D01*
X133730952Y-128635714D01*
X133778571Y-128588095D01*
X133873809Y-128540476D01*
X134111904Y-128540476D01*
X134207142Y-128588095D01*
X134254761Y-128635714D01*
X134302380Y-128730952D01*
X134302380Y-129016666D01*
X134254761Y-129111904D01*
X134207142Y-129159523D01*
G04 #@! TO.C,R26*
X118957142Y-132252380D02*
X118623809Y-131776190D01*
X118385714Y-132252380D02*
X118385714Y-131252380D01*
X118766666Y-131252380D01*
X118861904Y-131300000D01*
X118909523Y-131347619D01*
X118957142Y-131442857D01*
X118957142Y-131585714D01*
X118909523Y-131680952D01*
X118861904Y-131728571D01*
X118766666Y-131776190D01*
X118385714Y-131776190D01*
X119338095Y-131347619D02*
X119385714Y-131300000D01*
X119480952Y-131252380D01*
X119719047Y-131252380D01*
X119814285Y-131300000D01*
X119861904Y-131347619D01*
X119909523Y-131442857D01*
X119909523Y-131538095D01*
X119861904Y-131680952D01*
X119290476Y-132252380D01*
X119909523Y-132252380D01*
X120766666Y-131252380D02*
X120576190Y-131252380D01*
X120480952Y-131300000D01*
X120433333Y-131347619D01*
X120338095Y-131490476D01*
X120290476Y-131680952D01*
X120290476Y-132061904D01*
X120338095Y-132157142D01*
X120385714Y-132204761D01*
X120480952Y-132252380D01*
X120671428Y-132252380D01*
X120766666Y-132204761D01*
X120814285Y-132157142D01*
X120861904Y-132061904D01*
X120861904Y-131823809D01*
X120814285Y-131728571D01*
X120766666Y-131680952D01*
X120671428Y-131633333D01*
X120480952Y-131633333D01*
X120385714Y-131680952D01*
X120338095Y-131728571D01*
X120290476Y-131823809D01*
G04 #@! TO.C,R27*
X77657142Y-95652380D02*
X77323809Y-95176190D01*
X77085714Y-95652380D02*
X77085714Y-94652380D01*
X77466666Y-94652380D01*
X77561904Y-94700000D01*
X77609523Y-94747619D01*
X77657142Y-94842857D01*
X77657142Y-94985714D01*
X77609523Y-95080952D01*
X77561904Y-95128571D01*
X77466666Y-95176190D01*
X77085714Y-95176190D01*
X78038095Y-94747619D02*
X78085714Y-94700000D01*
X78180952Y-94652380D01*
X78419047Y-94652380D01*
X78514285Y-94700000D01*
X78561904Y-94747619D01*
X78609523Y-94842857D01*
X78609523Y-94938095D01*
X78561904Y-95080952D01*
X77990476Y-95652380D01*
X78609523Y-95652380D01*
X78942857Y-94652380D02*
X79609523Y-94652380D01*
X79180952Y-95652380D01*
G04 #@! TO.C,R28*
X112357142Y-122952380D02*
X112023809Y-122476190D01*
X111785714Y-122952380D02*
X111785714Y-121952380D01*
X112166666Y-121952380D01*
X112261904Y-122000000D01*
X112309523Y-122047619D01*
X112357142Y-122142857D01*
X112357142Y-122285714D01*
X112309523Y-122380952D01*
X112261904Y-122428571D01*
X112166666Y-122476190D01*
X111785714Y-122476190D01*
X112738095Y-122047619D02*
X112785714Y-122000000D01*
X112880952Y-121952380D01*
X113119047Y-121952380D01*
X113214285Y-122000000D01*
X113261904Y-122047619D01*
X113309523Y-122142857D01*
X113309523Y-122238095D01*
X113261904Y-122380952D01*
X112690476Y-122952380D01*
X113309523Y-122952380D01*
X113880952Y-122380952D02*
X113785714Y-122333333D01*
X113738095Y-122285714D01*
X113690476Y-122190476D01*
X113690476Y-122142857D01*
X113738095Y-122047619D01*
X113785714Y-122000000D01*
X113880952Y-121952380D01*
X114071428Y-121952380D01*
X114166666Y-122000000D01*
X114214285Y-122047619D01*
X114261904Y-122142857D01*
X114261904Y-122190476D01*
X114214285Y-122285714D01*
X114166666Y-122333333D01*
X114071428Y-122380952D01*
X113880952Y-122380952D01*
X113785714Y-122428571D01*
X113738095Y-122476190D01*
X113690476Y-122571428D01*
X113690476Y-122761904D01*
X113738095Y-122857142D01*
X113785714Y-122904761D01*
X113880952Y-122952380D01*
X114071428Y-122952380D01*
X114166666Y-122904761D01*
X114214285Y-122857142D01*
X114261904Y-122761904D01*
X114261904Y-122571428D01*
X114214285Y-122476190D01*
X114166666Y-122428571D01*
X114071428Y-122380952D01*
G04 #@! TO.C,R30*
X80757142Y-95852380D02*
X80423809Y-95376190D01*
X80185714Y-95852380D02*
X80185714Y-94852380D01*
X80566666Y-94852380D01*
X80661904Y-94900000D01*
X80709523Y-94947619D01*
X80757142Y-95042857D01*
X80757142Y-95185714D01*
X80709523Y-95280952D01*
X80661904Y-95328571D01*
X80566666Y-95376190D01*
X80185714Y-95376190D01*
X81090476Y-94852380D02*
X81709523Y-94852380D01*
X81376190Y-95233333D01*
X81519047Y-95233333D01*
X81614285Y-95280952D01*
X81661904Y-95328571D01*
X81709523Y-95423809D01*
X81709523Y-95661904D01*
X81661904Y-95757142D01*
X81614285Y-95804761D01*
X81519047Y-95852380D01*
X81233333Y-95852380D01*
X81138095Y-95804761D01*
X81090476Y-95757142D01*
X82328571Y-94852380D02*
X82423809Y-94852380D01*
X82519047Y-94900000D01*
X82566666Y-94947619D01*
X82614285Y-95042857D01*
X82661904Y-95233333D01*
X82661904Y-95471428D01*
X82614285Y-95661904D01*
X82566666Y-95757142D01*
X82519047Y-95804761D01*
X82423809Y-95852380D01*
X82328571Y-95852380D01*
X82233333Y-95804761D01*
X82185714Y-95757142D01*
X82138095Y-95661904D01*
X82090476Y-95471428D01*
X82090476Y-95233333D01*
X82138095Y-95042857D01*
X82185714Y-94947619D01*
X82233333Y-94900000D01*
X82328571Y-94852380D01*
G04 #@! TO.C,R31*
X119302380Y-122142857D02*
X118826190Y-122476190D01*
X119302380Y-122714285D02*
X118302380Y-122714285D01*
X118302380Y-122333333D01*
X118350000Y-122238095D01*
X118397619Y-122190476D01*
X118492857Y-122142857D01*
X118635714Y-122142857D01*
X118730952Y-122190476D01*
X118778571Y-122238095D01*
X118826190Y-122333333D01*
X118826190Y-122714285D01*
X118302380Y-121809523D02*
X118302380Y-121190476D01*
X118683333Y-121523809D01*
X118683333Y-121380952D01*
X118730952Y-121285714D01*
X118778571Y-121238095D01*
X118873809Y-121190476D01*
X119111904Y-121190476D01*
X119207142Y-121238095D01*
X119254761Y-121285714D01*
X119302380Y-121380952D01*
X119302380Y-121666666D01*
X119254761Y-121761904D01*
X119207142Y-121809523D01*
X119302380Y-120238095D02*
X119302380Y-120809523D01*
X119302380Y-120523809D02*
X118302380Y-120523809D01*
X118445238Y-120619047D01*
X118540476Y-120714285D01*
X118588095Y-120809523D01*
G04 #@! TO.C,C8*
X83007142Y-91216666D02*
X83054761Y-91264285D01*
X83102380Y-91407142D01*
X83102380Y-91502380D01*
X83054761Y-91645238D01*
X82959523Y-91740476D01*
X82864285Y-91788095D01*
X82673809Y-91835714D01*
X82530952Y-91835714D01*
X82340476Y-91788095D01*
X82245238Y-91740476D01*
X82150000Y-91645238D01*
X82102380Y-91502380D01*
X82102380Y-91407142D01*
X82150000Y-91264285D01*
X82197619Y-91216666D01*
X82530952Y-90645238D02*
X82483333Y-90740476D01*
X82435714Y-90788095D01*
X82340476Y-90835714D01*
X82292857Y-90835714D01*
X82197619Y-90788095D01*
X82150000Y-90740476D01*
X82102380Y-90645238D01*
X82102380Y-90454761D01*
X82150000Y-90359523D01*
X82197619Y-90311904D01*
X82292857Y-90264285D01*
X82340476Y-90264285D01*
X82435714Y-90311904D01*
X82483333Y-90359523D01*
X82530952Y-90454761D01*
X82530952Y-90645238D01*
X82578571Y-90740476D01*
X82626190Y-90788095D01*
X82721428Y-90835714D01*
X82911904Y-90835714D01*
X83007142Y-90788095D01*
X83054761Y-90740476D01*
X83102380Y-90645238D01*
X83102380Y-90454761D01*
X83054761Y-90359523D01*
X83007142Y-90311904D01*
X82911904Y-90264285D01*
X82721428Y-90264285D01*
X82626190Y-90311904D01*
X82578571Y-90359523D01*
X82530952Y-90454761D01*
G04 #@! TO.C,J1*
X107416666Y-130702380D02*
X107416666Y-131416666D01*
X107369047Y-131559523D01*
X107273809Y-131654761D01*
X107130952Y-131702380D01*
X107035714Y-131702380D01*
X108416666Y-131702380D02*
X107845238Y-131702380D01*
X108130952Y-131702380D02*
X108130952Y-130702380D01*
X108035714Y-130845238D01*
X107940476Y-130940476D01*
X107845238Y-130988095D01*
X105385714Y-133666666D02*
X105861904Y-133666666D01*
X105290476Y-133952380D02*
X105623809Y-132952380D01*
X105957142Y-133952380D01*
X106719047Y-133285714D02*
X106719047Y-133952380D01*
X106480952Y-132904761D02*
X106242857Y-133619047D01*
X106861904Y-133619047D01*
G04 #@! TO.C,J10*
X115690476Y-127952380D02*
X115690476Y-128666666D01*
X115642857Y-128809523D01*
X115547619Y-128904761D01*
X115404761Y-128952380D01*
X115309523Y-128952380D01*
X116690476Y-128952380D02*
X116119047Y-128952380D01*
X116404761Y-128952380D02*
X116404761Y-127952380D01*
X116309523Y-128095238D01*
X116214285Y-128190476D01*
X116119047Y-128238095D01*
X117309523Y-127952380D02*
X117404761Y-127952380D01*
X117500000Y-128000000D01*
X117547619Y-128047619D01*
X117595238Y-128142857D01*
X117642857Y-128333333D01*
X117642857Y-128571428D01*
X117595238Y-128761904D01*
X117547619Y-128857142D01*
X117500000Y-128904761D01*
X117404761Y-128952380D01*
X117309523Y-128952380D01*
X117214285Y-128904761D01*
X117166666Y-128857142D01*
X117119047Y-128761904D01*
X117071428Y-128571428D01*
X117071428Y-128333333D01*
X117119047Y-128142857D01*
X117166666Y-128047619D01*
X117214285Y-128000000D01*
X117309523Y-127952380D01*
X115785714Y-131666666D02*
X116261904Y-131666666D01*
X115690476Y-131952380D02*
X116023809Y-130952380D01*
X116357142Y-131952380D01*
X116595238Y-130952380D02*
X117261904Y-130952380D01*
X116833333Y-131952380D01*
G04 #@! TO.C,J12*
X116690476Y-126452380D02*
X116690476Y-127166666D01*
X116642857Y-127309523D01*
X116547619Y-127404761D01*
X116404761Y-127452380D01*
X116309523Y-127452380D01*
X117690476Y-127452380D02*
X117119047Y-127452380D01*
X117404761Y-127452380D02*
X117404761Y-126452380D01*
X117309523Y-126595238D01*
X117214285Y-126690476D01*
X117119047Y-126738095D01*
X118071428Y-126547619D02*
X118119047Y-126500000D01*
X118214285Y-126452380D01*
X118452380Y-126452380D01*
X118547619Y-126500000D01*
X118595238Y-126547619D01*
X118642857Y-126642857D01*
X118642857Y-126738095D01*
X118595238Y-126880952D01*
X118023809Y-127452380D01*
X118642857Y-127452380D01*
X114285714Y-125666666D02*
X114761904Y-125666666D01*
X114190476Y-125952380D02*
X114523809Y-124952380D01*
X114857142Y-125952380D01*
X115095238Y-124952380D02*
X115714285Y-124952380D01*
X115380952Y-125333333D01*
X115523809Y-125333333D01*
X115619047Y-125380952D01*
X115666666Y-125428571D01*
X115714285Y-125523809D01*
X115714285Y-125761904D01*
X115666666Y-125857142D01*
X115619047Y-125904761D01*
X115523809Y-125952380D01*
X115238095Y-125952380D01*
X115142857Y-125904761D01*
X115095238Y-125857142D01*
G04 #@! TO.C,J14*
X77872380Y-106809523D02*
X78586666Y-106809523D01*
X78729523Y-106857142D01*
X78824761Y-106952380D01*
X78872380Y-107095238D01*
X78872380Y-107190476D01*
X78872380Y-105809523D02*
X78872380Y-106380952D01*
X78872380Y-106095238D02*
X77872380Y-106095238D01*
X78015238Y-106190476D01*
X78110476Y-106285714D01*
X78158095Y-106380952D01*
X78205714Y-104952380D02*
X78872380Y-104952380D01*
X77824761Y-105190476D02*
X78539047Y-105428571D01*
X78539047Y-104809523D01*
G04 #@! TO.C,J15*
X108690476Y-126452380D02*
X108690476Y-127166666D01*
X108642857Y-127309523D01*
X108547619Y-127404761D01*
X108404761Y-127452380D01*
X108309523Y-127452380D01*
X109690476Y-127452380D02*
X109119047Y-127452380D01*
X109404761Y-127452380D02*
X109404761Y-126452380D01*
X109309523Y-126595238D01*
X109214285Y-126690476D01*
X109119047Y-126738095D01*
X110595238Y-126452380D02*
X110119047Y-126452380D01*
X110071428Y-126928571D01*
X110119047Y-126880952D01*
X110214285Y-126833333D01*
X110452380Y-126833333D01*
X110547619Y-126880952D01*
X110595238Y-126928571D01*
X110642857Y-127023809D01*
X110642857Y-127261904D01*
X110595238Y-127357142D01*
X110547619Y-127404761D01*
X110452380Y-127452380D01*
X110214285Y-127452380D01*
X110119047Y-127404761D01*
X110071428Y-127357142D01*
X111285714Y-125666666D02*
X111761904Y-125666666D01*
X111190476Y-125952380D02*
X111523809Y-124952380D01*
X111857142Y-125952380D01*
X112714285Y-125952380D02*
X112142857Y-125952380D01*
X112428571Y-125952380D02*
X112428571Y-124952380D01*
X112333333Y-125095238D01*
X112238095Y-125190476D01*
X112142857Y-125238095D01*
G04 #@! TO.C,R5*
X125333333Y-113452380D02*
X125000000Y-112976190D01*
X124761904Y-113452380D02*
X124761904Y-112452380D01*
X125142857Y-112452380D01*
X125238095Y-112500000D01*
X125285714Y-112547619D01*
X125333333Y-112642857D01*
X125333333Y-112785714D01*
X125285714Y-112880952D01*
X125238095Y-112928571D01*
X125142857Y-112976190D01*
X124761904Y-112976190D01*
X126238095Y-112452380D02*
X125761904Y-112452380D01*
X125714285Y-112928571D01*
X125761904Y-112880952D01*
X125857142Y-112833333D01*
X126095238Y-112833333D01*
X126190476Y-112880952D01*
X126238095Y-112928571D01*
X126285714Y-113023809D01*
X126285714Y-113261904D01*
X126238095Y-113357142D01*
X126190476Y-113404761D01*
X126095238Y-113452380D01*
X125857142Y-113452380D01*
X125761904Y-113404761D01*
X125714285Y-113357142D01*
G04 #@! TO.C,R16*
X85857142Y-115952380D02*
X85523809Y-115476190D01*
X85285714Y-115952380D02*
X85285714Y-114952380D01*
X85666666Y-114952380D01*
X85761904Y-115000000D01*
X85809523Y-115047619D01*
X85857142Y-115142857D01*
X85857142Y-115285714D01*
X85809523Y-115380952D01*
X85761904Y-115428571D01*
X85666666Y-115476190D01*
X85285714Y-115476190D01*
X86809523Y-115952380D02*
X86238095Y-115952380D01*
X86523809Y-115952380D02*
X86523809Y-114952380D01*
X86428571Y-115095238D01*
X86333333Y-115190476D01*
X86238095Y-115238095D01*
X87666666Y-114952380D02*
X87476190Y-114952380D01*
X87380952Y-115000000D01*
X87333333Y-115047619D01*
X87238095Y-115190476D01*
X87190476Y-115380952D01*
X87190476Y-115761904D01*
X87238095Y-115857142D01*
X87285714Y-115904761D01*
X87380952Y-115952380D01*
X87571428Y-115952380D01*
X87666666Y-115904761D01*
X87714285Y-115857142D01*
X87761904Y-115761904D01*
X87761904Y-115523809D01*
X87714285Y-115428571D01*
X87666666Y-115380952D01*
X87571428Y-115333333D01*
X87380952Y-115333333D01*
X87285714Y-115380952D01*
X87238095Y-115428571D01*
X87190476Y-115523809D01*
G04 #@! TO.C,R19*
X94852380Y-120992857D02*
X94376190Y-121326190D01*
X94852380Y-121564285D02*
X93852380Y-121564285D01*
X93852380Y-121183333D01*
X93900000Y-121088095D01*
X93947619Y-121040476D01*
X94042857Y-120992857D01*
X94185714Y-120992857D01*
X94280952Y-121040476D01*
X94328571Y-121088095D01*
X94376190Y-121183333D01*
X94376190Y-121564285D01*
X94852380Y-120040476D02*
X94852380Y-120611904D01*
X94852380Y-120326190D02*
X93852380Y-120326190D01*
X93995238Y-120421428D01*
X94090476Y-120516666D01*
X94138095Y-120611904D01*
X94852380Y-119564285D02*
X94852380Y-119373809D01*
X94804761Y-119278571D01*
X94757142Y-119230952D01*
X94614285Y-119135714D01*
X94423809Y-119088095D01*
X94042857Y-119088095D01*
X93947619Y-119135714D01*
X93900000Y-119183333D01*
X93852380Y-119278571D01*
X93852380Y-119469047D01*
X93900000Y-119564285D01*
X93947619Y-119611904D01*
X94042857Y-119659523D01*
X94280952Y-119659523D01*
X94376190Y-119611904D01*
X94423809Y-119564285D01*
X94471428Y-119469047D01*
X94471428Y-119278571D01*
X94423809Y-119183333D01*
X94376190Y-119135714D01*
X94280952Y-119088095D01*
G04 #@! TO.C,R23*
X93857142Y-115952380D02*
X93523809Y-115476190D01*
X93285714Y-115952380D02*
X93285714Y-114952380D01*
X93666666Y-114952380D01*
X93761904Y-115000000D01*
X93809523Y-115047619D01*
X93857142Y-115142857D01*
X93857142Y-115285714D01*
X93809523Y-115380952D01*
X93761904Y-115428571D01*
X93666666Y-115476190D01*
X93285714Y-115476190D01*
X94238095Y-115047619D02*
X94285714Y-115000000D01*
X94380952Y-114952380D01*
X94619047Y-114952380D01*
X94714285Y-115000000D01*
X94761904Y-115047619D01*
X94809523Y-115142857D01*
X94809523Y-115238095D01*
X94761904Y-115380952D01*
X94190476Y-115952380D01*
X94809523Y-115952380D01*
X95142857Y-114952380D02*
X95761904Y-114952380D01*
X95428571Y-115333333D01*
X95571428Y-115333333D01*
X95666666Y-115380952D01*
X95714285Y-115428571D01*
X95761904Y-115523809D01*
X95761904Y-115761904D01*
X95714285Y-115857142D01*
X95666666Y-115904761D01*
X95571428Y-115952380D01*
X95285714Y-115952380D01*
X95190476Y-115904761D01*
X95142857Y-115857142D01*
G04 #@! TO.C,U5*
X112438095Y-115152380D02*
X112438095Y-115961904D01*
X112485714Y-116057142D01*
X112533333Y-116104761D01*
X112628571Y-116152380D01*
X112819047Y-116152380D01*
X112914285Y-116104761D01*
X112961904Y-116057142D01*
X113009523Y-115961904D01*
X113009523Y-115152380D01*
X113961904Y-115152380D02*
X113485714Y-115152380D01*
X113438095Y-115628571D01*
X113485714Y-115580952D01*
X113580952Y-115533333D01*
X113819047Y-115533333D01*
X113914285Y-115580952D01*
X113961904Y-115628571D01*
X114009523Y-115723809D01*
X114009523Y-115961904D01*
X113961904Y-116057142D01*
X113914285Y-116104761D01*
X113819047Y-116152380D01*
X113580952Y-116152380D01*
X113485714Y-116104761D01*
X113438095Y-116057142D01*
G04 #@! TO.C,J8*
X98916666Y-130702380D02*
X98916666Y-131416666D01*
X98869047Y-131559523D01*
X98773809Y-131654761D01*
X98630952Y-131702380D01*
X98535714Y-131702380D01*
X99535714Y-131130952D02*
X99440476Y-131083333D01*
X99392857Y-131035714D01*
X99345238Y-130940476D01*
X99345238Y-130892857D01*
X99392857Y-130797619D01*
X99440476Y-130750000D01*
X99535714Y-130702380D01*
X99726190Y-130702380D01*
X99821428Y-130750000D01*
X99869047Y-130797619D01*
X99916666Y-130892857D01*
X99916666Y-130940476D01*
X99869047Y-131035714D01*
X99821428Y-131083333D01*
X99726190Y-131130952D01*
X99535714Y-131130952D01*
X99440476Y-131178571D01*
X99392857Y-131226190D01*
X99345238Y-131321428D01*
X99345238Y-131511904D01*
X99392857Y-131607142D01*
X99440476Y-131654761D01*
X99535714Y-131702380D01*
X99726190Y-131702380D01*
X99821428Y-131654761D01*
X99869047Y-131607142D01*
X99916666Y-131511904D01*
X99916666Y-131321428D01*
X99869047Y-131226190D01*
X99821428Y-131178571D01*
X99726190Y-131130952D01*
X100085714Y-133666666D02*
X100561904Y-133666666D01*
X99990476Y-133952380D02*
X100323809Y-132952380D01*
X100657142Y-133952380D01*
X101466666Y-132952380D02*
X100990476Y-132952380D01*
X100942857Y-133428571D01*
X100990476Y-133380952D01*
X101085714Y-133333333D01*
X101323809Y-133333333D01*
X101419047Y-133380952D01*
X101466666Y-133428571D01*
X101514285Y-133523809D01*
X101514285Y-133761904D01*
X101466666Y-133857142D01*
X101419047Y-133904761D01*
X101323809Y-133952380D01*
X101085714Y-133952380D01*
X100990476Y-133904761D01*
X100942857Y-133857142D01*
G04 #@! TO.C,J16*
X109690476Y-127952380D02*
X109690476Y-128666666D01*
X109642857Y-128809523D01*
X109547619Y-128904761D01*
X109404761Y-128952380D01*
X109309523Y-128952380D01*
X110690476Y-128952380D02*
X110119047Y-128952380D01*
X110404761Y-128952380D02*
X110404761Y-127952380D01*
X110309523Y-128095238D01*
X110214285Y-128190476D01*
X110119047Y-128238095D01*
X111547619Y-127952380D02*
X111357142Y-127952380D01*
X111261904Y-128000000D01*
X111214285Y-128047619D01*
X111119047Y-128190476D01*
X111071428Y-128380952D01*
X111071428Y-128761904D01*
X111119047Y-128857142D01*
X111166666Y-128904761D01*
X111261904Y-128952380D01*
X111452380Y-128952380D01*
X111547619Y-128904761D01*
X111595238Y-128857142D01*
X111642857Y-128761904D01*
X111642857Y-128523809D01*
X111595238Y-128428571D01*
X111547619Y-128380952D01*
X111452380Y-128333333D01*
X111261904Y-128333333D01*
X111166666Y-128380952D01*
X111119047Y-128428571D01*
X111071428Y-128523809D01*
X109785714Y-131666666D02*
X110261904Y-131666666D01*
X109690476Y-131952380D02*
X110023809Y-130952380D01*
X110357142Y-131952380D01*
X110880952Y-130952380D02*
X110976190Y-130952380D01*
X111071428Y-131000000D01*
X111119047Y-131047619D01*
X111166666Y-131142857D01*
X111214285Y-131333333D01*
X111214285Y-131571428D01*
X111166666Y-131761904D01*
X111119047Y-131857142D01*
X111071428Y-131904761D01*
X110976190Y-131952380D01*
X110880952Y-131952380D01*
X110785714Y-131904761D01*
X110738095Y-131857142D01*
X110690476Y-131761904D01*
X110642857Y-131571428D01*
X110642857Y-131333333D01*
X110690476Y-131142857D01*
X110738095Y-131047619D01*
X110785714Y-131000000D01*
X110880952Y-130952380D01*
G04 #@! TO.C,J17*
X101390476Y-92702380D02*
X101390476Y-93416666D01*
X101342857Y-93559523D01*
X101247619Y-93654761D01*
X101104761Y-93702380D01*
X101009523Y-93702380D01*
X102390476Y-93702380D02*
X101819047Y-93702380D01*
X102104761Y-93702380D02*
X102104761Y-92702380D01*
X102009523Y-92845238D01*
X101914285Y-92940476D01*
X101819047Y-92988095D01*
X102723809Y-92702380D02*
X103390476Y-92702380D01*
X102961904Y-93702380D01*
X101176190Y-88952380D02*
X100700000Y-88952380D01*
X100652380Y-89428571D01*
X100700000Y-89380952D01*
X100795238Y-89333333D01*
X101033333Y-89333333D01*
X101128571Y-89380952D01*
X101176190Y-89428571D01*
X101223809Y-89523809D01*
X101223809Y-89761904D01*
X101176190Y-89857142D01*
X101128571Y-89904761D01*
X101033333Y-89952380D01*
X100795238Y-89952380D01*
X100700000Y-89904761D01*
X100652380Y-89857142D01*
X101509523Y-88952380D02*
X101842857Y-89952380D01*
X102176190Y-88952380D01*
X102271428Y-90047619D02*
X103033333Y-90047619D01*
X103700000Y-89952380D02*
X103700000Y-89428571D01*
X103652380Y-89333333D01*
X103557142Y-89285714D01*
X103366666Y-89285714D01*
X103271428Y-89333333D01*
X103700000Y-89904761D02*
X103604761Y-89952380D01*
X103366666Y-89952380D01*
X103271428Y-89904761D01*
X103223809Y-89809523D01*
X103223809Y-89714285D01*
X103271428Y-89619047D01*
X103366666Y-89571428D01*
X103604761Y-89571428D01*
X103700000Y-89523809D01*
G04 #@! TO.C,C9*
X93783333Y-97357142D02*
X93735714Y-97404761D01*
X93592857Y-97452380D01*
X93497619Y-97452380D01*
X93354761Y-97404761D01*
X93259523Y-97309523D01*
X93211904Y-97214285D01*
X93164285Y-97023809D01*
X93164285Y-96880952D01*
X93211904Y-96690476D01*
X93259523Y-96595238D01*
X93354761Y-96500000D01*
X93497619Y-96452380D01*
X93592857Y-96452380D01*
X93735714Y-96500000D01*
X93783333Y-96547619D01*
X94259523Y-97452380D02*
X94450000Y-97452380D01*
X94545238Y-97404761D01*
X94592857Y-97357142D01*
X94688095Y-97214285D01*
X94735714Y-97023809D01*
X94735714Y-96642857D01*
X94688095Y-96547619D01*
X94640476Y-96500000D01*
X94545238Y-96452380D01*
X94354761Y-96452380D01*
X94259523Y-96500000D01*
X94211904Y-96547619D01*
X94164285Y-96642857D01*
X94164285Y-96880952D01*
X94211904Y-96976190D01*
X94259523Y-97023809D01*
X94354761Y-97071428D01*
X94545238Y-97071428D01*
X94640476Y-97023809D01*
X94688095Y-96976190D01*
X94735714Y-96880952D01*
G04 #@! TO.C,C11*
X108107142Y-115107142D02*
X108059523Y-115154761D01*
X107916666Y-115202380D01*
X107821428Y-115202380D01*
X107678571Y-115154761D01*
X107583333Y-115059523D01*
X107535714Y-114964285D01*
X107488095Y-114773809D01*
X107488095Y-114630952D01*
X107535714Y-114440476D01*
X107583333Y-114345238D01*
X107678571Y-114250000D01*
X107821428Y-114202380D01*
X107916666Y-114202380D01*
X108059523Y-114250000D01*
X108107142Y-114297619D01*
X109059523Y-115202380D02*
X108488095Y-115202380D01*
X108773809Y-115202380D02*
X108773809Y-114202380D01*
X108678571Y-114345238D01*
X108583333Y-114440476D01*
X108488095Y-114488095D01*
X110011904Y-115202380D02*
X109440476Y-115202380D01*
X109726190Y-115202380D02*
X109726190Y-114202380D01*
X109630952Y-114345238D01*
X109535714Y-114440476D01*
X109440476Y-114488095D01*
G04 #@! TO.C,J4*
X86666666Y-56052380D02*
X86666666Y-56766666D01*
X86619047Y-56909523D01*
X86523809Y-57004761D01*
X86380952Y-57052380D01*
X86285714Y-57052380D01*
X87571428Y-56385714D02*
X87571428Y-57052380D01*
X87333333Y-56004761D02*
X87095238Y-56719047D01*
X87714285Y-56719047D01*
G04 #@! TO.C,J5*
X103666666Y-116952380D02*
X103666666Y-117666666D01*
X103619047Y-117809523D01*
X103523809Y-117904761D01*
X103380952Y-117952380D01*
X103285714Y-117952380D01*
X104619047Y-116952380D02*
X104142857Y-116952380D01*
X104095238Y-117428571D01*
X104142857Y-117380952D01*
X104238095Y-117333333D01*
X104476190Y-117333333D01*
X104571428Y-117380952D01*
X104619047Y-117428571D01*
X104666666Y-117523809D01*
X104666666Y-117761904D01*
X104619047Y-117857142D01*
X104571428Y-117904761D01*
X104476190Y-117952380D01*
X104238095Y-117952380D01*
X104142857Y-117904761D01*
X104095238Y-117857142D01*
X103285714Y-119416666D02*
X103761904Y-119416666D01*
X103190476Y-119702380D02*
X103523809Y-118702380D01*
X103857142Y-119702380D01*
X104619047Y-118702380D02*
X104428571Y-118702380D01*
X104333333Y-118750000D01*
X104285714Y-118797619D01*
X104190476Y-118940476D01*
X104142857Y-119130952D01*
X104142857Y-119511904D01*
X104190476Y-119607142D01*
X104238095Y-119654761D01*
X104333333Y-119702380D01*
X104523809Y-119702380D01*
X104619047Y-119654761D01*
X104666666Y-119607142D01*
X104714285Y-119511904D01*
X104714285Y-119273809D01*
X104666666Y-119178571D01*
X104619047Y-119130952D01*
X104523809Y-119083333D01*
X104333333Y-119083333D01*
X104238095Y-119130952D01*
X104190476Y-119178571D01*
X104142857Y-119273809D01*
G04 #@! TO.C,J6*
X95666666Y-56052380D02*
X95666666Y-56766666D01*
X95619047Y-56909523D01*
X95523809Y-57004761D01*
X95380952Y-57052380D01*
X95285714Y-57052380D01*
X96571428Y-56052380D02*
X96380952Y-56052380D01*
X96285714Y-56100000D01*
X96238095Y-56147619D01*
X96142857Y-56290476D01*
X96095238Y-56480952D01*
X96095238Y-56861904D01*
X96142857Y-56957142D01*
X96190476Y-57004761D01*
X96285714Y-57052380D01*
X96476190Y-57052380D01*
X96571428Y-57004761D01*
X96619047Y-56957142D01*
X96666666Y-56861904D01*
X96666666Y-56623809D01*
X96619047Y-56528571D01*
X96571428Y-56480952D01*
X96476190Y-56433333D01*
X96285714Y-56433333D01*
X96190476Y-56480952D01*
X96142857Y-56528571D01*
X96095238Y-56623809D01*
G04 #@! TO.C,J18*
X89872380Y-106809523D02*
X90586666Y-106809523D01*
X90729523Y-106857142D01*
X90824761Y-106952380D01*
X90872380Y-107095238D01*
X90872380Y-107190476D01*
X90872380Y-105809523D02*
X90872380Y-106380952D01*
X90872380Y-106095238D02*
X89872380Y-106095238D01*
X90015238Y-106190476D01*
X90110476Y-106285714D01*
X90158095Y-106380952D01*
X90300952Y-105238095D02*
X90253333Y-105333333D01*
X90205714Y-105380952D01*
X90110476Y-105428571D01*
X90062857Y-105428571D01*
X89967619Y-105380952D01*
X89920000Y-105333333D01*
X89872380Y-105238095D01*
X89872380Y-105047619D01*
X89920000Y-104952380D01*
X89967619Y-104904761D01*
X90062857Y-104857142D01*
X90110476Y-104857142D01*
X90205714Y-104904761D01*
X90253333Y-104952380D01*
X90300952Y-105047619D01*
X90300952Y-105238095D01*
X90348571Y-105333333D01*
X90396190Y-105380952D01*
X90491428Y-105428571D01*
X90681904Y-105428571D01*
X90777142Y-105380952D01*
X90824761Y-105333333D01*
X90872380Y-105238095D01*
X90872380Y-105047619D01*
X90824761Y-104952380D01*
X90777142Y-104904761D01*
X90681904Y-104857142D01*
X90491428Y-104857142D01*
X90396190Y-104904761D01*
X90348571Y-104952380D01*
X90300952Y-105047619D01*
G04 #@! TO.C,J19*
X101872380Y-106809523D02*
X102586666Y-106809523D01*
X102729523Y-106857142D01*
X102824761Y-106952380D01*
X102872380Y-107095238D01*
X102872380Y-107190476D01*
X102872380Y-105809523D02*
X102872380Y-106380952D01*
X102872380Y-106095238D02*
X101872380Y-106095238D01*
X102015238Y-106190476D01*
X102110476Y-106285714D01*
X102158095Y-106380952D01*
X102872380Y-105333333D02*
X102872380Y-105142857D01*
X102824761Y-105047619D01*
X102777142Y-105000000D01*
X102634285Y-104904761D01*
X102443809Y-104857142D01*
X102062857Y-104857142D01*
X101967619Y-104904761D01*
X101920000Y-104952380D01*
X101872380Y-105047619D01*
X101872380Y-105238095D01*
X101920000Y-105333333D01*
X101967619Y-105380952D01*
X102062857Y-105428571D01*
X102300952Y-105428571D01*
X102396190Y-105380952D01*
X102443809Y-105333333D01*
X102491428Y-105238095D01*
X102491428Y-105047619D01*
X102443809Y-104952380D01*
X102396190Y-104904761D01*
X102300952Y-104857142D01*
G04 #@! TO.C,R7*
X133852380Y-115541666D02*
X133376190Y-115875000D01*
X133852380Y-116113095D02*
X132852380Y-116113095D01*
X132852380Y-115732142D01*
X132900000Y-115636904D01*
X132947619Y-115589285D01*
X133042857Y-115541666D01*
X133185714Y-115541666D01*
X133280952Y-115589285D01*
X133328571Y-115636904D01*
X133376190Y-115732142D01*
X133376190Y-116113095D01*
X132852380Y-115208333D02*
X132852380Y-114541666D01*
X133852380Y-114970238D01*
G04 #@! TO.C,J7*
X68977380Y-83333333D02*
X69691666Y-83333333D01*
X69834523Y-83380952D01*
X69929761Y-83476190D01*
X69977380Y-83619047D01*
X69977380Y-83714285D01*
X68977380Y-82952380D02*
X68977380Y-82285714D01*
X69977380Y-82714285D01*
X72075000Y-83761904D02*
X72027380Y-83857142D01*
X72027380Y-84000000D01*
X72075000Y-84142857D01*
X72170238Y-84238095D01*
X72265476Y-84285714D01*
X72455952Y-84333333D01*
X72598809Y-84333333D01*
X72789285Y-84285714D01*
X72884523Y-84238095D01*
X72979761Y-84142857D01*
X73027380Y-84000000D01*
X73027380Y-83904761D01*
X72979761Y-83761904D01*
X72932142Y-83714285D01*
X72598809Y-83714285D01*
X72598809Y-83904761D01*
X73027380Y-83285714D02*
X72027380Y-83285714D01*
X73027380Y-82714285D01*
X72027380Y-82714285D01*
X73027380Y-82238095D02*
X72027380Y-82238095D01*
X72027380Y-82000000D01*
X72075000Y-81857142D01*
X72170238Y-81761904D01*
X72265476Y-81714285D01*
X72455952Y-81666666D01*
X72598809Y-81666666D01*
X72789285Y-81714285D01*
X72884523Y-81761904D01*
X72979761Y-81857142D01*
X73027380Y-82000000D01*
X73027380Y-82238095D01*
G04 #@! TO.C,J21*
X97940476Y-77452380D02*
X97940476Y-78166666D01*
X97892857Y-78309523D01*
X97797619Y-78404761D01*
X97654761Y-78452380D01*
X97559523Y-78452380D01*
X98369047Y-77547619D02*
X98416666Y-77500000D01*
X98511904Y-77452380D01*
X98750000Y-77452380D01*
X98845238Y-77500000D01*
X98892857Y-77547619D01*
X98940476Y-77642857D01*
X98940476Y-77738095D01*
X98892857Y-77880952D01*
X98321428Y-78452380D01*
X98940476Y-78452380D01*
X99892857Y-78452380D02*
X99321428Y-78452380D01*
X99607142Y-78452380D02*
X99607142Y-77452380D01*
X99511904Y-77595238D01*
X99416666Y-77690476D01*
X99321428Y-77738095D01*
X97726190Y-74452380D02*
X97250000Y-74452380D01*
X97202380Y-74928571D01*
X97250000Y-74880952D01*
X97345238Y-74833333D01*
X97583333Y-74833333D01*
X97678571Y-74880952D01*
X97726190Y-74928571D01*
X97773809Y-75023809D01*
X97773809Y-75261904D01*
X97726190Y-75357142D01*
X97678571Y-75404761D01*
X97583333Y-75452380D01*
X97345238Y-75452380D01*
X97250000Y-75404761D01*
X97202380Y-75357142D01*
X98059523Y-74452380D02*
X98392857Y-75452380D01*
X98726190Y-74452380D01*
X98821428Y-75547619D02*
X99583333Y-75547619D01*
X99821428Y-75452380D02*
X99821428Y-74452380D01*
X99821428Y-74833333D02*
X99916666Y-74785714D01*
X100107142Y-74785714D01*
X100202380Y-74833333D01*
X100250000Y-74880952D01*
X100297619Y-74976190D01*
X100297619Y-75261904D01*
X100250000Y-75357142D01*
X100202380Y-75404761D01*
X100107142Y-75452380D01*
X99916666Y-75452380D01*
X99821428Y-75404761D01*
G04 #@! TO.C,REF\002A\002A*
X70666666Y-52252380D02*
X70333333Y-51776190D01*
X70095238Y-52252380D02*
X70095238Y-51252380D01*
X70476190Y-51252380D01*
X70571428Y-51300000D01*
X70619047Y-51347619D01*
X70666666Y-51442857D01*
X70666666Y-51585714D01*
X70619047Y-51680952D01*
X70571428Y-51728571D01*
X70476190Y-51776190D01*
X70095238Y-51776190D01*
X71095238Y-51728571D02*
X71428571Y-51728571D01*
X71571428Y-52252380D02*
X71095238Y-52252380D01*
X71095238Y-51252380D01*
X71571428Y-51252380D01*
X72333333Y-51728571D02*
X72000000Y-51728571D01*
X72000000Y-52252380D02*
X72000000Y-51252380D01*
X72476190Y-51252380D01*
X73000000Y-51252380D02*
X73000000Y-51490476D01*
X72761904Y-51395238D02*
X73000000Y-51490476D01*
X73238095Y-51395238D01*
X72857142Y-51680952D02*
X73000000Y-51490476D01*
X73142857Y-51680952D01*
X73761904Y-51252380D02*
X73761904Y-51490476D01*
X73523809Y-51395238D02*
X73761904Y-51490476D01*
X74000000Y-51395238D01*
X73619047Y-51680952D02*
X73761904Y-51490476D01*
X73904761Y-51680952D01*
G04 #@! TO.C,J22*
X68952380Y-79809523D02*
X69666666Y-79809523D01*
X69809523Y-79857142D01*
X69904761Y-79952380D01*
X69952380Y-80095238D01*
X69952380Y-80190476D01*
X69047619Y-79380952D02*
X69000000Y-79333333D01*
X68952380Y-79238095D01*
X68952380Y-79000000D01*
X69000000Y-78904761D01*
X69047619Y-78857142D01*
X69142857Y-78809523D01*
X69238095Y-78809523D01*
X69380952Y-78857142D01*
X69952380Y-79428571D01*
X69952380Y-78809523D01*
X69047619Y-78428571D02*
X69000000Y-78380952D01*
X68952380Y-78285714D01*
X68952380Y-78047619D01*
X69000000Y-77952380D01*
X69047619Y-77904761D01*
X69142857Y-77857142D01*
X69238095Y-77857142D01*
X69380952Y-77904761D01*
X69952380Y-78476190D01*
X69952380Y-77857142D01*
X71952380Y-80238095D02*
X71952380Y-79619047D01*
X72333333Y-79952380D01*
X72333333Y-79809523D01*
X72380952Y-79714285D01*
X72428571Y-79666666D01*
X72523809Y-79619047D01*
X72761904Y-79619047D01*
X72857142Y-79666666D01*
X72904761Y-79714285D01*
X72952380Y-79809523D01*
X72952380Y-80095238D01*
X72904761Y-80190476D01*
X72857142Y-80238095D01*
X71952380Y-79333333D02*
X72952380Y-79000000D01*
X71952380Y-78666666D01*
X71952380Y-78428571D02*
X71952380Y-77809523D01*
X72333333Y-78142857D01*
X72333333Y-78000000D01*
X72380952Y-77904761D01*
X72428571Y-77857142D01*
X72523809Y-77809523D01*
X72761904Y-77809523D01*
X72857142Y-77857142D01*
X72904761Y-77904761D01*
X72952380Y-78000000D01*
X72952380Y-78285714D01*
X72904761Y-78380952D01*
X72857142Y-78428571D01*
G04 #@! TO.C,J23*
X68952380Y-75809523D02*
X69666666Y-75809523D01*
X69809523Y-75857142D01*
X69904761Y-75952380D01*
X69952380Y-76095238D01*
X69952380Y-76190476D01*
X69047619Y-75380952D02*
X69000000Y-75333333D01*
X68952380Y-75238095D01*
X68952380Y-75000000D01*
X69000000Y-74904761D01*
X69047619Y-74857142D01*
X69142857Y-74809523D01*
X69238095Y-74809523D01*
X69380952Y-74857142D01*
X69952380Y-75428571D01*
X69952380Y-74809523D01*
X68952380Y-74476190D02*
X68952380Y-73857142D01*
X69333333Y-74190476D01*
X69333333Y-74047619D01*
X69380952Y-73952380D01*
X69428571Y-73904761D01*
X69523809Y-73857142D01*
X69761904Y-73857142D01*
X69857142Y-73904761D01*
X69904761Y-73952380D01*
X69952380Y-74047619D01*
X69952380Y-74333333D01*
X69904761Y-74428571D01*
X69857142Y-74476190D01*
X72952380Y-75619047D02*
X72952380Y-76190476D01*
X72952380Y-75904761D02*
X71952380Y-75904761D01*
X72095238Y-76000000D01*
X72190476Y-76095238D01*
X72238095Y-76190476D01*
X72047619Y-75238095D02*
X72000000Y-75190476D01*
X71952380Y-75095238D01*
X71952380Y-74857142D01*
X72000000Y-74761904D01*
X72047619Y-74714285D01*
X72142857Y-74666666D01*
X72238095Y-74666666D01*
X72380952Y-74714285D01*
X72952380Y-75285714D01*
X72952380Y-74666666D01*
X71952380Y-74380952D02*
X72952380Y-74047619D01*
X71952380Y-73714285D01*
G04 #@! TD*
M02*
