<?xml version="1.0" encoding="UTF-8" standalone="no"?>
<svg
   xmlns:dc="http://purl.org/dc/elements/1.1/"
   xmlns:cc="http://creativecommons.org/ns#"
   xmlns:rdf="http://www.w3.org/1999/02/22-rdf-syntax-ns#"
   xmlns:svg="http://www.w3.org/2000/svg"
   xmlns="http://www.w3.org/2000/svg"
   xmlns:sodipodi="http://sodipodi.sourceforge.net/DTD/sodipodi-0.dtd"
   xmlns:inkscape="http://www.inkscape.org/namespaces/inkscape"
   width="152mm"
   height="68mm"
   viewBox="0 -68 152 68"
   version="1.1"
   style="stroke-linecap:round;stroke-linejoin:round;fill:none"
   id="svg1718"
   sodipodi:docname="achterkant2.svg"
   inkscape:version="1.0.1 (c497b03c, 2020-09-10)">
  <metadata
     id="metadata1724">
    <rdf:RDF>
      <cc:Work
         rdf:about="">
        <dc:format>image/svg+xml</dc:format>
        <dc:type
           rdf:resource="http://purl.org/dc/dcmitype/StillImage" />
      </cc:Work>
    </rdf:RDF>
  </metadata>
  <defs
     id="defs1722" />
  <sodipodi:namedview
     pagecolor="#ffffff"
     bordercolor="#666666"
     borderopacity="1"
     objecttolerance="10"
     gridtolerance="10"
     guidetolerance="10"
     inkscape:pageopacity="0"
     inkscape:pageshadow="2"
     inkscape:window-width="1324"
     inkscape:window-height="825"
     id="namedview1720"
     showgrid="false"
     inkscape:zoom="1.9077851"
     inkscape:cx="231.68228"
     inkscape:cy="148.42232"
     inkscape:window-x="2029"
     inkscape:window-y="25"
     inkscape:window-maximized="0"
     inkscape:current-layer="svg1718" />
  <path
     d="m 25.19,-29.1 a 1,-1 0 0 1 -1,-1 v -7 a 1,-1 0 0 1 1,-1 h 10 a 1,-1 0 0 1 1,1 v 7 a 1,-1 0 0 1 -1,1 z"
     style="stroke:#000000;stroke-width:0.25"
     id="path1670" />
  <path
     d="m 22.1,-23 a 1,-1 0 0 1 1,-1 h 14 a 1,-1 0 0 1 1,1 v 6 a 1,-1 0 0 1 -1,1 h -14 a 1,-1 0 0 1 -1,-1 z"
     style="stroke:#000000;stroke-width:0.25"
     id="path1672" />
  <path
     d="m 149,-28 v 10 h -3.1 v -10 z"
     style="stroke:#000000;stroke-width:0.25"
     id="path1674" />
  <path
     d="m 149,-58 v 10 h -3.1 v -10 z"
     style="stroke:#000000;stroke-width:0.25"
     id="path1676" />
  <path
     d="m 6.1,-58 v 10 H 3 v -10 z"
     style="stroke:#000000;stroke-width:0.25"
     id="path1678" />
  <path
     d="m 6.1,-28 v 10 H 3 v -10 z"
     style="stroke:#000000;stroke-width:0.25"
     id="path1680" />
  <path
     d="m 116,-13 v 3 h -10 v -3 z"
     style="stroke:#000000;stroke-width:0.25"
     id="path1682" />
  <path
     d="m 46,-13 v 3 H 36 v -3 z"
     style="stroke:#000000;stroke-width:0.25"
     id="path1684" />
  <path
     d="m 0,0 h 15 l 8.5,-7 h 105 l 8.5,7 h 15 V -68 H 0 Z"
     style="stroke:#000000;stroke-width:0.25"
     id="path1686" />
</svg>
