<?xml version="1.0" encoding="UTF-8" standalone="no"?>
<svg
   xmlns:dc="http://purl.org/dc/elements/1.1/"
   xmlns:cc="http://creativecommons.org/ns#"
   xmlns:rdf="http://www.w3.org/1999/02/22-rdf-syntax-ns#"
   xmlns:svg="http://www.w3.org/2000/svg"
   xmlns="http://www.w3.org/2000/svg"
   xmlns:sodipodi="http://sodipodi.sourceforge.net/DTD/sodipodi-0.dtd"
   xmlns:inkscape="http://www.inkscape.org/namespaces/inkscape"
   width="152mm"
   height="100mm"
   viewBox="0 -100 152 100"
   version="1.1"
   style="stroke-linecap:round;stroke-linejoin:round;fill:none"
   id="svg883"
   sodipodi:docname="top_s_filled.svg"
   inkscape:version="1.0.1 (c497b03c, 2020-09-10)">
  <metadata
     id="metadata889">
    <rdf:RDF>
      <cc:Work
         rdf:about="">
        <dc:format>image/svg+xml</dc:format>
        <dc:type
           rdf:resource="http://purl.org/dc/dcmitype/StillImage" />
      </cc:Work>
    </rdf:RDF>
  </metadata>
  <defs
     id="defs887" />
  <sodipodi:namedview
     pagecolor="#ffffff"
     bordercolor="#666666"
     borderopacity="1"
     objecttolerance="10"
     gridtolerance="10"
     guidetolerance="10"
     inkscape:pageopacity="0"
     inkscape:pageshadow="2"
     inkscape:window-width="1325"
     inkscape:window-height="785"
     id="namedview885"
     showgrid="false"
     inkscape:zoom="1.0757401"
     inkscape:cx="307.69513"
     inkscape:cy="172.24371"
     inkscape:window-x="0"
     inkscape:window-y="25"
     inkscape:window-maximized="0"
     inkscape:current-layer="svg883" />
  <path
     id="path843"
     style="fill:#ff0000;stroke:#000000;stroke-width:0.944882"
     d="M 0 0 L 0 377.95312 L 574.48828 377.95312 L 574.48828 0 L 0 0 z M 56.693359 43.464844 L 517.79492 43.464844 L 517.79492 334.48828 L 56.693359 334.48828 L 56.693359 43.464844 z M 46.109375 49.701172 A 5.8582676 -5.8582676 0 0 1 51.96875 55.558594 A 5.8582676 -5.8582676 0 0 1 46.109375 61.417969 A 5.8582676 -5.8582676 0 0 1 40.251953 55.558594 A 5.8582676 -5.8582676 0 0 1 46.109375 49.701172 z M 528.33594 49.701172 A 5.8582676 5.8582676 0 0 1 528.37891 49.701172 A 5.8582676 5.8582676 0 0 1 534.23633 55.558594 A 5.8582676 5.8582676 0 0 1 528.37891 61.417969 A 5.8582676 5.8582676 0 0 1 522.51953 55.558594 A 5.8582676 5.8582676 0 0 1 528.33594 49.701172 z M 11.337891 56.693359 L 22.677734 56.693359 L 22.677734 94.488281 L 11.337891 94.488281 L 11.337891 56.693359 z M 551.81055 56.693359 L 563.15039 56.693359 L 563.15039 94.488281 L 551.81055 94.488281 L 551.81055 56.693359 z M 11.337891 283.46484 L 22.677734 283.46484 L 22.677734 321.25977 L 11.337891 321.25977 L 11.337891 283.46484 z M 551.81055 283.46484 L 563.15039 283.46484 L 563.15039 321.25977 L 551.81055 321.25977 L 551.81055 283.46484 z M 46.066406 316.53516 A 5.8582676 5.8582676 0 0 1 46.109375 316.53516 A 5.8582676 5.8582676 0 0 1 51.96875 322.39453 A 5.8582676 5.8582676 0 0 1 46.109375 328.25195 A 5.8582676 5.8582676 0 0 1 40.251953 322.39453 A 5.8582676 5.8582676 0 0 1 46.066406 316.53516 z M 528.33398 316.53516 A 5.8582676 5.8582676 0 0 1 528.37891 316.53516 A 5.8582676 5.8582676 0 0 1 534.23633 322.39453 A 5.8582676 5.8582676 0 0 1 528.37891 328.25195 A 5.8582676 5.8582676 0 0 1 522.51953 322.39453 A 5.8582676 5.8582676 0 0 1 528.33398 316.53516 z "
     transform="matrix(0.26458334,0,0,0.26458334,0,-100)" />
</svg>
