<?xml version="1.0" encoding="UTF-8" standalone="no"?>
<svg
   xmlns:dc="http://purl.org/dc/elements/1.1/"
   xmlns:cc="http://creativecommons.org/ns#"
   xmlns:rdf="http://www.w3.org/1999/02/22-rdf-syntax-ns#"
   xmlns:svg="http://www.w3.org/2000/svg"
   xmlns="http://www.w3.org/2000/svg"
   xmlns:sodipodi="http://sodipodi.sourceforge.net/DTD/sodipodi-0.dtd"
   xmlns:inkscape="http://www.inkscape.org/namespaces/inkscape"
   width="152mm"
   height="68mm"
   viewBox="0 -68 152 68"
   version="1.1"
   style="stroke-linecap:round;stroke-linejoin:round;fill:none"
   id="svg1027"
   sodipodi:docname="voorkant_s.svg"
   inkscape:version="1.0.1 (c497b03c, 2020-09-10)">
  <metadata
     id="metadata1033">
    <rdf:RDF>
      <cc:Work
         rdf:about="">
        <dc:format>image/svg+xml</dc:format>
        <dc:type
           rdf:resource="http://purl.org/dc/dcmitype/StillImage" />
        <dc:title />
      </cc:Work>
    </rdf:RDF>
  </metadata>
  <defs
     id="defs1031" />
  <sodipodi:namedview
     pagecolor="#ffffff"
     bordercolor="#666666"
     borderopacity="1"
     objecttolerance="10"
     gridtolerance="10"
     guidetolerance="10"
     inkscape:pageopacity="0"
     inkscape:pageshadow="2"
     inkscape:window-width="1440"
     inkscape:window-height="847"
     id="namedview1029"
     showgrid="false"
     inkscape:zoom="1.4145666"
     inkscape:cx="285.15981"
     inkscape:cy="138.54193"
     inkscape:window-x="0"
     inkscape:window-y="25"
     inkscape:window-maximized="0"
     inkscape:current-layer="svg1027"
     inkscape:document-rotation="0" />
  <path
     d="M 0,0 H 15"
     style="stroke:#000000;stroke-width:0.25"
     id="path833" />
  <path
     d="m 15,0 8.5,-7"
     style="stroke:#000000;stroke-width:0.25"
     id="path835" />
  <path
     id="path855"
     style="stroke:#000000;stroke-width:0.25"
     d="m 36,-10 v -3 m 10,3 H 36 m 10,-3 v 3 m -10,-3 h 10" />
  <path
     id="path863"
     style="stroke:#000000;stroke-width:0.25"
     d="m 106,-10 v -3 m 10,3 h -10 m 10,-3 v 3 m -10,-3 h 10" />
  <path
     id="path871"
     style="stroke:#000000;stroke-width:0.25"
     d="m 3,-18 v -10 m 3.1,10 H 3 m 3.1,-10 v 10 M 3,-28 h 3.1" />
  <path
     id="path887"
     style="stroke:#000000;stroke-width:0.25"
     d="m 145.9,-48 v -10 m 3.1,10 h -3.1 m 3.1,-10 v 10 m -3.1,-10 h 3.1" />
  <path
     id="path895"
     style="stroke:#000000;stroke-width:0.25"
     d="m 145.9,-18 v -10 m 3.1,10 h -3.1 m 3.1,-10 v 10 m -3.1,-10 h 3.1" />
  <circle
     cx="120.9"
     cy="38"
     r="1.25"
     style="stroke:#000000;stroke-width:0.25"
     id="circle897"
     transform="scale(1,-1)" />
  <circle
     cx="120.9"
     cy="23.5"
     r="1.25"
     style="stroke:#000000;stroke-width:0.25"
     id="circle899"
     transform="scale(1,-1)" />
  <circle
     cx="135.39999"
     cy="23.5"
     r="1.25"
     style="stroke:#000000;stroke-width:0.25"
     id="circle901"
     transform="scale(1,-1)" />
  <circle
     cx="135.39999"
     cy="38"
     r="1.25"
     style="stroke:#000000;stroke-width:0.25"
     id="circle903"
     transform="scale(1,-1)" />
  <circle
     cx="19"
     cy="48"
     r="6"
     style="stroke:#000000;stroke-width:0.25"
     id="circle905"
     transform="scale(1,-1)" />
  <path
     id="path939"
     style="stroke:#000000;stroke-width:0.25"
     d="M 3,-58 H 6.1 M 3,-48 v -10 m 3.1,10 H 3 m 3.1,-10 v 10"
     sodipodi:nodetypes="cccccccc" />
  <path
     id="path977"
     style="stroke:#000000;stroke-width:0.25"
     d="m 15,0 8.5,-7 M 0,-68 V 0 M 152,-68 H 0 M 152,0 V -68 M 137,0 h 15 M 128.5,-7 137,0 M 23.5,-7 h 105" />
  <path
     d="M 0,0 H 15"
     style="stroke:#000000;stroke-width:0.25"
     id="path979" />
  <path
     d="M 31.0501,-49 H 30.2 v 2 h 0.8501 a 10,-10 0 1 0 0,-2"
     style="stroke:#000000;stroke-width:0.25"
     id="path985" />
  <path
     id="path993"
     style="stroke:#000000;stroke-width:0.25"
     d="m 29.5,-26.41 a 1,1 0 0 0 -1,1 m 16,0 a 1,1 0 0 0 -1,-1 m 0,6.58 a 1,1 0 0 0 1,-1 m -16,0 a 1,1 0 0 0 1,1 m 0,-6.58 h 14 m 1,1 v 4.58 m -1,1 h -14 m -1,-1 v -4.58" />
  <path
     id="path995"
     style="stroke:#000000;stroke-width:0.25"
     d="m 124.65,-37.6647 a 7.75,7.75 0 1 0 7,0 m -7,0 V -41 m 0,0 h 7 m 0,0 v 3.3353" />
</svg>
