solid OpenSCAD_Model
  facet normal 0.92388 -0.382683 0
    outer loop
      vertex 12.7279 -12.7279 1.5
      vertex 18 0 -1.5
      vertex 18 0 1.5
    endloop
  endfacet
  facet normal 0.92388 -0.382683 0
    outer loop
      vertex 18 0 -1.5
      vertex 12.7279 -12.7279 1.5
      vertex 12.7279 -12.7279 -1.5
    endloop
  endfacet
  facet normal 0.382683 0.92388 -0
    outer loop
      vertex 12.7279 12.7279 -1.5
      vertex 0 18 1.5
      vertex 12.7279 12.7279 1.5
    endloop
  endfacet
  facet normal 0.382683 0.92388 0
    outer loop
      vertex 0 18 1.5
      vertex 12.7279 12.7279 -1.5
      vertex 0 18 -1.5
    endloop
  endfacet
  facet normal 0.92388 0.382683 0
    outer loop
      vertex 18 0 1.5
      vertex 12.7279 12.7279 -1.5
      vertex 12.7279 12.7279 1.5
    endloop
  endfacet
  facet normal 0.92388 0.382683 0
    outer loop
      vertex 12.7279 12.7279 -1.5
      vertex 18 0 1.5
      vertex 18 0 -1.5
    endloop
  endfacet
  facet normal 0 0 -1
    outer loop
      vertex 8.41457 -8.41457 -1.5
      vertex 8.41457 8.41457 -1.5
      vertex 11.9 0 -1.5
    endloop
  endfacet
  facet normal 0 0 -1
    outer loop
      vertex 0 -11.9 -1.5
      vertex 8.41457 8.41457 -1.5
      vertex 8.41457 -8.41457 -1.5
    endloop
  endfacet
  facet normal 0 0 -1
    outer loop
      vertex 0 -11.9 -1.5
      vertex 0 11.9 -1.5
      vertex 8.41457 8.41457 -1.5
    endloop
  endfacet
  facet normal 0 0 -1
    outer loop
      vertex -8.41457 -8.41457 -1.5
      vertex 0 11.9 -1.5
      vertex 0 -11.9 -1.5
    endloop
  endfacet
  facet normal 0 0 -1
    outer loop
      vertex -8.41457 -8.41457 -1.5
      vertex -8.41457 8.41457 -1.5
      vertex 0 11.9 -1.5
    endloop
  endfacet
  facet normal 0 -0 -1
    outer loop
      vertex -8.41457 8.41457 -1.5
      vertex -8.41457 -8.41457 -1.5
      vertex -11.9 0 -1.5
    endloop
  endfacet
  facet normal 0 0 -1
    outer loop
      vertex 12.7279 -12.7279 -1.5
      vertex 14.9 0 -1.5
      vertex 18 0 -1.5
    endloop
  endfacet
  facet normal 0 0 -1
    outer loop
      vertex 12.7279 -12.7279 -1.5
      vertex 10.5359 -10.5359 -1.5
      vertex 14.9 0 -1.5
    endloop
  endfacet
  facet normal 0 0 -1
    outer loop
      vertex 0 -18 -1.5
      vertex 10.5359 -10.5359 -1.5
      vertex 12.7279 -12.7279 -1.5
    endloop
  endfacet
  facet normal 0 0 -1
    outer loop
      vertex 0 -18 -1.5
      vertex 0 -14.9 -1.5
      vertex 10.5359 -10.5359 -1.5
    endloop
  endfacet
  facet normal 0 0 -1
    outer loop
      vertex 0 -18 -1.5
      vertex -10.5359 -10.5359 -1.5
      vertex 0 -14.9 -1.5
    endloop
  endfacet
  facet normal 0 0 -1
    outer loop
      vertex -12.7279 -12.7279 -1.5
      vertex -10.5359 -10.5359 -1.5
      vertex 0 -18 -1.5
    endloop
  endfacet
  facet normal 0 0 -1
    outer loop
      vertex -12.7279 -12.7279 -1.5
      vertex -14.9 0 -1.5
      vertex -10.5359 -10.5359 -1.5
    endloop
  endfacet
  facet normal -0 -0 -1
    outer loop
      vertex -14.9 0 -1.5
      vertex -12.7279 -12.7279 -1.5
      vertex -18 0 -1.5
    endloop
  endfacet
  facet normal 0 0 -1
    outer loop
      vertex 14.9 0 -1.5
      vertex 12.7279 12.7279 -1.5
      vertex 18 0 -1.5
    endloop
  endfacet
  facet normal 0 0 -1
    outer loop
      vertex 10.5359 10.5359 -1.5
      vertex 12.7279 12.7279 -1.5
      vertex 14.9 0 -1.5
    endloop
  endfacet
  facet normal 0 0 -1
    outer loop
      vertex 0 14.9 -1.5
      vertex 12.7279 12.7279 -1.5
      vertex 10.5359 10.5359 -1.5
    endloop
  endfacet
  facet normal 0 0 -1
    outer loop
      vertex 0 14.9 -1.5
      vertex 0 18 -1.5
      vertex 12.7279 12.7279 -1.5
    endloop
  endfacet
  facet normal 0 0 -1
    outer loop
      vertex -10.5359 10.5359 -1.5
      vertex 0 18 -1.5
      vertex 0 14.9 -1.5
    endloop
  endfacet
  facet normal 0 0 -1
    outer loop
      vertex -10.5359 10.5359 -1.5
      vertex -12.7279 12.7279 -1.5
      vertex 0 18 -1.5
    endloop
  endfacet
  facet normal 0 0 -1
    outer loop
      vertex -14.9 0 -1.5
      vertex -12.7279 12.7279 -1.5
      vertex -10.5359 10.5359 -1.5
    endloop
  endfacet
  facet normal 0 0 -1
    outer loop
      vertex -12.7279 12.7279 -1.5
      vertex -14.9 0 -1.5
      vertex -18 0 -1.5
    endloop
  endfacet
  facet normal -0.382683 -0.92388 0
    outer loop
      vertex -12.7279 -12.7279 -1.5
      vertex 0 -18 1.5
      vertex -12.7279 -12.7279 1.5
    endloop
  endfacet
  facet normal -0.382683 -0.92388 -0
    outer loop
      vertex 0 -18 1.5
      vertex -12.7279 -12.7279 -1.5
      vertex 0 -18 -1.5
    endloop
  endfacet
  facet normal -0.92388 -0.382683 0
    outer loop
      vertex -12.7279 -12.7279 -1.5
      vertex -18 0 1.5
      vertex -18 0 -1.5
    endloop
  endfacet
  facet normal -0.92388 -0.382683 0
    outer loop
      vertex -18 0 1.5
      vertex -12.7279 -12.7279 -1.5
      vertex -12.7279 -12.7279 1.5
    endloop
  endfacet
  facet normal 0 0 1
    outer loop
      vertex 12.7279 12.7279 1.5
      vertex 12.7279 -12.7279 1.5
      vertex 18 0 1.5
    endloop
  endfacet
  facet normal 0 0 1
    outer loop
      vertex 0 18 1.5
      vertex 12.7279 -12.7279 1.5
      vertex 12.7279 12.7279 1.5
    endloop
  endfacet
  facet normal 0 0 1
    outer loop
      vertex 0 18 1.5
      vertex 0 -18 1.5
      vertex 12.7279 -12.7279 1.5
    endloop
  endfacet
  facet normal -0 0 1
    outer loop
      vertex -12.7279 12.7279 1.5
      vertex 0 -18 1.5
      vertex 0 18 1.5
    endloop
  endfacet
  facet normal 0 0 1
    outer loop
      vertex -12.7279 12.7279 1.5
      vertex -12.7279 -12.7279 1.5
      vertex 0 -18 1.5
    endloop
  endfacet
  facet normal 0 -0 1
    outer loop
      vertex -12.7279 -12.7279 1.5
      vertex -12.7279 12.7279 1.5
      vertex -18 0 1.5
    endloop
  endfacet
  facet normal -0.382683 0.92388 0
    outer loop
      vertex 0 18 -1.5
      vertex -12.7279 12.7279 1.5
      vertex 0 18 1.5
    endloop
  endfacet
  facet normal -0.382683 0.92388 0
    outer loop
      vertex -12.7279 12.7279 1.5
      vertex 0 18 -1.5
      vertex -12.7279 12.7279 -1.5
    endloop
  endfacet
  facet normal 0.382683 -0.92388 0
    outer loop
      vertex 0 -18 -1.5
      vertex 12.7279 -12.7279 1.5
      vertex 0 -18 1.5
    endloop
  endfacet
  facet normal 0.382683 -0.92388 0
    outer loop
      vertex 12.7279 -12.7279 1.5
      vertex 0 -18 -1.5
      vertex 12.7279 -12.7279 -1.5
    endloop
  endfacet
  facet normal -0.92388 0.382683 0
    outer loop
      vertex -18 0 -1.5
      vertex -12.7279 12.7279 1.5
      vertex -12.7279 12.7279 -1.5
    endloop
  endfacet
  facet normal -0.92388 0.382683 0
    outer loop
      vertex -12.7279 12.7279 1.5
      vertex -18 0 -1.5
      vertex -18 0 1.5
    endloop
  endfacet
  facet normal 0.382683 -0.92388 0
    outer loop
      vertex 0 -14.9 -7.5
      vertex 10.5359 -10.5359 -1.5
      vertex 0 -14.9 -1.5
    endloop
  endfacet
  facet normal 0.382683 -0.92388 0
    outer loop
      vertex 10.5359 -10.5359 -1.5
      vertex 0 -14.9 -7.5
      vertex 10.5359 -10.5359 -7.5
    endloop
  endfacet
  facet normal 0.92388 -0.382683 0
    outer loop
      vertex 10.5359 -10.5359 -1.5
      vertex 14.9 0 -7.5
      vertex 14.9 0 -1.5
    endloop
  endfacet
  facet normal 0.92388 -0.382683 0
    outer loop
      vertex 14.9 0 -7.5
      vertex 10.5359 -10.5359 -1.5
      vertex 10.5359 -10.5359 -7.5
    endloop
  endfacet
  facet normal 0.92388 0.382683 0
    outer loop
      vertex 14.9 0 -1.5
      vertex 10.5359 10.5359 -7.5
      vertex 10.5359 10.5359 -1.5
    endloop
  endfacet
  facet normal 0.92388 0.382683 0
    outer loop
      vertex 10.5359 10.5359 -7.5
      vertex 14.9 0 -1.5
      vertex 14.9 0 -7.5
    endloop
  endfacet
  facet normal -0.92388 -0.382683 0
    outer loop
      vertex -10.5359 -10.5359 -7.5
      vertex -14.9 0 -1.5
      vertex -14.9 0 -7.5
    endloop
  endfacet
  facet normal -0.92388 -0.382683 0
    outer loop
      vertex -14.9 0 -1.5
      vertex -10.5359 -10.5359 -7.5
      vertex -10.5359 -10.5359 -1.5
    endloop
  endfacet
  facet normal -0.92388 0.382683 0
    outer loop
      vertex -14.9 0 -7.5
      vertex -10.5359 10.5359 -1.5
      vertex -10.5359 10.5359 -7.5
    endloop
  endfacet
  facet normal -0.92388 0.382683 0
    outer loop
      vertex -10.5359 10.5359 -1.5
      vertex -14.9 0 -7.5
      vertex -14.9 0 -1.5
    endloop
  endfacet
  facet normal 0 0 -1
    outer loop
      vertex 10.5359 -10.5359 -7.5
      vertex 11.9 0 -7.5
      vertex 14.9 0 -7.5
    endloop
  endfacet
  facet normal 0 0 -1
    outer loop
      vertex 10.5359 -10.5359 -7.5
      vertex 8.41457 -8.41457 -7.5
      vertex 11.9 0 -7.5
    endloop
  endfacet
  facet normal 0 0 -1
    outer loop
      vertex 0 -14.9 -7.5
      vertex 8.41457 -8.41457 -7.5
      vertex 10.5359 -10.5359 -7.5
    endloop
  endfacet
  facet normal 0 0 -1
    outer loop
      vertex 0 -14.9 -7.5
      vertex 0 -11.9 -7.5
      vertex 8.41457 -8.41457 -7.5
    endloop
  endfacet
  facet normal 0 0 -1
    outer loop
      vertex 0 -14.9 -7.5
      vertex -8.41457 -8.41457 -7.5
      vertex 0 -11.9 -7.5
    endloop
  endfacet
  facet normal 0 0 -1
    outer loop
      vertex -10.5359 -10.5359 -7.5
      vertex -8.41457 -8.41457 -7.5
      vertex 0 -14.9 -7.5
    endloop
  endfacet
  facet normal 0 0 -1
    outer loop
      vertex -10.5359 -10.5359 -7.5
      vertex -11.9 0 -7.5
      vertex -8.41457 -8.41457 -7.5
    endloop
  endfacet
  facet normal -0 -0 -1
    outer loop
      vertex -11.9 0 -7.5
      vertex -10.5359 -10.5359 -7.5
      vertex -14.9 0 -7.5
    endloop
  endfacet
  facet normal 0 0 -1
    outer loop
      vertex 11.9 0 -7.5
      vertex 10.5359 10.5359 -7.5
      vertex 14.9 0 -7.5
    endloop
  endfacet
  facet normal 0 0 -1
    outer loop
      vertex 8.41457 8.41457 -7.5
      vertex 10.5359 10.5359 -7.5
      vertex 11.9 0 -7.5
    endloop
  endfacet
  facet normal 0 0 -1
    outer loop
      vertex 0 11.9 -7.5
      vertex 10.5359 10.5359 -7.5
      vertex 8.41457 8.41457 -7.5
    endloop
  endfacet
  facet normal 0 0 -1
    outer loop
      vertex 0 11.9 -7.5
      vertex 0 14.9 -7.5
      vertex 10.5359 10.5359 -7.5
    endloop
  endfacet
  facet normal 0 0 -1
    outer loop
      vertex -8.41457 8.41457 -7.5
      vertex 0 14.9 -7.5
      vertex 0 11.9 -7.5
    endloop
  endfacet
  facet normal 0 0 -1
    outer loop
      vertex -8.41457 8.41457 -7.5
      vertex -10.5359 10.5359 -7.5
      vertex 0 14.9 -7.5
    endloop
  endfacet
  facet normal 0 0 -1
    outer loop
      vertex -11.9 0 -7.5
      vertex -10.5359 10.5359 -7.5
      vertex -8.41457 8.41457 -7.5
    endloop
  endfacet
  facet normal 0 0 -1
    outer loop
      vertex -10.5359 10.5359 -7.5
      vertex -11.9 0 -7.5
      vertex -14.9 0 -7.5
    endloop
  endfacet
  facet normal 0.382683 0.92388 -0
    outer loop
      vertex 10.5359 10.5359 -7.5
      vertex 0 14.9 -1.5
      vertex 10.5359 10.5359 -1.5
    endloop
  endfacet
  facet normal 0.382683 0.92388 0
    outer loop
      vertex 0 14.9 -1.5
      vertex 10.5359 10.5359 -7.5
      vertex 0 14.9 -7.5
    endloop
  endfacet
  facet normal -0.382683 -0.92388 0
    outer loop
      vertex -10.5359 -10.5359 -7.5
      vertex 0 -14.9 -1.5
      vertex -10.5359 -10.5359 -1.5
    endloop
  endfacet
  facet normal -0.382683 -0.92388 -0
    outer loop
      vertex 0 -14.9 -1.5
      vertex -10.5359 -10.5359 -7.5
      vertex 0 -14.9 -7.5
    endloop
  endfacet
  facet normal -0.382683 0.92388 0
    outer loop
      vertex 0 14.9 -7.5
      vertex -10.5359 10.5359 -1.5
      vertex 0 14.9 -1.5
    endloop
  endfacet
  facet normal -0.382683 0.92388 0
    outer loop
      vertex -10.5359 10.5359 -1.5
      vertex 0 14.9 -7.5
      vertex -10.5359 10.5359 -7.5
    endloop
  endfacet
  facet normal -0.382684 -0.92388 0
    outer loop
      vertex 0 11.9 -7.5
      vertex 8.41457 8.41457 -1.5
      vertex 0 11.9 -1.5
    endloop
  endfacet
  facet normal -0.382684 -0.92388 -0
    outer loop
      vertex 8.41457 8.41457 -1.5
      vertex 0 11.9 -7.5
      vertex 8.41457 8.41457 -7.5
    endloop
  endfacet
  facet normal -0.92388 -0.382684 0
    outer loop
      vertex 11.9 0 -7.5
      vertex 8.41457 8.41457 -1.5
      vertex 8.41457 8.41457 -7.5
    endloop
  endfacet
  facet normal -0.92388 -0.382684 0
    outer loop
      vertex 8.41457 8.41457 -1.5
      vertex 11.9 0 -7.5
      vertex 11.9 0 -1.5
    endloop
  endfacet
  facet normal 0.382684 0.92388 -0
    outer loop
      vertex 0 -11.9 -7.5
      vertex -8.41457 -8.41457 -1.5
      vertex 0 -11.9 -1.5
    endloop
  endfacet
  facet normal 0.382684 0.92388 0
    outer loop
      vertex -8.41457 -8.41457 -1.5
      vertex 0 -11.9 -7.5
      vertex -8.41457 -8.41457 -7.5
    endloop
  endfacet
  facet normal 0.92388 -0.382684 0
    outer loop
      vertex -11.9 0 -1.5
      vertex -8.41457 8.41457 -7.5
      vertex -8.41457 8.41457 -1.5
    endloop
  endfacet
  facet normal 0.92388 -0.382684 0
    outer loop
      vertex -8.41457 8.41457 -7.5
      vertex -11.9 0 -1.5
      vertex -11.9 0 -7.5
    endloop
  endfacet
  facet normal -0.382684 0.92388 0
    outer loop
      vertex 8.41457 -8.41457 -7.5
      vertex 0 -11.9 -1.5
      vertex 8.41457 -8.41457 -1.5
    endloop
  endfacet
  facet normal -0.382684 0.92388 0
    outer loop
      vertex 0 -11.9 -1.5
      vertex 8.41457 -8.41457 -7.5
      vertex 0 -11.9 -7.5
    endloop
  endfacet
  facet normal 0.92388 0.382684 0
    outer loop
      vertex -8.41457 -8.41457 -1.5
      vertex -11.9 0 -7.5
      vertex -11.9 0 -1.5
    endloop
  endfacet
  facet normal 0.92388 0.382684 0
    outer loop
      vertex -11.9 0 -7.5
      vertex -8.41457 -8.41457 -1.5
      vertex -8.41457 -8.41457 -7.5
    endloop
  endfacet
  facet normal 0.382684 -0.92388 0
    outer loop
      vertex -8.41457 8.41457 -7.5
      vertex 0 11.9 -1.5
      vertex -8.41457 8.41457 -1.5
    endloop
  endfacet
  facet normal 0.382684 -0.92388 0
    outer loop
      vertex 0 11.9 -1.5
      vertex -8.41457 8.41457 -7.5
      vertex 0 11.9 -7.5
    endloop
  endfacet
  facet normal -0.92388 0.382684 0
    outer loop
      vertex 8.41457 -8.41457 -7.5
      vertex 11.9 0 -1.5
      vertex 11.9 0 -7.5
    endloop
  endfacet
  facet normal -0.92388 0.382684 0
    outer loop
      vertex 11.9 0 -1.5
      vertex 8.41457 -8.41457 -7.5
      vertex 8.41457 -8.41457 -1.5
    endloop
  endfacet
endsolid OpenSCAD_Model
