G04 #@! TF.GenerationSoftware,KiCad,Pcbnew,(5.0.0)*
G04 #@! TF.CreationDate,2018-11-17T14:21:24+01:00*
G04 #@! TF.ProjectId,photoDiode_MDversion,70686F746F44696F64655F4D44766572,rev?*
G04 #@! TF.SameCoordinates,Original*
G04 #@! TF.FileFunction,Copper,L3,Inr,Signal*
G04 #@! TF.FilePolarity,Positive*
%FSLAX46Y46*%
G04 Gerber Fmt 4.6, Leading zero omitted, Abs format (unit mm)*
G04 Created by KiCad (PCBNEW (5.0.0)) date 11/17/18 14:21:24*
%MOMM*%
%LPD*%
G01*
G04 APERTURE LIST*
G04 #@! TA.AperFunction,ViaPad*
%ADD10O,1.600000X1.200000*%
G04 #@! TD*
G04 #@! TA.AperFunction,ViaPad*
%ADD11O,1.200000X1.200000*%
G04 #@! TD*
G04 #@! TA.AperFunction,ViaPad*
%ADD12C,0.800000*%
G04 #@! TD*
G04 #@! TA.AperFunction,Conductor*
%ADD13C,0.250000*%
G04 #@! TD*
G04 #@! TA.AperFunction,Conductor*
%ADD14C,0.254000*%
G04 #@! TD*
G04 APERTURE END LIST*
D10*
G04 #@! TO.N,Net-(C2-Pad2)*
G04 #@! TO.C,D1*
X147460000Y-95000000D03*
D11*
G04 #@! TO.N,GND*
X152540000Y-95000000D03*
G04 #@! TD*
D12*
G04 #@! TO.N,+5V*
X161375000Y-94925000D03*
X156650000Y-98150000D03*
G04 #@! TO.N,GND*
X138600000Y-89525000D03*
X138500000Y-97225000D03*
X145825000Y-105475000D03*
X153100000Y-105425000D03*
X159225000Y-100375000D03*
X160700000Y-89700000D03*
X158800000Y-89225000D03*
X155275000Y-84900000D03*
X145100000Y-84975000D03*
X153425000Y-82750000D03*
X142450000Y-97525000D03*
X143575000Y-99875000D03*
X146175000Y-101200000D03*
X150750000Y-101400000D03*
X161625000Y-100000000D03*
X159150000Y-97500000D03*
X138525000Y-93150000D03*
X138525000Y-100325000D03*
X145525000Y-82700000D03*
X156050000Y-105625000D03*
X159450000Y-102550000D03*
X137725000Y-95150000D03*
X143600000Y-105300000D03*
X150400000Y-95650000D03*
X149075000Y-93775000D03*
X153525000Y-93625000D03*
G04 #@! TO.N,Net-(C2-Pad1)*
X146625000Y-90525000D03*
X147875000Y-92350000D03*
G04 #@! TO.N,Net-(C4-Pad1)*
X142225000Y-88625000D03*
X153025000Y-88625000D03*
G04 #@! TD*
D13*
G04 #@! TO.N,Net-(C2-Pad1)*
X147024999Y-90924999D02*
X147024999Y-91499999D01*
X146625000Y-90525000D02*
X147024999Y-90924999D01*
X147024999Y-91499999D02*
X147875000Y-92350000D01*
G04 #@! TO.N,Net-(C4-Pad1)*
X142225000Y-88625000D02*
X153025000Y-88625000D01*
G04 #@! TD*
D14*
G04 #@! TO.N,GND*
G36*
X149017201Y-82529138D02*
X148529138Y-83017201D01*
X148265000Y-83654887D01*
X148265000Y-84345113D01*
X148529138Y-84982799D01*
X149017201Y-85470862D01*
X149654887Y-85735000D01*
X150345113Y-85735000D01*
X150982799Y-85470862D01*
X151470862Y-84982799D01*
X151735000Y-84345113D01*
X151735000Y-83654887D01*
X151470862Y-83017201D01*
X150982799Y-82529138D01*
X150523154Y-82338747D01*
X155244464Y-82338747D01*
X162661254Y-89755538D01*
X162661253Y-100244463D01*
X155244464Y-107661253D01*
X150523154Y-107661253D01*
X150982799Y-107470862D01*
X151470862Y-106982799D01*
X151735000Y-106345113D01*
X151735000Y-105654887D01*
X151470862Y-105017201D01*
X150982799Y-104529138D01*
X150345113Y-104265000D01*
X149654887Y-104265000D01*
X149017201Y-104529138D01*
X148529138Y-105017201D01*
X148265000Y-105654887D01*
X148265000Y-106345113D01*
X148529138Y-106982799D01*
X149017201Y-107470862D01*
X149476846Y-107661253D01*
X144755537Y-107661253D01*
X137338747Y-100244464D01*
X137338747Y-97944126D01*
X155615000Y-97944126D01*
X155615000Y-98355874D01*
X155772569Y-98736280D01*
X156063720Y-99027431D01*
X156444126Y-99185000D01*
X156855874Y-99185000D01*
X157236280Y-99027431D01*
X157527431Y-98736280D01*
X157685000Y-98355874D01*
X157685000Y-97944126D01*
X157527431Y-97563720D01*
X157236280Y-97272569D01*
X156855874Y-97115000D01*
X156444126Y-97115000D01*
X156063720Y-97272569D01*
X155772569Y-97563720D01*
X155615000Y-97944126D01*
X137338747Y-97944126D01*
X137338747Y-95000000D01*
X146000805Y-95000000D01*
X146096656Y-95481873D01*
X146369615Y-95890385D01*
X146778127Y-96163344D01*
X147138364Y-96235000D01*
X147781636Y-96235000D01*
X148141873Y-96163344D01*
X148550385Y-95890385D01*
X148823344Y-95481873D01*
X148856018Y-95317609D01*
X151346538Y-95317609D01*
X151471503Y-95619327D01*
X151789844Y-95981080D01*
X152222389Y-96193472D01*
X152413000Y-96069714D01*
X152413000Y-95127000D01*
X152667000Y-95127000D01*
X152667000Y-96069714D01*
X152857611Y-96193472D01*
X153290156Y-95981080D01*
X153608497Y-95619327D01*
X153733462Y-95317609D01*
X153608731Y-95127000D01*
X152667000Y-95127000D01*
X152413000Y-95127000D01*
X151471269Y-95127000D01*
X151346538Y-95317609D01*
X148856018Y-95317609D01*
X148919195Y-95000000D01*
X148856019Y-94682391D01*
X151346538Y-94682391D01*
X151471269Y-94873000D01*
X152413000Y-94873000D01*
X152413000Y-93930286D01*
X152667000Y-93930286D01*
X152667000Y-94873000D01*
X153608731Y-94873000D01*
X153709423Y-94719126D01*
X160340000Y-94719126D01*
X160340000Y-95130874D01*
X160497569Y-95511280D01*
X160788720Y-95802431D01*
X161169126Y-95960000D01*
X161580874Y-95960000D01*
X161961280Y-95802431D01*
X162252431Y-95511280D01*
X162410000Y-95130874D01*
X162410000Y-94719126D01*
X162252431Y-94338720D01*
X161961280Y-94047569D01*
X161580874Y-93890000D01*
X161169126Y-93890000D01*
X160788720Y-94047569D01*
X160497569Y-94338720D01*
X160340000Y-94719126D01*
X153709423Y-94719126D01*
X153733462Y-94682391D01*
X153608497Y-94380673D01*
X153290156Y-94018920D01*
X152857611Y-93806528D01*
X152667000Y-93930286D01*
X152413000Y-93930286D01*
X152222389Y-93806528D01*
X151789844Y-94018920D01*
X151471503Y-94380673D01*
X151346538Y-94682391D01*
X148856019Y-94682391D01*
X148823344Y-94518127D01*
X148550385Y-94109615D01*
X148141873Y-93836656D01*
X147781636Y-93765000D01*
X147138364Y-93765000D01*
X146778127Y-93836656D01*
X146369615Y-94109615D01*
X146096656Y-94518127D01*
X146000805Y-95000000D01*
X137338747Y-95000000D01*
X137338747Y-90319126D01*
X145590000Y-90319126D01*
X145590000Y-90730874D01*
X145747569Y-91111280D01*
X146038720Y-91402431D01*
X146251950Y-91490754D01*
X146250111Y-91499999D01*
X146264999Y-91574846D01*
X146264999Y-91574851D01*
X146309095Y-91796536D01*
X146477071Y-92047928D01*
X146540527Y-92090328D01*
X146840000Y-92389801D01*
X146840000Y-92555874D01*
X146997569Y-92936280D01*
X147288720Y-93227431D01*
X147669126Y-93385000D01*
X148080874Y-93385000D01*
X148461280Y-93227431D01*
X148752431Y-92936280D01*
X148910000Y-92555874D01*
X148910000Y-92144126D01*
X148752431Y-91763720D01*
X148461280Y-91472569D01*
X148080874Y-91315000D01*
X147914801Y-91315000D01*
X147784999Y-91185198D01*
X147784999Y-90999845D01*
X147799887Y-90924998D01*
X147784999Y-90850151D01*
X147784999Y-90850147D01*
X147740903Y-90628462D01*
X147660000Y-90507382D01*
X147660000Y-90319126D01*
X147502431Y-89938720D01*
X147211280Y-89647569D01*
X146830874Y-89490000D01*
X146419126Y-89490000D01*
X146038720Y-89647569D01*
X145747569Y-89938720D01*
X145590000Y-90319126D01*
X137338747Y-90319126D01*
X137338747Y-89755536D01*
X138675157Y-88419126D01*
X141190000Y-88419126D01*
X141190000Y-88830874D01*
X141347569Y-89211280D01*
X141638720Y-89502431D01*
X142019126Y-89660000D01*
X142430874Y-89660000D01*
X142811280Y-89502431D01*
X142928711Y-89385000D01*
X152321289Y-89385000D01*
X152438720Y-89502431D01*
X152819126Y-89660000D01*
X153230874Y-89660000D01*
X153611280Y-89502431D01*
X153902431Y-89211280D01*
X154060000Y-88830874D01*
X154060000Y-88419126D01*
X153902431Y-88038720D01*
X153611280Y-87747569D01*
X153230874Y-87590000D01*
X152819126Y-87590000D01*
X152438720Y-87747569D01*
X152321289Y-87865000D01*
X142928711Y-87865000D01*
X142811280Y-87747569D01*
X142430874Y-87590000D01*
X142019126Y-87590000D01*
X141638720Y-87747569D01*
X141347569Y-88038720D01*
X141190000Y-88419126D01*
X138675157Y-88419126D01*
X144755537Y-82338747D01*
X149476846Y-82338747D01*
X149017201Y-82529138D01*
X149017201Y-82529138D01*
G37*
X149017201Y-82529138D02*
X148529138Y-83017201D01*
X148265000Y-83654887D01*
X148265000Y-84345113D01*
X148529138Y-84982799D01*
X149017201Y-85470862D01*
X149654887Y-85735000D01*
X150345113Y-85735000D01*
X150982799Y-85470862D01*
X151470862Y-84982799D01*
X151735000Y-84345113D01*
X151735000Y-83654887D01*
X151470862Y-83017201D01*
X150982799Y-82529138D01*
X150523154Y-82338747D01*
X155244464Y-82338747D01*
X162661254Y-89755538D01*
X162661253Y-100244463D01*
X155244464Y-107661253D01*
X150523154Y-107661253D01*
X150982799Y-107470862D01*
X151470862Y-106982799D01*
X151735000Y-106345113D01*
X151735000Y-105654887D01*
X151470862Y-105017201D01*
X150982799Y-104529138D01*
X150345113Y-104265000D01*
X149654887Y-104265000D01*
X149017201Y-104529138D01*
X148529138Y-105017201D01*
X148265000Y-105654887D01*
X148265000Y-106345113D01*
X148529138Y-106982799D01*
X149017201Y-107470862D01*
X149476846Y-107661253D01*
X144755537Y-107661253D01*
X137338747Y-100244464D01*
X137338747Y-97944126D01*
X155615000Y-97944126D01*
X155615000Y-98355874D01*
X155772569Y-98736280D01*
X156063720Y-99027431D01*
X156444126Y-99185000D01*
X156855874Y-99185000D01*
X157236280Y-99027431D01*
X157527431Y-98736280D01*
X157685000Y-98355874D01*
X157685000Y-97944126D01*
X157527431Y-97563720D01*
X157236280Y-97272569D01*
X156855874Y-97115000D01*
X156444126Y-97115000D01*
X156063720Y-97272569D01*
X155772569Y-97563720D01*
X155615000Y-97944126D01*
X137338747Y-97944126D01*
X137338747Y-95000000D01*
X146000805Y-95000000D01*
X146096656Y-95481873D01*
X146369615Y-95890385D01*
X146778127Y-96163344D01*
X147138364Y-96235000D01*
X147781636Y-96235000D01*
X148141873Y-96163344D01*
X148550385Y-95890385D01*
X148823344Y-95481873D01*
X148856018Y-95317609D01*
X151346538Y-95317609D01*
X151471503Y-95619327D01*
X151789844Y-95981080D01*
X152222389Y-96193472D01*
X152413000Y-96069714D01*
X152413000Y-95127000D01*
X152667000Y-95127000D01*
X152667000Y-96069714D01*
X152857611Y-96193472D01*
X153290156Y-95981080D01*
X153608497Y-95619327D01*
X153733462Y-95317609D01*
X153608731Y-95127000D01*
X152667000Y-95127000D01*
X152413000Y-95127000D01*
X151471269Y-95127000D01*
X151346538Y-95317609D01*
X148856018Y-95317609D01*
X148919195Y-95000000D01*
X148856019Y-94682391D01*
X151346538Y-94682391D01*
X151471269Y-94873000D01*
X152413000Y-94873000D01*
X152413000Y-93930286D01*
X152667000Y-93930286D01*
X152667000Y-94873000D01*
X153608731Y-94873000D01*
X153709423Y-94719126D01*
X160340000Y-94719126D01*
X160340000Y-95130874D01*
X160497569Y-95511280D01*
X160788720Y-95802431D01*
X161169126Y-95960000D01*
X161580874Y-95960000D01*
X161961280Y-95802431D01*
X162252431Y-95511280D01*
X162410000Y-95130874D01*
X162410000Y-94719126D01*
X162252431Y-94338720D01*
X161961280Y-94047569D01*
X161580874Y-93890000D01*
X161169126Y-93890000D01*
X160788720Y-94047569D01*
X160497569Y-94338720D01*
X160340000Y-94719126D01*
X153709423Y-94719126D01*
X153733462Y-94682391D01*
X153608497Y-94380673D01*
X153290156Y-94018920D01*
X152857611Y-93806528D01*
X152667000Y-93930286D01*
X152413000Y-93930286D01*
X152222389Y-93806528D01*
X151789844Y-94018920D01*
X151471503Y-94380673D01*
X151346538Y-94682391D01*
X148856019Y-94682391D01*
X148823344Y-94518127D01*
X148550385Y-94109615D01*
X148141873Y-93836656D01*
X147781636Y-93765000D01*
X147138364Y-93765000D01*
X146778127Y-93836656D01*
X146369615Y-94109615D01*
X146096656Y-94518127D01*
X146000805Y-95000000D01*
X137338747Y-95000000D01*
X137338747Y-90319126D01*
X145590000Y-90319126D01*
X145590000Y-90730874D01*
X145747569Y-91111280D01*
X146038720Y-91402431D01*
X146251950Y-91490754D01*
X146250111Y-91499999D01*
X146264999Y-91574846D01*
X146264999Y-91574851D01*
X146309095Y-91796536D01*
X146477071Y-92047928D01*
X146540527Y-92090328D01*
X146840000Y-92389801D01*
X146840000Y-92555874D01*
X146997569Y-92936280D01*
X147288720Y-93227431D01*
X147669126Y-93385000D01*
X148080874Y-93385000D01*
X148461280Y-93227431D01*
X148752431Y-92936280D01*
X148910000Y-92555874D01*
X148910000Y-92144126D01*
X148752431Y-91763720D01*
X148461280Y-91472569D01*
X148080874Y-91315000D01*
X147914801Y-91315000D01*
X147784999Y-91185198D01*
X147784999Y-90999845D01*
X147799887Y-90924998D01*
X147784999Y-90850151D01*
X147784999Y-90850147D01*
X147740903Y-90628462D01*
X147660000Y-90507382D01*
X147660000Y-90319126D01*
X147502431Y-89938720D01*
X147211280Y-89647569D01*
X146830874Y-89490000D01*
X146419126Y-89490000D01*
X146038720Y-89647569D01*
X145747569Y-89938720D01*
X145590000Y-90319126D01*
X137338747Y-90319126D01*
X137338747Y-89755536D01*
X138675157Y-88419126D01*
X141190000Y-88419126D01*
X141190000Y-88830874D01*
X141347569Y-89211280D01*
X141638720Y-89502431D01*
X142019126Y-89660000D01*
X142430874Y-89660000D01*
X142811280Y-89502431D01*
X142928711Y-89385000D01*
X152321289Y-89385000D01*
X152438720Y-89502431D01*
X152819126Y-89660000D01*
X153230874Y-89660000D01*
X153611280Y-89502431D01*
X153902431Y-89211280D01*
X154060000Y-88830874D01*
X154060000Y-88419126D01*
X153902431Y-88038720D01*
X153611280Y-87747569D01*
X153230874Y-87590000D01*
X152819126Y-87590000D01*
X152438720Y-87747569D01*
X152321289Y-87865000D01*
X142928711Y-87865000D01*
X142811280Y-87747569D01*
X142430874Y-87590000D01*
X142019126Y-87590000D01*
X141638720Y-87747569D01*
X141347569Y-88038720D01*
X141190000Y-88419126D01*
X138675157Y-88419126D01*
X144755537Y-82338747D01*
X149476846Y-82338747D01*
X149017201Y-82529138D01*
G04 #@! TD*
M02*
