<?xml version="1.0" encoding="UTF-8" standalone="no"?>
<svg
   xmlns:dc="http://purl.org/dc/elements/1.1/"
   xmlns:cc="http://creativecommons.org/ns#"
   xmlns:rdf="http://www.w3.org/1999/02/22-rdf-syntax-ns#"
   xmlns:svg="http://www.w3.org/2000/svg"
   xmlns="http://www.w3.org/2000/svg"
   xmlns:sodipodi="http://sodipodi.sourceforge.net/DTD/sodipodi-0.dtd"
   xmlns:inkscape="http://www.inkscape.org/namespaces/inkscape"
   width="106mm"
   height="88.7148mm"
   viewBox="-6 -74 106 88.7148"
   version="1.1"
   style="stroke-linecap:round;stroke-linejoin:round;fill:none"
   id="svg4790"
   sodipodi:docname="zijkant_s (2x).svg"
   inkscape:version="1.0.1 (c497b03c, 2020-09-10)">
  <metadata
     id="metadata4796">
    <rdf:RDF>
      <cc:Work
         rdf:about="">
        <dc:format>image/svg+xml</dc:format>
        <dc:type
           rdf:resource="http://purl.org/dc/dcmitype/StillImage" />
      </cc:Work>
    </rdf:RDF>
  </metadata>
  <defs
     id="defs4794" />
  <sodipodi:namedview
     pagecolor="#ffffff"
     bordercolor="#666666"
     borderopacity="1"
     objecttolerance="10"
     gridtolerance="10"
     guidetolerance="10"
     inkscape:pageopacity="0"
     inkscape:pageshadow="2"
     inkscape:window-width="1398"
     inkscape:window-height="798"
     id="namedview4792"
     showgrid="false"
     inkscape:zoom="1.9892632"
     inkscape:cx="180.70971"
     inkscape:cy="128.94221"
     inkscape:window-x="0"
     inkscape:window-y="25"
     inkscape:window-maximized="0"
     inkscape:current-layer="svg4790" />
  <path
     d="M 0,-18 V 0"
     style="stroke:#000000;stroke-width:0.25"
     id="path4640" />
  <path
     d="M -3,-18 H 0"
     style="stroke:#000000;stroke-width:0.25"
     id="path4642" />
  <path
     d="m -3,-13 v -5"
     style="stroke:#000000;stroke-width:0.25"
     id="path4644" />
  <path
     d="m -5,-12 h 1"
     style="stroke:#000000;stroke-width:0.25"
     id="path4646" />
  <path
     d="m -6,-20 v 7"
     style="stroke:#000000;stroke-width:0.25"
     id="path4648" />
  <path
     d="M 0,-22 H -4"
     style="stroke:#000000;stroke-width:0.25"
     id="path4650" />
  <path
     d="m 0,-48 v 26"
     style="stroke:#000000;stroke-width:0.25"
     id="path4652" />
  <path
     d="M -3,-48 H 0"
     style="stroke:#000000;stroke-width:0.25"
     id="path4654" />
  <path
     d="m -3,-43 v -5"
     style="stroke:#000000;stroke-width:0.25"
     id="path4656" />
  <path
     d="m -5,-42 h 1"
     style="stroke:#000000;stroke-width:0.25"
     id="path4658" />
  <path
     d="m -6,-50 v 7"
     style="stroke:#000000;stroke-width:0.25"
     id="path4660" />
  <path
     d="M 0,-52 H -4"
     style="stroke:#000000;stroke-width:0.25"
     id="path4662" />
  <path
     d="m 0,-68 v 16"
     style="stroke:#000000;stroke-width:0.25"
     id="path4664" />
  <path
     d="M 18,-68 H 0"
     style="stroke:#000000;stroke-width:0.25"
     id="path4666" />
  <path
     d="m 18,-72 v 4"
     style="stroke:#000000;stroke-width:0.25"
     id="path4668" />
  <path
     d="M 26,-74 H 20"
     style="stroke:#000000;stroke-width:0.25"
     id="path4670" />
  <path
     d="m 22,-71 h 5"
     style="stroke:#000000;stroke-width:0.25"
     id="path4672" />
  <path
     d="m 22,-68 v -3"
     style="stroke:#000000;stroke-width:0.25"
     id="path4674" />
  <path
     d="M 78,-68 H 22"
     style="stroke:#000000;stroke-width:0.25"
     id="path4676" />
  <path
     d="m 78,-72 v 4"
     style="stroke:#000000;stroke-width:0.25"
     id="path4678" />
  <path
     d="M 86,-74 H 80"
     style="stroke:#000000;stroke-width:0.25"
     id="path4680" />
  <path
     d="m 82,-71 h 5"
     style="stroke:#000000;stroke-width:0.25"
     id="path4682" />
  <path
     d="m 82,-68 v -3"
     style="stroke:#000000;stroke-width:0.25"
     id="path4684" />
  <path
     d="M 94,-68 H 82"
     style="stroke:#000000;stroke-width:0.25"
     id="path4686" />
  <path
     d="M 94,-52 V -68"
     style="stroke:#000000;stroke-width:0.25"
     id="path4688" />
  <path
     d="M 98,-52 H 94"
     style="stroke:#000000;stroke-width:0.25"
     id="path4690" />
  <path
     d="m 100,-43 v -7"
     style="stroke:#000000;stroke-width:0.25"
     id="path4692" />
  <path
     d="m 98,-42 h 1"
     style="stroke:#000000;stroke-width:0.25"
     id="path4694" />
  <path
     d="m 97,-48 v 5"
     style="stroke:#000000;stroke-width:0.25"
     id="path4696" />
  <path
     d="m 94,-48 h 3"
     style="stroke:#000000;stroke-width:0.25"
     id="path4698" />
  <path
     d="M 94,-22 V -48"
     style="stroke:#000000;stroke-width:0.25"
     id="path4700" />
  <path
     d="M 98,-22 H 94"
     style="stroke:#000000;stroke-width:0.25"
     id="path4702" />
  <path
     d="m 100,-13 v -7"
     style="stroke:#000000;stroke-width:0.25"
     id="path4704" />
  <path
     d="m 98,-12 h 1"
     style="stroke:#000000;stroke-width:0.25"
     id="path4706" />
  <path
     d="m 97,-18 v 5"
     style="stroke:#000000;stroke-width:0.25"
     id="path4708" />
  <path
     d="m 94,-18 h 3"
     style="stroke:#000000;stroke-width:0.25"
     id="path4710" />
  <path
     d="M 94,0 V -18"
     style="stroke:#000000;stroke-width:0.25"
     id="path4712" />
  <path
     d="M 0,0 H 94"
     style="stroke:#000000;stroke-width:0.25"
     id="path4714" />
  <path
     d="m -4,-12 a 1,-1 0 0 0 1,-1"
     style="stroke:#000000;stroke-width:0.25"
     id="path4716" />
  <path
     d="m -6,-13 a 1,-1 0 0 0 1,1"
     style="stroke:#000000;stroke-width:0.25"
     id="path4718" />
  <path
     d="m -4,-22 a 2,-2 0 0 0 -2,2"
     style="stroke:#000000;stroke-width:0.25"
     id="path4720" />
  <path
     d="m -4,-42 a 1,-1 0 0 0 1,-1"
     style="stroke:#000000;stroke-width:0.25"
     id="path4722" />
  <path
     d="m -6,-43 a 1,-1 0 0 0 1,1"
     style="stroke:#000000;stroke-width:0.25"
     id="path4724" />
  <path
     d="m -4,-52 a 2,-2 0 0 0 -2,2"
     style="stroke:#000000;stroke-width:0.25"
     id="path4726" />
  <path
     d="m 20,-74 a 2,-2 0 0 0 -2,2"
     style="stroke:#000000;stroke-width:0.25"
     id="path4728" />
  <path
     d="m 28,-72 a 2,-2 0 0 0 -2,-2"
     style="stroke:#000000;stroke-width:0.25"
     id="path4730" />
  <path
     d="m 27,-71 a 1,-1 0 0 0 1,-1"
     style="stroke:#000000;stroke-width:0.25"
     id="path4732" />
  <path
     d="m 80,-74 a 2,-2 0 0 0 -2,2"
     style="stroke:#000000;stroke-width:0.25"
     id="path4734" />
  <path
     d="m 88,-72 a 2,-2 0 0 0 -2,-2"
     style="stroke:#000000;stroke-width:0.25"
     id="path4736" />
  <path
     d="m 87,-71 a 1,-1 0 0 0 1,-1"
     style="stroke:#000000;stroke-width:0.25"
     id="path4738" />
  <path
     d="m 100,-50 a 2,-2 0 0 0 -2,-2"
     style="stroke:#000000;stroke-width:0.25"
     id="path4740" />
  <path
     d="m 99,-42 a 1,-1 0 0 0 1,-1"
     style="stroke:#000000;stroke-width:0.25"
     id="path4742" />
  <path
     d="m 97,-43 a 1,-1 0 0 0 1,1"
     style="stroke:#000000;stroke-width:0.25"
     id="path4744" />
  <path
     d="m 100,-20 a 2,-2 0 0 0 -2,-2"
     style="stroke:#000000;stroke-width:0.25"
     id="path4746" />
  <path
     d="m 99,-12 a 1,-1 0 0 0 1,-1"
     style="stroke:#000000;stroke-width:0.25"
     id="path4748" />
  <path
     d="m 97,-13 a 1,-1 0 0 0 1,1"
     style="stroke:#000000;stroke-width:0.25"
     id="path4750" />
</svg>
