G04 #@! TF.GenerationSoftware,KiCad,Pcbnew,(5.0.0)*
G04 #@! TF.CreationDate,2019-03-24T09:47:22+01:00*
G04 #@! TF.ProjectId,photoDiode_MDversion1.2,70686F746F44696F64655F4D44766572,rev?*
G04 #@! TF.SameCoordinates,Original*
G04 #@! TF.FileFunction,Paste,Bot*
G04 #@! TF.FilePolarity,Positive*
%FSLAX46Y46*%
G04 Gerber Fmt 4.6, Leading zero omitted, Abs format (unit mm)*
G04 Created by KiCad (PCBNEW (5.0.0)) date 03/24/19 09:47:22*
%MOMM*%
%LPD*%
G01*
G04 APERTURE LIST*
%ADD10R,1.200000X0.900000*%
%ADD11R,1.000000X1.250000*%
%ADD12C,0.100000*%
%ADD13C,0.975000*%
%ADD14R,1.250000X1.000000*%
%ADD15R,1.550000X0.600000*%
%ADD16R,1.800000X1.200000*%
%ADD17R,1.000000X3.800000*%
%ADD18R,3.800000X1.000000*%
%ADD19C,1.000000*%
G04 APERTURE END LIST*
D10*
G04 #@! TO.C,D2*
X149500000Y-98660000D03*
X149500000Y-95360000D03*
G04 #@! TD*
D11*
G04 #@! TO.C,C5*
X149270000Y-93770000D03*
X151270000Y-93770000D03*
G04 #@! TD*
D12*
G04 #@! TO.C,R6*
G36*
X156460142Y-91306174D02*
X156483803Y-91309684D01*
X156507007Y-91315496D01*
X156529529Y-91323554D01*
X156551153Y-91333782D01*
X156571670Y-91346079D01*
X156590883Y-91360329D01*
X156608607Y-91376393D01*
X156624671Y-91394117D01*
X156638921Y-91413330D01*
X156651218Y-91433847D01*
X156661446Y-91455471D01*
X156669504Y-91477993D01*
X156675316Y-91501197D01*
X156678826Y-91524858D01*
X156680000Y-91548750D01*
X156680000Y-92036250D01*
X156678826Y-92060142D01*
X156675316Y-92083803D01*
X156669504Y-92107007D01*
X156661446Y-92129529D01*
X156651218Y-92151153D01*
X156638921Y-92171670D01*
X156624671Y-92190883D01*
X156608607Y-92208607D01*
X156590883Y-92224671D01*
X156571670Y-92238921D01*
X156551153Y-92251218D01*
X156529529Y-92261446D01*
X156507007Y-92269504D01*
X156483803Y-92275316D01*
X156460142Y-92278826D01*
X156436250Y-92280000D01*
X155523750Y-92280000D01*
X155499858Y-92278826D01*
X155476197Y-92275316D01*
X155452993Y-92269504D01*
X155430471Y-92261446D01*
X155408847Y-92251218D01*
X155388330Y-92238921D01*
X155369117Y-92224671D01*
X155351393Y-92208607D01*
X155335329Y-92190883D01*
X155321079Y-92171670D01*
X155308782Y-92151153D01*
X155298554Y-92129529D01*
X155290496Y-92107007D01*
X155284684Y-92083803D01*
X155281174Y-92060142D01*
X155280000Y-92036250D01*
X155280000Y-91548750D01*
X155281174Y-91524858D01*
X155284684Y-91501197D01*
X155290496Y-91477993D01*
X155298554Y-91455471D01*
X155308782Y-91433847D01*
X155321079Y-91413330D01*
X155335329Y-91394117D01*
X155351393Y-91376393D01*
X155369117Y-91360329D01*
X155388330Y-91346079D01*
X155408847Y-91333782D01*
X155430471Y-91323554D01*
X155452993Y-91315496D01*
X155476197Y-91309684D01*
X155499858Y-91306174D01*
X155523750Y-91305000D01*
X156436250Y-91305000D01*
X156460142Y-91306174D01*
X156460142Y-91306174D01*
G37*
D13*
X155980000Y-91792500D03*
D12*
G36*
X156460142Y-93181174D02*
X156483803Y-93184684D01*
X156507007Y-93190496D01*
X156529529Y-93198554D01*
X156551153Y-93208782D01*
X156571670Y-93221079D01*
X156590883Y-93235329D01*
X156608607Y-93251393D01*
X156624671Y-93269117D01*
X156638921Y-93288330D01*
X156651218Y-93308847D01*
X156661446Y-93330471D01*
X156669504Y-93352993D01*
X156675316Y-93376197D01*
X156678826Y-93399858D01*
X156680000Y-93423750D01*
X156680000Y-93911250D01*
X156678826Y-93935142D01*
X156675316Y-93958803D01*
X156669504Y-93982007D01*
X156661446Y-94004529D01*
X156651218Y-94026153D01*
X156638921Y-94046670D01*
X156624671Y-94065883D01*
X156608607Y-94083607D01*
X156590883Y-94099671D01*
X156571670Y-94113921D01*
X156551153Y-94126218D01*
X156529529Y-94136446D01*
X156507007Y-94144504D01*
X156483803Y-94150316D01*
X156460142Y-94153826D01*
X156436250Y-94155000D01*
X155523750Y-94155000D01*
X155499858Y-94153826D01*
X155476197Y-94150316D01*
X155452993Y-94144504D01*
X155430471Y-94136446D01*
X155408847Y-94126218D01*
X155388330Y-94113921D01*
X155369117Y-94099671D01*
X155351393Y-94083607D01*
X155335329Y-94065883D01*
X155321079Y-94046670D01*
X155308782Y-94026153D01*
X155298554Y-94004529D01*
X155290496Y-93982007D01*
X155284684Y-93958803D01*
X155281174Y-93935142D01*
X155280000Y-93911250D01*
X155280000Y-93423750D01*
X155281174Y-93399858D01*
X155284684Y-93376197D01*
X155290496Y-93352993D01*
X155298554Y-93330471D01*
X155308782Y-93308847D01*
X155321079Y-93288330D01*
X155335329Y-93269117D01*
X155351393Y-93251393D01*
X155369117Y-93235329D01*
X155388330Y-93221079D01*
X155408847Y-93208782D01*
X155430471Y-93198554D01*
X155452993Y-93190496D01*
X155476197Y-93184684D01*
X155499858Y-93181174D01*
X155523750Y-93180000D01*
X156436250Y-93180000D01*
X156460142Y-93181174D01*
X156460142Y-93181174D01*
G37*
D13*
X155980000Y-93667500D03*
G04 #@! TD*
D12*
G04 #@! TO.C,R3*
G36*
X145920142Y-96461174D02*
X145943803Y-96464684D01*
X145967007Y-96470496D01*
X145989529Y-96478554D01*
X146011153Y-96488782D01*
X146031670Y-96501079D01*
X146050883Y-96515329D01*
X146068607Y-96531393D01*
X146084671Y-96549117D01*
X146098921Y-96568330D01*
X146111218Y-96588847D01*
X146121446Y-96610471D01*
X146129504Y-96632993D01*
X146135316Y-96656197D01*
X146138826Y-96679858D01*
X146140000Y-96703750D01*
X146140000Y-97616250D01*
X146138826Y-97640142D01*
X146135316Y-97663803D01*
X146129504Y-97687007D01*
X146121446Y-97709529D01*
X146111218Y-97731153D01*
X146098921Y-97751670D01*
X146084671Y-97770883D01*
X146068607Y-97788607D01*
X146050883Y-97804671D01*
X146031670Y-97818921D01*
X146011153Y-97831218D01*
X145989529Y-97841446D01*
X145967007Y-97849504D01*
X145943803Y-97855316D01*
X145920142Y-97858826D01*
X145896250Y-97860000D01*
X145408750Y-97860000D01*
X145384858Y-97858826D01*
X145361197Y-97855316D01*
X145337993Y-97849504D01*
X145315471Y-97841446D01*
X145293847Y-97831218D01*
X145273330Y-97818921D01*
X145254117Y-97804671D01*
X145236393Y-97788607D01*
X145220329Y-97770883D01*
X145206079Y-97751670D01*
X145193782Y-97731153D01*
X145183554Y-97709529D01*
X145175496Y-97687007D01*
X145169684Y-97663803D01*
X145166174Y-97640142D01*
X145165000Y-97616250D01*
X145165000Y-96703750D01*
X145166174Y-96679858D01*
X145169684Y-96656197D01*
X145175496Y-96632993D01*
X145183554Y-96610471D01*
X145193782Y-96588847D01*
X145206079Y-96568330D01*
X145220329Y-96549117D01*
X145236393Y-96531393D01*
X145254117Y-96515329D01*
X145273330Y-96501079D01*
X145293847Y-96488782D01*
X145315471Y-96478554D01*
X145337993Y-96470496D01*
X145361197Y-96464684D01*
X145384858Y-96461174D01*
X145408750Y-96460000D01*
X145896250Y-96460000D01*
X145920142Y-96461174D01*
X145920142Y-96461174D01*
G37*
D13*
X145652500Y-97160000D03*
D12*
G36*
X147795142Y-96461174D02*
X147818803Y-96464684D01*
X147842007Y-96470496D01*
X147864529Y-96478554D01*
X147886153Y-96488782D01*
X147906670Y-96501079D01*
X147925883Y-96515329D01*
X147943607Y-96531393D01*
X147959671Y-96549117D01*
X147973921Y-96568330D01*
X147986218Y-96588847D01*
X147996446Y-96610471D01*
X148004504Y-96632993D01*
X148010316Y-96656197D01*
X148013826Y-96679858D01*
X148015000Y-96703750D01*
X148015000Y-97616250D01*
X148013826Y-97640142D01*
X148010316Y-97663803D01*
X148004504Y-97687007D01*
X147996446Y-97709529D01*
X147986218Y-97731153D01*
X147973921Y-97751670D01*
X147959671Y-97770883D01*
X147943607Y-97788607D01*
X147925883Y-97804671D01*
X147906670Y-97818921D01*
X147886153Y-97831218D01*
X147864529Y-97841446D01*
X147842007Y-97849504D01*
X147818803Y-97855316D01*
X147795142Y-97858826D01*
X147771250Y-97860000D01*
X147283750Y-97860000D01*
X147259858Y-97858826D01*
X147236197Y-97855316D01*
X147212993Y-97849504D01*
X147190471Y-97841446D01*
X147168847Y-97831218D01*
X147148330Y-97818921D01*
X147129117Y-97804671D01*
X147111393Y-97788607D01*
X147095329Y-97770883D01*
X147081079Y-97751670D01*
X147068782Y-97731153D01*
X147058554Y-97709529D01*
X147050496Y-97687007D01*
X147044684Y-97663803D01*
X147041174Y-97640142D01*
X147040000Y-97616250D01*
X147040000Y-96703750D01*
X147041174Y-96679858D01*
X147044684Y-96656197D01*
X147050496Y-96632993D01*
X147058554Y-96610471D01*
X147068782Y-96588847D01*
X147081079Y-96568330D01*
X147095329Y-96549117D01*
X147111393Y-96531393D01*
X147129117Y-96515329D01*
X147148330Y-96501079D01*
X147168847Y-96488782D01*
X147190471Y-96478554D01*
X147212993Y-96470496D01*
X147236197Y-96464684D01*
X147259858Y-96461174D01*
X147283750Y-96460000D01*
X147771250Y-96460000D01*
X147795142Y-96461174D01*
X147795142Y-96461174D01*
G37*
D13*
X147527500Y-97160000D03*
G04 #@! TD*
D12*
G04 #@! TO.C,R4*
G36*
X156450142Y-89811174D02*
X156473803Y-89814684D01*
X156497007Y-89820496D01*
X156519529Y-89828554D01*
X156541153Y-89838782D01*
X156561670Y-89851079D01*
X156580883Y-89865329D01*
X156598607Y-89881393D01*
X156614671Y-89899117D01*
X156628921Y-89918330D01*
X156641218Y-89938847D01*
X156651446Y-89960471D01*
X156659504Y-89982993D01*
X156665316Y-90006197D01*
X156668826Y-90029858D01*
X156670000Y-90053750D01*
X156670000Y-90541250D01*
X156668826Y-90565142D01*
X156665316Y-90588803D01*
X156659504Y-90612007D01*
X156651446Y-90634529D01*
X156641218Y-90656153D01*
X156628921Y-90676670D01*
X156614671Y-90695883D01*
X156598607Y-90713607D01*
X156580883Y-90729671D01*
X156561670Y-90743921D01*
X156541153Y-90756218D01*
X156519529Y-90766446D01*
X156497007Y-90774504D01*
X156473803Y-90780316D01*
X156450142Y-90783826D01*
X156426250Y-90785000D01*
X155513750Y-90785000D01*
X155489858Y-90783826D01*
X155466197Y-90780316D01*
X155442993Y-90774504D01*
X155420471Y-90766446D01*
X155398847Y-90756218D01*
X155378330Y-90743921D01*
X155359117Y-90729671D01*
X155341393Y-90713607D01*
X155325329Y-90695883D01*
X155311079Y-90676670D01*
X155298782Y-90656153D01*
X155288554Y-90634529D01*
X155280496Y-90612007D01*
X155274684Y-90588803D01*
X155271174Y-90565142D01*
X155270000Y-90541250D01*
X155270000Y-90053750D01*
X155271174Y-90029858D01*
X155274684Y-90006197D01*
X155280496Y-89982993D01*
X155288554Y-89960471D01*
X155298782Y-89938847D01*
X155311079Y-89918330D01*
X155325329Y-89899117D01*
X155341393Y-89881393D01*
X155359117Y-89865329D01*
X155378330Y-89851079D01*
X155398847Y-89838782D01*
X155420471Y-89828554D01*
X155442993Y-89820496D01*
X155466197Y-89814684D01*
X155489858Y-89811174D01*
X155513750Y-89810000D01*
X156426250Y-89810000D01*
X156450142Y-89811174D01*
X156450142Y-89811174D01*
G37*
D13*
X155970000Y-90297500D03*
D12*
G36*
X156450142Y-87936174D02*
X156473803Y-87939684D01*
X156497007Y-87945496D01*
X156519529Y-87953554D01*
X156541153Y-87963782D01*
X156561670Y-87976079D01*
X156580883Y-87990329D01*
X156598607Y-88006393D01*
X156614671Y-88024117D01*
X156628921Y-88043330D01*
X156641218Y-88063847D01*
X156651446Y-88085471D01*
X156659504Y-88107993D01*
X156665316Y-88131197D01*
X156668826Y-88154858D01*
X156670000Y-88178750D01*
X156670000Y-88666250D01*
X156668826Y-88690142D01*
X156665316Y-88713803D01*
X156659504Y-88737007D01*
X156651446Y-88759529D01*
X156641218Y-88781153D01*
X156628921Y-88801670D01*
X156614671Y-88820883D01*
X156598607Y-88838607D01*
X156580883Y-88854671D01*
X156561670Y-88868921D01*
X156541153Y-88881218D01*
X156519529Y-88891446D01*
X156497007Y-88899504D01*
X156473803Y-88905316D01*
X156450142Y-88908826D01*
X156426250Y-88910000D01*
X155513750Y-88910000D01*
X155489858Y-88908826D01*
X155466197Y-88905316D01*
X155442993Y-88899504D01*
X155420471Y-88891446D01*
X155398847Y-88881218D01*
X155378330Y-88868921D01*
X155359117Y-88854671D01*
X155341393Y-88838607D01*
X155325329Y-88820883D01*
X155311079Y-88801670D01*
X155298782Y-88781153D01*
X155288554Y-88759529D01*
X155280496Y-88737007D01*
X155274684Y-88713803D01*
X155271174Y-88690142D01*
X155270000Y-88666250D01*
X155270000Y-88178750D01*
X155271174Y-88154858D01*
X155274684Y-88131197D01*
X155280496Y-88107993D01*
X155288554Y-88085471D01*
X155298782Y-88063847D01*
X155311079Y-88043330D01*
X155325329Y-88024117D01*
X155341393Y-88006393D01*
X155359117Y-87990329D01*
X155378330Y-87976079D01*
X155398847Y-87963782D01*
X155420471Y-87953554D01*
X155442993Y-87945496D01*
X155466197Y-87939684D01*
X155489858Y-87936174D01*
X155513750Y-87935000D01*
X156426250Y-87935000D01*
X156450142Y-87936174D01*
X156450142Y-87936174D01*
G37*
D13*
X155970000Y-88422500D03*
G04 #@! TD*
D11*
G04 #@! TO.C,C2*
X143630000Y-95000000D03*
X145630000Y-95000000D03*
G04 #@! TD*
D12*
G04 #@! TO.C,R1*
G36*
X145990142Y-89766174D02*
X146013803Y-89769684D01*
X146037007Y-89775496D01*
X146059529Y-89783554D01*
X146081153Y-89793782D01*
X146101670Y-89806079D01*
X146120883Y-89820329D01*
X146138607Y-89836393D01*
X146154671Y-89854117D01*
X146168921Y-89873330D01*
X146181218Y-89893847D01*
X146191446Y-89915471D01*
X146199504Y-89937993D01*
X146205316Y-89961197D01*
X146208826Y-89984858D01*
X146210000Y-90008750D01*
X146210000Y-90496250D01*
X146208826Y-90520142D01*
X146205316Y-90543803D01*
X146199504Y-90567007D01*
X146191446Y-90589529D01*
X146181218Y-90611153D01*
X146168921Y-90631670D01*
X146154671Y-90650883D01*
X146138607Y-90668607D01*
X146120883Y-90684671D01*
X146101670Y-90698921D01*
X146081153Y-90711218D01*
X146059529Y-90721446D01*
X146037007Y-90729504D01*
X146013803Y-90735316D01*
X145990142Y-90738826D01*
X145966250Y-90740000D01*
X145053750Y-90740000D01*
X145029858Y-90738826D01*
X145006197Y-90735316D01*
X144982993Y-90729504D01*
X144960471Y-90721446D01*
X144938847Y-90711218D01*
X144918330Y-90698921D01*
X144899117Y-90684671D01*
X144881393Y-90668607D01*
X144865329Y-90650883D01*
X144851079Y-90631670D01*
X144838782Y-90611153D01*
X144828554Y-90589529D01*
X144820496Y-90567007D01*
X144814684Y-90543803D01*
X144811174Y-90520142D01*
X144810000Y-90496250D01*
X144810000Y-90008750D01*
X144811174Y-89984858D01*
X144814684Y-89961197D01*
X144820496Y-89937993D01*
X144828554Y-89915471D01*
X144838782Y-89893847D01*
X144851079Y-89873330D01*
X144865329Y-89854117D01*
X144881393Y-89836393D01*
X144899117Y-89820329D01*
X144918330Y-89806079D01*
X144938847Y-89793782D01*
X144960471Y-89783554D01*
X144982993Y-89775496D01*
X145006197Y-89769684D01*
X145029858Y-89766174D01*
X145053750Y-89765000D01*
X145966250Y-89765000D01*
X145990142Y-89766174D01*
X145990142Y-89766174D01*
G37*
D13*
X145510000Y-90252500D03*
D12*
G36*
X145990142Y-91641174D02*
X146013803Y-91644684D01*
X146037007Y-91650496D01*
X146059529Y-91658554D01*
X146081153Y-91668782D01*
X146101670Y-91681079D01*
X146120883Y-91695329D01*
X146138607Y-91711393D01*
X146154671Y-91729117D01*
X146168921Y-91748330D01*
X146181218Y-91768847D01*
X146191446Y-91790471D01*
X146199504Y-91812993D01*
X146205316Y-91836197D01*
X146208826Y-91859858D01*
X146210000Y-91883750D01*
X146210000Y-92371250D01*
X146208826Y-92395142D01*
X146205316Y-92418803D01*
X146199504Y-92442007D01*
X146191446Y-92464529D01*
X146181218Y-92486153D01*
X146168921Y-92506670D01*
X146154671Y-92525883D01*
X146138607Y-92543607D01*
X146120883Y-92559671D01*
X146101670Y-92573921D01*
X146081153Y-92586218D01*
X146059529Y-92596446D01*
X146037007Y-92604504D01*
X146013803Y-92610316D01*
X145990142Y-92613826D01*
X145966250Y-92615000D01*
X145053750Y-92615000D01*
X145029858Y-92613826D01*
X145006197Y-92610316D01*
X144982993Y-92604504D01*
X144960471Y-92596446D01*
X144938847Y-92586218D01*
X144918330Y-92573921D01*
X144899117Y-92559671D01*
X144881393Y-92543607D01*
X144865329Y-92525883D01*
X144851079Y-92506670D01*
X144838782Y-92486153D01*
X144828554Y-92464529D01*
X144820496Y-92442007D01*
X144814684Y-92418803D01*
X144811174Y-92395142D01*
X144810000Y-92371250D01*
X144810000Y-91883750D01*
X144811174Y-91859858D01*
X144814684Y-91836197D01*
X144820496Y-91812993D01*
X144828554Y-91790471D01*
X144838782Y-91768847D01*
X144851079Y-91748330D01*
X144865329Y-91729117D01*
X144881393Y-91711393D01*
X144899117Y-91695329D01*
X144918330Y-91681079D01*
X144938847Y-91668782D01*
X144960471Y-91658554D01*
X144982993Y-91650496D01*
X145006197Y-91644684D01*
X145029858Y-91641174D01*
X145053750Y-91640000D01*
X145966250Y-91640000D01*
X145990142Y-91641174D01*
X145990142Y-91641174D01*
G37*
D13*
X145510000Y-92127500D03*
G04 #@! TD*
D12*
G04 #@! TO.C,R2*
G36*
X144100142Y-89766174D02*
X144123803Y-89769684D01*
X144147007Y-89775496D01*
X144169529Y-89783554D01*
X144191153Y-89793782D01*
X144211670Y-89806079D01*
X144230883Y-89820329D01*
X144248607Y-89836393D01*
X144264671Y-89854117D01*
X144278921Y-89873330D01*
X144291218Y-89893847D01*
X144301446Y-89915471D01*
X144309504Y-89937993D01*
X144315316Y-89961197D01*
X144318826Y-89984858D01*
X144320000Y-90008750D01*
X144320000Y-90496250D01*
X144318826Y-90520142D01*
X144315316Y-90543803D01*
X144309504Y-90567007D01*
X144301446Y-90589529D01*
X144291218Y-90611153D01*
X144278921Y-90631670D01*
X144264671Y-90650883D01*
X144248607Y-90668607D01*
X144230883Y-90684671D01*
X144211670Y-90698921D01*
X144191153Y-90711218D01*
X144169529Y-90721446D01*
X144147007Y-90729504D01*
X144123803Y-90735316D01*
X144100142Y-90738826D01*
X144076250Y-90740000D01*
X143163750Y-90740000D01*
X143139858Y-90738826D01*
X143116197Y-90735316D01*
X143092993Y-90729504D01*
X143070471Y-90721446D01*
X143048847Y-90711218D01*
X143028330Y-90698921D01*
X143009117Y-90684671D01*
X142991393Y-90668607D01*
X142975329Y-90650883D01*
X142961079Y-90631670D01*
X142948782Y-90611153D01*
X142938554Y-90589529D01*
X142930496Y-90567007D01*
X142924684Y-90543803D01*
X142921174Y-90520142D01*
X142920000Y-90496250D01*
X142920000Y-90008750D01*
X142921174Y-89984858D01*
X142924684Y-89961197D01*
X142930496Y-89937993D01*
X142938554Y-89915471D01*
X142948782Y-89893847D01*
X142961079Y-89873330D01*
X142975329Y-89854117D01*
X142991393Y-89836393D01*
X143009117Y-89820329D01*
X143028330Y-89806079D01*
X143048847Y-89793782D01*
X143070471Y-89783554D01*
X143092993Y-89775496D01*
X143116197Y-89769684D01*
X143139858Y-89766174D01*
X143163750Y-89765000D01*
X144076250Y-89765000D01*
X144100142Y-89766174D01*
X144100142Y-89766174D01*
G37*
D13*
X143620000Y-90252500D03*
D12*
G36*
X144100142Y-91641174D02*
X144123803Y-91644684D01*
X144147007Y-91650496D01*
X144169529Y-91658554D01*
X144191153Y-91668782D01*
X144211670Y-91681079D01*
X144230883Y-91695329D01*
X144248607Y-91711393D01*
X144264671Y-91729117D01*
X144278921Y-91748330D01*
X144291218Y-91768847D01*
X144301446Y-91790471D01*
X144309504Y-91812993D01*
X144315316Y-91836197D01*
X144318826Y-91859858D01*
X144320000Y-91883750D01*
X144320000Y-92371250D01*
X144318826Y-92395142D01*
X144315316Y-92418803D01*
X144309504Y-92442007D01*
X144301446Y-92464529D01*
X144291218Y-92486153D01*
X144278921Y-92506670D01*
X144264671Y-92525883D01*
X144248607Y-92543607D01*
X144230883Y-92559671D01*
X144211670Y-92573921D01*
X144191153Y-92586218D01*
X144169529Y-92596446D01*
X144147007Y-92604504D01*
X144123803Y-92610316D01*
X144100142Y-92613826D01*
X144076250Y-92615000D01*
X143163750Y-92615000D01*
X143139858Y-92613826D01*
X143116197Y-92610316D01*
X143092993Y-92604504D01*
X143070471Y-92596446D01*
X143048847Y-92586218D01*
X143028330Y-92573921D01*
X143009117Y-92559671D01*
X142991393Y-92543607D01*
X142975329Y-92525883D01*
X142961079Y-92506670D01*
X142948782Y-92486153D01*
X142938554Y-92464529D01*
X142930496Y-92442007D01*
X142924684Y-92418803D01*
X142921174Y-92395142D01*
X142920000Y-92371250D01*
X142920000Y-91883750D01*
X142921174Y-91859858D01*
X142924684Y-91836197D01*
X142930496Y-91812993D01*
X142938554Y-91790471D01*
X142948782Y-91768847D01*
X142961079Y-91748330D01*
X142975329Y-91729117D01*
X142991393Y-91711393D01*
X143009117Y-91695329D01*
X143028330Y-91681079D01*
X143048847Y-91668782D01*
X143070471Y-91658554D01*
X143092993Y-91650496D01*
X143116197Y-91644684D01*
X143139858Y-91641174D01*
X143163750Y-91640000D01*
X144076250Y-91640000D01*
X144100142Y-91641174D01*
X144100142Y-91641174D01*
G37*
D13*
X143620000Y-92127500D03*
G04 #@! TD*
D14*
G04 #@! TO.C,C1*
X154160000Y-95900000D03*
X154160000Y-93900000D03*
G04 #@! TD*
D15*
G04 #@! TO.C,J1*
X159800000Y-96000000D03*
X159800000Y-95000000D03*
X159800000Y-94000000D03*
D16*
X162325000Y-97300000D03*
X162325000Y-92700000D03*
G04 #@! TD*
D14*
G04 #@! TO.C,C3*
X155980000Y-98530000D03*
X155980000Y-100530000D03*
G04 #@! TD*
D11*
G04 #@! TO.C,C4*
X143425000Y-88625000D03*
X145425000Y-88625000D03*
G04 #@! TD*
D12*
G04 #@! TO.C,L1*
G36*
X156460142Y-96541174D02*
X156483803Y-96544684D01*
X156507007Y-96550496D01*
X156529529Y-96558554D01*
X156551153Y-96568782D01*
X156571670Y-96581079D01*
X156590883Y-96595329D01*
X156608607Y-96611393D01*
X156624671Y-96629117D01*
X156638921Y-96648330D01*
X156651218Y-96668847D01*
X156661446Y-96690471D01*
X156669504Y-96712993D01*
X156675316Y-96736197D01*
X156678826Y-96759858D01*
X156680000Y-96783750D01*
X156680000Y-97271250D01*
X156678826Y-97295142D01*
X156675316Y-97318803D01*
X156669504Y-97342007D01*
X156661446Y-97364529D01*
X156651218Y-97386153D01*
X156638921Y-97406670D01*
X156624671Y-97425883D01*
X156608607Y-97443607D01*
X156590883Y-97459671D01*
X156571670Y-97473921D01*
X156551153Y-97486218D01*
X156529529Y-97496446D01*
X156507007Y-97504504D01*
X156483803Y-97510316D01*
X156460142Y-97513826D01*
X156436250Y-97515000D01*
X155523750Y-97515000D01*
X155499858Y-97513826D01*
X155476197Y-97510316D01*
X155452993Y-97504504D01*
X155430471Y-97496446D01*
X155408847Y-97486218D01*
X155388330Y-97473921D01*
X155369117Y-97459671D01*
X155351393Y-97443607D01*
X155335329Y-97425883D01*
X155321079Y-97406670D01*
X155308782Y-97386153D01*
X155298554Y-97364529D01*
X155290496Y-97342007D01*
X155284684Y-97318803D01*
X155281174Y-97295142D01*
X155280000Y-97271250D01*
X155280000Y-96783750D01*
X155281174Y-96759858D01*
X155284684Y-96736197D01*
X155290496Y-96712993D01*
X155298554Y-96690471D01*
X155308782Y-96668847D01*
X155321079Y-96648330D01*
X155335329Y-96629117D01*
X155351393Y-96611393D01*
X155369117Y-96595329D01*
X155388330Y-96581079D01*
X155408847Y-96568782D01*
X155430471Y-96558554D01*
X155452993Y-96550496D01*
X155476197Y-96544684D01*
X155499858Y-96541174D01*
X155523750Y-96540000D01*
X156436250Y-96540000D01*
X156460142Y-96541174D01*
X156460142Y-96541174D01*
G37*
D13*
X155980000Y-97027500D03*
D12*
G36*
X156460142Y-94666174D02*
X156483803Y-94669684D01*
X156507007Y-94675496D01*
X156529529Y-94683554D01*
X156551153Y-94693782D01*
X156571670Y-94706079D01*
X156590883Y-94720329D01*
X156608607Y-94736393D01*
X156624671Y-94754117D01*
X156638921Y-94773330D01*
X156651218Y-94793847D01*
X156661446Y-94815471D01*
X156669504Y-94837993D01*
X156675316Y-94861197D01*
X156678826Y-94884858D01*
X156680000Y-94908750D01*
X156680000Y-95396250D01*
X156678826Y-95420142D01*
X156675316Y-95443803D01*
X156669504Y-95467007D01*
X156661446Y-95489529D01*
X156651218Y-95511153D01*
X156638921Y-95531670D01*
X156624671Y-95550883D01*
X156608607Y-95568607D01*
X156590883Y-95584671D01*
X156571670Y-95598921D01*
X156551153Y-95611218D01*
X156529529Y-95621446D01*
X156507007Y-95629504D01*
X156483803Y-95635316D01*
X156460142Y-95638826D01*
X156436250Y-95640000D01*
X155523750Y-95640000D01*
X155499858Y-95638826D01*
X155476197Y-95635316D01*
X155452993Y-95629504D01*
X155430471Y-95621446D01*
X155408847Y-95611218D01*
X155388330Y-95598921D01*
X155369117Y-95584671D01*
X155351393Y-95568607D01*
X155335329Y-95550883D01*
X155321079Y-95531670D01*
X155308782Y-95511153D01*
X155298554Y-95489529D01*
X155290496Y-95467007D01*
X155284684Y-95443803D01*
X155281174Y-95420142D01*
X155280000Y-95396250D01*
X155280000Y-94908750D01*
X155281174Y-94884858D01*
X155284684Y-94861197D01*
X155290496Y-94837993D01*
X155298554Y-94815471D01*
X155308782Y-94793847D01*
X155321079Y-94773330D01*
X155335329Y-94754117D01*
X155351393Y-94736393D01*
X155369117Y-94720329D01*
X155388330Y-94706079D01*
X155408847Y-94693782D01*
X155430471Y-94683554D01*
X155452993Y-94675496D01*
X155476197Y-94669684D01*
X155499858Y-94666174D01*
X155523750Y-94665000D01*
X156436250Y-94665000D01*
X156460142Y-94666174D01*
X156460142Y-94666174D01*
G37*
D13*
X155980000Y-95152500D03*
G04 #@! TD*
D15*
G04 #@! TO.C,U1*
X147750000Y-92105000D03*
X147750000Y-90835000D03*
X147750000Y-89565000D03*
X147750000Y-88295000D03*
X153150000Y-88295000D03*
X153150000Y-89565000D03*
X153150000Y-90835000D03*
X153150000Y-92105000D03*
G04 #@! TD*
D17*
G04 #@! TO.C,U2*
X157650000Y-95000000D03*
X141350000Y-95000000D03*
D18*
X149500000Y-103150000D03*
X149500000Y-86850000D03*
D19*
X155875000Y-103150000D03*
D12*
G36*
X158150000Y-103650000D02*
X153600000Y-103650000D01*
X153600000Y-102650000D01*
X158150000Y-102650000D01*
X158150000Y-103650000D01*
X158150000Y-103650000D01*
G37*
D19*
X157650000Y-101375000D03*
D12*
G36*
X157150000Y-103650000D02*
X157150000Y-99100000D01*
X158150000Y-99100000D01*
X158150000Y-103650000D01*
X157150000Y-103650000D01*
X157150000Y-103650000D01*
G37*
D19*
X143125000Y-103150000D03*
D12*
G36*
X145400000Y-103650000D02*
X140850000Y-103650000D01*
X140850000Y-102650000D01*
X145400000Y-102650000D01*
X145400000Y-103650000D01*
X145400000Y-103650000D01*
G37*
D19*
X141350000Y-101375000D03*
D12*
G36*
X140850000Y-103650000D02*
X140850000Y-99100000D01*
X141850000Y-99100000D01*
X141850000Y-103650000D01*
X140850000Y-103650000D01*
X140850000Y-103650000D01*
G37*
D19*
X141350000Y-88625000D03*
D12*
G36*
X140850000Y-90900000D02*
X140850000Y-86350000D01*
X141850000Y-86350000D01*
X141850000Y-90900000D01*
X140850000Y-90900000D01*
X140850000Y-90900000D01*
G37*
D19*
X143125000Y-86850000D03*
D12*
G36*
X145400000Y-87350000D02*
X140850000Y-87350000D01*
X140850000Y-86350000D01*
X145400000Y-86350000D01*
X145400000Y-87350000D01*
X145400000Y-87350000D01*
G37*
D19*
X155875000Y-86850000D03*
D12*
G36*
X158150000Y-87350000D02*
X153600000Y-87350000D01*
X153600000Y-86350000D01*
X158150000Y-86350000D01*
X158150000Y-87350000D01*
X158150000Y-87350000D01*
G37*
D19*
X157650000Y-88625000D03*
D12*
G36*
X157150000Y-90900000D02*
X157150000Y-86350000D01*
X158150000Y-86350000D01*
X158150000Y-90900000D01*
X157150000Y-90900000D01*
X157150000Y-90900000D01*
G37*
G04 #@! TD*
M02*
