G04 #@! TF.GenerationSoftware,KiCad,Pcbnew,(5.0.0)*
G04 #@! TF.CreationDate,2019-03-24T09:47:22+01:00*
G04 #@! TF.ProjectId,photoDiode_MDversion1.2,70686F746F44696F64655F4D44766572,rev?*
G04 #@! TF.SameCoordinates,Original*
G04 #@! TF.FileFunction,Copper,L1,Top,Signal*
G04 #@! TF.FilePolarity,Positive*
%FSLAX46Y46*%
G04 Gerber Fmt 4.6, Leading zero omitted, Abs format (unit mm)*
G04 Created by KiCad (PCBNEW (5.0.0)) date 03/24/19 09:47:22*
%MOMM*%
%LPD*%
G01*
G04 APERTURE LIST*
G04 #@! TA.AperFunction,ComponentPad*
%ADD10O,1.600000X1.200000*%
G04 #@! TD*
G04 #@! TA.AperFunction,ComponentPad*
%ADD11O,1.200000X1.200000*%
G04 #@! TD*
G04 #@! TA.AperFunction,ViaPad*
%ADD12C,0.450000*%
G04 #@! TD*
G04 #@! TA.AperFunction,Conductor*
%ADD13C,0.088900*%
G04 #@! TD*
G04 APERTURE END LIST*
D10*
G04 #@! TO.P,D1,1*
G04 #@! TO.N,Net-(C2-Pad2)*
X147460000Y-95000000D03*
D11*
G04 #@! TO.P,D1,2*
G04 #@! TO.N,GND*
X152540000Y-95000000D03*
G04 #@! TD*
D12*
G04 #@! TO.N,+5V*
X161170000Y-95000000D03*
X157430000Y-97955000D03*
G04 #@! TO.N,GND*
X154660000Y-84510000D03*
X159900000Y-100400000D03*
X155060000Y-105280000D03*
X145720000Y-85010000D03*
X144000000Y-84220000D03*
X137540000Y-91160000D03*
X138350000Y-94650000D03*
X137700000Y-97900000D03*
X143330000Y-105020000D03*
X146170000Y-104540000D03*
X145150000Y-106970000D03*
X147130000Y-107480000D03*
X153350000Y-107360000D03*
X156580000Y-105380000D03*
X159600000Y-102210000D03*
X161910000Y-99850000D03*
X158860000Y-98620000D03*
X162200000Y-89960000D03*
X159070000Y-90660000D03*
X160070000Y-88440000D03*
X157450000Y-85040000D03*
X154910000Y-82940000D03*
X152860000Y-85040000D03*
X147340000Y-82460000D03*
X142080000Y-85210000D03*
X139260000Y-88130000D03*
X138950000Y-101260000D03*
X159590000Y-92310000D03*
X143070000Y-100940000D03*
X145100000Y-99050000D03*
X146030000Y-101460000D03*
X146810000Y-99230000D03*
X152530000Y-101750000D03*
X153890000Y-99260000D03*
X150260000Y-100790000D03*
X150120000Y-97510000D03*
X148750000Y-96510000D03*
X148150000Y-93980000D03*
X146440000Y-93510000D03*
X143520000Y-93220000D03*
X141650000Y-91970000D03*
X144440000Y-88430000D03*
X143720000Y-91180000D03*
X149190000Y-90850000D03*
X149440000Y-88250000D03*
X151360000Y-88420000D03*
X154580000Y-90160000D03*
X157700000Y-91970000D03*
X143010000Y-97940000D03*
X153280000Y-97430000D03*
X143710000Y-99330000D03*
X139600000Y-91770000D03*
X139600000Y-97450000D03*
X146350000Y-91240000D03*
X151900000Y-98570000D03*
X152390000Y-99870000D03*
X147660000Y-100640000D03*
G04 #@! TO.N,/A*
X149210000Y-97160000D03*
X151690000Y-90830000D03*
X154550000Y-91210000D03*
X159410000Y-93060000D03*
G04 #@! TO.N,Net-(C4-Pad1)*
X142350000Y-89240000D03*
X151490000Y-89580000D03*
G04 #@! TO.N,/Ref2*
X152430000Y-93360000D03*
X154550000Y-92350000D03*
G04 #@! TO.N,/Ref1*
X154650000Y-88040000D03*
X150260000Y-91050000D03*
G04 #@! TD*
D13*
G04 #@! TO.N,GND*
G36*
X163346483Y-89471707D02*
X163346482Y-100528294D01*
X155528295Y-108346482D01*
X144471706Y-108346482D01*
X141879895Y-105754671D01*
X148766650Y-105754671D01*
X148766650Y-106245329D01*
X148954416Y-106698637D01*
X149301363Y-107045584D01*
X149754671Y-107233350D01*
X150245329Y-107233350D01*
X150698637Y-107045584D01*
X151045584Y-106698637D01*
X151233350Y-106245329D01*
X151233350Y-105754671D01*
X151045584Y-105301363D01*
X150698637Y-104954416D01*
X150245329Y-104766650D01*
X149754671Y-104766650D01*
X149301363Y-104954416D01*
X148954416Y-105301363D01*
X148766650Y-105754671D01*
X141879895Y-105754671D01*
X136653518Y-100528295D01*
X136653518Y-97883720D01*
X157071650Y-97883720D01*
X157071650Y-98026280D01*
X157126206Y-98157989D01*
X157227011Y-98258794D01*
X157358720Y-98313350D01*
X157501280Y-98313350D01*
X157632989Y-98258794D01*
X157733794Y-98157989D01*
X157788350Y-98026280D01*
X157788350Y-97883720D01*
X157733794Y-97752011D01*
X157632989Y-97651206D01*
X157501280Y-97596650D01*
X157358720Y-97596650D01*
X157227011Y-97651206D01*
X157126206Y-97752011D01*
X157071650Y-97883720D01*
X136653518Y-97883720D01*
X136653518Y-97088720D01*
X148851650Y-97088720D01*
X148851650Y-97231280D01*
X148906206Y-97362989D01*
X149007011Y-97463794D01*
X149138720Y-97518350D01*
X149281280Y-97518350D01*
X149412989Y-97463794D01*
X149513794Y-97362989D01*
X149568350Y-97231280D01*
X149568350Y-97088720D01*
X149513794Y-96957011D01*
X149412989Y-96856206D01*
X149281280Y-96801650D01*
X149138720Y-96801650D01*
X149007011Y-96856206D01*
X148906206Y-96957011D01*
X148851650Y-97088720D01*
X136653518Y-97088720D01*
X136653518Y-95000000D01*
X146512283Y-95000000D01*
X146569200Y-95286139D01*
X146731284Y-95528716D01*
X146973861Y-95690800D01*
X147187773Y-95733350D01*
X147732227Y-95733350D01*
X147946139Y-95690800D01*
X148188716Y-95528716D01*
X148350800Y-95286139D01*
X148366034Y-95209550D01*
X151863368Y-95209550D01*
X151867227Y-95318719D01*
X151988066Y-95499621D01*
X152221276Y-95672806D01*
X152330450Y-95678270D01*
X152330450Y-95209550D01*
X152749550Y-95209550D01*
X152749550Y-95678270D01*
X152858724Y-95672806D01*
X153091934Y-95499621D01*
X153212773Y-95318719D01*
X153216632Y-95209550D01*
X152749550Y-95209550D01*
X152330450Y-95209550D01*
X151863368Y-95209550D01*
X148366034Y-95209550D01*
X148407717Y-95000000D01*
X148393539Y-94928720D01*
X160811650Y-94928720D01*
X160811650Y-95071280D01*
X160866206Y-95202989D01*
X160967011Y-95303794D01*
X161098720Y-95358350D01*
X161241280Y-95358350D01*
X161372989Y-95303794D01*
X161473794Y-95202989D01*
X161528350Y-95071280D01*
X161528350Y-94928720D01*
X161473794Y-94797011D01*
X161372989Y-94696206D01*
X161241280Y-94641650D01*
X161098720Y-94641650D01*
X160967011Y-94696206D01*
X160866206Y-94797011D01*
X160811650Y-94928720D01*
X148393539Y-94928720D01*
X148366035Y-94790450D01*
X151863368Y-94790450D01*
X152330450Y-94790450D01*
X152749550Y-94790450D01*
X153216632Y-94790450D01*
X153212773Y-94681281D01*
X153091934Y-94500379D01*
X152858724Y-94327194D01*
X152749550Y-94321730D01*
X152749550Y-94790450D01*
X152330450Y-94790450D01*
X152330450Y-94321730D01*
X152221276Y-94327194D01*
X151988066Y-94500379D01*
X151867227Y-94681281D01*
X151863368Y-94790450D01*
X148366035Y-94790450D01*
X148350800Y-94713861D01*
X148188716Y-94471284D01*
X147946139Y-94309200D01*
X147732227Y-94266650D01*
X147187773Y-94266650D01*
X146973861Y-94309200D01*
X146731284Y-94471284D01*
X146569200Y-94713861D01*
X146512283Y-95000000D01*
X136653518Y-95000000D01*
X136653518Y-93288720D01*
X152071650Y-93288720D01*
X152071650Y-93431280D01*
X152126206Y-93562989D01*
X152227011Y-93663794D01*
X152358720Y-93718350D01*
X152501280Y-93718350D01*
X152632989Y-93663794D01*
X152733794Y-93562989D01*
X152788350Y-93431280D01*
X152788350Y-93288720D01*
X152733794Y-93157011D01*
X152632989Y-93056206D01*
X152501280Y-93001650D01*
X152358720Y-93001650D01*
X152227011Y-93056206D01*
X152126206Y-93157011D01*
X152071650Y-93288720D01*
X136653518Y-93288720D01*
X136653518Y-92988720D01*
X159051650Y-92988720D01*
X159051650Y-93131280D01*
X159106206Y-93262989D01*
X159207011Y-93363794D01*
X159338720Y-93418350D01*
X159481280Y-93418350D01*
X159612989Y-93363794D01*
X159713794Y-93262989D01*
X159768350Y-93131280D01*
X159768350Y-92988720D01*
X159713794Y-92857011D01*
X159612989Y-92756206D01*
X159481280Y-92701650D01*
X159338720Y-92701650D01*
X159207011Y-92756206D01*
X159106206Y-92857011D01*
X159051650Y-92988720D01*
X136653518Y-92988720D01*
X136653518Y-92278720D01*
X154191650Y-92278720D01*
X154191650Y-92421280D01*
X154246206Y-92552989D01*
X154347011Y-92653794D01*
X154478720Y-92708350D01*
X154621280Y-92708350D01*
X154752989Y-92653794D01*
X154853794Y-92552989D01*
X154908350Y-92421280D01*
X154908350Y-92278720D01*
X154853794Y-92147011D01*
X154752989Y-92046206D01*
X154621280Y-91991650D01*
X154478720Y-91991650D01*
X154347011Y-92046206D01*
X154246206Y-92147011D01*
X154191650Y-92278720D01*
X136653518Y-92278720D01*
X136653518Y-90978720D01*
X149901650Y-90978720D01*
X149901650Y-91121280D01*
X149956206Y-91252989D01*
X150057011Y-91353794D01*
X150188720Y-91408350D01*
X150331280Y-91408350D01*
X150462989Y-91353794D01*
X150563794Y-91252989D01*
X150618350Y-91121280D01*
X150618350Y-90978720D01*
X150563794Y-90847011D01*
X150475503Y-90758720D01*
X151331650Y-90758720D01*
X151331650Y-90901280D01*
X151386206Y-91032989D01*
X151487011Y-91133794D01*
X151618720Y-91188350D01*
X151761280Y-91188350D01*
X151881096Y-91138720D01*
X154191650Y-91138720D01*
X154191650Y-91281280D01*
X154246206Y-91412989D01*
X154347011Y-91513794D01*
X154478720Y-91568350D01*
X154621280Y-91568350D01*
X154752989Y-91513794D01*
X154853794Y-91412989D01*
X154908350Y-91281280D01*
X154908350Y-91138720D01*
X154853794Y-91007011D01*
X154752989Y-90906206D01*
X154621280Y-90851650D01*
X154478720Y-90851650D01*
X154347011Y-90906206D01*
X154246206Y-91007011D01*
X154191650Y-91138720D01*
X151881096Y-91138720D01*
X151892989Y-91133794D01*
X151993794Y-91032989D01*
X152048350Y-90901280D01*
X152048350Y-90758720D01*
X151993794Y-90627011D01*
X151892989Y-90526206D01*
X151761280Y-90471650D01*
X151618720Y-90471650D01*
X151487011Y-90526206D01*
X151386206Y-90627011D01*
X151331650Y-90758720D01*
X150475503Y-90758720D01*
X150462989Y-90746206D01*
X150331280Y-90691650D01*
X150188720Y-90691650D01*
X150057011Y-90746206D01*
X149956206Y-90847011D01*
X149901650Y-90978720D01*
X136653518Y-90978720D01*
X136653518Y-89471705D01*
X136956503Y-89168720D01*
X141991650Y-89168720D01*
X141991650Y-89311280D01*
X142046206Y-89442989D01*
X142147011Y-89543794D01*
X142278720Y-89598350D01*
X142421280Y-89598350D01*
X142552989Y-89543794D01*
X142588063Y-89508720D01*
X151131650Y-89508720D01*
X151131650Y-89651280D01*
X151186206Y-89782989D01*
X151287011Y-89883794D01*
X151418720Y-89938350D01*
X151561280Y-89938350D01*
X151692989Y-89883794D01*
X151793794Y-89782989D01*
X151848350Y-89651280D01*
X151848350Y-89508720D01*
X151793794Y-89377011D01*
X151692989Y-89276206D01*
X151561280Y-89221650D01*
X151418720Y-89221650D01*
X151287011Y-89276206D01*
X151186206Y-89377011D01*
X151131650Y-89508720D01*
X142588063Y-89508720D01*
X142653794Y-89442989D01*
X142708350Y-89311280D01*
X142708350Y-89168720D01*
X142653794Y-89037011D01*
X142552989Y-88936206D01*
X142421280Y-88881650D01*
X142278720Y-88881650D01*
X142147011Y-88936206D01*
X142046206Y-89037011D01*
X141991650Y-89168720D01*
X136956503Y-89168720D01*
X138156503Y-87968720D01*
X154291650Y-87968720D01*
X154291650Y-88111280D01*
X154346206Y-88242989D01*
X154447011Y-88343794D01*
X154578720Y-88398350D01*
X154721280Y-88398350D01*
X154852989Y-88343794D01*
X154953794Y-88242989D01*
X155008350Y-88111280D01*
X155008350Y-87968720D01*
X154953794Y-87837011D01*
X154852989Y-87736206D01*
X154721280Y-87681650D01*
X154578720Y-87681650D01*
X154447011Y-87736206D01*
X154346206Y-87837011D01*
X154291650Y-87968720D01*
X138156503Y-87968720D01*
X142370552Y-83754671D01*
X148766650Y-83754671D01*
X148766650Y-84245329D01*
X148954416Y-84698637D01*
X149301363Y-85045584D01*
X149754671Y-85233350D01*
X150245329Y-85233350D01*
X150698637Y-85045584D01*
X151045584Y-84698637D01*
X151233350Y-84245329D01*
X151233350Y-83754671D01*
X151045584Y-83301363D01*
X150698637Y-82954416D01*
X150245329Y-82766650D01*
X149754671Y-82766650D01*
X149301363Y-82954416D01*
X148954416Y-83301363D01*
X148766650Y-83754671D01*
X142370552Y-83754671D01*
X144471706Y-81653518D01*
X155528295Y-81653518D01*
X163346483Y-89471707D01*
X163346483Y-89471707D01*
G37*
X163346483Y-89471707D02*
X163346482Y-100528294D01*
X155528295Y-108346482D01*
X144471706Y-108346482D01*
X141879895Y-105754671D01*
X148766650Y-105754671D01*
X148766650Y-106245329D01*
X148954416Y-106698637D01*
X149301363Y-107045584D01*
X149754671Y-107233350D01*
X150245329Y-107233350D01*
X150698637Y-107045584D01*
X151045584Y-106698637D01*
X151233350Y-106245329D01*
X151233350Y-105754671D01*
X151045584Y-105301363D01*
X150698637Y-104954416D01*
X150245329Y-104766650D01*
X149754671Y-104766650D01*
X149301363Y-104954416D01*
X148954416Y-105301363D01*
X148766650Y-105754671D01*
X141879895Y-105754671D01*
X136653518Y-100528295D01*
X136653518Y-97883720D01*
X157071650Y-97883720D01*
X157071650Y-98026280D01*
X157126206Y-98157989D01*
X157227011Y-98258794D01*
X157358720Y-98313350D01*
X157501280Y-98313350D01*
X157632989Y-98258794D01*
X157733794Y-98157989D01*
X157788350Y-98026280D01*
X157788350Y-97883720D01*
X157733794Y-97752011D01*
X157632989Y-97651206D01*
X157501280Y-97596650D01*
X157358720Y-97596650D01*
X157227011Y-97651206D01*
X157126206Y-97752011D01*
X157071650Y-97883720D01*
X136653518Y-97883720D01*
X136653518Y-97088720D01*
X148851650Y-97088720D01*
X148851650Y-97231280D01*
X148906206Y-97362989D01*
X149007011Y-97463794D01*
X149138720Y-97518350D01*
X149281280Y-97518350D01*
X149412989Y-97463794D01*
X149513794Y-97362989D01*
X149568350Y-97231280D01*
X149568350Y-97088720D01*
X149513794Y-96957011D01*
X149412989Y-96856206D01*
X149281280Y-96801650D01*
X149138720Y-96801650D01*
X149007011Y-96856206D01*
X148906206Y-96957011D01*
X148851650Y-97088720D01*
X136653518Y-97088720D01*
X136653518Y-95000000D01*
X146512283Y-95000000D01*
X146569200Y-95286139D01*
X146731284Y-95528716D01*
X146973861Y-95690800D01*
X147187773Y-95733350D01*
X147732227Y-95733350D01*
X147946139Y-95690800D01*
X148188716Y-95528716D01*
X148350800Y-95286139D01*
X148366034Y-95209550D01*
X151863368Y-95209550D01*
X151867227Y-95318719D01*
X151988066Y-95499621D01*
X152221276Y-95672806D01*
X152330450Y-95678270D01*
X152330450Y-95209550D01*
X152749550Y-95209550D01*
X152749550Y-95678270D01*
X152858724Y-95672806D01*
X153091934Y-95499621D01*
X153212773Y-95318719D01*
X153216632Y-95209550D01*
X152749550Y-95209550D01*
X152330450Y-95209550D01*
X151863368Y-95209550D01*
X148366034Y-95209550D01*
X148407717Y-95000000D01*
X148393539Y-94928720D01*
X160811650Y-94928720D01*
X160811650Y-95071280D01*
X160866206Y-95202989D01*
X160967011Y-95303794D01*
X161098720Y-95358350D01*
X161241280Y-95358350D01*
X161372989Y-95303794D01*
X161473794Y-95202989D01*
X161528350Y-95071280D01*
X161528350Y-94928720D01*
X161473794Y-94797011D01*
X161372989Y-94696206D01*
X161241280Y-94641650D01*
X161098720Y-94641650D01*
X160967011Y-94696206D01*
X160866206Y-94797011D01*
X160811650Y-94928720D01*
X148393539Y-94928720D01*
X148366035Y-94790450D01*
X151863368Y-94790450D01*
X152330450Y-94790450D01*
X152749550Y-94790450D01*
X153216632Y-94790450D01*
X153212773Y-94681281D01*
X153091934Y-94500379D01*
X152858724Y-94327194D01*
X152749550Y-94321730D01*
X152749550Y-94790450D01*
X152330450Y-94790450D01*
X152330450Y-94321730D01*
X152221276Y-94327194D01*
X151988066Y-94500379D01*
X151867227Y-94681281D01*
X151863368Y-94790450D01*
X148366035Y-94790450D01*
X148350800Y-94713861D01*
X148188716Y-94471284D01*
X147946139Y-94309200D01*
X147732227Y-94266650D01*
X147187773Y-94266650D01*
X146973861Y-94309200D01*
X146731284Y-94471284D01*
X146569200Y-94713861D01*
X146512283Y-95000000D01*
X136653518Y-95000000D01*
X136653518Y-93288720D01*
X152071650Y-93288720D01*
X152071650Y-93431280D01*
X152126206Y-93562989D01*
X152227011Y-93663794D01*
X152358720Y-93718350D01*
X152501280Y-93718350D01*
X152632989Y-93663794D01*
X152733794Y-93562989D01*
X152788350Y-93431280D01*
X152788350Y-93288720D01*
X152733794Y-93157011D01*
X152632989Y-93056206D01*
X152501280Y-93001650D01*
X152358720Y-93001650D01*
X152227011Y-93056206D01*
X152126206Y-93157011D01*
X152071650Y-93288720D01*
X136653518Y-93288720D01*
X136653518Y-92988720D01*
X159051650Y-92988720D01*
X159051650Y-93131280D01*
X159106206Y-93262989D01*
X159207011Y-93363794D01*
X159338720Y-93418350D01*
X159481280Y-93418350D01*
X159612989Y-93363794D01*
X159713794Y-93262989D01*
X159768350Y-93131280D01*
X159768350Y-92988720D01*
X159713794Y-92857011D01*
X159612989Y-92756206D01*
X159481280Y-92701650D01*
X159338720Y-92701650D01*
X159207011Y-92756206D01*
X159106206Y-92857011D01*
X159051650Y-92988720D01*
X136653518Y-92988720D01*
X136653518Y-92278720D01*
X154191650Y-92278720D01*
X154191650Y-92421280D01*
X154246206Y-92552989D01*
X154347011Y-92653794D01*
X154478720Y-92708350D01*
X154621280Y-92708350D01*
X154752989Y-92653794D01*
X154853794Y-92552989D01*
X154908350Y-92421280D01*
X154908350Y-92278720D01*
X154853794Y-92147011D01*
X154752989Y-92046206D01*
X154621280Y-91991650D01*
X154478720Y-91991650D01*
X154347011Y-92046206D01*
X154246206Y-92147011D01*
X154191650Y-92278720D01*
X136653518Y-92278720D01*
X136653518Y-90978720D01*
X149901650Y-90978720D01*
X149901650Y-91121280D01*
X149956206Y-91252989D01*
X150057011Y-91353794D01*
X150188720Y-91408350D01*
X150331280Y-91408350D01*
X150462989Y-91353794D01*
X150563794Y-91252989D01*
X150618350Y-91121280D01*
X150618350Y-90978720D01*
X150563794Y-90847011D01*
X150475503Y-90758720D01*
X151331650Y-90758720D01*
X151331650Y-90901280D01*
X151386206Y-91032989D01*
X151487011Y-91133794D01*
X151618720Y-91188350D01*
X151761280Y-91188350D01*
X151881096Y-91138720D01*
X154191650Y-91138720D01*
X154191650Y-91281280D01*
X154246206Y-91412989D01*
X154347011Y-91513794D01*
X154478720Y-91568350D01*
X154621280Y-91568350D01*
X154752989Y-91513794D01*
X154853794Y-91412989D01*
X154908350Y-91281280D01*
X154908350Y-91138720D01*
X154853794Y-91007011D01*
X154752989Y-90906206D01*
X154621280Y-90851650D01*
X154478720Y-90851650D01*
X154347011Y-90906206D01*
X154246206Y-91007011D01*
X154191650Y-91138720D01*
X151881096Y-91138720D01*
X151892989Y-91133794D01*
X151993794Y-91032989D01*
X152048350Y-90901280D01*
X152048350Y-90758720D01*
X151993794Y-90627011D01*
X151892989Y-90526206D01*
X151761280Y-90471650D01*
X151618720Y-90471650D01*
X151487011Y-90526206D01*
X151386206Y-90627011D01*
X151331650Y-90758720D01*
X150475503Y-90758720D01*
X150462989Y-90746206D01*
X150331280Y-90691650D01*
X150188720Y-90691650D01*
X150057011Y-90746206D01*
X149956206Y-90847011D01*
X149901650Y-90978720D01*
X136653518Y-90978720D01*
X136653518Y-89471705D01*
X136956503Y-89168720D01*
X141991650Y-89168720D01*
X141991650Y-89311280D01*
X142046206Y-89442989D01*
X142147011Y-89543794D01*
X142278720Y-89598350D01*
X142421280Y-89598350D01*
X142552989Y-89543794D01*
X142588063Y-89508720D01*
X151131650Y-89508720D01*
X151131650Y-89651280D01*
X151186206Y-89782989D01*
X151287011Y-89883794D01*
X151418720Y-89938350D01*
X151561280Y-89938350D01*
X151692989Y-89883794D01*
X151793794Y-89782989D01*
X151848350Y-89651280D01*
X151848350Y-89508720D01*
X151793794Y-89377011D01*
X151692989Y-89276206D01*
X151561280Y-89221650D01*
X151418720Y-89221650D01*
X151287011Y-89276206D01*
X151186206Y-89377011D01*
X151131650Y-89508720D01*
X142588063Y-89508720D01*
X142653794Y-89442989D01*
X142708350Y-89311280D01*
X142708350Y-89168720D01*
X142653794Y-89037011D01*
X142552989Y-88936206D01*
X142421280Y-88881650D01*
X142278720Y-88881650D01*
X142147011Y-88936206D01*
X142046206Y-89037011D01*
X141991650Y-89168720D01*
X136956503Y-89168720D01*
X138156503Y-87968720D01*
X154291650Y-87968720D01*
X154291650Y-88111280D01*
X154346206Y-88242989D01*
X154447011Y-88343794D01*
X154578720Y-88398350D01*
X154721280Y-88398350D01*
X154852989Y-88343794D01*
X154953794Y-88242989D01*
X155008350Y-88111280D01*
X155008350Y-87968720D01*
X154953794Y-87837011D01*
X154852989Y-87736206D01*
X154721280Y-87681650D01*
X154578720Y-87681650D01*
X154447011Y-87736206D01*
X154346206Y-87837011D01*
X154291650Y-87968720D01*
X138156503Y-87968720D01*
X142370552Y-83754671D01*
X148766650Y-83754671D01*
X148766650Y-84245329D01*
X148954416Y-84698637D01*
X149301363Y-85045584D01*
X149754671Y-85233350D01*
X150245329Y-85233350D01*
X150698637Y-85045584D01*
X151045584Y-84698637D01*
X151233350Y-84245329D01*
X151233350Y-83754671D01*
X151045584Y-83301363D01*
X150698637Y-82954416D01*
X150245329Y-82766650D01*
X149754671Y-82766650D01*
X149301363Y-82954416D01*
X148954416Y-83301363D01*
X148766650Y-83754671D01*
X142370552Y-83754671D01*
X144471706Y-81653518D01*
X155528295Y-81653518D01*
X163346483Y-89471707D01*
G04 #@! TD*
M02*
