G04 #@! TF.GenerationSoftware,KiCad,Pcbnew,(5.0.0)*
G04 #@! TF.CreationDate,2019-03-24T09:47:22+01:00*
G04 #@! TF.ProjectId,photoDiode_MDversion1.2,70686F746F44696F64655F4D44766572,rev?*
G04 #@! TF.SameCoordinates,Original*
G04 #@! TF.FileFunction,Copper,L4,Bot,Signal*
G04 #@! TF.FilePolarity,Positive*
%FSLAX46Y46*%
G04 Gerber Fmt 4.6, Leading zero omitted, Abs format (unit mm)*
G04 Created by KiCad (PCBNEW (5.0.0)) date 03/24/19 09:47:22*
%MOMM*%
%LPD*%
G01*
G04 APERTURE LIST*
G04 #@! TA.AperFunction,SMDPad,CuDef*
%ADD10R,1.200000X0.900000*%
G04 #@! TD*
G04 #@! TA.AperFunction,SMDPad,CuDef*
%ADD11R,1.000000X1.250000*%
G04 #@! TD*
G04 #@! TA.AperFunction,Conductor*
%ADD12C,0.100000*%
G04 #@! TD*
G04 #@! TA.AperFunction,SMDPad,CuDef*
%ADD13C,0.975000*%
G04 #@! TD*
G04 #@! TA.AperFunction,SMDPad,CuDef*
%ADD14R,1.250000X1.000000*%
G04 #@! TD*
G04 #@! TA.AperFunction,ComponentPad*
%ADD15O,1.600000X1.200000*%
G04 #@! TD*
G04 #@! TA.AperFunction,ComponentPad*
%ADD16O,1.200000X1.200000*%
G04 #@! TD*
G04 #@! TA.AperFunction,SMDPad,CuDef*
%ADD17R,1.550000X0.600000*%
G04 #@! TD*
G04 #@! TA.AperFunction,SMDPad,CuDef*
%ADD18R,1.800000X1.200000*%
G04 #@! TD*
G04 #@! TA.AperFunction,SMDPad,CuDef*
%ADD19R,1.000000X3.800000*%
G04 #@! TD*
G04 #@! TA.AperFunction,SMDPad,CuDef*
%ADD20R,3.800000X1.000000*%
G04 #@! TD*
G04 #@! TA.AperFunction,SMDPad,CuDef*
%ADD21C,1.000000*%
G04 #@! TD*
G04 #@! TA.AperFunction,ViaPad*
%ADD22C,0.450000*%
G04 #@! TD*
G04 #@! TA.AperFunction,Conductor*
%ADD23C,0.250000*%
G04 #@! TD*
G04 #@! TA.AperFunction,Conductor*
%ADD24C,0.088900*%
G04 #@! TD*
G04 APERTURE END LIST*
D10*
G04 #@! TO.P,D2,1*
G04 #@! TO.N,GND*
X149500000Y-98660000D03*
G04 #@! TO.P,D2,2*
G04 #@! TO.N,/Ref1*
X149500000Y-95360000D03*
G04 #@! TD*
D11*
G04 #@! TO.P,C5,1*
G04 #@! TO.N,GND*
X149270000Y-93770000D03*
G04 #@! TO.P,C5,2*
G04 #@! TO.N,/Ref2*
X151270000Y-93770000D03*
G04 #@! TD*
D12*
G04 #@! TO.N,/Ref2*
G04 #@! TO.C,R6*
G36*
X156460142Y-91306174D02*
X156483803Y-91309684D01*
X156507007Y-91315496D01*
X156529529Y-91323554D01*
X156551153Y-91333782D01*
X156571670Y-91346079D01*
X156590883Y-91360329D01*
X156608607Y-91376393D01*
X156624671Y-91394117D01*
X156638921Y-91413330D01*
X156651218Y-91433847D01*
X156661446Y-91455471D01*
X156669504Y-91477993D01*
X156675316Y-91501197D01*
X156678826Y-91524858D01*
X156680000Y-91548750D01*
X156680000Y-92036250D01*
X156678826Y-92060142D01*
X156675316Y-92083803D01*
X156669504Y-92107007D01*
X156661446Y-92129529D01*
X156651218Y-92151153D01*
X156638921Y-92171670D01*
X156624671Y-92190883D01*
X156608607Y-92208607D01*
X156590883Y-92224671D01*
X156571670Y-92238921D01*
X156551153Y-92251218D01*
X156529529Y-92261446D01*
X156507007Y-92269504D01*
X156483803Y-92275316D01*
X156460142Y-92278826D01*
X156436250Y-92280000D01*
X155523750Y-92280000D01*
X155499858Y-92278826D01*
X155476197Y-92275316D01*
X155452993Y-92269504D01*
X155430471Y-92261446D01*
X155408847Y-92251218D01*
X155388330Y-92238921D01*
X155369117Y-92224671D01*
X155351393Y-92208607D01*
X155335329Y-92190883D01*
X155321079Y-92171670D01*
X155308782Y-92151153D01*
X155298554Y-92129529D01*
X155290496Y-92107007D01*
X155284684Y-92083803D01*
X155281174Y-92060142D01*
X155280000Y-92036250D01*
X155280000Y-91548750D01*
X155281174Y-91524858D01*
X155284684Y-91501197D01*
X155290496Y-91477993D01*
X155298554Y-91455471D01*
X155308782Y-91433847D01*
X155321079Y-91413330D01*
X155335329Y-91394117D01*
X155351393Y-91376393D01*
X155369117Y-91360329D01*
X155388330Y-91346079D01*
X155408847Y-91333782D01*
X155430471Y-91323554D01*
X155452993Y-91315496D01*
X155476197Y-91309684D01*
X155499858Y-91306174D01*
X155523750Y-91305000D01*
X156436250Y-91305000D01*
X156460142Y-91306174D01*
X156460142Y-91306174D01*
G37*
D13*
G04 #@! TD*
G04 #@! TO.P,R6,1*
G04 #@! TO.N,/Ref2*
X155980000Y-91792500D03*
D12*
G04 #@! TO.N,/Vdd*
G04 #@! TO.C,R6*
G36*
X156460142Y-93181174D02*
X156483803Y-93184684D01*
X156507007Y-93190496D01*
X156529529Y-93198554D01*
X156551153Y-93208782D01*
X156571670Y-93221079D01*
X156590883Y-93235329D01*
X156608607Y-93251393D01*
X156624671Y-93269117D01*
X156638921Y-93288330D01*
X156651218Y-93308847D01*
X156661446Y-93330471D01*
X156669504Y-93352993D01*
X156675316Y-93376197D01*
X156678826Y-93399858D01*
X156680000Y-93423750D01*
X156680000Y-93911250D01*
X156678826Y-93935142D01*
X156675316Y-93958803D01*
X156669504Y-93982007D01*
X156661446Y-94004529D01*
X156651218Y-94026153D01*
X156638921Y-94046670D01*
X156624671Y-94065883D01*
X156608607Y-94083607D01*
X156590883Y-94099671D01*
X156571670Y-94113921D01*
X156551153Y-94126218D01*
X156529529Y-94136446D01*
X156507007Y-94144504D01*
X156483803Y-94150316D01*
X156460142Y-94153826D01*
X156436250Y-94155000D01*
X155523750Y-94155000D01*
X155499858Y-94153826D01*
X155476197Y-94150316D01*
X155452993Y-94144504D01*
X155430471Y-94136446D01*
X155408847Y-94126218D01*
X155388330Y-94113921D01*
X155369117Y-94099671D01*
X155351393Y-94083607D01*
X155335329Y-94065883D01*
X155321079Y-94046670D01*
X155308782Y-94026153D01*
X155298554Y-94004529D01*
X155290496Y-93982007D01*
X155284684Y-93958803D01*
X155281174Y-93935142D01*
X155280000Y-93911250D01*
X155280000Y-93423750D01*
X155281174Y-93399858D01*
X155284684Y-93376197D01*
X155290496Y-93352993D01*
X155298554Y-93330471D01*
X155308782Y-93308847D01*
X155321079Y-93288330D01*
X155335329Y-93269117D01*
X155351393Y-93251393D01*
X155369117Y-93235329D01*
X155388330Y-93221079D01*
X155408847Y-93208782D01*
X155430471Y-93198554D01*
X155452993Y-93190496D01*
X155476197Y-93184684D01*
X155499858Y-93181174D01*
X155523750Y-93180000D01*
X156436250Y-93180000D01*
X156460142Y-93181174D01*
X156460142Y-93181174D01*
G37*
D13*
G04 #@! TD*
G04 #@! TO.P,R6,2*
G04 #@! TO.N,/Vdd*
X155980000Y-93667500D03*
D12*
G04 #@! TO.N,Net-(C4-Pad1)*
G04 #@! TO.C,R3*
G36*
X145920142Y-96461174D02*
X145943803Y-96464684D01*
X145967007Y-96470496D01*
X145989529Y-96478554D01*
X146011153Y-96488782D01*
X146031670Y-96501079D01*
X146050883Y-96515329D01*
X146068607Y-96531393D01*
X146084671Y-96549117D01*
X146098921Y-96568330D01*
X146111218Y-96588847D01*
X146121446Y-96610471D01*
X146129504Y-96632993D01*
X146135316Y-96656197D01*
X146138826Y-96679858D01*
X146140000Y-96703750D01*
X146140000Y-97616250D01*
X146138826Y-97640142D01*
X146135316Y-97663803D01*
X146129504Y-97687007D01*
X146121446Y-97709529D01*
X146111218Y-97731153D01*
X146098921Y-97751670D01*
X146084671Y-97770883D01*
X146068607Y-97788607D01*
X146050883Y-97804671D01*
X146031670Y-97818921D01*
X146011153Y-97831218D01*
X145989529Y-97841446D01*
X145967007Y-97849504D01*
X145943803Y-97855316D01*
X145920142Y-97858826D01*
X145896250Y-97860000D01*
X145408750Y-97860000D01*
X145384858Y-97858826D01*
X145361197Y-97855316D01*
X145337993Y-97849504D01*
X145315471Y-97841446D01*
X145293847Y-97831218D01*
X145273330Y-97818921D01*
X145254117Y-97804671D01*
X145236393Y-97788607D01*
X145220329Y-97770883D01*
X145206079Y-97751670D01*
X145193782Y-97731153D01*
X145183554Y-97709529D01*
X145175496Y-97687007D01*
X145169684Y-97663803D01*
X145166174Y-97640142D01*
X145165000Y-97616250D01*
X145165000Y-96703750D01*
X145166174Y-96679858D01*
X145169684Y-96656197D01*
X145175496Y-96632993D01*
X145183554Y-96610471D01*
X145193782Y-96588847D01*
X145206079Y-96568330D01*
X145220329Y-96549117D01*
X145236393Y-96531393D01*
X145254117Y-96515329D01*
X145273330Y-96501079D01*
X145293847Y-96488782D01*
X145315471Y-96478554D01*
X145337993Y-96470496D01*
X145361197Y-96464684D01*
X145384858Y-96461174D01*
X145408750Y-96460000D01*
X145896250Y-96460000D01*
X145920142Y-96461174D01*
X145920142Y-96461174D01*
G37*
D13*
G04 #@! TD*
G04 #@! TO.P,R3,1*
G04 #@! TO.N,Net-(C4-Pad1)*
X145652500Y-97160000D03*
D12*
G04 #@! TO.N,/A*
G04 #@! TO.C,R3*
G36*
X147795142Y-96461174D02*
X147818803Y-96464684D01*
X147842007Y-96470496D01*
X147864529Y-96478554D01*
X147886153Y-96488782D01*
X147906670Y-96501079D01*
X147925883Y-96515329D01*
X147943607Y-96531393D01*
X147959671Y-96549117D01*
X147973921Y-96568330D01*
X147986218Y-96588847D01*
X147996446Y-96610471D01*
X148004504Y-96632993D01*
X148010316Y-96656197D01*
X148013826Y-96679858D01*
X148015000Y-96703750D01*
X148015000Y-97616250D01*
X148013826Y-97640142D01*
X148010316Y-97663803D01*
X148004504Y-97687007D01*
X147996446Y-97709529D01*
X147986218Y-97731153D01*
X147973921Y-97751670D01*
X147959671Y-97770883D01*
X147943607Y-97788607D01*
X147925883Y-97804671D01*
X147906670Y-97818921D01*
X147886153Y-97831218D01*
X147864529Y-97841446D01*
X147842007Y-97849504D01*
X147818803Y-97855316D01*
X147795142Y-97858826D01*
X147771250Y-97860000D01*
X147283750Y-97860000D01*
X147259858Y-97858826D01*
X147236197Y-97855316D01*
X147212993Y-97849504D01*
X147190471Y-97841446D01*
X147168847Y-97831218D01*
X147148330Y-97818921D01*
X147129117Y-97804671D01*
X147111393Y-97788607D01*
X147095329Y-97770883D01*
X147081079Y-97751670D01*
X147068782Y-97731153D01*
X147058554Y-97709529D01*
X147050496Y-97687007D01*
X147044684Y-97663803D01*
X147041174Y-97640142D01*
X147040000Y-97616250D01*
X147040000Y-96703750D01*
X147041174Y-96679858D01*
X147044684Y-96656197D01*
X147050496Y-96632993D01*
X147058554Y-96610471D01*
X147068782Y-96588847D01*
X147081079Y-96568330D01*
X147095329Y-96549117D01*
X147111393Y-96531393D01*
X147129117Y-96515329D01*
X147148330Y-96501079D01*
X147168847Y-96488782D01*
X147190471Y-96478554D01*
X147212993Y-96470496D01*
X147236197Y-96464684D01*
X147259858Y-96461174D01*
X147283750Y-96460000D01*
X147771250Y-96460000D01*
X147795142Y-96461174D01*
X147795142Y-96461174D01*
G37*
D13*
G04 #@! TD*
G04 #@! TO.P,R3,2*
G04 #@! TO.N,/A*
X147527500Y-97160000D03*
D12*
G04 #@! TO.N,/Ref2*
G04 #@! TO.C,R4*
G36*
X156450142Y-89811174D02*
X156473803Y-89814684D01*
X156497007Y-89820496D01*
X156519529Y-89828554D01*
X156541153Y-89838782D01*
X156561670Y-89851079D01*
X156580883Y-89865329D01*
X156598607Y-89881393D01*
X156614671Y-89899117D01*
X156628921Y-89918330D01*
X156641218Y-89938847D01*
X156651446Y-89960471D01*
X156659504Y-89982993D01*
X156665316Y-90006197D01*
X156668826Y-90029858D01*
X156670000Y-90053750D01*
X156670000Y-90541250D01*
X156668826Y-90565142D01*
X156665316Y-90588803D01*
X156659504Y-90612007D01*
X156651446Y-90634529D01*
X156641218Y-90656153D01*
X156628921Y-90676670D01*
X156614671Y-90695883D01*
X156598607Y-90713607D01*
X156580883Y-90729671D01*
X156561670Y-90743921D01*
X156541153Y-90756218D01*
X156519529Y-90766446D01*
X156497007Y-90774504D01*
X156473803Y-90780316D01*
X156450142Y-90783826D01*
X156426250Y-90785000D01*
X155513750Y-90785000D01*
X155489858Y-90783826D01*
X155466197Y-90780316D01*
X155442993Y-90774504D01*
X155420471Y-90766446D01*
X155398847Y-90756218D01*
X155378330Y-90743921D01*
X155359117Y-90729671D01*
X155341393Y-90713607D01*
X155325329Y-90695883D01*
X155311079Y-90676670D01*
X155298782Y-90656153D01*
X155288554Y-90634529D01*
X155280496Y-90612007D01*
X155274684Y-90588803D01*
X155271174Y-90565142D01*
X155270000Y-90541250D01*
X155270000Y-90053750D01*
X155271174Y-90029858D01*
X155274684Y-90006197D01*
X155280496Y-89982993D01*
X155288554Y-89960471D01*
X155298782Y-89938847D01*
X155311079Y-89918330D01*
X155325329Y-89899117D01*
X155341393Y-89881393D01*
X155359117Y-89865329D01*
X155378330Y-89851079D01*
X155398847Y-89838782D01*
X155420471Y-89828554D01*
X155442993Y-89820496D01*
X155466197Y-89814684D01*
X155489858Y-89811174D01*
X155513750Y-89810000D01*
X156426250Y-89810000D01*
X156450142Y-89811174D01*
X156450142Y-89811174D01*
G37*
D13*
G04 #@! TD*
G04 #@! TO.P,R4,2*
G04 #@! TO.N,/Ref2*
X155970000Y-90297500D03*
D12*
G04 #@! TO.N,/Ref1*
G04 #@! TO.C,R4*
G36*
X156450142Y-87936174D02*
X156473803Y-87939684D01*
X156497007Y-87945496D01*
X156519529Y-87953554D01*
X156541153Y-87963782D01*
X156561670Y-87976079D01*
X156580883Y-87990329D01*
X156598607Y-88006393D01*
X156614671Y-88024117D01*
X156628921Y-88043330D01*
X156641218Y-88063847D01*
X156651446Y-88085471D01*
X156659504Y-88107993D01*
X156665316Y-88131197D01*
X156668826Y-88154858D01*
X156670000Y-88178750D01*
X156670000Y-88666250D01*
X156668826Y-88690142D01*
X156665316Y-88713803D01*
X156659504Y-88737007D01*
X156651446Y-88759529D01*
X156641218Y-88781153D01*
X156628921Y-88801670D01*
X156614671Y-88820883D01*
X156598607Y-88838607D01*
X156580883Y-88854671D01*
X156561670Y-88868921D01*
X156541153Y-88881218D01*
X156519529Y-88891446D01*
X156497007Y-88899504D01*
X156473803Y-88905316D01*
X156450142Y-88908826D01*
X156426250Y-88910000D01*
X155513750Y-88910000D01*
X155489858Y-88908826D01*
X155466197Y-88905316D01*
X155442993Y-88899504D01*
X155420471Y-88891446D01*
X155398847Y-88881218D01*
X155378330Y-88868921D01*
X155359117Y-88854671D01*
X155341393Y-88838607D01*
X155325329Y-88820883D01*
X155311079Y-88801670D01*
X155298782Y-88781153D01*
X155288554Y-88759529D01*
X155280496Y-88737007D01*
X155274684Y-88713803D01*
X155271174Y-88690142D01*
X155270000Y-88666250D01*
X155270000Y-88178750D01*
X155271174Y-88154858D01*
X155274684Y-88131197D01*
X155280496Y-88107993D01*
X155288554Y-88085471D01*
X155298782Y-88063847D01*
X155311079Y-88043330D01*
X155325329Y-88024117D01*
X155341393Y-88006393D01*
X155359117Y-87990329D01*
X155378330Y-87976079D01*
X155398847Y-87963782D01*
X155420471Y-87953554D01*
X155442993Y-87945496D01*
X155466197Y-87939684D01*
X155489858Y-87936174D01*
X155513750Y-87935000D01*
X156426250Y-87935000D01*
X156450142Y-87936174D01*
X156450142Y-87936174D01*
G37*
D13*
G04 #@! TD*
G04 #@! TO.P,R4,1*
G04 #@! TO.N,/Ref1*
X155970000Y-88422500D03*
D11*
G04 #@! TO.P,C2,1*
G04 #@! TO.N,Net-(C2-Pad1)*
X143630000Y-95000000D03*
G04 #@! TO.P,C2,2*
G04 #@! TO.N,Net-(C2-Pad2)*
X145630000Y-95000000D03*
G04 #@! TD*
D12*
G04 #@! TO.N,Net-(C2-Pad2)*
G04 #@! TO.C,R1*
G36*
X145990142Y-89766174D02*
X146013803Y-89769684D01*
X146037007Y-89775496D01*
X146059529Y-89783554D01*
X146081153Y-89793782D01*
X146101670Y-89806079D01*
X146120883Y-89820329D01*
X146138607Y-89836393D01*
X146154671Y-89854117D01*
X146168921Y-89873330D01*
X146181218Y-89893847D01*
X146191446Y-89915471D01*
X146199504Y-89937993D01*
X146205316Y-89961197D01*
X146208826Y-89984858D01*
X146210000Y-90008750D01*
X146210000Y-90496250D01*
X146208826Y-90520142D01*
X146205316Y-90543803D01*
X146199504Y-90567007D01*
X146191446Y-90589529D01*
X146181218Y-90611153D01*
X146168921Y-90631670D01*
X146154671Y-90650883D01*
X146138607Y-90668607D01*
X146120883Y-90684671D01*
X146101670Y-90698921D01*
X146081153Y-90711218D01*
X146059529Y-90721446D01*
X146037007Y-90729504D01*
X146013803Y-90735316D01*
X145990142Y-90738826D01*
X145966250Y-90740000D01*
X145053750Y-90740000D01*
X145029858Y-90738826D01*
X145006197Y-90735316D01*
X144982993Y-90729504D01*
X144960471Y-90721446D01*
X144938847Y-90711218D01*
X144918330Y-90698921D01*
X144899117Y-90684671D01*
X144881393Y-90668607D01*
X144865329Y-90650883D01*
X144851079Y-90631670D01*
X144838782Y-90611153D01*
X144828554Y-90589529D01*
X144820496Y-90567007D01*
X144814684Y-90543803D01*
X144811174Y-90520142D01*
X144810000Y-90496250D01*
X144810000Y-90008750D01*
X144811174Y-89984858D01*
X144814684Y-89961197D01*
X144820496Y-89937993D01*
X144828554Y-89915471D01*
X144838782Y-89893847D01*
X144851079Y-89873330D01*
X144865329Y-89854117D01*
X144881393Y-89836393D01*
X144899117Y-89820329D01*
X144918330Y-89806079D01*
X144938847Y-89793782D01*
X144960471Y-89783554D01*
X144982993Y-89775496D01*
X145006197Y-89769684D01*
X145029858Y-89766174D01*
X145053750Y-89765000D01*
X145966250Y-89765000D01*
X145990142Y-89766174D01*
X145990142Y-89766174D01*
G37*
D13*
G04 #@! TD*
G04 #@! TO.P,R1,1*
G04 #@! TO.N,Net-(C2-Pad2)*
X145510000Y-90252500D03*
D12*
G04 #@! TO.N,Net-(C2-Pad1)*
G04 #@! TO.C,R1*
G36*
X145990142Y-91641174D02*
X146013803Y-91644684D01*
X146037007Y-91650496D01*
X146059529Y-91658554D01*
X146081153Y-91668782D01*
X146101670Y-91681079D01*
X146120883Y-91695329D01*
X146138607Y-91711393D01*
X146154671Y-91729117D01*
X146168921Y-91748330D01*
X146181218Y-91768847D01*
X146191446Y-91790471D01*
X146199504Y-91812993D01*
X146205316Y-91836197D01*
X146208826Y-91859858D01*
X146210000Y-91883750D01*
X146210000Y-92371250D01*
X146208826Y-92395142D01*
X146205316Y-92418803D01*
X146199504Y-92442007D01*
X146191446Y-92464529D01*
X146181218Y-92486153D01*
X146168921Y-92506670D01*
X146154671Y-92525883D01*
X146138607Y-92543607D01*
X146120883Y-92559671D01*
X146101670Y-92573921D01*
X146081153Y-92586218D01*
X146059529Y-92596446D01*
X146037007Y-92604504D01*
X146013803Y-92610316D01*
X145990142Y-92613826D01*
X145966250Y-92615000D01*
X145053750Y-92615000D01*
X145029858Y-92613826D01*
X145006197Y-92610316D01*
X144982993Y-92604504D01*
X144960471Y-92596446D01*
X144938847Y-92586218D01*
X144918330Y-92573921D01*
X144899117Y-92559671D01*
X144881393Y-92543607D01*
X144865329Y-92525883D01*
X144851079Y-92506670D01*
X144838782Y-92486153D01*
X144828554Y-92464529D01*
X144820496Y-92442007D01*
X144814684Y-92418803D01*
X144811174Y-92395142D01*
X144810000Y-92371250D01*
X144810000Y-91883750D01*
X144811174Y-91859858D01*
X144814684Y-91836197D01*
X144820496Y-91812993D01*
X144828554Y-91790471D01*
X144838782Y-91768847D01*
X144851079Y-91748330D01*
X144865329Y-91729117D01*
X144881393Y-91711393D01*
X144899117Y-91695329D01*
X144918330Y-91681079D01*
X144938847Y-91668782D01*
X144960471Y-91658554D01*
X144982993Y-91650496D01*
X145006197Y-91644684D01*
X145029858Y-91641174D01*
X145053750Y-91640000D01*
X145966250Y-91640000D01*
X145990142Y-91641174D01*
X145990142Y-91641174D01*
G37*
D13*
G04 #@! TD*
G04 #@! TO.P,R1,2*
G04 #@! TO.N,Net-(C2-Pad1)*
X145510000Y-92127500D03*
D12*
G04 #@! TO.N,Net-(C2-Pad1)*
G04 #@! TO.C,R2*
G36*
X144100142Y-89766174D02*
X144123803Y-89769684D01*
X144147007Y-89775496D01*
X144169529Y-89783554D01*
X144191153Y-89793782D01*
X144211670Y-89806079D01*
X144230883Y-89820329D01*
X144248607Y-89836393D01*
X144264671Y-89854117D01*
X144278921Y-89873330D01*
X144291218Y-89893847D01*
X144301446Y-89915471D01*
X144309504Y-89937993D01*
X144315316Y-89961197D01*
X144318826Y-89984858D01*
X144320000Y-90008750D01*
X144320000Y-90496250D01*
X144318826Y-90520142D01*
X144315316Y-90543803D01*
X144309504Y-90567007D01*
X144301446Y-90589529D01*
X144291218Y-90611153D01*
X144278921Y-90631670D01*
X144264671Y-90650883D01*
X144248607Y-90668607D01*
X144230883Y-90684671D01*
X144211670Y-90698921D01*
X144191153Y-90711218D01*
X144169529Y-90721446D01*
X144147007Y-90729504D01*
X144123803Y-90735316D01*
X144100142Y-90738826D01*
X144076250Y-90740000D01*
X143163750Y-90740000D01*
X143139858Y-90738826D01*
X143116197Y-90735316D01*
X143092993Y-90729504D01*
X143070471Y-90721446D01*
X143048847Y-90711218D01*
X143028330Y-90698921D01*
X143009117Y-90684671D01*
X142991393Y-90668607D01*
X142975329Y-90650883D01*
X142961079Y-90631670D01*
X142948782Y-90611153D01*
X142938554Y-90589529D01*
X142930496Y-90567007D01*
X142924684Y-90543803D01*
X142921174Y-90520142D01*
X142920000Y-90496250D01*
X142920000Y-90008750D01*
X142921174Y-89984858D01*
X142924684Y-89961197D01*
X142930496Y-89937993D01*
X142938554Y-89915471D01*
X142948782Y-89893847D01*
X142961079Y-89873330D01*
X142975329Y-89854117D01*
X142991393Y-89836393D01*
X143009117Y-89820329D01*
X143028330Y-89806079D01*
X143048847Y-89793782D01*
X143070471Y-89783554D01*
X143092993Y-89775496D01*
X143116197Y-89769684D01*
X143139858Y-89766174D01*
X143163750Y-89765000D01*
X144076250Y-89765000D01*
X144100142Y-89766174D01*
X144100142Y-89766174D01*
G37*
D13*
G04 #@! TD*
G04 #@! TO.P,R2,1*
G04 #@! TO.N,Net-(C2-Pad1)*
X143620000Y-90252500D03*
D12*
G04 #@! TO.N,Net-(C4-Pad1)*
G04 #@! TO.C,R2*
G36*
X144100142Y-91641174D02*
X144123803Y-91644684D01*
X144147007Y-91650496D01*
X144169529Y-91658554D01*
X144191153Y-91668782D01*
X144211670Y-91681079D01*
X144230883Y-91695329D01*
X144248607Y-91711393D01*
X144264671Y-91729117D01*
X144278921Y-91748330D01*
X144291218Y-91768847D01*
X144301446Y-91790471D01*
X144309504Y-91812993D01*
X144315316Y-91836197D01*
X144318826Y-91859858D01*
X144320000Y-91883750D01*
X144320000Y-92371250D01*
X144318826Y-92395142D01*
X144315316Y-92418803D01*
X144309504Y-92442007D01*
X144301446Y-92464529D01*
X144291218Y-92486153D01*
X144278921Y-92506670D01*
X144264671Y-92525883D01*
X144248607Y-92543607D01*
X144230883Y-92559671D01*
X144211670Y-92573921D01*
X144191153Y-92586218D01*
X144169529Y-92596446D01*
X144147007Y-92604504D01*
X144123803Y-92610316D01*
X144100142Y-92613826D01*
X144076250Y-92615000D01*
X143163750Y-92615000D01*
X143139858Y-92613826D01*
X143116197Y-92610316D01*
X143092993Y-92604504D01*
X143070471Y-92596446D01*
X143048847Y-92586218D01*
X143028330Y-92573921D01*
X143009117Y-92559671D01*
X142991393Y-92543607D01*
X142975329Y-92525883D01*
X142961079Y-92506670D01*
X142948782Y-92486153D01*
X142938554Y-92464529D01*
X142930496Y-92442007D01*
X142924684Y-92418803D01*
X142921174Y-92395142D01*
X142920000Y-92371250D01*
X142920000Y-91883750D01*
X142921174Y-91859858D01*
X142924684Y-91836197D01*
X142930496Y-91812993D01*
X142938554Y-91790471D01*
X142948782Y-91768847D01*
X142961079Y-91748330D01*
X142975329Y-91729117D01*
X142991393Y-91711393D01*
X143009117Y-91695329D01*
X143028330Y-91681079D01*
X143048847Y-91668782D01*
X143070471Y-91658554D01*
X143092993Y-91650496D01*
X143116197Y-91644684D01*
X143139858Y-91641174D01*
X143163750Y-91640000D01*
X144076250Y-91640000D01*
X144100142Y-91641174D01*
X144100142Y-91641174D01*
G37*
D13*
G04 #@! TD*
G04 #@! TO.P,R2,2*
G04 #@! TO.N,Net-(C4-Pad1)*
X143620000Y-92127500D03*
D14*
G04 #@! TO.P,C1,2*
G04 #@! TO.N,GND*
X154160000Y-95900000D03*
G04 #@! TO.P,C1,1*
G04 #@! TO.N,/Vdd*
X154160000Y-93900000D03*
G04 #@! TD*
D15*
G04 #@! TO.P,D1,1*
G04 #@! TO.N,Net-(C2-Pad2)*
X147460000Y-95000000D03*
D16*
G04 #@! TO.P,D1,2*
G04 #@! TO.N,GND*
X152540000Y-95000000D03*
G04 #@! TD*
D17*
G04 #@! TO.P,J1,1*
G04 #@! TO.N,GND*
X159800000Y-96000000D03*
G04 #@! TO.P,J1,2*
G04 #@! TO.N,+5V*
X159800000Y-95000000D03*
G04 #@! TO.P,J1,3*
G04 #@! TO.N,/A*
X159800000Y-94000000D03*
D18*
G04 #@! TO.P,J1,MP*
G04 #@! TO.N,N/C*
X162325000Y-97300000D03*
X162325000Y-92700000D03*
G04 #@! TD*
D14*
G04 #@! TO.P,C3,2*
G04 #@! TO.N,+5V*
X155980000Y-98530000D03*
G04 #@! TO.P,C3,1*
G04 #@! TO.N,GND*
X155980000Y-100530000D03*
G04 #@! TD*
D11*
G04 #@! TO.P,C4,1*
G04 #@! TO.N,Net-(C4-Pad1)*
X143425000Y-88625000D03*
G04 #@! TO.P,C4,2*
G04 #@! TO.N,GND*
X145425000Y-88625000D03*
G04 #@! TD*
D12*
G04 #@! TO.N,+5V*
G04 #@! TO.C,L1*
G36*
X156460142Y-96541174D02*
X156483803Y-96544684D01*
X156507007Y-96550496D01*
X156529529Y-96558554D01*
X156551153Y-96568782D01*
X156571670Y-96581079D01*
X156590883Y-96595329D01*
X156608607Y-96611393D01*
X156624671Y-96629117D01*
X156638921Y-96648330D01*
X156651218Y-96668847D01*
X156661446Y-96690471D01*
X156669504Y-96712993D01*
X156675316Y-96736197D01*
X156678826Y-96759858D01*
X156680000Y-96783750D01*
X156680000Y-97271250D01*
X156678826Y-97295142D01*
X156675316Y-97318803D01*
X156669504Y-97342007D01*
X156661446Y-97364529D01*
X156651218Y-97386153D01*
X156638921Y-97406670D01*
X156624671Y-97425883D01*
X156608607Y-97443607D01*
X156590883Y-97459671D01*
X156571670Y-97473921D01*
X156551153Y-97486218D01*
X156529529Y-97496446D01*
X156507007Y-97504504D01*
X156483803Y-97510316D01*
X156460142Y-97513826D01*
X156436250Y-97515000D01*
X155523750Y-97515000D01*
X155499858Y-97513826D01*
X155476197Y-97510316D01*
X155452993Y-97504504D01*
X155430471Y-97496446D01*
X155408847Y-97486218D01*
X155388330Y-97473921D01*
X155369117Y-97459671D01*
X155351393Y-97443607D01*
X155335329Y-97425883D01*
X155321079Y-97406670D01*
X155308782Y-97386153D01*
X155298554Y-97364529D01*
X155290496Y-97342007D01*
X155284684Y-97318803D01*
X155281174Y-97295142D01*
X155280000Y-97271250D01*
X155280000Y-96783750D01*
X155281174Y-96759858D01*
X155284684Y-96736197D01*
X155290496Y-96712993D01*
X155298554Y-96690471D01*
X155308782Y-96668847D01*
X155321079Y-96648330D01*
X155335329Y-96629117D01*
X155351393Y-96611393D01*
X155369117Y-96595329D01*
X155388330Y-96581079D01*
X155408847Y-96568782D01*
X155430471Y-96558554D01*
X155452993Y-96550496D01*
X155476197Y-96544684D01*
X155499858Y-96541174D01*
X155523750Y-96540000D01*
X156436250Y-96540000D01*
X156460142Y-96541174D01*
X156460142Y-96541174D01*
G37*
D13*
G04 #@! TD*
G04 #@! TO.P,L1,1*
G04 #@! TO.N,+5V*
X155980000Y-97027500D03*
D12*
G04 #@! TO.N,/Vdd*
G04 #@! TO.C,L1*
G36*
X156460142Y-94666174D02*
X156483803Y-94669684D01*
X156507007Y-94675496D01*
X156529529Y-94683554D01*
X156551153Y-94693782D01*
X156571670Y-94706079D01*
X156590883Y-94720329D01*
X156608607Y-94736393D01*
X156624671Y-94754117D01*
X156638921Y-94773330D01*
X156651218Y-94793847D01*
X156661446Y-94815471D01*
X156669504Y-94837993D01*
X156675316Y-94861197D01*
X156678826Y-94884858D01*
X156680000Y-94908750D01*
X156680000Y-95396250D01*
X156678826Y-95420142D01*
X156675316Y-95443803D01*
X156669504Y-95467007D01*
X156661446Y-95489529D01*
X156651218Y-95511153D01*
X156638921Y-95531670D01*
X156624671Y-95550883D01*
X156608607Y-95568607D01*
X156590883Y-95584671D01*
X156571670Y-95598921D01*
X156551153Y-95611218D01*
X156529529Y-95621446D01*
X156507007Y-95629504D01*
X156483803Y-95635316D01*
X156460142Y-95638826D01*
X156436250Y-95640000D01*
X155523750Y-95640000D01*
X155499858Y-95638826D01*
X155476197Y-95635316D01*
X155452993Y-95629504D01*
X155430471Y-95621446D01*
X155408847Y-95611218D01*
X155388330Y-95598921D01*
X155369117Y-95584671D01*
X155351393Y-95568607D01*
X155335329Y-95550883D01*
X155321079Y-95531670D01*
X155308782Y-95511153D01*
X155298554Y-95489529D01*
X155290496Y-95467007D01*
X155284684Y-95443803D01*
X155281174Y-95420142D01*
X155280000Y-95396250D01*
X155280000Y-94908750D01*
X155281174Y-94884858D01*
X155284684Y-94861197D01*
X155290496Y-94837993D01*
X155298554Y-94815471D01*
X155308782Y-94793847D01*
X155321079Y-94773330D01*
X155335329Y-94754117D01*
X155351393Y-94736393D01*
X155369117Y-94720329D01*
X155388330Y-94706079D01*
X155408847Y-94693782D01*
X155430471Y-94683554D01*
X155452993Y-94675496D01*
X155476197Y-94669684D01*
X155499858Y-94666174D01*
X155523750Y-94665000D01*
X156436250Y-94665000D01*
X156460142Y-94666174D01*
X156460142Y-94666174D01*
G37*
D13*
G04 #@! TD*
G04 #@! TO.P,L1,2*
G04 #@! TO.N,/Vdd*
X155980000Y-95152500D03*
D17*
G04 #@! TO.P,U1,1*
G04 #@! TO.N,Net-(C2-Pad1)*
X147750000Y-92105000D03*
G04 #@! TO.P,U1,2*
G04 #@! TO.N,Net-(C2-Pad2)*
X147750000Y-90835000D03*
G04 #@! TO.P,U1,3*
G04 #@! TO.N,/Ref1*
X147750000Y-89565000D03*
G04 #@! TO.P,U1,4*
G04 #@! TO.N,GND*
X147750000Y-88295000D03*
G04 #@! TO.P,U1,5*
G04 #@! TO.N,/Ref2*
X153150000Y-88295000D03*
G04 #@! TO.P,U1,6*
G04 #@! TO.N,Net-(C4-Pad1)*
X153150000Y-89565000D03*
G04 #@! TO.P,U1,7*
G04 #@! TO.N,/A*
X153150000Y-90835000D03*
G04 #@! TO.P,U1,8*
G04 #@! TO.N,/Vdd*
X153150000Y-92105000D03*
G04 #@! TD*
D19*
G04 #@! TO.P,U2,1*
G04 #@! TO.N,GND*
X157650000Y-95000000D03*
X141350000Y-95000000D03*
D20*
X149500000Y-103150000D03*
X149500000Y-86850000D03*
D21*
X155875000Y-103150000D03*
D12*
G04 #@! TD*
G04 #@! TO.N,GND*
G04 #@! TO.C,U2*
G36*
X158150000Y-103650000D02*
X153600000Y-103650000D01*
X153600000Y-102650000D01*
X158150000Y-102650000D01*
X158150000Y-103650000D01*
X158150000Y-103650000D01*
G37*
D21*
G04 #@! TO.P,U2,1*
G04 #@! TO.N,GND*
X157650000Y-101375000D03*
D12*
G04 #@! TD*
G04 #@! TO.N,GND*
G04 #@! TO.C,U2*
G36*
X157150000Y-103650000D02*
X157150000Y-99100000D01*
X158150000Y-99100000D01*
X158150000Y-103650000D01*
X157150000Y-103650000D01*
X157150000Y-103650000D01*
G37*
D21*
G04 #@! TO.P,U2,1*
G04 #@! TO.N,GND*
X143125000Y-103150000D03*
D12*
G04 #@! TD*
G04 #@! TO.N,GND*
G04 #@! TO.C,U2*
G36*
X145400000Y-103650000D02*
X140850000Y-103650000D01*
X140850000Y-102650000D01*
X145400000Y-102650000D01*
X145400000Y-103650000D01*
X145400000Y-103650000D01*
G37*
D21*
G04 #@! TO.P,U2,1*
G04 #@! TO.N,GND*
X141350000Y-101375000D03*
D12*
G04 #@! TD*
G04 #@! TO.N,GND*
G04 #@! TO.C,U2*
G36*
X140850000Y-103650000D02*
X140850000Y-99100000D01*
X141850000Y-99100000D01*
X141850000Y-103650000D01*
X140850000Y-103650000D01*
X140850000Y-103650000D01*
G37*
D21*
G04 #@! TO.P,U2,1*
G04 #@! TO.N,GND*
X141350000Y-88625000D03*
D12*
G04 #@! TD*
G04 #@! TO.N,GND*
G04 #@! TO.C,U2*
G36*
X140850000Y-90900000D02*
X140850000Y-86350000D01*
X141850000Y-86350000D01*
X141850000Y-90900000D01*
X140850000Y-90900000D01*
X140850000Y-90900000D01*
G37*
D21*
G04 #@! TO.P,U2,1*
G04 #@! TO.N,GND*
X143125000Y-86850000D03*
D12*
G04 #@! TD*
G04 #@! TO.N,GND*
G04 #@! TO.C,U2*
G36*
X145400000Y-87350000D02*
X140850000Y-87350000D01*
X140850000Y-86350000D01*
X145400000Y-86350000D01*
X145400000Y-87350000D01*
X145400000Y-87350000D01*
G37*
D21*
G04 #@! TO.P,U2,1*
G04 #@! TO.N,GND*
X155875000Y-86850000D03*
D12*
G04 #@! TD*
G04 #@! TO.N,GND*
G04 #@! TO.C,U2*
G36*
X158150000Y-87350000D02*
X153600000Y-87350000D01*
X153600000Y-86350000D01*
X158150000Y-86350000D01*
X158150000Y-87350000D01*
X158150000Y-87350000D01*
G37*
D21*
G04 #@! TO.P,U2,1*
G04 #@! TO.N,GND*
X157650000Y-88625000D03*
D12*
G04 #@! TD*
G04 #@! TO.N,GND*
G04 #@! TO.C,U2*
G36*
X157150000Y-90900000D02*
X157150000Y-86350000D01*
X158150000Y-86350000D01*
X158150000Y-90900000D01*
X157150000Y-90900000D01*
X157150000Y-90900000D01*
G37*
D22*
G04 #@! TO.N,+5V*
X161170000Y-95000000D03*
X157430000Y-97955000D03*
G04 #@! TO.N,GND*
X154660000Y-84510000D03*
X159900000Y-100400000D03*
X155060000Y-105280000D03*
X145720000Y-85010000D03*
X144000000Y-84220000D03*
X137540000Y-91160000D03*
X138350000Y-94650000D03*
X137700000Y-97900000D03*
X143330000Y-105020000D03*
X146170000Y-104540000D03*
X145150000Y-106970000D03*
X147130000Y-107480000D03*
X153350000Y-107360000D03*
X156580000Y-105380000D03*
X159600000Y-102210000D03*
X161910000Y-99850000D03*
X158860000Y-98620000D03*
X162200000Y-89960000D03*
X159070000Y-90660000D03*
X160070000Y-88440000D03*
X157450000Y-85040000D03*
X154910000Y-82940000D03*
X152860000Y-85040000D03*
X147340000Y-82460000D03*
X142080000Y-85210000D03*
X139260000Y-88130000D03*
X138950000Y-101260000D03*
X159590000Y-92310000D03*
X143070000Y-100940000D03*
X145100000Y-99050000D03*
X146030000Y-101460000D03*
X146810000Y-99230000D03*
X152530000Y-101750000D03*
X153890000Y-99260000D03*
X150260000Y-100790000D03*
X150120000Y-97510000D03*
X148750000Y-96510000D03*
X148150000Y-93980000D03*
X146440000Y-93510000D03*
X143520000Y-93220000D03*
X141650000Y-91970000D03*
X144440000Y-88430000D03*
X143720000Y-91180000D03*
X149190000Y-90850000D03*
X149440000Y-88250000D03*
X151360000Y-88420000D03*
X154580000Y-90160000D03*
X157700000Y-91970000D03*
X143010000Y-97940000D03*
X153280000Y-97430000D03*
X143710000Y-99330000D03*
X139600000Y-91770000D03*
X139600000Y-97450000D03*
X146350000Y-91240000D03*
X151900000Y-98570000D03*
X152390000Y-99870000D03*
X147660000Y-100640000D03*
G04 #@! TO.N,/A*
X149210000Y-97160000D03*
X151690000Y-90830000D03*
X154550000Y-91210000D03*
X159410000Y-93060000D03*
G04 #@! TO.N,Net-(C4-Pad1)*
X142350000Y-89240000D03*
X151490000Y-89580000D03*
G04 #@! TO.N,/Ref2*
X152430000Y-93360000D03*
X154550000Y-92350000D03*
G04 #@! TO.N,/Ref1*
X154650000Y-88040000D03*
X150260000Y-91050000D03*
G04 #@! TD*
D23*
G04 #@! TO.N,+5V*
X159300000Y-95000000D02*
X161170000Y-95000000D01*
X155980000Y-98530000D02*
X155980000Y-97027500D01*
X156855000Y-98530000D02*
X157430000Y-97955000D01*
X155980000Y-98530000D02*
X156855000Y-98530000D01*
G04 #@! TO.N,/A*
X147527500Y-97160000D02*
X148115000Y-97160000D01*
X148115000Y-97160000D02*
X149210000Y-97160000D01*
X152125000Y-90835000D02*
X152120000Y-90830000D01*
X153150000Y-90835000D02*
X152125000Y-90835000D01*
X152120000Y-90830000D02*
X151690000Y-90830000D01*
X154175000Y-90835000D02*
X154550000Y-91210000D01*
X153150000Y-90835000D02*
X154175000Y-90835000D01*
X159800000Y-93450000D02*
X159410000Y-93060000D01*
X159800000Y-94000000D02*
X159800000Y-93450000D01*
G04 #@! TO.N,Net-(C2-Pad2)*
X145625000Y-95000000D02*
X145425000Y-94800000D01*
X145510000Y-90252500D02*
X145747500Y-90490000D01*
X147460000Y-95000000D02*
X145630000Y-95000000D01*
X148225000Y-90835000D02*
X147750000Y-90835000D01*
X149110000Y-91720000D02*
X148225000Y-90835000D01*
X149110000Y-92360000D02*
X149110000Y-91720000D01*
X147460000Y-95000000D02*
X147460000Y-94010000D01*
X147460000Y-94010000D02*
X149110000Y-92360000D01*
X145747500Y-90490000D02*
X146300000Y-90490000D01*
X146300000Y-90490000D02*
X146645000Y-90835000D01*
X146645000Y-90835000D02*
X147750000Y-90835000D01*
G04 #@! TO.N,Net-(C2-Pad1)*
X143512500Y-94712500D02*
X143425000Y-94800000D01*
X143630000Y-94007500D02*
X145510000Y-92127500D01*
X143630000Y-95000000D02*
X143630000Y-94007500D01*
X143635000Y-90252500D02*
X143620000Y-90252500D01*
X145510000Y-92127500D02*
X143635000Y-90252500D01*
X147727500Y-92127500D02*
X147750000Y-92105000D01*
X145510000Y-92127500D02*
X147727500Y-92127500D01*
G04 #@! TO.N,Net-(C4-Pad1)*
X143620000Y-92127500D02*
X142350000Y-90857500D01*
X142350000Y-90857500D02*
X142350000Y-89240000D01*
X142965000Y-88625000D02*
X142350000Y-89240000D01*
X143425000Y-88625000D02*
X142965000Y-88625000D01*
X151505000Y-89565000D02*
X151490000Y-89580000D01*
X153150000Y-89565000D02*
X151505000Y-89565000D01*
X143063763Y-92683737D02*
X143620000Y-92127500D01*
X142580000Y-93167500D02*
X143063763Y-92683737D01*
X142580000Y-95990000D02*
X142580000Y-93167500D01*
X145652500Y-97160000D02*
X143750000Y-97160000D01*
X143750000Y-97160000D02*
X142580000Y-95990000D01*
G04 #@! TO.N,/Vdd*
X155980000Y-95152500D02*
X155980000Y-93667500D01*
X154392500Y-93667500D02*
X154160000Y-93900000D01*
X155980000Y-93667500D02*
X154392500Y-93667500D01*
X153625000Y-92105000D02*
X153150000Y-92105000D01*
X154175000Y-92655000D02*
X153625000Y-92105000D01*
X154175000Y-93100000D02*
X154175000Y-92655000D01*
X154160000Y-93115000D02*
X154175000Y-93100000D01*
X154160000Y-93900000D02*
X154160000Y-93115000D01*
X152857500Y-92105000D02*
X153150000Y-92105000D01*
G04 #@! TO.N,/Ref2*
X155970000Y-91782500D02*
X155980000Y-91792500D01*
X155970000Y-90297500D02*
X155970000Y-91782500D01*
X153967500Y-88295000D02*
X153150000Y-88295000D01*
X155970000Y-90297500D02*
X153967500Y-88295000D01*
X152020000Y-93770000D02*
X152430000Y-93360000D01*
X151270000Y-93770000D02*
X152020000Y-93770000D01*
X155422500Y-92350000D02*
X155980000Y-91792500D01*
X154550000Y-92350000D02*
X155422500Y-92350000D01*
G04 #@! TO.N,/Ref1*
X147750000Y-89565000D02*
X148775000Y-89565000D01*
X155170000Y-88422500D02*
X154787500Y-88040000D01*
X155970000Y-88422500D02*
X155170000Y-88422500D01*
X154787500Y-88040000D02*
X154650000Y-88040000D01*
X150260000Y-91050000D02*
X148775000Y-89565000D01*
X149650000Y-95360000D02*
X149500000Y-95360000D01*
X150260000Y-91050000D02*
X150260000Y-94750000D01*
X150260000Y-94750000D02*
X149650000Y-95360000D01*
G04 #@! TD*
D24*
G04 #@! TO.N,GND*
G36*
X163346483Y-89471707D02*
X163346483Y-92041789D01*
X163321140Y-92003860D01*
X163277030Y-91974387D01*
X163225000Y-91964038D01*
X161425000Y-91964038D01*
X161372970Y-91974387D01*
X161328860Y-92003860D01*
X161299387Y-92047970D01*
X161289038Y-92100000D01*
X161289038Y-93300000D01*
X161299387Y-93352030D01*
X161328860Y-93396140D01*
X161372970Y-93425613D01*
X161425000Y-93435962D01*
X163225000Y-93435962D01*
X163277030Y-93425613D01*
X163321140Y-93396140D01*
X163346483Y-93358212D01*
X163346482Y-96641788D01*
X163321140Y-96603860D01*
X163277030Y-96574387D01*
X163225000Y-96564038D01*
X161425000Y-96564038D01*
X161372970Y-96574387D01*
X161328860Y-96603860D01*
X161299387Y-96647970D01*
X161289038Y-96700000D01*
X161289038Y-97900000D01*
X161299387Y-97952030D01*
X161328860Y-97996140D01*
X161372970Y-98025613D01*
X161425000Y-98035962D01*
X163225000Y-98035962D01*
X163277030Y-98025613D01*
X163321140Y-97996140D01*
X163346482Y-97958212D01*
X163346482Y-100528294D01*
X155528295Y-108346482D01*
X144471706Y-108346482D01*
X141879895Y-105754671D01*
X148766650Y-105754671D01*
X148766650Y-106245329D01*
X148954416Y-106698637D01*
X149301363Y-107045584D01*
X149754671Y-107233350D01*
X150245329Y-107233350D01*
X150698637Y-107045584D01*
X151045584Y-106698637D01*
X151233350Y-106245329D01*
X151233350Y-105754671D01*
X151045584Y-105301363D01*
X150698637Y-104954416D01*
X150245329Y-104766650D01*
X149754671Y-104766650D01*
X149301363Y-104954416D01*
X148954416Y-105301363D01*
X148766650Y-105754671D01*
X141879895Y-105754671D01*
X136900886Y-100775662D01*
X155210550Y-100775662D01*
X155210550Y-101058733D01*
X155232541Y-101111824D01*
X155273176Y-101152459D01*
X155326267Y-101174450D01*
X155734338Y-101174450D01*
X155770450Y-101138338D01*
X155770450Y-100739550D01*
X156189550Y-100739550D01*
X156189550Y-101138338D01*
X156225662Y-101174450D01*
X156633733Y-101174450D01*
X156686824Y-101152459D01*
X156727459Y-101111824D01*
X156749450Y-101058733D01*
X156749450Y-100775662D01*
X156713338Y-100739550D01*
X156189550Y-100739550D01*
X155770450Y-100739550D01*
X155246662Y-100739550D01*
X155210550Y-100775662D01*
X136900886Y-100775662D01*
X136653518Y-100528295D01*
X136653518Y-100001267D01*
X155210550Y-100001267D01*
X155210550Y-100284338D01*
X155246662Y-100320450D01*
X155770450Y-100320450D01*
X155770450Y-99921662D01*
X156189550Y-99921662D01*
X156189550Y-100320450D01*
X156713338Y-100320450D01*
X156749450Y-100284338D01*
X156749450Y-100001267D01*
X156727459Y-99948176D01*
X156686824Y-99907541D01*
X156633733Y-99885550D01*
X156225662Y-99885550D01*
X156189550Y-99921662D01*
X155770450Y-99921662D01*
X155734338Y-99885550D01*
X155326267Y-99885550D01*
X155273176Y-99907541D01*
X155232541Y-99948176D01*
X155210550Y-100001267D01*
X136653518Y-100001267D01*
X136653518Y-98905662D01*
X148755550Y-98905662D01*
X148755550Y-99138733D01*
X148777541Y-99191824D01*
X148818176Y-99232459D01*
X148871267Y-99254450D01*
X149254338Y-99254450D01*
X149290450Y-99218338D01*
X149290450Y-98869550D01*
X149709550Y-98869550D01*
X149709550Y-99218338D01*
X149745662Y-99254450D01*
X150128733Y-99254450D01*
X150181824Y-99232459D01*
X150222459Y-99191824D01*
X150244450Y-99138733D01*
X150244450Y-98905662D01*
X150208338Y-98869550D01*
X149709550Y-98869550D01*
X149290450Y-98869550D01*
X148791662Y-98869550D01*
X148755550Y-98905662D01*
X136653518Y-98905662D01*
X136653518Y-98181267D01*
X148755550Y-98181267D01*
X148755550Y-98414338D01*
X148791662Y-98450450D01*
X149290450Y-98450450D01*
X149290450Y-98101662D01*
X149709550Y-98101662D01*
X149709550Y-98450450D01*
X150208338Y-98450450D01*
X150244450Y-98414338D01*
X150244450Y-98181267D01*
X150222459Y-98128176D01*
X150181824Y-98087541D01*
X150128733Y-98065550D01*
X149745662Y-98065550D01*
X149709550Y-98101662D01*
X149290450Y-98101662D01*
X149254338Y-98065550D01*
X148871267Y-98065550D01*
X148818176Y-98087541D01*
X148777541Y-98128176D01*
X148755550Y-98181267D01*
X136653518Y-98181267D01*
X136653518Y-89471705D01*
X136956503Y-89168720D01*
X141991650Y-89168720D01*
X141991650Y-89311280D01*
X142046206Y-89442989D01*
X142091651Y-89488434D01*
X142091650Y-90832058D01*
X142086589Y-90857500D01*
X142091650Y-90882942D01*
X142106640Y-90958302D01*
X142163740Y-91043760D01*
X142185314Y-91058175D01*
X142834026Y-91706887D01*
X142812942Y-91738441D01*
X142784038Y-91883750D01*
X142784038Y-92371250D01*
X142812942Y-92516559D01*
X142834025Y-92548113D01*
X142415312Y-92966827D01*
X142393741Y-92981240D01*
X142366145Y-93022541D01*
X142336641Y-93066697D01*
X142316589Y-93167500D01*
X142321651Y-93192947D01*
X142321650Y-95964558D01*
X142316589Y-95990000D01*
X142321650Y-96015442D01*
X142336640Y-96090802D01*
X142393740Y-96176260D01*
X142415314Y-96190675D01*
X143549328Y-97324691D01*
X143563740Y-97346260D01*
X143585308Y-97360671D01*
X143585309Y-97360672D01*
X143649197Y-97403360D01*
X143750000Y-97423411D01*
X143775443Y-97418350D01*
X145029038Y-97418350D01*
X145029038Y-97616250D01*
X145057942Y-97761559D01*
X145140253Y-97884747D01*
X145263441Y-97967058D01*
X145408750Y-97995962D01*
X145896250Y-97995962D01*
X146041559Y-97967058D01*
X146164747Y-97884747D01*
X146247058Y-97761559D01*
X146275962Y-97616250D01*
X146275962Y-96703750D01*
X146904038Y-96703750D01*
X146904038Y-97616250D01*
X146932942Y-97761559D01*
X147015253Y-97884747D01*
X147138441Y-97967058D01*
X147283750Y-97995962D01*
X147771250Y-97995962D01*
X147916559Y-97967058D01*
X148039747Y-97884747D01*
X148122058Y-97761559D01*
X148150962Y-97616250D01*
X148150962Y-97418350D01*
X148961567Y-97418350D01*
X149007011Y-97463794D01*
X149138720Y-97518350D01*
X149281280Y-97518350D01*
X149412989Y-97463794D01*
X149513794Y-97362989D01*
X149568350Y-97231280D01*
X149568350Y-97088720D01*
X149513794Y-96957011D01*
X149412989Y-96856206D01*
X149281280Y-96801650D01*
X149138720Y-96801650D01*
X149007011Y-96856206D01*
X148961567Y-96901650D01*
X148150962Y-96901650D01*
X148150962Y-96783750D01*
X155144038Y-96783750D01*
X155144038Y-97271250D01*
X155172942Y-97416559D01*
X155255253Y-97539747D01*
X155378441Y-97622058D01*
X155523750Y-97650962D01*
X155721651Y-97650962D01*
X155721650Y-97894038D01*
X155355000Y-97894038D01*
X155302970Y-97904387D01*
X155258860Y-97933860D01*
X155229387Y-97977970D01*
X155219038Y-98030000D01*
X155219038Y-99030000D01*
X155229387Y-99082030D01*
X155258860Y-99126140D01*
X155302970Y-99155613D01*
X155355000Y-99165962D01*
X156605000Y-99165962D01*
X156657030Y-99155613D01*
X156701140Y-99126140D01*
X156730613Y-99082030D01*
X156740962Y-99030000D01*
X156740962Y-98788350D01*
X156829558Y-98788350D01*
X156855000Y-98793411D01*
X156880442Y-98788350D01*
X156880443Y-98788350D01*
X156955803Y-98773360D01*
X157041260Y-98716260D01*
X157055675Y-98694686D01*
X157437012Y-98313350D01*
X157501280Y-98313350D01*
X157632989Y-98258794D01*
X157733794Y-98157989D01*
X157788350Y-98026280D01*
X157788350Y-97883720D01*
X157733794Y-97752011D01*
X157632989Y-97651206D01*
X157501280Y-97596650D01*
X157358720Y-97596650D01*
X157227011Y-97651206D01*
X157126206Y-97752011D01*
X157071650Y-97883720D01*
X157071650Y-97947988D01*
X156747989Y-98271650D01*
X156740962Y-98271650D01*
X156740962Y-98030000D01*
X156730613Y-97977970D01*
X156701140Y-97933860D01*
X156657030Y-97904387D01*
X156605000Y-97894038D01*
X156238350Y-97894038D01*
X156238350Y-97650962D01*
X156436250Y-97650962D01*
X156581559Y-97622058D01*
X156704747Y-97539747D01*
X156787058Y-97416559D01*
X156815962Y-97271250D01*
X156815962Y-96783750D01*
X156787058Y-96638441D01*
X156704747Y-96515253D01*
X156581559Y-96432942D01*
X156436250Y-96404038D01*
X155523750Y-96404038D01*
X155378441Y-96432942D01*
X155255253Y-96515253D01*
X155172942Y-96638441D01*
X155144038Y-96783750D01*
X148150962Y-96783750D01*
X148150962Y-96703750D01*
X148122058Y-96558441D01*
X148039747Y-96435253D01*
X147916559Y-96352942D01*
X147771250Y-96324038D01*
X147283750Y-96324038D01*
X147138441Y-96352942D01*
X147015253Y-96435253D01*
X146932942Y-96558441D01*
X146904038Y-96703750D01*
X146275962Y-96703750D01*
X146247058Y-96558441D01*
X146164747Y-96435253D01*
X146041559Y-96352942D01*
X145896250Y-96324038D01*
X145408750Y-96324038D01*
X145263441Y-96352942D01*
X145140253Y-96435253D01*
X145057942Y-96558441D01*
X145029038Y-96703750D01*
X145029038Y-96901650D01*
X143857013Y-96901650D01*
X143101024Y-96145662D01*
X153390550Y-96145662D01*
X153390550Y-96428733D01*
X153412541Y-96481824D01*
X153453176Y-96522459D01*
X153506267Y-96544450D01*
X153914338Y-96544450D01*
X153950450Y-96508338D01*
X153950450Y-96109550D01*
X154369550Y-96109550D01*
X154369550Y-96508338D01*
X154405662Y-96544450D01*
X154813733Y-96544450D01*
X154866824Y-96522459D01*
X154907459Y-96481824D01*
X154929450Y-96428733D01*
X154929450Y-96186112D01*
X158880550Y-96186112D01*
X158880550Y-96328733D01*
X158902541Y-96381824D01*
X158943176Y-96422459D01*
X158996267Y-96444450D01*
X159554338Y-96444450D01*
X159590450Y-96408338D01*
X159590450Y-96150000D01*
X160009550Y-96150000D01*
X160009550Y-96408338D01*
X160045662Y-96444450D01*
X160603733Y-96444450D01*
X160656824Y-96422459D01*
X160697459Y-96381824D01*
X160719450Y-96328733D01*
X160719450Y-96186112D01*
X160683338Y-96150000D01*
X160009550Y-96150000D01*
X159590450Y-96150000D01*
X158916662Y-96150000D01*
X158880550Y-96186112D01*
X154929450Y-96186112D01*
X154929450Y-96145662D01*
X154893338Y-96109550D01*
X154369550Y-96109550D01*
X153950450Y-96109550D01*
X153426662Y-96109550D01*
X153390550Y-96145662D01*
X143101024Y-96145662D01*
X142838350Y-95882989D01*
X142838350Y-93274511D01*
X143264434Y-92848428D01*
X143264436Y-92848425D01*
X143361899Y-92750962D01*
X144076250Y-92750962D01*
X144221559Y-92722058D01*
X144344747Y-92639747D01*
X144427058Y-92516559D01*
X144455962Y-92371250D01*
X144455962Y-91883750D01*
X144427058Y-91738441D01*
X144344747Y-91615253D01*
X144221559Y-91532942D01*
X144076250Y-91504038D01*
X143361900Y-91504038D01*
X142608350Y-90750489D01*
X142608350Y-90008750D01*
X142784038Y-90008750D01*
X142784038Y-90496250D01*
X142812942Y-90641559D01*
X142895253Y-90764747D01*
X143018441Y-90847058D01*
X143163750Y-90875962D01*
X143893101Y-90875962D01*
X144724025Y-91706887D01*
X144702942Y-91738441D01*
X144674038Y-91883750D01*
X144674038Y-92371250D01*
X144702942Y-92516559D01*
X144724025Y-92548113D01*
X143465312Y-93806827D01*
X143443741Y-93821240D01*
X143391116Y-93900000D01*
X143386641Y-93906697D01*
X143366589Y-94007500D01*
X143371651Y-94032947D01*
X143371651Y-94239038D01*
X143130000Y-94239038D01*
X143077970Y-94249387D01*
X143033860Y-94278860D01*
X143004387Y-94322970D01*
X142994038Y-94375000D01*
X142994038Y-95625000D01*
X143004387Y-95677030D01*
X143033860Y-95721140D01*
X143077970Y-95750613D01*
X143130000Y-95760962D01*
X144130000Y-95760962D01*
X144182030Y-95750613D01*
X144226140Y-95721140D01*
X144255613Y-95677030D01*
X144265962Y-95625000D01*
X144265962Y-94375000D01*
X144255613Y-94322970D01*
X144226140Y-94278860D01*
X144182030Y-94249387D01*
X144130000Y-94239038D01*
X143888350Y-94239038D01*
X143888350Y-94114511D01*
X145251900Y-92750962D01*
X145966250Y-92750962D01*
X146111559Y-92722058D01*
X146234747Y-92639747D01*
X146317058Y-92516559D01*
X146343058Y-92385850D01*
X146839038Y-92385850D01*
X146839038Y-92405000D01*
X146849387Y-92457030D01*
X146878860Y-92501140D01*
X146922970Y-92530613D01*
X146975000Y-92540962D01*
X148525000Y-92540962D01*
X148573279Y-92531359D01*
X147295312Y-93809327D01*
X147273741Y-93823740D01*
X147242295Y-93870803D01*
X147216641Y-93909197D01*
X147196589Y-94010000D01*
X147201651Y-94035447D01*
X147201651Y-94266650D01*
X147187773Y-94266650D01*
X146973861Y-94309200D01*
X146731284Y-94471284D01*
X146569200Y-94713861D01*
X146563672Y-94741650D01*
X146265962Y-94741650D01*
X146265962Y-94375000D01*
X146255613Y-94322970D01*
X146226140Y-94278860D01*
X146182030Y-94249387D01*
X146130000Y-94239038D01*
X145130000Y-94239038D01*
X145077970Y-94249387D01*
X145033860Y-94278860D01*
X145004387Y-94322970D01*
X144994038Y-94375000D01*
X144994038Y-95625000D01*
X145004387Y-95677030D01*
X145033860Y-95721140D01*
X145077970Y-95750613D01*
X145130000Y-95760962D01*
X146130000Y-95760962D01*
X146182030Y-95750613D01*
X146226140Y-95721140D01*
X146255613Y-95677030D01*
X146265962Y-95625000D01*
X146265962Y-95258350D01*
X146563672Y-95258350D01*
X146569200Y-95286139D01*
X146731284Y-95528716D01*
X146973861Y-95690800D01*
X147187773Y-95733350D01*
X147732227Y-95733350D01*
X147946139Y-95690800D01*
X148188716Y-95528716D01*
X148350800Y-95286139D01*
X148407717Y-95000000D01*
X148350800Y-94713861D01*
X148188716Y-94471284D01*
X147946139Y-94309200D01*
X147732227Y-94266650D01*
X147718350Y-94266650D01*
X147718350Y-94117011D01*
X147819699Y-94015662D01*
X148625550Y-94015662D01*
X148625550Y-94423733D01*
X148647541Y-94476824D01*
X148688176Y-94517459D01*
X148741267Y-94539450D01*
X149024338Y-94539450D01*
X149060450Y-94503338D01*
X149060450Y-93979550D01*
X149479550Y-93979550D01*
X149479550Y-94503338D01*
X149515662Y-94539450D01*
X149798733Y-94539450D01*
X149851824Y-94517459D01*
X149892459Y-94476824D01*
X149914450Y-94423733D01*
X149914450Y-94015662D01*
X149878338Y-93979550D01*
X149479550Y-93979550D01*
X149060450Y-93979550D01*
X148661662Y-93979550D01*
X148625550Y-94015662D01*
X147819699Y-94015662D01*
X148625550Y-93209812D01*
X148625550Y-93524338D01*
X148661662Y-93560450D01*
X149060450Y-93560450D01*
X149060450Y-93036662D01*
X149479550Y-93036662D01*
X149479550Y-93560450D01*
X149878338Y-93560450D01*
X149914450Y-93524338D01*
X149914450Y-93116267D01*
X149892459Y-93063176D01*
X149851824Y-93022541D01*
X149798733Y-93000550D01*
X149515662Y-93000550D01*
X149479550Y-93036662D01*
X149060450Y-93036662D01*
X149024338Y-93000550D01*
X148834812Y-93000550D01*
X149274689Y-92560673D01*
X149296260Y-92546260D01*
X149353360Y-92460803D01*
X149368350Y-92385443D01*
X149368350Y-92385442D01*
X149373411Y-92360001D01*
X149368350Y-92334559D01*
X149368350Y-91745441D01*
X149373411Y-91719999D01*
X149365792Y-91681697D01*
X149353360Y-91619197D01*
X149296260Y-91533740D01*
X149274688Y-91519326D01*
X148660962Y-90905601D01*
X148660962Y-90535000D01*
X148650613Y-90482970D01*
X148621140Y-90438860D01*
X148577030Y-90409387D01*
X148525000Y-90399038D01*
X146975000Y-90399038D01*
X146922970Y-90409387D01*
X146878860Y-90438860D01*
X146849387Y-90482970D01*
X146839038Y-90535000D01*
X146839038Y-90576650D01*
X146752012Y-90576650D01*
X146500675Y-90325314D01*
X146486260Y-90303740D01*
X146400803Y-90246640D01*
X146345962Y-90235731D01*
X146345962Y-90008750D01*
X146317058Y-89863441D01*
X146234747Y-89740253D01*
X146111559Y-89657942D01*
X145966250Y-89629038D01*
X145053750Y-89629038D01*
X144908441Y-89657942D01*
X144785253Y-89740253D01*
X144702942Y-89863441D01*
X144674038Y-90008750D01*
X144674038Y-90496250D01*
X144702942Y-90641559D01*
X144785253Y-90764747D01*
X144908441Y-90847058D01*
X145053750Y-90875962D01*
X145966250Y-90875962D01*
X146111559Y-90847058D01*
X146219544Y-90774905D01*
X146444326Y-90999688D01*
X146458740Y-91021260D01*
X146536714Y-91073360D01*
X146544197Y-91078360D01*
X146645000Y-91098411D01*
X146670443Y-91093350D01*
X146839038Y-91093350D01*
X146839038Y-91135000D01*
X146849387Y-91187030D01*
X146878860Y-91231140D01*
X146922970Y-91260613D01*
X146975000Y-91270962D01*
X148295601Y-91270962D01*
X148851651Y-91827013D01*
X148851650Y-92252988D01*
X148651359Y-92453279D01*
X148660962Y-92405000D01*
X148660962Y-91805000D01*
X148650613Y-91752970D01*
X148621140Y-91708860D01*
X148577030Y-91679387D01*
X148525000Y-91669038D01*
X146975000Y-91669038D01*
X146922970Y-91679387D01*
X146878860Y-91708860D01*
X146849387Y-91752970D01*
X146839038Y-91805000D01*
X146839038Y-91869150D01*
X146343058Y-91869150D01*
X146317058Y-91738441D01*
X146234747Y-91615253D01*
X146111559Y-91532942D01*
X145966250Y-91504038D01*
X145251900Y-91504038D01*
X144411983Y-90664121D01*
X144427058Y-90641559D01*
X144455962Y-90496250D01*
X144455962Y-90008750D01*
X144427058Y-89863441D01*
X144344747Y-89740253D01*
X144221559Y-89657942D01*
X144076250Y-89629038D01*
X143163750Y-89629038D01*
X143018441Y-89657942D01*
X142895253Y-89740253D01*
X142812942Y-89863441D01*
X142784038Y-90008750D01*
X142608350Y-90008750D01*
X142608350Y-89488433D01*
X142653794Y-89442989D01*
X142708350Y-89311280D01*
X142708350Y-89247011D01*
X142789038Y-89166323D01*
X142789038Y-89250000D01*
X142799387Y-89302030D01*
X142828860Y-89346140D01*
X142872970Y-89375613D01*
X142925000Y-89385962D01*
X143925000Y-89385962D01*
X143977030Y-89375613D01*
X144021140Y-89346140D01*
X144050613Y-89302030D01*
X144060962Y-89250000D01*
X144060962Y-88870662D01*
X144780550Y-88870662D01*
X144780550Y-89278733D01*
X144802541Y-89331824D01*
X144843176Y-89372459D01*
X144896267Y-89394450D01*
X145179338Y-89394450D01*
X145215450Y-89358338D01*
X145215450Y-88834550D01*
X145634550Y-88834550D01*
X145634550Y-89358338D01*
X145670662Y-89394450D01*
X145953733Y-89394450D01*
X146006824Y-89372459D01*
X146047459Y-89331824D01*
X146069450Y-89278733D01*
X146069450Y-89265000D01*
X146839038Y-89265000D01*
X146839038Y-89865000D01*
X146849387Y-89917030D01*
X146878860Y-89961140D01*
X146922970Y-89990613D01*
X146975000Y-90000962D01*
X148525000Y-90000962D01*
X148577030Y-89990613D01*
X148621140Y-89961140D01*
X148650613Y-89917030D01*
X148660962Y-89865000D01*
X148660962Y-89823350D01*
X148667989Y-89823350D01*
X149901650Y-91057012D01*
X149901650Y-91121280D01*
X149956206Y-91252989D01*
X150001650Y-91298433D01*
X150001651Y-94642987D01*
X149870600Y-94774038D01*
X148900000Y-94774038D01*
X148847970Y-94784387D01*
X148803860Y-94813860D01*
X148774387Y-94857970D01*
X148764038Y-94910000D01*
X148764038Y-95810000D01*
X148774387Y-95862030D01*
X148803860Y-95906140D01*
X148847970Y-95935613D01*
X148900000Y-95945962D01*
X150100000Y-95945962D01*
X150152030Y-95935613D01*
X150196140Y-95906140D01*
X150225613Y-95862030D01*
X150235962Y-95810000D01*
X150235962Y-95209550D01*
X151863368Y-95209550D01*
X151867227Y-95318719D01*
X151988066Y-95499621D01*
X152221276Y-95672806D01*
X152330450Y-95678270D01*
X152330450Y-95209550D01*
X152749550Y-95209550D01*
X152749550Y-95678270D01*
X152858724Y-95672806D01*
X153091934Y-95499621D01*
X153177671Y-95371267D01*
X153390550Y-95371267D01*
X153390550Y-95654338D01*
X153426662Y-95690450D01*
X153950450Y-95690450D01*
X153950450Y-95291662D01*
X154369550Y-95291662D01*
X154369550Y-95690450D01*
X154893338Y-95690450D01*
X154929450Y-95654338D01*
X154929450Y-95371267D01*
X154907459Y-95318176D01*
X154866824Y-95277541D01*
X154813733Y-95255550D01*
X154405662Y-95255550D01*
X154369550Y-95291662D01*
X153950450Y-95291662D01*
X153914338Y-95255550D01*
X153506267Y-95255550D01*
X153453176Y-95277541D01*
X153412541Y-95318176D01*
X153390550Y-95371267D01*
X153177671Y-95371267D01*
X153212773Y-95318719D01*
X153216632Y-95209550D01*
X152749550Y-95209550D01*
X152330450Y-95209550D01*
X151863368Y-95209550D01*
X150235962Y-95209550D01*
X150235962Y-95139400D01*
X150424688Y-94950674D01*
X150446260Y-94936260D01*
X150503360Y-94850803D01*
X150515364Y-94790450D01*
X151863368Y-94790450D01*
X152330450Y-94790450D01*
X152749550Y-94790450D01*
X153216632Y-94790450D01*
X153212773Y-94681281D01*
X153091934Y-94500379D01*
X152858724Y-94327194D01*
X152749550Y-94321730D01*
X152749550Y-94790450D01*
X152330450Y-94790450D01*
X152330450Y-94321730D01*
X152221276Y-94327194D01*
X151988066Y-94500379D01*
X151867227Y-94681281D01*
X151863368Y-94790450D01*
X150515364Y-94790450D01*
X150518350Y-94775443D01*
X150523411Y-94750001D01*
X150518350Y-94724559D01*
X150518350Y-93145000D01*
X150634038Y-93145000D01*
X150634038Y-94395000D01*
X150644387Y-94447030D01*
X150673860Y-94491140D01*
X150717970Y-94520613D01*
X150770000Y-94530962D01*
X151770000Y-94530962D01*
X151822030Y-94520613D01*
X151866140Y-94491140D01*
X151895613Y-94447030D01*
X151905962Y-94395000D01*
X151905962Y-94028350D01*
X151994558Y-94028350D01*
X152020000Y-94033411D01*
X152045442Y-94028350D01*
X152045443Y-94028350D01*
X152120803Y-94013360D01*
X152206260Y-93956260D01*
X152220675Y-93934686D01*
X152437012Y-93718350D01*
X152501280Y-93718350D01*
X152632989Y-93663794D01*
X152733794Y-93562989D01*
X152788350Y-93431280D01*
X152788350Y-93288720D01*
X152733794Y-93157011D01*
X152632989Y-93056206D01*
X152501280Y-93001650D01*
X152358720Y-93001650D01*
X152227011Y-93056206D01*
X152126206Y-93157011D01*
X152071650Y-93288720D01*
X152071650Y-93352988D01*
X151912989Y-93511650D01*
X151905962Y-93511650D01*
X151905962Y-93145000D01*
X151895613Y-93092970D01*
X151866140Y-93048860D01*
X151822030Y-93019387D01*
X151770000Y-93009038D01*
X150770000Y-93009038D01*
X150717970Y-93019387D01*
X150673860Y-93048860D01*
X150644387Y-93092970D01*
X150634038Y-93145000D01*
X150518350Y-93145000D01*
X150518350Y-91298433D01*
X150563794Y-91252989D01*
X150618350Y-91121280D01*
X150618350Y-90978720D01*
X150563794Y-90847011D01*
X150475503Y-90758720D01*
X151331650Y-90758720D01*
X151331650Y-90901280D01*
X151386206Y-91032989D01*
X151487011Y-91133794D01*
X151618720Y-91188350D01*
X151761280Y-91188350D01*
X151892989Y-91133794D01*
X151938433Y-91088350D01*
X152074420Y-91088350D01*
X152099557Y-91093350D01*
X152124999Y-91098411D01*
X152150441Y-91093350D01*
X152239038Y-91093350D01*
X152239038Y-91135000D01*
X152249387Y-91187030D01*
X152278860Y-91231140D01*
X152322970Y-91260613D01*
X152375000Y-91270962D01*
X153925000Y-91270962D01*
X153977030Y-91260613D01*
X154021140Y-91231140D01*
X154050613Y-91187030D01*
X154060962Y-91135000D01*
X154060962Y-91093350D01*
X154067989Y-91093350D01*
X154191650Y-91217012D01*
X154191650Y-91281280D01*
X154246206Y-91412989D01*
X154347011Y-91513794D01*
X154478720Y-91568350D01*
X154621280Y-91568350D01*
X154752989Y-91513794D01*
X154853794Y-91412989D01*
X154908350Y-91281280D01*
X154908350Y-91138720D01*
X154853794Y-91007011D01*
X154752989Y-90906206D01*
X154621280Y-90851650D01*
X154557012Y-90851650D01*
X154375675Y-90670314D01*
X154361260Y-90648740D01*
X154275803Y-90591640D01*
X154200443Y-90576650D01*
X154200442Y-90576650D01*
X154175000Y-90571589D01*
X154149558Y-90576650D01*
X154060962Y-90576650D01*
X154060962Y-90535000D01*
X154050613Y-90482970D01*
X154021140Y-90438860D01*
X153977030Y-90409387D01*
X153925000Y-90399038D01*
X152375000Y-90399038D01*
X152322970Y-90409387D01*
X152278860Y-90438860D01*
X152249387Y-90482970D01*
X152239038Y-90535000D01*
X152239038Y-90576650D01*
X152170580Y-90576650D01*
X152145443Y-90571650D01*
X152145442Y-90571650D01*
X152120000Y-90566589D01*
X152094558Y-90571650D01*
X151938433Y-90571650D01*
X151892989Y-90526206D01*
X151761280Y-90471650D01*
X151618720Y-90471650D01*
X151487011Y-90526206D01*
X151386206Y-90627011D01*
X151331650Y-90758720D01*
X150475503Y-90758720D01*
X150462989Y-90746206D01*
X150331280Y-90691650D01*
X150267012Y-90691650D01*
X149084082Y-89508720D01*
X151131650Y-89508720D01*
X151131650Y-89651280D01*
X151186206Y-89782989D01*
X151287011Y-89883794D01*
X151418720Y-89938350D01*
X151561280Y-89938350D01*
X151692989Y-89883794D01*
X151753433Y-89823350D01*
X152239038Y-89823350D01*
X152239038Y-89865000D01*
X152249387Y-89917030D01*
X152278860Y-89961140D01*
X152322970Y-89990613D01*
X152375000Y-90000962D01*
X153925000Y-90000962D01*
X153977030Y-89990613D01*
X154021140Y-89961140D01*
X154050613Y-89917030D01*
X154060962Y-89865000D01*
X154060962Y-89265000D01*
X154050613Y-89212970D01*
X154021140Y-89168860D01*
X153977030Y-89139387D01*
X153925000Y-89129038D01*
X152375000Y-89129038D01*
X152322970Y-89139387D01*
X152278860Y-89168860D01*
X152249387Y-89212970D01*
X152239038Y-89265000D01*
X152239038Y-89306650D01*
X151723433Y-89306650D01*
X151692989Y-89276206D01*
X151561280Y-89221650D01*
X151418720Y-89221650D01*
X151287011Y-89276206D01*
X151186206Y-89377011D01*
X151131650Y-89508720D01*
X149084082Y-89508720D01*
X148975675Y-89400314D01*
X148961260Y-89378740D01*
X148875803Y-89321640D01*
X148800443Y-89306650D01*
X148800442Y-89306650D01*
X148775000Y-89301589D01*
X148749558Y-89306650D01*
X148660962Y-89306650D01*
X148660962Y-89265000D01*
X148650613Y-89212970D01*
X148621140Y-89168860D01*
X148577030Y-89139387D01*
X148525000Y-89129038D01*
X146975000Y-89129038D01*
X146922970Y-89139387D01*
X146878860Y-89168860D01*
X146849387Y-89212970D01*
X146839038Y-89265000D01*
X146069450Y-89265000D01*
X146069450Y-88870662D01*
X146033338Y-88834550D01*
X145634550Y-88834550D01*
X145215450Y-88834550D01*
X144816662Y-88834550D01*
X144780550Y-88870662D01*
X144060962Y-88870662D01*
X144060962Y-88481112D01*
X146830550Y-88481112D01*
X146830550Y-88623733D01*
X146852541Y-88676824D01*
X146893176Y-88717459D01*
X146946267Y-88739450D01*
X147504338Y-88739450D01*
X147540450Y-88703338D01*
X147540450Y-88445000D01*
X147959550Y-88445000D01*
X147959550Y-88703338D01*
X147995662Y-88739450D01*
X148553733Y-88739450D01*
X148606824Y-88717459D01*
X148647459Y-88676824D01*
X148669450Y-88623733D01*
X148669450Y-88481112D01*
X148633338Y-88445000D01*
X147959550Y-88445000D01*
X147540450Y-88445000D01*
X146866662Y-88445000D01*
X146830550Y-88481112D01*
X144060962Y-88481112D01*
X144060962Y-88000000D01*
X144055247Y-87971267D01*
X144780550Y-87971267D01*
X144780550Y-88379338D01*
X144816662Y-88415450D01*
X145215450Y-88415450D01*
X145215450Y-87891662D01*
X145634550Y-87891662D01*
X145634550Y-88415450D01*
X146033338Y-88415450D01*
X146069450Y-88379338D01*
X146069450Y-87971267D01*
X146067379Y-87966267D01*
X146830550Y-87966267D01*
X146830550Y-88108888D01*
X146866662Y-88145000D01*
X147540450Y-88145000D01*
X147540450Y-87886662D01*
X147959550Y-87886662D01*
X147959550Y-88145000D01*
X148633338Y-88145000D01*
X148669450Y-88108888D01*
X148669450Y-87995000D01*
X152239038Y-87995000D01*
X152239038Y-88595000D01*
X152249387Y-88647030D01*
X152278860Y-88691140D01*
X152322970Y-88720613D01*
X152375000Y-88730962D01*
X153925000Y-88730962D01*
X153977030Y-88720613D01*
X154007436Y-88700297D01*
X155184025Y-89876887D01*
X155162942Y-89908441D01*
X155134038Y-90053750D01*
X155134038Y-90541250D01*
X155162942Y-90686559D01*
X155245253Y-90809747D01*
X155368441Y-90892058D01*
X155513750Y-90920962D01*
X155711650Y-90920962D01*
X155711651Y-91169038D01*
X155523750Y-91169038D01*
X155378441Y-91197942D01*
X155255253Y-91280253D01*
X155172942Y-91403441D01*
X155144038Y-91548750D01*
X155144038Y-92036250D01*
X155155058Y-92091650D01*
X154798433Y-92091650D01*
X154752989Y-92046206D01*
X154621280Y-91991650D01*
X154478720Y-91991650D01*
X154347011Y-92046206D01*
X154246206Y-92147011D01*
X154191650Y-92278720D01*
X154191650Y-92306288D01*
X154060962Y-92175601D01*
X154060962Y-91805000D01*
X154050613Y-91752970D01*
X154021140Y-91708860D01*
X153977030Y-91679387D01*
X153925000Y-91669038D01*
X152375000Y-91669038D01*
X152322970Y-91679387D01*
X152278860Y-91708860D01*
X152249387Y-91752970D01*
X152239038Y-91805000D01*
X152239038Y-92405000D01*
X152249387Y-92457030D01*
X152278860Y-92501140D01*
X152322970Y-92530613D01*
X152375000Y-92540962D01*
X153695601Y-92540962D01*
X153916651Y-92762013D01*
X153916650Y-93014183D01*
X153916641Y-93014197D01*
X153896589Y-93115000D01*
X153901651Y-93140447D01*
X153901651Y-93264038D01*
X153535000Y-93264038D01*
X153482970Y-93274387D01*
X153438860Y-93303860D01*
X153409387Y-93347970D01*
X153399038Y-93400000D01*
X153399038Y-94400000D01*
X153409387Y-94452030D01*
X153438860Y-94496140D01*
X153482970Y-94525613D01*
X153535000Y-94535962D01*
X154785000Y-94535962D01*
X154837030Y-94525613D01*
X154881140Y-94496140D01*
X154910613Y-94452030D01*
X154920962Y-94400000D01*
X154920962Y-93925850D01*
X155146942Y-93925850D01*
X155172942Y-94056559D01*
X155255253Y-94179747D01*
X155378441Y-94262058D01*
X155523750Y-94290962D01*
X155721651Y-94290962D01*
X155721650Y-94529038D01*
X155523750Y-94529038D01*
X155378441Y-94557942D01*
X155255253Y-94640253D01*
X155172942Y-94763441D01*
X155144038Y-94908750D01*
X155144038Y-95396250D01*
X155172942Y-95541559D01*
X155255253Y-95664747D01*
X155378441Y-95747058D01*
X155523750Y-95775962D01*
X156436250Y-95775962D01*
X156581559Y-95747058D01*
X156694989Y-95671267D01*
X158880550Y-95671267D01*
X158880550Y-95813888D01*
X158916662Y-95850000D01*
X159590450Y-95850000D01*
X159590450Y-95591662D01*
X160009550Y-95591662D01*
X160009550Y-95850000D01*
X160683338Y-95850000D01*
X160719450Y-95813888D01*
X160719450Y-95671267D01*
X160697459Y-95618176D01*
X160656824Y-95577541D01*
X160603733Y-95555550D01*
X160045662Y-95555550D01*
X160009550Y-95591662D01*
X159590450Y-95591662D01*
X159554338Y-95555550D01*
X158996267Y-95555550D01*
X158943176Y-95577541D01*
X158902541Y-95618176D01*
X158880550Y-95671267D01*
X156694989Y-95671267D01*
X156704747Y-95664747D01*
X156787058Y-95541559D01*
X156815962Y-95396250D01*
X156815962Y-94908750D01*
X156787058Y-94763441D01*
X156744669Y-94700000D01*
X158889038Y-94700000D01*
X158889038Y-95300000D01*
X158899387Y-95352030D01*
X158928860Y-95396140D01*
X158972970Y-95425613D01*
X159025000Y-95435962D01*
X160575000Y-95435962D01*
X160627030Y-95425613D01*
X160671140Y-95396140D01*
X160700613Y-95352030D01*
X160710962Y-95300000D01*
X160710962Y-95258350D01*
X160921567Y-95258350D01*
X160967011Y-95303794D01*
X161098720Y-95358350D01*
X161241280Y-95358350D01*
X161372989Y-95303794D01*
X161473794Y-95202989D01*
X161528350Y-95071280D01*
X161528350Y-94928720D01*
X161473794Y-94797011D01*
X161372989Y-94696206D01*
X161241280Y-94641650D01*
X161098720Y-94641650D01*
X160967011Y-94696206D01*
X160921567Y-94741650D01*
X160710962Y-94741650D01*
X160710962Y-94700000D01*
X160700613Y-94647970D01*
X160671140Y-94603860D01*
X160627030Y-94574387D01*
X160575000Y-94564038D01*
X159025000Y-94564038D01*
X158972970Y-94574387D01*
X158928860Y-94603860D01*
X158899387Y-94647970D01*
X158889038Y-94700000D01*
X156744669Y-94700000D01*
X156704747Y-94640253D01*
X156581559Y-94557942D01*
X156436250Y-94529038D01*
X156238350Y-94529038D01*
X156238350Y-94290962D01*
X156436250Y-94290962D01*
X156581559Y-94262058D01*
X156704747Y-94179747D01*
X156787058Y-94056559D01*
X156815962Y-93911250D01*
X156815962Y-93700000D01*
X158889038Y-93700000D01*
X158889038Y-94300000D01*
X158899387Y-94352030D01*
X158928860Y-94396140D01*
X158972970Y-94425613D01*
X159025000Y-94435962D01*
X160575000Y-94435962D01*
X160627030Y-94425613D01*
X160671140Y-94396140D01*
X160700613Y-94352030D01*
X160710962Y-94300000D01*
X160710962Y-93700000D01*
X160700613Y-93647970D01*
X160671140Y-93603860D01*
X160627030Y-93574387D01*
X160575000Y-93564038D01*
X160058350Y-93564038D01*
X160058350Y-93475441D01*
X160063411Y-93449999D01*
X160055285Y-93409150D01*
X160043360Y-93349197D01*
X159986260Y-93263740D01*
X159964688Y-93249326D01*
X159768350Y-93052989D01*
X159768350Y-92988720D01*
X159713794Y-92857011D01*
X159612989Y-92756206D01*
X159481280Y-92701650D01*
X159338720Y-92701650D01*
X159207011Y-92756206D01*
X159106206Y-92857011D01*
X159051650Y-92988720D01*
X159051650Y-93131280D01*
X159106206Y-93262989D01*
X159207011Y-93363794D01*
X159338720Y-93418350D01*
X159402989Y-93418350D01*
X159541651Y-93557013D01*
X159541651Y-93564038D01*
X159025000Y-93564038D01*
X158972970Y-93574387D01*
X158928860Y-93603860D01*
X158899387Y-93647970D01*
X158889038Y-93700000D01*
X156815962Y-93700000D01*
X156815962Y-93423750D01*
X156787058Y-93278441D01*
X156704747Y-93155253D01*
X156581559Y-93072942D01*
X156436250Y-93044038D01*
X155523750Y-93044038D01*
X155378441Y-93072942D01*
X155255253Y-93155253D01*
X155172942Y-93278441D01*
X155146942Y-93409150D01*
X154920962Y-93409150D01*
X154920962Y-93400000D01*
X154910613Y-93347970D01*
X154881140Y-93303860D01*
X154837030Y-93274387D01*
X154785000Y-93264038D01*
X154418350Y-93264038D01*
X154418350Y-93200818D01*
X154418360Y-93200803D01*
X154433350Y-93125443D01*
X154433350Y-93125442D01*
X154438411Y-93100001D01*
X154433350Y-93074559D01*
X154433350Y-92689557D01*
X154478720Y-92708350D01*
X154621280Y-92708350D01*
X154752989Y-92653794D01*
X154798433Y-92608350D01*
X155397058Y-92608350D01*
X155422500Y-92613411D01*
X155447942Y-92608350D01*
X155447943Y-92608350D01*
X155523303Y-92593360D01*
X155608760Y-92536260D01*
X155623175Y-92514686D01*
X155721899Y-92415962D01*
X156436250Y-92415962D01*
X156581559Y-92387058D01*
X156704747Y-92304747D01*
X156787058Y-92181559D01*
X156815962Y-92036250D01*
X156815962Y-91548750D01*
X156787058Y-91403441D01*
X156704747Y-91280253D01*
X156581559Y-91197942D01*
X156436250Y-91169038D01*
X156228350Y-91169038D01*
X156228350Y-90920962D01*
X156426250Y-90920962D01*
X156571559Y-90892058D01*
X156694747Y-90809747D01*
X156777058Y-90686559D01*
X156805962Y-90541250D01*
X156805962Y-90053750D01*
X156777058Y-89908441D01*
X156694747Y-89785253D01*
X156571559Y-89702942D01*
X156426250Y-89674038D01*
X155711900Y-89674038D01*
X154168175Y-88130314D01*
X154153760Y-88108740D01*
X154068303Y-88051640D01*
X154060962Y-88050180D01*
X154060962Y-87995000D01*
X154055735Y-87968720D01*
X154291650Y-87968720D01*
X154291650Y-88111280D01*
X154346206Y-88242989D01*
X154447011Y-88343794D01*
X154578720Y-88398350D01*
X154721280Y-88398350D01*
X154763147Y-88381008D01*
X154969326Y-88587188D01*
X154983740Y-88608760D01*
X155008047Y-88625001D01*
X155069197Y-88665860D01*
X155136628Y-88679273D01*
X155162942Y-88811559D01*
X155245253Y-88934747D01*
X155368441Y-89017058D01*
X155513750Y-89045962D01*
X156426250Y-89045962D01*
X156571559Y-89017058D01*
X156694747Y-88934747D01*
X156777058Y-88811559D01*
X156805962Y-88666250D01*
X156805962Y-88178750D01*
X156777058Y-88033441D01*
X156694747Y-87910253D01*
X156571559Y-87827942D01*
X156426250Y-87799038D01*
X155513750Y-87799038D01*
X155368441Y-87827942D01*
X155245253Y-87910253D01*
X155162942Y-88033441D01*
X155160181Y-88047320D01*
X154988175Y-87875314D01*
X154973760Y-87853740D01*
X154955735Y-87841696D01*
X154953794Y-87837011D01*
X154852989Y-87736206D01*
X154721280Y-87681650D01*
X154578720Y-87681650D01*
X154447011Y-87736206D01*
X154346206Y-87837011D01*
X154291650Y-87968720D01*
X154055735Y-87968720D01*
X154050613Y-87942970D01*
X154021140Y-87898860D01*
X153977030Y-87869387D01*
X153925000Y-87859038D01*
X152375000Y-87859038D01*
X152322970Y-87869387D01*
X152278860Y-87898860D01*
X152249387Y-87942970D01*
X152239038Y-87995000D01*
X148669450Y-87995000D01*
X148669450Y-87966267D01*
X148647459Y-87913176D01*
X148606824Y-87872541D01*
X148553733Y-87850550D01*
X147995662Y-87850550D01*
X147959550Y-87886662D01*
X147540450Y-87886662D01*
X147504338Y-87850550D01*
X146946267Y-87850550D01*
X146893176Y-87872541D01*
X146852541Y-87913176D01*
X146830550Y-87966267D01*
X146067379Y-87966267D01*
X146047459Y-87918176D01*
X146006824Y-87877541D01*
X145953733Y-87855550D01*
X145670662Y-87855550D01*
X145634550Y-87891662D01*
X145215450Y-87891662D01*
X145179338Y-87855550D01*
X144896267Y-87855550D01*
X144843176Y-87877541D01*
X144802541Y-87918176D01*
X144780550Y-87971267D01*
X144055247Y-87971267D01*
X144050613Y-87947970D01*
X144021140Y-87903860D01*
X143977030Y-87874387D01*
X143925000Y-87864038D01*
X142925000Y-87864038D01*
X142872970Y-87874387D01*
X142828860Y-87903860D01*
X142799387Y-87947970D01*
X142789038Y-88000000D01*
X142789038Y-88431859D01*
X142778740Y-88438740D01*
X142764326Y-88460312D01*
X142342989Y-88881650D01*
X142278720Y-88881650D01*
X142147011Y-88936206D01*
X142046206Y-89037011D01*
X141991650Y-89168720D01*
X136956503Y-89168720D01*
X142370552Y-83754671D01*
X148766650Y-83754671D01*
X148766650Y-84245329D01*
X148954416Y-84698637D01*
X149301363Y-85045584D01*
X149754671Y-85233350D01*
X150245329Y-85233350D01*
X150698637Y-85045584D01*
X151045584Y-84698637D01*
X151233350Y-84245329D01*
X151233350Y-83754671D01*
X151045584Y-83301363D01*
X150698637Y-82954416D01*
X150245329Y-82766650D01*
X149754671Y-82766650D01*
X149301363Y-82954416D01*
X148954416Y-83301363D01*
X148766650Y-83754671D01*
X142370552Y-83754671D01*
X144471706Y-81653518D01*
X155528295Y-81653518D01*
X163346483Y-89471707D01*
X163346483Y-89471707D01*
G37*
X163346483Y-89471707D02*
X163346483Y-92041789D01*
X163321140Y-92003860D01*
X163277030Y-91974387D01*
X163225000Y-91964038D01*
X161425000Y-91964038D01*
X161372970Y-91974387D01*
X161328860Y-92003860D01*
X161299387Y-92047970D01*
X161289038Y-92100000D01*
X161289038Y-93300000D01*
X161299387Y-93352030D01*
X161328860Y-93396140D01*
X161372970Y-93425613D01*
X161425000Y-93435962D01*
X163225000Y-93435962D01*
X163277030Y-93425613D01*
X163321140Y-93396140D01*
X163346483Y-93358212D01*
X163346482Y-96641788D01*
X163321140Y-96603860D01*
X163277030Y-96574387D01*
X163225000Y-96564038D01*
X161425000Y-96564038D01*
X161372970Y-96574387D01*
X161328860Y-96603860D01*
X161299387Y-96647970D01*
X161289038Y-96700000D01*
X161289038Y-97900000D01*
X161299387Y-97952030D01*
X161328860Y-97996140D01*
X161372970Y-98025613D01*
X161425000Y-98035962D01*
X163225000Y-98035962D01*
X163277030Y-98025613D01*
X163321140Y-97996140D01*
X163346482Y-97958212D01*
X163346482Y-100528294D01*
X155528295Y-108346482D01*
X144471706Y-108346482D01*
X141879895Y-105754671D01*
X148766650Y-105754671D01*
X148766650Y-106245329D01*
X148954416Y-106698637D01*
X149301363Y-107045584D01*
X149754671Y-107233350D01*
X150245329Y-107233350D01*
X150698637Y-107045584D01*
X151045584Y-106698637D01*
X151233350Y-106245329D01*
X151233350Y-105754671D01*
X151045584Y-105301363D01*
X150698637Y-104954416D01*
X150245329Y-104766650D01*
X149754671Y-104766650D01*
X149301363Y-104954416D01*
X148954416Y-105301363D01*
X148766650Y-105754671D01*
X141879895Y-105754671D01*
X136900886Y-100775662D01*
X155210550Y-100775662D01*
X155210550Y-101058733D01*
X155232541Y-101111824D01*
X155273176Y-101152459D01*
X155326267Y-101174450D01*
X155734338Y-101174450D01*
X155770450Y-101138338D01*
X155770450Y-100739550D01*
X156189550Y-100739550D01*
X156189550Y-101138338D01*
X156225662Y-101174450D01*
X156633733Y-101174450D01*
X156686824Y-101152459D01*
X156727459Y-101111824D01*
X156749450Y-101058733D01*
X156749450Y-100775662D01*
X156713338Y-100739550D01*
X156189550Y-100739550D01*
X155770450Y-100739550D01*
X155246662Y-100739550D01*
X155210550Y-100775662D01*
X136900886Y-100775662D01*
X136653518Y-100528295D01*
X136653518Y-100001267D01*
X155210550Y-100001267D01*
X155210550Y-100284338D01*
X155246662Y-100320450D01*
X155770450Y-100320450D01*
X155770450Y-99921662D01*
X156189550Y-99921662D01*
X156189550Y-100320450D01*
X156713338Y-100320450D01*
X156749450Y-100284338D01*
X156749450Y-100001267D01*
X156727459Y-99948176D01*
X156686824Y-99907541D01*
X156633733Y-99885550D01*
X156225662Y-99885550D01*
X156189550Y-99921662D01*
X155770450Y-99921662D01*
X155734338Y-99885550D01*
X155326267Y-99885550D01*
X155273176Y-99907541D01*
X155232541Y-99948176D01*
X155210550Y-100001267D01*
X136653518Y-100001267D01*
X136653518Y-98905662D01*
X148755550Y-98905662D01*
X148755550Y-99138733D01*
X148777541Y-99191824D01*
X148818176Y-99232459D01*
X148871267Y-99254450D01*
X149254338Y-99254450D01*
X149290450Y-99218338D01*
X149290450Y-98869550D01*
X149709550Y-98869550D01*
X149709550Y-99218338D01*
X149745662Y-99254450D01*
X150128733Y-99254450D01*
X150181824Y-99232459D01*
X150222459Y-99191824D01*
X150244450Y-99138733D01*
X150244450Y-98905662D01*
X150208338Y-98869550D01*
X149709550Y-98869550D01*
X149290450Y-98869550D01*
X148791662Y-98869550D01*
X148755550Y-98905662D01*
X136653518Y-98905662D01*
X136653518Y-98181267D01*
X148755550Y-98181267D01*
X148755550Y-98414338D01*
X148791662Y-98450450D01*
X149290450Y-98450450D01*
X149290450Y-98101662D01*
X149709550Y-98101662D01*
X149709550Y-98450450D01*
X150208338Y-98450450D01*
X150244450Y-98414338D01*
X150244450Y-98181267D01*
X150222459Y-98128176D01*
X150181824Y-98087541D01*
X150128733Y-98065550D01*
X149745662Y-98065550D01*
X149709550Y-98101662D01*
X149290450Y-98101662D01*
X149254338Y-98065550D01*
X148871267Y-98065550D01*
X148818176Y-98087541D01*
X148777541Y-98128176D01*
X148755550Y-98181267D01*
X136653518Y-98181267D01*
X136653518Y-89471705D01*
X136956503Y-89168720D01*
X141991650Y-89168720D01*
X141991650Y-89311280D01*
X142046206Y-89442989D01*
X142091651Y-89488434D01*
X142091650Y-90832058D01*
X142086589Y-90857500D01*
X142091650Y-90882942D01*
X142106640Y-90958302D01*
X142163740Y-91043760D01*
X142185314Y-91058175D01*
X142834026Y-91706887D01*
X142812942Y-91738441D01*
X142784038Y-91883750D01*
X142784038Y-92371250D01*
X142812942Y-92516559D01*
X142834025Y-92548113D01*
X142415312Y-92966827D01*
X142393741Y-92981240D01*
X142366145Y-93022541D01*
X142336641Y-93066697D01*
X142316589Y-93167500D01*
X142321651Y-93192947D01*
X142321650Y-95964558D01*
X142316589Y-95990000D01*
X142321650Y-96015442D01*
X142336640Y-96090802D01*
X142393740Y-96176260D01*
X142415314Y-96190675D01*
X143549328Y-97324691D01*
X143563740Y-97346260D01*
X143585308Y-97360671D01*
X143585309Y-97360672D01*
X143649197Y-97403360D01*
X143750000Y-97423411D01*
X143775443Y-97418350D01*
X145029038Y-97418350D01*
X145029038Y-97616250D01*
X145057942Y-97761559D01*
X145140253Y-97884747D01*
X145263441Y-97967058D01*
X145408750Y-97995962D01*
X145896250Y-97995962D01*
X146041559Y-97967058D01*
X146164747Y-97884747D01*
X146247058Y-97761559D01*
X146275962Y-97616250D01*
X146275962Y-96703750D01*
X146904038Y-96703750D01*
X146904038Y-97616250D01*
X146932942Y-97761559D01*
X147015253Y-97884747D01*
X147138441Y-97967058D01*
X147283750Y-97995962D01*
X147771250Y-97995962D01*
X147916559Y-97967058D01*
X148039747Y-97884747D01*
X148122058Y-97761559D01*
X148150962Y-97616250D01*
X148150962Y-97418350D01*
X148961567Y-97418350D01*
X149007011Y-97463794D01*
X149138720Y-97518350D01*
X149281280Y-97518350D01*
X149412989Y-97463794D01*
X149513794Y-97362989D01*
X149568350Y-97231280D01*
X149568350Y-97088720D01*
X149513794Y-96957011D01*
X149412989Y-96856206D01*
X149281280Y-96801650D01*
X149138720Y-96801650D01*
X149007011Y-96856206D01*
X148961567Y-96901650D01*
X148150962Y-96901650D01*
X148150962Y-96783750D01*
X155144038Y-96783750D01*
X155144038Y-97271250D01*
X155172942Y-97416559D01*
X155255253Y-97539747D01*
X155378441Y-97622058D01*
X155523750Y-97650962D01*
X155721651Y-97650962D01*
X155721650Y-97894038D01*
X155355000Y-97894038D01*
X155302970Y-97904387D01*
X155258860Y-97933860D01*
X155229387Y-97977970D01*
X155219038Y-98030000D01*
X155219038Y-99030000D01*
X155229387Y-99082030D01*
X155258860Y-99126140D01*
X155302970Y-99155613D01*
X155355000Y-99165962D01*
X156605000Y-99165962D01*
X156657030Y-99155613D01*
X156701140Y-99126140D01*
X156730613Y-99082030D01*
X156740962Y-99030000D01*
X156740962Y-98788350D01*
X156829558Y-98788350D01*
X156855000Y-98793411D01*
X156880442Y-98788350D01*
X156880443Y-98788350D01*
X156955803Y-98773360D01*
X157041260Y-98716260D01*
X157055675Y-98694686D01*
X157437012Y-98313350D01*
X157501280Y-98313350D01*
X157632989Y-98258794D01*
X157733794Y-98157989D01*
X157788350Y-98026280D01*
X157788350Y-97883720D01*
X157733794Y-97752011D01*
X157632989Y-97651206D01*
X157501280Y-97596650D01*
X157358720Y-97596650D01*
X157227011Y-97651206D01*
X157126206Y-97752011D01*
X157071650Y-97883720D01*
X157071650Y-97947988D01*
X156747989Y-98271650D01*
X156740962Y-98271650D01*
X156740962Y-98030000D01*
X156730613Y-97977970D01*
X156701140Y-97933860D01*
X156657030Y-97904387D01*
X156605000Y-97894038D01*
X156238350Y-97894038D01*
X156238350Y-97650962D01*
X156436250Y-97650962D01*
X156581559Y-97622058D01*
X156704747Y-97539747D01*
X156787058Y-97416559D01*
X156815962Y-97271250D01*
X156815962Y-96783750D01*
X156787058Y-96638441D01*
X156704747Y-96515253D01*
X156581559Y-96432942D01*
X156436250Y-96404038D01*
X155523750Y-96404038D01*
X155378441Y-96432942D01*
X155255253Y-96515253D01*
X155172942Y-96638441D01*
X155144038Y-96783750D01*
X148150962Y-96783750D01*
X148150962Y-96703750D01*
X148122058Y-96558441D01*
X148039747Y-96435253D01*
X147916559Y-96352942D01*
X147771250Y-96324038D01*
X147283750Y-96324038D01*
X147138441Y-96352942D01*
X147015253Y-96435253D01*
X146932942Y-96558441D01*
X146904038Y-96703750D01*
X146275962Y-96703750D01*
X146247058Y-96558441D01*
X146164747Y-96435253D01*
X146041559Y-96352942D01*
X145896250Y-96324038D01*
X145408750Y-96324038D01*
X145263441Y-96352942D01*
X145140253Y-96435253D01*
X145057942Y-96558441D01*
X145029038Y-96703750D01*
X145029038Y-96901650D01*
X143857013Y-96901650D01*
X143101024Y-96145662D01*
X153390550Y-96145662D01*
X153390550Y-96428733D01*
X153412541Y-96481824D01*
X153453176Y-96522459D01*
X153506267Y-96544450D01*
X153914338Y-96544450D01*
X153950450Y-96508338D01*
X153950450Y-96109550D01*
X154369550Y-96109550D01*
X154369550Y-96508338D01*
X154405662Y-96544450D01*
X154813733Y-96544450D01*
X154866824Y-96522459D01*
X154907459Y-96481824D01*
X154929450Y-96428733D01*
X154929450Y-96186112D01*
X158880550Y-96186112D01*
X158880550Y-96328733D01*
X158902541Y-96381824D01*
X158943176Y-96422459D01*
X158996267Y-96444450D01*
X159554338Y-96444450D01*
X159590450Y-96408338D01*
X159590450Y-96150000D01*
X160009550Y-96150000D01*
X160009550Y-96408338D01*
X160045662Y-96444450D01*
X160603733Y-96444450D01*
X160656824Y-96422459D01*
X160697459Y-96381824D01*
X160719450Y-96328733D01*
X160719450Y-96186112D01*
X160683338Y-96150000D01*
X160009550Y-96150000D01*
X159590450Y-96150000D01*
X158916662Y-96150000D01*
X158880550Y-96186112D01*
X154929450Y-96186112D01*
X154929450Y-96145662D01*
X154893338Y-96109550D01*
X154369550Y-96109550D01*
X153950450Y-96109550D01*
X153426662Y-96109550D01*
X153390550Y-96145662D01*
X143101024Y-96145662D01*
X142838350Y-95882989D01*
X142838350Y-93274511D01*
X143264434Y-92848428D01*
X143264436Y-92848425D01*
X143361899Y-92750962D01*
X144076250Y-92750962D01*
X144221559Y-92722058D01*
X144344747Y-92639747D01*
X144427058Y-92516559D01*
X144455962Y-92371250D01*
X144455962Y-91883750D01*
X144427058Y-91738441D01*
X144344747Y-91615253D01*
X144221559Y-91532942D01*
X144076250Y-91504038D01*
X143361900Y-91504038D01*
X142608350Y-90750489D01*
X142608350Y-90008750D01*
X142784038Y-90008750D01*
X142784038Y-90496250D01*
X142812942Y-90641559D01*
X142895253Y-90764747D01*
X143018441Y-90847058D01*
X143163750Y-90875962D01*
X143893101Y-90875962D01*
X144724025Y-91706887D01*
X144702942Y-91738441D01*
X144674038Y-91883750D01*
X144674038Y-92371250D01*
X144702942Y-92516559D01*
X144724025Y-92548113D01*
X143465312Y-93806827D01*
X143443741Y-93821240D01*
X143391116Y-93900000D01*
X143386641Y-93906697D01*
X143366589Y-94007500D01*
X143371651Y-94032947D01*
X143371651Y-94239038D01*
X143130000Y-94239038D01*
X143077970Y-94249387D01*
X143033860Y-94278860D01*
X143004387Y-94322970D01*
X142994038Y-94375000D01*
X142994038Y-95625000D01*
X143004387Y-95677030D01*
X143033860Y-95721140D01*
X143077970Y-95750613D01*
X143130000Y-95760962D01*
X144130000Y-95760962D01*
X144182030Y-95750613D01*
X144226140Y-95721140D01*
X144255613Y-95677030D01*
X144265962Y-95625000D01*
X144265962Y-94375000D01*
X144255613Y-94322970D01*
X144226140Y-94278860D01*
X144182030Y-94249387D01*
X144130000Y-94239038D01*
X143888350Y-94239038D01*
X143888350Y-94114511D01*
X145251900Y-92750962D01*
X145966250Y-92750962D01*
X146111559Y-92722058D01*
X146234747Y-92639747D01*
X146317058Y-92516559D01*
X146343058Y-92385850D01*
X146839038Y-92385850D01*
X146839038Y-92405000D01*
X146849387Y-92457030D01*
X146878860Y-92501140D01*
X146922970Y-92530613D01*
X146975000Y-92540962D01*
X148525000Y-92540962D01*
X148573279Y-92531359D01*
X147295312Y-93809327D01*
X147273741Y-93823740D01*
X147242295Y-93870803D01*
X147216641Y-93909197D01*
X147196589Y-94010000D01*
X147201651Y-94035447D01*
X147201651Y-94266650D01*
X147187773Y-94266650D01*
X146973861Y-94309200D01*
X146731284Y-94471284D01*
X146569200Y-94713861D01*
X146563672Y-94741650D01*
X146265962Y-94741650D01*
X146265962Y-94375000D01*
X146255613Y-94322970D01*
X146226140Y-94278860D01*
X146182030Y-94249387D01*
X146130000Y-94239038D01*
X145130000Y-94239038D01*
X145077970Y-94249387D01*
X145033860Y-94278860D01*
X145004387Y-94322970D01*
X144994038Y-94375000D01*
X144994038Y-95625000D01*
X145004387Y-95677030D01*
X145033860Y-95721140D01*
X145077970Y-95750613D01*
X145130000Y-95760962D01*
X146130000Y-95760962D01*
X146182030Y-95750613D01*
X146226140Y-95721140D01*
X146255613Y-95677030D01*
X146265962Y-95625000D01*
X146265962Y-95258350D01*
X146563672Y-95258350D01*
X146569200Y-95286139D01*
X146731284Y-95528716D01*
X146973861Y-95690800D01*
X147187773Y-95733350D01*
X147732227Y-95733350D01*
X147946139Y-95690800D01*
X148188716Y-95528716D01*
X148350800Y-95286139D01*
X148407717Y-95000000D01*
X148350800Y-94713861D01*
X148188716Y-94471284D01*
X147946139Y-94309200D01*
X147732227Y-94266650D01*
X147718350Y-94266650D01*
X147718350Y-94117011D01*
X147819699Y-94015662D01*
X148625550Y-94015662D01*
X148625550Y-94423733D01*
X148647541Y-94476824D01*
X148688176Y-94517459D01*
X148741267Y-94539450D01*
X149024338Y-94539450D01*
X149060450Y-94503338D01*
X149060450Y-93979550D01*
X149479550Y-93979550D01*
X149479550Y-94503338D01*
X149515662Y-94539450D01*
X149798733Y-94539450D01*
X149851824Y-94517459D01*
X149892459Y-94476824D01*
X149914450Y-94423733D01*
X149914450Y-94015662D01*
X149878338Y-93979550D01*
X149479550Y-93979550D01*
X149060450Y-93979550D01*
X148661662Y-93979550D01*
X148625550Y-94015662D01*
X147819699Y-94015662D01*
X148625550Y-93209812D01*
X148625550Y-93524338D01*
X148661662Y-93560450D01*
X149060450Y-93560450D01*
X149060450Y-93036662D01*
X149479550Y-93036662D01*
X149479550Y-93560450D01*
X149878338Y-93560450D01*
X149914450Y-93524338D01*
X149914450Y-93116267D01*
X149892459Y-93063176D01*
X149851824Y-93022541D01*
X149798733Y-93000550D01*
X149515662Y-93000550D01*
X149479550Y-93036662D01*
X149060450Y-93036662D01*
X149024338Y-93000550D01*
X148834812Y-93000550D01*
X149274689Y-92560673D01*
X149296260Y-92546260D01*
X149353360Y-92460803D01*
X149368350Y-92385443D01*
X149368350Y-92385442D01*
X149373411Y-92360001D01*
X149368350Y-92334559D01*
X149368350Y-91745441D01*
X149373411Y-91719999D01*
X149365792Y-91681697D01*
X149353360Y-91619197D01*
X149296260Y-91533740D01*
X149274688Y-91519326D01*
X148660962Y-90905601D01*
X148660962Y-90535000D01*
X148650613Y-90482970D01*
X148621140Y-90438860D01*
X148577030Y-90409387D01*
X148525000Y-90399038D01*
X146975000Y-90399038D01*
X146922970Y-90409387D01*
X146878860Y-90438860D01*
X146849387Y-90482970D01*
X146839038Y-90535000D01*
X146839038Y-90576650D01*
X146752012Y-90576650D01*
X146500675Y-90325314D01*
X146486260Y-90303740D01*
X146400803Y-90246640D01*
X146345962Y-90235731D01*
X146345962Y-90008750D01*
X146317058Y-89863441D01*
X146234747Y-89740253D01*
X146111559Y-89657942D01*
X145966250Y-89629038D01*
X145053750Y-89629038D01*
X144908441Y-89657942D01*
X144785253Y-89740253D01*
X144702942Y-89863441D01*
X144674038Y-90008750D01*
X144674038Y-90496250D01*
X144702942Y-90641559D01*
X144785253Y-90764747D01*
X144908441Y-90847058D01*
X145053750Y-90875962D01*
X145966250Y-90875962D01*
X146111559Y-90847058D01*
X146219544Y-90774905D01*
X146444326Y-90999688D01*
X146458740Y-91021260D01*
X146536714Y-91073360D01*
X146544197Y-91078360D01*
X146645000Y-91098411D01*
X146670443Y-91093350D01*
X146839038Y-91093350D01*
X146839038Y-91135000D01*
X146849387Y-91187030D01*
X146878860Y-91231140D01*
X146922970Y-91260613D01*
X146975000Y-91270962D01*
X148295601Y-91270962D01*
X148851651Y-91827013D01*
X148851650Y-92252988D01*
X148651359Y-92453279D01*
X148660962Y-92405000D01*
X148660962Y-91805000D01*
X148650613Y-91752970D01*
X148621140Y-91708860D01*
X148577030Y-91679387D01*
X148525000Y-91669038D01*
X146975000Y-91669038D01*
X146922970Y-91679387D01*
X146878860Y-91708860D01*
X146849387Y-91752970D01*
X146839038Y-91805000D01*
X146839038Y-91869150D01*
X146343058Y-91869150D01*
X146317058Y-91738441D01*
X146234747Y-91615253D01*
X146111559Y-91532942D01*
X145966250Y-91504038D01*
X145251900Y-91504038D01*
X144411983Y-90664121D01*
X144427058Y-90641559D01*
X144455962Y-90496250D01*
X144455962Y-90008750D01*
X144427058Y-89863441D01*
X144344747Y-89740253D01*
X144221559Y-89657942D01*
X144076250Y-89629038D01*
X143163750Y-89629038D01*
X143018441Y-89657942D01*
X142895253Y-89740253D01*
X142812942Y-89863441D01*
X142784038Y-90008750D01*
X142608350Y-90008750D01*
X142608350Y-89488433D01*
X142653794Y-89442989D01*
X142708350Y-89311280D01*
X142708350Y-89247011D01*
X142789038Y-89166323D01*
X142789038Y-89250000D01*
X142799387Y-89302030D01*
X142828860Y-89346140D01*
X142872970Y-89375613D01*
X142925000Y-89385962D01*
X143925000Y-89385962D01*
X143977030Y-89375613D01*
X144021140Y-89346140D01*
X144050613Y-89302030D01*
X144060962Y-89250000D01*
X144060962Y-88870662D01*
X144780550Y-88870662D01*
X144780550Y-89278733D01*
X144802541Y-89331824D01*
X144843176Y-89372459D01*
X144896267Y-89394450D01*
X145179338Y-89394450D01*
X145215450Y-89358338D01*
X145215450Y-88834550D01*
X145634550Y-88834550D01*
X145634550Y-89358338D01*
X145670662Y-89394450D01*
X145953733Y-89394450D01*
X146006824Y-89372459D01*
X146047459Y-89331824D01*
X146069450Y-89278733D01*
X146069450Y-89265000D01*
X146839038Y-89265000D01*
X146839038Y-89865000D01*
X146849387Y-89917030D01*
X146878860Y-89961140D01*
X146922970Y-89990613D01*
X146975000Y-90000962D01*
X148525000Y-90000962D01*
X148577030Y-89990613D01*
X148621140Y-89961140D01*
X148650613Y-89917030D01*
X148660962Y-89865000D01*
X148660962Y-89823350D01*
X148667989Y-89823350D01*
X149901650Y-91057012D01*
X149901650Y-91121280D01*
X149956206Y-91252989D01*
X150001650Y-91298433D01*
X150001651Y-94642987D01*
X149870600Y-94774038D01*
X148900000Y-94774038D01*
X148847970Y-94784387D01*
X148803860Y-94813860D01*
X148774387Y-94857970D01*
X148764038Y-94910000D01*
X148764038Y-95810000D01*
X148774387Y-95862030D01*
X148803860Y-95906140D01*
X148847970Y-95935613D01*
X148900000Y-95945962D01*
X150100000Y-95945962D01*
X150152030Y-95935613D01*
X150196140Y-95906140D01*
X150225613Y-95862030D01*
X150235962Y-95810000D01*
X150235962Y-95209550D01*
X151863368Y-95209550D01*
X151867227Y-95318719D01*
X151988066Y-95499621D01*
X152221276Y-95672806D01*
X152330450Y-95678270D01*
X152330450Y-95209550D01*
X152749550Y-95209550D01*
X152749550Y-95678270D01*
X152858724Y-95672806D01*
X153091934Y-95499621D01*
X153177671Y-95371267D01*
X153390550Y-95371267D01*
X153390550Y-95654338D01*
X153426662Y-95690450D01*
X153950450Y-95690450D01*
X153950450Y-95291662D01*
X154369550Y-95291662D01*
X154369550Y-95690450D01*
X154893338Y-95690450D01*
X154929450Y-95654338D01*
X154929450Y-95371267D01*
X154907459Y-95318176D01*
X154866824Y-95277541D01*
X154813733Y-95255550D01*
X154405662Y-95255550D01*
X154369550Y-95291662D01*
X153950450Y-95291662D01*
X153914338Y-95255550D01*
X153506267Y-95255550D01*
X153453176Y-95277541D01*
X153412541Y-95318176D01*
X153390550Y-95371267D01*
X153177671Y-95371267D01*
X153212773Y-95318719D01*
X153216632Y-95209550D01*
X152749550Y-95209550D01*
X152330450Y-95209550D01*
X151863368Y-95209550D01*
X150235962Y-95209550D01*
X150235962Y-95139400D01*
X150424688Y-94950674D01*
X150446260Y-94936260D01*
X150503360Y-94850803D01*
X150515364Y-94790450D01*
X151863368Y-94790450D01*
X152330450Y-94790450D01*
X152749550Y-94790450D01*
X153216632Y-94790450D01*
X153212773Y-94681281D01*
X153091934Y-94500379D01*
X152858724Y-94327194D01*
X152749550Y-94321730D01*
X152749550Y-94790450D01*
X152330450Y-94790450D01*
X152330450Y-94321730D01*
X152221276Y-94327194D01*
X151988066Y-94500379D01*
X151867227Y-94681281D01*
X151863368Y-94790450D01*
X150515364Y-94790450D01*
X150518350Y-94775443D01*
X150523411Y-94750001D01*
X150518350Y-94724559D01*
X150518350Y-93145000D01*
X150634038Y-93145000D01*
X150634038Y-94395000D01*
X150644387Y-94447030D01*
X150673860Y-94491140D01*
X150717970Y-94520613D01*
X150770000Y-94530962D01*
X151770000Y-94530962D01*
X151822030Y-94520613D01*
X151866140Y-94491140D01*
X151895613Y-94447030D01*
X151905962Y-94395000D01*
X151905962Y-94028350D01*
X151994558Y-94028350D01*
X152020000Y-94033411D01*
X152045442Y-94028350D01*
X152045443Y-94028350D01*
X152120803Y-94013360D01*
X152206260Y-93956260D01*
X152220675Y-93934686D01*
X152437012Y-93718350D01*
X152501280Y-93718350D01*
X152632989Y-93663794D01*
X152733794Y-93562989D01*
X152788350Y-93431280D01*
X152788350Y-93288720D01*
X152733794Y-93157011D01*
X152632989Y-93056206D01*
X152501280Y-93001650D01*
X152358720Y-93001650D01*
X152227011Y-93056206D01*
X152126206Y-93157011D01*
X152071650Y-93288720D01*
X152071650Y-93352988D01*
X151912989Y-93511650D01*
X151905962Y-93511650D01*
X151905962Y-93145000D01*
X151895613Y-93092970D01*
X151866140Y-93048860D01*
X151822030Y-93019387D01*
X151770000Y-93009038D01*
X150770000Y-93009038D01*
X150717970Y-93019387D01*
X150673860Y-93048860D01*
X150644387Y-93092970D01*
X150634038Y-93145000D01*
X150518350Y-93145000D01*
X150518350Y-91298433D01*
X150563794Y-91252989D01*
X150618350Y-91121280D01*
X150618350Y-90978720D01*
X150563794Y-90847011D01*
X150475503Y-90758720D01*
X151331650Y-90758720D01*
X151331650Y-90901280D01*
X151386206Y-91032989D01*
X151487011Y-91133794D01*
X151618720Y-91188350D01*
X151761280Y-91188350D01*
X151892989Y-91133794D01*
X151938433Y-91088350D01*
X152074420Y-91088350D01*
X152099557Y-91093350D01*
X152124999Y-91098411D01*
X152150441Y-91093350D01*
X152239038Y-91093350D01*
X152239038Y-91135000D01*
X152249387Y-91187030D01*
X152278860Y-91231140D01*
X152322970Y-91260613D01*
X152375000Y-91270962D01*
X153925000Y-91270962D01*
X153977030Y-91260613D01*
X154021140Y-91231140D01*
X154050613Y-91187030D01*
X154060962Y-91135000D01*
X154060962Y-91093350D01*
X154067989Y-91093350D01*
X154191650Y-91217012D01*
X154191650Y-91281280D01*
X154246206Y-91412989D01*
X154347011Y-91513794D01*
X154478720Y-91568350D01*
X154621280Y-91568350D01*
X154752989Y-91513794D01*
X154853794Y-91412989D01*
X154908350Y-91281280D01*
X154908350Y-91138720D01*
X154853794Y-91007011D01*
X154752989Y-90906206D01*
X154621280Y-90851650D01*
X154557012Y-90851650D01*
X154375675Y-90670314D01*
X154361260Y-90648740D01*
X154275803Y-90591640D01*
X154200443Y-90576650D01*
X154200442Y-90576650D01*
X154175000Y-90571589D01*
X154149558Y-90576650D01*
X154060962Y-90576650D01*
X154060962Y-90535000D01*
X154050613Y-90482970D01*
X154021140Y-90438860D01*
X153977030Y-90409387D01*
X153925000Y-90399038D01*
X152375000Y-90399038D01*
X152322970Y-90409387D01*
X152278860Y-90438860D01*
X152249387Y-90482970D01*
X152239038Y-90535000D01*
X152239038Y-90576650D01*
X152170580Y-90576650D01*
X152145443Y-90571650D01*
X152145442Y-90571650D01*
X152120000Y-90566589D01*
X152094558Y-90571650D01*
X151938433Y-90571650D01*
X151892989Y-90526206D01*
X151761280Y-90471650D01*
X151618720Y-90471650D01*
X151487011Y-90526206D01*
X151386206Y-90627011D01*
X151331650Y-90758720D01*
X150475503Y-90758720D01*
X150462989Y-90746206D01*
X150331280Y-90691650D01*
X150267012Y-90691650D01*
X149084082Y-89508720D01*
X151131650Y-89508720D01*
X151131650Y-89651280D01*
X151186206Y-89782989D01*
X151287011Y-89883794D01*
X151418720Y-89938350D01*
X151561280Y-89938350D01*
X151692989Y-89883794D01*
X151753433Y-89823350D01*
X152239038Y-89823350D01*
X152239038Y-89865000D01*
X152249387Y-89917030D01*
X152278860Y-89961140D01*
X152322970Y-89990613D01*
X152375000Y-90000962D01*
X153925000Y-90000962D01*
X153977030Y-89990613D01*
X154021140Y-89961140D01*
X154050613Y-89917030D01*
X154060962Y-89865000D01*
X154060962Y-89265000D01*
X154050613Y-89212970D01*
X154021140Y-89168860D01*
X153977030Y-89139387D01*
X153925000Y-89129038D01*
X152375000Y-89129038D01*
X152322970Y-89139387D01*
X152278860Y-89168860D01*
X152249387Y-89212970D01*
X152239038Y-89265000D01*
X152239038Y-89306650D01*
X151723433Y-89306650D01*
X151692989Y-89276206D01*
X151561280Y-89221650D01*
X151418720Y-89221650D01*
X151287011Y-89276206D01*
X151186206Y-89377011D01*
X151131650Y-89508720D01*
X149084082Y-89508720D01*
X148975675Y-89400314D01*
X148961260Y-89378740D01*
X148875803Y-89321640D01*
X148800443Y-89306650D01*
X148800442Y-89306650D01*
X148775000Y-89301589D01*
X148749558Y-89306650D01*
X148660962Y-89306650D01*
X148660962Y-89265000D01*
X148650613Y-89212970D01*
X148621140Y-89168860D01*
X148577030Y-89139387D01*
X148525000Y-89129038D01*
X146975000Y-89129038D01*
X146922970Y-89139387D01*
X146878860Y-89168860D01*
X146849387Y-89212970D01*
X146839038Y-89265000D01*
X146069450Y-89265000D01*
X146069450Y-88870662D01*
X146033338Y-88834550D01*
X145634550Y-88834550D01*
X145215450Y-88834550D01*
X144816662Y-88834550D01*
X144780550Y-88870662D01*
X144060962Y-88870662D01*
X144060962Y-88481112D01*
X146830550Y-88481112D01*
X146830550Y-88623733D01*
X146852541Y-88676824D01*
X146893176Y-88717459D01*
X146946267Y-88739450D01*
X147504338Y-88739450D01*
X147540450Y-88703338D01*
X147540450Y-88445000D01*
X147959550Y-88445000D01*
X147959550Y-88703338D01*
X147995662Y-88739450D01*
X148553733Y-88739450D01*
X148606824Y-88717459D01*
X148647459Y-88676824D01*
X148669450Y-88623733D01*
X148669450Y-88481112D01*
X148633338Y-88445000D01*
X147959550Y-88445000D01*
X147540450Y-88445000D01*
X146866662Y-88445000D01*
X146830550Y-88481112D01*
X144060962Y-88481112D01*
X144060962Y-88000000D01*
X144055247Y-87971267D01*
X144780550Y-87971267D01*
X144780550Y-88379338D01*
X144816662Y-88415450D01*
X145215450Y-88415450D01*
X145215450Y-87891662D01*
X145634550Y-87891662D01*
X145634550Y-88415450D01*
X146033338Y-88415450D01*
X146069450Y-88379338D01*
X146069450Y-87971267D01*
X146067379Y-87966267D01*
X146830550Y-87966267D01*
X146830550Y-88108888D01*
X146866662Y-88145000D01*
X147540450Y-88145000D01*
X147540450Y-87886662D01*
X147959550Y-87886662D01*
X147959550Y-88145000D01*
X148633338Y-88145000D01*
X148669450Y-88108888D01*
X148669450Y-87995000D01*
X152239038Y-87995000D01*
X152239038Y-88595000D01*
X152249387Y-88647030D01*
X152278860Y-88691140D01*
X152322970Y-88720613D01*
X152375000Y-88730962D01*
X153925000Y-88730962D01*
X153977030Y-88720613D01*
X154007436Y-88700297D01*
X155184025Y-89876887D01*
X155162942Y-89908441D01*
X155134038Y-90053750D01*
X155134038Y-90541250D01*
X155162942Y-90686559D01*
X155245253Y-90809747D01*
X155368441Y-90892058D01*
X155513750Y-90920962D01*
X155711650Y-90920962D01*
X155711651Y-91169038D01*
X155523750Y-91169038D01*
X155378441Y-91197942D01*
X155255253Y-91280253D01*
X155172942Y-91403441D01*
X155144038Y-91548750D01*
X155144038Y-92036250D01*
X155155058Y-92091650D01*
X154798433Y-92091650D01*
X154752989Y-92046206D01*
X154621280Y-91991650D01*
X154478720Y-91991650D01*
X154347011Y-92046206D01*
X154246206Y-92147011D01*
X154191650Y-92278720D01*
X154191650Y-92306288D01*
X154060962Y-92175601D01*
X154060962Y-91805000D01*
X154050613Y-91752970D01*
X154021140Y-91708860D01*
X153977030Y-91679387D01*
X153925000Y-91669038D01*
X152375000Y-91669038D01*
X152322970Y-91679387D01*
X152278860Y-91708860D01*
X152249387Y-91752970D01*
X152239038Y-91805000D01*
X152239038Y-92405000D01*
X152249387Y-92457030D01*
X152278860Y-92501140D01*
X152322970Y-92530613D01*
X152375000Y-92540962D01*
X153695601Y-92540962D01*
X153916651Y-92762013D01*
X153916650Y-93014183D01*
X153916641Y-93014197D01*
X153896589Y-93115000D01*
X153901651Y-93140447D01*
X153901651Y-93264038D01*
X153535000Y-93264038D01*
X153482970Y-93274387D01*
X153438860Y-93303860D01*
X153409387Y-93347970D01*
X153399038Y-93400000D01*
X153399038Y-94400000D01*
X153409387Y-94452030D01*
X153438860Y-94496140D01*
X153482970Y-94525613D01*
X153535000Y-94535962D01*
X154785000Y-94535962D01*
X154837030Y-94525613D01*
X154881140Y-94496140D01*
X154910613Y-94452030D01*
X154920962Y-94400000D01*
X154920962Y-93925850D01*
X155146942Y-93925850D01*
X155172942Y-94056559D01*
X155255253Y-94179747D01*
X155378441Y-94262058D01*
X155523750Y-94290962D01*
X155721651Y-94290962D01*
X155721650Y-94529038D01*
X155523750Y-94529038D01*
X155378441Y-94557942D01*
X155255253Y-94640253D01*
X155172942Y-94763441D01*
X155144038Y-94908750D01*
X155144038Y-95396250D01*
X155172942Y-95541559D01*
X155255253Y-95664747D01*
X155378441Y-95747058D01*
X155523750Y-95775962D01*
X156436250Y-95775962D01*
X156581559Y-95747058D01*
X156694989Y-95671267D01*
X158880550Y-95671267D01*
X158880550Y-95813888D01*
X158916662Y-95850000D01*
X159590450Y-95850000D01*
X159590450Y-95591662D01*
X160009550Y-95591662D01*
X160009550Y-95850000D01*
X160683338Y-95850000D01*
X160719450Y-95813888D01*
X160719450Y-95671267D01*
X160697459Y-95618176D01*
X160656824Y-95577541D01*
X160603733Y-95555550D01*
X160045662Y-95555550D01*
X160009550Y-95591662D01*
X159590450Y-95591662D01*
X159554338Y-95555550D01*
X158996267Y-95555550D01*
X158943176Y-95577541D01*
X158902541Y-95618176D01*
X158880550Y-95671267D01*
X156694989Y-95671267D01*
X156704747Y-95664747D01*
X156787058Y-95541559D01*
X156815962Y-95396250D01*
X156815962Y-94908750D01*
X156787058Y-94763441D01*
X156744669Y-94700000D01*
X158889038Y-94700000D01*
X158889038Y-95300000D01*
X158899387Y-95352030D01*
X158928860Y-95396140D01*
X158972970Y-95425613D01*
X159025000Y-95435962D01*
X160575000Y-95435962D01*
X160627030Y-95425613D01*
X160671140Y-95396140D01*
X160700613Y-95352030D01*
X160710962Y-95300000D01*
X160710962Y-95258350D01*
X160921567Y-95258350D01*
X160967011Y-95303794D01*
X161098720Y-95358350D01*
X161241280Y-95358350D01*
X161372989Y-95303794D01*
X161473794Y-95202989D01*
X161528350Y-95071280D01*
X161528350Y-94928720D01*
X161473794Y-94797011D01*
X161372989Y-94696206D01*
X161241280Y-94641650D01*
X161098720Y-94641650D01*
X160967011Y-94696206D01*
X160921567Y-94741650D01*
X160710962Y-94741650D01*
X160710962Y-94700000D01*
X160700613Y-94647970D01*
X160671140Y-94603860D01*
X160627030Y-94574387D01*
X160575000Y-94564038D01*
X159025000Y-94564038D01*
X158972970Y-94574387D01*
X158928860Y-94603860D01*
X158899387Y-94647970D01*
X158889038Y-94700000D01*
X156744669Y-94700000D01*
X156704747Y-94640253D01*
X156581559Y-94557942D01*
X156436250Y-94529038D01*
X156238350Y-94529038D01*
X156238350Y-94290962D01*
X156436250Y-94290962D01*
X156581559Y-94262058D01*
X156704747Y-94179747D01*
X156787058Y-94056559D01*
X156815962Y-93911250D01*
X156815962Y-93700000D01*
X158889038Y-93700000D01*
X158889038Y-94300000D01*
X158899387Y-94352030D01*
X158928860Y-94396140D01*
X158972970Y-94425613D01*
X159025000Y-94435962D01*
X160575000Y-94435962D01*
X160627030Y-94425613D01*
X160671140Y-94396140D01*
X160700613Y-94352030D01*
X160710962Y-94300000D01*
X160710962Y-93700000D01*
X160700613Y-93647970D01*
X160671140Y-93603860D01*
X160627030Y-93574387D01*
X160575000Y-93564038D01*
X160058350Y-93564038D01*
X160058350Y-93475441D01*
X160063411Y-93449999D01*
X160055285Y-93409150D01*
X160043360Y-93349197D01*
X159986260Y-93263740D01*
X159964688Y-93249326D01*
X159768350Y-93052989D01*
X159768350Y-92988720D01*
X159713794Y-92857011D01*
X159612989Y-92756206D01*
X159481280Y-92701650D01*
X159338720Y-92701650D01*
X159207011Y-92756206D01*
X159106206Y-92857011D01*
X159051650Y-92988720D01*
X159051650Y-93131280D01*
X159106206Y-93262989D01*
X159207011Y-93363794D01*
X159338720Y-93418350D01*
X159402989Y-93418350D01*
X159541651Y-93557013D01*
X159541651Y-93564038D01*
X159025000Y-93564038D01*
X158972970Y-93574387D01*
X158928860Y-93603860D01*
X158899387Y-93647970D01*
X158889038Y-93700000D01*
X156815962Y-93700000D01*
X156815962Y-93423750D01*
X156787058Y-93278441D01*
X156704747Y-93155253D01*
X156581559Y-93072942D01*
X156436250Y-93044038D01*
X155523750Y-93044038D01*
X155378441Y-93072942D01*
X155255253Y-93155253D01*
X155172942Y-93278441D01*
X155146942Y-93409150D01*
X154920962Y-93409150D01*
X154920962Y-93400000D01*
X154910613Y-93347970D01*
X154881140Y-93303860D01*
X154837030Y-93274387D01*
X154785000Y-93264038D01*
X154418350Y-93264038D01*
X154418350Y-93200818D01*
X154418360Y-93200803D01*
X154433350Y-93125443D01*
X154433350Y-93125442D01*
X154438411Y-93100001D01*
X154433350Y-93074559D01*
X154433350Y-92689557D01*
X154478720Y-92708350D01*
X154621280Y-92708350D01*
X154752989Y-92653794D01*
X154798433Y-92608350D01*
X155397058Y-92608350D01*
X155422500Y-92613411D01*
X155447942Y-92608350D01*
X155447943Y-92608350D01*
X155523303Y-92593360D01*
X155608760Y-92536260D01*
X155623175Y-92514686D01*
X155721899Y-92415962D01*
X156436250Y-92415962D01*
X156581559Y-92387058D01*
X156704747Y-92304747D01*
X156787058Y-92181559D01*
X156815962Y-92036250D01*
X156815962Y-91548750D01*
X156787058Y-91403441D01*
X156704747Y-91280253D01*
X156581559Y-91197942D01*
X156436250Y-91169038D01*
X156228350Y-91169038D01*
X156228350Y-90920962D01*
X156426250Y-90920962D01*
X156571559Y-90892058D01*
X156694747Y-90809747D01*
X156777058Y-90686559D01*
X156805962Y-90541250D01*
X156805962Y-90053750D01*
X156777058Y-89908441D01*
X156694747Y-89785253D01*
X156571559Y-89702942D01*
X156426250Y-89674038D01*
X155711900Y-89674038D01*
X154168175Y-88130314D01*
X154153760Y-88108740D01*
X154068303Y-88051640D01*
X154060962Y-88050180D01*
X154060962Y-87995000D01*
X154055735Y-87968720D01*
X154291650Y-87968720D01*
X154291650Y-88111280D01*
X154346206Y-88242989D01*
X154447011Y-88343794D01*
X154578720Y-88398350D01*
X154721280Y-88398350D01*
X154763147Y-88381008D01*
X154969326Y-88587188D01*
X154983740Y-88608760D01*
X155008047Y-88625001D01*
X155069197Y-88665860D01*
X155136628Y-88679273D01*
X155162942Y-88811559D01*
X155245253Y-88934747D01*
X155368441Y-89017058D01*
X155513750Y-89045962D01*
X156426250Y-89045962D01*
X156571559Y-89017058D01*
X156694747Y-88934747D01*
X156777058Y-88811559D01*
X156805962Y-88666250D01*
X156805962Y-88178750D01*
X156777058Y-88033441D01*
X156694747Y-87910253D01*
X156571559Y-87827942D01*
X156426250Y-87799038D01*
X155513750Y-87799038D01*
X155368441Y-87827942D01*
X155245253Y-87910253D01*
X155162942Y-88033441D01*
X155160181Y-88047320D01*
X154988175Y-87875314D01*
X154973760Y-87853740D01*
X154955735Y-87841696D01*
X154953794Y-87837011D01*
X154852989Y-87736206D01*
X154721280Y-87681650D01*
X154578720Y-87681650D01*
X154447011Y-87736206D01*
X154346206Y-87837011D01*
X154291650Y-87968720D01*
X154055735Y-87968720D01*
X154050613Y-87942970D01*
X154021140Y-87898860D01*
X153977030Y-87869387D01*
X153925000Y-87859038D01*
X152375000Y-87859038D01*
X152322970Y-87869387D01*
X152278860Y-87898860D01*
X152249387Y-87942970D01*
X152239038Y-87995000D01*
X148669450Y-87995000D01*
X148669450Y-87966267D01*
X148647459Y-87913176D01*
X148606824Y-87872541D01*
X148553733Y-87850550D01*
X147995662Y-87850550D01*
X147959550Y-87886662D01*
X147540450Y-87886662D01*
X147504338Y-87850550D01*
X146946267Y-87850550D01*
X146893176Y-87872541D01*
X146852541Y-87913176D01*
X146830550Y-87966267D01*
X146067379Y-87966267D01*
X146047459Y-87918176D01*
X146006824Y-87877541D01*
X145953733Y-87855550D01*
X145670662Y-87855550D01*
X145634550Y-87891662D01*
X145215450Y-87891662D01*
X145179338Y-87855550D01*
X144896267Y-87855550D01*
X144843176Y-87877541D01*
X144802541Y-87918176D01*
X144780550Y-87971267D01*
X144055247Y-87971267D01*
X144050613Y-87947970D01*
X144021140Y-87903860D01*
X143977030Y-87874387D01*
X143925000Y-87864038D01*
X142925000Y-87864038D01*
X142872970Y-87874387D01*
X142828860Y-87903860D01*
X142799387Y-87947970D01*
X142789038Y-88000000D01*
X142789038Y-88431859D01*
X142778740Y-88438740D01*
X142764326Y-88460312D01*
X142342989Y-88881650D01*
X142278720Y-88881650D01*
X142147011Y-88936206D01*
X142046206Y-89037011D01*
X141991650Y-89168720D01*
X136956503Y-89168720D01*
X142370552Y-83754671D01*
X148766650Y-83754671D01*
X148766650Y-84245329D01*
X148954416Y-84698637D01*
X149301363Y-85045584D01*
X149754671Y-85233350D01*
X150245329Y-85233350D01*
X150698637Y-85045584D01*
X151045584Y-84698637D01*
X151233350Y-84245329D01*
X151233350Y-83754671D01*
X151045584Y-83301363D01*
X150698637Y-82954416D01*
X150245329Y-82766650D01*
X149754671Y-82766650D01*
X149301363Y-82954416D01*
X148954416Y-83301363D01*
X148766650Y-83754671D01*
X142370552Y-83754671D01*
X144471706Y-81653518D01*
X155528295Y-81653518D01*
X163346483Y-89471707D01*
G04 #@! TD*
M02*
