M48
;DRILL file {KiCad (5.0.0)} date 03/24/19 09:48:15
;FORMAT={3:3/ absolute / metric / suppress leading zeros}
FMAT,2
METRIC,TZ
T1C0.200
T2C0.700
T3C2.200
%
G90
G05
M71
T1
X137540Y-91160
X137700Y-97900
X138350Y-94650
X138950Y-101260
X139260Y-88130
X139600Y-91770
X139600Y-97450
X141650Y-91970
X142080Y-85210
X142350Y-89240
X143010Y-97940
X143070Y-100940
X143330Y-105020
X143520Y-93220
X143710Y-99330
X143720Y-91180
X144000Y-84220
X144440Y-88430
X145100Y-99050
X145150Y-106970
X145720Y-85010
X146030Y-101460
X146170Y-104540
X146350Y-91240
X146440Y-93510
X146810Y-99230
X147130Y-107480
X147340Y-82460
X147660Y-100640
X148150Y-93980
X148750Y-96510
X149190Y-90850
X149210Y-97160
X149440Y-88250
X150120Y-97510
X150260Y-91050
X150260Y-100790
X151360Y-88420
X151490Y-89580
X151690Y-90830
X151900Y-98570
X152390Y-99870
X152430Y-93360
X152530Y-101750
X152860Y-85040
X153280Y-97430
X153350Y-107360
X153890Y-99260
X154550Y-91210
X154550Y-92350
X154580Y-90160
X154650Y-88040
X154660Y-84510
X154910Y-82940
X155060Y-105280
X156580Y-105380
X157430Y-97955
X157450Y-85040
X157700Y-91970
X158860Y-98620
X159070Y-90660
X159410Y-93060
X159590Y-92310
X159600Y-102210
X159900Y-100400
X160070Y-88440
X161170Y-95000
X161910Y-99850
X162200Y-89960
T2
X147460Y-95000
X152540Y-95000
T3
X150000Y-106000
X150000Y-84000
T0
M30
